G04 #@! TF.GenerationSoftware,KiCad,Pcbnew,(5.1.5-0-10_14)*
G04 #@! TF.CreationDate,2020-12-29T13:30:18-08:00*
G04 #@! TF.ProjectId,FakeEyes,46616b65-4579-4657-932e-6b696361645f,rev?*
G04 #@! TF.SameCoordinates,Original*
G04 #@! TF.FileFunction,Legend,Top*
G04 #@! TF.FilePolarity,Positive*
%FSLAX46Y46*%
G04 Gerber Fmt 4.6, Leading zero omitted, Abs format (unit mm)*
G04 Created by KiCad (PCBNEW (5.1.5-0-10_14)) date 2020-12-29 13:30:18*
%MOMM*%
%LPD*%
G04 APERTURE LIST*
%ADD10C,0.300000*%
%ADD11C,0.010000*%
%ADD12C,0.120000*%
%ADD13C,0.127000*%
G04 APERTURE END LIST*
D10*
X96357142Y-79107142D02*
X97500000Y-79107142D01*
X96928571Y-79678571D02*
X96928571Y-78535714D01*
X98071428Y-78178571D02*
X99000000Y-78178571D01*
X98500000Y-78750000D01*
X98714285Y-78750000D01*
X98857142Y-78821428D01*
X98928571Y-78892857D01*
X99000000Y-79035714D01*
X99000000Y-79392857D01*
X98928571Y-79535714D01*
X98857142Y-79607142D01*
X98714285Y-79678571D01*
X98285714Y-79678571D01*
X98142857Y-79607142D01*
X98071428Y-79535714D01*
X99428571Y-78178571D02*
X99928571Y-79678571D01*
X100428571Y-78178571D01*
X100785714Y-78178571D02*
X101714285Y-78178571D01*
X101214285Y-78750000D01*
X101428571Y-78750000D01*
X101571428Y-78821428D01*
X101642857Y-78892857D01*
X101714285Y-79035714D01*
X101714285Y-79392857D01*
X101642857Y-79535714D01*
X101571428Y-79607142D01*
X101428571Y-79678571D01*
X101000000Y-79678571D01*
X100857142Y-79607142D01*
X100785714Y-79535714D01*
X97571428Y-72107142D02*
X98714285Y-72107142D01*
X98142857Y-72678571D02*
X98142857Y-71535714D01*
X100142857Y-71178571D02*
X99428571Y-71178571D01*
X99357142Y-71892857D01*
X99428571Y-71821428D01*
X99571428Y-71750000D01*
X99928571Y-71750000D01*
X100071428Y-71821428D01*
X100142857Y-71892857D01*
X100214285Y-72035714D01*
X100214285Y-72392857D01*
X100142857Y-72535714D01*
X100071428Y-72607142D01*
X99928571Y-72678571D01*
X99571428Y-72678571D01*
X99428571Y-72607142D01*
X99357142Y-72535714D01*
X100642857Y-71178571D02*
X101142857Y-72678571D01*
X101642857Y-71178571D01*
X122250000Y-67142857D02*
X122178571Y-67285714D01*
X122178571Y-67500000D01*
X122250000Y-67714285D01*
X122392857Y-67857142D01*
X122535714Y-67928571D01*
X122821428Y-68000000D01*
X123035714Y-68000000D01*
X123321428Y-67928571D01*
X123464285Y-67857142D01*
X123607142Y-67714285D01*
X123678571Y-67500000D01*
X123678571Y-67357142D01*
X123607142Y-67142857D01*
X123535714Y-67071428D01*
X123035714Y-67071428D01*
X123035714Y-67357142D01*
X123678571Y-66428571D02*
X122178571Y-66428571D01*
X123678571Y-65571428D01*
X122178571Y-65571428D01*
X123678571Y-64857142D02*
X122178571Y-64857142D01*
X122178571Y-64500000D01*
X122250000Y-64285714D01*
X122392857Y-64142857D01*
X122535714Y-64071428D01*
X122821428Y-64000000D01*
X123035714Y-64000000D01*
X123321428Y-64071428D01*
X123464285Y-64142857D01*
X123607142Y-64285714D01*
X123678571Y-64500000D01*
X123678571Y-64857142D01*
X124678571Y-68964285D02*
X126178571Y-68464285D01*
X124678571Y-67964285D01*
X126178571Y-67464285D02*
X124678571Y-67464285D01*
X125750000Y-66964285D01*
X124678571Y-66464285D01*
X126178571Y-66464285D01*
X126178571Y-65750000D02*
X124678571Y-65750000D01*
X126178571Y-65035714D02*
X124678571Y-65035714D01*
X124678571Y-64678571D01*
X124750000Y-64464285D01*
X124892857Y-64321428D01*
X125035714Y-64250000D01*
X125321428Y-64178571D01*
X125535714Y-64178571D01*
X125821428Y-64250000D01*
X125964285Y-64321428D01*
X126107142Y-64464285D01*
X126178571Y-64678571D01*
X126178571Y-65035714D01*
X95250000Y-67142857D02*
X95178571Y-67285714D01*
X95178571Y-67500000D01*
X95250000Y-67714285D01*
X95392857Y-67857142D01*
X95535714Y-67928571D01*
X95821428Y-68000000D01*
X96035714Y-68000000D01*
X96321428Y-67928571D01*
X96464285Y-67857142D01*
X96607142Y-67714285D01*
X96678571Y-67500000D01*
X96678571Y-67357142D01*
X96607142Y-67142857D01*
X96535714Y-67071428D01*
X96035714Y-67071428D01*
X96035714Y-67357142D01*
X96678571Y-66428571D02*
X95178571Y-66428571D01*
X96678571Y-65571428D01*
X95178571Y-65571428D01*
X96678571Y-64857142D02*
X95178571Y-64857142D01*
X95178571Y-64500000D01*
X95250000Y-64285714D01*
X95392857Y-64142857D01*
X95535714Y-64071428D01*
X95821428Y-64000000D01*
X96035714Y-64000000D01*
X96321428Y-64071428D01*
X96464285Y-64142857D01*
X96607142Y-64285714D01*
X96678571Y-64500000D01*
X96678571Y-64857142D01*
X97678571Y-68000000D02*
X99178571Y-67500000D01*
X97678571Y-67000000D01*
X99035714Y-65642857D02*
X99107142Y-65714285D01*
X99178571Y-65928571D01*
X99178571Y-66071428D01*
X99107142Y-66285714D01*
X98964285Y-66428571D01*
X98821428Y-66500000D01*
X98535714Y-66571428D01*
X98321428Y-66571428D01*
X98035714Y-66500000D01*
X97892857Y-66428571D01*
X97750000Y-66285714D01*
X97678571Y-66071428D01*
X97678571Y-65928571D01*
X97750000Y-65714285D01*
X97821428Y-65642857D01*
X99035714Y-64142857D02*
X99107142Y-64214285D01*
X99178571Y-64428571D01*
X99178571Y-64571428D01*
X99107142Y-64785714D01*
X98964285Y-64928571D01*
X98821428Y-65000000D01*
X98535714Y-65071428D01*
X98321428Y-65071428D01*
X98035714Y-65000000D01*
X97892857Y-64928571D01*
X97750000Y-64785714D01*
X97678571Y-64571428D01*
X97678571Y-64428571D01*
X97750000Y-64214285D01*
X97821428Y-64142857D01*
X70882863Y-69342508D02*
X71943523Y-68281847D01*
X71539462Y-69393015D01*
X72650630Y-68988954D01*
X71589969Y-70049614D01*
X72549614Y-71009259D02*
X73105198Y-70453675D01*
X73155706Y-70302152D01*
X73105198Y-70150630D01*
X72903168Y-69948599D01*
X72751645Y-69898091D01*
X72600122Y-70958752D02*
X72448599Y-70908244D01*
X72196061Y-70655706D01*
X72145553Y-70504183D01*
X72196061Y-70352660D01*
X72297076Y-70251645D01*
X72448599Y-70201137D01*
X72600122Y-70251645D01*
X72852660Y-70504183D01*
X73004183Y-70554691D01*
X73610274Y-70655706D02*
X74014335Y-71059767D01*
X74115351Y-70453675D02*
X73206213Y-71362813D01*
X73155706Y-71514335D01*
X73206213Y-71665858D01*
X73307229Y-71766874D01*
X74216366Y-71261797D02*
X74620427Y-71665858D01*
X74721442Y-71059767D02*
X73812305Y-71968904D01*
X73761797Y-72120427D01*
X73812305Y-72271950D01*
X73913320Y-72372965D01*
X75074996Y-73534641D02*
X76135656Y-72473980D01*
X75630580Y-72979057D02*
X76236671Y-73585148D01*
X75681087Y-74140732D02*
X76741747Y-73080072D01*
X76337686Y-74797331D02*
X76287179Y-74645808D01*
X76287179Y-74544793D01*
X76337686Y-74393270D01*
X76640732Y-74090224D01*
X76792255Y-74039717D01*
X76893270Y-74039717D01*
X77044793Y-74090224D01*
X77196316Y-74241747D01*
X77246824Y-74393270D01*
X77246824Y-74494285D01*
X77196316Y-74645808D01*
X76893270Y-74948854D01*
X76741747Y-74999362D01*
X76640732Y-74999362D01*
X76489209Y-74948854D01*
X76337686Y-74797331D01*
X77297331Y-75756976D02*
X77246824Y-75605453D01*
X77297331Y-75453930D01*
X78206469Y-74544793D01*
X77852915Y-76312560D02*
X77802408Y-76161037D01*
X77852915Y-76009514D01*
X78762052Y-75100377D01*
X78711545Y-77171190D02*
X79267129Y-76615606D01*
X79317636Y-76464083D01*
X79267129Y-76312560D01*
X79065098Y-76110530D01*
X78913575Y-76060022D01*
X78762052Y-77120682D02*
X78610530Y-77070174D01*
X78357991Y-76817636D01*
X78307484Y-76666113D01*
X78357991Y-76514591D01*
X78459007Y-76413575D01*
X78610530Y-76363068D01*
X78762052Y-76413575D01*
X79014591Y-76666113D01*
X79166113Y-76716621D01*
X79923728Y-76969159D02*
X79216621Y-77676266D01*
X79822713Y-77070174D02*
X79923728Y-77070174D01*
X80075251Y-77120682D01*
X80226774Y-77272205D01*
X80277281Y-77423728D01*
X80226774Y-77575251D01*
X79671190Y-78130835D01*
X80630835Y-79090480D02*
X81691495Y-78029819D01*
X80681342Y-79039972D02*
X80529819Y-78989464D01*
X80327789Y-78787434D01*
X80277281Y-78635911D01*
X80277281Y-78534896D01*
X80327789Y-78383373D01*
X80630835Y-78080327D01*
X80782358Y-78029819D01*
X80883373Y-78029819D01*
X81034896Y-78080327D01*
X81236926Y-78282358D01*
X81287434Y-78433880D01*
X81135911Y-79494541D02*
X81186419Y-79646063D01*
X81388449Y-79848094D01*
X81539972Y-79898602D01*
X81691495Y-79848094D01*
X81742002Y-79797586D01*
X81792510Y-79646063D01*
X81742002Y-79494541D01*
X81590480Y-79343018D01*
X81539972Y-79191495D01*
X81590480Y-79039972D01*
X81640987Y-78989464D01*
X81792510Y-78938957D01*
X81944033Y-78989464D01*
X82095556Y-79140987D01*
X82146063Y-79292510D01*
X83711800Y-80252155D02*
X83812815Y-80252155D01*
X83964338Y-80302663D01*
X84216876Y-80555201D01*
X84267384Y-80706724D01*
X84267384Y-80807739D01*
X84216876Y-80959262D01*
X84115861Y-81060277D01*
X83913830Y-81161292D01*
X82701647Y-81161292D01*
X83358247Y-81817891D01*
X85075506Y-81413830D02*
X85176521Y-81514846D01*
X85227029Y-81666369D01*
X85227029Y-81767384D01*
X85176521Y-81918907D01*
X85024998Y-82171445D01*
X84772460Y-82423983D01*
X84519922Y-82575506D01*
X84368399Y-82626013D01*
X84267384Y-82626013D01*
X84115861Y-82575506D01*
X84014846Y-82474491D01*
X83964338Y-82322968D01*
X83964338Y-82221952D01*
X84014846Y-82070430D01*
X84166369Y-81817891D01*
X84418907Y-81565353D01*
X84671445Y-81413830D01*
X84822968Y-81363323D01*
X84923983Y-81363323D01*
X85075506Y-81413830D01*
X85732105Y-82272460D02*
X85833120Y-82272460D01*
X85984643Y-82322968D01*
X86237181Y-82575506D01*
X86287689Y-82727029D01*
X86287689Y-82828044D01*
X86237181Y-82979567D01*
X86136166Y-83080582D01*
X85934136Y-83181597D01*
X84721952Y-83181597D01*
X85378552Y-83838197D01*
X87095811Y-83434136D02*
X87196826Y-83535151D01*
X87247334Y-83686674D01*
X87247334Y-83787689D01*
X87196826Y-83939212D01*
X87045303Y-84191750D01*
X86792765Y-84444288D01*
X86540227Y-84595811D01*
X86388704Y-84646319D01*
X86287689Y-84646319D01*
X86136166Y-84595811D01*
X86035151Y-84494796D01*
X85984643Y-84343273D01*
X85984643Y-84242258D01*
X86035151Y-84090735D01*
X86186674Y-83838197D01*
X86439212Y-83585658D01*
X86691750Y-83434136D01*
X86843273Y-83383628D01*
X86944288Y-83383628D01*
X87095811Y-83434136D01*
X88358502Y-85403933D02*
X87297841Y-86464593D01*
X88307994Y-85454441D02*
X88459517Y-85504948D01*
X88661547Y-85706979D01*
X88712055Y-85858502D01*
X88712055Y-85959517D01*
X88661547Y-86111040D01*
X88358502Y-86414086D01*
X88206979Y-86464593D01*
X88105963Y-86464593D01*
X87954441Y-86414086D01*
X87752410Y-86212055D01*
X87701902Y-86060532D01*
X88611040Y-87070685D02*
X89318147Y-86363578D01*
X89116116Y-86565608D02*
X89267639Y-86515101D01*
X89368654Y-86515101D01*
X89520177Y-86565608D01*
X89621192Y-86666624D01*
X89419162Y-87878807D02*
X89368654Y-87727284D01*
X89368654Y-87626269D01*
X89419162Y-87474746D01*
X89722208Y-87171700D01*
X89873730Y-87121192D01*
X89974746Y-87121192D01*
X90126269Y-87171700D01*
X90277791Y-87323223D01*
X90328299Y-87474746D01*
X90328299Y-87575761D01*
X90277791Y-87727284D01*
X89974746Y-88030330D01*
X89823223Y-88080837D01*
X89722208Y-88080837D01*
X89570685Y-88030330D01*
X89419162Y-87878807D01*
X90934391Y-87979822D02*
X90025253Y-88888959D01*
X89873730Y-88939467D01*
X89722208Y-88888959D01*
X89671700Y-88838452D01*
X91287944Y-87626269D02*
X91186929Y-87626269D01*
X91186929Y-87727284D01*
X91287944Y-87727284D01*
X91287944Y-87626269D01*
X91186929Y-87727284D01*
X91186929Y-89545558D02*
X91035406Y-89495051D01*
X90833375Y-89293020D01*
X90782868Y-89141497D01*
X90833375Y-88989975D01*
X91237436Y-88585913D01*
X91388959Y-88535406D01*
X91540482Y-88585913D01*
X91742513Y-88787944D01*
X91793020Y-88939467D01*
X91742513Y-89090990D01*
X91641497Y-89192005D01*
X91035406Y-88787944D01*
X92146574Y-90505203D02*
X91995051Y-90454696D01*
X91793020Y-90252665D01*
X91742513Y-90101142D01*
X91742513Y-90000127D01*
X91793020Y-89848604D01*
X92096066Y-89545558D01*
X92247589Y-89495051D01*
X92348604Y-89495051D01*
X92500127Y-89545558D01*
X92702158Y-89747589D01*
X92752665Y-89899112D01*
X93106219Y-90151650D02*
X93510280Y-90555711D01*
X93611295Y-89949619D02*
X92702158Y-90858757D01*
X92651650Y-91010280D01*
X92702158Y-91161802D01*
X92803173Y-91262818D01*
X93156726Y-91515356D02*
X93207234Y-91666879D01*
X93409264Y-91868909D01*
X93560787Y-91919417D01*
X93712310Y-91868909D01*
X93762818Y-91818402D01*
X93813325Y-91666879D01*
X93762818Y-91515356D01*
X93611295Y-91363833D01*
X93560787Y-91212310D01*
X93611295Y-91060787D01*
X93661802Y-91010280D01*
X93813325Y-90959772D01*
X93964848Y-91010280D01*
X94116371Y-91161802D01*
X94166879Y-91313325D01*
X94116371Y-92373986D02*
X94116371Y-92475001D01*
X94015356Y-92475001D01*
X94015356Y-92373986D01*
X94116371Y-92373986D01*
X94015356Y-92475001D01*
X94520432Y-92980077D02*
X95227539Y-92272970D01*
X95126524Y-92373986D02*
X95227539Y-92373986D01*
X95379062Y-92424493D01*
X95530585Y-92576016D01*
X95581092Y-92727539D01*
X95530585Y-92879062D01*
X94975001Y-93434646D01*
X95530585Y-92879062D02*
X95682108Y-92828554D01*
X95833630Y-92879062D01*
X95985153Y-93030585D01*
X96035661Y-93182108D01*
X95985153Y-93333630D01*
X95429569Y-93889214D01*
X96389214Y-94848859D02*
X96944798Y-94293275D01*
X96995306Y-94141752D01*
X96944798Y-93990230D01*
X96742768Y-93788199D01*
X96591245Y-93737691D01*
X96439722Y-94798352D02*
X96288199Y-94747844D01*
X96035661Y-94495306D01*
X95985153Y-94343783D01*
X96035661Y-94192260D01*
X96136676Y-94091245D01*
X96288199Y-94040737D01*
X96439722Y-94091245D01*
X96692260Y-94343783D01*
X96843783Y-94394291D01*
X97449875Y-94495306D02*
X97853936Y-94899367D01*
X97954951Y-94293275D02*
X97045813Y-95202413D01*
X96995306Y-95353936D01*
X97045813Y-95505458D01*
X97146829Y-95606474D01*
X98055966Y-95101397D02*
X98460027Y-95505458D01*
X98561042Y-94899367D02*
X97651905Y-95808504D01*
X97601397Y-95960027D01*
X97651905Y-96111550D01*
X97752920Y-96212565D01*
X98106474Y-96566119D02*
X99167134Y-95505458D01*
X98561042Y-97020687D02*
X99116626Y-96465103D01*
X99167134Y-96313580D01*
X99116626Y-96162058D01*
X98965103Y-96010535D01*
X98813580Y-95960027D01*
X98712565Y-95960027D01*
X99217641Y-97677286D02*
X99167134Y-97525764D01*
X99167134Y-97424748D01*
X99217641Y-97273225D01*
X99520687Y-96970180D01*
X99672210Y-96919672D01*
X99773225Y-96919672D01*
X99924748Y-96970180D01*
X100076271Y-97121702D01*
X100126779Y-97273225D01*
X100126779Y-97374241D01*
X100076271Y-97525764D01*
X99773225Y-97828809D01*
X99621702Y-97879317D01*
X99520687Y-97879317D01*
X99369164Y-97828809D01*
X99217641Y-97677286D01*
X100177286Y-98636931D02*
X100126779Y-98485408D01*
X100177286Y-98333886D01*
X101086424Y-97424748D01*
X100732870Y-99192515D02*
X100682363Y-99040992D01*
X100732870Y-98889469D01*
X101642008Y-97980332D01*
X101591500Y-100051145D02*
X102147084Y-99495561D01*
X102197591Y-99344038D01*
X102147084Y-99192515D01*
X101945053Y-98990485D01*
X101793530Y-98939977D01*
X101642008Y-100000637D02*
X101490485Y-99950130D01*
X101237947Y-99697591D01*
X101187439Y-99546069D01*
X101237947Y-99394546D01*
X101338962Y-99293530D01*
X101490485Y-99243023D01*
X101642008Y-99293530D01*
X101894546Y-99546069D01*
X102046069Y-99596576D01*
X102803683Y-99849114D02*
X102096576Y-100556221D01*
X102702668Y-99950130D02*
X102803683Y-99950130D01*
X102955206Y-100000637D01*
X103106729Y-100152160D01*
X103157236Y-100303683D01*
X103106729Y-100455206D01*
X102551145Y-101010790D01*
X103510790Y-101970435D02*
X104571450Y-100909775D01*
X103561297Y-101919927D02*
X103409775Y-101869419D01*
X103207744Y-101667389D01*
X103157236Y-101515866D01*
X103157236Y-101414851D01*
X103207744Y-101263328D01*
X103510790Y-100960282D01*
X103662313Y-100909775D01*
X103763328Y-100909775D01*
X103914851Y-100960282D01*
X104116881Y-101162313D01*
X104167389Y-101313836D01*
X104015866Y-102374496D02*
X104066374Y-102526019D01*
X104268404Y-102728049D01*
X104419927Y-102778557D01*
X104571450Y-102728049D01*
X104621958Y-102677541D01*
X104672465Y-102526019D01*
X104621958Y-102374496D01*
X104470435Y-102222973D01*
X104419927Y-102071450D01*
X104470435Y-101919927D01*
X104520942Y-101869419D01*
X104672465Y-101818912D01*
X104823988Y-101869419D01*
X104975511Y-102020942D01*
X105026019Y-102172465D01*
X104975511Y-103233125D02*
X104975511Y-103334141D01*
X104874496Y-103334141D01*
X104874496Y-103233125D01*
X104975511Y-103233125D01*
X104874496Y-103334141D01*
X105884648Y-104243278D02*
X105733125Y-104192770D01*
X105531095Y-103990740D01*
X105480587Y-103839217D01*
X105480587Y-103738202D01*
X105531095Y-103586679D01*
X105834141Y-103283633D01*
X105985664Y-103233125D01*
X106086679Y-103233125D01*
X106238202Y-103283633D01*
X106440232Y-103485664D01*
X106490740Y-103637186D01*
X106440232Y-104899877D02*
X106389725Y-104748354D01*
X106389725Y-104647339D01*
X106440232Y-104495816D01*
X106743278Y-104192770D01*
X106894801Y-104142263D01*
X106995816Y-104142263D01*
X107147339Y-104192770D01*
X107298862Y-104344293D01*
X107349369Y-104495816D01*
X107349369Y-104596831D01*
X107298862Y-104748354D01*
X106995816Y-105051400D01*
X106844293Y-105101908D01*
X106743278Y-105101908D01*
X106591755Y-105051400D01*
X106440232Y-104899877D01*
X107248354Y-105707999D02*
X107955461Y-105000892D01*
X107854446Y-105101908D02*
X107955461Y-105101908D01*
X108106984Y-105152415D01*
X108258507Y-105303938D01*
X108309014Y-105455461D01*
X108258507Y-105606984D01*
X107702923Y-106162568D01*
X108258507Y-105606984D02*
X108410030Y-105556476D01*
X108561553Y-105606984D01*
X108713075Y-105758507D01*
X108763583Y-105910030D01*
X108713075Y-106061553D01*
X108157491Y-106617136D01*
D11*
G36*
X133657010Y-62898014D02*
G01*
X133817827Y-62947447D01*
X133954729Y-63005605D01*
X134296347Y-63207982D01*
X134556215Y-63469901D01*
X134731729Y-63787337D01*
X134820285Y-64156264D01*
X134831135Y-64360704D01*
X134819204Y-64603515D01*
X134778026Y-64797353D01*
X134697746Y-64991275D01*
X134489719Y-65308978D01*
X134219903Y-65555621D01*
X133903802Y-65725951D01*
X133556917Y-65814716D01*
X133194753Y-65816662D01*
X132832813Y-65726537D01*
X132700445Y-65668000D01*
X132387882Y-65467743D01*
X132154721Y-65213033D01*
X131986165Y-64887488D01*
X131979368Y-64869594D01*
X131892561Y-64501617D01*
X131900823Y-64133220D01*
X131988555Y-63823982D01*
X133664269Y-63823982D01*
X133674243Y-63994715D01*
X133754296Y-64138205D01*
X133892923Y-64229557D01*
X134012400Y-64249200D01*
X134161561Y-64214752D01*
X134266400Y-64147600D01*
X134357384Y-63997247D01*
X134364585Y-63836143D01*
X134299329Y-63689261D01*
X134172944Y-63581573D01*
X133996758Y-63538054D01*
X133989880Y-63538000D01*
X133828331Y-63568984D01*
X133735880Y-63650903D01*
X133664269Y-63823982D01*
X131988555Y-63823982D01*
X132000556Y-63781682D01*
X132188167Y-63464279D01*
X132297737Y-63339778D01*
X132555385Y-63117433D01*
X132819891Y-62977364D01*
X133125305Y-62903951D01*
X133281029Y-62888768D01*
X133494534Y-62881308D01*
X133657010Y-62898014D01*
G37*
X133657010Y-62898014D02*
X133817827Y-62947447D01*
X133954729Y-63005605D01*
X134296347Y-63207982D01*
X134556215Y-63469901D01*
X134731729Y-63787337D01*
X134820285Y-64156264D01*
X134831135Y-64360704D01*
X134819204Y-64603515D01*
X134778026Y-64797353D01*
X134697746Y-64991275D01*
X134489719Y-65308978D01*
X134219903Y-65555621D01*
X133903802Y-65725951D01*
X133556917Y-65814716D01*
X133194753Y-65816662D01*
X132832813Y-65726537D01*
X132700445Y-65668000D01*
X132387882Y-65467743D01*
X132154721Y-65213033D01*
X131986165Y-64887488D01*
X131979368Y-64869594D01*
X131892561Y-64501617D01*
X131900823Y-64133220D01*
X131988555Y-63823982D01*
X133664269Y-63823982D01*
X133674243Y-63994715D01*
X133754296Y-64138205D01*
X133892923Y-64229557D01*
X134012400Y-64249200D01*
X134161561Y-64214752D01*
X134266400Y-64147600D01*
X134357384Y-63997247D01*
X134364585Y-63836143D01*
X134299329Y-63689261D01*
X134172944Y-63581573D01*
X133996758Y-63538054D01*
X133989880Y-63538000D01*
X133828331Y-63568984D01*
X133735880Y-63650903D01*
X133664269Y-63823982D01*
X131988555Y-63823982D01*
X132000556Y-63781682D01*
X132188167Y-63464279D01*
X132297737Y-63339778D01*
X132555385Y-63117433D01*
X132819891Y-62977364D01*
X133125305Y-62903951D01*
X133281029Y-62888768D01*
X133494534Y-62881308D01*
X133657010Y-62898014D01*
G36*
X142274036Y-62991273D02*
G01*
X142418618Y-63052596D01*
X142736588Y-63261225D01*
X142983391Y-63533626D01*
X143152871Y-63855498D01*
X143238873Y-64212536D01*
X143235242Y-64590437D01*
X143184368Y-64832082D01*
X143058152Y-65112509D01*
X142858770Y-65377332D01*
X142611139Y-65601132D01*
X142340178Y-65758489D01*
X142241359Y-65794083D01*
X141846452Y-65865862D01*
X141476297Y-65839525D01*
X141268462Y-65777389D01*
X140960505Y-65626665D01*
X140724222Y-65436429D01*
X140573062Y-65249125D01*
X140409059Y-64952762D01*
X140323981Y-64644607D01*
X140304831Y-64353207D01*
X140353022Y-63992981D01*
X140381933Y-63922266D01*
X142058986Y-63922266D01*
X142079243Y-64040995D01*
X142172929Y-64180464D01*
X142322082Y-64260519D01*
X142494483Y-64273064D01*
X142657914Y-64210005D01*
X142681231Y-64192232D01*
X142763199Y-64065717D01*
X142776064Y-63906186D01*
X142727452Y-63747220D01*
X142624988Y-63622400D01*
X142541795Y-63578182D01*
X142359524Y-63563033D01*
X142204779Y-63628857D01*
X142097840Y-63755365D01*
X142058986Y-63922266D01*
X140381933Y-63922266D01*
X140484941Y-63670320D01*
X140687003Y-63393582D01*
X140945626Y-63171125D01*
X141247224Y-63011308D01*
X141578214Y-62922488D01*
X141925013Y-62913023D01*
X142274036Y-62991273D01*
G37*
X142274036Y-62991273D02*
X142418618Y-63052596D01*
X142736588Y-63261225D01*
X142983391Y-63533626D01*
X143152871Y-63855498D01*
X143238873Y-64212536D01*
X143235242Y-64590437D01*
X143184368Y-64832082D01*
X143058152Y-65112509D01*
X142858770Y-65377332D01*
X142611139Y-65601132D01*
X142340178Y-65758489D01*
X142241359Y-65794083D01*
X141846452Y-65865862D01*
X141476297Y-65839525D01*
X141268462Y-65777389D01*
X140960505Y-65626665D01*
X140724222Y-65436429D01*
X140573062Y-65249125D01*
X140409059Y-64952762D01*
X140323981Y-64644607D01*
X140304831Y-64353207D01*
X140353022Y-63992981D01*
X140381933Y-63922266D01*
X142058986Y-63922266D01*
X142079243Y-64040995D01*
X142172929Y-64180464D01*
X142322082Y-64260519D01*
X142494483Y-64273064D01*
X142657914Y-64210005D01*
X142681231Y-64192232D01*
X142763199Y-64065717D01*
X142776064Y-63906186D01*
X142727452Y-63747220D01*
X142624988Y-63622400D01*
X142541795Y-63578182D01*
X142359524Y-63563033D01*
X142204779Y-63628857D01*
X142097840Y-63755365D01*
X142058986Y-63922266D01*
X140381933Y-63922266D01*
X140484941Y-63670320D01*
X140687003Y-63393582D01*
X140945626Y-63171125D01*
X141247224Y-63011308D01*
X141578214Y-62922488D01*
X141925013Y-62913023D01*
X142274036Y-62991273D01*
G36*
X132700295Y-60623166D02*
G01*
X133247907Y-60757393D01*
X133764912Y-60963018D01*
X134012582Y-61096187D01*
X134517684Y-61452593D01*
X134952289Y-61874638D01*
X135312269Y-62352153D01*
X135593495Y-62874972D01*
X135791837Y-63432927D01*
X135903167Y-64015851D01*
X135923356Y-64613576D01*
X135848275Y-65215936D01*
X135787575Y-65467009D01*
X135628335Y-65932651D01*
X135416712Y-66351786D01*
X135137669Y-66749442D01*
X134776170Y-67150651D01*
X134776088Y-67150734D01*
X134556924Y-67366633D01*
X134378533Y-67526408D01*
X134214308Y-67649973D01*
X134037636Y-67757244D01*
X133821909Y-67868133D01*
X133809200Y-67874335D01*
X133568334Y-67984767D01*
X133322270Y-68086139D01*
X133108668Y-68163385D01*
X133021800Y-68189313D01*
X132787765Y-68234476D01*
X132493607Y-68267931D01*
X132173819Y-68288011D01*
X131862895Y-68293051D01*
X131595329Y-68281383D01*
X131463807Y-68264568D01*
X130843087Y-68105837D01*
X130280856Y-67865911D01*
X129770264Y-67541398D01*
X129440193Y-67262362D01*
X129014280Y-66804793D01*
X128681905Y-66317447D01*
X128436558Y-65788249D01*
X128271733Y-65205125D01*
X128239999Y-65035737D01*
X128187786Y-64429638D01*
X128194197Y-64346608D01*
X128717130Y-64346608D01*
X128726175Y-64738526D01*
X128767938Y-65099714D01*
X128803539Y-65265200D01*
X128994667Y-65799037D01*
X129270668Y-66288855D01*
X129621529Y-66725319D01*
X130037239Y-67099092D01*
X130507785Y-67400840D01*
X131023157Y-67621226D01*
X131447000Y-67730118D01*
X131798088Y-67782222D01*
X132108426Y-67794473D01*
X132430184Y-67767009D01*
X132640800Y-67733259D01*
X133206363Y-67581907D01*
X133728314Y-67340491D01*
X134199342Y-67012953D01*
X134497254Y-66731984D01*
X134853130Y-66283072D01*
X135121691Y-65795106D01*
X135303064Y-65279244D01*
X135397377Y-64746645D01*
X135404757Y-64208466D01*
X135325334Y-63675866D01*
X135159234Y-63160004D01*
X134906586Y-62672039D01*
X134567518Y-62223127D01*
X134444068Y-62092827D01*
X134058456Y-61750916D01*
X133653840Y-61486339D01*
X133194758Y-61276171D01*
X133161070Y-61263430D01*
X132863224Y-61181452D01*
X132502113Y-61126998D01*
X132112733Y-61101761D01*
X131730082Y-61107437D01*
X131389157Y-61145719D01*
X131267538Y-61171748D01*
X130716041Y-61362896D01*
X130213821Y-61638862D01*
X129768923Y-61991608D01*
X129389392Y-62413093D01*
X129083275Y-62895279D01*
X128858616Y-63430126D01*
X128797790Y-63639600D01*
X128740952Y-63966214D01*
X128717130Y-64346608D01*
X128194197Y-64346608D01*
X128234025Y-63830827D01*
X128375593Y-63248810D01*
X128609364Y-62693092D01*
X128932217Y-62173178D01*
X129334593Y-61704993D01*
X129803001Y-61300684D01*
X130312343Y-60986197D01*
X130870101Y-60757888D01*
X131483759Y-60612114D01*
X131620796Y-60591596D01*
X132148962Y-60566010D01*
X132700295Y-60623166D01*
G37*
X132700295Y-60623166D02*
X133247907Y-60757393D01*
X133764912Y-60963018D01*
X134012582Y-61096187D01*
X134517684Y-61452593D01*
X134952289Y-61874638D01*
X135312269Y-62352153D01*
X135593495Y-62874972D01*
X135791837Y-63432927D01*
X135903167Y-64015851D01*
X135923356Y-64613576D01*
X135848275Y-65215936D01*
X135787575Y-65467009D01*
X135628335Y-65932651D01*
X135416712Y-66351786D01*
X135137669Y-66749442D01*
X134776170Y-67150651D01*
X134776088Y-67150734D01*
X134556924Y-67366633D01*
X134378533Y-67526408D01*
X134214308Y-67649973D01*
X134037636Y-67757244D01*
X133821909Y-67868133D01*
X133809200Y-67874335D01*
X133568334Y-67984767D01*
X133322270Y-68086139D01*
X133108668Y-68163385D01*
X133021800Y-68189313D01*
X132787765Y-68234476D01*
X132493607Y-68267931D01*
X132173819Y-68288011D01*
X131862895Y-68293051D01*
X131595329Y-68281383D01*
X131463807Y-68264568D01*
X130843087Y-68105837D01*
X130280856Y-67865911D01*
X129770264Y-67541398D01*
X129440193Y-67262362D01*
X129014280Y-66804793D01*
X128681905Y-66317447D01*
X128436558Y-65788249D01*
X128271733Y-65205125D01*
X128239999Y-65035737D01*
X128187786Y-64429638D01*
X128194197Y-64346608D01*
X128717130Y-64346608D01*
X128726175Y-64738526D01*
X128767938Y-65099714D01*
X128803539Y-65265200D01*
X128994667Y-65799037D01*
X129270668Y-66288855D01*
X129621529Y-66725319D01*
X130037239Y-67099092D01*
X130507785Y-67400840D01*
X131023157Y-67621226D01*
X131447000Y-67730118D01*
X131798088Y-67782222D01*
X132108426Y-67794473D01*
X132430184Y-67767009D01*
X132640800Y-67733259D01*
X133206363Y-67581907D01*
X133728314Y-67340491D01*
X134199342Y-67012953D01*
X134497254Y-66731984D01*
X134853130Y-66283072D01*
X135121691Y-65795106D01*
X135303064Y-65279244D01*
X135397377Y-64746645D01*
X135404757Y-64208466D01*
X135325334Y-63675866D01*
X135159234Y-63160004D01*
X134906586Y-62672039D01*
X134567518Y-62223127D01*
X134444068Y-62092827D01*
X134058456Y-61750916D01*
X133653840Y-61486339D01*
X133194758Y-61276171D01*
X133161070Y-61263430D01*
X132863224Y-61181452D01*
X132502113Y-61126998D01*
X132112733Y-61101761D01*
X131730082Y-61107437D01*
X131389157Y-61145719D01*
X131267538Y-61171748D01*
X130716041Y-61362896D01*
X130213821Y-61638862D01*
X129768923Y-61991608D01*
X129389392Y-62413093D01*
X129083275Y-62895279D01*
X128858616Y-63430126D01*
X128797790Y-63639600D01*
X128740952Y-63966214D01*
X128717130Y-64346608D01*
X128194197Y-64346608D01*
X128234025Y-63830827D01*
X128375593Y-63248810D01*
X128609364Y-62693092D01*
X128932217Y-62173178D01*
X129334593Y-61704993D01*
X129803001Y-61300684D01*
X130312343Y-60986197D01*
X130870101Y-60757888D01*
X131483759Y-60612114D01*
X131620796Y-60591596D01*
X132148962Y-60566010D01*
X132700295Y-60623166D01*
G36*
X140871074Y-60619923D02*
G01*
X141463368Y-60728106D01*
X142028920Y-60927562D01*
X142557076Y-61213202D01*
X143037183Y-61579935D01*
X143458588Y-62022671D01*
X143594039Y-62199913D01*
X143914797Y-62729083D01*
X144144077Y-63290438D01*
X144281979Y-63873082D01*
X144328606Y-64466114D01*
X144284059Y-65058634D01*
X144148440Y-65639744D01*
X143921849Y-66198545D01*
X143604390Y-66724136D01*
X143551214Y-66796422D01*
X143156013Y-67240233D01*
X142693813Y-67619510D01*
X142179607Y-67926164D01*
X141628387Y-68152107D01*
X141055145Y-68289251D01*
X140718000Y-68324946D01*
X140524215Y-68327872D01*
X140281019Y-68320729D01*
X140039935Y-68305060D01*
X140032200Y-68304379D01*
X139458997Y-68202927D01*
X138906059Y-68004452D01*
X138381560Y-67712810D01*
X137893678Y-67331857D01*
X137815530Y-67259028D01*
X137385000Y-66785048D01*
X137049884Y-66276328D01*
X136809613Y-65731437D01*
X136663615Y-65148942D01*
X136611321Y-64527413D01*
X136617309Y-64251528D01*
X136617723Y-64248359D01*
X137121263Y-64248359D01*
X137131285Y-64804428D01*
X137191603Y-65178971D01*
X137355533Y-65702273D01*
X137604992Y-66194645D01*
X137928715Y-66641517D01*
X138315435Y-67028320D01*
X138753886Y-67340485D01*
X138940629Y-67440895D01*
X139169825Y-67546092D01*
X139403320Y-67641485D01*
X139600733Y-67710907D01*
X139651200Y-67725393D01*
X139904922Y-67770246D01*
X140221186Y-67794782D01*
X140562968Y-67798930D01*
X140893248Y-67782619D01*
X141175003Y-67745776D01*
X141253426Y-67728495D01*
X141790337Y-67542048D01*
X142284903Y-67270481D01*
X142727366Y-66923769D01*
X143107967Y-66511889D01*
X143416949Y-66044816D01*
X143644551Y-65532527D01*
X143743603Y-65182843D01*
X143791945Y-64907401D01*
X143810919Y-64626153D01*
X143803517Y-64293412D01*
X143802762Y-64279270D01*
X143734599Y-63724757D01*
X143589203Y-63224579D01*
X143359736Y-62763525D01*
X143039360Y-62326385D01*
X142816263Y-62084920D01*
X142584492Y-61866817D01*
X142362806Y-61698670D01*
X142106618Y-61548465D01*
X141978063Y-61483056D01*
X141447082Y-61263584D01*
X140929299Y-61139485D01*
X140409393Y-61108615D01*
X139872046Y-61168832D01*
X139814158Y-61180317D01*
X139265281Y-61342179D01*
X138764764Y-61586103D01*
X138318751Y-61902719D01*
X137933385Y-62282663D01*
X137614810Y-62716565D01*
X137369169Y-63195060D01*
X137202605Y-63708781D01*
X137121263Y-64248359D01*
X136617723Y-64248359D01*
X136697575Y-63637461D01*
X136870022Y-63054949D01*
X137128695Y-62513021D01*
X137467643Y-62020707D01*
X137880913Y-61587037D01*
X138362552Y-61221041D01*
X138762200Y-60997769D01*
X139168945Y-60822050D01*
X139553198Y-60704898D01*
X139960225Y-60634557D01*
X140262689Y-60608104D01*
X140871074Y-60619923D01*
G37*
X140871074Y-60619923D02*
X141463368Y-60728106D01*
X142028920Y-60927562D01*
X142557076Y-61213202D01*
X143037183Y-61579935D01*
X143458588Y-62022671D01*
X143594039Y-62199913D01*
X143914797Y-62729083D01*
X144144077Y-63290438D01*
X144281979Y-63873082D01*
X144328606Y-64466114D01*
X144284059Y-65058634D01*
X144148440Y-65639744D01*
X143921849Y-66198545D01*
X143604390Y-66724136D01*
X143551214Y-66796422D01*
X143156013Y-67240233D01*
X142693813Y-67619510D01*
X142179607Y-67926164D01*
X141628387Y-68152107D01*
X141055145Y-68289251D01*
X140718000Y-68324946D01*
X140524215Y-68327872D01*
X140281019Y-68320729D01*
X140039935Y-68305060D01*
X140032200Y-68304379D01*
X139458997Y-68202927D01*
X138906059Y-68004452D01*
X138381560Y-67712810D01*
X137893678Y-67331857D01*
X137815530Y-67259028D01*
X137385000Y-66785048D01*
X137049884Y-66276328D01*
X136809613Y-65731437D01*
X136663615Y-65148942D01*
X136611321Y-64527413D01*
X136617309Y-64251528D01*
X136617723Y-64248359D01*
X137121263Y-64248359D01*
X137131285Y-64804428D01*
X137191603Y-65178971D01*
X137355533Y-65702273D01*
X137604992Y-66194645D01*
X137928715Y-66641517D01*
X138315435Y-67028320D01*
X138753886Y-67340485D01*
X138940629Y-67440895D01*
X139169825Y-67546092D01*
X139403320Y-67641485D01*
X139600733Y-67710907D01*
X139651200Y-67725393D01*
X139904922Y-67770246D01*
X140221186Y-67794782D01*
X140562968Y-67798930D01*
X140893248Y-67782619D01*
X141175003Y-67745776D01*
X141253426Y-67728495D01*
X141790337Y-67542048D01*
X142284903Y-67270481D01*
X142727366Y-66923769D01*
X143107967Y-66511889D01*
X143416949Y-66044816D01*
X143644551Y-65532527D01*
X143743603Y-65182843D01*
X143791945Y-64907401D01*
X143810919Y-64626153D01*
X143803517Y-64293412D01*
X143802762Y-64279270D01*
X143734599Y-63724757D01*
X143589203Y-63224579D01*
X143359736Y-62763525D01*
X143039360Y-62326385D01*
X142816263Y-62084920D01*
X142584492Y-61866817D01*
X142362806Y-61698670D01*
X142106618Y-61548465D01*
X141978063Y-61483056D01*
X141447082Y-61263584D01*
X140929299Y-61139485D01*
X140409393Y-61108615D01*
X139872046Y-61168832D01*
X139814158Y-61180317D01*
X139265281Y-61342179D01*
X138764764Y-61586103D01*
X138318751Y-61902719D01*
X137933385Y-62282663D01*
X137614810Y-62716565D01*
X137369169Y-63195060D01*
X137202605Y-63708781D01*
X137121263Y-64248359D01*
X136617723Y-64248359D01*
X136697575Y-63637461D01*
X136870022Y-63054949D01*
X137128695Y-62513021D01*
X137467643Y-62020707D01*
X137880913Y-61587037D01*
X138362552Y-61221041D01*
X138762200Y-60997769D01*
X139168945Y-60822050D01*
X139553198Y-60704898D01*
X139960225Y-60634557D01*
X140262689Y-60608104D01*
X140871074Y-60619923D01*
G36*
X140881021Y-70059619D02*
G01*
X140950642Y-70087754D01*
X141204089Y-70235481D01*
X141364134Y-70411814D01*
X141428067Y-70613589D01*
X141429200Y-70646114D01*
X141384510Y-70869616D01*
X141257235Y-71043311D01*
X141057564Y-71158806D01*
X140795684Y-71207711D01*
X140745922Y-71208800D01*
X140585037Y-71223982D01*
X140517866Y-71274682D01*
X140540397Y-71368633D01*
X140611007Y-71468755D01*
X140707214Y-71587566D01*
X140980289Y-71474383D01*
X141208120Y-71393977D01*
X141379359Y-71362766D01*
X141481106Y-71382624D01*
X141496437Y-71399300D01*
X141500566Y-71496622D01*
X141430173Y-71611324D01*
X141303555Y-71719468D01*
X141214160Y-71768582D01*
X140944091Y-71850337D01*
X140673268Y-71860427D01*
X140433484Y-71798898D01*
X140373833Y-71767386D01*
X140249274Y-71665388D01*
X140163895Y-71549577D01*
X140157933Y-71535669D01*
X140113935Y-71316813D01*
X140115695Y-71045285D01*
X140157336Y-70757470D01*
X140567221Y-70757470D01*
X140590373Y-70858346D01*
X140599466Y-70870133D01*
X140691467Y-70901854D01*
X140825580Y-70888724D01*
X140924539Y-70851412D01*
X140998502Y-70761756D01*
X141022735Y-70628643D01*
X140992746Y-70499591D01*
X140961840Y-70456960D01*
X140847468Y-70401237D01*
X140718452Y-70412855D01*
X140622569Y-70486630D01*
X140618187Y-70494260D01*
X140577295Y-70619976D01*
X140567221Y-70757470D01*
X140157336Y-70757470D01*
X140157544Y-70756036D01*
X140233815Y-70484019D01*
X140338838Y-70264184D01*
X140371629Y-70218004D01*
X140522035Y-70073998D01*
X140684997Y-70022741D01*
X140881021Y-70059619D01*
G37*
X140881021Y-70059619D02*
X140950642Y-70087754D01*
X141204089Y-70235481D01*
X141364134Y-70411814D01*
X141428067Y-70613589D01*
X141429200Y-70646114D01*
X141384510Y-70869616D01*
X141257235Y-71043311D01*
X141057564Y-71158806D01*
X140795684Y-71207711D01*
X140745922Y-71208800D01*
X140585037Y-71223982D01*
X140517866Y-71274682D01*
X140540397Y-71368633D01*
X140611007Y-71468755D01*
X140707214Y-71587566D01*
X140980289Y-71474383D01*
X141208120Y-71393977D01*
X141379359Y-71362766D01*
X141481106Y-71382624D01*
X141496437Y-71399300D01*
X141500566Y-71496622D01*
X141430173Y-71611324D01*
X141303555Y-71719468D01*
X141214160Y-71768582D01*
X140944091Y-71850337D01*
X140673268Y-71860427D01*
X140433484Y-71798898D01*
X140373833Y-71767386D01*
X140249274Y-71665388D01*
X140163895Y-71549577D01*
X140157933Y-71535669D01*
X140113935Y-71316813D01*
X140115695Y-71045285D01*
X140157336Y-70757470D01*
X140567221Y-70757470D01*
X140590373Y-70858346D01*
X140599466Y-70870133D01*
X140691467Y-70901854D01*
X140825580Y-70888724D01*
X140924539Y-70851412D01*
X140998502Y-70761756D01*
X141022735Y-70628643D01*
X140992746Y-70499591D01*
X140961840Y-70456960D01*
X140847468Y-70401237D01*
X140718452Y-70412855D01*
X140622569Y-70486630D01*
X140618187Y-70494260D01*
X140577295Y-70619976D01*
X140567221Y-70757470D01*
X140157336Y-70757470D01*
X140157544Y-70756036D01*
X140233815Y-70484019D01*
X140338838Y-70264184D01*
X140371629Y-70218004D01*
X140522035Y-70073998D01*
X140684997Y-70022741D01*
X140881021Y-70059619D01*
G36*
X135314544Y-70027751D02*
G01*
X135394026Y-70057292D01*
X135629654Y-70179966D01*
X135821332Y-70342267D01*
X135941538Y-70520457D01*
X135947103Y-70534317D01*
X135967047Y-70660870D01*
X135923550Y-70807937D01*
X135905853Y-70845427D01*
X135754714Y-71043234D01*
X135536957Y-71169223D01*
X135263737Y-71216960D01*
X135262004Y-71216996D01*
X135101202Y-71233945D01*
X135034357Y-71282681D01*
X135056313Y-71372652D01*
X135124607Y-71468755D01*
X135220814Y-71587566D01*
X135493889Y-71474383D01*
X135664972Y-71411640D01*
X135814831Y-71370539D01*
X135883656Y-71361200D01*
X135966842Y-71378239D01*
X135988248Y-71449492D01*
X135984274Y-71500900D01*
X135922501Y-71627196D01*
X135784062Y-71734015D01*
X135593160Y-71814033D01*
X135374000Y-71859926D01*
X135150786Y-71864371D01*
X134947721Y-71820043D01*
X134939821Y-71816935D01*
X134837425Y-71743977D01*
X134734740Y-71624667D01*
X134721337Y-71604255D01*
X134642652Y-71394894D01*
X134620596Y-71133176D01*
X134649404Y-70846931D01*
X134672772Y-70757470D01*
X135080821Y-70757470D01*
X135103973Y-70858346D01*
X135113066Y-70870133D01*
X135205067Y-70901854D01*
X135339180Y-70888724D01*
X135438139Y-70851412D01*
X135512102Y-70761756D01*
X135536335Y-70628643D01*
X135506346Y-70499591D01*
X135475440Y-70456960D01*
X135361068Y-70401237D01*
X135232052Y-70412855D01*
X135136169Y-70486630D01*
X135131787Y-70494260D01*
X135090895Y-70619976D01*
X135080821Y-70757470D01*
X134672772Y-70757470D01*
X134723313Y-70563988D01*
X134836560Y-70312177D01*
X134983381Y-70119327D01*
X135038426Y-70073217D01*
X135129436Y-70014698D01*
X135207268Y-70000179D01*
X135314544Y-70027751D01*
G37*
X135314544Y-70027751D02*
X135394026Y-70057292D01*
X135629654Y-70179966D01*
X135821332Y-70342267D01*
X135941538Y-70520457D01*
X135947103Y-70534317D01*
X135967047Y-70660870D01*
X135923550Y-70807937D01*
X135905853Y-70845427D01*
X135754714Y-71043234D01*
X135536957Y-71169223D01*
X135263737Y-71216960D01*
X135262004Y-71216996D01*
X135101202Y-71233945D01*
X135034357Y-71282681D01*
X135056313Y-71372652D01*
X135124607Y-71468755D01*
X135220814Y-71587566D01*
X135493889Y-71474383D01*
X135664972Y-71411640D01*
X135814831Y-71370539D01*
X135883656Y-71361200D01*
X135966842Y-71378239D01*
X135988248Y-71449492D01*
X135984274Y-71500900D01*
X135922501Y-71627196D01*
X135784062Y-71734015D01*
X135593160Y-71814033D01*
X135374000Y-71859926D01*
X135150786Y-71864371D01*
X134947721Y-71820043D01*
X134939821Y-71816935D01*
X134837425Y-71743977D01*
X134734740Y-71624667D01*
X134721337Y-71604255D01*
X134642652Y-71394894D01*
X134620596Y-71133176D01*
X134649404Y-70846931D01*
X134672772Y-70757470D01*
X135080821Y-70757470D01*
X135103973Y-70858346D01*
X135113066Y-70870133D01*
X135205067Y-70901854D01*
X135339180Y-70888724D01*
X135438139Y-70851412D01*
X135512102Y-70761756D01*
X135536335Y-70628643D01*
X135506346Y-70499591D01*
X135475440Y-70456960D01*
X135361068Y-70401237D01*
X135232052Y-70412855D01*
X135136169Y-70486630D01*
X135131787Y-70494260D01*
X135090895Y-70619976D01*
X135080821Y-70757470D01*
X134672772Y-70757470D01*
X134723313Y-70563988D01*
X134836560Y-70312177D01*
X134983381Y-70119327D01*
X135038426Y-70073217D01*
X135129436Y-70014698D01*
X135207268Y-70000179D01*
X135314544Y-70027751D01*
G36*
X130154868Y-69025753D02*
G01*
X130256836Y-69054248D01*
X130391934Y-69062347D01*
X130584395Y-69050139D01*
X130778613Y-69028004D01*
X131091851Y-69000257D01*
X131314951Y-69008489D01*
X131453250Y-69053942D01*
X131512086Y-69137858D01*
X131512825Y-69198713D01*
X131491579Y-69255675D01*
X131433012Y-69293480D01*
X131315134Y-69320563D01*
X131136254Y-69343169D01*
X130914954Y-69373194D01*
X130698677Y-69412186D01*
X130552449Y-69446889D01*
X130424593Y-69488541D01*
X130353935Y-69538791D01*
X130316909Y-69628294D01*
X130289949Y-69787706D01*
X130289831Y-69788519D01*
X130269071Y-69983065D01*
X130261501Y-70167200D01*
X130264036Y-70241457D01*
X130278600Y-70417115D01*
X130664442Y-70419257D01*
X130924266Y-70433157D01*
X131095955Y-70474514D01*
X131190371Y-70547940D01*
X131218400Y-70654380D01*
X131208375Y-70697925D01*
X131166103Y-70726685D01*
X131073287Y-70744652D01*
X130911631Y-70755818D01*
X130723100Y-70762460D01*
X130227800Y-70777000D01*
X130212876Y-71175515D01*
X130212536Y-71412931D01*
X130230698Y-71577262D01*
X130257196Y-71645415D01*
X130283889Y-71736123D01*
X130229180Y-71815944D01*
X130112753Y-71863749D01*
X130048749Y-71869200D01*
X129939385Y-71847321D01*
X129872816Y-71762843D01*
X129851769Y-71709219D01*
X129814928Y-71535655D01*
X129799205Y-71283091D01*
X129804621Y-70945853D01*
X129831194Y-70518268D01*
X129856776Y-70221609D01*
X129880947Y-69940208D01*
X129891994Y-69745572D01*
X129889904Y-69623713D01*
X129874663Y-69560644D01*
X129856121Y-69543973D01*
X129761925Y-69486394D01*
X129677765Y-69398483D01*
X129643600Y-69324482D01*
X129684717Y-69270273D01*
X129770600Y-69218356D01*
X129864275Y-69154434D01*
X129897600Y-69095443D01*
X129934967Y-69010258D01*
X130039246Y-68992574D01*
X130154868Y-69025753D01*
G37*
X130154868Y-69025753D02*
X130256836Y-69054248D01*
X130391934Y-69062347D01*
X130584395Y-69050139D01*
X130778613Y-69028004D01*
X131091851Y-69000257D01*
X131314951Y-69008489D01*
X131453250Y-69053942D01*
X131512086Y-69137858D01*
X131512825Y-69198713D01*
X131491579Y-69255675D01*
X131433012Y-69293480D01*
X131315134Y-69320563D01*
X131136254Y-69343169D01*
X130914954Y-69373194D01*
X130698677Y-69412186D01*
X130552449Y-69446889D01*
X130424593Y-69488541D01*
X130353935Y-69538791D01*
X130316909Y-69628294D01*
X130289949Y-69787706D01*
X130289831Y-69788519D01*
X130269071Y-69983065D01*
X130261501Y-70167200D01*
X130264036Y-70241457D01*
X130278600Y-70417115D01*
X130664442Y-70419257D01*
X130924266Y-70433157D01*
X131095955Y-70474514D01*
X131190371Y-70547940D01*
X131218400Y-70654380D01*
X131208375Y-70697925D01*
X131166103Y-70726685D01*
X131073287Y-70744652D01*
X130911631Y-70755818D01*
X130723100Y-70762460D01*
X130227800Y-70777000D01*
X130212876Y-71175515D01*
X130212536Y-71412931D01*
X130230698Y-71577262D01*
X130257196Y-71645415D01*
X130283889Y-71736123D01*
X130229180Y-71815944D01*
X130112753Y-71863749D01*
X130048749Y-71869200D01*
X129939385Y-71847321D01*
X129872816Y-71762843D01*
X129851769Y-71709219D01*
X129814928Y-71535655D01*
X129799205Y-71283091D01*
X129804621Y-70945853D01*
X129831194Y-70518268D01*
X129856776Y-70221609D01*
X129880947Y-69940208D01*
X129891994Y-69745572D01*
X129889904Y-69623713D01*
X129874663Y-69560644D01*
X129856121Y-69543973D01*
X129761925Y-69486394D01*
X129677765Y-69398483D01*
X129643600Y-69324482D01*
X129684717Y-69270273D01*
X129770600Y-69218356D01*
X129864275Y-69154434D01*
X129897600Y-69095443D01*
X129934967Y-69010258D01*
X130039246Y-68992574D01*
X130154868Y-69025753D01*
G36*
X142541115Y-70028226D02*
G01*
X142728294Y-70128236D01*
X142873316Y-70267250D01*
X142943372Y-70408409D01*
X142965433Y-70604447D01*
X142923155Y-70754076D01*
X142824253Y-70839727D01*
X142748028Y-70853200D01*
X142623553Y-70832482D01*
X142553460Y-70757909D01*
X142524975Y-70610856D01*
X142522350Y-70524161D01*
X142510231Y-70385334D01*
X142467405Y-70318958D01*
X142423157Y-70302737D01*
X142312620Y-70325918D01*
X142230884Y-70429220D01*
X142192424Y-70592179D01*
X142191200Y-70630622D01*
X142207090Y-70742718D01*
X142264537Y-70839632D01*
X142378205Y-70934656D01*
X142562757Y-71041084D01*
X142740906Y-71128982D01*
X142946769Y-71242482D01*
X143060060Y-71348477D01*
X143088022Y-71458438D01*
X143037894Y-71583837D01*
X143032905Y-71591579D01*
X142865051Y-71760782D01*
X142640858Y-71864808D01*
X142387859Y-71895828D01*
X142135626Y-71846779D01*
X141892270Y-71747208D01*
X141736625Y-71661054D01*
X141657123Y-71580142D01*
X141641951Y-71497967D01*
X141696920Y-71404657D01*
X141805544Y-71367813D01*
X141934791Y-71390902D01*
X142032889Y-71456889D01*
X142155387Y-71538617D01*
X142309251Y-71590291D01*
X142456364Y-71603973D01*
X142558607Y-71571725D01*
X142563294Y-71567345D01*
X142589853Y-71505699D01*
X142529896Y-71438088D01*
X142524390Y-71433980D01*
X142412956Y-71376000D01*
X142343034Y-71361200D01*
X142230096Y-71321463D01*
X142091442Y-71219003D01*
X141952399Y-71078944D01*
X141838294Y-70926409D01*
X141778407Y-70801095D01*
X141746602Y-70650931D01*
X141759334Y-70515652D01*
X141804485Y-70378493D01*
X141879274Y-70220624D01*
X141965042Y-70091338D01*
X141994085Y-70060292D01*
X142147265Y-69984446D01*
X142338524Y-69977027D01*
X142541115Y-70028226D01*
G37*
X142541115Y-70028226D02*
X142728294Y-70128236D01*
X142873316Y-70267250D01*
X142943372Y-70408409D01*
X142965433Y-70604447D01*
X142923155Y-70754076D01*
X142824253Y-70839727D01*
X142748028Y-70853200D01*
X142623553Y-70832482D01*
X142553460Y-70757909D01*
X142524975Y-70610856D01*
X142522350Y-70524161D01*
X142510231Y-70385334D01*
X142467405Y-70318958D01*
X142423157Y-70302737D01*
X142312620Y-70325918D01*
X142230884Y-70429220D01*
X142192424Y-70592179D01*
X142191200Y-70630622D01*
X142207090Y-70742718D01*
X142264537Y-70839632D01*
X142378205Y-70934656D01*
X142562757Y-71041084D01*
X142740906Y-71128982D01*
X142946769Y-71242482D01*
X143060060Y-71348477D01*
X143088022Y-71458438D01*
X143037894Y-71583837D01*
X143032905Y-71591579D01*
X142865051Y-71760782D01*
X142640858Y-71864808D01*
X142387859Y-71895828D01*
X142135626Y-71846779D01*
X141892270Y-71747208D01*
X141736625Y-71661054D01*
X141657123Y-71580142D01*
X141641951Y-71497967D01*
X141696920Y-71404657D01*
X141805544Y-71367813D01*
X141934791Y-71390902D01*
X142032889Y-71456889D01*
X142155387Y-71538617D01*
X142309251Y-71590291D01*
X142456364Y-71603973D01*
X142558607Y-71571725D01*
X142563294Y-71567345D01*
X142589853Y-71505699D01*
X142529896Y-71438088D01*
X142524390Y-71433980D01*
X142412956Y-71376000D01*
X142343034Y-71361200D01*
X142230096Y-71321463D01*
X142091442Y-71219003D01*
X141952399Y-71078944D01*
X141838294Y-70926409D01*
X141778407Y-70801095D01*
X141746602Y-70650931D01*
X141759334Y-70515652D01*
X141804485Y-70378493D01*
X141879274Y-70220624D01*
X141965042Y-70091338D01*
X141994085Y-70060292D01*
X142147265Y-69984446D01*
X142338524Y-69977027D01*
X142541115Y-70028226D01*
G36*
X137831244Y-68957680D02*
G01*
X137978774Y-69007864D01*
X138056664Y-69104794D01*
X138068077Y-69145699D01*
X138060033Y-69235004D01*
X137986426Y-69292058D01*
X137834987Y-69322219D01*
X137644600Y-69330638D01*
X137411116Y-69344173D01*
X137156558Y-69375307D01*
X137035541Y-69396888D01*
X136867563Y-69434739D01*
X136773163Y-69473061D01*
X136726269Y-69532135D01*
X136700808Y-69632246D01*
X136695568Y-69661371D01*
X136670399Y-69852891D01*
X136658976Y-70047461D01*
X136661313Y-70216654D01*
X136677424Y-70332040D01*
X136695228Y-70364684D01*
X136762949Y-70369593D01*
X136900334Y-70357771D01*
X137072776Y-70332555D01*
X137344602Y-70304221D01*
X137532219Y-70327976D01*
X137639341Y-70404998D01*
X137670000Y-70521910D01*
X137661805Y-70598194D01*
X137619810Y-70636073D01*
X137517896Y-70648849D01*
X137418500Y-70650000D01*
X137147543Y-70664273D01*
X136914314Y-70703667D01*
X136738090Y-70763040D01*
X136638147Y-70837252D01*
X136626014Y-70861345D01*
X136614001Y-70991064D01*
X136631258Y-71177951D01*
X136673753Y-71383187D01*
X136684042Y-71420007D01*
X136722444Y-71491633D01*
X136796310Y-71526852D01*
X136922787Y-71526843D01*
X137119019Y-71492788D01*
X137263330Y-71459867D01*
X137571086Y-71394599D01*
X137800284Y-71366755D01*
X137966633Y-71375859D01*
X138085843Y-71421436D01*
X138104790Y-71434424D01*
X138172192Y-71522283D01*
X138147142Y-71606062D01*
X138038622Y-71675864D01*
X137855612Y-71721791D01*
X137842385Y-71723581D01*
X137650160Y-71755614D01*
X137422492Y-71803453D01*
X137281667Y-71837881D01*
X137063415Y-71890806D01*
X136908884Y-71912399D01*
X136785231Y-71902927D01*
X136659618Y-71862659D01*
X136613723Y-71843348D01*
X136472095Y-71745005D01*
X136356912Y-71574520D01*
X136334323Y-71527837D01*
X136295088Y-71436632D01*
X136266577Y-71346763D01*
X136247389Y-71241052D01*
X136236124Y-71102323D01*
X136231379Y-70913396D01*
X136231754Y-70657093D01*
X136235798Y-70319800D01*
X136241433Y-70012078D01*
X136248943Y-69735732D01*
X136257657Y-69508252D01*
X136266902Y-69347129D01*
X136276007Y-69269853D01*
X136276137Y-69269429D01*
X136304928Y-69227423D01*
X136371467Y-69188567D01*
X136488115Y-69149497D01*
X136667232Y-69106847D01*
X136921176Y-69057251D01*
X137262309Y-68997342D01*
X137296882Y-68991470D01*
X137606479Y-68952721D01*
X137831244Y-68957680D01*
G37*
X137831244Y-68957680D02*
X137978774Y-69007864D01*
X138056664Y-69104794D01*
X138068077Y-69145699D01*
X138060033Y-69235004D01*
X137986426Y-69292058D01*
X137834987Y-69322219D01*
X137644600Y-69330638D01*
X137411116Y-69344173D01*
X137156558Y-69375307D01*
X137035541Y-69396888D01*
X136867563Y-69434739D01*
X136773163Y-69473061D01*
X136726269Y-69532135D01*
X136700808Y-69632246D01*
X136695568Y-69661371D01*
X136670399Y-69852891D01*
X136658976Y-70047461D01*
X136661313Y-70216654D01*
X136677424Y-70332040D01*
X136695228Y-70364684D01*
X136762949Y-70369593D01*
X136900334Y-70357771D01*
X137072776Y-70332555D01*
X137344602Y-70304221D01*
X137532219Y-70327976D01*
X137639341Y-70404998D01*
X137670000Y-70521910D01*
X137661805Y-70598194D01*
X137619810Y-70636073D01*
X137517896Y-70648849D01*
X137418500Y-70650000D01*
X137147543Y-70664273D01*
X136914314Y-70703667D01*
X136738090Y-70763040D01*
X136638147Y-70837252D01*
X136626014Y-70861345D01*
X136614001Y-70991064D01*
X136631258Y-71177951D01*
X136673753Y-71383187D01*
X136684042Y-71420007D01*
X136722444Y-71491633D01*
X136796310Y-71526852D01*
X136922787Y-71526843D01*
X137119019Y-71492788D01*
X137263330Y-71459867D01*
X137571086Y-71394599D01*
X137800284Y-71366755D01*
X137966633Y-71375859D01*
X138085843Y-71421436D01*
X138104790Y-71434424D01*
X138172192Y-71522283D01*
X138147142Y-71606062D01*
X138038622Y-71675864D01*
X137855612Y-71721791D01*
X137842385Y-71723581D01*
X137650160Y-71755614D01*
X137422492Y-71803453D01*
X137281667Y-71837881D01*
X137063415Y-71890806D01*
X136908884Y-71912399D01*
X136785231Y-71902927D01*
X136659618Y-71862659D01*
X136613723Y-71843348D01*
X136472095Y-71745005D01*
X136356912Y-71574520D01*
X136334323Y-71527837D01*
X136295088Y-71436632D01*
X136266577Y-71346763D01*
X136247389Y-71241052D01*
X136236124Y-71102323D01*
X136231379Y-70913396D01*
X136231754Y-70657093D01*
X136235798Y-70319800D01*
X136241433Y-70012078D01*
X136248943Y-69735732D01*
X136257657Y-69508252D01*
X136266902Y-69347129D01*
X136276007Y-69269853D01*
X136276137Y-69269429D01*
X136304928Y-69227423D01*
X136371467Y-69188567D01*
X136488115Y-69149497D01*
X136667232Y-69106847D01*
X136921176Y-69057251D01*
X137262309Y-68997342D01*
X137296882Y-68991470D01*
X137606479Y-68952721D01*
X137831244Y-68957680D01*
G36*
X132215261Y-70061504D02*
G01*
X132443135Y-70163972D01*
X132631970Y-70343753D01*
X132706532Y-70462720D01*
X132750311Y-70562854D01*
X132778898Y-70676016D01*
X132794945Y-70825141D01*
X132801105Y-71033165D01*
X132800529Y-71275520D01*
X132795862Y-71544378D01*
X132786362Y-71729482D01*
X132769613Y-71848648D01*
X132743199Y-71919692D01*
X132707968Y-71958100D01*
X132608215Y-72013781D01*
X132526422Y-71997122D01*
X132440927Y-71923327D01*
X132360586Y-71864814D01*
X132253901Y-71842545D01*
X132085500Y-71849549D01*
X132072627Y-71850751D01*
X131871005Y-71855857D01*
X131704752Y-71818007D01*
X131574000Y-71758524D01*
X131431700Y-71674519D01*
X131359263Y-71593963D01*
X131330773Y-71486403D01*
X131329126Y-71470748D01*
X131339226Y-71411074D01*
X131753113Y-71411074D01*
X131767923Y-71464959D01*
X131811346Y-71500877D01*
X131894929Y-71550729D01*
X131975665Y-71556333D01*
X132091131Y-71515717D01*
X132163222Y-71482411D01*
X132290042Y-71396177D01*
X132336000Y-71304611D01*
X132318772Y-71244066D01*
X132250293Y-71215695D01*
X132110280Y-71208800D01*
X131948316Y-71222353D01*
X131848445Y-71272230D01*
X131804517Y-71323077D01*
X131753113Y-71411074D01*
X131339226Y-71411074D01*
X131359278Y-71292606D01*
X131474024Y-71135153D01*
X131656758Y-71010133D01*
X131890868Y-70929287D01*
X132130776Y-70904000D01*
X132291434Y-70893985D01*
X132373554Y-70851621D01*
X132387769Y-70758430D01*
X132344711Y-70595935D01*
X132331030Y-70555980D01*
X132274857Y-70443147D01*
X132188238Y-70400570D01*
X132108650Y-70396000D01*
X131944990Y-70426147D01*
X131850614Y-70524692D01*
X131820332Y-70624600D01*
X131756879Y-70714062D01*
X131662895Y-70742232D01*
X131535326Y-70722334D01*
X131464045Y-70640905D01*
X131446915Y-70519534D01*
X131481798Y-70379813D01*
X131566557Y-70243330D01*
X131699056Y-70131677D01*
X131724737Y-70117459D01*
X131968934Y-70043587D01*
X132215261Y-70061504D01*
G37*
X132215261Y-70061504D02*
X132443135Y-70163972D01*
X132631970Y-70343753D01*
X132706532Y-70462720D01*
X132750311Y-70562854D01*
X132778898Y-70676016D01*
X132794945Y-70825141D01*
X132801105Y-71033165D01*
X132800529Y-71275520D01*
X132795862Y-71544378D01*
X132786362Y-71729482D01*
X132769613Y-71848648D01*
X132743199Y-71919692D01*
X132707968Y-71958100D01*
X132608215Y-72013781D01*
X132526422Y-71997122D01*
X132440927Y-71923327D01*
X132360586Y-71864814D01*
X132253901Y-71842545D01*
X132085500Y-71849549D01*
X132072627Y-71850751D01*
X131871005Y-71855857D01*
X131704752Y-71818007D01*
X131574000Y-71758524D01*
X131431700Y-71674519D01*
X131359263Y-71593963D01*
X131330773Y-71486403D01*
X131329126Y-71470748D01*
X131339226Y-71411074D01*
X131753113Y-71411074D01*
X131767923Y-71464959D01*
X131811346Y-71500877D01*
X131894929Y-71550729D01*
X131975665Y-71556333D01*
X132091131Y-71515717D01*
X132163222Y-71482411D01*
X132290042Y-71396177D01*
X132336000Y-71304611D01*
X132318772Y-71244066D01*
X132250293Y-71215695D01*
X132110280Y-71208800D01*
X131948316Y-71222353D01*
X131848445Y-71272230D01*
X131804517Y-71323077D01*
X131753113Y-71411074D01*
X131339226Y-71411074D01*
X131359278Y-71292606D01*
X131474024Y-71135153D01*
X131656758Y-71010133D01*
X131890868Y-70929287D01*
X132130776Y-70904000D01*
X132291434Y-70893985D01*
X132373554Y-70851621D01*
X132387769Y-70758430D01*
X132344711Y-70595935D01*
X132331030Y-70555980D01*
X132274857Y-70443147D01*
X132188238Y-70400570D01*
X132108650Y-70396000D01*
X131944990Y-70426147D01*
X131850614Y-70524692D01*
X131820332Y-70624600D01*
X131756879Y-70714062D01*
X131662895Y-70742232D01*
X131535326Y-70722334D01*
X131464045Y-70640905D01*
X131446915Y-70519534D01*
X131481798Y-70379813D01*
X131566557Y-70243330D01*
X131699056Y-70131677D01*
X131724737Y-70117459D01*
X131968934Y-70043587D01*
X132215261Y-70061504D01*
G36*
X133453499Y-68921699D02*
G01*
X133506772Y-68968143D01*
X133539850Y-69070663D01*
X133556798Y-69240983D01*
X133561682Y-69490826D01*
X133559256Y-69783867D01*
X133548444Y-70564305D01*
X133858996Y-70289652D01*
X134074569Y-70103583D01*
X134232091Y-69980963D01*
X134345673Y-69913723D01*
X134429425Y-69893793D01*
X134497461Y-69913104D01*
X134507261Y-69918936D01*
X134586902Y-70000083D01*
X134587066Y-70099474D01*
X134504105Y-70224570D01*
X134334367Y-70382832D01*
X134245614Y-70453795D01*
X134039071Y-70615868D01*
X133908045Y-70735129D01*
X133849057Y-70832654D01*
X133858627Y-70929523D01*
X133933277Y-71046814D01*
X134069525Y-71205604D01*
X134113368Y-71254891D01*
X134275280Y-71427941D01*
X134434097Y-71582239D01*
X134564212Y-71693452D01*
X134604839Y-71721892D01*
X134713522Y-71804011D01*
X134771455Y-71876915D01*
X134774400Y-71890589D01*
X134731898Y-71953821D01*
X134631158Y-72019540D01*
X134512324Y-72064874D01*
X134454509Y-72072829D01*
X134397529Y-72038086D01*
X134287457Y-71943155D01*
X134140107Y-71802510D01*
X133971290Y-71630628D01*
X133970076Y-71629354D01*
X133546752Y-71185450D01*
X133559798Y-71467100D01*
X133560717Y-71634174D01*
X133549143Y-71762817D01*
X133535624Y-71808975D01*
X133453225Y-71859758D01*
X133332862Y-71862770D01*
X133225489Y-71819396D01*
X133205412Y-71800004D01*
X133185144Y-71728646D01*
X133168684Y-71566434D01*
X133155919Y-71310869D01*
X133146734Y-70959456D01*
X133141016Y-70509697D01*
X133140016Y-70364904D01*
X133132047Y-68999000D01*
X133270104Y-68950150D01*
X133375965Y-68919609D01*
X133453499Y-68921699D01*
G37*
X133453499Y-68921699D02*
X133506772Y-68968143D01*
X133539850Y-69070663D01*
X133556798Y-69240983D01*
X133561682Y-69490826D01*
X133559256Y-69783867D01*
X133548444Y-70564305D01*
X133858996Y-70289652D01*
X134074569Y-70103583D01*
X134232091Y-69980963D01*
X134345673Y-69913723D01*
X134429425Y-69893793D01*
X134497461Y-69913104D01*
X134507261Y-69918936D01*
X134586902Y-70000083D01*
X134587066Y-70099474D01*
X134504105Y-70224570D01*
X134334367Y-70382832D01*
X134245614Y-70453795D01*
X134039071Y-70615868D01*
X133908045Y-70735129D01*
X133849057Y-70832654D01*
X133858627Y-70929523D01*
X133933277Y-71046814D01*
X134069525Y-71205604D01*
X134113368Y-71254891D01*
X134275280Y-71427941D01*
X134434097Y-71582239D01*
X134564212Y-71693452D01*
X134604839Y-71721892D01*
X134713522Y-71804011D01*
X134771455Y-71876915D01*
X134774400Y-71890589D01*
X134731898Y-71953821D01*
X134631158Y-72019540D01*
X134512324Y-72064874D01*
X134454509Y-72072829D01*
X134397529Y-72038086D01*
X134287457Y-71943155D01*
X134140107Y-71802510D01*
X133971290Y-71630628D01*
X133970076Y-71629354D01*
X133546752Y-71185450D01*
X133559798Y-71467100D01*
X133560717Y-71634174D01*
X133549143Y-71762817D01*
X133535624Y-71808975D01*
X133453225Y-71859758D01*
X133332862Y-71862770D01*
X133225489Y-71819396D01*
X133205412Y-71800004D01*
X133185144Y-71728646D01*
X133168684Y-71566434D01*
X133155919Y-71310869D01*
X133146734Y-70959456D01*
X133141016Y-70509697D01*
X133140016Y-70364904D01*
X133132047Y-68999000D01*
X133270104Y-68950150D01*
X133375965Y-68919609D01*
X133453499Y-68921699D01*
G36*
X138907155Y-70073421D02*
G01*
X138946950Y-70142589D01*
X138956776Y-70272651D01*
X138943198Y-70479908D01*
X138931558Y-70599200D01*
X138905222Y-70985108D01*
X138914429Y-71276691D01*
X138959462Y-71474910D01*
X139040603Y-71580724D01*
X139158135Y-71595093D01*
X139218338Y-71574127D01*
X139325477Y-71475901D01*
X139402270Y-71290604D01*
X139449665Y-71014680D01*
X139468608Y-70644578D01*
X139468714Y-70635089D01*
X139472729Y-70420298D01*
X139482787Y-70286061D01*
X139504155Y-70211334D01*
X139542099Y-70175075D01*
X139587700Y-70159682D01*
X139727319Y-70149819D01*
X139834322Y-70164196D01*
X139927405Y-70203994D01*
X139940351Y-70274468D01*
X139930870Y-70309403D01*
X139918035Y-70393606D01*
X139903525Y-70561626D01*
X139888469Y-70795719D01*
X139873999Y-71078141D01*
X139861244Y-71391148D01*
X139860337Y-71416844D01*
X139845063Y-71797382D01*
X139827091Y-72089993D01*
X139803250Y-72308349D01*
X139770370Y-72466121D01*
X139725281Y-72576982D01*
X139664811Y-72654604D01*
X139585792Y-72712659D01*
X139555962Y-72729394D01*
X139355908Y-72792566D01*
X139112415Y-72806396D01*
X138871988Y-72768800D01*
X138846976Y-72761195D01*
X138624256Y-72664706D01*
X138482533Y-72548329D01*
X138432011Y-72420490D01*
X138432000Y-72418532D01*
X138466509Y-72321048D01*
X138561996Y-72295921D01*
X138706398Y-72344881D01*
X138754206Y-72372259D01*
X138929365Y-72447957D01*
X139111476Y-72475659D01*
X139266788Y-72453735D01*
X139347798Y-72400914D01*
X139391166Y-72305451D01*
X139426131Y-72154087D01*
X139435908Y-72078763D01*
X139459379Y-71834497D01*
X139175407Y-71858046D01*
X139007584Y-71867117D01*
X138899022Y-71850158D01*
X138808134Y-71793487D01*
X138717075Y-71707235D01*
X138614498Y-71583422D01*
X138545557Y-71440629D01*
X138507021Y-71260413D01*
X138495661Y-71024329D01*
X138508244Y-70713933D01*
X138518541Y-70573800D01*
X138559000Y-70065800D01*
X138711400Y-70052565D01*
X138830827Y-70048846D01*
X138907155Y-70073421D01*
G37*
X138907155Y-70073421D02*
X138946950Y-70142589D01*
X138956776Y-70272651D01*
X138943198Y-70479908D01*
X138931558Y-70599200D01*
X138905222Y-70985108D01*
X138914429Y-71276691D01*
X138959462Y-71474910D01*
X139040603Y-71580724D01*
X139158135Y-71595093D01*
X139218338Y-71574127D01*
X139325477Y-71475901D01*
X139402270Y-71290604D01*
X139449665Y-71014680D01*
X139468608Y-70644578D01*
X139468714Y-70635089D01*
X139472729Y-70420298D01*
X139482787Y-70286061D01*
X139504155Y-70211334D01*
X139542099Y-70175075D01*
X139587700Y-70159682D01*
X139727319Y-70149819D01*
X139834322Y-70164196D01*
X139927405Y-70203994D01*
X139940351Y-70274468D01*
X139930870Y-70309403D01*
X139918035Y-70393606D01*
X139903525Y-70561626D01*
X139888469Y-70795719D01*
X139873999Y-71078141D01*
X139861244Y-71391148D01*
X139860337Y-71416844D01*
X139845063Y-71797382D01*
X139827091Y-72089993D01*
X139803250Y-72308349D01*
X139770370Y-72466121D01*
X139725281Y-72576982D01*
X139664811Y-72654604D01*
X139585792Y-72712659D01*
X139555962Y-72729394D01*
X139355908Y-72792566D01*
X139112415Y-72806396D01*
X138871988Y-72768800D01*
X138846976Y-72761195D01*
X138624256Y-72664706D01*
X138482533Y-72548329D01*
X138432011Y-72420490D01*
X138432000Y-72418532D01*
X138466509Y-72321048D01*
X138561996Y-72295921D01*
X138706398Y-72344881D01*
X138754206Y-72372259D01*
X138929365Y-72447957D01*
X139111476Y-72475659D01*
X139266788Y-72453735D01*
X139347798Y-72400914D01*
X139391166Y-72305451D01*
X139426131Y-72154087D01*
X139435908Y-72078763D01*
X139459379Y-71834497D01*
X139175407Y-71858046D01*
X139007584Y-71867117D01*
X138899022Y-71850158D01*
X138808134Y-71793487D01*
X138717075Y-71707235D01*
X138614498Y-71583422D01*
X138545557Y-71440629D01*
X138507021Y-71260413D01*
X138495661Y-71024329D01*
X138508244Y-70713933D01*
X138518541Y-70573800D01*
X138559000Y-70065800D01*
X138711400Y-70052565D01*
X138830827Y-70048846D01*
X138907155Y-70073421D01*
D12*
X147400000Y-62500000D02*
G75*
G03X147400000Y-62500000I-700000J0D01*
G01*
X109100000Y-93400000D02*
G75*
G03X109100000Y-93400000I-700000J0D01*
G01*
X114400000Y-80400000D02*
G75*
G03X114400000Y-80400000I-700000J0D01*
G01*
X100700000Y-76000000D02*
G75*
G03X100700000Y-76000000I-700000J0D01*
G01*
X100700000Y-69500000D02*
G75*
G03X100700000Y-69500000I-700000J0D01*
G01*
X94162779Y-69490000D02*
X93837221Y-69490000D01*
X94162779Y-70510000D02*
X93837221Y-70510000D01*
X89162779Y-67510000D02*
X88837221Y-67510000D01*
X89162779Y-66490000D02*
X88837221Y-66490000D01*
X88162779Y-68490000D02*
X87837221Y-68490000D01*
X88162779Y-69510000D02*
X87837221Y-69510000D01*
X88162779Y-71510000D02*
X87837221Y-71510000D01*
X88162779Y-70490000D02*
X87837221Y-70490000D01*
X93337221Y-75490000D02*
X93662779Y-75490000D01*
X93337221Y-76510000D02*
X93662779Y-76510000D01*
X97010000Y-73162779D02*
X97010000Y-72837221D01*
X95990000Y-73162779D02*
X95990000Y-72837221D01*
X92900000Y-65000000D02*
X92450000Y-65000000D01*
X92900000Y-63150000D02*
X92900000Y-65000000D01*
X85100000Y-60600000D02*
X85100000Y-60850000D01*
X92900000Y-60600000D02*
X92900000Y-60850000D01*
X85100000Y-63150000D02*
X85100000Y-65000000D01*
X85100000Y-65000000D02*
X85550000Y-65000000D01*
X90700000Y-65550000D02*
X90250000Y-65550000D01*
X90700000Y-65550000D02*
X90700000Y-65100000D01*
X94670000Y-63330000D02*
X94670000Y-62000000D01*
X96000000Y-63330000D02*
X94670000Y-63330000D01*
X97270000Y-63330000D02*
X97270000Y-60670000D01*
X97270000Y-60670000D02*
X99870000Y-60670000D01*
X97270000Y-63330000D02*
X99870000Y-63330000D01*
X99870000Y-63330000D02*
X99870000Y-60670000D01*
X126870000Y-63330000D02*
X126870000Y-60670000D01*
X124270000Y-63330000D02*
X126870000Y-63330000D01*
X124270000Y-60670000D02*
X126870000Y-60670000D01*
X124270000Y-63330000D02*
X124270000Y-60670000D01*
X123000000Y-63330000D02*
X121670000Y-63330000D01*
X121670000Y-63330000D02*
X121670000Y-62000000D01*
X61500000Y-66500000D02*
X61500000Y-65700000D01*
X61700000Y-66500000D02*
X61500000Y-66500000D01*
X61500000Y-63500000D02*
X61700000Y-63500000D01*
X61500000Y-64300000D02*
X61500000Y-63500000D01*
X64500000Y-63500000D02*
X64500000Y-64300000D01*
X64300000Y-63500000D02*
X64500000Y-63500000D01*
X64500000Y-66300000D02*
X64300000Y-66500000D01*
X64500000Y-65700000D02*
X64500000Y-66300000D01*
X64500000Y-65700000D02*
X65000000Y-65700000D01*
X64500000Y-64300000D02*
X65000000Y-64300000D01*
X155500000Y-65700000D02*
X155000000Y-65700000D01*
X155500000Y-64300000D02*
X155000000Y-64300000D01*
X155500000Y-64300000D02*
X155500000Y-63700000D01*
X155500000Y-63700000D02*
X155700000Y-63500000D01*
X155700000Y-66500000D02*
X155500000Y-66500000D01*
X155500000Y-66500000D02*
X155500000Y-65700000D01*
X158500000Y-65700000D02*
X158500000Y-66500000D01*
X158500000Y-66500000D02*
X158300000Y-66500000D01*
X158300000Y-63500000D02*
X158500000Y-63500000D01*
X158500000Y-63500000D02*
X158500000Y-64300000D01*
X119090000Y-81170000D02*
X119090000Y-83830000D01*
X124230000Y-81170000D02*
X119090000Y-81170000D01*
X124230000Y-83830000D02*
X119090000Y-83830000D01*
X124230000Y-81170000D02*
X124230000Y-83830000D01*
X125500000Y-81170000D02*
X126830000Y-81170000D01*
X126830000Y-81170000D02*
X126830000Y-82500000D01*
X129510000Y-80837221D02*
X129510000Y-81162779D01*
X128490000Y-80837221D02*
X128490000Y-81162779D01*
X128490000Y-84337221D02*
X128490000Y-84662779D01*
X129510000Y-84337221D02*
X129510000Y-84662779D01*
X109490000Y-79662779D02*
X109490000Y-79337221D01*
X110510000Y-79662779D02*
X110510000Y-79337221D01*
X126010000Y-70837221D02*
X126010000Y-71162779D01*
X124990000Y-70837221D02*
X124990000Y-71162779D01*
X109162779Y-85190000D02*
X108837221Y-85190000D01*
X109162779Y-86210000D02*
X108837221Y-86210000D01*
X107010000Y-90762779D02*
X107010000Y-90437221D01*
X105990000Y-90762779D02*
X105990000Y-90437221D01*
X112012779Y-82860000D02*
X111687221Y-82860000D01*
X112012779Y-81840000D02*
X111687221Y-81840000D01*
X112687221Y-85860000D02*
X113012779Y-85860000D01*
X112687221Y-84840000D02*
X113012779Y-84840000D01*
X113090000Y-88162779D02*
X113090000Y-87837221D01*
X114110000Y-88162779D02*
X114110000Y-87837221D01*
X111837221Y-91210000D02*
X112162779Y-91210000D01*
X111837221Y-90190000D02*
X112162779Y-90190000D01*
X91890000Y-72100000D02*
X91890000Y-73900000D01*
X95110000Y-73900000D02*
X95110000Y-71450000D01*
X109300000Y-120500000D02*
X109300000Y-120000000D01*
X110700000Y-120500000D02*
X110700000Y-120000000D01*
X110700000Y-120500000D02*
X111300000Y-120500000D01*
X111300000Y-120500000D02*
X111500000Y-120700000D01*
X108500000Y-120700000D02*
X108500000Y-120500000D01*
X108500000Y-120500000D02*
X109300000Y-120500000D01*
X109300000Y-123500000D02*
X108500000Y-123500000D01*
X108500000Y-123500000D02*
X108500000Y-123300000D01*
X111500000Y-123300000D02*
X111500000Y-123500000D01*
X111500000Y-123500000D02*
X110700000Y-123500000D01*
X109490000Y-117950279D02*
X109490000Y-117624721D01*
X110510000Y-117950279D02*
X110510000Y-117624721D01*
X106162779Y-86190000D02*
X105837221Y-86190000D01*
X106162779Y-87210000D02*
X105837221Y-87210000D01*
X106962779Y-88810000D02*
X106637221Y-88810000D01*
X106962779Y-87790000D02*
X106637221Y-87790000D01*
X73837221Y-65510000D02*
X74162779Y-65510000D01*
X73837221Y-64490000D02*
X74162779Y-64490000D01*
X147662779Y-65510000D02*
X147337221Y-65510000D01*
X147662779Y-64490000D02*
X147337221Y-64490000D01*
X112687221Y-84360000D02*
X113012779Y-84360000D01*
X112687221Y-83340000D02*
X113012779Y-83340000D01*
X110560000Y-87190000D02*
X111110000Y-87190000D01*
X109440000Y-89410000D02*
X108890000Y-89410000D01*
X110560000Y-89410000D02*
X111110000Y-89410000D01*
X75500000Y-62700000D02*
G75*
G03X75500000Y-62700000I-700000J0D01*
G01*
X109837221Y-96490000D02*
X110162779Y-96490000D01*
X109837221Y-97510000D02*
X110162779Y-97510000D01*
D13*
X115200000Y-42900000D02*
X115200000Y-71000000D01*
X115200000Y-71000000D02*
X104800000Y-71000000D01*
X104800000Y-71000000D02*
X104800000Y-42900000D01*
X104800000Y-42900000D02*
X115200000Y-42900000D01*
D12*
X107762779Y-82310000D02*
X107437221Y-82310000D01*
X107762779Y-81290000D02*
X107437221Y-81290000D01*
X108900000Y-100500000D02*
G75*
G03X108900000Y-100500000I-700000J0D01*
G01*
X112600000Y-100500000D02*
G75*
G03X112600000Y-100500000I-700000J0D01*
G01*
X73260000Y-62087221D02*
X73260000Y-62412779D01*
X72240000Y-62087221D02*
X72240000Y-62412779D01*
X148240000Y-62087221D02*
X148240000Y-62412779D01*
X149260000Y-62087221D02*
X149260000Y-62412779D01*
M02*
