M48
; DRILL file {KiCad (5.1.5-0-10_14)} date Tuesday, 29 December 2020 at 13:30:19
; FORMAT={-:-/ absolute / inch / decimal}
; #@! TF.CreationDate,2020-12-29T13:30:19-08:00
; #@! TF.GenerationSoftware,Kicad,Pcbnew,(5.1.5-0-10_14)
; #@! TF.FileFunction,Plated,1,4,PTH
FMAT,2
INCH
T1C0.0177
T2C0.0236
T3C0.0335
T4C0.0394
T5C0.0461
T6C0.0831
%
G90
G05
T1
X2.4803Y-2.4528
X2.4803Y-2.6693
X2.5866Y-2.5591
X2.5984Y-2.5039
X2.6417Y-2.6063
X2.6969Y-2.5236
X2.7717Y-2.6024
X2.815Y-2.4213
X2.8268Y-2.5591
X2.8622Y-2.6417
X2.9291Y-2.6102
X2.9291Y-2.7047
X2.9764Y-2.5118
X2.9961Y-2.7992
X3.0039Y-2.5591
X3.0197Y-2.6969
X3.0531Y-2.6575
X3.0748Y-2.5591
X3.1102Y-2.7795
X3.1142Y-2.8976
X3.1732Y-2.6772
X3.2008Y-2.7992
X3.2008Y-2.878
X3.2047Y-3.0079
X3.2717Y-2.7795
X3.315Y-2.9134
X3.3268Y-3.0039
X3.3307Y-3.1142
X3.3819Y-2.7165
X3.3837Y-2.7896
X3.4055Y-2.8543
X3.4134Y-3.0157
X3.4173Y-3.2126
X3.4213Y-3.0945
X3.4252Y-2.6339
X3.4331Y-2.9232
X3.5039Y-3.0157
X3.5079Y-3.315
X3.5157Y-3.1181
X3.5197Y-3.185
X3.5433Y-2.8937
X3.5984Y-3.4055
X3.6004Y-3.1004
X3.6024Y-2.6378
X3.6024Y-3.2362
X3.622Y-3.2835
X3.626Y-2.7559
X3.6811Y-2.874
X3.7008Y-3.4882
X3.7047Y-3.3858
X3.7087Y-3.3071
X3.7205Y-2.5394
X3.7205Y-2.6378
X3.7461Y-3.2461
X3.7677Y-2.9961
X3.7756Y-3.5827
X3.8012Y-3.4114
X3.8031Y-2.7913
X3.804Y-2.5638
X3.811Y-3.4803
X3.8189Y-3.0709
X3.8386Y-3.3465
X3.878Y-2.8346
X3.878Y-3.1496
X3.8819Y-3.685
X3.9055Y-3.5709
X3.937Y-2.9134
X3.9528Y-3.3583
X3.9567Y-3.2283
X3.9606Y-3.4331
X3.9843Y-3.7677
X3.9961Y-3.6654
X4.0157Y-2.9724
X4.0157Y-3.2874
X4.0354Y-3.3622
X4.0551Y-3.0315
X4.0748Y-3.4311
X4.0984Y-3.752
X4.1102Y-3.3622
X4.1142Y-3.0906
X4.1181Y-3.4764
X4.126Y-3.8661
X4.1299Y-3.5433
X4.1496Y-3.5787
X4.1535Y-3.2205
X4.1693Y-4.1535
X4.1693Y-4.2795
X4.1693Y-4.3976
X4.1693Y-4.5276
X4.1693Y-4.6339
X4.1693Y-4.7441
X4.1929Y-3.0118
X4.1969Y-3.7795
X4.2244Y-4.8031
X4.2283Y-3.1535
X4.2441Y-3.5256
X4.2598Y-3.8189
X4.2717Y-3.2874
X4.2913Y-2.811
X4.2913Y-2.9291
X4.3169Y-3.5807
X4.3307Y-3.0394
X4.3307Y-4.5512
X4.3445Y-3.6358
X4.3701Y-2.8071
X4.3701Y-2.9291
X4.3701Y-3.4055
X4.3976Y-3.1713
X4.4055Y-3.8189
X4.4094Y-3.0118
X4.4193Y-3.4744
X4.437Y-4.8031
X4.4803Y-4.6299
X4.4803Y-4.7559
X4.4843Y-4.3819
X4.4843Y-4.5157
X4.4882Y-2.9252
X4.4882Y-3.0118
X4.4882Y-4.1535
X4.4882Y-4.2717
X4.4961Y-3.6024
X4.5079Y-3.2283
X4.5157Y-3.5354
X4.5276Y-3.7677
X4.5276Y-3.8583
X4.5472Y-3.3465
X4.5669Y-3.0118
X4.5827Y-3.5039
X4.5827Y-3.6024
X4.5866Y-2.9252
X4.6339Y-3.5394
X4.6339Y-3.8622
X4.6457Y-3.0118
X4.6457Y-3.7717
X4.685Y-2.9252
X4.6929Y-3.1299
X4.7165Y-3.7402
X4.7323Y-3.4921
X4.7323Y-3.5866
X4.748Y-3.8268
X4.7835Y-3.1772
X4.7874Y-2.9803
X4.7953Y-3.6693
X4.811Y-3.0827
X4.8189Y-3.4055
X4.8228Y-3.7559
X4.8268Y-3.4921
X4.874Y-2.9843
X4.874Y-3.6024
X4.8819Y-2.8819
X4.8917Y-2.5217
X4.9016Y-3.3228
X4.9055Y-3.4094
X4.9094Y-2.6181
X4.9134Y-3.6732
X4.9213Y-3.0709
X4.9409Y-3.5276
X4.9606Y-2.9724
X4.9803Y-2.6969
X4.9803Y-3.5945
X4.9843Y-2.5669
X4.9882Y-2.7638
X4.9882Y-2.8268
X4.9902Y-3.3169
X5.0Y-3.1299
X5.0177Y-3.4547
X5.0591Y-3.0512
X5.061Y-3.4094
X5.1063Y-3.4724
X5.1319Y-3.3406
X5.1417Y-3.0827
X5.189Y-3.2913
X5.1969Y-3.374
X5.2441Y-3.0827
X5.248Y-2.9606
X5.2756Y-3.1929
X5.2795Y-3.2953
X5.3661Y-2.8504
X5.3661Y-2.9606
X5.3661Y-3.1063
X5.372Y-3.2008
X5.4528Y-3.0118
X5.4626Y-3.1102
X5.5079Y-2.7165
X5.5315Y-2.8543
X5.5315Y-2.9331
X5.5472Y-3.0236
X5.5866Y-2.622
X5.6339Y-2.8386
X5.6339Y-2.9331
X5.6535Y-2.6811
X5.7205Y-2.5591
X5.7244Y-2.7441
X5.7283Y-2.8386
X5.8228Y-2.622
X5.8465Y-2.7283
X5.8858Y-2.5591
X5.9055Y-2.4213
X5.9331Y-2.5236
X5.9331Y-2.6102
X5.9843Y-2.5984
X6.0394Y-2.4882
X6.0669Y-2.5591
X6.0669Y-2.6181
X6.1811Y-2.4488
X6.1811Y-2.6693
T3
X3.4055Y-2.5472
X3.6024Y-2.5472
T4
X4.8425Y-2.4409
X4.9425Y-2.4409
X4.7409Y-3.248
X4.8409Y-3.248
X4.9409Y-3.248
X3.7795Y-2.4409
X3.8795Y-2.4409
T5
X4.3307Y-2.5906
T6
X4.2008Y-2.4606
X4.2008Y-2.7205
X4.4606Y-2.4606
X4.4606Y-2.7205
T2
G00X3.3661Y-2.4547
M15
G01X3.3661Y-2.4272
M16
G05
G00X3.6417Y-2.4272
M15
G01X3.6417Y-2.4547
M16
G05
T0
M30
