G04 #@! TF.GenerationSoftware,KiCad,Pcbnew,(5.1.5-0-10_14)*
G04 #@! TF.CreationDate,2020-09-27T01:00:48-07:00*
G04 #@! TF.ProjectId,Bias_Tester,42696173-5f54-4657-9374-65722e6b6963,rev?*
G04 #@! TF.SameCoordinates,Original*
G04 #@! TF.FileFunction,Copper,L4,Bot*
G04 #@! TF.FilePolarity,Positive*
%FSLAX46Y46*%
G04 Gerber Fmt 4.6, Leading zero omitted, Abs format (unit mm)*
G04 Created by KiCad (PCBNEW (5.1.5-0-10_14)) date 2020-09-27 01:00:48*
%MOMM*%
%LPD*%
G04 APERTURE LIST*
%ADD10C,1.450000*%
%ADD11O,1.900000X1.200000*%
%ADD12R,1.700000X1.700000*%
%ADD13O,1.700000X1.700000*%
%ADD14C,2.000000*%
%ADD15C,2.500000*%
%ADD16C,6.400000*%
%ADD17R,1.600000X1.600000*%
%ADD18O,1.600000X1.600000*%
%ADD19C,0.450000*%
%ADD20C,0.127000*%
%ADD21C,0.100000*%
G04 APERTURE END LIST*
D10*
X76462500Y-96500000D03*
X76462500Y-101500000D03*
D11*
X73762500Y-95500000D03*
X73762500Y-102500000D03*
D12*
X110000000Y-90000000D03*
D13*
X110000000Y-87460000D03*
X92000000Y-102540000D03*
D12*
X92000000Y-100000000D03*
X110000000Y-108000000D03*
D13*
X110000000Y-110540000D03*
D14*
X114230000Y-88250000D03*
X114230000Y-92000000D03*
X114230000Y-95750000D03*
D15*
X124230000Y-86950000D03*
X124230000Y-97050000D03*
D14*
X95300000Y-95250000D03*
X95300000Y-99000000D03*
X95300000Y-102750000D03*
D15*
X105300000Y-93950000D03*
X105300000Y-104050000D03*
X124230000Y-111050000D03*
X124230000Y-100950000D03*
D14*
X114230000Y-109750000D03*
X114230000Y-106000000D03*
X114230000Y-102250000D03*
D12*
X75000000Y-106000000D03*
X75000000Y-92000000D03*
D16*
X75500000Y-86500000D03*
X165450000Y-86500000D03*
X75500000Y-111500000D03*
X165500000Y-111500000D03*
D12*
X164000000Y-100400000D03*
D13*
X164000000Y-97860000D03*
D17*
X141000000Y-95000000D03*
D18*
X133380000Y-102620000D03*
X138460000Y-95000000D03*
X135920000Y-102620000D03*
X135920000Y-95000000D03*
X138460000Y-102620000D03*
X133380000Y-95000000D03*
X141000000Y-102620000D03*
D19*
X86970000Y-97870000D03*
X86970000Y-99870000D03*
X85590000Y-100390000D03*
X88020000Y-100390000D03*
X87360000Y-98230000D03*
X86190000Y-98140000D03*
X87150000Y-89220000D03*
X84660000Y-89190000D03*
X86250000Y-91040000D03*
X86060000Y-93710000D03*
X86380000Y-94820000D03*
X78790000Y-99390000D03*
X81610000Y-99380000D03*
X82800000Y-99390000D03*
X149710000Y-97990000D03*
X149820000Y-99010000D03*
X88490000Y-92690000D03*
X152800000Y-98380000D03*
X89330000Y-87030000D03*
X95180000Y-86920000D03*
X106390000Y-87000000D03*
X117400000Y-87050000D03*
X120820000Y-87170000D03*
X124410000Y-90510000D03*
X122220000Y-88740000D03*
X134220000Y-90720000D03*
X145760000Y-92940000D03*
X147270000Y-91910000D03*
X150600000Y-95440000D03*
X140840000Y-88940000D03*
X129050000Y-88880000D03*
X118570000Y-85360000D03*
X112000000Y-85270000D03*
X100840000Y-85360000D03*
X99950000Y-87130000D03*
X92250000Y-85360000D03*
X86560000Y-86930000D03*
X90400000Y-100730000D03*
X88330000Y-102370000D03*
X93090000Y-104200000D03*
X90960000Y-104930000D03*
X95210000Y-105920000D03*
X93630000Y-106890000D03*
X97770000Y-108610000D03*
X95540000Y-109420000D03*
X100380000Y-110980000D03*
X97530000Y-111680000D03*
X102470000Y-112090000D03*
X102340000Y-113700000D03*
X104170000Y-112160000D03*
X104200000Y-113750000D03*
X106990000Y-112140000D03*
X106970000Y-113720000D03*
X109760000Y-112190000D03*
X109810000Y-113820000D03*
X111990000Y-112100000D03*
X111850000Y-113780000D03*
X114960000Y-111890000D03*
X114960000Y-113890000D03*
X118250000Y-112390000D03*
X118270000Y-113750000D03*
X121670000Y-112300000D03*
X121560000Y-113750000D03*
X126650000Y-112210000D03*
X126600000Y-113740000D03*
X130670000Y-112160000D03*
X130810000Y-113740000D03*
X134550000Y-112110000D03*
X136030000Y-113260000D03*
X137420000Y-109050000D03*
X139190000Y-110340000D03*
X139660000Y-106520000D03*
X141860000Y-106370000D03*
X90940000Y-91000000D03*
X91050000Y-92500000D03*
X94470000Y-91040000D03*
X94540000Y-92690000D03*
X97950000Y-91070000D03*
X97880000Y-92610000D03*
X101400000Y-91110000D03*
X101320000Y-92800000D03*
X105250000Y-91040000D03*
X108690000Y-92430000D03*
X107810000Y-94230000D03*
X112070000Y-92580000D03*
X112100000Y-94520000D03*
X116730000Y-92750000D03*
X116620000Y-94330000D03*
X119870000Y-92670000D03*
X119980000Y-94490000D03*
X123230000Y-92750000D03*
X123430000Y-94330000D03*
X126950000Y-92670000D03*
X127180000Y-94450000D03*
X130390000Y-92790000D03*
X131740000Y-94800000D03*
X129500000Y-94910000D03*
X129580000Y-96960000D03*
X132170000Y-97120000D03*
X130660000Y-99320000D03*
X133870000Y-98940000D03*
X132750000Y-100990000D03*
X134650000Y-92750000D03*
X136850000Y-92820000D03*
X141460000Y-92670000D03*
X138670000Y-92750000D03*
X145140000Y-94180000D03*
X143300000Y-95770000D03*
X147260000Y-95840000D03*
X145280000Y-97610000D03*
X147300000Y-99500000D03*
X149670000Y-93470000D03*
X145500000Y-89510000D03*
X143520000Y-91460000D03*
X142460000Y-88560000D03*
X140480000Y-90680000D03*
X136760000Y-91030000D03*
X136800000Y-88840000D03*
X130760000Y-91000000D03*
X131600000Y-88770000D03*
X127400000Y-91030000D03*
X126830000Y-88420000D03*
X122480000Y-85410000D03*
X115630000Y-85330000D03*
X112090000Y-87230000D03*
X109000000Y-85020000D03*
X103820000Y-87180000D03*
X104730000Y-85400000D03*
X97990000Y-85150000D03*
X97030000Y-87620000D03*
X91840000Y-87330000D03*
X88940000Y-85170000D03*
X83960000Y-92200000D03*
X89000000Y-94730000D03*
X116950000Y-104680000D03*
X121040000Y-104710000D03*
X117010000Y-107760000D03*
X122190000Y-107760000D03*
X126530000Y-105350000D03*
X129510000Y-102600000D03*
X108820000Y-98370000D03*
X104840000Y-97040000D03*
X103970000Y-101890000D03*
X109220000Y-101490000D03*
X98540000Y-96920000D03*
X99530000Y-100910000D03*
X109690000Y-104260000D03*
X105530000Y-107260000D03*
X155810000Y-96540000D03*
X158710000Y-96680000D03*
X161160000Y-96630000D03*
X156440000Y-99400000D03*
X159300000Y-99440000D03*
X160790000Y-99260000D03*
X81790000Y-100800000D03*
X79520000Y-100610000D03*
X80350000Y-96380000D03*
X77500000Y-94960000D03*
X75660000Y-93820000D03*
X77350000Y-91270000D03*
X79750000Y-93460000D03*
X73860000Y-90590000D03*
X153610000Y-100050000D03*
X152200000Y-99600000D03*
X88890000Y-96820000D03*
X89200000Y-98670000D03*
X152850000Y-97060000D03*
X154090000Y-97160000D03*
X88840000Y-91710000D03*
X150180000Y-96990000D03*
X149620000Y-100070000D03*
D20*
X153990000Y-97060000D02*
X154090000Y-97160000D01*
X152850000Y-97060000D02*
X153990000Y-97060000D01*
D21*
G36*
X73149786Y-84142715D02*
G01*
X75500000Y-86492929D01*
X77850214Y-84142715D01*
X77755820Y-84050000D01*
X163194180Y-84050000D01*
X163099786Y-84142715D01*
X165450000Y-86492929D01*
X167800214Y-84142715D01*
X167705820Y-84050000D01*
X167950000Y-84050000D01*
X167950000Y-84295086D01*
X167807285Y-84149786D01*
X165457071Y-86500000D01*
X167807285Y-88850214D01*
X167950000Y-88704914D01*
X167950000Y-109244180D01*
X167857285Y-109149786D01*
X165507071Y-111500000D01*
X167857285Y-113850214D01*
X167950000Y-113755820D01*
X167950000Y-113950000D01*
X167755820Y-113950000D01*
X167850214Y-113857285D01*
X165500000Y-111507071D01*
X163149786Y-113857285D01*
X163244180Y-113950000D01*
X77755820Y-113950000D01*
X77850214Y-113857285D01*
X75500000Y-111507071D01*
X73149786Y-113857285D01*
X73244180Y-113950000D01*
X73050000Y-113950000D01*
X73050000Y-113755820D01*
X73142715Y-113850214D01*
X75492929Y-111500000D01*
X75507071Y-111500000D01*
X77857285Y-113850214D01*
X78226256Y-113474560D01*
X78559090Y-112904754D01*
X78774364Y-112280963D01*
X78863807Y-111627160D01*
X78823980Y-110968470D01*
X78685635Y-110441509D01*
X109000000Y-110441509D01*
X109000000Y-110638491D01*
X109038429Y-110831689D01*
X109113811Y-111013678D01*
X109223249Y-111177463D01*
X109362537Y-111316751D01*
X109526322Y-111426189D01*
X109708311Y-111501571D01*
X109901509Y-111540000D01*
X110098491Y-111540000D01*
X110291689Y-111501571D01*
X110473678Y-111426189D01*
X110637463Y-111316751D01*
X110776751Y-111177463D01*
X110886189Y-111013678D01*
X110928258Y-110912112D01*
X122830000Y-110912112D01*
X122830000Y-111187888D01*
X122883801Y-111458365D01*
X122989336Y-111713149D01*
X123142549Y-111942448D01*
X123337552Y-112137451D01*
X123566851Y-112290664D01*
X123821635Y-112396199D01*
X124092112Y-112450000D01*
X124367888Y-112450000D01*
X124638365Y-112396199D01*
X124893149Y-112290664D01*
X125122448Y-112137451D01*
X125317451Y-111942448D01*
X125470664Y-111713149D01*
X125576199Y-111458365D01*
X125593210Y-111372840D01*
X162136193Y-111372840D01*
X162176020Y-112031530D01*
X162343586Y-112669793D01*
X162632451Y-113263101D01*
X162773744Y-113474560D01*
X163142715Y-113850214D01*
X165492929Y-111500000D01*
X163142715Y-109149786D01*
X162773744Y-109525440D01*
X162440910Y-110095246D01*
X162225636Y-110719037D01*
X162136193Y-111372840D01*
X125593210Y-111372840D01*
X125630000Y-111187888D01*
X125630000Y-110912112D01*
X125576199Y-110641635D01*
X125470664Y-110386851D01*
X125317451Y-110157552D01*
X125122448Y-109962549D01*
X124893149Y-109809336D01*
X124638365Y-109703801D01*
X124367888Y-109650000D01*
X124092112Y-109650000D01*
X123821635Y-109703801D01*
X123566851Y-109809336D01*
X123337552Y-109962549D01*
X123142549Y-110157552D01*
X122989336Y-110386851D01*
X122883801Y-110641635D01*
X122830000Y-110912112D01*
X110928258Y-110912112D01*
X110961571Y-110831689D01*
X111000000Y-110638491D01*
X111000000Y-110441509D01*
X110961571Y-110248311D01*
X110886189Y-110066322D01*
X110776751Y-109902537D01*
X110637463Y-109763249D01*
X110473678Y-109653811D01*
X110432453Y-109636735D01*
X113080000Y-109636735D01*
X113080000Y-109863265D01*
X113124194Y-110085443D01*
X113210884Y-110294729D01*
X113336737Y-110483082D01*
X113496918Y-110643263D01*
X113685271Y-110769116D01*
X113894557Y-110855806D01*
X114116735Y-110900000D01*
X114343265Y-110900000D01*
X114565443Y-110855806D01*
X114774729Y-110769116D01*
X114963082Y-110643263D01*
X115123263Y-110483082D01*
X115249116Y-110294729D01*
X115335806Y-110085443D01*
X115380000Y-109863265D01*
X115380000Y-109636735D01*
X115335806Y-109414557D01*
X115249116Y-109205271D01*
X115207318Y-109142715D01*
X163149786Y-109142715D01*
X165500000Y-111492929D01*
X167850214Y-109142715D01*
X167474560Y-108773744D01*
X166904754Y-108440910D01*
X166280963Y-108225636D01*
X165627160Y-108136193D01*
X164968470Y-108176020D01*
X164330207Y-108343586D01*
X163736899Y-108632451D01*
X163525440Y-108773744D01*
X163149786Y-109142715D01*
X115207318Y-109142715D01*
X115123263Y-109016918D01*
X114963082Y-108856737D01*
X114774729Y-108730884D01*
X114565443Y-108644194D01*
X114343265Y-108600000D01*
X114116735Y-108600000D01*
X113894557Y-108644194D01*
X113685271Y-108730884D01*
X113496918Y-108856737D01*
X113336737Y-109016918D01*
X113210884Y-109205271D01*
X113124194Y-109414557D01*
X113080000Y-109636735D01*
X110432453Y-109636735D01*
X110291689Y-109578429D01*
X110098491Y-109540000D01*
X109901509Y-109540000D01*
X109708311Y-109578429D01*
X109526322Y-109653811D01*
X109362537Y-109763249D01*
X109223249Y-109902537D01*
X109113811Y-110066322D01*
X109038429Y-110248311D01*
X109000000Y-110441509D01*
X78685635Y-110441509D01*
X78656414Y-110330207D01*
X78367549Y-109736899D01*
X78226256Y-109525440D01*
X77857285Y-109149786D01*
X75507071Y-111500000D01*
X75492929Y-111500000D01*
X73142715Y-109149786D01*
X73050000Y-109244180D01*
X73050000Y-109142715D01*
X73149786Y-109142715D01*
X75500000Y-111492929D01*
X77850214Y-109142715D01*
X77474560Y-108773744D01*
X76904754Y-108440910D01*
X76280963Y-108225636D01*
X75627160Y-108136193D01*
X74968470Y-108176020D01*
X74330207Y-108343586D01*
X73736899Y-108632451D01*
X73525440Y-108773744D01*
X73149786Y-109142715D01*
X73050000Y-109142715D01*
X73050000Y-107150000D01*
X108999275Y-107150000D01*
X108999275Y-108850000D01*
X109002171Y-108879405D01*
X109010748Y-108907680D01*
X109024677Y-108933738D01*
X109043421Y-108956579D01*
X109066262Y-108975323D01*
X109092320Y-108989252D01*
X109120595Y-108997829D01*
X109150000Y-109000725D01*
X110850000Y-109000725D01*
X110879405Y-108997829D01*
X110907680Y-108989252D01*
X110933738Y-108975323D01*
X110956579Y-108956579D01*
X110975323Y-108933738D01*
X110989252Y-108907680D01*
X110997829Y-108879405D01*
X111000725Y-108850000D01*
X111000725Y-107150000D01*
X110997829Y-107120595D01*
X110989252Y-107092320D01*
X110975323Y-107066262D01*
X110956579Y-107043421D01*
X110933738Y-107024677D01*
X110907680Y-107010748D01*
X110879405Y-107002171D01*
X110850000Y-106999275D01*
X109150000Y-106999275D01*
X109120595Y-107002171D01*
X109092320Y-107010748D01*
X109066262Y-107024677D01*
X109043421Y-107043421D01*
X109024677Y-107066262D01*
X109010748Y-107092320D01*
X109002171Y-107120595D01*
X108999275Y-107150000D01*
X73050000Y-107150000D01*
X73050000Y-106850000D01*
X73999274Y-106850000D01*
X74002170Y-106879405D01*
X74010747Y-106907680D01*
X74024676Y-106933739D01*
X74043421Y-106956579D01*
X74066261Y-106975324D01*
X74092320Y-106989253D01*
X74120595Y-106997830D01*
X74150000Y-107000726D01*
X74957500Y-107000000D01*
X74995000Y-106962500D01*
X74995000Y-106005000D01*
X75005000Y-106005000D01*
X75005000Y-106962500D01*
X75042500Y-107000000D01*
X75850000Y-107000726D01*
X75879405Y-106997830D01*
X75907680Y-106989253D01*
X75933739Y-106975324D01*
X75956579Y-106956579D01*
X75975324Y-106933739D01*
X75989253Y-106907680D01*
X75997830Y-106879405D01*
X76000726Y-106850000D01*
X76000000Y-106042500D01*
X75962500Y-106005000D01*
X75005000Y-106005000D01*
X74995000Y-106005000D01*
X74037500Y-106005000D01*
X74000000Y-106042500D01*
X73999274Y-106850000D01*
X73050000Y-106850000D01*
X73050000Y-105150000D01*
X73999274Y-105150000D01*
X74000000Y-105957500D01*
X74037500Y-105995000D01*
X74995000Y-105995000D01*
X74995000Y-105037500D01*
X75005000Y-105037500D01*
X75005000Y-105995000D01*
X75962500Y-105995000D01*
X76000000Y-105957500D01*
X76000063Y-105886735D01*
X113080000Y-105886735D01*
X113080000Y-106113265D01*
X113124194Y-106335443D01*
X113210884Y-106544729D01*
X113336737Y-106733082D01*
X113496918Y-106893263D01*
X113685271Y-107019116D01*
X113894557Y-107105806D01*
X114116735Y-107150000D01*
X114343265Y-107150000D01*
X114565443Y-107105806D01*
X114774729Y-107019116D01*
X114963082Y-106893263D01*
X115123263Y-106733082D01*
X115249116Y-106544729D01*
X115335806Y-106335443D01*
X115380000Y-106113265D01*
X115380000Y-105886735D01*
X115335806Y-105664557D01*
X115249116Y-105455271D01*
X115123263Y-105266918D01*
X114963082Y-105106737D01*
X114774729Y-104980884D01*
X114565443Y-104894194D01*
X114343265Y-104850000D01*
X114116735Y-104850000D01*
X113894557Y-104894194D01*
X113685271Y-104980884D01*
X113496918Y-105106737D01*
X113336737Y-105266918D01*
X113210884Y-105455271D01*
X113124194Y-105664557D01*
X113080000Y-105886735D01*
X76000063Y-105886735D01*
X76000726Y-105150000D01*
X75997830Y-105120595D01*
X75989253Y-105092320D01*
X75975324Y-105066261D01*
X75956579Y-105043421D01*
X75933739Y-105024676D01*
X75907680Y-105010747D01*
X75879405Y-105002170D01*
X75850000Y-104999274D01*
X75042500Y-105000000D01*
X75005000Y-105037500D01*
X74995000Y-105037500D01*
X74957500Y-105000000D01*
X74150000Y-104999274D01*
X74120595Y-105002170D01*
X74092320Y-105010747D01*
X74066261Y-105024676D01*
X74043421Y-105043421D01*
X74024676Y-105066261D01*
X74010747Y-105092320D01*
X74002170Y-105120595D01*
X73999274Y-105150000D01*
X73050000Y-105150000D01*
X73050000Y-103912112D01*
X103900000Y-103912112D01*
X103900000Y-104187888D01*
X103953801Y-104458365D01*
X104059336Y-104713149D01*
X104212549Y-104942448D01*
X104407552Y-105137451D01*
X104636851Y-105290664D01*
X104891635Y-105396199D01*
X105162112Y-105450000D01*
X105437888Y-105450000D01*
X105708365Y-105396199D01*
X105963149Y-105290664D01*
X106192448Y-105137451D01*
X106387451Y-104942448D01*
X106540664Y-104713149D01*
X106646199Y-104458365D01*
X106700000Y-104187888D01*
X106700000Y-103912112D01*
X106646199Y-103641635D01*
X106540664Y-103386851D01*
X106387451Y-103157552D01*
X106192448Y-102962549D01*
X105963149Y-102809336D01*
X105708365Y-102703801D01*
X105437888Y-102650000D01*
X105162112Y-102650000D01*
X104891635Y-102703801D01*
X104636851Y-102809336D01*
X104407552Y-102962549D01*
X104212549Y-103157552D01*
X104059336Y-103386851D01*
X103953801Y-103641635D01*
X103900000Y-103912112D01*
X73050000Y-103912112D01*
X73050000Y-103544118D01*
X94512953Y-103544118D01*
X94624828Y-103687801D01*
X94820758Y-103801501D01*
X95035104Y-103874792D01*
X95259630Y-103904858D01*
X95485707Y-103890543D01*
X95704648Y-103832399D01*
X95908038Y-103732658D01*
X95975172Y-103687801D01*
X96087047Y-103544118D01*
X95300000Y-102757071D01*
X94512953Y-103544118D01*
X73050000Y-103544118D01*
X73050000Y-103152508D01*
X73120868Y-103190997D01*
X73261278Y-103234614D01*
X73407500Y-103250000D01*
X73757500Y-103250000D01*
X73757500Y-102505000D01*
X73767500Y-102505000D01*
X73767500Y-103250000D01*
X74117500Y-103250000D01*
X74263722Y-103234614D01*
X74404132Y-103190997D01*
X74533335Y-103120825D01*
X74646366Y-103026795D01*
X74738881Y-102912521D01*
X74807324Y-102782394D01*
X74831313Y-102701371D01*
X91013107Y-102701371D01*
X91026474Y-102768580D01*
X91089774Y-102954113D01*
X91188053Y-103123732D01*
X91317535Y-103270919D01*
X91473244Y-103390017D01*
X91649196Y-103476449D01*
X91838629Y-103526894D01*
X91995000Y-103502488D01*
X91995000Y-102545000D01*
X92005000Y-102545000D01*
X92005000Y-103502488D01*
X92161371Y-103526894D01*
X92350804Y-103476449D01*
X92526756Y-103390017D01*
X92682465Y-103270919D01*
X92811947Y-103123732D01*
X92910226Y-102954113D01*
X92973526Y-102768580D01*
X92985250Y-102709630D01*
X94145142Y-102709630D01*
X94159457Y-102935707D01*
X94217601Y-103154648D01*
X94317342Y-103358038D01*
X94362199Y-103425172D01*
X94505882Y-103537047D01*
X95292929Y-102750000D01*
X95307071Y-102750000D01*
X96094118Y-103537047D01*
X96237801Y-103425172D01*
X96351501Y-103229242D01*
X96424792Y-103014896D01*
X96454858Y-102790370D01*
X96440543Y-102564293D01*
X96382399Y-102345352D01*
X96282658Y-102141962D01*
X96279166Y-102136735D01*
X113080000Y-102136735D01*
X113080000Y-102363265D01*
X113124194Y-102585443D01*
X113210884Y-102794729D01*
X113336737Y-102983082D01*
X113496918Y-103143263D01*
X113685271Y-103269116D01*
X113894557Y-103355806D01*
X114116735Y-103400000D01*
X114343265Y-103400000D01*
X114565443Y-103355806D01*
X114774729Y-103269116D01*
X114963082Y-103143263D01*
X115123263Y-102983082D01*
X115249116Y-102794729D01*
X115257889Y-102773549D01*
X132442491Y-102773549D01*
X132490461Y-102953498D01*
X132572615Y-103120630D01*
X132685797Y-103268524D01*
X132825657Y-103391495D01*
X132986820Y-103484818D01*
X133163092Y-103544906D01*
X133226451Y-103557509D01*
X133375000Y-103532486D01*
X133375000Y-102625000D01*
X133385000Y-102625000D01*
X133385000Y-103532486D01*
X133533549Y-103557509D01*
X133596908Y-103544906D01*
X133773180Y-103484818D01*
X133934343Y-103391495D01*
X134074203Y-103268524D01*
X134187385Y-103120630D01*
X134269539Y-102953498D01*
X134317509Y-102773549D01*
X134292487Y-102625000D01*
X133385000Y-102625000D01*
X133375000Y-102625000D01*
X132467513Y-102625000D01*
X132442491Y-102773549D01*
X115257889Y-102773549D01*
X115335806Y-102585443D01*
X115359475Y-102466451D01*
X132442491Y-102466451D01*
X132467513Y-102615000D01*
X133375000Y-102615000D01*
X133375000Y-101707514D01*
X133385000Y-101707514D01*
X133385000Y-102615000D01*
X134292487Y-102615000D01*
X134307405Y-102526433D01*
X134970000Y-102526433D01*
X134970000Y-102713567D01*
X135006508Y-102897105D01*
X135078121Y-103069994D01*
X135182087Y-103225590D01*
X135314410Y-103357913D01*
X135470006Y-103461879D01*
X135642895Y-103533492D01*
X135826433Y-103570000D01*
X136013567Y-103570000D01*
X136197105Y-103533492D01*
X136369994Y-103461879D01*
X136525590Y-103357913D01*
X136657913Y-103225590D01*
X136761879Y-103069994D01*
X136833492Y-102897105D01*
X136870000Y-102713567D01*
X136870000Y-102526433D01*
X137510000Y-102526433D01*
X137510000Y-102713567D01*
X137546508Y-102897105D01*
X137618121Y-103069994D01*
X137722087Y-103225590D01*
X137854410Y-103357913D01*
X138010006Y-103461879D01*
X138182895Y-103533492D01*
X138366433Y-103570000D01*
X138553567Y-103570000D01*
X138737105Y-103533492D01*
X138909994Y-103461879D01*
X139065590Y-103357913D01*
X139197913Y-103225590D01*
X139301879Y-103069994D01*
X139373492Y-102897105D01*
X139410000Y-102713567D01*
X139410000Y-102526433D01*
X140050000Y-102526433D01*
X140050000Y-102713567D01*
X140086508Y-102897105D01*
X140158121Y-103069994D01*
X140262087Y-103225590D01*
X140394410Y-103357913D01*
X140550006Y-103461879D01*
X140722895Y-103533492D01*
X140906433Y-103570000D01*
X141093567Y-103570000D01*
X141277105Y-103533492D01*
X141449994Y-103461879D01*
X141605590Y-103357913D01*
X141737913Y-103225590D01*
X141841879Y-103069994D01*
X141913492Y-102897105D01*
X141950000Y-102713567D01*
X141950000Y-102526433D01*
X141913492Y-102342895D01*
X141841879Y-102170006D01*
X141737913Y-102014410D01*
X141605590Y-101882087D01*
X141449994Y-101778121D01*
X141277105Y-101706508D01*
X141093567Y-101670000D01*
X140906433Y-101670000D01*
X140722895Y-101706508D01*
X140550006Y-101778121D01*
X140394410Y-101882087D01*
X140262087Y-102014410D01*
X140158121Y-102170006D01*
X140086508Y-102342895D01*
X140050000Y-102526433D01*
X139410000Y-102526433D01*
X139373492Y-102342895D01*
X139301879Y-102170006D01*
X139197913Y-102014410D01*
X139065590Y-101882087D01*
X138909994Y-101778121D01*
X138737105Y-101706508D01*
X138553567Y-101670000D01*
X138366433Y-101670000D01*
X138182895Y-101706508D01*
X138010006Y-101778121D01*
X137854410Y-101882087D01*
X137722087Y-102014410D01*
X137618121Y-102170006D01*
X137546508Y-102342895D01*
X137510000Y-102526433D01*
X136870000Y-102526433D01*
X136833492Y-102342895D01*
X136761879Y-102170006D01*
X136657913Y-102014410D01*
X136525590Y-101882087D01*
X136369994Y-101778121D01*
X136197105Y-101706508D01*
X136013567Y-101670000D01*
X135826433Y-101670000D01*
X135642895Y-101706508D01*
X135470006Y-101778121D01*
X135314410Y-101882087D01*
X135182087Y-102014410D01*
X135078121Y-102170006D01*
X135006508Y-102342895D01*
X134970000Y-102526433D01*
X134307405Y-102526433D01*
X134317509Y-102466451D01*
X134269539Y-102286502D01*
X134187385Y-102119370D01*
X134074203Y-101971476D01*
X133934343Y-101848505D01*
X133773180Y-101755182D01*
X133596908Y-101695094D01*
X133533549Y-101682491D01*
X133385000Y-101707514D01*
X133375000Y-101707514D01*
X133226451Y-101682491D01*
X133163092Y-101695094D01*
X132986820Y-101755182D01*
X132825657Y-101848505D01*
X132685797Y-101971476D01*
X132572615Y-102119370D01*
X132490461Y-102286502D01*
X132442491Y-102466451D01*
X115359475Y-102466451D01*
X115380000Y-102363265D01*
X115380000Y-102136735D01*
X115335806Y-101914557D01*
X115249116Y-101705271D01*
X115123263Y-101516918D01*
X114963082Y-101356737D01*
X114774729Y-101230884D01*
X114565443Y-101144194D01*
X114343265Y-101100000D01*
X114116735Y-101100000D01*
X113894557Y-101144194D01*
X113685271Y-101230884D01*
X113496918Y-101356737D01*
X113336737Y-101516918D01*
X113210884Y-101705271D01*
X113124194Y-101914557D01*
X113080000Y-102136735D01*
X96279166Y-102136735D01*
X96237801Y-102074828D01*
X96094118Y-101962953D01*
X95307071Y-102750000D01*
X95292929Y-102750000D01*
X94505882Y-101962953D01*
X94362199Y-102074828D01*
X94248499Y-102270758D01*
X94175208Y-102485104D01*
X94145142Y-102709630D01*
X92985250Y-102709630D01*
X92986893Y-102701371D01*
X92962487Y-102545000D01*
X92005000Y-102545000D01*
X91995000Y-102545000D01*
X91037513Y-102545000D01*
X91013107Y-102701371D01*
X74831313Y-102701371D01*
X74849065Y-102641414D01*
X74852467Y-102622262D01*
X74824982Y-102505000D01*
X73767500Y-102505000D01*
X73757500Y-102505000D01*
X73737500Y-102505000D01*
X73737500Y-102495000D01*
X73757500Y-102495000D01*
X73757500Y-101750000D01*
X73767500Y-101750000D01*
X73767500Y-102495000D01*
X74824982Y-102495000D01*
X74852467Y-102377738D01*
X74849065Y-102358586D01*
X74807324Y-102217606D01*
X74744794Y-102098721D01*
X75870850Y-102098721D01*
X75949753Y-102214243D01*
X76098947Y-102300551D01*
X76262112Y-102356094D01*
X76432978Y-102378738D01*
X76434663Y-102378629D01*
X91013107Y-102378629D01*
X91037513Y-102535000D01*
X91995000Y-102535000D01*
X91995000Y-101577512D01*
X92005000Y-101577512D01*
X92005000Y-102535000D01*
X92962487Y-102535000D01*
X92986893Y-102378629D01*
X92973526Y-102311420D01*
X92910226Y-102125887D01*
X92811947Y-101956268D01*
X92811608Y-101955882D01*
X94512953Y-101955882D01*
X95300000Y-102742929D01*
X96087047Y-101955882D01*
X95975172Y-101812199D01*
X95779242Y-101698499D01*
X95564896Y-101625208D01*
X95340370Y-101595142D01*
X95114293Y-101609457D01*
X94895352Y-101667601D01*
X94691962Y-101767342D01*
X94624828Y-101812199D01*
X94512953Y-101955882D01*
X92811608Y-101955882D01*
X92682465Y-101809081D01*
X92526756Y-101689983D01*
X92350804Y-101603551D01*
X92161371Y-101553106D01*
X92005000Y-101577512D01*
X91995000Y-101577512D01*
X91838629Y-101553106D01*
X91649196Y-101603551D01*
X91473244Y-101689983D01*
X91317535Y-101809081D01*
X91188053Y-101956268D01*
X91089774Y-102125887D01*
X91026474Y-102311420D01*
X91013107Y-102378629D01*
X76434663Y-102378629D01*
X76604978Y-102367613D01*
X76771503Y-102323146D01*
X76926153Y-102247046D01*
X76975247Y-102214243D01*
X77054150Y-102098721D01*
X76462500Y-101507071D01*
X75870850Y-102098721D01*
X74744794Y-102098721D01*
X74738881Y-102087479D01*
X74646366Y-101973205D01*
X74533335Y-101879175D01*
X74404132Y-101809003D01*
X74263722Y-101765386D01*
X74117500Y-101750000D01*
X73767500Y-101750000D01*
X73757500Y-101750000D01*
X73407500Y-101750000D01*
X73261278Y-101765386D01*
X73120868Y-101809003D01*
X73050000Y-101847492D01*
X73050000Y-101470478D01*
X75583762Y-101470478D01*
X75594887Y-101642478D01*
X75639354Y-101809003D01*
X75715454Y-101963653D01*
X75748257Y-102012747D01*
X75863779Y-102091650D01*
X76455429Y-101500000D01*
X76469571Y-101500000D01*
X77061221Y-102091650D01*
X77176743Y-102012747D01*
X77263051Y-101863553D01*
X77318594Y-101700388D01*
X77341238Y-101529522D01*
X77330113Y-101357522D01*
X77285646Y-101190997D01*
X77209546Y-101036347D01*
X77176743Y-100987253D01*
X77061221Y-100908350D01*
X76469571Y-101500000D01*
X76455429Y-101500000D01*
X75863779Y-100908350D01*
X75748257Y-100987253D01*
X75661949Y-101136447D01*
X75606406Y-101299612D01*
X75583762Y-101470478D01*
X73050000Y-101470478D01*
X73050000Y-100901279D01*
X75870850Y-100901279D01*
X76462500Y-101492929D01*
X77054150Y-100901279D01*
X76975247Y-100785757D01*
X76826053Y-100699449D01*
X76662888Y-100643906D01*
X76492022Y-100621262D01*
X76320022Y-100632387D01*
X76153497Y-100676854D01*
X75998847Y-100752954D01*
X75949753Y-100785757D01*
X75870850Y-100901279D01*
X73050000Y-100901279D01*
X73050000Y-99150000D01*
X90999275Y-99150000D01*
X90999275Y-100850000D01*
X91002171Y-100879405D01*
X91010748Y-100907680D01*
X91024677Y-100933738D01*
X91043421Y-100956579D01*
X91066262Y-100975323D01*
X91092320Y-100989252D01*
X91120595Y-100997829D01*
X91150000Y-101000725D01*
X92850000Y-101000725D01*
X92879405Y-100997829D01*
X92907680Y-100989252D01*
X92933738Y-100975323D01*
X92956579Y-100956579D01*
X92975323Y-100933738D01*
X92989252Y-100907680D01*
X92997829Y-100879405D01*
X93000725Y-100850000D01*
X93000725Y-100812112D01*
X122830000Y-100812112D01*
X122830000Y-101087888D01*
X122883801Y-101358365D01*
X122989336Y-101613149D01*
X123142549Y-101842448D01*
X123337552Y-102037451D01*
X123566851Y-102190664D01*
X123821635Y-102296199D01*
X124092112Y-102350000D01*
X124367888Y-102350000D01*
X124638365Y-102296199D01*
X124893149Y-102190664D01*
X125122448Y-102037451D01*
X125317451Y-101842448D01*
X125470664Y-101613149D01*
X125576199Y-101358365D01*
X125597754Y-101250000D01*
X162999274Y-101250000D01*
X163002170Y-101279405D01*
X163010747Y-101307680D01*
X163024676Y-101333739D01*
X163043421Y-101356579D01*
X163066261Y-101375324D01*
X163092320Y-101389253D01*
X163120595Y-101397830D01*
X163150000Y-101400726D01*
X163957500Y-101400000D01*
X163995000Y-101362500D01*
X163995000Y-100405000D01*
X164005000Y-100405000D01*
X164005000Y-101362500D01*
X164042500Y-101400000D01*
X164850000Y-101400726D01*
X164879405Y-101397830D01*
X164907680Y-101389253D01*
X164933739Y-101375324D01*
X164956579Y-101356579D01*
X164975324Y-101333739D01*
X164989253Y-101307680D01*
X164997830Y-101279405D01*
X165000726Y-101250000D01*
X165000000Y-100442500D01*
X164962500Y-100405000D01*
X164005000Y-100405000D01*
X163995000Y-100405000D01*
X163037500Y-100405000D01*
X163000000Y-100442500D01*
X162999274Y-101250000D01*
X125597754Y-101250000D01*
X125630000Y-101087888D01*
X125630000Y-100812112D01*
X125576199Y-100541635D01*
X125470664Y-100286851D01*
X125317451Y-100057552D01*
X125292965Y-100033066D01*
X149245000Y-100033066D01*
X149245000Y-100106934D01*
X149259411Y-100179383D01*
X149287680Y-100247629D01*
X149328719Y-100309048D01*
X149380952Y-100361281D01*
X149442371Y-100402320D01*
X149510617Y-100430589D01*
X149583066Y-100445000D01*
X149656934Y-100445000D01*
X149729383Y-100430589D01*
X149797629Y-100402320D01*
X149859048Y-100361281D01*
X149911281Y-100309048D01*
X149952320Y-100247629D01*
X149980589Y-100179383D01*
X149995000Y-100106934D01*
X149995000Y-100033066D01*
X149991022Y-100013066D01*
X153235000Y-100013066D01*
X153235000Y-100086934D01*
X153249411Y-100159383D01*
X153277680Y-100227629D01*
X153318719Y-100289048D01*
X153370952Y-100341281D01*
X153432371Y-100382320D01*
X153500617Y-100410589D01*
X153573066Y-100425000D01*
X153646934Y-100425000D01*
X153719383Y-100410589D01*
X153787629Y-100382320D01*
X153849048Y-100341281D01*
X153901281Y-100289048D01*
X153942320Y-100227629D01*
X153970589Y-100159383D01*
X153985000Y-100086934D01*
X153985000Y-100013066D01*
X153970589Y-99940617D01*
X153942320Y-99872371D01*
X153901281Y-99810952D01*
X153849048Y-99758719D01*
X153787629Y-99717680D01*
X153719383Y-99689411D01*
X153646934Y-99675000D01*
X153573066Y-99675000D01*
X153500617Y-99689411D01*
X153432371Y-99717680D01*
X153370952Y-99758719D01*
X153318719Y-99810952D01*
X153277680Y-99872371D01*
X153249411Y-99940617D01*
X153235000Y-100013066D01*
X149991022Y-100013066D01*
X149980589Y-99960617D01*
X149952320Y-99892371D01*
X149911281Y-99830952D01*
X149859048Y-99778719D01*
X149797629Y-99737680D01*
X149729383Y-99709411D01*
X149656934Y-99695000D01*
X149583066Y-99695000D01*
X149510617Y-99709411D01*
X149442371Y-99737680D01*
X149380952Y-99778719D01*
X149328719Y-99830952D01*
X149287680Y-99892371D01*
X149259411Y-99960617D01*
X149245000Y-100033066D01*
X125292965Y-100033066D01*
X125122448Y-99862549D01*
X124893149Y-99709336D01*
X124638365Y-99603801D01*
X124433576Y-99563066D01*
X151825000Y-99563066D01*
X151825000Y-99636934D01*
X151839411Y-99709383D01*
X151867680Y-99777629D01*
X151908719Y-99839048D01*
X151960952Y-99891281D01*
X152022371Y-99932320D01*
X152090617Y-99960589D01*
X152163066Y-99975000D01*
X152236934Y-99975000D01*
X152309383Y-99960589D01*
X152377629Y-99932320D01*
X152439048Y-99891281D01*
X152491281Y-99839048D01*
X152532320Y-99777629D01*
X152560589Y-99709383D01*
X152575000Y-99636934D01*
X152575000Y-99563066D01*
X152572402Y-99550000D01*
X162999274Y-99550000D01*
X163000000Y-100357500D01*
X163037500Y-100395000D01*
X163995000Y-100395000D01*
X163995000Y-99437500D01*
X164005000Y-99437500D01*
X164005000Y-100395000D01*
X164962500Y-100395000D01*
X165000000Y-100357500D01*
X165000726Y-99550000D01*
X164997830Y-99520595D01*
X164989253Y-99492320D01*
X164975324Y-99466261D01*
X164956579Y-99443421D01*
X164933739Y-99424676D01*
X164907680Y-99410747D01*
X164879405Y-99402170D01*
X164850000Y-99399274D01*
X164042500Y-99400000D01*
X164005000Y-99437500D01*
X163995000Y-99437500D01*
X163957500Y-99400000D01*
X163150000Y-99399274D01*
X163120595Y-99402170D01*
X163092320Y-99410747D01*
X163066261Y-99424676D01*
X163043421Y-99443421D01*
X163024676Y-99466261D01*
X163010747Y-99492320D01*
X163002170Y-99520595D01*
X162999274Y-99550000D01*
X152572402Y-99550000D01*
X152560589Y-99490617D01*
X152532320Y-99422371D01*
X152491281Y-99360952D01*
X152439048Y-99308719D01*
X152377629Y-99267680D01*
X152309383Y-99239411D01*
X152236934Y-99225000D01*
X152163066Y-99225000D01*
X152090617Y-99239411D01*
X152022371Y-99267680D01*
X151960952Y-99308719D01*
X151908719Y-99360952D01*
X151867680Y-99422371D01*
X151839411Y-99490617D01*
X151825000Y-99563066D01*
X124433576Y-99563066D01*
X124367888Y-99550000D01*
X124092112Y-99550000D01*
X123821635Y-99603801D01*
X123566851Y-99709336D01*
X123337552Y-99862549D01*
X123142549Y-100057552D01*
X122989336Y-100286851D01*
X122883801Y-100541635D01*
X122830000Y-100812112D01*
X93000725Y-100812112D01*
X93000725Y-99150000D01*
X92997829Y-99120595D01*
X92989252Y-99092320D01*
X92975323Y-99066262D01*
X92956579Y-99043421D01*
X92933738Y-99024677D01*
X92907680Y-99010748D01*
X92879405Y-99002171D01*
X92850000Y-98999275D01*
X91150000Y-98999275D01*
X91120595Y-99002171D01*
X91092320Y-99010748D01*
X91066262Y-99024677D01*
X91043421Y-99043421D01*
X91024677Y-99066262D01*
X91010748Y-99092320D01*
X91002171Y-99120595D01*
X90999275Y-99150000D01*
X73050000Y-99150000D01*
X73050000Y-98633066D01*
X88825000Y-98633066D01*
X88825000Y-98706934D01*
X88839411Y-98779383D01*
X88867680Y-98847629D01*
X88908719Y-98909048D01*
X88960952Y-98961281D01*
X89022371Y-99002320D01*
X89090617Y-99030589D01*
X89163066Y-99045000D01*
X89236934Y-99045000D01*
X89309383Y-99030589D01*
X89377629Y-99002320D01*
X89439048Y-98961281D01*
X89491281Y-98909048D01*
X89506190Y-98886735D01*
X94150000Y-98886735D01*
X94150000Y-99113265D01*
X94194194Y-99335443D01*
X94280884Y-99544729D01*
X94406737Y-99733082D01*
X94566918Y-99893263D01*
X94755271Y-100019116D01*
X94964557Y-100105806D01*
X95186735Y-100150000D01*
X95413265Y-100150000D01*
X95635443Y-100105806D01*
X95844729Y-100019116D01*
X96033082Y-99893263D01*
X96193263Y-99733082D01*
X96319116Y-99544729D01*
X96405806Y-99335443D01*
X96450000Y-99113265D01*
X96450000Y-98886735D01*
X96405806Y-98664557D01*
X96319116Y-98455271D01*
X96193263Y-98266918D01*
X96033082Y-98106737D01*
X95844729Y-97980884D01*
X95635443Y-97894194D01*
X95413265Y-97850000D01*
X95186735Y-97850000D01*
X94964557Y-97894194D01*
X94755271Y-97980884D01*
X94566918Y-98106737D01*
X94406737Y-98266918D01*
X94280884Y-98455271D01*
X94194194Y-98664557D01*
X94150000Y-98886735D01*
X89506190Y-98886735D01*
X89532320Y-98847629D01*
X89560589Y-98779383D01*
X89575000Y-98706934D01*
X89575000Y-98633066D01*
X89560589Y-98560617D01*
X89532320Y-98492371D01*
X89491281Y-98430952D01*
X89439048Y-98378719D01*
X89377629Y-98337680D01*
X89309383Y-98309411D01*
X89236934Y-98295000D01*
X89163066Y-98295000D01*
X89090617Y-98309411D01*
X89022371Y-98337680D01*
X88960952Y-98378719D01*
X88908719Y-98430952D01*
X88867680Y-98492371D01*
X88839411Y-98560617D01*
X88825000Y-98633066D01*
X73050000Y-98633066D01*
X73050000Y-97098721D01*
X75870850Y-97098721D01*
X75949753Y-97214243D01*
X76098947Y-97300551D01*
X76262112Y-97356094D01*
X76432978Y-97378738D01*
X76604978Y-97367613D01*
X76771503Y-97323146D01*
X76926153Y-97247046D01*
X76975247Y-97214243D01*
X77054150Y-97098721D01*
X76462500Y-96507071D01*
X75870850Y-97098721D01*
X73050000Y-97098721D01*
X73050000Y-96470478D01*
X75583762Y-96470478D01*
X75594887Y-96642478D01*
X75639354Y-96809003D01*
X75715454Y-96963653D01*
X75748257Y-97012747D01*
X75863779Y-97091650D01*
X76455429Y-96500000D01*
X76469571Y-96500000D01*
X77061221Y-97091650D01*
X77176743Y-97012747D01*
X77263051Y-96863553D01*
X77290449Y-96783066D01*
X88515000Y-96783066D01*
X88515000Y-96856934D01*
X88529411Y-96929383D01*
X88557680Y-96997629D01*
X88598719Y-97059048D01*
X88650952Y-97111281D01*
X88712371Y-97152320D01*
X88780617Y-97180589D01*
X88853066Y-97195000D01*
X88926934Y-97195000D01*
X88999383Y-97180589D01*
X89067629Y-97152320D01*
X89129048Y-97111281D01*
X89181281Y-97059048D01*
X89222320Y-96997629D01*
X89250589Y-96929383D01*
X89254024Y-96912112D01*
X122830000Y-96912112D01*
X122830000Y-97187888D01*
X122883801Y-97458365D01*
X122989336Y-97713149D01*
X123142549Y-97942448D01*
X123337552Y-98137451D01*
X123566851Y-98290664D01*
X123821635Y-98396199D01*
X124092112Y-98450000D01*
X124367888Y-98450000D01*
X124638365Y-98396199D01*
X124893149Y-98290664D01*
X125122448Y-98137451D01*
X125317451Y-97942448D01*
X125438350Y-97761509D01*
X163000000Y-97761509D01*
X163000000Y-97958491D01*
X163038429Y-98151689D01*
X163113811Y-98333678D01*
X163223249Y-98497463D01*
X163362537Y-98636751D01*
X163526322Y-98746189D01*
X163708311Y-98821571D01*
X163901509Y-98860000D01*
X164098491Y-98860000D01*
X164291689Y-98821571D01*
X164473678Y-98746189D01*
X164637463Y-98636751D01*
X164776751Y-98497463D01*
X164886189Y-98333678D01*
X164961571Y-98151689D01*
X165000000Y-97958491D01*
X165000000Y-97761509D01*
X164961571Y-97568311D01*
X164886189Y-97386322D01*
X164776751Y-97222537D01*
X164637463Y-97083249D01*
X164473678Y-96973811D01*
X164291689Y-96898429D01*
X164098491Y-96860000D01*
X163901509Y-96860000D01*
X163708311Y-96898429D01*
X163526322Y-96973811D01*
X163362537Y-97083249D01*
X163223249Y-97222537D01*
X163113811Y-97386322D01*
X163038429Y-97568311D01*
X163000000Y-97761509D01*
X125438350Y-97761509D01*
X125470664Y-97713149D01*
X125576199Y-97458365D01*
X125630000Y-97187888D01*
X125630000Y-96953066D01*
X149805000Y-96953066D01*
X149805000Y-97026934D01*
X149819411Y-97099383D01*
X149847680Y-97167629D01*
X149888719Y-97229048D01*
X149940952Y-97281281D01*
X150002371Y-97322320D01*
X150070617Y-97350589D01*
X150143066Y-97365000D01*
X150216934Y-97365000D01*
X150289383Y-97350589D01*
X150357629Y-97322320D01*
X150419048Y-97281281D01*
X150471281Y-97229048D01*
X150512320Y-97167629D01*
X150540589Y-97099383D01*
X150555000Y-97026934D01*
X150555000Y-97023066D01*
X152475000Y-97023066D01*
X152475000Y-97096934D01*
X152489411Y-97169383D01*
X152517680Y-97237629D01*
X152558719Y-97299048D01*
X152610952Y-97351281D01*
X152672371Y-97392320D01*
X152740617Y-97420589D01*
X152813066Y-97435000D01*
X152886934Y-97435000D01*
X152959383Y-97420589D01*
X153027629Y-97392320D01*
X153089048Y-97351281D01*
X153141281Y-97299048D01*
X153158352Y-97273500D01*
X153731116Y-97273500D01*
X153757680Y-97337629D01*
X153798719Y-97399048D01*
X153850952Y-97451281D01*
X153912371Y-97492320D01*
X153980617Y-97520589D01*
X154053066Y-97535000D01*
X154126934Y-97535000D01*
X154199383Y-97520589D01*
X154267629Y-97492320D01*
X154329048Y-97451281D01*
X154381281Y-97399048D01*
X154422320Y-97337629D01*
X154450589Y-97269383D01*
X154465000Y-97196934D01*
X154465000Y-97123066D01*
X154450589Y-97050617D01*
X154422320Y-96982371D01*
X154381281Y-96920952D01*
X154329048Y-96868719D01*
X154267629Y-96827680D01*
X154199383Y-96799411D01*
X154126934Y-96785000D01*
X154053066Y-96785000D01*
X153980617Y-96799411D01*
X153912371Y-96827680D01*
X153884205Y-96846500D01*
X153158352Y-96846500D01*
X153141281Y-96820952D01*
X153089048Y-96768719D01*
X153027629Y-96727680D01*
X152959383Y-96699411D01*
X152886934Y-96685000D01*
X152813066Y-96685000D01*
X152740617Y-96699411D01*
X152672371Y-96727680D01*
X152610952Y-96768719D01*
X152558719Y-96820952D01*
X152517680Y-96882371D01*
X152489411Y-96950617D01*
X152475000Y-97023066D01*
X150555000Y-97023066D01*
X150555000Y-96953066D01*
X150540589Y-96880617D01*
X150512320Y-96812371D01*
X150471281Y-96750952D01*
X150419048Y-96698719D01*
X150357629Y-96657680D01*
X150289383Y-96629411D01*
X150216934Y-96615000D01*
X150143066Y-96615000D01*
X150070617Y-96629411D01*
X150002371Y-96657680D01*
X149940952Y-96698719D01*
X149888719Y-96750952D01*
X149847680Y-96812371D01*
X149819411Y-96880617D01*
X149805000Y-96953066D01*
X125630000Y-96953066D01*
X125630000Y-96912112D01*
X125576199Y-96641635D01*
X125470664Y-96386851D01*
X125317451Y-96157552D01*
X125122448Y-95962549D01*
X124893149Y-95809336D01*
X124638365Y-95703801D01*
X124367888Y-95650000D01*
X124092112Y-95650000D01*
X123821635Y-95703801D01*
X123566851Y-95809336D01*
X123337552Y-95962549D01*
X123142549Y-96157552D01*
X122989336Y-96386851D01*
X122883801Y-96641635D01*
X122830000Y-96912112D01*
X89254024Y-96912112D01*
X89265000Y-96856934D01*
X89265000Y-96783066D01*
X89250589Y-96710617D01*
X89222320Y-96642371D01*
X89181281Y-96580952D01*
X89129048Y-96528719D01*
X89067629Y-96487680D01*
X88999383Y-96459411D01*
X88926934Y-96445000D01*
X88853066Y-96445000D01*
X88780617Y-96459411D01*
X88712371Y-96487680D01*
X88650952Y-96528719D01*
X88598719Y-96580952D01*
X88557680Y-96642371D01*
X88529411Y-96710617D01*
X88515000Y-96783066D01*
X77290449Y-96783066D01*
X77318594Y-96700388D01*
X77341238Y-96529522D01*
X77330113Y-96357522D01*
X77285646Y-96190997D01*
X77209546Y-96036347D01*
X77176743Y-95987253D01*
X77061221Y-95908350D01*
X76469571Y-96500000D01*
X76455429Y-96500000D01*
X75863779Y-95908350D01*
X75748257Y-95987253D01*
X75661949Y-96136447D01*
X75606406Y-96299612D01*
X75583762Y-96470478D01*
X73050000Y-96470478D01*
X73050000Y-96152508D01*
X73120868Y-96190997D01*
X73261278Y-96234614D01*
X73407500Y-96250000D01*
X73757500Y-96250000D01*
X73757500Y-95505000D01*
X73767500Y-95505000D01*
X73767500Y-96250000D01*
X74117500Y-96250000D01*
X74263722Y-96234614D01*
X74404132Y-96190997D01*
X74533335Y-96120825D01*
X74646366Y-96026795D01*
X74738881Y-95912521D01*
X74744793Y-95901279D01*
X75870850Y-95901279D01*
X76462500Y-96492929D01*
X77054150Y-95901279D01*
X76975247Y-95785757D01*
X76826053Y-95699449D01*
X76662888Y-95643906D01*
X76492022Y-95621262D01*
X76320022Y-95632387D01*
X76153497Y-95676854D01*
X75998847Y-95752954D01*
X75949753Y-95785757D01*
X75870850Y-95901279D01*
X74744793Y-95901279D01*
X74807324Y-95782394D01*
X74849065Y-95641414D01*
X74852467Y-95622262D01*
X74824982Y-95505000D01*
X73767500Y-95505000D01*
X73757500Y-95505000D01*
X73737500Y-95505000D01*
X73737500Y-95495000D01*
X73757500Y-95495000D01*
X73757500Y-94750000D01*
X73767500Y-94750000D01*
X73767500Y-95495000D01*
X74824982Y-95495000D01*
X74852467Y-95377738D01*
X74849065Y-95358586D01*
X74807324Y-95217606D01*
X74764789Y-95136735D01*
X94150000Y-95136735D01*
X94150000Y-95363265D01*
X94194194Y-95585443D01*
X94280884Y-95794729D01*
X94406737Y-95983082D01*
X94566918Y-96143263D01*
X94755271Y-96269116D01*
X94964557Y-96355806D01*
X95186735Y-96400000D01*
X95413265Y-96400000D01*
X95635443Y-96355806D01*
X95844729Y-96269116D01*
X96033082Y-96143263D01*
X96193263Y-95983082D01*
X96319116Y-95794729D01*
X96384559Y-95636735D01*
X113080000Y-95636735D01*
X113080000Y-95863265D01*
X113124194Y-96085443D01*
X113210884Y-96294729D01*
X113336737Y-96483082D01*
X113496918Y-96643263D01*
X113685271Y-96769116D01*
X113894557Y-96855806D01*
X114116735Y-96900000D01*
X114343265Y-96900000D01*
X114565443Y-96855806D01*
X114774729Y-96769116D01*
X114963082Y-96643263D01*
X115123263Y-96483082D01*
X115249116Y-96294729D01*
X115335806Y-96085443D01*
X115380000Y-95863265D01*
X115380000Y-95636735D01*
X115335806Y-95414557D01*
X115249116Y-95205271D01*
X115123263Y-95016918D01*
X115012778Y-94906433D01*
X132430000Y-94906433D01*
X132430000Y-95093567D01*
X132466508Y-95277105D01*
X132538121Y-95449994D01*
X132642087Y-95605590D01*
X132774410Y-95737913D01*
X132930006Y-95841879D01*
X133102895Y-95913492D01*
X133286433Y-95950000D01*
X133473567Y-95950000D01*
X133657105Y-95913492D01*
X133829994Y-95841879D01*
X133985590Y-95737913D01*
X134117913Y-95605590D01*
X134221879Y-95449994D01*
X134293492Y-95277105D01*
X134330000Y-95093567D01*
X134330000Y-94906433D01*
X134970000Y-94906433D01*
X134970000Y-95093567D01*
X135006508Y-95277105D01*
X135078121Y-95449994D01*
X135182087Y-95605590D01*
X135314410Y-95737913D01*
X135470006Y-95841879D01*
X135642895Y-95913492D01*
X135826433Y-95950000D01*
X136013567Y-95950000D01*
X136197105Y-95913492D01*
X136369994Y-95841879D01*
X136525590Y-95737913D01*
X136657913Y-95605590D01*
X136761879Y-95449994D01*
X136833492Y-95277105D01*
X136870000Y-95093567D01*
X136870000Y-94906433D01*
X137510000Y-94906433D01*
X137510000Y-95093567D01*
X137546508Y-95277105D01*
X137618121Y-95449994D01*
X137722087Y-95605590D01*
X137854410Y-95737913D01*
X138010006Y-95841879D01*
X138182895Y-95913492D01*
X138366433Y-95950000D01*
X138553567Y-95950000D01*
X138737105Y-95913492D01*
X138909994Y-95841879D01*
X139065590Y-95737913D01*
X139197913Y-95605590D01*
X139301879Y-95449994D01*
X139373492Y-95277105D01*
X139410000Y-95093567D01*
X139410000Y-94906433D01*
X139373492Y-94722895D01*
X139301879Y-94550006D01*
X139197913Y-94394410D01*
X139065590Y-94262087D01*
X138972671Y-94200000D01*
X140049275Y-94200000D01*
X140049275Y-95800000D01*
X140052171Y-95829405D01*
X140060748Y-95857680D01*
X140074677Y-95883738D01*
X140093421Y-95906579D01*
X140116262Y-95925323D01*
X140142320Y-95939252D01*
X140170595Y-95947829D01*
X140200000Y-95950725D01*
X141800000Y-95950725D01*
X141829405Y-95947829D01*
X141857680Y-95939252D01*
X141883738Y-95925323D01*
X141906579Y-95906579D01*
X141925323Y-95883738D01*
X141939252Y-95857680D01*
X141947829Y-95829405D01*
X141950725Y-95800000D01*
X141950725Y-94200000D01*
X141947829Y-94170595D01*
X141939252Y-94142320D01*
X141925323Y-94116262D01*
X141906579Y-94093421D01*
X141883738Y-94074677D01*
X141857680Y-94060748D01*
X141829405Y-94052171D01*
X141800000Y-94049275D01*
X140200000Y-94049275D01*
X140170595Y-94052171D01*
X140142320Y-94060748D01*
X140116262Y-94074677D01*
X140093421Y-94093421D01*
X140074677Y-94116262D01*
X140060748Y-94142320D01*
X140052171Y-94170595D01*
X140049275Y-94200000D01*
X138972671Y-94200000D01*
X138909994Y-94158121D01*
X138737105Y-94086508D01*
X138553567Y-94050000D01*
X138366433Y-94050000D01*
X138182895Y-94086508D01*
X138010006Y-94158121D01*
X137854410Y-94262087D01*
X137722087Y-94394410D01*
X137618121Y-94550006D01*
X137546508Y-94722895D01*
X137510000Y-94906433D01*
X136870000Y-94906433D01*
X136833492Y-94722895D01*
X136761879Y-94550006D01*
X136657913Y-94394410D01*
X136525590Y-94262087D01*
X136369994Y-94158121D01*
X136197105Y-94086508D01*
X136013567Y-94050000D01*
X135826433Y-94050000D01*
X135642895Y-94086508D01*
X135470006Y-94158121D01*
X135314410Y-94262087D01*
X135182087Y-94394410D01*
X135078121Y-94550006D01*
X135006508Y-94722895D01*
X134970000Y-94906433D01*
X134330000Y-94906433D01*
X134293492Y-94722895D01*
X134221879Y-94550006D01*
X134117913Y-94394410D01*
X133985590Y-94262087D01*
X133829994Y-94158121D01*
X133657105Y-94086508D01*
X133473567Y-94050000D01*
X133286433Y-94050000D01*
X133102895Y-94086508D01*
X132930006Y-94158121D01*
X132774410Y-94262087D01*
X132642087Y-94394410D01*
X132538121Y-94550006D01*
X132466508Y-94722895D01*
X132430000Y-94906433D01*
X115012778Y-94906433D01*
X114963082Y-94856737D01*
X114774729Y-94730884D01*
X114565443Y-94644194D01*
X114343265Y-94600000D01*
X114116735Y-94600000D01*
X113894557Y-94644194D01*
X113685271Y-94730884D01*
X113496918Y-94856737D01*
X113336737Y-95016918D01*
X113210884Y-95205271D01*
X113124194Y-95414557D01*
X113080000Y-95636735D01*
X96384559Y-95636735D01*
X96405806Y-95585443D01*
X96450000Y-95363265D01*
X96450000Y-95136735D01*
X96405806Y-94914557D01*
X96319116Y-94705271D01*
X96193263Y-94516918D01*
X96033082Y-94356737D01*
X95844729Y-94230884D01*
X95635443Y-94144194D01*
X95413265Y-94100000D01*
X95186735Y-94100000D01*
X94964557Y-94144194D01*
X94755271Y-94230884D01*
X94566918Y-94356737D01*
X94406737Y-94516918D01*
X94280884Y-94705271D01*
X94194194Y-94914557D01*
X94150000Y-95136735D01*
X74764789Y-95136735D01*
X74738881Y-95087479D01*
X74646366Y-94973205D01*
X74533335Y-94879175D01*
X74404132Y-94809003D01*
X74263722Y-94765386D01*
X74117500Y-94750000D01*
X73767500Y-94750000D01*
X73757500Y-94750000D01*
X73407500Y-94750000D01*
X73261278Y-94765386D01*
X73120868Y-94809003D01*
X73050000Y-94847492D01*
X73050000Y-93812112D01*
X103900000Y-93812112D01*
X103900000Y-94087888D01*
X103953801Y-94358365D01*
X104059336Y-94613149D01*
X104212549Y-94842448D01*
X104407552Y-95037451D01*
X104636851Y-95190664D01*
X104891635Y-95296199D01*
X105162112Y-95350000D01*
X105437888Y-95350000D01*
X105708365Y-95296199D01*
X105963149Y-95190664D01*
X106192448Y-95037451D01*
X106387451Y-94842448D01*
X106540664Y-94613149D01*
X106646199Y-94358365D01*
X106700000Y-94087888D01*
X106700000Y-93812112D01*
X106646199Y-93541635D01*
X106540664Y-93286851D01*
X106387451Y-93057552D01*
X106192448Y-92862549D01*
X105963149Y-92709336D01*
X105708365Y-92603801D01*
X105437888Y-92550000D01*
X105162112Y-92550000D01*
X104891635Y-92603801D01*
X104636851Y-92709336D01*
X104407552Y-92862549D01*
X104212549Y-93057552D01*
X104059336Y-93286851D01*
X103953801Y-93541635D01*
X103900000Y-93812112D01*
X73050000Y-93812112D01*
X73050000Y-91150000D01*
X73999275Y-91150000D01*
X73999275Y-92850000D01*
X74002171Y-92879405D01*
X74010748Y-92907680D01*
X74024677Y-92933738D01*
X74043421Y-92956579D01*
X74066262Y-92975323D01*
X74092320Y-92989252D01*
X74120595Y-92997829D01*
X74150000Y-93000725D01*
X75850000Y-93000725D01*
X75879405Y-92997829D01*
X75907680Y-92989252D01*
X75933738Y-92975323D01*
X75956579Y-92956579D01*
X75975323Y-92933738D01*
X75989252Y-92907680D01*
X75997829Y-92879405D01*
X76000725Y-92850000D01*
X76000725Y-91673066D01*
X88465000Y-91673066D01*
X88465000Y-91746934D01*
X88479411Y-91819383D01*
X88507680Y-91887629D01*
X88548719Y-91949048D01*
X88600952Y-92001281D01*
X88662371Y-92042320D01*
X88730617Y-92070589D01*
X88803066Y-92085000D01*
X88876934Y-92085000D01*
X88949383Y-92070589D01*
X89017629Y-92042320D01*
X89079048Y-92001281D01*
X89131281Y-91949048D01*
X89172320Y-91887629D01*
X89172690Y-91886735D01*
X113080000Y-91886735D01*
X113080000Y-92113265D01*
X113124194Y-92335443D01*
X113210884Y-92544729D01*
X113336737Y-92733082D01*
X113496918Y-92893263D01*
X113685271Y-93019116D01*
X113894557Y-93105806D01*
X114116735Y-93150000D01*
X114343265Y-93150000D01*
X114565443Y-93105806D01*
X114774729Y-93019116D01*
X114963082Y-92893263D01*
X115123263Y-92733082D01*
X115249116Y-92544729D01*
X115335806Y-92335443D01*
X115380000Y-92113265D01*
X115380000Y-91886735D01*
X115335806Y-91664557D01*
X115249116Y-91455271D01*
X115123263Y-91266918D01*
X114963082Y-91106737D01*
X114774729Y-90980884D01*
X114565443Y-90894194D01*
X114343265Y-90850000D01*
X114116735Y-90850000D01*
X113894557Y-90894194D01*
X113685271Y-90980884D01*
X113496918Y-91106737D01*
X113336737Y-91266918D01*
X113210884Y-91455271D01*
X113124194Y-91664557D01*
X113080000Y-91886735D01*
X89172690Y-91886735D01*
X89200589Y-91819383D01*
X89215000Y-91746934D01*
X89215000Y-91673066D01*
X89200589Y-91600617D01*
X89172320Y-91532371D01*
X89131281Y-91470952D01*
X89079048Y-91418719D01*
X89017629Y-91377680D01*
X88949383Y-91349411D01*
X88876934Y-91335000D01*
X88803066Y-91335000D01*
X88730617Y-91349411D01*
X88662371Y-91377680D01*
X88600952Y-91418719D01*
X88548719Y-91470952D01*
X88507680Y-91532371D01*
X88479411Y-91600617D01*
X88465000Y-91673066D01*
X76000725Y-91673066D01*
X76000725Y-91150000D01*
X75997829Y-91120595D01*
X75989252Y-91092320D01*
X75975323Y-91066262D01*
X75956579Y-91043421D01*
X75933738Y-91024677D01*
X75907680Y-91010748D01*
X75879405Y-91002171D01*
X75850000Y-90999275D01*
X74150000Y-90999275D01*
X74120595Y-91002171D01*
X74092320Y-91010748D01*
X74066262Y-91024677D01*
X74043421Y-91043421D01*
X74024677Y-91066262D01*
X74010748Y-91092320D01*
X74002171Y-91120595D01*
X73999275Y-91150000D01*
X73050000Y-91150000D01*
X73050000Y-88857285D01*
X73149786Y-88857285D01*
X73525440Y-89226256D01*
X74095246Y-89559090D01*
X74719037Y-89774364D01*
X75372840Y-89863807D01*
X76031530Y-89823980D01*
X76669793Y-89656414D01*
X77263101Y-89367549D01*
X77474560Y-89226256D01*
X77552197Y-89150000D01*
X108999275Y-89150000D01*
X108999275Y-90850000D01*
X109002171Y-90879405D01*
X109010748Y-90907680D01*
X109024677Y-90933738D01*
X109043421Y-90956579D01*
X109066262Y-90975323D01*
X109092320Y-90989252D01*
X109120595Y-90997829D01*
X109150000Y-91000725D01*
X110850000Y-91000725D01*
X110879405Y-90997829D01*
X110907680Y-90989252D01*
X110933738Y-90975323D01*
X110956579Y-90956579D01*
X110975323Y-90933738D01*
X110989252Y-90907680D01*
X110997829Y-90879405D01*
X111000725Y-90850000D01*
X111000725Y-89150000D01*
X110997829Y-89120595D01*
X110989252Y-89092320D01*
X110975323Y-89066262D01*
X110956579Y-89043421D01*
X110933738Y-89024677D01*
X110907680Y-89010748D01*
X110879405Y-89002171D01*
X110850000Y-88999275D01*
X109150000Y-88999275D01*
X109120595Y-89002171D01*
X109092320Y-89010748D01*
X109066262Y-89024677D01*
X109043421Y-89043421D01*
X109024677Y-89066262D01*
X109010748Y-89092320D01*
X109002171Y-89120595D01*
X108999275Y-89150000D01*
X77552197Y-89150000D01*
X77850214Y-88857285D01*
X75500000Y-86507071D01*
X73149786Y-88857285D01*
X73050000Y-88857285D01*
X73050000Y-88755820D01*
X73142715Y-88850214D01*
X75492929Y-86500000D01*
X75507071Y-86500000D01*
X77857285Y-88850214D01*
X78226256Y-88474560D01*
X78559090Y-87904754D01*
X78746567Y-87361509D01*
X109000000Y-87361509D01*
X109000000Y-87558491D01*
X109038429Y-87751689D01*
X109113811Y-87933678D01*
X109223249Y-88097463D01*
X109362537Y-88236751D01*
X109526322Y-88346189D01*
X109708311Y-88421571D01*
X109901509Y-88460000D01*
X110098491Y-88460000D01*
X110291689Y-88421571D01*
X110473678Y-88346189D01*
X110637463Y-88236751D01*
X110737479Y-88136735D01*
X113080000Y-88136735D01*
X113080000Y-88363265D01*
X113124194Y-88585443D01*
X113210884Y-88794729D01*
X113336737Y-88983082D01*
X113496918Y-89143263D01*
X113685271Y-89269116D01*
X113894557Y-89355806D01*
X114116735Y-89400000D01*
X114343265Y-89400000D01*
X114565443Y-89355806D01*
X114774729Y-89269116D01*
X114963082Y-89143263D01*
X115123263Y-88983082D01*
X115207317Y-88857285D01*
X163099786Y-88857285D01*
X163475440Y-89226256D01*
X164045246Y-89559090D01*
X164669037Y-89774364D01*
X165322840Y-89863807D01*
X165981530Y-89823980D01*
X166619793Y-89656414D01*
X167213101Y-89367549D01*
X167424560Y-89226256D01*
X167800214Y-88857285D01*
X165450000Y-86507071D01*
X163099786Y-88857285D01*
X115207317Y-88857285D01*
X115249116Y-88794729D01*
X115335806Y-88585443D01*
X115380000Y-88363265D01*
X115380000Y-88136735D01*
X115335806Y-87914557D01*
X115249116Y-87705271D01*
X115123263Y-87516918D01*
X114963082Y-87356737D01*
X114774729Y-87230884D01*
X114565443Y-87144194D01*
X114343265Y-87100000D01*
X114116735Y-87100000D01*
X113894557Y-87144194D01*
X113685271Y-87230884D01*
X113496918Y-87356737D01*
X113336737Y-87516918D01*
X113210884Y-87705271D01*
X113124194Y-87914557D01*
X113080000Y-88136735D01*
X110737479Y-88136735D01*
X110776751Y-88097463D01*
X110886189Y-87933678D01*
X110961571Y-87751689D01*
X111000000Y-87558491D01*
X111000000Y-87361509D01*
X110961571Y-87168311D01*
X110886189Y-86986322D01*
X110776751Y-86822537D01*
X110766326Y-86812112D01*
X122830000Y-86812112D01*
X122830000Y-87087888D01*
X122883801Y-87358365D01*
X122989336Y-87613149D01*
X123142549Y-87842448D01*
X123337552Y-88037451D01*
X123566851Y-88190664D01*
X123821635Y-88296199D01*
X124092112Y-88350000D01*
X124367888Y-88350000D01*
X124638365Y-88296199D01*
X124893149Y-88190664D01*
X125122448Y-88037451D01*
X125317451Y-87842448D01*
X125470664Y-87613149D01*
X125576199Y-87358365D01*
X125630000Y-87087888D01*
X125630000Y-86812112D01*
X125576199Y-86541635D01*
X125506282Y-86372840D01*
X162086193Y-86372840D01*
X162126020Y-87031530D01*
X162293586Y-87669793D01*
X162582451Y-88263101D01*
X162723744Y-88474560D01*
X163092715Y-88850214D01*
X165442929Y-86500000D01*
X163092715Y-84149786D01*
X162723744Y-84525440D01*
X162390910Y-85095246D01*
X162175636Y-85719037D01*
X162086193Y-86372840D01*
X125506282Y-86372840D01*
X125470664Y-86286851D01*
X125317451Y-86057552D01*
X125122448Y-85862549D01*
X124893149Y-85709336D01*
X124638365Y-85603801D01*
X124367888Y-85550000D01*
X124092112Y-85550000D01*
X123821635Y-85603801D01*
X123566851Y-85709336D01*
X123337552Y-85862549D01*
X123142549Y-86057552D01*
X122989336Y-86286851D01*
X122883801Y-86541635D01*
X122830000Y-86812112D01*
X110766326Y-86812112D01*
X110637463Y-86683249D01*
X110473678Y-86573811D01*
X110291689Y-86498429D01*
X110098491Y-86460000D01*
X109901509Y-86460000D01*
X109708311Y-86498429D01*
X109526322Y-86573811D01*
X109362537Y-86683249D01*
X109223249Y-86822537D01*
X109113811Y-86986322D01*
X109038429Y-87168311D01*
X109000000Y-87361509D01*
X78746567Y-87361509D01*
X78774364Y-87280963D01*
X78863807Y-86627160D01*
X78823980Y-85968470D01*
X78656414Y-85330207D01*
X78367549Y-84736899D01*
X78226256Y-84525440D01*
X77857285Y-84149786D01*
X75507071Y-86500000D01*
X75492929Y-86500000D01*
X73142715Y-84149786D01*
X73050000Y-84244180D01*
X73050000Y-84050000D01*
X73244180Y-84050000D01*
X73149786Y-84142715D01*
G37*
X73149786Y-84142715D02*
X75500000Y-86492929D01*
X77850214Y-84142715D01*
X77755820Y-84050000D01*
X163194180Y-84050000D01*
X163099786Y-84142715D01*
X165450000Y-86492929D01*
X167800214Y-84142715D01*
X167705820Y-84050000D01*
X167950000Y-84050000D01*
X167950000Y-84295086D01*
X167807285Y-84149786D01*
X165457071Y-86500000D01*
X167807285Y-88850214D01*
X167950000Y-88704914D01*
X167950000Y-109244180D01*
X167857285Y-109149786D01*
X165507071Y-111500000D01*
X167857285Y-113850214D01*
X167950000Y-113755820D01*
X167950000Y-113950000D01*
X167755820Y-113950000D01*
X167850214Y-113857285D01*
X165500000Y-111507071D01*
X163149786Y-113857285D01*
X163244180Y-113950000D01*
X77755820Y-113950000D01*
X77850214Y-113857285D01*
X75500000Y-111507071D01*
X73149786Y-113857285D01*
X73244180Y-113950000D01*
X73050000Y-113950000D01*
X73050000Y-113755820D01*
X73142715Y-113850214D01*
X75492929Y-111500000D01*
X75507071Y-111500000D01*
X77857285Y-113850214D01*
X78226256Y-113474560D01*
X78559090Y-112904754D01*
X78774364Y-112280963D01*
X78863807Y-111627160D01*
X78823980Y-110968470D01*
X78685635Y-110441509D01*
X109000000Y-110441509D01*
X109000000Y-110638491D01*
X109038429Y-110831689D01*
X109113811Y-111013678D01*
X109223249Y-111177463D01*
X109362537Y-111316751D01*
X109526322Y-111426189D01*
X109708311Y-111501571D01*
X109901509Y-111540000D01*
X110098491Y-111540000D01*
X110291689Y-111501571D01*
X110473678Y-111426189D01*
X110637463Y-111316751D01*
X110776751Y-111177463D01*
X110886189Y-111013678D01*
X110928258Y-110912112D01*
X122830000Y-110912112D01*
X122830000Y-111187888D01*
X122883801Y-111458365D01*
X122989336Y-111713149D01*
X123142549Y-111942448D01*
X123337552Y-112137451D01*
X123566851Y-112290664D01*
X123821635Y-112396199D01*
X124092112Y-112450000D01*
X124367888Y-112450000D01*
X124638365Y-112396199D01*
X124893149Y-112290664D01*
X125122448Y-112137451D01*
X125317451Y-111942448D01*
X125470664Y-111713149D01*
X125576199Y-111458365D01*
X125593210Y-111372840D01*
X162136193Y-111372840D01*
X162176020Y-112031530D01*
X162343586Y-112669793D01*
X162632451Y-113263101D01*
X162773744Y-113474560D01*
X163142715Y-113850214D01*
X165492929Y-111500000D01*
X163142715Y-109149786D01*
X162773744Y-109525440D01*
X162440910Y-110095246D01*
X162225636Y-110719037D01*
X162136193Y-111372840D01*
X125593210Y-111372840D01*
X125630000Y-111187888D01*
X125630000Y-110912112D01*
X125576199Y-110641635D01*
X125470664Y-110386851D01*
X125317451Y-110157552D01*
X125122448Y-109962549D01*
X124893149Y-109809336D01*
X124638365Y-109703801D01*
X124367888Y-109650000D01*
X124092112Y-109650000D01*
X123821635Y-109703801D01*
X123566851Y-109809336D01*
X123337552Y-109962549D01*
X123142549Y-110157552D01*
X122989336Y-110386851D01*
X122883801Y-110641635D01*
X122830000Y-110912112D01*
X110928258Y-110912112D01*
X110961571Y-110831689D01*
X111000000Y-110638491D01*
X111000000Y-110441509D01*
X110961571Y-110248311D01*
X110886189Y-110066322D01*
X110776751Y-109902537D01*
X110637463Y-109763249D01*
X110473678Y-109653811D01*
X110432453Y-109636735D01*
X113080000Y-109636735D01*
X113080000Y-109863265D01*
X113124194Y-110085443D01*
X113210884Y-110294729D01*
X113336737Y-110483082D01*
X113496918Y-110643263D01*
X113685271Y-110769116D01*
X113894557Y-110855806D01*
X114116735Y-110900000D01*
X114343265Y-110900000D01*
X114565443Y-110855806D01*
X114774729Y-110769116D01*
X114963082Y-110643263D01*
X115123263Y-110483082D01*
X115249116Y-110294729D01*
X115335806Y-110085443D01*
X115380000Y-109863265D01*
X115380000Y-109636735D01*
X115335806Y-109414557D01*
X115249116Y-109205271D01*
X115207318Y-109142715D01*
X163149786Y-109142715D01*
X165500000Y-111492929D01*
X167850214Y-109142715D01*
X167474560Y-108773744D01*
X166904754Y-108440910D01*
X166280963Y-108225636D01*
X165627160Y-108136193D01*
X164968470Y-108176020D01*
X164330207Y-108343586D01*
X163736899Y-108632451D01*
X163525440Y-108773744D01*
X163149786Y-109142715D01*
X115207318Y-109142715D01*
X115123263Y-109016918D01*
X114963082Y-108856737D01*
X114774729Y-108730884D01*
X114565443Y-108644194D01*
X114343265Y-108600000D01*
X114116735Y-108600000D01*
X113894557Y-108644194D01*
X113685271Y-108730884D01*
X113496918Y-108856737D01*
X113336737Y-109016918D01*
X113210884Y-109205271D01*
X113124194Y-109414557D01*
X113080000Y-109636735D01*
X110432453Y-109636735D01*
X110291689Y-109578429D01*
X110098491Y-109540000D01*
X109901509Y-109540000D01*
X109708311Y-109578429D01*
X109526322Y-109653811D01*
X109362537Y-109763249D01*
X109223249Y-109902537D01*
X109113811Y-110066322D01*
X109038429Y-110248311D01*
X109000000Y-110441509D01*
X78685635Y-110441509D01*
X78656414Y-110330207D01*
X78367549Y-109736899D01*
X78226256Y-109525440D01*
X77857285Y-109149786D01*
X75507071Y-111500000D01*
X75492929Y-111500000D01*
X73142715Y-109149786D01*
X73050000Y-109244180D01*
X73050000Y-109142715D01*
X73149786Y-109142715D01*
X75500000Y-111492929D01*
X77850214Y-109142715D01*
X77474560Y-108773744D01*
X76904754Y-108440910D01*
X76280963Y-108225636D01*
X75627160Y-108136193D01*
X74968470Y-108176020D01*
X74330207Y-108343586D01*
X73736899Y-108632451D01*
X73525440Y-108773744D01*
X73149786Y-109142715D01*
X73050000Y-109142715D01*
X73050000Y-107150000D01*
X108999275Y-107150000D01*
X108999275Y-108850000D01*
X109002171Y-108879405D01*
X109010748Y-108907680D01*
X109024677Y-108933738D01*
X109043421Y-108956579D01*
X109066262Y-108975323D01*
X109092320Y-108989252D01*
X109120595Y-108997829D01*
X109150000Y-109000725D01*
X110850000Y-109000725D01*
X110879405Y-108997829D01*
X110907680Y-108989252D01*
X110933738Y-108975323D01*
X110956579Y-108956579D01*
X110975323Y-108933738D01*
X110989252Y-108907680D01*
X110997829Y-108879405D01*
X111000725Y-108850000D01*
X111000725Y-107150000D01*
X110997829Y-107120595D01*
X110989252Y-107092320D01*
X110975323Y-107066262D01*
X110956579Y-107043421D01*
X110933738Y-107024677D01*
X110907680Y-107010748D01*
X110879405Y-107002171D01*
X110850000Y-106999275D01*
X109150000Y-106999275D01*
X109120595Y-107002171D01*
X109092320Y-107010748D01*
X109066262Y-107024677D01*
X109043421Y-107043421D01*
X109024677Y-107066262D01*
X109010748Y-107092320D01*
X109002171Y-107120595D01*
X108999275Y-107150000D01*
X73050000Y-107150000D01*
X73050000Y-106850000D01*
X73999274Y-106850000D01*
X74002170Y-106879405D01*
X74010747Y-106907680D01*
X74024676Y-106933739D01*
X74043421Y-106956579D01*
X74066261Y-106975324D01*
X74092320Y-106989253D01*
X74120595Y-106997830D01*
X74150000Y-107000726D01*
X74957500Y-107000000D01*
X74995000Y-106962500D01*
X74995000Y-106005000D01*
X75005000Y-106005000D01*
X75005000Y-106962500D01*
X75042500Y-107000000D01*
X75850000Y-107000726D01*
X75879405Y-106997830D01*
X75907680Y-106989253D01*
X75933739Y-106975324D01*
X75956579Y-106956579D01*
X75975324Y-106933739D01*
X75989253Y-106907680D01*
X75997830Y-106879405D01*
X76000726Y-106850000D01*
X76000000Y-106042500D01*
X75962500Y-106005000D01*
X75005000Y-106005000D01*
X74995000Y-106005000D01*
X74037500Y-106005000D01*
X74000000Y-106042500D01*
X73999274Y-106850000D01*
X73050000Y-106850000D01*
X73050000Y-105150000D01*
X73999274Y-105150000D01*
X74000000Y-105957500D01*
X74037500Y-105995000D01*
X74995000Y-105995000D01*
X74995000Y-105037500D01*
X75005000Y-105037500D01*
X75005000Y-105995000D01*
X75962500Y-105995000D01*
X76000000Y-105957500D01*
X76000063Y-105886735D01*
X113080000Y-105886735D01*
X113080000Y-106113265D01*
X113124194Y-106335443D01*
X113210884Y-106544729D01*
X113336737Y-106733082D01*
X113496918Y-106893263D01*
X113685271Y-107019116D01*
X113894557Y-107105806D01*
X114116735Y-107150000D01*
X114343265Y-107150000D01*
X114565443Y-107105806D01*
X114774729Y-107019116D01*
X114963082Y-106893263D01*
X115123263Y-106733082D01*
X115249116Y-106544729D01*
X115335806Y-106335443D01*
X115380000Y-106113265D01*
X115380000Y-105886735D01*
X115335806Y-105664557D01*
X115249116Y-105455271D01*
X115123263Y-105266918D01*
X114963082Y-105106737D01*
X114774729Y-104980884D01*
X114565443Y-104894194D01*
X114343265Y-104850000D01*
X114116735Y-104850000D01*
X113894557Y-104894194D01*
X113685271Y-104980884D01*
X113496918Y-105106737D01*
X113336737Y-105266918D01*
X113210884Y-105455271D01*
X113124194Y-105664557D01*
X113080000Y-105886735D01*
X76000063Y-105886735D01*
X76000726Y-105150000D01*
X75997830Y-105120595D01*
X75989253Y-105092320D01*
X75975324Y-105066261D01*
X75956579Y-105043421D01*
X75933739Y-105024676D01*
X75907680Y-105010747D01*
X75879405Y-105002170D01*
X75850000Y-104999274D01*
X75042500Y-105000000D01*
X75005000Y-105037500D01*
X74995000Y-105037500D01*
X74957500Y-105000000D01*
X74150000Y-104999274D01*
X74120595Y-105002170D01*
X74092320Y-105010747D01*
X74066261Y-105024676D01*
X74043421Y-105043421D01*
X74024676Y-105066261D01*
X74010747Y-105092320D01*
X74002170Y-105120595D01*
X73999274Y-105150000D01*
X73050000Y-105150000D01*
X73050000Y-103912112D01*
X103900000Y-103912112D01*
X103900000Y-104187888D01*
X103953801Y-104458365D01*
X104059336Y-104713149D01*
X104212549Y-104942448D01*
X104407552Y-105137451D01*
X104636851Y-105290664D01*
X104891635Y-105396199D01*
X105162112Y-105450000D01*
X105437888Y-105450000D01*
X105708365Y-105396199D01*
X105963149Y-105290664D01*
X106192448Y-105137451D01*
X106387451Y-104942448D01*
X106540664Y-104713149D01*
X106646199Y-104458365D01*
X106700000Y-104187888D01*
X106700000Y-103912112D01*
X106646199Y-103641635D01*
X106540664Y-103386851D01*
X106387451Y-103157552D01*
X106192448Y-102962549D01*
X105963149Y-102809336D01*
X105708365Y-102703801D01*
X105437888Y-102650000D01*
X105162112Y-102650000D01*
X104891635Y-102703801D01*
X104636851Y-102809336D01*
X104407552Y-102962549D01*
X104212549Y-103157552D01*
X104059336Y-103386851D01*
X103953801Y-103641635D01*
X103900000Y-103912112D01*
X73050000Y-103912112D01*
X73050000Y-103544118D01*
X94512953Y-103544118D01*
X94624828Y-103687801D01*
X94820758Y-103801501D01*
X95035104Y-103874792D01*
X95259630Y-103904858D01*
X95485707Y-103890543D01*
X95704648Y-103832399D01*
X95908038Y-103732658D01*
X95975172Y-103687801D01*
X96087047Y-103544118D01*
X95300000Y-102757071D01*
X94512953Y-103544118D01*
X73050000Y-103544118D01*
X73050000Y-103152508D01*
X73120868Y-103190997D01*
X73261278Y-103234614D01*
X73407500Y-103250000D01*
X73757500Y-103250000D01*
X73757500Y-102505000D01*
X73767500Y-102505000D01*
X73767500Y-103250000D01*
X74117500Y-103250000D01*
X74263722Y-103234614D01*
X74404132Y-103190997D01*
X74533335Y-103120825D01*
X74646366Y-103026795D01*
X74738881Y-102912521D01*
X74807324Y-102782394D01*
X74831313Y-102701371D01*
X91013107Y-102701371D01*
X91026474Y-102768580D01*
X91089774Y-102954113D01*
X91188053Y-103123732D01*
X91317535Y-103270919D01*
X91473244Y-103390017D01*
X91649196Y-103476449D01*
X91838629Y-103526894D01*
X91995000Y-103502488D01*
X91995000Y-102545000D01*
X92005000Y-102545000D01*
X92005000Y-103502488D01*
X92161371Y-103526894D01*
X92350804Y-103476449D01*
X92526756Y-103390017D01*
X92682465Y-103270919D01*
X92811947Y-103123732D01*
X92910226Y-102954113D01*
X92973526Y-102768580D01*
X92985250Y-102709630D01*
X94145142Y-102709630D01*
X94159457Y-102935707D01*
X94217601Y-103154648D01*
X94317342Y-103358038D01*
X94362199Y-103425172D01*
X94505882Y-103537047D01*
X95292929Y-102750000D01*
X95307071Y-102750000D01*
X96094118Y-103537047D01*
X96237801Y-103425172D01*
X96351501Y-103229242D01*
X96424792Y-103014896D01*
X96454858Y-102790370D01*
X96440543Y-102564293D01*
X96382399Y-102345352D01*
X96282658Y-102141962D01*
X96279166Y-102136735D01*
X113080000Y-102136735D01*
X113080000Y-102363265D01*
X113124194Y-102585443D01*
X113210884Y-102794729D01*
X113336737Y-102983082D01*
X113496918Y-103143263D01*
X113685271Y-103269116D01*
X113894557Y-103355806D01*
X114116735Y-103400000D01*
X114343265Y-103400000D01*
X114565443Y-103355806D01*
X114774729Y-103269116D01*
X114963082Y-103143263D01*
X115123263Y-102983082D01*
X115249116Y-102794729D01*
X115257889Y-102773549D01*
X132442491Y-102773549D01*
X132490461Y-102953498D01*
X132572615Y-103120630D01*
X132685797Y-103268524D01*
X132825657Y-103391495D01*
X132986820Y-103484818D01*
X133163092Y-103544906D01*
X133226451Y-103557509D01*
X133375000Y-103532486D01*
X133375000Y-102625000D01*
X133385000Y-102625000D01*
X133385000Y-103532486D01*
X133533549Y-103557509D01*
X133596908Y-103544906D01*
X133773180Y-103484818D01*
X133934343Y-103391495D01*
X134074203Y-103268524D01*
X134187385Y-103120630D01*
X134269539Y-102953498D01*
X134317509Y-102773549D01*
X134292487Y-102625000D01*
X133385000Y-102625000D01*
X133375000Y-102625000D01*
X132467513Y-102625000D01*
X132442491Y-102773549D01*
X115257889Y-102773549D01*
X115335806Y-102585443D01*
X115359475Y-102466451D01*
X132442491Y-102466451D01*
X132467513Y-102615000D01*
X133375000Y-102615000D01*
X133375000Y-101707514D01*
X133385000Y-101707514D01*
X133385000Y-102615000D01*
X134292487Y-102615000D01*
X134307405Y-102526433D01*
X134970000Y-102526433D01*
X134970000Y-102713567D01*
X135006508Y-102897105D01*
X135078121Y-103069994D01*
X135182087Y-103225590D01*
X135314410Y-103357913D01*
X135470006Y-103461879D01*
X135642895Y-103533492D01*
X135826433Y-103570000D01*
X136013567Y-103570000D01*
X136197105Y-103533492D01*
X136369994Y-103461879D01*
X136525590Y-103357913D01*
X136657913Y-103225590D01*
X136761879Y-103069994D01*
X136833492Y-102897105D01*
X136870000Y-102713567D01*
X136870000Y-102526433D01*
X137510000Y-102526433D01*
X137510000Y-102713567D01*
X137546508Y-102897105D01*
X137618121Y-103069994D01*
X137722087Y-103225590D01*
X137854410Y-103357913D01*
X138010006Y-103461879D01*
X138182895Y-103533492D01*
X138366433Y-103570000D01*
X138553567Y-103570000D01*
X138737105Y-103533492D01*
X138909994Y-103461879D01*
X139065590Y-103357913D01*
X139197913Y-103225590D01*
X139301879Y-103069994D01*
X139373492Y-102897105D01*
X139410000Y-102713567D01*
X139410000Y-102526433D01*
X140050000Y-102526433D01*
X140050000Y-102713567D01*
X140086508Y-102897105D01*
X140158121Y-103069994D01*
X140262087Y-103225590D01*
X140394410Y-103357913D01*
X140550006Y-103461879D01*
X140722895Y-103533492D01*
X140906433Y-103570000D01*
X141093567Y-103570000D01*
X141277105Y-103533492D01*
X141449994Y-103461879D01*
X141605590Y-103357913D01*
X141737913Y-103225590D01*
X141841879Y-103069994D01*
X141913492Y-102897105D01*
X141950000Y-102713567D01*
X141950000Y-102526433D01*
X141913492Y-102342895D01*
X141841879Y-102170006D01*
X141737913Y-102014410D01*
X141605590Y-101882087D01*
X141449994Y-101778121D01*
X141277105Y-101706508D01*
X141093567Y-101670000D01*
X140906433Y-101670000D01*
X140722895Y-101706508D01*
X140550006Y-101778121D01*
X140394410Y-101882087D01*
X140262087Y-102014410D01*
X140158121Y-102170006D01*
X140086508Y-102342895D01*
X140050000Y-102526433D01*
X139410000Y-102526433D01*
X139373492Y-102342895D01*
X139301879Y-102170006D01*
X139197913Y-102014410D01*
X139065590Y-101882087D01*
X138909994Y-101778121D01*
X138737105Y-101706508D01*
X138553567Y-101670000D01*
X138366433Y-101670000D01*
X138182895Y-101706508D01*
X138010006Y-101778121D01*
X137854410Y-101882087D01*
X137722087Y-102014410D01*
X137618121Y-102170006D01*
X137546508Y-102342895D01*
X137510000Y-102526433D01*
X136870000Y-102526433D01*
X136833492Y-102342895D01*
X136761879Y-102170006D01*
X136657913Y-102014410D01*
X136525590Y-101882087D01*
X136369994Y-101778121D01*
X136197105Y-101706508D01*
X136013567Y-101670000D01*
X135826433Y-101670000D01*
X135642895Y-101706508D01*
X135470006Y-101778121D01*
X135314410Y-101882087D01*
X135182087Y-102014410D01*
X135078121Y-102170006D01*
X135006508Y-102342895D01*
X134970000Y-102526433D01*
X134307405Y-102526433D01*
X134317509Y-102466451D01*
X134269539Y-102286502D01*
X134187385Y-102119370D01*
X134074203Y-101971476D01*
X133934343Y-101848505D01*
X133773180Y-101755182D01*
X133596908Y-101695094D01*
X133533549Y-101682491D01*
X133385000Y-101707514D01*
X133375000Y-101707514D01*
X133226451Y-101682491D01*
X133163092Y-101695094D01*
X132986820Y-101755182D01*
X132825657Y-101848505D01*
X132685797Y-101971476D01*
X132572615Y-102119370D01*
X132490461Y-102286502D01*
X132442491Y-102466451D01*
X115359475Y-102466451D01*
X115380000Y-102363265D01*
X115380000Y-102136735D01*
X115335806Y-101914557D01*
X115249116Y-101705271D01*
X115123263Y-101516918D01*
X114963082Y-101356737D01*
X114774729Y-101230884D01*
X114565443Y-101144194D01*
X114343265Y-101100000D01*
X114116735Y-101100000D01*
X113894557Y-101144194D01*
X113685271Y-101230884D01*
X113496918Y-101356737D01*
X113336737Y-101516918D01*
X113210884Y-101705271D01*
X113124194Y-101914557D01*
X113080000Y-102136735D01*
X96279166Y-102136735D01*
X96237801Y-102074828D01*
X96094118Y-101962953D01*
X95307071Y-102750000D01*
X95292929Y-102750000D01*
X94505882Y-101962953D01*
X94362199Y-102074828D01*
X94248499Y-102270758D01*
X94175208Y-102485104D01*
X94145142Y-102709630D01*
X92985250Y-102709630D01*
X92986893Y-102701371D01*
X92962487Y-102545000D01*
X92005000Y-102545000D01*
X91995000Y-102545000D01*
X91037513Y-102545000D01*
X91013107Y-102701371D01*
X74831313Y-102701371D01*
X74849065Y-102641414D01*
X74852467Y-102622262D01*
X74824982Y-102505000D01*
X73767500Y-102505000D01*
X73757500Y-102505000D01*
X73737500Y-102505000D01*
X73737500Y-102495000D01*
X73757500Y-102495000D01*
X73757500Y-101750000D01*
X73767500Y-101750000D01*
X73767500Y-102495000D01*
X74824982Y-102495000D01*
X74852467Y-102377738D01*
X74849065Y-102358586D01*
X74807324Y-102217606D01*
X74744794Y-102098721D01*
X75870850Y-102098721D01*
X75949753Y-102214243D01*
X76098947Y-102300551D01*
X76262112Y-102356094D01*
X76432978Y-102378738D01*
X76434663Y-102378629D01*
X91013107Y-102378629D01*
X91037513Y-102535000D01*
X91995000Y-102535000D01*
X91995000Y-101577512D01*
X92005000Y-101577512D01*
X92005000Y-102535000D01*
X92962487Y-102535000D01*
X92986893Y-102378629D01*
X92973526Y-102311420D01*
X92910226Y-102125887D01*
X92811947Y-101956268D01*
X92811608Y-101955882D01*
X94512953Y-101955882D01*
X95300000Y-102742929D01*
X96087047Y-101955882D01*
X95975172Y-101812199D01*
X95779242Y-101698499D01*
X95564896Y-101625208D01*
X95340370Y-101595142D01*
X95114293Y-101609457D01*
X94895352Y-101667601D01*
X94691962Y-101767342D01*
X94624828Y-101812199D01*
X94512953Y-101955882D01*
X92811608Y-101955882D01*
X92682465Y-101809081D01*
X92526756Y-101689983D01*
X92350804Y-101603551D01*
X92161371Y-101553106D01*
X92005000Y-101577512D01*
X91995000Y-101577512D01*
X91838629Y-101553106D01*
X91649196Y-101603551D01*
X91473244Y-101689983D01*
X91317535Y-101809081D01*
X91188053Y-101956268D01*
X91089774Y-102125887D01*
X91026474Y-102311420D01*
X91013107Y-102378629D01*
X76434663Y-102378629D01*
X76604978Y-102367613D01*
X76771503Y-102323146D01*
X76926153Y-102247046D01*
X76975247Y-102214243D01*
X77054150Y-102098721D01*
X76462500Y-101507071D01*
X75870850Y-102098721D01*
X74744794Y-102098721D01*
X74738881Y-102087479D01*
X74646366Y-101973205D01*
X74533335Y-101879175D01*
X74404132Y-101809003D01*
X74263722Y-101765386D01*
X74117500Y-101750000D01*
X73767500Y-101750000D01*
X73757500Y-101750000D01*
X73407500Y-101750000D01*
X73261278Y-101765386D01*
X73120868Y-101809003D01*
X73050000Y-101847492D01*
X73050000Y-101470478D01*
X75583762Y-101470478D01*
X75594887Y-101642478D01*
X75639354Y-101809003D01*
X75715454Y-101963653D01*
X75748257Y-102012747D01*
X75863779Y-102091650D01*
X76455429Y-101500000D01*
X76469571Y-101500000D01*
X77061221Y-102091650D01*
X77176743Y-102012747D01*
X77263051Y-101863553D01*
X77318594Y-101700388D01*
X77341238Y-101529522D01*
X77330113Y-101357522D01*
X77285646Y-101190997D01*
X77209546Y-101036347D01*
X77176743Y-100987253D01*
X77061221Y-100908350D01*
X76469571Y-101500000D01*
X76455429Y-101500000D01*
X75863779Y-100908350D01*
X75748257Y-100987253D01*
X75661949Y-101136447D01*
X75606406Y-101299612D01*
X75583762Y-101470478D01*
X73050000Y-101470478D01*
X73050000Y-100901279D01*
X75870850Y-100901279D01*
X76462500Y-101492929D01*
X77054150Y-100901279D01*
X76975247Y-100785757D01*
X76826053Y-100699449D01*
X76662888Y-100643906D01*
X76492022Y-100621262D01*
X76320022Y-100632387D01*
X76153497Y-100676854D01*
X75998847Y-100752954D01*
X75949753Y-100785757D01*
X75870850Y-100901279D01*
X73050000Y-100901279D01*
X73050000Y-99150000D01*
X90999275Y-99150000D01*
X90999275Y-100850000D01*
X91002171Y-100879405D01*
X91010748Y-100907680D01*
X91024677Y-100933738D01*
X91043421Y-100956579D01*
X91066262Y-100975323D01*
X91092320Y-100989252D01*
X91120595Y-100997829D01*
X91150000Y-101000725D01*
X92850000Y-101000725D01*
X92879405Y-100997829D01*
X92907680Y-100989252D01*
X92933738Y-100975323D01*
X92956579Y-100956579D01*
X92975323Y-100933738D01*
X92989252Y-100907680D01*
X92997829Y-100879405D01*
X93000725Y-100850000D01*
X93000725Y-100812112D01*
X122830000Y-100812112D01*
X122830000Y-101087888D01*
X122883801Y-101358365D01*
X122989336Y-101613149D01*
X123142549Y-101842448D01*
X123337552Y-102037451D01*
X123566851Y-102190664D01*
X123821635Y-102296199D01*
X124092112Y-102350000D01*
X124367888Y-102350000D01*
X124638365Y-102296199D01*
X124893149Y-102190664D01*
X125122448Y-102037451D01*
X125317451Y-101842448D01*
X125470664Y-101613149D01*
X125576199Y-101358365D01*
X125597754Y-101250000D01*
X162999274Y-101250000D01*
X163002170Y-101279405D01*
X163010747Y-101307680D01*
X163024676Y-101333739D01*
X163043421Y-101356579D01*
X163066261Y-101375324D01*
X163092320Y-101389253D01*
X163120595Y-101397830D01*
X163150000Y-101400726D01*
X163957500Y-101400000D01*
X163995000Y-101362500D01*
X163995000Y-100405000D01*
X164005000Y-100405000D01*
X164005000Y-101362500D01*
X164042500Y-101400000D01*
X164850000Y-101400726D01*
X164879405Y-101397830D01*
X164907680Y-101389253D01*
X164933739Y-101375324D01*
X164956579Y-101356579D01*
X164975324Y-101333739D01*
X164989253Y-101307680D01*
X164997830Y-101279405D01*
X165000726Y-101250000D01*
X165000000Y-100442500D01*
X164962500Y-100405000D01*
X164005000Y-100405000D01*
X163995000Y-100405000D01*
X163037500Y-100405000D01*
X163000000Y-100442500D01*
X162999274Y-101250000D01*
X125597754Y-101250000D01*
X125630000Y-101087888D01*
X125630000Y-100812112D01*
X125576199Y-100541635D01*
X125470664Y-100286851D01*
X125317451Y-100057552D01*
X125292965Y-100033066D01*
X149245000Y-100033066D01*
X149245000Y-100106934D01*
X149259411Y-100179383D01*
X149287680Y-100247629D01*
X149328719Y-100309048D01*
X149380952Y-100361281D01*
X149442371Y-100402320D01*
X149510617Y-100430589D01*
X149583066Y-100445000D01*
X149656934Y-100445000D01*
X149729383Y-100430589D01*
X149797629Y-100402320D01*
X149859048Y-100361281D01*
X149911281Y-100309048D01*
X149952320Y-100247629D01*
X149980589Y-100179383D01*
X149995000Y-100106934D01*
X149995000Y-100033066D01*
X149991022Y-100013066D01*
X153235000Y-100013066D01*
X153235000Y-100086934D01*
X153249411Y-100159383D01*
X153277680Y-100227629D01*
X153318719Y-100289048D01*
X153370952Y-100341281D01*
X153432371Y-100382320D01*
X153500617Y-100410589D01*
X153573066Y-100425000D01*
X153646934Y-100425000D01*
X153719383Y-100410589D01*
X153787629Y-100382320D01*
X153849048Y-100341281D01*
X153901281Y-100289048D01*
X153942320Y-100227629D01*
X153970589Y-100159383D01*
X153985000Y-100086934D01*
X153985000Y-100013066D01*
X153970589Y-99940617D01*
X153942320Y-99872371D01*
X153901281Y-99810952D01*
X153849048Y-99758719D01*
X153787629Y-99717680D01*
X153719383Y-99689411D01*
X153646934Y-99675000D01*
X153573066Y-99675000D01*
X153500617Y-99689411D01*
X153432371Y-99717680D01*
X153370952Y-99758719D01*
X153318719Y-99810952D01*
X153277680Y-99872371D01*
X153249411Y-99940617D01*
X153235000Y-100013066D01*
X149991022Y-100013066D01*
X149980589Y-99960617D01*
X149952320Y-99892371D01*
X149911281Y-99830952D01*
X149859048Y-99778719D01*
X149797629Y-99737680D01*
X149729383Y-99709411D01*
X149656934Y-99695000D01*
X149583066Y-99695000D01*
X149510617Y-99709411D01*
X149442371Y-99737680D01*
X149380952Y-99778719D01*
X149328719Y-99830952D01*
X149287680Y-99892371D01*
X149259411Y-99960617D01*
X149245000Y-100033066D01*
X125292965Y-100033066D01*
X125122448Y-99862549D01*
X124893149Y-99709336D01*
X124638365Y-99603801D01*
X124433576Y-99563066D01*
X151825000Y-99563066D01*
X151825000Y-99636934D01*
X151839411Y-99709383D01*
X151867680Y-99777629D01*
X151908719Y-99839048D01*
X151960952Y-99891281D01*
X152022371Y-99932320D01*
X152090617Y-99960589D01*
X152163066Y-99975000D01*
X152236934Y-99975000D01*
X152309383Y-99960589D01*
X152377629Y-99932320D01*
X152439048Y-99891281D01*
X152491281Y-99839048D01*
X152532320Y-99777629D01*
X152560589Y-99709383D01*
X152575000Y-99636934D01*
X152575000Y-99563066D01*
X152572402Y-99550000D01*
X162999274Y-99550000D01*
X163000000Y-100357500D01*
X163037500Y-100395000D01*
X163995000Y-100395000D01*
X163995000Y-99437500D01*
X164005000Y-99437500D01*
X164005000Y-100395000D01*
X164962500Y-100395000D01*
X165000000Y-100357500D01*
X165000726Y-99550000D01*
X164997830Y-99520595D01*
X164989253Y-99492320D01*
X164975324Y-99466261D01*
X164956579Y-99443421D01*
X164933739Y-99424676D01*
X164907680Y-99410747D01*
X164879405Y-99402170D01*
X164850000Y-99399274D01*
X164042500Y-99400000D01*
X164005000Y-99437500D01*
X163995000Y-99437500D01*
X163957500Y-99400000D01*
X163150000Y-99399274D01*
X163120595Y-99402170D01*
X163092320Y-99410747D01*
X163066261Y-99424676D01*
X163043421Y-99443421D01*
X163024676Y-99466261D01*
X163010747Y-99492320D01*
X163002170Y-99520595D01*
X162999274Y-99550000D01*
X152572402Y-99550000D01*
X152560589Y-99490617D01*
X152532320Y-99422371D01*
X152491281Y-99360952D01*
X152439048Y-99308719D01*
X152377629Y-99267680D01*
X152309383Y-99239411D01*
X152236934Y-99225000D01*
X152163066Y-99225000D01*
X152090617Y-99239411D01*
X152022371Y-99267680D01*
X151960952Y-99308719D01*
X151908719Y-99360952D01*
X151867680Y-99422371D01*
X151839411Y-99490617D01*
X151825000Y-99563066D01*
X124433576Y-99563066D01*
X124367888Y-99550000D01*
X124092112Y-99550000D01*
X123821635Y-99603801D01*
X123566851Y-99709336D01*
X123337552Y-99862549D01*
X123142549Y-100057552D01*
X122989336Y-100286851D01*
X122883801Y-100541635D01*
X122830000Y-100812112D01*
X93000725Y-100812112D01*
X93000725Y-99150000D01*
X92997829Y-99120595D01*
X92989252Y-99092320D01*
X92975323Y-99066262D01*
X92956579Y-99043421D01*
X92933738Y-99024677D01*
X92907680Y-99010748D01*
X92879405Y-99002171D01*
X92850000Y-98999275D01*
X91150000Y-98999275D01*
X91120595Y-99002171D01*
X91092320Y-99010748D01*
X91066262Y-99024677D01*
X91043421Y-99043421D01*
X91024677Y-99066262D01*
X91010748Y-99092320D01*
X91002171Y-99120595D01*
X90999275Y-99150000D01*
X73050000Y-99150000D01*
X73050000Y-98633066D01*
X88825000Y-98633066D01*
X88825000Y-98706934D01*
X88839411Y-98779383D01*
X88867680Y-98847629D01*
X88908719Y-98909048D01*
X88960952Y-98961281D01*
X89022371Y-99002320D01*
X89090617Y-99030589D01*
X89163066Y-99045000D01*
X89236934Y-99045000D01*
X89309383Y-99030589D01*
X89377629Y-99002320D01*
X89439048Y-98961281D01*
X89491281Y-98909048D01*
X89506190Y-98886735D01*
X94150000Y-98886735D01*
X94150000Y-99113265D01*
X94194194Y-99335443D01*
X94280884Y-99544729D01*
X94406737Y-99733082D01*
X94566918Y-99893263D01*
X94755271Y-100019116D01*
X94964557Y-100105806D01*
X95186735Y-100150000D01*
X95413265Y-100150000D01*
X95635443Y-100105806D01*
X95844729Y-100019116D01*
X96033082Y-99893263D01*
X96193263Y-99733082D01*
X96319116Y-99544729D01*
X96405806Y-99335443D01*
X96450000Y-99113265D01*
X96450000Y-98886735D01*
X96405806Y-98664557D01*
X96319116Y-98455271D01*
X96193263Y-98266918D01*
X96033082Y-98106737D01*
X95844729Y-97980884D01*
X95635443Y-97894194D01*
X95413265Y-97850000D01*
X95186735Y-97850000D01*
X94964557Y-97894194D01*
X94755271Y-97980884D01*
X94566918Y-98106737D01*
X94406737Y-98266918D01*
X94280884Y-98455271D01*
X94194194Y-98664557D01*
X94150000Y-98886735D01*
X89506190Y-98886735D01*
X89532320Y-98847629D01*
X89560589Y-98779383D01*
X89575000Y-98706934D01*
X89575000Y-98633066D01*
X89560589Y-98560617D01*
X89532320Y-98492371D01*
X89491281Y-98430952D01*
X89439048Y-98378719D01*
X89377629Y-98337680D01*
X89309383Y-98309411D01*
X89236934Y-98295000D01*
X89163066Y-98295000D01*
X89090617Y-98309411D01*
X89022371Y-98337680D01*
X88960952Y-98378719D01*
X88908719Y-98430952D01*
X88867680Y-98492371D01*
X88839411Y-98560617D01*
X88825000Y-98633066D01*
X73050000Y-98633066D01*
X73050000Y-97098721D01*
X75870850Y-97098721D01*
X75949753Y-97214243D01*
X76098947Y-97300551D01*
X76262112Y-97356094D01*
X76432978Y-97378738D01*
X76604978Y-97367613D01*
X76771503Y-97323146D01*
X76926153Y-97247046D01*
X76975247Y-97214243D01*
X77054150Y-97098721D01*
X76462500Y-96507071D01*
X75870850Y-97098721D01*
X73050000Y-97098721D01*
X73050000Y-96470478D01*
X75583762Y-96470478D01*
X75594887Y-96642478D01*
X75639354Y-96809003D01*
X75715454Y-96963653D01*
X75748257Y-97012747D01*
X75863779Y-97091650D01*
X76455429Y-96500000D01*
X76469571Y-96500000D01*
X77061221Y-97091650D01*
X77176743Y-97012747D01*
X77263051Y-96863553D01*
X77290449Y-96783066D01*
X88515000Y-96783066D01*
X88515000Y-96856934D01*
X88529411Y-96929383D01*
X88557680Y-96997629D01*
X88598719Y-97059048D01*
X88650952Y-97111281D01*
X88712371Y-97152320D01*
X88780617Y-97180589D01*
X88853066Y-97195000D01*
X88926934Y-97195000D01*
X88999383Y-97180589D01*
X89067629Y-97152320D01*
X89129048Y-97111281D01*
X89181281Y-97059048D01*
X89222320Y-96997629D01*
X89250589Y-96929383D01*
X89254024Y-96912112D01*
X122830000Y-96912112D01*
X122830000Y-97187888D01*
X122883801Y-97458365D01*
X122989336Y-97713149D01*
X123142549Y-97942448D01*
X123337552Y-98137451D01*
X123566851Y-98290664D01*
X123821635Y-98396199D01*
X124092112Y-98450000D01*
X124367888Y-98450000D01*
X124638365Y-98396199D01*
X124893149Y-98290664D01*
X125122448Y-98137451D01*
X125317451Y-97942448D01*
X125438350Y-97761509D01*
X163000000Y-97761509D01*
X163000000Y-97958491D01*
X163038429Y-98151689D01*
X163113811Y-98333678D01*
X163223249Y-98497463D01*
X163362537Y-98636751D01*
X163526322Y-98746189D01*
X163708311Y-98821571D01*
X163901509Y-98860000D01*
X164098491Y-98860000D01*
X164291689Y-98821571D01*
X164473678Y-98746189D01*
X164637463Y-98636751D01*
X164776751Y-98497463D01*
X164886189Y-98333678D01*
X164961571Y-98151689D01*
X165000000Y-97958491D01*
X165000000Y-97761509D01*
X164961571Y-97568311D01*
X164886189Y-97386322D01*
X164776751Y-97222537D01*
X164637463Y-97083249D01*
X164473678Y-96973811D01*
X164291689Y-96898429D01*
X164098491Y-96860000D01*
X163901509Y-96860000D01*
X163708311Y-96898429D01*
X163526322Y-96973811D01*
X163362537Y-97083249D01*
X163223249Y-97222537D01*
X163113811Y-97386322D01*
X163038429Y-97568311D01*
X163000000Y-97761509D01*
X125438350Y-97761509D01*
X125470664Y-97713149D01*
X125576199Y-97458365D01*
X125630000Y-97187888D01*
X125630000Y-96953066D01*
X149805000Y-96953066D01*
X149805000Y-97026934D01*
X149819411Y-97099383D01*
X149847680Y-97167629D01*
X149888719Y-97229048D01*
X149940952Y-97281281D01*
X150002371Y-97322320D01*
X150070617Y-97350589D01*
X150143066Y-97365000D01*
X150216934Y-97365000D01*
X150289383Y-97350589D01*
X150357629Y-97322320D01*
X150419048Y-97281281D01*
X150471281Y-97229048D01*
X150512320Y-97167629D01*
X150540589Y-97099383D01*
X150555000Y-97026934D01*
X150555000Y-97023066D01*
X152475000Y-97023066D01*
X152475000Y-97096934D01*
X152489411Y-97169383D01*
X152517680Y-97237629D01*
X152558719Y-97299048D01*
X152610952Y-97351281D01*
X152672371Y-97392320D01*
X152740617Y-97420589D01*
X152813066Y-97435000D01*
X152886934Y-97435000D01*
X152959383Y-97420589D01*
X153027629Y-97392320D01*
X153089048Y-97351281D01*
X153141281Y-97299048D01*
X153158352Y-97273500D01*
X153731116Y-97273500D01*
X153757680Y-97337629D01*
X153798719Y-97399048D01*
X153850952Y-97451281D01*
X153912371Y-97492320D01*
X153980617Y-97520589D01*
X154053066Y-97535000D01*
X154126934Y-97535000D01*
X154199383Y-97520589D01*
X154267629Y-97492320D01*
X154329048Y-97451281D01*
X154381281Y-97399048D01*
X154422320Y-97337629D01*
X154450589Y-97269383D01*
X154465000Y-97196934D01*
X154465000Y-97123066D01*
X154450589Y-97050617D01*
X154422320Y-96982371D01*
X154381281Y-96920952D01*
X154329048Y-96868719D01*
X154267629Y-96827680D01*
X154199383Y-96799411D01*
X154126934Y-96785000D01*
X154053066Y-96785000D01*
X153980617Y-96799411D01*
X153912371Y-96827680D01*
X153884205Y-96846500D01*
X153158352Y-96846500D01*
X153141281Y-96820952D01*
X153089048Y-96768719D01*
X153027629Y-96727680D01*
X152959383Y-96699411D01*
X152886934Y-96685000D01*
X152813066Y-96685000D01*
X152740617Y-96699411D01*
X152672371Y-96727680D01*
X152610952Y-96768719D01*
X152558719Y-96820952D01*
X152517680Y-96882371D01*
X152489411Y-96950617D01*
X152475000Y-97023066D01*
X150555000Y-97023066D01*
X150555000Y-96953066D01*
X150540589Y-96880617D01*
X150512320Y-96812371D01*
X150471281Y-96750952D01*
X150419048Y-96698719D01*
X150357629Y-96657680D01*
X150289383Y-96629411D01*
X150216934Y-96615000D01*
X150143066Y-96615000D01*
X150070617Y-96629411D01*
X150002371Y-96657680D01*
X149940952Y-96698719D01*
X149888719Y-96750952D01*
X149847680Y-96812371D01*
X149819411Y-96880617D01*
X149805000Y-96953066D01*
X125630000Y-96953066D01*
X125630000Y-96912112D01*
X125576199Y-96641635D01*
X125470664Y-96386851D01*
X125317451Y-96157552D01*
X125122448Y-95962549D01*
X124893149Y-95809336D01*
X124638365Y-95703801D01*
X124367888Y-95650000D01*
X124092112Y-95650000D01*
X123821635Y-95703801D01*
X123566851Y-95809336D01*
X123337552Y-95962549D01*
X123142549Y-96157552D01*
X122989336Y-96386851D01*
X122883801Y-96641635D01*
X122830000Y-96912112D01*
X89254024Y-96912112D01*
X89265000Y-96856934D01*
X89265000Y-96783066D01*
X89250589Y-96710617D01*
X89222320Y-96642371D01*
X89181281Y-96580952D01*
X89129048Y-96528719D01*
X89067629Y-96487680D01*
X88999383Y-96459411D01*
X88926934Y-96445000D01*
X88853066Y-96445000D01*
X88780617Y-96459411D01*
X88712371Y-96487680D01*
X88650952Y-96528719D01*
X88598719Y-96580952D01*
X88557680Y-96642371D01*
X88529411Y-96710617D01*
X88515000Y-96783066D01*
X77290449Y-96783066D01*
X77318594Y-96700388D01*
X77341238Y-96529522D01*
X77330113Y-96357522D01*
X77285646Y-96190997D01*
X77209546Y-96036347D01*
X77176743Y-95987253D01*
X77061221Y-95908350D01*
X76469571Y-96500000D01*
X76455429Y-96500000D01*
X75863779Y-95908350D01*
X75748257Y-95987253D01*
X75661949Y-96136447D01*
X75606406Y-96299612D01*
X75583762Y-96470478D01*
X73050000Y-96470478D01*
X73050000Y-96152508D01*
X73120868Y-96190997D01*
X73261278Y-96234614D01*
X73407500Y-96250000D01*
X73757500Y-96250000D01*
X73757500Y-95505000D01*
X73767500Y-95505000D01*
X73767500Y-96250000D01*
X74117500Y-96250000D01*
X74263722Y-96234614D01*
X74404132Y-96190997D01*
X74533335Y-96120825D01*
X74646366Y-96026795D01*
X74738881Y-95912521D01*
X74744793Y-95901279D01*
X75870850Y-95901279D01*
X76462500Y-96492929D01*
X77054150Y-95901279D01*
X76975247Y-95785757D01*
X76826053Y-95699449D01*
X76662888Y-95643906D01*
X76492022Y-95621262D01*
X76320022Y-95632387D01*
X76153497Y-95676854D01*
X75998847Y-95752954D01*
X75949753Y-95785757D01*
X75870850Y-95901279D01*
X74744793Y-95901279D01*
X74807324Y-95782394D01*
X74849065Y-95641414D01*
X74852467Y-95622262D01*
X74824982Y-95505000D01*
X73767500Y-95505000D01*
X73757500Y-95505000D01*
X73737500Y-95505000D01*
X73737500Y-95495000D01*
X73757500Y-95495000D01*
X73757500Y-94750000D01*
X73767500Y-94750000D01*
X73767500Y-95495000D01*
X74824982Y-95495000D01*
X74852467Y-95377738D01*
X74849065Y-95358586D01*
X74807324Y-95217606D01*
X74764789Y-95136735D01*
X94150000Y-95136735D01*
X94150000Y-95363265D01*
X94194194Y-95585443D01*
X94280884Y-95794729D01*
X94406737Y-95983082D01*
X94566918Y-96143263D01*
X94755271Y-96269116D01*
X94964557Y-96355806D01*
X95186735Y-96400000D01*
X95413265Y-96400000D01*
X95635443Y-96355806D01*
X95844729Y-96269116D01*
X96033082Y-96143263D01*
X96193263Y-95983082D01*
X96319116Y-95794729D01*
X96384559Y-95636735D01*
X113080000Y-95636735D01*
X113080000Y-95863265D01*
X113124194Y-96085443D01*
X113210884Y-96294729D01*
X113336737Y-96483082D01*
X113496918Y-96643263D01*
X113685271Y-96769116D01*
X113894557Y-96855806D01*
X114116735Y-96900000D01*
X114343265Y-96900000D01*
X114565443Y-96855806D01*
X114774729Y-96769116D01*
X114963082Y-96643263D01*
X115123263Y-96483082D01*
X115249116Y-96294729D01*
X115335806Y-96085443D01*
X115380000Y-95863265D01*
X115380000Y-95636735D01*
X115335806Y-95414557D01*
X115249116Y-95205271D01*
X115123263Y-95016918D01*
X115012778Y-94906433D01*
X132430000Y-94906433D01*
X132430000Y-95093567D01*
X132466508Y-95277105D01*
X132538121Y-95449994D01*
X132642087Y-95605590D01*
X132774410Y-95737913D01*
X132930006Y-95841879D01*
X133102895Y-95913492D01*
X133286433Y-95950000D01*
X133473567Y-95950000D01*
X133657105Y-95913492D01*
X133829994Y-95841879D01*
X133985590Y-95737913D01*
X134117913Y-95605590D01*
X134221879Y-95449994D01*
X134293492Y-95277105D01*
X134330000Y-95093567D01*
X134330000Y-94906433D01*
X134970000Y-94906433D01*
X134970000Y-95093567D01*
X135006508Y-95277105D01*
X135078121Y-95449994D01*
X135182087Y-95605590D01*
X135314410Y-95737913D01*
X135470006Y-95841879D01*
X135642895Y-95913492D01*
X135826433Y-95950000D01*
X136013567Y-95950000D01*
X136197105Y-95913492D01*
X136369994Y-95841879D01*
X136525590Y-95737913D01*
X136657913Y-95605590D01*
X136761879Y-95449994D01*
X136833492Y-95277105D01*
X136870000Y-95093567D01*
X136870000Y-94906433D01*
X137510000Y-94906433D01*
X137510000Y-95093567D01*
X137546508Y-95277105D01*
X137618121Y-95449994D01*
X137722087Y-95605590D01*
X137854410Y-95737913D01*
X138010006Y-95841879D01*
X138182895Y-95913492D01*
X138366433Y-95950000D01*
X138553567Y-95950000D01*
X138737105Y-95913492D01*
X138909994Y-95841879D01*
X139065590Y-95737913D01*
X139197913Y-95605590D01*
X139301879Y-95449994D01*
X139373492Y-95277105D01*
X139410000Y-95093567D01*
X139410000Y-94906433D01*
X139373492Y-94722895D01*
X139301879Y-94550006D01*
X139197913Y-94394410D01*
X139065590Y-94262087D01*
X138972671Y-94200000D01*
X140049275Y-94200000D01*
X140049275Y-95800000D01*
X140052171Y-95829405D01*
X140060748Y-95857680D01*
X140074677Y-95883738D01*
X140093421Y-95906579D01*
X140116262Y-95925323D01*
X140142320Y-95939252D01*
X140170595Y-95947829D01*
X140200000Y-95950725D01*
X141800000Y-95950725D01*
X141829405Y-95947829D01*
X141857680Y-95939252D01*
X141883738Y-95925323D01*
X141906579Y-95906579D01*
X141925323Y-95883738D01*
X141939252Y-95857680D01*
X141947829Y-95829405D01*
X141950725Y-95800000D01*
X141950725Y-94200000D01*
X141947829Y-94170595D01*
X141939252Y-94142320D01*
X141925323Y-94116262D01*
X141906579Y-94093421D01*
X141883738Y-94074677D01*
X141857680Y-94060748D01*
X141829405Y-94052171D01*
X141800000Y-94049275D01*
X140200000Y-94049275D01*
X140170595Y-94052171D01*
X140142320Y-94060748D01*
X140116262Y-94074677D01*
X140093421Y-94093421D01*
X140074677Y-94116262D01*
X140060748Y-94142320D01*
X140052171Y-94170595D01*
X140049275Y-94200000D01*
X138972671Y-94200000D01*
X138909994Y-94158121D01*
X138737105Y-94086508D01*
X138553567Y-94050000D01*
X138366433Y-94050000D01*
X138182895Y-94086508D01*
X138010006Y-94158121D01*
X137854410Y-94262087D01*
X137722087Y-94394410D01*
X137618121Y-94550006D01*
X137546508Y-94722895D01*
X137510000Y-94906433D01*
X136870000Y-94906433D01*
X136833492Y-94722895D01*
X136761879Y-94550006D01*
X136657913Y-94394410D01*
X136525590Y-94262087D01*
X136369994Y-94158121D01*
X136197105Y-94086508D01*
X136013567Y-94050000D01*
X135826433Y-94050000D01*
X135642895Y-94086508D01*
X135470006Y-94158121D01*
X135314410Y-94262087D01*
X135182087Y-94394410D01*
X135078121Y-94550006D01*
X135006508Y-94722895D01*
X134970000Y-94906433D01*
X134330000Y-94906433D01*
X134293492Y-94722895D01*
X134221879Y-94550006D01*
X134117913Y-94394410D01*
X133985590Y-94262087D01*
X133829994Y-94158121D01*
X133657105Y-94086508D01*
X133473567Y-94050000D01*
X133286433Y-94050000D01*
X133102895Y-94086508D01*
X132930006Y-94158121D01*
X132774410Y-94262087D01*
X132642087Y-94394410D01*
X132538121Y-94550006D01*
X132466508Y-94722895D01*
X132430000Y-94906433D01*
X115012778Y-94906433D01*
X114963082Y-94856737D01*
X114774729Y-94730884D01*
X114565443Y-94644194D01*
X114343265Y-94600000D01*
X114116735Y-94600000D01*
X113894557Y-94644194D01*
X113685271Y-94730884D01*
X113496918Y-94856737D01*
X113336737Y-95016918D01*
X113210884Y-95205271D01*
X113124194Y-95414557D01*
X113080000Y-95636735D01*
X96384559Y-95636735D01*
X96405806Y-95585443D01*
X96450000Y-95363265D01*
X96450000Y-95136735D01*
X96405806Y-94914557D01*
X96319116Y-94705271D01*
X96193263Y-94516918D01*
X96033082Y-94356737D01*
X95844729Y-94230884D01*
X95635443Y-94144194D01*
X95413265Y-94100000D01*
X95186735Y-94100000D01*
X94964557Y-94144194D01*
X94755271Y-94230884D01*
X94566918Y-94356737D01*
X94406737Y-94516918D01*
X94280884Y-94705271D01*
X94194194Y-94914557D01*
X94150000Y-95136735D01*
X74764789Y-95136735D01*
X74738881Y-95087479D01*
X74646366Y-94973205D01*
X74533335Y-94879175D01*
X74404132Y-94809003D01*
X74263722Y-94765386D01*
X74117500Y-94750000D01*
X73767500Y-94750000D01*
X73757500Y-94750000D01*
X73407500Y-94750000D01*
X73261278Y-94765386D01*
X73120868Y-94809003D01*
X73050000Y-94847492D01*
X73050000Y-93812112D01*
X103900000Y-93812112D01*
X103900000Y-94087888D01*
X103953801Y-94358365D01*
X104059336Y-94613149D01*
X104212549Y-94842448D01*
X104407552Y-95037451D01*
X104636851Y-95190664D01*
X104891635Y-95296199D01*
X105162112Y-95350000D01*
X105437888Y-95350000D01*
X105708365Y-95296199D01*
X105963149Y-95190664D01*
X106192448Y-95037451D01*
X106387451Y-94842448D01*
X106540664Y-94613149D01*
X106646199Y-94358365D01*
X106700000Y-94087888D01*
X106700000Y-93812112D01*
X106646199Y-93541635D01*
X106540664Y-93286851D01*
X106387451Y-93057552D01*
X106192448Y-92862549D01*
X105963149Y-92709336D01*
X105708365Y-92603801D01*
X105437888Y-92550000D01*
X105162112Y-92550000D01*
X104891635Y-92603801D01*
X104636851Y-92709336D01*
X104407552Y-92862549D01*
X104212549Y-93057552D01*
X104059336Y-93286851D01*
X103953801Y-93541635D01*
X103900000Y-93812112D01*
X73050000Y-93812112D01*
X73050000Y-91150000D01*
X73999275Y-91150000D01*
X73999275Y-92850000D01*
X74002171Y-92879405D01*
X74010748Y-92907680D01*
X74024677Y-92933738D01*
X74043421Y-92956579D01*
X74066262Y-92975323D01*
X74092320Y-92989252D01*
X74120595Y-92997829D01*
X74150000Y-93000725D01*
X75850000Y-93000725D01*
X75879405Y-92997829D01*
X75907680Y-92989252D01*
X75933738Y-92975323D01*
X75956579Y-92956579D01*
X75975323Y-92933738D01*
X75989252Y-92907680D01*
X75997829Y-92879405D01*
X76000725Y-92850000D01*
X76000725Y-91673066D01*
X88465000Y-91673066D01*
X88465000Y-91746934D01*
X88479411Y-91819383D01*
X88507680Y-91887629D01*
X88548719Y-91949048D01*
X88600952Y-92001281D01*
X88662371Y-92042320D01*
X88730617Y-92070589D01*
X88803066Y-92085000D01*
X88876934Y-92085000D01*
X88949383Y-92070589D01*
X89017629Y-92042320D01*
X89079048Y-92001281D01*
X89131281Y-91949048D01*
X89172320Y-91887629D01*
X89172690Y-91886735D01*
X113080000Y-91886735D01*
X113080000Y-92113265D01*
X113124194Y-92335443D01*
X113210884Y-92544729D01*
X113336737Y-92733082D01*
X113496918Y-92893263D01*
X113685271Y-93019116D01*
X113894557Y-93105806D01*
X114116735Y-93150000D01*
X114343265Y-93150000D01*
X114565443Y-93105806D01*
X114774729Y-93019116D01*
X114963082Y-92893263D01*
X115123263Y-92733082D01*
X115249116Y-92544729D01*
X115335806Y-92335443D01*
X115380000Y-92113265D01*
X115380000Y-91886735D01*
X115335806Y-91664557D01*
X115249116Y-91455271D01*
X115123263Y-91266918D01*
X114963082Y-91106737D01*
X114774729Y-90980884D01*
X114565443Y-90894194D01*
X114343265Y-90850000D01*
X114116735Y-90850000D01*
X113894557Y-90894194D01*
X113685271Y-90980884D01*
X113496918Y-91106737D01*
X113336737Y-91266918D01*
X113210884Y-91455271D01*
X113124194Y-91664557D01*
X113080000Y-91886735D01*
X89172690Y-91886735D01*
X89200589Y-91819383D01*
X89215000Y-91746934D01*
X89215000Y-91673066D01*
X89200589Y-91600617D01*
X89172320Y-91532371D01*
X89131281Y-91470952D01*
X89079048Y-91418719D01*
X89017629Y-91377680D01*
X88949383Y-91349411D01*
X88876934Y-91335000D01*
X88803066Y-91335000D01*
X88730617Y-91349411D01*
X88662371Y-91377680D01*
X88600952Y-91418719D01*
X88548719Y-91470952D01*
X88507680Y-91532371D01*
X88479411Y-91600617D01*
X88465000Y-91673066D01*
X76000725Y-91673066D01*
X76000725Y-91150000D01*
X75997829Y-91120595D01*
X75989252Y-91092320D01*
X75975323Y-91066262D01*
X75956579Y-91043421D01*
X75933738Y-91024677D01*
X75907680Y-91010748D01*
X75879405Y-91002171D01*
X75850000Y-90999275D01*
X74150000Y-90999275D01*
X74120595Y-91002171D01*
X74092320Y-91010748D01*
X74066262Y-91024677D01*
X74043421Y-91043421D01*
X74024677Y-91066262D01*
X74010748Y-91092320D01*
X74002171Y-91120595D01*
X73999275Y-91150000D01*
X73050000Y-91150000D01*
X73050000Y-88857285D01*
X73149786Y-88857285D01*
X73525440Y-89226256D01*
X74095246Y-89559090D01*
X74719037Y-89774364D01*
X75372840Y-89863807D01*
X76031530Y-89823980D01*
X76669793Y-89656414D01*
X77263101Y-89367549D01*
X77474560Y-89226256D01*
X77552197Y-89150000D01*
X108999275Y-89150000D01*
X108999275Y-90850000D01*
X109002171Y-90879405D01*
X109010748Y-90907680D01*
X109024677Y-90933738D01*
X109043421Y-90956579D01*
X109066262Y-90975323D01*
X109092320Y-90989252D01*
X109120595Y-90997829D01*
X109150000Y-91000725D01*
X110850000Y-91000725D01*
X110879405Y-90997829D01*
X110907680Y-90989252D01*
X110933738Y-90975323D01*
X110956579Y-90956579D01*
X110975323Y-90933738D01*
X110989252Y-90907680D01*
X110997829Y-90879405D01*
X111000725Y-90850000D01*
X111000725Y-89150000D01*
X110997829Y-89120595D01*
X110989252Y-89092320D01*
X110975323Y-89066262D01*
X110956579Y-89043421D01*
X110933738Y-89024677D01*
X110907680Y-89010748D01*
X110879405Y-89002171D01*
X110850000Y-88999275D01*
X109150000Y-88999275D01*
X109120595Y-89002171D01*
X109092320Y-89010748D01*
X109066262Y-89024677D01*
X109043421Y-89043421D01*
X109024677Y-89066262D01*
X109010748Y-89092320D01*
X109002171Y-89120595D01*
X108999275Y-89150000D01*
X77552197Y-89150000D01*
X77850214Y-88857285D01*
X75500000Y-86507071D01*
X73149786Y-88857285D01*
X73050000Y-88857285D01*
X73050000Y-88755820D01*
X73142715Y-88850214D01*
X75492929Y-86500000D01*
X75507071Y-86500000D01*
X77857285Y-88850214D01*
X78226256Y-88474560D01*
X78559090Y-87904754D01*
X78746567Y-87361509D01*
X109000000Y-87361509D01*
X109000000Y-87558491D01*
X109038429Y-87751689D01*
X109113811Y-87933678D01*
X109223249Y-88097463D01*
X109362537Y-88236751D01*
X109526322Y-88346189D01*
X109708311Y-88421571D01*
X109901509Y-88460000D01*
X110098491Y-88460000D01*
X110291689Y-88421571D01*
X110473678Y-88346189D01*
X110637463Y-88236751D01*
X110737479Y-88136735D01*
X113080000Y-88136735D01*
X113080000Y-88363265D01*
X113124194Y-88585443D01*
X113210884Y-88794729D01*
X113336737Y-88983082D01*
X113496918Y-89143263D01*
X113685271Y-89269116D01*
X113894557Y-89355806D01*
X114116735Y-89400000D01*
X114343265Y-89400000D01*
X114565443Y-89355806D01*
X114774729Y-89269116D01*
X114963082Y-89143263D01*
X115123263Y-88983082D01*
X115207317Y-88857285D01*
X163099786Y-88857285D01*
X163475440Y-89226256D01*
X164045246Y-89559090D01*
X164669037Y-89774364D01*
X165322840Y-89863807D01*
X165981530Y-89823980D01*
X166619793Y-89656414D01*
X167213101Y-89367549D01*
X167424560Y-89226256D01*
X167800214Y-88857285D01*
X165450000Y-86507071D01*
X163099786Y-88857285D01*
X115207317Y-88857285D01*
X115249116Y-88794729D01*
X115335806Y-88585443D01*
X115380000Y-88363265D01*
X115380000Y-88136735D01*
X115335806Y-87914557D01*
X115249116Y-87705271D01*
X115123263Y-87516918D01*
X114963082Y-87356737D01*
X114774729Y-87230884D01*
X114565443Y-87144194D01*
X114343265Y-87100000D01*
X114116735Y-87100000D01*
X113894557Y-87144194D01*
X113685271Y-87230884D01*
X113496918Y-87356737D01*
X113336737Y-87516918D01*
X113210884Y-87705271D01*
X113124194Y-87914557D01*
X113080000Y-88136735D01*
X110737479Y-88136735D01*
X110776751Y-88097463D01*
X110886189Y-87933678D01*
X110961571Y-87751689D01*
X111000000Y-87558491D01*
X111000000Y-87361509D01*
X110961571Y-87168311D01*
X110886189Y-86986322D01*
X110776751Y-86822537D01*
X110766326Y-86812112D01*
X122830000Y-86812112D01*
X122830000Y-87087888D01*
X122883801Y-87358365D01*
X122989336Y-87613149D01*
X123142549Y-87842448D01*
X123337552Y-88037451D01*
X123566851Y-88190664D01*
X123821635Y-88296199D01*
X124092112Y-88350000D01*
X124367888Y-88350000D01*
X124638365Y-88296199D01*
X124893149Y-88190664D01*
X125122448Y-88037451D01*
X125317451Y-87842448D01*
X125470664Y-87613149D01*
X125576199Y-87358365D01*
X125630000Y-87087888D01*
X125630000Y-86812112D01*
X125576199Y-86541635D01*
X125506282Y-86372840D01*
X162086193Y-86372840D01*
X162126020Y-87031530D01*
X162293586Y-87669793D01*
X162582451Y-88263101D01*
X162723744Y-88474560D01*
X163092715Y-88850214D01*
X165442929Y-86500000D01*
X163092715Y-84149786D01*
X162723744Y-84525440D01*
X162390910Y-85095246D01*
X162175636Y-85719037D01*
X162086193Y-86372840D01*
X125506282Y-86372840D01*
X125470664Y-86286851D01*
X125317451Y-86057552D01*
X125122448Y-85862549D01*
X124893149Y-85709336D01*
X124638365Y-85603801D01*
X124367888Y-85550000D01*
X124092112Y-85550000D01*
X123821635Y-85603801D01*
X123566851Y-85709336D01*
X123337552Y-85862549D01*
X123142549Y-86057552D01*
X122989336Y-86286851D01*
X122883801Y-86541635D01*
X122830000Y-86812112D01*
X110766326Y-86812112D01*
X110637463Y-86683249D01*
X110473678Y-86573811D01*
X110291689Y-86498429D01*
X110098491Y-86460000D01*
X109901509Y-86460000D01*
X109708311Y-86498429D01*
X109526322Y-86573811D01*
X109362537Y-86683249D01*
X109223249Y-86822537D01*
X109113811Y-86986322D01*
X109038429Y-87168311D01*
X109000000Y-87361509D01*
X78746567Y-87361509D01*
X78774364Y-87280963D01*
X78863807Y-86627160D01*
X78823980Y-85968470D01*
X78656414Y-85330207D01*
X78367549Y-84736899D01*
X78226256Y-84525440D01*
X77857285Y-84149786D01*
X75507071Y-86500000D01*
X75492929Y-86500000D01*
X73142715Y-84149786D01*
X73050000Y-84244180D01*
X73050000Y-84050000D01*
X73244180Y-84050000D01*
X73149786Y-84142715D01*
M02*
