G04 #@! TF.GenerationSoftware,KiCad,Pcbnew,(5.1.5-0-10_14)*
G04 #@! TF.CreationDate,2020-09-27T01:00:48-07:00*
G04 #@! TF.ProjectId,Bias_Tester,42696173-5f54-4657-9374-65722e6b6963,rev?*
G04 #@! TF.SameCoordinates,Original*
G04 #@! TF.FileFunction,Paste,Top*
G04 #@! TF.FilePolarity,Positive*
%FSLAX46Y46*%
G04 Gerber Fmt 4.6, Leading zero omitted, Abs format (unit mm)*
G04 Created by KiCad (PCBNEW (5.1.5-0-10_14)) date 2020-09-27 01:00:48*
%MOMM*%
%LPD*%
G04 APERTURE LIST*
%ADD10C,0.180000*%
%ADD11C,0.150000*%
%ADD12R,1.900000X1.500000*%
%ADD13R,1.350000X0.400000*%
%ADD14R,3.400000X1.800000*%
G04 APERTURE END LIST*
D10*
X86975000Y-99375000D03*
X86625000Y-99375000D03*
X86975000Y-99025000D03*
X86625000Y-99025000D03*
X86975000Y-97375000D03*
X86625000Y-97375000D03*
X86975000Y-97025000D03*
X86625000Y-97025000D03*
D11*
G36*
X78986958Y-97420710D02*
G01*
X79001276Y-97422834D01*
X79015317Y-97426351D01*
X79028946Y-97431228D01*
X79042031Y-97437417D01*
X79054447Y-97444858D01*
X79066073Y-97453481D01*
X79076798Y-97463202D01*
X79086519Y-97473927D01*
X79095142Y-97485553D01*
X79102583Y-97497969D01*
X79108772Y-97511054D01*
X79113649Y-97524683D01*
X79117166Y-97538724D01*
X79119290Y-97553042D01*
X79120000Y-97567500D01*
X79120000Y-97862500D01*
X79119290Y-97876958D01*
X79117166Y-97891276D01*
X79113649Y-97905317D01*
X79108772Y-97918946D01*
X79102583Y-97932031D01*
X79095142Y-97944447D01*
X79086519Y-97956073D01*
X79076798Y-97966798D01*
X79066073Y-97976519D01*
X79054447Y-97985142D01*
X79042031Y-97992583D01*
X79028946Y-97998772D01*
X79015317Y-98003649D01*
X79001276Y-98007166D01*
X78986958Y-98009290D01*
X78972500Y-98010000D01*
X78627500Y-98010000D01*
X78613042Y-98009290D01*
X78598724Y-98007166D01*
X78584683Y-98003649D01*
X78571054Y-97998772D01*
X78557969Y-97992583D01*
X78545553Y-97985142D01*
X78533927Y-97976519D01*
X78523202Y-97966798D01*
X78513481Y-97956073D01*
X78504858Y-97944447D01*
X78497417Y-97932031D01*
X78491228Y-97918946D01*
X78486351Y-97905317D01*
X78482834Y-97891276D01*
X78480710Y-97876958D01*
X78480000Y-97862500D01*
X78480000Y-97567500D01*
X78480710Y-97553042D01*
X78482834Y-97538724D01*
X78486351Y-97524683D01*
X78491228Y-97511054D01*
X78497417Y-97497969D01*
X78504858Y-97485553D01*
X78513481Y-97473927D01*
X78523202Y-97463202D01*
X78533927Y-97453481D01*
X78545553Y-97444858D01*
X78557969Y-97437417D01*
X78571054Y-97431228D01*
X78584683Y-97426351D01*
X78598724Y-97422834D01*
X78613042Y-97420710D01*
X78627500Y-97420000D01*
X78972500Y-97420000D01*
X78986958Y-97420710D01*
G37*
G36*
X78986958Y-98390710D02*
G01*
X79001276Y-98392834D01*
X79015317Y-98396351D01*
X79028946Y-98401228D01*
X79042031Y-98407417D01*
X79054447Y-98414858D01*
X79066073Y-98423481D01*
X79076798Y-98433202D01*
X79086519Y-98443927D01*
X79095142Y-98455553D01*
X79102583Y-98467969D01*
X79108772Y-98481054D01*
X79113649Y-98494683D01*
X79117166Y-98508724D01*
X79119290Y-98523042D01*
X79120000Y-98537500D01*
X79120000Y-98832500D01*
X79119290Y-98846958D01*
X79117166Y-98861276D01*
X79113649Y-98875317D01*
X79108772Y-98888946D01*
X79102583Y-98902031D01*
X79095142Y-98914447D01*
X79086519Y-98926073D01*
X79076798Y-98936798D01*
X79066073Y-98946519D01*
X79054447Y-98955142D01*
X79042031Y-98962583D01*
X79028946Y-98968772D01*
X79015317Y-98973649D01*
X79001276Y-98977166D01*
X78986958Y-98979290D01*
X78972500Y-98980000D01*
X78627500Y-98980000D01*
X78613042Y-98979290D01*
X78598724Y-98977166D01*
X78584683Y-98973649D01*
X78571054Y-98968772D01*
X78557969Y-98962583D01*
X78545553Y-98955142D01*
X78533927Y-98946519D01*
X78523202Y-98936798D01*
X78513481Y-98926073D01*
X78504858Y-98914447D01*
X78497417Y-98902031D01*
X78491228Y-98888946D01*
X78486351Y-98875317D01*
X78482834Y-98861276D01*
X78480710Y-98846958D01*
X78480000Y-98832500D01*
X78480000Y-98537500D01*
X78480710Y-98523042D01*
X78482834Y-98508724D01*
X78486351Y-98494683D01*
X78491228Y-98481054D01*
X78497417Y-98467969D01*
X78504858Y-98455553D01*
X78513481Y-98443927D01*
X78523202Y-98433202D01*
X78533927Y-98423481D01*
X78545553Y-98414858D01*
X78557969Y-98407417D01*
X78571054Y-98401228D01*
X78584683Y-98396351D01*
X78598724Y-98392834D01*
X78613042Y-98390710D01*
X78627500Y-98390000D01*
X78972500Y-98390000D01*
X78986958Y-98390710D01*
G37*
G36*
X81786958Y-98390710D02*
G01*
X81801276Y-98392834D01*
X81815317Y-98396351D01*
X81828946Y-98401228D01*
X81842031Y-98407417D01*
X81854447Y-98414858D01*
X81866073Y-98423481D01*
X81876798Y-98433202D01*
X81886519Y-98443927D01*
X81895142Y-98455553D01*
X81902583Y-98467969D01*
X81908772Y-98481054D01*
X81913649Y-98494683D01*
X81917166Y-98508724D01*
X81919290Y-98523042D01*
X81920000Y-98537500D01*
X81920000Y-98832500D01*
X81919290Y-98846958D01*
X81917166Y-98861276D01*
X81913649Y-98875317D01*
X81908772Y-98888946D01*
X81902583Y-98902031D01*
X81895142Y-98914447D01*
X81886519Y-98926073D01*
X81876798Y-98936798D01*
X81866073Y-98946519D01*
X81854447Y-98955142D01*
X81842031Y-98962583D01*
X81828946Y-98968772D01*
X81815317Y-98973649D01*
X81801276Y-98977166D01*
X81786958Y-98979290D01*
X81772500Y-98980000D01*
X81427500Y-98980000D01*
X81413042Y-98979290D01*
X81398724Y-98977166D01*
X81384683Y-98973649D01*
X81371054Y-98968772D01*
X81357969Y-98962583D01*
X81345553Y-98955142D01*
X81333927Y-98946519D01*
X81323202Y-98936798D01*
X81313481Y-98926073D01*
X81304858Y-98914447D01*
X81297417Y-98902031D01*
X81291228Y-98888946D01*
X81286351Y-98875317D01*
X81282834Y-98861276D01*
X81280710Y-98846958D01*
X81280000Y-98832500D01*
X81280000Y-98537500D01*
X81280710Y-98523042D01*
X81282834Y-98508724D01*
X81286351Y-98494683D01*
X81291228Y-98481054D01*
X81297417Y-98467969D01*
X81304858Y-98455553D01*
X81313481Y-98443927D01*
X81323202Y-98433202D01*
X81333927Y-98423481D01*
X81345553Y-98414858D01*
X81357969Y-98407417D01*
X81371054Y-98401228D01*
X81384683Y-98396351D01*
X81398724Y-98392834D01*
X81413042Y-98390710D01*
X81427500Y-98390000D01*
X81772500Y-98390000D01*
X81786958Y-98390710D01*
G37*
G36*
X81786958Y-97420710D02*
G01*
X81801276Y-97422834D01*
X81815317Y-97426351D01*
X81828946Y-97431228D01*
X81842031Y-97437417D01*
X81854447Y-97444858D01*
X81866073Y-97453481D01*
X81876798Y-97463202D01*
X81886519Y-97473927D01*
X81895142Y-97485553D01*
X81902583Y-97497969D01*
X81908772Y-97511054D01*
X81913649Y-97524683D01*
X81917166Y-97538724D01*
X81919290Y-97553042D01*
X81920000Y-97567500D01*
X81920000Y-97862500D01*
X81919290Y-97876958D01*
X81917166Y-97891276D01*
X81913649Y-97905317D01*
X81908772Y-97918946D01*
X81902583Y-97932031D01*
X81895142Y-97944447D01*
X81886519Y-97956073D01*
X81876798Y-97966798D01*
X81866073Y-97976519D01*
X81854447Y-97985142D01*
X81842031Y-97992583D01*
X81828946Y-97998772D01*
X81815317Y-98003649D01*
X81801276Y-98007166D01*
X81786958Y-98009290D01*
X81772500Y-98010000D01*
X81427500Y-98010000D01*
X81413042Y-98009290D01*
X81398724Y-98007166D01*
X81384683Y-98003649D01*
X81371054Y-97998772D01*
X81357969Y-97992583D01*
X81345553Y-97985142D01*
X81333927Y-97976519D01*
X81323202Y-97966798D01*
X81313481Y-97956073D01*
X81304858Y-97944447D01*
X81297417Y-97932031D01*
X81291228Y-97918946D01*
X81286351Y-97905317D01*
X81282834Y-97891276D01*
X81280710Y-97876958D01*
X81280000Y-97862500D01*
X81280000Y-97567500D01*
X81280710Y-97553042D01*
X81282834Y-97538724D01*
X81286351Y-97524683D01*
X81291228Y-97511054D01*
X81297417Y-97497969D01*
X81304858Y-97485553D01*
X81313481Y-97473927D01*
X81323202Y-97463202D01*
X81333927Y-97453481D01*
X81345553Y-97444858D01*
X81357969Y-97437417D01*
X81371054Y-97431228D01*
X81384683Y-97426351D01*
X81398724Y-97422834D01*
X81413042Y-97420710D01*
X81427500Y-97420000D01*
X81772500Y-97420000D01*
X81786958Y-97420710D01*
G37*
G36*
X82986958Y-97420710D02*
G01*
X83001276Y-97422834D01*
X83015317Y-97426351D01*
X83028946Y-97431228D01*
X83042031Y-97437417D01*
X83054447Y-97444858D01*
X83066073Y-97453481D01*
X83076798Y-97463202D01*
X83086519Y-97473927D01*
X83095142Y-97485553D01*
X83102583Y-97497969D01*
X83108772Y-97511054D01*
X83113649Y-97524683D01*
X83117166Y-97538724D01*
X83119290Y-97553042D01*
X83120000Y-97567500D01*
X83120000Y-97862500D01*
X83119290Y-97876958D01*
X83117166Y-97891276D01*
X83113649Y-97905317D01*
X83108772Y-97918946D01*
X83102583Y-97932031D01*
X83095142Y-97944447D01*
X83086519Y-97956073D01*
X83076798Y-97966798D01*
X83066073Y-97976519D01*
X83054447Y-97985142D01*
X83042031Y-97992583D01*
X83028946Y-97998772D01*
X83015317Y-98003649D01*
X83001276Y-98007166D01*
X82986958Y-98009290D01*
X82972500Y-98010000D01*
X82627500Y-98010000D01*
X82613042Y-98009290D01*
X82598724Y-98007166D01*
X82584683Y-98003649D01*
X82571054Y-97998772D01*
X82557969Y-97992583D01*
X82545553Y-97985142D01*
X82533927Y-97976519D01*
X82523202Y-97966798D01*
X82513481Y-97956073D01*
X82504858Y-97944447D01*
X82497417Y-97932031D01*
X82491228Y-97918946D01*
X82486351Y-97905317D01*
X82482834Y-97891276D01*
X82480710Y-97876958D01*
X82480000Y-97862500D01*
X82480000Y-97567500D01*
X82480710Y-97553042D01*
X82482834Y-97538724D01*
X82486351Y-97524683D01*
X82491228Y-97511054D01*
X82497417Y-97497969D01*
X82504858Y-97485553D01*
X82513481Y-97473927D01*
X82523202Y-97463202D01*
X82533927Y-97453481D01*
X82545553Y-97444858D01*
X82557969Y-97437417D01*
X82571054Y-97431228D01*
X82584683Y-97426351D01*
X82598724Y-97422834D01*
X82613042Y-97420710D01*
X82627500Y-97420000D01*
X82972500Y-97420000D01*
X82986958Y-97420710D01*
G37*
G36*
X82986958Y-98390710D02*
G01*
X83001276Y-98392834D01*
X83015317Y-98396351D01*
X83028946Y-98401228D01*
X83042031Y-98407417D01*
X83054447Y-98414858D01*
X83066073Y-98423481D01*
X83076798Y-98433202D01*
X83086519Y-98443927D01*
X83095142Y-98455553D01*
X83102583Y-98467969D01*
X83108772Y-98481054D01*
X83113649Y-98494683D01*
X83117166Y-98508724D01*
X83119290Y-98523042D01*
X83120000Y-98537500D01*
X83120000Y-98832500D01*
X83119290Y-98846958D01*
X83117166Y-98861276D01*
X83113649Y-98875317D01*
X83108772Y-98888946D01*
X83102583Y-98902031D01*
X83095142Y-98914447D01*
X83086519Y-98926073D01*
X83076798Y-98936798D01*
X83066073Y-98946519D01*
X83054447Y-98955142D01*
X83042031Y-98962583D01*
X83028946Y-98968772D01*
X83015317Y-98973649D01*
X83001276Y-98977166D01*
X82986958Y-98979290D01*
X82972500Y-98980000D01*
X82627500Y-98980000D01*
X82613042Y-98979290D01*
X82598724Y-98977166D01*
X82584683Y-98973649D01*
X82571054Y-98968772D01*
X82557969Y-98962583D01*
X82545553Y-98955142D01*
X82533927Y-98946519D01*
X82523202Y-98936798D01*
X82513481Y-98926073D01*
X82504858Y-98914447D01*
X82497417Y-98902031D01*
X82491228Y-98888946D01*
X82486351Y-98875317D01*
X82482834Y-98861276D01*
X82480710Y-98846958D01*
X82480000Y-98832500D01*
X82480000Y-98537500D01*
X82480710Y-98523042D01*
X82482834Y-98508724D01*
X82486351Y-98494683D01*
X82491228Y-98481054D01*
X82497417Y-98467969D01*
X82504858Y-98455553D01*
X82513481Y-98443927D01*
X82523202Y-98433202D01*
X82533927Y-98423481D01*
X82545553Y-98414858D01*
X82557969Y-98407417D01*
X82571054Y-98401228D01*
X82584683Y-98396351D01*
X82598724Y-98392834D01*
X82613042Y-98390710D01*
X82627500Y-98390000D01*
X82972500Y-98390000D01*
X82986958Y-98390710D01*
G37*
G36*
X87246958Y-94490710D02*
G01*
X87261276Y-94492834D01*
X87275317Y-94496351D01*
X87288946Y-94501228D01*
X87302031Y-94507417D01*
X87314447Y-94514858D01*
X87326073Y-94523481D01*
X87336798Y-94533202D01*
X87346519Y-94543927D01*
X87355142Y-94555553D01*
X87362583Y-94567969D01*
X87368772Y-94581054D01*
X87373649Y-94594683D01*
X87377166Y-94608724D01*
X87379290Y-94623042D01*
X87380000Y-94637500D01*
X87380000Y-94982500D01*
X87379290Y-94996958D01*
X87377166Y-95011276D01*
X87373649Y-95025317D01*
X87368772Y-95038946D01*
X87362583Y-95052031D01*
X87355142Y-95064447D01*
X87346519Y-95076073D01*
X87336798Y-95086798D01*
X87326073Y-95096519D01*
X87314447Y-95105142D01*
X87302031Y-95112583D01*
X87288946Y-95118772D01*
X87275317Y-95123649D01*
X87261276Y-95127166D01*
X87246958Y-95129290D01*
X87232500Y-95130000D01*
X86937500Y-95130000D01*
X86923042Y-95129290D01*
X86908724Y-95127166D01*
X86894683Y-95123649D01*
X86881054Y-95118772D01*
X86867969Y-95112583D01*
X86855553Y-95105142D01*
X86843927Y-95096519D01*
X86833202Y-95086798D01*
X86823481Y-95076073D01*
X86814858Y-95064447D01*
X86807417Y-95052031D01*
X86801228Y-95038946D01*
X86796351Y-95025317D01*
X86792834Y-95011276D01*
X86790710Y-94996958D01*
X86790000Y-94982500D01*
X86790000Y-94637500D01*
X86790710Y-94623042D01*
X86792834Y-94608724D01*
X86796351Y-94594683D01*
X86801228Y-94581054D01*
X86807417Y-94567969D01*
X86814858Y-94555553D01*
X86823481Y-94543927D01*
X86833202Y-94533202D01*
X86843927Y-94523481D01*
X86855553Y-94514858D01*
X86867969Y-94507417D01*
X86881054Y-94501228D01*
X86894683Y-94496351D01*
X86908724Y-94492834D01*
X86923042Y-94490710D01*
X86937500Y-94490000D01*
X87232500Y-94490000D01*
X87246958Y-94490710D01*
G37*
G36*
X88216958Y-94490710D02*
G01*
X88231276Y-94492834D01*
X88245317Y-94496351D01*
X88258946Y-94501228D01*
X88272031Y-94507417D01*
X88284447Y-94514858D01*
X88296073Y-94523481D01*
X88306798Y-94533202D01*
X88316519Y-94543927D01*
X88325142Y-94555553D01*
X88332583Y-94567969D01*
X88338772Y-94581054D01*
X88343649Y-94594683D01*
X88347166Y-94608724D01*
X88349290Y-94623042D01*
X88350000Y-94637500D01*
X88350000Y-94982500D01*
X88349290Y-94996958D01*
X88347166Y-95011276D01*
X88343649Y-95025317D01*
X88338772Y-95038946D01*
X88332583Y-95052031D01*
X88325142Y-95064447D01*
X88316519Y-95076073D01*
X88306798Y-95086798D01*
X88296073Y-95096519D01*
X88284447Y-95105142D01*
X88272031Y-95112583D01*
X88258946Y-95118772D01*
X88245317Y-95123649D01*
X88231276Y-95127166D01*
X88216958Y-95129290D01*
X88202500Y-95130000D01*
X87907500Y-95130000D01*
X87893042Y-95129290D01*
X87878724Y-95127166D01*
X87864683Y-95123649D01*
X87851054Y-95118772D01*
X87837969Y-95112583D01*
X87825553Y-95105142D01*
X87813927Y-95096519D01*
X87803202Y-95086798D01*
X87793481Y-95076073D01*
X87784858Y-95064447D01*
X87777417Y-95052031D01*
X87771228Y-95038946D01*
X87766351Y-95025317D01*
X87762834Y-95011276D01*
X87760710Y-94996958D01*
X87760000Y-94982500D01*
X87760000Y-94637500D01*
X87760710Y-94623042D01*
X87762834Y-94608724D01*
X87766351Y-94594683D01*
X87771228Y-94581054D01*
X87777417Y-94567969D01*
X87784858Y-94555553D01*
X87793481Y-94543927D01*
X87803202Y-94533202D01*
X87813927Y-94523481D01*
X87825553Y-94514858D01*
X87837969Y-94507417D01*
X87851054Y-94501228D01*
X87864683Y-94496351D01*
X87878724Y-94492834D01*
X87893042Y-94490710D01*
X87907500Y-94490000D01*
X88202500Y-94490000D01*
X88216958Y-94490710D01*
G37*
G36*
X88186958Y-97490710D02*
G01*
X88201276Y-97492834D01*
X88215317Y-97496351D01*
X88228946Y-97501228D01*
X88242031Y-97507417D01*
X88254447Y-97514858D01*
X88266073Y-97523481D01*
X88276798Y-97533202D01*
X88286519Y-97543927D01*
X88295142Y-97555553D01*
X88302583Y-97567969D01*
X88308772Y-97581054D01*
X88313649Y-97594683D01*
X88317166Y-97608724D01*
X88319290Y-97623042D01*
X88320000Y-97637500D01*
X88320000Y-97932500D01*
X88319290Y-97946958D01*
X88317166Y-97961276D01*
X88313649Y-97975317D01*
X88308772Y-97988946D01*
X88302583Y-98002031D01*
X88295142Y-98014447D01*
X88286519Y-98026073D01*
X88276798Y-98036798D01*
X88266073Y-98046519D01*
X88254447Y-98055142D01*
X88242031Y-98062583D01*
X88228946Y-98068772D01*
X88215317Y-98073649D01*
X88201276Y-98077166D01*
X88186958Y-98079290D01*
X88172500Y-98080000D01*
X87827500Y-98080000D01*
X87813042Y-98079290D01*
X87798724Y-98077166D01*
X87784683Y-98073649D01*
X87771054Y-98068772D01*
X87757969Y-98062583D01*
X87745553Y-98055142D01*
X87733927Y-98046519D01*
X87723202Y-98036798D01*
X87713481Y-98026073D01*
X87704858Y-98014447D01*
X87697417Y-98002031D01*
X87691228Y-97988946D01*
X87686351Y-97975317D01*
X87682834Y-97961276D01*
X87680710Y-97946958D01*
X87680000Y-97932500D01*
X87680000Y-97637500D01*
X87680710Y-97623042D01*
X87682834Y-97608724D01*
X87686351Y-97594683D01*
X87691228Y-97581054D01*
X87697417Y-97567969D01*
X87704858Y-97555553D01*
X87713481Y-97543927D01*
X87723202Y-97533202D01*
X87733927Y-97523481D01*
X87745553Y-97514858D01*
X87757969Y-97507417D01*
X87771054Y-97501228D01*
X87784683Y-97496351D01*
X87798724Y-97492834D01*
X87813042Y-97490710D01*
X87827500Y-97490000D01*
X88172500Y-97490000D01*
X88186958Y-97490710D01*
G37*
G36*
X88186958Y-96520710D02*
G01*
X88201276Y-96522834D01*
X88215317Y-96526351D01*
X88228946Y-96531228D01*
X88242031Y-96537417D01*
X88254447Y-96544858D01*
X88266073Y-96553481D01*
X88276798Y-96563202D01*
X88286519Y-96573927D01*
X88295142Y-96585553D01*
X88302583Y-96597969D01*
X88308772Y-96611054D01*
X88313649Y-96624683D01*
X88317166Y-96638724D01*
X88319290Y-96653042D01*
X88320000Y-96667500D01*
X88320000Y-96962500D01*
X88319290Y-96976958D01*
X88317166Y-96991276D01*
X88313649Y-97005317D01*
X88308772Y-97018946D01*
X88302583Y-97032031D01*
X88295142Y-97044447D01*
X88286519Y-97056073D01*
X88276798Y-97066798D01*
X88266073Y-97076519D01*
X88254447Y-97085142D01*
X88242031Y-97092583D01*
X88228946Y-97098772D01*
X88215317Y-97103649D01*
X88201276Y-97107166D01*
X88186958Y-97109290D01*
X88172500Y-97110000D01*
X87827500Y-97110000D01*
X87813042Y-97109290D01*
X87798724Y-97107166D01*
X87784683Y-97103649D01*
X87771054Y-97098772D01*
X87757969Y-97092583D01*
X87745553Y-97085142D01*
X87733927Y-97076519D01*
X87723202Y-97066798D01*
X87713481Y-97056073D01*
X87704858Y-97044447D01*
X87697417Y-97032031D01*
X87691228Y-97018946D01*
X87686351Y-97005317D01*
X87682834Y-96991276D01*
X87680710Y-96976958D01*
X87680000Y-96962500D01*
X87680000Y-96667500D01*
X87680710Y-96653042D01*
X87682834Y-96638724D01*
X87686351Y-96624683D01*
X87691228Y-96611054D01*
X87697417Y-96597969D01*
X87704858Y-96585553D01*
X87713481Y-96573927D01*
X87723202Y-96563202D01*
X87733927Y-96553481D01*
X87745553Y-96544858D01*
X87757969Y-96537417D01*
X87771054Y-96531228D01*
X87784683Y-96526351D01*
X87798724Y-96522834D01*
X87813042Y-96520710D01*
X87827500Y-96520000D01*
X88172500Y-96520000D01*
X88186958Y-96520710D01*
G37*
G36*
X152986958Y-99790710D02*
G01*
X153001276Y-99792834D01*
X153015317Y-99796351D01*
X153028946Y-99801228D01*
X153042031Y-99807417D01*
X153054447Y-99814858D01*
X153066073Y-99823481D01*
X153076798Y-99833202D01*
X153086519Y-99843927D01*
X153095142Y-99855553D01*
X153102583Y-99867969D01*
X153108772Y-99881054D01*
X153113649Y-99894683D01*
X153117166Y-99908724D01*
X153119290Y-99923042D01*
X153120000Y-99937500D01*
X153120000Y-100232500D01*
X153119290Y-100246958D01*
X153117166Y-100261276D01*
X153113649Y-100275317D01*
X153108772Y-100288946D01*
X153102583Y-100302031D01*
X153095142Y-100314447D01*
X153086519Y-100326073D01*
X153076798Y-100336798D01*
X153066073Y-100346519D01*
X153054447Y-100355142D01*
X153042031Y-100362583D01*
X153028946Y-100368772D01*
X153015317Y-100373649D01*
X153001276Y-100377166D01*
X152986958Y-100379290D01*
X152972500Y-100380000D01*
X152627500Y-100380000D01*
X152613042Y-100379290D01*
X152598724Y-100377166D01*
X152584683Y-100373649D01*
X152571054Y-100368772D01*
X152557969Y-100362583D01*
X152545553Y-100355142D01*
X152533927Y-100346519D01*
X152523202Y-100336798D01*
X152513481Y-100326073D01*
X152504858Y-100314447D01*
X152497417Y-100302031D01*
X152491228Y-100288946D01*
X152486351Y-100275317D01*
X152482834Y-100261276D01*
X152480710Y-100246958D01*
X152480000Y-100232500D01*
X152480000Y-99937500D01*
X152480710Y-99923042D01*
X152482834Y-99908724D01*
X152486351Y-99894683D01*
X152491228Y-99881054D01*
X152497417Y-99867969D01*
X152504858Y-99855553D01*
X152513481Y-99843927D01*
X152523202Y-99833202D01*
X152533927Y-99823481D01*
X152545553Y-99814858D01*
X152557969Y-99807417D01*
X152571054Y-99801228D01*
X152584683Y-99796351D01*
X152598724Y-99792834D01*
X152613042Y-99790710D01*
X152627500Y-99790000D01*
X152972500Y-99790000D01*
X152986958Y-99790710D01*
G37*
G36*
X152986958Y-98820710D02*
G01*
X153001276Y-98822834D01*
X153015317Y-98826351D01*
X153028946Y-98831228D01*
X153042031Y-98837417D01*
X153054447Y-98844858D01*
X153066073Y-98853481D01*
X153076798Y-98863202D01*
X153086519Y-98873927D01*
X153095142Y-98885553D01*
X153102583Y-98897969D01*
X153108772Y-98911054D01*
X153113649Y-98924683D01*
X153117166Y-98938724D01*
X153119290Y-98953042D01*
X153120000Y-98967500D01*
X153120000Y-99262500D01*
X153119290Y-99276958D01*
X153117166Y-99291276D01*
X153113649Y-99305317D01*
X153108772Y-99318946D01*
X153102583Y-99332031D01*
X153095142Y-99344447D01*
X153086519Y-99356073D01*
X153076798Y-99366798D01*
X153066073Y-99376519D01*
X153054447Y-99385142D01*
X153042031Y-99392583D01*
X153028946Y-99398772D01*
X153015317Y-99403649D01*
X153001276Y-99407166D01*
X152986958Y-99409290D01*
X152972500Y-99410000D01*
X152627500Y-99410000D01*
X152613042Y-99409290D01*
X152598724Y-99407166D01*
X152584683Y-99403649D01*
X152571054Y-99398772D01*
X152557969Y-99392583D01*
X152545553Y-99385142D01*
X152533927Y-99376519D01*
X152523202Y-99366798D01*
X152513481Y-99356073D01*
X152504858Y-99344447D01*
X152497417Y-99332031D01*
X152491228Y-99318946D01*
X152486351Y-99305317D01*
X152482834Y-99291276D01*
X152480710Y-99276958D01*
X152480000Y-99262500D01*
X152480000Y-98967500D01*
X152480710Y-98953042D01*
X152482834Y-98938724D01*
X152486351Y-98924683D01*
X152491228Y-98911054D01*
X152497417Y-98897969D01*
X152504858Y-98885553D01*
X152513481Y-98873927D01*
X152523202Y-98863202D01*
X152533927Y-98853481D01*
X152545553Y-98844858D01*
X152557969Y-98837417D01*
X152571054Y-98831228D01*
X152584683Y-98826351D01*
X152598724Y-98822834D01*
X152613042Y-98820710D01*
X152627500Y-98820000D01*
X152972500Y-98820000D01*
X152986958Y-98820710D01*
G37*
G36*
X88186958Y-98420710D02*
G01*
X88201276Y-98422834D01*
X88215317Y-98426351D01*
X88228946Y-98431228D01*
X88242031Y-98437417D01*
X88254447Y-98444858D01*
X88266073Y-98453481D01*
X88276798Y-98463202D01*
X88286519Y-98473927D01*
X88295142Y-98485553D01*
X88302583Y-98497969D01*
X88308772Y-98511054D01*
X88313649Y-98524683D01*
X88317166Y-98538724D01*
X88319290Y-98553042D01*
X88320000Y-98567500D01*
X88320000Y-98862500D01*
X88319290Y-98876958D01*
X88317166Y-98891276D01*
X88313649Y-98905317D01*
X88308772Y-98918946D01*
X88302583Y-98932031D01*
X88295142Y-98944447D01*
X88286519Y-98956073D01*
X88276798Y-98966798D01*
X88266073Y-98976519D01*
X88254447Y-98985142D01*
X88242031Y-98992583D01*
X88228946Y-98998772D01*
X88215317Y-99003649D01*
X88201276Y-99007166D01*
X88186958Y-99009290D01*
X88172500Y-99010000D01*
X87827500Y-99010000D01*
X87813042Y-99009290D01*
X87798724Y-99007166D01*
X87784683Y-99003649D01*
X87771054Y-98998772D01*
X87757969Y-98992583D01*
X87745553Y-98985142D01*
X87733927Y-98976519D01*
X87723202Y-98966798D01*
X87713481Y-98956073D01*
X87704858Y-98944447D01*
X87697417Y-98932031D01*
X87691228Y-98918946D01*
X87686351Y-98905317D01*
X87682834Y-98891276D01*
X87680710Y-98876958D01*
X87680000Y-98862500D01*
X87680000Y-98567500D01*
X87680710Y-98553042D01*
X87682834Y-98538724D01*
X87686351Y-98524683D01*
X87691228Y-98511054D01*
X87697417Y-98497969D01*
X87704858Y-98485553D01*
X87713481Y-98473927D01*
X87723202Y-98463202D01*
X87733927Y-98453481D01*
X87745553Y-98444858D01*
X87757969Y-98437417D01*
X87771054Y-98431228D01*
X87784683Y-98426351D01*
X87798724Y-98422834D01*
X87813042Y-98420710D01*
X87827500Y-98420000D01*
X88172500Y-98420000D01*
X88186958Y-98420710D01*
G37*
G36*
X88186958Y-99390710D02*
G01*
X88201276Y-99392834D01*
X88215317Y-99396351D01*
X88228946Y-99401228D01*
X88242031Y-99407417D01*
X88254447Y-99414858D01*
X88266073Y-99423481D01*
X88276798Y-99433202D01*
X88286519Y-99443927D01*
X88295142Y-99455553D01*
X88302583Y-99467969D01*
X88308772Y-99481054D01*
X88313649Y-99494683D01*
X88317166Y-99508724D01*
X88319290Y-99523042D01*
X88320000Y-99537500D01*
X88320000Y-99832500D01*
X88319290Y-99846958D01*
X88317166Y-99861276D01*
X88313649Y-99875317D01*
X88308772Y-99888946D01*
X88302583Y-99902031D01*
X88295142Y-99914447D01*
X88286519Y-99926073D01*
X88276798Y-99936798D01*
X88266073Y-99946519D01*
X88254447Y-99955142D01*
X88242031Y-99962583D01*
X88228946Y-99968772D01*
X88215317Y-99973649D01*
X88201276Y-99977166D01*
X88186958Y-99979290D01*
X88172500Y-99980000D01*
X87827500Y-99980000D01*
X87813042Y-99979290D01*
X87798724Y-99977166D01*
X87784683Y-99973649D01*
X87771054Y-99968772D01*
X87757969Y-99962583D01*
X87745553Y-99955142D01*
X87733927Y-99946519D01*
X87723202Y-99936798D01*
X87713481Y-99926073D01*
X87704858Y-99914447D01*
X87697417Y-99902031D01*
X87691228Y-99888946D01*
X87686351Y-99875317D01*
X87682834Y-99861276D01*
X87680710Y-99846958D01*
X87680000Y-99832500D01*
X87680000Y-99537500D01*
X87680710Y-99523042D01*
X87682834Y-99508724D01*
X87686351Y-99494683D01*
X87691228Y-99481054D01*
X87697417Y-99467969D01*
X87704858Y-99455553D01*
X87713481Y-99443927D01*
X87723202Y-99433202D01*
X87733927Y-99423481D01*
X87745553Y-99414858D01*
X87757969Y-99407417D01*
X87771054Y-99401228D01*
X87784683Y-99396351D01*
X87798724Y-99392834D01*
X87813042Y-99390710D01*
X87827500Y-99390000D01*
X88172500Y-99390000D01*
X88186958Y-99390710D01*
G37*
D12*
X73762500Y-100000000D03*
D13*
X76462500Y-98350000D03*
X76462500Y-97700000D03*
X76462500Y-100300000D03*
X76462500Y-99650000D03*
X76462500Y-99000000D03*
D12*
X73762500Y-98000000D03*
D11*
G36*
X79942292Y-97420383D02*
G01*
X79950010Y-97421528D01*
X79957578Y-97423423D01*
X79964923Y-97426052D01*
X79971976Y-97429387D01*
X79978668Y-97433398D01*
X79984934Y-97438046D01*
X79990715Y-97443285D01*
X79995954Y-97449066D01*
X80000602Y-97455332D01*
X80004613Y-97462024D01*
X80007948Y-97469077D01*
X80010577Y-97476422D01*
X80012472Y-97483990D01*
X80013617Y-97491708D01*
X80014000Y-97499500D01*
X80014000Y-97700500D01*
X80013617Y-97708292D01*
X80012472Y-97716010D01*
X80010577Y-97723578D01*
X80007948Y-97730923D01*
X80004613Y-97737976D01*
X80000602Y-97744668D01*
X79995954Y-97750934D01*
X79990715Y-97756715D01*
X79984934Y-97761954D01*
X79978668Y-97766602D01*
X79971976Y-97770613D01*
X79964923Y-97773948D01*
X79957578Y-97776577D01*
X79950010Y-97778472D01*
X79942292Y-97779617D01*
X79934500Y-97780000D01*
X79775500Y-97780000D01*
X79767708Y-97779617D01*
X79759990Y-97778472D01*
X79752422Y-97776577D01*
X79745077Y-97773948D01*
X79738024Y-97770613D01*
X79731332Y-97766602D01*
X79725066Y-97761954D01*
X79719285Y-97756715D01*
X79714046Y-97750934D01*
X79709398Y-97744668D01*
X79705387Y-97737976D01*
X79702052Y-97730923D01*
X79699423Y-97723578D01*
X79697528Y-97716010D01*
X79696383Y-97708292D01*
X79696000Y-97700500D01*
X79696000Y-97499500D01*
X79696383Y-97491708D01*
X79697528Y-97483990D01*
X79699423Y-97476422D01*
X79702052Y-97469077D01*
X79705387Y-97462024D01*
X79709398Y-97455332D01*
X79714046Y-97449066D01*
X79719285Y-97443285D01*
X79725066Y-97438046D01*
X79731332Y-97433398D01*
X79738024Y-97429387D01*
X79745077Y-97426052D01*
X79752422Y-97423423D01*
X79759990Y-97421528D01*
X79767708Y-97420383D01*
X79775500Y-97420000D01*
X79934500Y-97420000D01*
X79942292Y-97420383D01*
G37*
G36*
X80632292Y-97420383D02*
G01*
X80640010Y-97421528D01*
X80647578Y-97423423D01*
X80654923Y-97426052D01*
X80661976Y-97429387D01*
X80668668Y-97433398D01*
X80674934Y-97438046D01*
X80680715Y-97443285D01*
X80685954Y-97449066D01*
X80690602Y-97455332D01*
X80694613Y-97462024D01*
X80697948Y-97469077D01*
X80700577Y-97476422D01*
X80702472Y-97483990D01*
X80703617Y-97491708D01*
X80704000Y-97499500D01*
X80704000Y-97700500D01*
X80703617Y-97708292D01*
X80702472Y-97716010D01*
X80700577Y-97723578D01*
X80697948Y-97730923D01*
X80694613Y-97737976D01*
X80690602Y-97744668D01*
X80685954Y-97750934D01*
X80680715Y-97756715D01*
X80674934Y-97761954D01*
X80668668Y-97766602D01*
X80661976Y-97770613D01*
X80654923Y-97773948D01*
X80647578Y-97776577D01*
X80640010Y-97778472D01*
X80632292Y-97779617D01*
X80624500Y-97780000D01*
X80465500Y-97780000D01*
X80457708Y-97779617D01*
X80449990Y-97778472D01*
X80442422Y-97776577D01*
X80435077Y-97773948D01*
X80428024Y-97770613D01*
X80421332Y-97766602D01*
X80415066Y-97761954D01*
X80409285Y-97756715D01*
X80404046Y-97750934D01*
X80399398Y-97744668D01*
X80395387Y-97737976D01*
X80392052Y-97730923D01*
X80389423Y-97723578D01*
X80387528Y-97716010D01*
X80386383Y-97708292D01*
X80386000Y-97700500D01*
X80386000Y-97499500D01*
X80386383Y-97491708D01*
X80387528Y-97483990D01*
X80389423Y-97476422D01*
X80392052Y-97469077D01*
X80395387Y-97462024D01*
X80399398Y-97455332D01*
X80404046Y-97449066D01*
X80409285Y-97443285D01*
X80415066Y-97438046D01*
X80421332Y-97433398D01*
X80428024Y-97429387D01*
X80435077Y-97426052D01*
X80442422Y-97423423D01*
X80449990Y-97421528D01*
X80457708Y-97420383D01*
X80465500Y-97420000D01*
X80624500Y-97420000D01*
X80632292Y-97420383D01*
G37*
G36*
X146346958Y-98680710D02*
G01*
X146361276Y-98682834D01*
X146375317Y-98686351D01*
X146388946Y-98691228D01*
X146402031Y-98697417D01*
X146414447Y-98704858D01*
X146426073Y-98713481D01*
X146436798Y-98723202D01*
X146446519Y-98733927D01*
X146455142Y-98745553D01*
X146462583Y-98757969D01*
X146468772Y-98771054D01*
X146473649Y-98784683D01*
X146477166Y-98798724D01*
X146479290Y-98813042D01*
X146480000Y-98827500D01*
X146480000Y-99172500D01*
X146479290Y-99186958D01*
X146477166Y-99201276D01*
X146473649Y-99215317D01*
X146468772Y-99228946D01*
X146462583Y-99242031D01*
X146455142Y-99254447D01*
X146446519Y-99266073D01*
X146436798Y-99276798D01*
X146426073Y-99286519D01*
X146414447Y-99295142D01*
X146402031Y-99302583D01*
X146388946Y-99308772D01*
X146375317Y-99313649D01*
X146361276Y-99317166D01*
X146346958Y-99319290D01*
X146332500Y-99320000D01*
X146037500Y-99320000D01*
X146023042Y-99319290D01*
X146008724Y-99317166D01*
X145994683Y-99313649D01*
X145981054Y-99308772D01*
X145967969Y-99302583D01*
X145955553Y-99295142D01*
X145943927Y-99286519D01*
X145933202Y-99276798D01*
X145923481Y-99266073D01*
X145914858Y-99254447D01*
X145907417Y-99242031D01*
X145901228Y-99228946D01*
X145896351Y-99215317D01*
X145892834Y-99201276D01*
X145890710Y-99186958D01*
X145890000Y-99172500D01*
X145890000Y-98827500D01*
X145890710Y-98813042D01*
X145892834Y-98798724D01*
X145896351Y-98784683D01*
X145901228Y-98771054D01*
X145907417Y-98757969D01*
X145914858Y-98745553D01*
X145923481Y-98733927D01*
X145933202Y-98723202D01*
X145943927Y-98713481D01*
X145955553Y-98704858D01*
X145967969Y-98697417D01*
X145981054Y-98691228D01*
X145994683Y-98686351D01*
X146008724Y-98682834D01*
X146023042Y-98680710D01*
X146037500Y-98680000D01*
X146332500Y-98680000D01*
X146346958Y-98680710D01*
G37*
G36*
X145376958Y-98680710D02*
G01*
X145391276Y-98682834D01*
X145405317Y-98686351D01*
X145418946Y-98691228D01*
X145432031Y-98697417D01*
X145444447Y-98704858D01*
X145456073Y-98713481D01*
X145466798Y-98723202D01*
X145476519Y-98733927D01*
X145485142Y-98745553D01*
X145492583Y-98757969D01*
X145498772Y-98771054D01*
X145503649Y-98784683D01*
X145507166Y-98798724D01*
X145509290Y-98813042D01*
X145510000Y-98827500D01*
X145510000Y-99172500D01*
X145509290Y-99186958D01*
X145507166Y-99201276D01*
X145503649Y-99215317D01*
X145498772Y-99228946D01*
X145492583Y-99242031D01*
X145485142Y-99254447D01*
X145476519Y-99266073D01*
X145466798Y-99276798D01*
X145456073Y-99286519D01*
X145444447Y-99295142D01*
X145432031Y-99302583D01*
X145418946Y-99308772D01*
X145405317Y-99313649D01*
X145391276Y-99317166D01*
X145376958Y-99319290D01*
X145362500Y-99320000D01*
X145067500Y-99320000D01*
X145053042Y-99319290D01*
X145038724Y-99317166D01*
X145024683Y-99313649D01*
X145011054Y-99308772D01*
X144997969Y-99302583D01*
X144985553Y-99295142D01*
X144973927Y-99286519D01*
X144963202Y-99276798D01*
X144953481Y-99266073D01*
X144944858Y-99254447D01*
X144937417Y-99242031D01*
X144931228Y-99228946D01*
X144926351Y-99215317D01*
X144922834Y-99201276D01*
X144920710Y-99186958D01*
X144920000Y-99172500D01*
X144920000Y-98827500D01*
X144920710Y-98813042D01*
X144922834Y-98798724D01*
X144926351Y-98784683D01*
X144931228Y-98771054D01*
X144937417Y-98757969D01*
X144944858Y-98745553D01*
X144953481Y-98733927D01*
X144963202Y-98723202D01*
X144973927Y-98713481D01*
X144985553Y-98704858D01*
X144997969Y-98697417D01*
X145011054Y-98691228D01*
X145024683Y-98686351D01*
X145038724Y-98682834D01*
X145053042Y-98680710D01*
X145067500Y-98680000D01*
X145362500Y-98680000D01*
X145376958Y-98680710D01*
G37*
G36*
X85596958Y-90820710D02*
G01*
X85611276Y-90822834D01*
X85625317Y-90826351D01*
X85638946Y-90831228D01*
X85652031Y-90837417D01*
X85664447Y-90844858D01*
X85676073Y-90853481D01*
X85686798Y-90863202D01*
X85696519Y-90873927D01*
X85705142Y-90885553D01*
X85712583Y-90897969D01*
X85718772Y-90911054D01*
X85723649Y-90924683D01*
X85727166Y-90938724D01*
X85729290Y-90953042D01*
X85730000Y-90967500D01*
X85730000Y-91262500D01*
X85729290Y-91276958D01*
X85727166Y-91291276D01*
X85723649Y-91305317D01*
X85718772Y-91318946D01*
X85712583Y-91332031D01*
X85705142Y-91344447D01*
X85696519Y-91356073D01*
X85686798Y-91366798D01*
X85676073Y-91376519D01*
X85664447Y-91385142D01*
X85652031Y-91392583D01*
X85638946Y-91398772D01*
X85625317Y-91403649D01*
X85611276Y-91407166D01*
X85596958Y-91409290D01*
X85582500Y-91410000D01*
X85237500Y-91410000D01*
X85223042Y-91409290D01*
X85208724Y-91407166D01*
X85194683Y-91403649D01*
X85181054Y-91398772D01*
X85167969Y-91392583D01*
X85155553Y-91385142D01*
X85143927Y-91376519D01*
X85133202Y-91366798D01*
X85123481Y-91356073D01*
X85114858Y-91344447D01*
X85107417Y-91332031D01*
X85101228Y-91318946D01*
X85096351Y-91305317D01*
X85092834Y-91291276D01*
X85090710Y-91276958D01*
X85090000Y-91262500D01*
X85090000Y-90967500D01*
X85090710Y-90953042D01*
X85092834Y-90938724D01*
X85096351Y-90924683D01*
X85101228Y-90911054D01*
X85107417Y-90897969D01*
X85114858Y-90885553D01*
X85123481Y-90873927D01*
X85133202Y-90863202D01*
X85143927Y-90853481D01*
X85155553Y-90844858D01*
X85167969Y-90837417D01*
X85181054Y-90831228D01*
X85194683Y-90826351D01*
X85208724Y-90822834D01*
X85223042Y-90820710D01*
X85237500Y-90820000D01*
X85582500Y-90820000D01*
X85596958Y-90820710D01*
G37*
G36*
X85596958Y-91790710D02*
G01*
X85611276Y-91792834D01*
X85625317Y-91796351D01*
X85638946Y-91801228D01*
X85652031Y-91807417D01*
X85664447Y-91814858D01*
X85676073Y-91823481D01*
X85686798Y-91833202D01*
X85696519Y-91843927D01*
X85705142Y-91855553D01*
X85712583Y-91867969D01*
X85718772Y-91881054D01*
X85723649Y-91894683D01*
X85727166Y-91908724D01*
X85729290Y-91923042D01*
X85730000Y-91937500D01*
X85730000Y-92232500D01*
X85729290Y-92246958D01*
X85727166Y-92261276D01*
X85723649Y-92275317D01*
X85718772Y-92288946D01*
X85712583Y-92302031D01*
X85705142Y-92314447D01*
X85696519Y-92326073D01*
X85686798Y-92336798D01*
X85676073Y-92346519D01*
X85664447Y-92355142D01*
X85652031Y-92362583D01*
X85638946Y-92368772D01*
X85625317Y-92373649D01*
X85611276Y-92377166D01*
X85596958Y-92379290D01*
X85582500Y-92380000D01*
X85237500Y-92380000D01*
X85223042Y-92379290D01*
X85208724Y-92377166D01*
X85194683Y-92373649D01*
X85181054Y-92368772D01*
X85167969Y-92362583D01*
X85155553Y-92355142D01*
X85143927Y-92346519D01*
X85133202Y-92336798D01*
X85123481Y-92326073D01*
X85114858Y-92314447D01*
X85107417Y-92302031D01*
X85101228Y-92288946D01*
X85096351Y-92275317D01*
X85092834Y-92261276D01*
X85090710Y-92246958D01*
X85090000Y-92232500D01*
X85090000Y-91937500D01*
X85090710Y-91923042D01*
X85092834Y-91908724D01*
X85096351Y-91894683D01*
X85101228Y-91881054D01*
X85107417Y-91867969D01*
X85114858Y-91855553D01*
X85123481Y-91843927D01*
X85133202Y-91833202D01*
X85143927Y-91823481D01*
X85155553Y-91814858D01*
X85167969Y-91807417D01*
X85181054Y-91801228D01*
X85194683Y-91796351D01*
X85208724Y-91792834D01*
X85223042Y-91790710D01*
X85237500Y-91790000D01*
X85582500Y-91790000D01*
X85596958Y-91790710D01*
G37*
G36*
X85596958Y-89890710D02*
G01*
X85611276Y-89892834D01*
X85625317Y-89896351D01*
X85638946Y-89901228D01*
X85652031Y-89907417D01*
X85664447Y-89914858D01*
X85676073Y-89923481D01*
X85686798Y-89933202D01*
X85696519Y-89943927D01*
X85705142Y-89955553D01*
X85712583Y-89967969D01*
X85718772Y-89981054D01*
X85723649Y-89994683D01*
X85727166Y-90008724D01*
X85729290Y-90023042D01*
X85730000Y-90037500D01*
X85730000Y-90332500D01*
X85729290Y-90346958D01*
X85727166Y-90361276D01*
X85723649Y-90375317D01*
X85718772Y-90388946D01*
X85712583Y-90402031D01*
X85705142Y-90414447D01*
X85696519Y-90426073D01*
X85686798Y-90436798D01*
X85676073Y-90446519D01*
X85664447Y-90455142D01*
X85652031Y-90462583D01*
X85638946Y-90468772D01*
X85625317Y-90473649D01*
X85611276Y-90477166D01*
X85596958Y-90479290D01*
X85582500Y-90480000D01*
X85237500Y-90480000D01*
X85223042Y-90479290D01*
X85208724Y-90477166D01*
X85194683Y-90473649D01*
X85181054Y-90468772D01*
X85167969Y-90462583D01*
X85155553Y-90455142D01*
X85143927Y-90446519D01*
X85133202Y-90436798D01*
X85123481Y-90426073D01*
X85114858Y-90414447D01*
X85107417Y-90402031D01*
X85101228Y-90388946D01*
X85096351Y-90375317D01*
X85092834Y-90361276D01*
X85090710Y-90346958D01*
X85090000Y-90332500D01*
X85090000Y-90037500D01*
X85090710Y-90023042D01*
X85092834Y-90008724D01*
X85096351Y-89994683D01*
X85101228Y-89981054D01*
X85107417Y-89967969D01*
X85114858Y-89955553D01*
X85123481Y-89943927D01*
X85133202Y-89933202D01*
X85143927Y-89923481D01*
X85155553Y-89914858D01*
X85167969Y-89907417D01*
X85181054Y-89901228D01*
X85194683Y-89896351D01*
X85208724Y-89892834D01*
X85223042Y-89890710D01*
X85237500Y-89890000D01*
X85582500Y-89890000D01*
X85596958Y-89890710D01*
G37*
G36*
X85596958Y-88920710D02*
G01*
X85611276Y-88922834D01*
X85625317Y-88926351D01*
X85638946Y-88931228D01*
X85652031Y-88937417D01*
X85664447Y-88944858D01*
X85676073Y-88953481D01*
X85686798Y-88963202D01*
X85696519Y-88973927D01*
X85705142Y-88985553D01*
X85712583Y-88997969D01*
X85718772Y-89011054D01*
X85723649Y-89024683D01*
X85727166Y-89038724D01*
X85729290Y-89053042D01*
X85730000Y-89067500D01*
X85730000Y-89362500D01*
X85729290Y-89376958D01*
X85727166Y-89391276D01*
X85723649Y-89405317D01*
X85718772Y-89418946D01*
X85712583Y-89432031D01*
X85705142Y-89444447D01*
X85696519Y-89456073D01*
X85686798Y-89466798D01*
X85676073Y-89476519D01*
X85664447Y-89485142D01*
X85652031Y-89492583D01*
X85638946Y-89498772D01*
X85625317Y-89503649D01*
X85611276Y-89507166D01*
X85596958Y-89509290D01*
X85582500Y-89510000D01*
X85237500Y-89510000D01*
X85223042Y-89509290D01*
X85208724Y-89507166D01*
X85194683Y-89503649D01*
X85181054Y-89498772D01*
X85167969Y-89492583D01*
X85155553Y-89485142D01*
X85143927Y-89476519D01*
X85133202Y-89466798D01*
X85123481Y-89456073D01*
X85114858Y-89444447D01*
X85107417Y-89432031D01*
X85101228Y-89418946D01*
X85096351Y-89405317D01*
X85092834Y-89391276D01*
X85090710Y-89376958D01*
X85090000Y-89362500D01*
X85090000Y-89067500D01*
X85090710Y-89053042D01*
X85092834Y-89038724D01*
X85096351Y-89024683D01*
X85101228Y-89011054D01*
X85107417Y-88997969D01*
X85114858Y-88985553D01*
X85123481Y-88973927D01*
X85133202Y-88963202D01*
X85143927Y-88953481D01*
X85155553Y-88944858D01*
X85167969Y-88937417D01*
X85181054Y-88931228D01*
X85194683Y-88926351D01*
X85208724Y-88922834D01*
X85223042Y-88920710D01*
X85237500Y-88920000D01*
X85582500Y-88920000D01*
X85596958Y-88920710D01*
G37*
G36*
X151646958Y-100780710D02*
G01*
X151661276Y-100782834D01*
X151675317Y-100786351D01*
X151688946Y-100791228D01*
X151702031Y-100797417D01*
X151714447Y-100804858D01*
X151726073Y-100813481D01*
X151736798Y-100823202D01*
X151746519Y-100833927D01*
X151755142Y-100845553D01*
X151762583Y-100857969D01*
X151768772Y-100871054D01*
X151773649Y-100884683D01*
X151777166Y-100898724D01*
X151779290Y-100913042D01*
X151780000Y-100927500D01*
X151780000Y-101272500D01*
X151779290Y-101286958D01*
X151777166Y-101301276D01*
X151773649Y-101315317D01*
X151768772Y-101328946D01*
X151762583Y-101342031D01*
X151755142Y-101354447D01*
X151746519Y-101366073D01*
X151736798Y-101376798D01*
X151726073Y-101386519D01*
X151714447Y-101395142D01*
X151702031Y-101402583D01*
X151688946Y-101408772D01*
X151675317Y-101413649D01*
X151661276Y-101417166D01*
X151646958Y-101419290D01*
X151632500Y-101420000D01*
X151337500Y-101420000D01*
X151323042Y-101419290D01*
X151308724Y-101417166D01*
X151294683Y-101413649D01*
X151281054Y-101408772D01*
X151267969Y-101402583D01*
X151255553Y-101395142D01*
X151243927Y-101386519D01*
X151233202Y-101376798D01*
X151223481Y-101366073D01*
X151214858Y-101354447D01*
X151207417Y-101342031D01*
X151201228Y-101328946D01*
X151196351Y-101315317D01*
X151192834Y-101301276D01*
X151190710Y-101286958D01*
X151190000Y-101272500D01*
X151190000Y-100927500D01*
X151190710Y-100913042D01*
X151192834Y-100898724D01*
X151196351Y-100884683D01*
X151201228Y-100871054D01*
X151207417Y-100857969D01*
X151214858Y-100845553D01*
X151223481Y-100833927D01*
X151233202Y-100823202D01*
X151243927Y-100813481D01*
X151255553Y-100804858D01*
X151267969Y-100797417D01*
X151281054Y-100791228D01*
X151294683Y-100786351D01*
X151308724Y-100782834D01*
X151323042Y-100780710D01*
X151337500Y-100780000D01*
X151632500Y-100780000D01*
X151646958Y-100780710D01*
G37*
G36*
X150676958Y-100780710D02*
G01*
X150691276Y-100782834D01*
X150705317Y-100786351D01*
X150718946Y-100791228D01*
X150732031Y-100797417D01*
X150744447Y-100804858D01*
X150756073Y-100813481D01*
X150766798Y-100823202D01*
X150776519Y-100833927D01*
X150785142Y-100845553D01*
X150792583Y-100857969D01*
X150798772Y-100871054D01*
X150803649Y-100884683D01*
X150807166Y-100898724D01*
X150809290Y-100913042D01*
X150810000Y-100927500D01*
X150810000Y-101272500D01*
X150809290Y-101286958D01*
X150807166Y-101301276D01*
X150803649Y-101315317D01*
X150798772Y-101328946D01*
X150792583Y-101342031D01*
X150785142Y-101354447D01*
X150776519Y-101366073D01*
X150766798Y-101376798D01*
X150756073Y-101386519D01*
X150744447Y-101395142D01*
X150732031Y-101402583D01*
X150718946Y-101408772D01*
X150705317Y-101413649D01*
X150691276Y-101417166D01*
X150676958Y-101419290D01*
X150662500Y-101420000D01*
X150367500Y-101420000D01*
X150353042Y-101419290D01*
X150338724Y-101417166D01*
X150324683Y-101413649D01*
X150311054Y-101408772D01*
X150297969Y-101402583D01*
X150285553Y-101395142D01*
X150273927Y-101386519D01*
X150263202Y-101376798D01*
X150253481Y-101366073D01*
X150244858Y-101354447D01*
X150237417Y-101342031D01*
X150231228Y-101328946D01*
X150226351Y-101315317D01*
X150222834Y-101301276D01*
X150220710Y-101286958D01*
X150220000Y-101272500D01*
X150220000Y-100927500D01*
X150220710Y-100913042D01*
X150222834Y-100898724D01*
X150226351Y-100884683D01*
X150231228Y-100871054D01*
X150237417Y-100857969D01*
X150244858Y-100845553D01*
X150253481Y-100833927D01*
X150263202Y-100823202D01*
X150273927Y-100813481D01*
X150285553Y-100804858D01*
X150297969Y-100797417D01*
X150311054Y-100791228D01*
X150324683Y-100786351D01*
X150338724Y-100782834D01*
X150353042Y-100780710D01*
X150367500Y-100780000D01*
X150662500Y-100780000D01*
X150676958Y-100780710D01*
G37*
G36*
X153546958Y-100780710D02*
G01*
X153561276Y-100782834D01*
X153575317Y-100786351D01*
X153588946Y-100791228D01*
X153602031Y-100797417D01*
X153614447Y-100804858D01*
X153626073Y-100813481D01*
X153636798Y-100823202D01*
X153646519Y-100833927D01*
X153655142Y-100845553D01*
X153662583Y-100857969D01*
X153668772Y-100871054D01*
X153673649Y-100884683D01*
X153677166Y-100898724D01*
X153679290Y-100913042D01*
X153680000Y-100927500D01*
X153680000Y-101272500D01*
X153679290Y-101286958D01*
X153677166Y-101301276D01*
X153673649Y-101315317D01*
X153668772Y-101328946D01*
X153662583Y-101342031D01*
X153655142Y-101354447D01*
X153646519Y-101366073D01*
X153636798Y-101376798D01*
X153626073Y-101386519D01*
X153614447Y-101395142D01*
X153602031Y-101402583D01*
X153588946Y-101408772D01*
X153575317Y-101413649D01*
X153561276Y-101417166D01*
X153546958Y-101419290D01*
X153532500Y-101420000D01*
X153237500Y-101420000D01*
X153223042Y-101419290D01*
X153208724Y-101417166D01*
X153194683Y-101413649D01*
X153181054Y-101408772D01*
X153167969Y-101402583D01*
X153155553Y-101395142D01*
X153143927Y-101386519D01*
X153133202Y-101376798D01*
X153123481Y-101366073D01*
X153114858Y-101354447D01*
X153107417Y-101342031D01*
X153101228Y-101328946D01*
X153096351Y-101315317D01*
X153092834Y-101301276D01*
X153090710Y-101286958D01*
X153090000Y-101272500D01*
X153090000Y-100927500D01*
X153090710Y-100913042D01*
X153092834Y-100898724D01*
X153096351Y-100884683D01*
X153101228Y-100871054D01*
X153107417Y-100857969D01*
X153114858Y-100845553D01*
X153123481Y-100833927D01*
X153133202Y-100823202D01*
X153143927Y-100813481D01*
X153155553Y-100804858D01*
X153167969Y-100797417D01*
X153181054Y-100791228D01*
X153194683Y-100786351D01*
X153208724Y-100782834D01*
X153223042Y-100780710D01*
X153237500Y-100780000D01*
X153532500Y-100780000D01*
X153546958Y-100780710D01*
G37*
G36*
X152576958Y-100780710D02*
G01*
X152591276Y-100782834D01*
X152605317Y-100786351D01*
X152618946Y-100791228D01*
X152632031Y-100797417D01*
X152644447Y-100804858D01*
X152656073Y-100813481D01*
X152666798Y-100823202D01*
X152676519Y-100833927D01*
X152685142Y-100845553D01*
X152692583Y-100857969D01*
X152698772Y-100871054D01*
X152703649Y-100884683D01*
X152707166Y-100898724D01*
X152709290Y-100913042D01*
X152710000Y-100927500D01*
X152710000Y-101272500D01*
X152709290Y-101286958D01*
X152707166Y-101301276D01*
X152703649Y-101315317D01*
X152698772Y-101328946D01*
X152692583Y-101342031D01*
X152685142Y-101354447D01*
X152676519Y-101366073D01*
X152666798Y-101376798D01*
X152656073Y-101386519D01*
X152644447Y-101395142D01*
X152632031Y-101402583D01*
X152618946Y-101408772D01*
X152605317Y-101413649D01*
X152591276Y-101417166D01*
X152576958Y-101419290D01*
X152562500Y-101420000D01*
X152267500Y-101420000D01*
X152253042Y-101419290D01*
X152238724Y-101417166D01*
X152224683Y-101413649D01*
X152211054Y-101408772D01*
X152197969Y-101402583D01*
X152185553Y-101395142D01*
X152173927Y-101386519D01*
X152163202Y-101376798D01*
X152153481Y-101366073D01*
X152144858Y-101354447D01*
X152137417Y-101342031D01*
X152131228Y-101328946D01*
X152126351Y-101315317D01*
X152122834Y-101301276D01*
X152120710Y-101286958D01*
X152120000Y-101272500D01*
X152120000Y-100927500D01*
X152120710Y-100913042D01*
X152122834Y-100898724D01*
X152126351Y-100884683D01*
X152131228Y-100871054D01*
X152137417Y-100857969D01*
X152144858Y-100845553D01*
X152153481Y-100833927D01*
X152163202Y-100823202D01*
X152173927Y-100813481D01*
X152185553Y-100804858D01*
X152197969Y-100797417D01*
X152211054Y-100791228D01*
X152224683Y-100786351D01*
X152238724Y-100782834D01*
X152253042Y-100780710D01*
X152267500Y-100780000D01*
X152562500Y-100780000D01*
X152576958Y-100780710D01*
G37*
G36*
X151176958Y-96580710D02*
G01*
X151191276Y-96582834D01*
X151205317Y-96586351D01*
X151218946Y-96591228D01*
X151232031Y-96597417D01*
X151244447Y-96604858D01*
X151256073Y-96613481D01*
X151266798Y-96623202D01*
X151276519Y-96633927D01*
X151285142Y-96645553D01*
X151292583Y-96657969D01*
X151298772Y-96671054D01*
X151303649Y-96684683D01*
X151307166Y-96698724D01*
X151309290Y-96713042D01*
X151310000Y-96727500D01*
X151310000Y-97072500D01*
X151309290Y-97086958D01*
X151307166Y-97101276D01*
X151303649Y-97115317D01*
X151298772Y-97128946D01*
X151292583Y-97142031D01*
X151285142Y-97154447D01*
X151276519Y-97166073D01*
X151266798Y-97176798D01*
X151256073Y-97186519D01*
X151244447Y-97195142D01*
X151232031Y-97202583D01*
X151218946Y-97208772D01*
X151205317Y-97213649D01*
X151191276Y-97217166D01*
X151176958Y-97219290D01*
X151162500Y-97220000D01*
X150867500Y-97220000D01*
X150853042Y-97219290D01*
X150838724Y-97217166D01*
X150824683Y-97213649D01*
X150811054Y-97208772D01*
X150797969Y-97202583D01*
X150785553Y-97195142D01*
X150773927Y-97186519D01*
X150763202Y-97176798D01*
X150753481Y-97166073D01*
X150744858Y-97154447D01*
X150737417Y-97142031D01*
X150731228Y-97128946D01*
X150726351Y-97115317D01*
X150722834Y-97101276D01*
X150720710Y-97086958D01*
X150720000Y-97072500D01*
X150720000Y-96727500D01*
X150720710Y-96713042D01*
X150722834Y-96698724D01*
X150726351Y-96684683D01*
X150731228Y-96671054D01*
X150737417Y-96657969D01*
X150744858Y-96645553D01*
X150753481Y-96633927D01*
X150763202Y-96623202D01*
X150773927Y-96613481D01*
X150785553Y-96604858D01*
X150797969Y-96597417D01*
X150811054Y-96591228D01*
X150824683Y-96586351D01*
X150838724Y-96582834D01*
X150853042Y-96580710D01*
X150867500Y-96580000D01*
X151162500Y-96580000D01*
X151176958Y-96580710D01*
G37*
G36*
X152146958Y-96580710D02*
G01*
X152161276Y-96582834D01*
X152175317Y-96586351D01*
X152188946Y-96591228D01*
X152202031Y-96597417D01*
X152214447Y-96604858D01*
X152226073Y-96613481D01*
X152236798Y-96623202D01*
X152246519Y-96633927D01*
X152255142Y-96645553D01*
X152262583Y-96657969D01*
X152268772Y-96671054D01*
X152273649Y-96684683D01*
X152277166Y-96698724D01*
X152279290Y-96713042D01*
X152280000Y-96727500D01*
X152280000Y-97072500D01*
X152279290Y-97086958D01*
X152277166Y-97101276D01*
X152273649Y-97115317D01*
X152268772Y-97128946D01*
X152262583Y-97142031D01*
X152255142Y-97154447D01*
X152246519Y-97166073D01*
X152236798Y-97176798D01*
X152226073Y-97186519D01*
X152214447Y-97195142D01*
X152202031Y-97202583D01*
X152188946Y-97208772D01*
X152175317Y-97213649D01*
X152161276Y-97217166D01*
X152146958Y-97219290D01*
X152132500Y-97220000D01*
X151837500Y-97220000D01*
X151823042Y-97219290D01*
X151808724Y-97217166D01*
X151794683Y-97213649D01*
X151781054Y-97208772D01*
X151767969Y-97202583D01*
X151755553Y-97195142D01*
X151743927Y-97186519D01*
X151733202Y-97176798D01*
X151723481Y-97166073D01*
X151714858Y-97154447D01*
X151707417Y-97142031D01*
X151701228Y-97128946D01*
X151696351Y-97115317D01*
X151692834Y-97101276D01*
X151690710Y-97086958D01*
X151690000Y-97072500D01*
X151690000Y-96727500D01*
X151690710Y-96713042D01*
X151692834Y-96698724D01*
X151696351Y-96684683D01*
X151701228Y-96671054D01*
X151707417Y-96657969D01*
X151714858Y-96645553D01*
X151723481Y-96633927D01*
X151733202Y-96623202D01*
X151743927Y-96613481D01*
X151755553Y-96604858D01*
X151767969Y-96597417D01*
X151781054Y-96591228D01*
X151794683Y-96586351D01*
X151808724Y-96582834D01*
X151823042Y-96580710D01*
X151837500Y-96580000D01*
X152132500Y-96580000D01*
X152146958Y-96580710D01*
G37*
D14*
X91450000Y-94390000D03*
X93470000Y-88930000D03*
D11*
G36*
X85786958Y-97490710D02*
G01*
X85801276Y-97492834D01*
X85815317Y-97496351D01*
X85828946Y-97501228D01*
X85842031Y-97507417D01*
X85854447Y-97514858D01*
X85866073Y-97523481D01*
X85876798Y-97533202D01*
X85886519Y-97543927D01*
X85895142Y-97555553D01*
X85902583Y-97567969D01*
X85908772Y-97581054D01*
X85913649Y-97594683D01*
X85917166Y-97608724D01*
X85919290Y-97623042D01*
X85920000Y-97637500D01*
X85920000Y-97932500D01*
X85919290Y-97946958D01*
X85917166Y-97961276D01*
X85913649Y-97975317D01*
X85908772Y-97988946D01*
X85902583Y-98002031D01*
X85895142Y-98014447D01*
X85886519Y-98026073D01*
X85876798Y-98036798D01*
X85866073Y-98046519D01*
X85854447Y-98055142D01*
X85842031Y-98062583D01*
X85828946Y-98068772D01*
X85815317Y-98073649D01*
X85801276Y-98077166D01*
X85786958Y-98079290D01*
X85772500Y-98080000D01*
X85427500Y-98080000D01*
X85413042Y-98079290D01*
X85398724Y-98077166D01*
X85384683Y-98073649D01*
X85371054Y-98068772D01*
X85357969Y-98062583D01*
X85345553Y-98055142D01*
X85333927Y-98046519D01*
X85323202Y-98036798D01*
X85313481Y-98026073D01*
X85304858Y-98014447D01*
X85297417Y-98002031D01*
X85291228Y-97988946D01*
X85286351Y-97975317D01*
X85282834Y-97961276D01*
X85280710Y-97946958D01*
X85280000Y-97932500D01*
X85280000Y-97637500D01*
X85280710Y-97623042D01*
X85282834Y-97608724D01*
X85286351Y-97594683D01*
X85291228Y-97581054D01*
X85297417Y-97567969D01*
X85304858Y-97555553D01*
X85313481Y-97543927D01*
X85323202Y-97533202D01*
X85333927Y-97523481D01*
X85345553Y-97514858D01*
X85357969Y-97507417D01*
X85371054Y-97501228D01*
X85384683Y-97496351D01*
X85398724Y-97492834D01*
X85413042Y-97490710D01*
X85427500Y-97490000D01*
X85772500Y-97490000D01*
X85786958Y-97490710D01*
G37*
G36*
X85786958Y-96520710D02*
G01*
X85801276Y-96522834D01*
X85815317Y-96526351D01*
X85828946Y-96531228D01*
X85842031Y-96537417D01*
X85854447Y-96544858D01*
X85866073Y-96553481D01*
X85876798Y-96563202D01*
X85886519Y-96573927D01*
X85895142Y-96585553D01*
X85902583Y-96597969D01*
X85908772Y-96611054D01*
X85913649Y-96624683D01*
X85917166Y-96638724D01*
X85919290Y-96653042D01*
X85920000Y-96667500D01*
X85920000Y-96962500D01*
X85919290Y-96976958D01*
X85917166Y-96991276D01*
X85913649Y-97005317D01*
X85908772Y-97018946D01*
X85902583Y-97032031D01*
X85895142Y-97044447D01*
X85886519Y-97056073D01*
X85876798Y-97066798D01*
X85866073Y-97076519D01*
X85854447Y-97085142D01*
X85842031Y-97092583D01*
X85828946Y-97098772D01*
X85815317Y-97103649D01*
X85801276Y-97107166D01*
X85786958Y-97109290D01*
X85772500Y-97110000D01*
X85427500Y-97110000D01*
X85413042Y-97109290D01*
X85398724Y-97107166D01*
X85384683Y-97103649D01*
X85371054Y-97098772D01*
X85357969Y-97092583D01*
X85345553Y-97085142D01*
X85333927Y-97076519D01*
X85323202Y-97066798D01*
X85313481Y-97056073D01*
X85304858Y-97044447D01*
X85297417Y-97032031D01*
X85291228Y-97018946D01*
X85286351Y-97005317D01*
X85282834Y-96991276D01*
X85280710Y-96976958D01*
X85280000Y-96962500D01*
X85280000Y-96667500D01*
X85280710Y-96653042D01*
X85282834Y-96638724D01*
X85286351Y-96624683D01*
X85291228Y-96611054D01*
X85297417Y-96597969D01*
X85304858Y-96585553D01*
X85313481Y-96573927D01*
X85323202Y-96563202D01*
X85333927Y-96553481D01*
X85345553Y-96544858D01*
X85357969Y-96537417D01*
X85371054Y-96531228D01*
X85384683Y-96526351D01*
X85398724Y-96522834D01*
X85413042Y-96520710D01*
X85427500Y-96520000D01*
X85772500Y-96520000D01*
X85786958Y-96520710D01*
G37*
G36*
X86596958Y-88920710D02*
G01*
X86611276Y-88922834D01*
X86625317Y-88926351D01*
X86638946Y-88931228D01*
X86652031Y-88937417D01*
X86664447Y-88944858D01*
X86676073Y-88953481D01*
X86686798Y-88963202D01*
X86696519Y-88973927D01*
X86705142Y-88985553D01*
X86712583Y-88997969D01*
X86718772Y-89011054D01*
X86723649Y-89024683D01*
X86727166Y-89038724D01*
X86729290Y-89053042D01*
X86730000Y-89067500D01*
X86730000Y-89362500D01*
X86729290Y-89376958D01*
X86727166Y-89391276D01*
X86723649Y-89405317D01*
X86718772Y-89418946D01*
X86712583Y-89432031D01*
X86705142Y-89444447D01*
X86696519Y-89456073D01*
X86686798Y-89466798D01*
X86676073Y-89476519D01*
X86664447Y-89485142D01*
X86652031Y-89492583D01*
X86638946Y-89498772D01*
X86625317Y-89503649D01*
X86611276Y-89507166D01*
X86596958Y-89509290D01*
X86582500Y-89510000D01*
X86237500Y-89510000D01*
X86223042Y-89509290D01*
X86208724Y-89507166D01*
X86194683Y-89503649D01*
X86181054Y-89498772D01*
X86167969Y-89492583D01*
X86155553Y-89485142D01*
X86143927Y-89476519D01*
X86133202Y-89466798D01*
X86123481Y-89456073D01*
X86114858Y-89444447D01*
X86107417Y-89432031D01*
X86101228Y-89418946D01*
X86096351Y-89405317D01*
X86092834Y-89391276D01*
X86090710Y-89376958D01*
X86090000Y-89362500D01*
X86090000Y-89067500D01*
X86090710Y-89053042D01*
X86092834Y-89038724D01*
X86096351Y-89024683D01*
X86101228Y-89011054D01*
X86107417Y-88997969D01*
X86114858Y-88985553D01*
X86123481Y-88973927D01*
X86133202Y-88963202D01*
X86143927Y-88953481D01*
X86155553Y-88944858D01*
X86167969Y-88937417D01*
X86181054Y-88931228D01*
X86194683Y-88926351D01*
X86208724Y-88922834D01*
X86223042Y-88920710D01*
X86237500Y-88920000D01*
X86582500Y-88920000D01*
X86596958Y-88920710D01*
G37*
G36*
X86596958Y-89890710D02*
G01*
X86611276Y-89892834D01*
X86625317Y-89896351D01*
X86638946Y-89901228D01*
X86652031Y-89907417D01*
X86664447Y-89914858D01*
X86676073Y-89923481D01*
X86686798Y-89933202D01*
X86696519Y-89943927D01*
X86705142Y-89955553D01*
X86712583Y-89967969D01*
X86718772Y-89981054D01*
X86723649Y-89994683D01*
X86727166Y-90008724D01*
X86729290Y-90023042D01*
X86730000Y-90037500D01*
X86730000Y-90332500D01*
X86729290Y-90346958D01*
X86727166Y-90361276D01*
X86723649Y-90375317D01*
X86718772Y-90388946D01*
X86712583Y-90402031D01*
X86705142Y-90414447D01*
X86696519Y-90426073D01*
X86686798Y-90436798D01*
X86676073Y-90446519D01*
X86664447Y-90455142D01*
X86652031Y-90462583D01*
X86638946Y-90468772D01*
X86625317Y-90473649D01*
X86611276Y-90477166D01*
X86596958Y-90479290D01*
X86582500Y-90480000D01*
X86237500Y-90480000D01*
X86223042Y-90479290D01*
X86208724Y-90477166D01*
X86194683Y-90473649D01*
X86181054Y-90468772D01*
X86167969Y-90462583D01*
X86155553Y-90455142D01*
X86143927Y-90446519D01*
X86133202Y-90436798D01*
X86123481Y-90426073D01*
X86114858Y-90414447D01*
X86107417Y-90402031D01*
X86101228Y-90388946D01*
X86096351Y-90375317D01*
X86092834Y-90361276D01*
X86090710Y-90346958D01*
X86090000Y-90332500D01*
X86090000Y-90037500D01*
X86090710Y-90023042D01*
X86092834Y-90008724D01*
X86096351Y-89994683D01*
X86101228Y-89981054D01*
X86107417Y-89967969D01*
X86114858Y-89955553D01*
X86123481Y-89943927D01*
X86133202Y-89933202D01*
X86143927Y-89923481D01*
X86155553Y-89914858D01*
X86167969Y-89907417D01*
X86181054Y-89901228D01*
X86194683Y-89896351D01*
X86208724Y-89892834D01*
X86223042Y-89890710D01*
X86237500Y-89890000D01*
X86582500Y-89890000D01*
X86596958Y-89890710D01*
G37*
G36*
X151646958Y-101780710D02*
G01*
X151661276Y-101782834D01*
X151675317Y-101786351D01*
X151688946Y-101791228D01*
X151702031Y-101797417D01*
X151714447Y-101804858D01*
X151726073Y-101813481D01*
X151736798Y-101823202D01*
X151746519Y-101833927D01*
X151755142Y-101845553D01*
X151762583Y-101857969D01*
X151768772Y-101871054D01*
X151773649Y-101884683D01*
X151777166Y-101898724D01*
X151779290Y-101913042D01*
X151780000Y-101927500D01*
X151780000Y-102272500D01*
X151779290Y-102286958D01*
X151777166Y-102301276D01*
X151773649Y-102315317D01*
X151768772Y-102328946D01*
X151762583Y-102342031D01*
X151755142Y-102354447D01*
X151746519Y-102366073D01*
X151736798Y-102376798D01*
X151726073Y-102386519D01*
X151714447Y-102395142D01*
X151702031Y-102402583D01*
X151688946Y-102408772D01*
X151675317Y-102413649D01*
X151661276Y-102417166D01*
X151646958Y-102419290D01*
X151632500Y-102420000D01*
X151337500Y-102420000D01*
X151323042Y-102419290D01*
X151308724Y-102417166D01*
X151294683Y-102413649D01*
X151281054Y-102408772D01*
X151267969Y-102402583D01*
X151255553Y-102395142D01*
X151243927Y-102386519D01*
X151233202Y-102376798D01*
X151223481Y-102366073D01*
X151214858Y-102354447D01*
X151207417Y-102342031D01*
X151201228Y-102328946D01*
X151196351Y-102315317D01*
X151192834Y-102301276D01*
X151190710Y-102286958D01*
X151190000Y-102272500D01*
X151190000Y-101927500D01*
X151190710Y-101913042D01*
X151192834Y-101898724D01*
X151196351Y-101884683D01*
X151201228Y-101871054D01*
X151207417Y-101857969D01*
X151214858Y-101845553D01*
X151223481Y-101833927D01*
X151233202Y-101823202D01*
X151243927Y-101813481D01*
X151255553Y-101804858D01*
X151267969Y-101797417D01*
X151281054Y-101791228D01*
X151294683Y-101786351D01*
X151308724Y-101782834D01*
X151323042Y-101780710D01*
X151337500Y-101780000D01*
X151632500Y-101780000D01*
X151646958Y-101780710D01*
G37*
G36*
X150676958Y-101780710D02*
G01*
X150691276Y-101782834D01*
X150705317Y-101786351D01*
X150718946Y-101791228D01*
X150732031Y-101797417D01*
X150744447Y-101804858D01*
X150756073Y-101813481D01*
X150766798Y-101823202D01*
X150776519Y-101833927D01*
X150785142Y-101845553D01*
X150792583Y-101857969D01*
X150798772Y-101871054D01*
X150803649Y-101884683D01*
X150807166Y-101898724D01*
X150809290Y-101913042D01*
X150810000Y-101927500D01*
X150810000Y-102272500D01*
X150809290Y-102286958D01*
X150807166Y-102301276D01*
X150803649Y-102315317D01*
X150798772Y-102328946D01*
X150792583Y-102342031D01*
X150785142Y-102354447D01*
X150776519Y-102366073D01*
X150766798Y-102376798D01*
X150756073Y-102386519D01*
X150744447Y-102395142D01*
X150732031Y-102402583D01*
X150718946Y-102408772D01*
X150705317Y-102413649D01*
X150691276Y-102417166D01*
X150676958Y-102419290D01*
X150662500Y-102420000D01*
X150367500Y-102420000D01*
X150353042Y-102419290D01*
X150338724Y-102417166D01*
X150324683Y-102413649D01*
X150311054Y-102408772D01*
X150297969Y-102402583D01*
X150285553Y-102395142D01*
X150273927Y-102386519D01*
X150263202Y-102376798D01*
X150253481Y-102366073D01*
X150244858Y-102354447D01*
X150237417Y-102342031D01*
X150231228Y-102328946D01*
X150226351Y-102315317D01*
X150222834Y-102301276D01*
X150220710Y-102286958D01*
X150220000Y-102272500D01*
X150220000Y-101927500D01*
X150220710Y-101913042D01*
X150222834Y-101898724D01*
X150226351Y-101884683D01*
X150231228Y-101871054D01*
X150237417Y-101857969D01*
X150244858Y-101845553D01*
X150253481Y-101833927D01*
X150263202Y-101823202D01*
X150273927Y-101813481D01*
X150285553Y-101804858D01*
X150297969Y-101797417D01*
X150311054Y-101791228D01*
X150324683Y-101786351D01*
X150338724Y-101782834D01*
X150353042Y-101780710D01*
X150367500Y-101780000D01*
X150662500Y-101780000D01*
X150676958Y-101780710D01*
G37*
G36*
X85786958Y-98420710D02*
G01*
X85801276Y-98422834D01*
X85815317Y-98426351D01*
X85828946Y-98431228D01*
X85842031Y-98437417D01*
X85854447Y-98444858D01*
X85866073Y-98453481D01*
X85876798Y-98463202D01*
X85886519Y-98473927D01*
X85895142Y-98485553D01*
X85902583Y-98497969D01*
X85908772Y-98511054D01*
X85913649Y-98524683D01*
X85917166Y-98538724D01*
X85919290Y-98553042D01*
X85920000Y-98567500D01*
X85920000Y-98862500D01*
X85919290Y-98876958D01*
X85917166Y-98891276D01*
X85913649Y-98905317D01*
X85908772Y-98918946D01*
X85902583Y-98932031D01*
X85895142Y-98944447D01*
X85886519Y-98956073D01*
X85876798Y-98966798D01*
X85866073Y-98976519D01*
X85854447Y-98985142D01*
X85842031Y-98992583D01*
X85828946Y-98998772D01*
X85815317Y-99003649D01*
X85801276Y-99007166D01*
X85786958Y-99009290D01*
X85772500Y-99010000D01*
X85427500Y-99010000D01*
X85413042Y-99009290D01*
X85398724Y-99007166D01*
X85384683Y-99003649D01*
X85371054Y-98998772D01*
X85357969Y-98992583D01*
X85345553Y-98985142D01*
X85333927Y-98976519D01*
X85323202Y-98966798D01*
X85313481Y-98956073D01*
X85304858Y-98944447D01*
X85297417Y-98932031D01*
X85291228Y-98918946D01*
X85286351Y-98905317D01*
X85282834Y-98891276D01*
X85280710Y-98876958D01*
X85280000Y-98862500D01*
X85280000Y-98567500D01*
X85280710Y-98553042D01*
X85282834Y-98538724D01*
X85286351Y-98524683D01*
X85291228Y-98511054D01*
X85297417Y-98497969D01*
X85304858Y-98485553D01*
X85313481Y-98473927D01*
X85323202Y-98463202D01*
X85333927Y-98453481D01*
X85345553Y-98444858D01*
X85357969Y-98437417D01*
X85371054Y-98431228D01*
X85384683Y-98426351D01*
X85398724Y-98422834D01*
X85413042Y-98420710D01*
X85427500Y-98420000D01*
X85772500Y-98420000D01*
X85786958Y-98420710D01*
G37*
G36*
X85786958Y-99390710D02*
G01*
X85801276Y-99392834D01*
X85815317Y-99396351D01*
X85828946Y-99401228D01*
X85842031Y-99407417D01*
X85854447Y-99414858D01*
X85866073Y-99423481D01*
X85876798Y-99433202D01*
X85886519Y-99443927D01*
X85895142Y-99455553D01*
X85902583Y-99467969D01*
X85908772Y-99481054D01*
X85913649Y-99494683D01*
X85917166Y-99508724D01*
X85919290Y-99523042D01*
X85920000Y-99537500D01*
X85920000Y-99832500D01*
X85919290Y-99846958D01*
X85917166Y-99861276D01*
X85913649Y-99875317D01*
X85908772Y-99888946D01*
X85902583Y-99902031D01*
X85895142Y-99914447D01*
X85886519Y-99926073D01*
X85876798Y-99936798D01*
X85866073Y-99946519D01*
X85854447Y-99955142D01*
X85842031Y-99962583D01*
X85828946Y-99968772D01*
X85815317Y-99973649D01*
X85801276Y-99977166D01*
X85786958Y-99979290D01*
X85772500Y-99980000D01*
X85427500Y-99980000D01*
X85413042Y-99979290D01*
X85398724Y-99977166D01*
X85384683Y-99973649D01*
X85371054Y-99968772D01*
X85357969Y-99962583D01*
X85345553Y-99955142D01*
X85333927Y-99946519D01*
X85323202Y-99936798D01*
X85313481Y-99926073D01*
X85304858Y-99914447D01*
X85297417Y-99902031D01*
X85291228Y-99888946D01*
X85286351Y-99875317D01*
X85282834Y-99861276D01*
X85280710Y-99846958D01*
X85280000Y-99832500D01*
X85280000Y-99537500D01*
X85280710Y-99523042D01*
X85282834Y-99508724D01*
X85286351Y-99494683D01*
X85291228Y-99481054D01*
X85297417Y-99467969D01*
X85304858Y-99455553D01*
X85313481Y-99443927D01*
X85323202Y-99433202D01*
X85333927Y-99423481D01*
X85345553Y-99414858D01*
X85357969Y-99407417D01*
X85371054Y-99401228D01*
X85384683Y-99396351D01*
X85398724Y-99392834D01*
X85413042Y-99390710D01*
X85427500Y-99390000D01*
X85772500Y-99390000D01*
X85786958Y-99390710D01*
G37*
D14*
X145700000Y-103320000D03*
X151900000Y-105560000D03*
X80830000Y-102410000D03*
X86970000Y-106000000D03*
D11*
G36*
X150843822Y-98820433D02*
G01*
X150852558Y-98821729D01*
X150861126Y-98823875D01*
X150869442Y-98826851D01*
X150877426Y-98830627D01*
X150885001Y-98835168D01*
X150892095Y-98840429D01*
X150898640Y-98846360D01*
X150904571Y-98852905D01*
X150909832Y-98859999D01*
X150914373Y-98867574D01*
X150918149Y-98875558D01*
X150921125Y-98883874D01*
X150923271Y-98892442D01*
X150924567Y-98901178D01*
X150925000Y-98910000D01*
X150925000Y-99090000D01*
X150924567Y-99098822D01*
X150923271Y-99107558D01*
X150921125Y-99116126D01*
X150918149Y-99124442D01*
X150914373Y-99132426D01*
X150909832Y-99140001D01*
X150904571Y-99147095D01*
X150898640Y-99153640D01*
X150892095Y-99159571D01*
X150885001Y-99164832D01*
X150877426Y-99169373D01*
X150869442Y-99173149D01*
X150861126Y-99176125D01*
X150852558Y-99178271D01*
X150843822Y-99179567D01*
X150835000Y-99180000D01*
X150415000Y-99180000D01*
X150406178Y-99179567D01*
X150397442Y-99178271D01*
X150388874Y-99176125D01*
X150380558Y-99173149D01*
X150372574Y-99169373D01*
X150364999Y-99164832D01*
X150357905Y-99159571D01*
X150351360Y-99153640D01*
X150345429Y-99147095D01*
X150340168Y-99140001D01*
X150335627Y-99132426D01*
X150331851Y-99124442D01*
X150328875Y-99116126D01*
X150326729Y-99107558D01*
X150325433Y-99098822D01*
X150325000Y-99090000D01*
X150325000Y-98910000D01*
X150325433Y-98901178D01*
X150326729Y-98892442D01*
X150328875Y-98883874D01*
X150331851Y-98875558D01*
X150335627Y-98867574D01*
X150340168Y-98859999D01*
X150345429Y-98852905D01*
X150351360Y-98846360D01*
X150357905Y-98840429D01*
X150364999Y-98835168D01*
X150372574Y-98830627D01*
X150380558Y-98826851D01*
X150388874Y-98823875D01*
X150397442Y-98821729D01*
X150406178Y-98820433D01*
X150415000Y-98820000D01*
X150835000Y-98820000D01*
X150843822Y-98820433D01*
G37*
G36*
X151593822Y-98820433D02*
G01*
X151602558Y-98821729D01*
X151611126Y-98823875D01*
X151619442Y-98826851D01*
X151627426Y-98830627D01*
X151635001Y-98835168D01*
X151642095Y-98840429D01*
X151648640Y-98846360D01*
X151654571Y-98852905D01*
X151659832Y-98859999D01*
X151664373Y-98867574D01*
X151668149Y-98875558D01*
X151671125Y-98883874D01*
X151673271Y-98892442D01*
X151674567Y-98901178D01*
X151675000Y-98910000D01*
X151675000Y-99090000D01*
X151674567Y-99098822D01*
X151673271Y-99107558D01*
X151671125Y-99116126D01*
X151668149Y-99124442D01*
X151664373Y-99132426D01*
X151659832Y-99140001D01*
X151654571Y-99147095D01*
X151648640Y-99153640D01*
X151642095Y-99159571D01*
X151635001Y-99164832D01*
X151627426Y-99169373D01*
X151619442Y-99173149D01*
X151611126Y-99176125D01*
X151602558Y-99178271D01*
X151593822Y-99179567D01*
X151585000Y-99180000D01*
X151165000Y-99180000D01*
X151156178Y-99179567D01*
X151147442Y-99178271D01*
X151138874Y-99176125D01*
X151130558Y-99173149D01*
X151122574Y-99169373D01*
X151114999Y-99164832D01*
X151107905Y-99159571D01*
X151101360Y-99153640D01*
X151095429Y-99147095D01*
X151090168Y-99140001D01*
X151085627Y-99132426D01*
X151081851Y-99124442D01*
X151078875Y-99116126D01*
X151076729Y-99107558D01*
X151075433Y-99098822D01*
X151075000Y-99090000D01*
X151075000Y-98910000D01*
X151075433Y-98901178D01*
X151076729Y-98892442D01*
X151078875Y-98883874D01*
X151081851Y-98875558D01*
X151085627Y-98867574D01*
X151090168Y-98859999D01*
X151095429Y-98852905D01*
X151101360Y-98846360D01*
X151107905Y-98840429D01*
X151114999Y-98835168D01*
X151122574Y-98830627D01*
X151130558Y-98826851D01*
X151138874Y-98823875D01*
X151147442Y-98821729D01*
X151156178Y-98820433D01*
X151165000Y-98820000D01*
X151585000Y-98820000D01*
X151593822Y-98820433D01*
G37*
G36*
X151832351Y-99625361D02*
G01*
X151839632Y-99626441D01*
X151846771Y-99628229D01*
X151853701Y-99630709D01*
X151860355Y-99633856D01*
X151866668Y-99637640D01*
X151872579Y-99642024D01*
X151878033Y-99646967D01*
X151882976Y-99652421D01*
X151887360Y-99658332D01*
X151891144Y-99664645D01*
X151894291Y-99671299D01*
X151896771Y-99678229D01*
X151898559Y-99685368D01*
X151899639Y-99692649D01*
X151900000Y-99700000D01*
X151900000Y-100300000D01*
X151899639Y-100307351D01*
X151898559Y-100314632D01*
X151896771Y-100321771D01*
X151894291Y-100328701D01*
X151891144Y-100335355D01*
X151887360Y-100341668D01*
X151882976Y-100347579D01*
X151878033Y-100353033D01*
X151872579Y-100357976D01*
X151866668Y-100362360D01*
X151860355Y-100366144D01*
X151853701Y-100369291D01*
X151846771Y-100371771D01*
X151839632Y-100373559D01*
X151832351Y-100374639D01*
X151825000Y-100375000D01*
X151675000Y-100375000D01*
X151667649Y-100374639D01*
X151660368Y-100373559D01*
X151653229Y-100371771D01*
X151646299Y-100369291D01*
X151639645Y-100366144D01*
X151633332Y-100362360D01*
X151627421Y-100357976D01*
X151621967Y-100353033D01*
X151617024Y-100347579D01*
X151612640Y-100341668D01*
X151608856Y-100335355D01*
X151605709Y-100328701D01*
X151603229Y-100321771D01*
X151601441Y-100314632D01*
X151600361Y-100307351D01*
X151600000Y-100300000D01*
X151600000Y-99700000D01*
X151600361Y-99692649D01*
X151601441Y-99685368D01*
X151603229Y-99678229D01*
X151605709Y-99671299D01*
X151608856Y-99664645D01*
X151612640Y-99658332D01*
X151617024Y-99652421D01*
X151621967Y-99646967D01*
X151627421Y-99642024D01*
X151633332Y-99637640D01*
X151639645Y-99633856D01*
X151646299Y-99630709D01*
X151653229Y-99628229D01*
X151660368Y-99626441D01*
X151667649Y-99625361D01*
X151675000Y-99625000D01*
X151825000Y-99625000D01*
X151832351Y-99625361D01*
G37*
G36*
X151332351Y-99625361D02*
G01*
X151339632Y-99626441D01*
X151346771Y-99628229D01*
X151353701Y-99630709D01*
X151360355Y-99633856D01*
X151366668Y-99637640D01*
X151372579Y-99642024D01*
X151378033Y-99646967D01*
X151382976Y-99652421D01*
X151387360Y-99658332D01*
X151391144Y-99664645D01*
X151394291Y-99671299D01*
X151396771Y-99678229D01*
X151398559Y-99685368D01*
X151399639Y-99692649D01*
X151400000Y-99700000D01*
X151400000Y-100300000D01*
X151399639Y-100307351D01*
X151398559Y-100314632D01*
X151396771Y-100321771D01*
X151394291Y-100328701D01*
X151391144Y-100335355D01*
X151387360Y-100341668D01*
X151382976Y-100347579D01*
X151378033Y-100353033D01*
X151372579Y-100357976D01*
X151366668Y-100362360D01*
X151360355Y-100366144D01*
X151353701Y-100369291D01*
X151346771Y-100371771D01*
X151339632Y-100373559D01*
X151332351Y-100374639D01*
X151325000Y-100375000D01*
X151175000Y-100375000D01*
X151167649Y-100374639D01*
X151160368Y-100373559D01*
X151153229Y-100371771D01*
X151146299Y-100369291D01*
X151139645Y-100366144D01*
X151133332Y-100362360D01*
X151127421Y-100357976D01*
X151121967Y-100353033D01*
X151117024Y-100347579D01*
X151112640Y-100341668D01*
X151108856Y-100335355D01*
X151105709Y-100328701D01*
X151103229Y-100321771D01*
X151101441Y-100314632D01*
X151100361Y-100307351D01*
X151100000Y-100300000D01*
X151100000Y-99700000D01*
X151100361Y-99692649D01*
X151101441Y-99685368D01*
X151103229Y-99678229D01*
X151105709Y-99671299D01*
X151108856Y-99664645D01*
X151112640Y-99658332D01*
X151117024Y-99652421D01*
X151121967Y-99646967D01*
X151127421Y-99642024D01*
X151133332Y-99637640D01*
X151139645Y-99633856D01*
X151146299Y-99630709D01*
X151153229Y-99628229D01*
X151160368Y-99626441D01*
X151167649Y-99625361D01*
X151175000Y-99625000D01*
X151325000Y-99625000D01*
X151332351Y-99625361D01*
G37*
G36*
X150832351Y-99625361D02*
G01*
X150839632Y-99626441D01*
X150846771Y-99628229D01*
X150853701Y-99630709D01*
X150860355Y-99633856D01*
X150866668Y-99637640D01*
X150872579Y-99642024D01*
X150878033Y-99646967D01*
X150882976Y-99652421D01*
X150887360Y-99658332D01*
X150891144Y-99664645D01*
X150894291Y-99671299D01*
X150896771Y-99678229D01*
X150898559Y-99685368D01*
X150899639Y-99692649D01*
X150900000Y-99700000D01*
X150900000Y-100300000D01*
X150899639Y-100307351D01*
X150898559Y-100314632D01*
X150896771Y-100321771D01*
X150894291Y-100328701D01*
X150891144Y-100335355D01*
X150887360Y-100341668D01*
X150882976Y-100347579D01*
X150878033Y-100353033D01*
X150872579Y-100357976D01*
X150866668Y-100362360D01*
X150860355Y-100366144D01*
X150853701Y-100369291D01*
X150846771Y-100371771D01*
X150839632Y-100373559D01*
X150832351Y-100374639D01*
X150825000Y-100375000D01*
X150675000Y-100375000D01*
X150667649Y-100374639D01*
X150660368Y-100373559D01*
X150653229Y-100371771D01*
X150646299Y-100369291D01*
X150639645Y-100366144D01*
X150633332Y-100362360D01*
X150627421Y-100357976D01*
X150621967Y-100353033D01*
X150617024Y-100347579D01*
X150612640Y-100341668D01*
X150608856Y-100335355D01*
X150605709Y-100328701D01*
X150603229Y-100321771D01*
X150601441Y-100314632D01*
X150600361Y-100307351D01*
X150600000Y-100300000D01*
X150600000Y-99700000D01*
X150600361Y-99692649D01*
X150601441Y-99685368D01*
X150603229Y-99678229D01*
X150605709Y-99671299D01*
X150608856Y-99664645D01*
X150612640Y-99658332D01*
X150617024Y-99652421D01*
X150621967Y-99646967D01*
X150627421Y-99642024D01*
X150633332Y-99637640D01*
X150639645Y-99633856D01*
X150646299Y-99630709D01*
X150653229Y-99628229D01*
X150660368Y-99626441D01*
X150667649Y-99625361D01*
X150675000Y-99625000D01*
X150825000Y-99625000D01*
X150832351Y-99625361D01*
G37*
G36*
X150332351Y-99625361D02*
G01*
X150339632Y-99626441D01*
X150346771Y-99628229D01*
X150353701Y-99630709D01*
X150360355Y-99633856D01*
X150366668Y-99637640D01*
X150372579Y-99642024D01*
X150378033Y-99646967D01*
X150382976Y-99652421D01*
X150387360Y-99658332D01*
X150391144Y-99664645D01*
X150394291Y-99671299D01*
X150396771Y-99678229D01*
X150398559Y-99685368D01*
X150399639Y-99692649D01*
X150400000Y-99700000D01*
X150400000Y-100300000D01*
X150399639Y-100307351D01*
X150398559Y-100314632D01*
X150396771Y-100321771D01*
X150394291Y-100328701D01*
X150391144Y-100335355D01*
X150387360Y-100341668D01*
X150382976Y-100347579D01*
X150378033Y-100353033D01*
X150372579Y-100357976D01*
X150366668Y-100362360D01*
X150360355Y-100366144D01*
X150353701Y-100369291D01*
X150346771Y-100371771D01*
X150339632Y-100373559D01*
X150332351Y-100374639D01*
X150325000Y-100375000D01*
X150175000Y-100375000D01*
X150167649Y-100374639D01*
X150160368Y-100373559D01*
X150153229Y-100371771D01*
X150146299Y-100369291D01*
X150139645Y-100366144D01*
X150133332Y-100362360D01*
X150127421Y-100357976D01*
X150121967Y-100353033D01*
X150117024Y-100347579D01*
X150112640Y-100341668D01*
X150108856Y-100335355D01*
X150105709Y-100328701D01*
X150103229Y-100321771D01*
X150101441Y-100314632D01*
X150100361Y-100307351D01*
X150100000Y-100300000D01*
X150100000Y-99700000D01*
X150100361Y-99692649D01*
X150101441Y-99685368D01*
X150103229Y-99678229D01*
X150105709Y-99671299D01*
X150108856Y-99664645D01*
X150112640Y-99658332D01*
X150117024Y-99652421D01*
X150121967Y-99646967D01*
X150127421Y-99642024D01*
X150133332Y-99637640D01*
X150139645Y-99633856D01*
X150146299Y-99630709D01*
X150153229Y-99628229D01*
X150160368Y-99626441D01*
X150167649Y-99625361D01*
X150175000Y-99625000D01*
X150325000Y-99625000D01*
X150332351Y-99625361D01*
G37*
G36*
X150332351Y-97625361D02*
G01*
X150339632Y-97626441D01*
X150346771Y-97628229D01*
X150353701Y-97630709D01*
X150360355Y-97633856D01*
X150366668Y-97637640D01*
X150372579Y-97642024D01*
X150378033Y-97646967D01*
X150382976Y-97652421D01*
X150387360Y-97658332D01*
X150391144Y-97664645D01*
X150394291Y-97671299D01*
X150396771Y-97678229D01*
X150398559Y-97685368D01*
X150399639Y-97692649D01*
X150400000Y-97700000D01*
X150400000Y-98300000D01*
X150399639Y-98307351D01*
X150398559Y-98314632D01*
X150396771Y-98321771D01*
X150394291Y-98328701D01*
X150391144Y-98335355D01*
X150387360Y-98341668D01*
X150382976Y-98347579D01*
X150378033Y-98353033D01*
X150372579Y-98357976D01*
X150366668Y-98362360D01*
X150360355Y-98366144D01*
X150353701Y-98369291D01*
X150346771Y-98371771D01*
X150339632Y-98373559D01*
X150332351Y-98374639D01*
X150325000Y-98375000D01*
X150175000Y-98375000D01*
X150167649Y-98374639D01*
X150160368Y-98373559D01*
X150153229Y-98371771D01*
X150146299Y-98369291D01*
X150139645Y-98366144D01*
X150133332Y-98362360D01*
X150127421Y-98357976D01*
X150121967Y-98353033D01*
X150117024Y-98347579D01*
X150112640Y-98341668D01*
X150108856Y-98335355D01*
X150105709Y-98328701D01*
X150103229Y-98321771D01*
X150101441Y-98314632D01*
X150100361Y-98307351D01*
X150100000Y-98300000D01*
X150100000Y-97700000D01*
X150100361Y-97692649D01*
X150101441Y-97685368D01*
X150103229Y-97678229D01*
X150105709Y-97671299D01*
X150108856Y-97664645D01*
X150112640Y-97658332D01*
X150117024Y-97652421D01*
X150121967Y-97646967D01*
X150127421Y-97642024D01*
X150133332Y-97637640D01*
X150139645Y-97633856D01*
X150146299Y-97630709D01*
X150153229Y-97628229D01*
X150160368Y-97626441D01*
X150167649Y-97625361D01*
X150175000Y-97625000D01*
X150325000Y-97625000D01*
X150332351Y-97625361D01*
G37*
G36*
X150832351Y-97625361D02*
G01*
X150839632Y-97626441D01*
X150846771Y-97628229D01*
X150853701Y-97630709D01*
X150860355Y-97633856D01*
X150866668Y-97637640D01*
X150872579Y-97642024D01*
X150878033Y-97646967D01*
X150882976Y-97652421D01*
X150887360Y-97658332D01*
X150891144Y-97664645D01*
X150894291Y-97671299D01*
X150896771Y-97678229D01*
X150898559Y-97685368D01*
X150899639Y-97692649D01*
X150900000Y-97700000D01*
X150900000Y-98300000D01*
X150899639Y-98307351D01*
X150898559Y-98314632D01*
X150896771Y-98321771D01*
X150894291Y-98328701D01*
X150891144Y-98335355D01*
X150887360Y-98341668D01*
X150882976Y-98347579D01*
X150878033Y-98353033D01*
X150872579Y-98357976D01*
X150866668Y-98362360D01*
X150860355Y-98366144D01*
X150853701Y-98369291D01*
X150846771Y-98371771D01*
X150839632Y-98373559D01*
X150832351Y-98374639D01*
X150825000Y-98375000D01*
X150675000Y-98375000D01*
X150667649Y-98374639D01*
X150660368Y-98373559D01*
X150653229Y-98371771D01*
X150646299Y-98369291D01*
X150639645Y-98366144D01*
X150633332Y-98362360D01*
X150627421Y-98357976D01*
X150621967Y-98353033D01*
X150617024Y-98347579D01*
X150612640Y-98341668D01*
X150608856Y-98335355D01*
X150605709Y-98328701D01*
X150603229Y-98321771D01*
X150601441Y-98314632D01*
X150600361Y-98307351D01*
X150600000Y-98300000D01*
X150600000Y-97700000D01*
X150600361Y-97692649D01*
X150601441Y-97685368D01*
X150603229Y-97678229D01*
X150605709Y-97671299D01*
X150608856Y-97664645D01*
X150612640Y-97658332D01*
X150617024Y-97652421D01*
X150621967Y-97646967D01*
X150627421Y-97642024D01*
X150633332Y-97637640D01*
X150639645Y-97633856D01*
X150646299Y-97630709D01*
X150653229Y-97628229D01*
X150660368Y-97626441D01*
X150667649Y-97625361D01*
X150675000Y-97625000D01*
X150825000Y-97625000D01*
X150832351Y-97625361D01*
G37*
G36*
X151332351Y-97625361D02*
G01*
X151339632Y-97626441D01*
X151346771Y-97628229D01*
X151353701Y-97630709D01*
X151360355Y-97633856D01*
X151366668Y-97637640D01*
X151372579Y-97642024D01*
X151378033Y-97646967D01*
X151382976Y-97652421D01*
X151387360Y-97658332D01*
X151391144Y-97664645D01*
X151394291Y-97671299D01*
X151396771Y-97678229D01*
X151398559Y-97685368D01*
X151399639Y-97692649D01*
X151400000Y-97700000D01*
X151400000Y-98300000D01*
X151399639Y-98307351D01*
X151398559Y-98314632D01*
X151396771Y-98321771D01*
X151394291Y-98328701D01*
X151391144Y-98335355D01*
X151387360Y-98341668D01*
X151382976Y-98347579D01*
X151378033Y-98353033D01*
X151372579Y-98357976D01*
X151366668Y-98362360D01*
X151360355Y-98366144D01*
X151353701Y-98369291D01*
X151346771Y-98371771D01*
X151339632Y-98373559D01*
X151332351Y-98374639D01*
X151325000Y-98375000D01*
X151175000Y-98375000D01*
X151167649Y-98374639D01*
X151160368Y-98373559D01*
X151153229Y-98371771D01*
X151146299Y-98369291D01*
X151139645Y-98366144D01*
X151133332Y-98362360D01*
X151127421Y-98357976D01*
X151121967Y-98353033D01*
X151117024Y-98347579D01*
X151112640Y-98341668D01*
X151108856Y-98335355D01*
X151105709Y-98328701D01*
X151103229Y-98321771D01*
X151101441Y-98314632D01*
X151100361Y-98307351D01*
X151100000Y-98300000D01*
X151100000Y-97700000D01*
X151100361Y-97692649D01*
X151101441Y-97685368D01*
X151103229Y-97678229D01*
X151105709Y-97671299D01*
X151108856Y-97664645D01*
X151112640Y-97658332D01*
X151117024Y-97652421D01*
X151121967Y-97646967D01*
X151127421Y-97642024D01*
X151133332Y-97637640D01*
X151139645Y-97633856D01*
X151146299Y-97630709D01*
X151153229Y-97628229D01*
X151160368Y-97626441D01*
X151167649Y-97625361D01*
X151175000Y-97625000D01*
X151325000Y-97625000D01*
X151332351Y-97625361D01*
G37*
G36*
X151832351Y-97625361D02*
G01*
X151839632Y-97626441D01*
X151846771Y-97628229D01*
X151853701Y-97630709D01*
X151860355Y-97633856D01*
X151866668Y-97637640D01*
X151872579Y-97642024D01*
X151878033Y-97646967D01*
X151882976Y-97652421D01*
X151887360Y-97658332D01*
X151891144Y-97664645D01*
X151894291Y-97671299D01*
X151896771Y-97678229D01*
X151898559Y-97685368D01*
X151899639Y-97692649D01*
X151900000Y-97700000D01*
X151900000Y-98300000D01*
X151899639Y-98307351D01*
X151898559Y-98314632D01*
X151896771Y-98321771D01*
X151894291Y-98328701D01*
X151891144Y-98335355D01*
X151887360Y-98341668D01*
X151882976Y-98347579D01*
X151878033Y-98353033D01*
X151872579Y-98357976D01*
X151866668Y-98362360D01*
X151860355Y-98366144D01*
X151853701Y-98369291D01*
X151846771Y-98371771D01*
X151839632Y-98373559D01*
X151832351Y-98374639D01*
X151825000Y-98375000D01*
X151675000Y-98375000D01*
X151667649Y-98374639D01*
X151660368Y-98373559D01*
X151653229Y-98371771D01*
X151646299Y-98369291D01*
X151639645Y-98366144D01*
X151633332Y-98362360D01*
X151627421Y-98357976D01*
X151621967Y-98353033D01*
X151617024Y-98347579D01*
X151612640Y-98341668D01*
X151608856Y-98335355D01*
X151605709Y-98328701D01*
X151603229Y-98321771D01*
X151601441Y-98314632D01*
X151600361Y-98307351D01*
X151600000Y-98300000D01*
X151600000Y-97700000D01*
X151600361Y-97692649D01*
X151601441Y-97685368D01*
X151603229Y-97678229D01*
X151605709Y-97671299D01*
X151608856Y-97664645D01*
X151612640Y-97658332D01*
X151617024Y-97652421D01*
X151621967Y-97646967D01*
X151627421Y-97642024D01*
X151633332Y-97637640D01*
X151639645Y-97633856D01*
X151646299Y-97630709D01*
X151653229Y-97628229D01*
X151660368Y-97626441D01*
X151667649Y-97625361D01*
X151675000Y-97625000D01*
X151825000Y-97625000D01*
X151832351Y-97625361D01*
G37*
G36*
X88202351Y-91335361D02*
G01*
X88209632Y-91336441D01*
X88216771Y-91338229D01*
X88223701Y-91340709D01*
X88230355Y-91343856D01*
X88236668Y-91347640D01*
X88242579Y-91352024D01*
X88248033Y-91356967D01*
X88252976Y-91362421D01*
X88257360Y-91368332D01*
X88261144Y-91374645D01*
X88264291Y-91381299D01*
X88266771Y-91388229D01*
X88268559Y-91395368D01*
X88269639Y-91402649D01*
X88270000Y-91410000D01*
X88270000Y-92010000D01*
X88269639Y-92017351D01*
X88268559Y-92024632D01*
X88266771Y-92031771D01*
X88264291Y-92038701D01*
X88261144Y-92045355D01*
X88257360Y-92051668D01*
X88252976Y-92057579D01*
X88248033Y-92063033D01*
X88242579Y-92067976D01*
X88236668Y-92072360D01*
X88230355Y-92076144D01*
X88223701Y-92079291D01*
X88216771Y-92081771D01*
X88209632Y-92083559D01*
X88202351Y-92084639D01*
X88195000Y-92085000D01*
X88045000Y-92085000D01*
X88037649Y-92084639D01*
X88030368Y-92083559D01*
X88023229Y-92081771D01*
X88016299Y-92079291D01*
X88009645Y-92076144D01*
X88003332Y-92072360D01*
X87997421Y-92067976D01*
X87991967Y-92063033D01*
X87987024Y-92057579D01*
X87982640Y-92051668D01*
X87978856Y-92045355D01*
X87975709Y-92038701D01*
X87973229Y-92031771D01*
X87971441Y-92024632D01*
X87970361Y-92017351D01*
X87970000Y-92010000D01*
X87970000Y-91410000D01*
X87970361Y-91402649D01*
X87971441Y-91395368D01*
X87973229Y-91388229D01*
X87975709Y-91381299D01*
X87978856Y-91374645D01*
X87982640Y-91368332D01*
X87987024Y-91362421D01*
X87991967Y-91356967D01*
X87997421Y-91352024D01*
X88003332Y-91347640D01*
X88009645Y-91343856D01*
X88016299Y-91340709D01*
X88023229Y-91338229D01*
X88030368Y-91336441D01*
X88037649Y-91335361D01*
X88045000Y-91335000D01*
X88195000Y-91335000D01*
X88202351Y-91335361D01*
G37*
G36*
X87702351Y-91335361D02*
G01*
X87709632Y-91336441D01*
X87716771Y-91338229D01*
X87723701Y-91340709D01*
X87730355Y-91343856D01*
X87736668Y-91347640D01*
X87742579Y-91352024D01*
X87748033Y-91356967D01*
X87752976Y-91362421D01*
X87757360Y-91368332D01*
X87761144Y-91374645D01*
X87764291Y-91381299D01*
X87766771Y-91388229D01*
X87768559Y-91395368D01*
X87769639Y-91402649D01*
X87770000Y-91410000D01*
X87770000Y-92010000D01*
X87769639Y-92017351D01*
X87768559Y-92024632D01*
X87766771Y-92031771D01*
X87764291Y-92038701D01*
X87761144Y-92045355D01*
X87757360Y-92051668D01*
X87752976Y-92057579D01*
X87748033Y-92063033D01*
X87742579Y-92067976D01*
X87736668Y-92072360D01*
X87730355Y-92076144D01*
X87723701Y-92079291D01*
X87716771Y-92081771D01*
X87709632Y-92083559D01*
X87702351Y-92084639D01*
X87695000Y-92085000D01*
X87545000Y-92085000D01*
X87537649Y-92084639D01*
X87530368Y-92083559D01*
X87523229Y-92081771D01*
X87516299Y-92079291D01*
X87509645Y-92076144D01*
X87503332Y-92072360D01*
X87497421Y-92067976D01*
X87491967Y-92063033D01*
X87487024Y-92057579D01*
X87482640Y-92051668D01*
X87478856Y-92045355D01*
X87475709Y-92038701D01*
X87473229Y-92031771D01*
X87471441Y-92024632D01*
X87470361Y-92017351D01*
X87470000Y-92010000D01*
X87470000Y-91410000D01*
X87470361Y-91402649D01*
X87471441Y-91395368D01*
X87473229Y-91388229D01*
X87475709Y-91381299D01*
X87478856Y-91374645D01*
X87482640Y-91368332D01*
X87487024Y-91362421D01*
X87491967Y-91356967D01*
X87497421Y-91352024D01*
X87503332Y-91347640D01*
X87509645Y-91343856D01*
X87516299Y-91340709D01*
X87523229Y-91338229D01*
X87530368Y-91336441D01*
X87537649Y-91335361D01*
X87545000Y-91335000D01*
X87695000Y-91335000D01*
X87702351Y-91335361D01*
G37*
G36*
X87202351Y-91335361D02*
G01*
X87209632Y-91336441D01*
X87216771Y-91338229D01*
X87223701Y-91340709D01*
X87230355Y-91343856D01*
X87236668Y-91347640D01*
X87242579Y-91352024D01*
X87248033Y-91356967D01*
X87252976Y-91362421D01*
X87257360Y-91368332D01*
X87261144Y-91374645D01*
X87264291Y-91381299D01*
X87266771Y-91388229D01*
X87268559Y-91395368D01*
X87269639Y-91402649D01*
X87270000Y-91410000D01*
X87270000Y-92010000D01*
X87269639Y-92017351D01*
X87268559Y-92024632D01*
X87266771Y-92031771D01*
X87264291Y-92038701D01*
X87261144Y-92045355D01*
X87257360Y-92051668D01*
X87252976Y-92057579D01*
X87248033Y-92063033D01*
X87242579Y-92067976D01*
X87236668Y-92072360D01*
X87230355Y-92076144D01*
X87223701Y-92079291D01*
X87216771Y-92081771D01*
X87209632Y-92083559D01*
X87202351Y-92084639D01*
X87195000Y-92085000D01*
X87045000Y-92085000D01*
X87037649Y-92084639D01*
X87030368Y-92083559D01*
X87023229Y-92081771D01*
X87016299Y-92079291D01*
X87009645Y-92076144D01*
X87003332Y-92072360D01*
X86997421Y-92067976D01*
X86991967Y-92063033D01*
X86987024Y-92057579D01*
X86982640Y-92051668D01*
X86978856Y-92045355D01*
X86975709Y-92038701D01*
X86973229Y-92031771D01*
X86971441Y-92024632D01*
X86970361Y-92017351D01*
X86970000Y-92010000D01*
X86970000Y-91410000D01*
X86970361Y-91402649D01*
X86971441Y-91395368D01*
X86973229Y-91388229D01*
X86975709Y-91381299D01*
X86978856Y-91374645D01*
X86982640Y-91368332D01*
X86987024Y-91362421D01*
X86991967Y-91356967D01*
X86997421Y-91352024D01*
X87003332Y-91347640D01*
X87009645Y-91343856D01*
X87016299Y-91340709D01*
X87023229Y-91338229D01*
X87030368Y-91336441D01*
X87037649Y-91335361D01*
X87045000Y-91335000D01*
X87195000Y-91335000D01*
X87202351Y-91335361D01*
G37*
G36*
X86702351Y-91335361D02*
G01*
X86709632Y-91336441D01*
X86716771Y-91338229D01*
X86723701Y-91340709D01*
X86730355Y-91343856D01*
X86736668Y-91347640D01*
X86742579Y-91352024D01*
X86748033Y-91356967D01*
X86752976Y-91362421D01*
X86757360Y-91368332D01*
X86761144Y-91374645D01*
X86764291Y-91381299D01*
X86766771Y-91388229D01*
X86768559Y-91395368D01*
X86769639Y-91402649D01*
X86770000Y-91410000D01*
X86770000Y-92010000D01*
X86769639Y-92017351D01*
X86768559Y-92024632D01*
X86766771Y-92031771D01*
X86764291Y-92038701D01*
X86761144Y-92045355D01*
X86757360Y-92051668D01*
X86752976Y-92057579D01*
X86748033Y-92063033D01*
X86742579Y-92067976D01*
X86736668Y-92072360D01*
X86730355Y-92076144D01*
X86723701Y-92079291D01*
X86716771Y-92081771D01*
X86709632Y-92083559D01*
X86702351Y-92084639D01*
X86695000Y-92085000D01*
X86545000Y-92085000D01*
X86537649Y-92084639D01*
X86530368Y-92083559D01*
X86523229Y-92081771D01*
X86516299Y-92079291D01*
X86509645Y-92076144D01*
X86503332Y-92072360D01*
X86497421Y-92067976D01*
X86491967Y-92063033D01*
X86487024Y-92057579D01*
X86482640Y-92051668D01*
X86478856Y-92045355D01*
X86475709Y-92038701D01*
X86473229Y-92031771D01*
X86471441Y-92024632D01*
X86470361Y-92017351D01*
X86470000Y-92010000D01*
X86470000Y-91410000D01*
X86470361Y-91402649D01*
X86471441Y-91395368D01*
X86473229Y-91388229D01*
X86475709Y-91381299D01*
X86478856Y-91374645D01*
X86482640Y-91368332D01*
X86487024Y-91362421D01*
X86491967Y-91356967D01*
X86497421Y-91352024D01*
X86503332Y-91347640D01*
X86509645Y-91343856D01*
X86516299Y-91340709D01*
X86523229Y-91338229D01*
X86530368Y-91336441D01*
X86537649Y-91335361D01*
X86545000Y-91335000D01*
X86695000Y-91335000D01*
X86702351Y-91335361D01*
G37*
G36*
X86702351Y-93335361D02*
G01*
X86709632Y-93336441D01*
X86716771Y-93338229D01*
X86723701Y-93340709D01*
X86730355Y-93343856D01*
X86736668Y-93347640D01*
X86742579Y-93352024D01*
X86748033Y-93356967D01*
X86752976Y-93362421D01*
X86757360Y-93368332D01*
X86761144Y-93374645D01*
X86764291Y-93381299D01*
X86766771Y-93388229D01*
X86768559Y-93395368D01*
X86769639Y-93402649D01*
X86770000Y-93410000D01*
X86770000Y-94010000D01*
X86769639Y-94017351D01*
X86768559Y-94024632D01*
X86766771Y-94031771D01*
X86764291Y-94038701D01*
X86761144Y-94045355D01*
X86757360Y-94051668D01*
X86752976Y-94057579D01*
X86748033Y-94063033D01*
X86742579Y-94067976D01*
X86736668Y-94072360D01*
X86730355Y-94076144D01*
X86723701Y-94079291D01*
X86716771Y-94081771D01*
X86709632Y-94083559D01*
X86702351Y-94084639D01*
X86695000Y-94085000D01*
X86545000Y-94085000D01*
X86537649Y-94084639D01*
X86530368Y-94083559D01*
X86523229Y-94081771D01*
X86516299Y-94079291D01*
X86509645Y-94076144D01*
X86503332Y-94072360D01*
X86497421Y-94067976D01*
X86491967Y-94063033D01*
X86487024Y-94057579D01*
X86482640Y-94051668D01*
X86478856Y-94045355D01*
X86475709Y-94038701D01*
X86473229Y-94031771D01*
X86471441Y-94024632D01*
X86470361Y-94017351D01*
X86470000Y-94010000D01*
X86470000Y-93410000D01*
X86470361Y-93402649D01*
X86471441Y-93395368D01*
X86473229Y-93388229D01*
X86475709Y-93381299D01*
X86478856Y-93374645D01*
X86482640Y-93368332D01*
X86487024Y-93362421D01*
X86491967Y-93356967D01*
X86497421Y-93352024D01*
X86503332Y-93347640D01*
X86509645Y-93343856D01*
X86516299Y-93340709D01*
X86523229Y-93338229D01*
X86530368Y-93336441D01*
X86537649Y-93335361D01*
X86545000Y-93335000D01*
X86695000Y-93335000D01*
X86702351Y-93335361D01*
G37*
G36*
X87202351Y-93335361D02*
G01*
X87209632Y-93336441D01*
X87216771Y-93338229D01*
X87223701Y-93340709D01*
X87230355Y-93343856D01*
X87236668Y-93347640D01*
X87242579Y-93352024D01*
X87248033Y-93356967D01*
X87252976Y-93362421D01*
X87257360Y-93368332D01*
X87261144Y-93374645D01*
X87264291Y-93381299D01*
X87266771Y-93388229D01*
X87268559Y-93395368D01*
X87269639Y-93402649D01*
X87270000Y-93410000D01*
X87270000Y-94010000D01*
X87269639Y-94017351D01*
X87268559Y-94024632D01*
X87266771Y-94031771D01*
X87264291Y-94038701D01*
X87261144Y-94045355D01*
X87257360Y-94051668D01*
X87252976Y-94057579D01*
X87248033Y-94063033D01*
X87242579Y-94067976D01*
X87236668Y-94072360D01*
X87230355Y-94076144D01*
X87223701Y-94079291D01*
X87216771Y-94081771D01*
X87209632Y-94083559D01*
X87202351Y-94084639D01*
X87195000Y-94085000D01*
X87045000Y-94085000D01*
X87037649Y-94084639D01*
X87030368Y-94083559D01*
X87023229Y-94081771D01*
X87016299Y-94079291D01*
X87009645Y-94076144D01*
X87003332Y-94072360D01*
X86997421Y-94067976D01*
X86991967Y-94063033D01*
X86987024Y-94057579D01*
X86982640Y-94051668D01*
X86978856Y-94045355D01*
X86975709Y-94038701D01*
X86973229Y-94031771D01*
X86971441Y-94024632D01*
X86970361Y-94017351D01*
X86970000Y-94010000D01*
X86970000Y-93410000D01*
X86970361Y-93402649D01*
X86971441Y-93395368D01*
X86973229Y-93388229D01*
X86975709Y-93381299D01*
X86978856Y-93374645D01*
X86982640Y-93368332D01*
X86987024Y-93362421D01*
X86991967Y-93356967D01*
X86997421Y-93352024D01*
X87003332Y-93347640D01*
X87009645Y-93343856D01*
X87016299Y-93340709D01*
X87023229Y-93338229D01*
X87030368Y-93336441D01*
X87037649Y-93335361D01*
X87045000Y-93335000D01*
X87195000Y-93335000D01*
X87202351Y-93335361D01*
G37*
G36*
X87702351Y-93335361D02*
G01*
X87709632Y-93336441D01*
X87716771Y-93338229D01*
X87723701Y-93340709D01*
X87730355Y-93343856D01*
X87736668Y-93347640D01*
X87742579Y-93352024D01*
X87748033Y-93356967D01*
X87752976Y-93362421D01*
X87757360Y-93368332D01*
X87761144Y-93374645D01*
X87764291Y-93381299D01*
X87766771Y-93388229D01*
X87768559Y-93395368D01*
X87769639Y-93402649D01*
X87770000Y-93410000D01*
X87770000Y-94010000D01*
X87769639Y-94017351D01*
X87768559Y-94024632D01*
X87766771Y-94031771D01*
X87764291Y-94038701D01*
X87761144Y-94045355D01*
X87757360Y-94051668D01*
X87752976Y-94057579D01*
X87748033Y-94063033D01*
X87742579Y-94067976D01*
X87736668Y-94072360D01*
X87730355Y-94076144D01*
X87723701Y-94079291D01*
X87716771Y-94081771D01*
X87709632Y-94083559D01*
X87702351Y-94084639D01*
X87695000Y-94085000D01*
X87545000Y-94085000D01*
X87537649Y-94084639D01*
X87530368Y-94083559D01*
X87523229Y-94081771D01*
X87516299Y-94079291D01*
X87509645Y-94076144D01*
X87503332Y-94072360D01*
X87497421Y-94067976D01*
X87491967Y-94063033D01*
X87487024Y-94057579D01*
X87482640Y-94051668D01*
X87478856Y-94045355D01*
X87475709Y-94038701D01*
X87473229Y-94031771D01*
X87471441Y-94024632D01*
X87470361Y-94017351D01*
X87470000Y-94010000D01*
X87470000Y-93410000D01*
X87470361Y-93402649D01*
X87471441Y-93395368D01*
X87473229Y-93388229D01*
X87475709Y-93381299D01*
X87478856Y-93374645D01*
X87482640Y-93368332D01*
X87487024Y-93362421D01*
X87491967Y-93356967D01*
X87497421Y-93352024D01*
X87503332Y-93347640D01*
X87509645Y-93343856D01*
X87516299Y-93340709D01*
X87523229Y-93338229D01*
X87530368Y-93336441D01*
X87537649Y-93335361D01*
X87545000Y-93335000D01*
X87695000Y-93335000D01*
X87702351Y-93335361D01*
G37*
G36*
X88202351Y-93335361D02*
G01*
X88209632Y-93336441D01*
X88216771Y-93338229D01*
X88223701Y-93340709D01*
X88230355Y-93343856D01*
X88236668Y-93347640D01*
X88242579Y-93352024D01*
X88248033Y-93356967D01*
X88252976Y-93362421D01*
X88257360Y-93368332D01*
X88261144Y-93374645D01*
X88264291Y-93381299D01*
X88266771Y-93388229D01*
X88268559Y-93395368D01*
X88269639Y-93402649D01*
X88270000Y-93410000D01*
X88270000Y-94010000D01*
X88269639Y-94017351D01*
X88268559Y-94024632D01*
X88266771Y-94031771D01*
X88264291Y-94038701D01*
X88261144Y-94045355D01*
X88257360Y-94051668D01*
X88252976Y-94057579D01*
X88248033Y-94063033D01*
X88242579Y-94067976D01*
X88236668Y-94072360D01*
X88230355Y-94076144D01*
X88223701Y-94079291D01*
X88216771Y-94081771D01*
X88209632Y-94083559D01*
X88202351Y-94084639D01*
X88195000Y-94085000D01*
X88045000Y-94085000D01*
X88037649Y-94084639D01*
X88030368Y-94083559D01*
X88023229Y-94081771D01*
X88016299Y-94079291D01*
X88009645Y-94076144D01*
X88003332Y-94072360D01*
X87997421Y-94067976D01*
X87991967Y-94063033D01*
X87987024Y-94057579D01*
X87982640Y-94051668D01*
X87978856Y-94045355D01*
X87975709Y-94038701D01*
X87973229Y-94031771D01*
X87971441Y-94024632D01*
X87970361Y-94017351D01*
X87970000Y-94010000D01*
X87970000Y-93410000D01*
X87970361Y-93402649D01*
X87971441Y-93395368D01*
X87973229Y-93388229D01*
X87975709Y-93381299D01*
X87978856Y-93374645D01*
X87982640Y-93368332D01*
X87987024Y-93362421D01*
X87991967Y-93356967D01*
X87997421Y-93352024D01*
X88003332Y-93347640D01*
X88009645Y-93343856D01*
X88016299Y-93340709D01*
X88023229Y-93338229D01*
X88030368Y-93336441D01*
X88037649Y-93335361D01*
X88045000Y-93335000D01*
X88195000Y-93335000D01*
X88202351Y-93335361D01*
G37*
G36*
X87963822Y-92530433D02*
G01*
X87972558Y-92531729D01*
X87981126Y-92533875D01*
X87989442Y-92536851D01*
X87997426Y-92540627D01*
X88005001Y-92545168D01*
X88012095Y-92550429D01*
X88018640Y-92556360D01*
X88024571Y-92562905D01*
X88029832Y-92569999D01*
X88034373Y-92577574D01*
X88038149Y-92585558D01*
X88041125Y-92593874D01*
X88043271Y-92602442D01*
X88044567Y-92611178D01*
X88045000Y-92620000D01*
X88045000Y-92800000D01*
X88044567Y-92808822D01*
X88043271Y-92817558D01*
X88041125Y-92826126D01*
X88038149Y-92834442D01*
X88034373Y-92842426D01*
X88029832Y-92850001D01*
X88024571Y-92857095D01*
X88018640Y-92863640D01*
X88012095Y-92869571D01*
X88005001Y-92874832D01*
X87997426Y-92879373D01*
X87989442Y-92883149D01*
X87981126Y-92886125D01*
X87972558Y-92888271D01*
X87963822Y-92889567D01*
X87955000Y-92890000D01*
X87535000Y-92890000D01*
X87526178Y-92889567D01*
X87517442Y-92888271D01*
X87508874Y-92886125D01*
X87500558Y-92883149D01*
X87492574Y-92879373D01*
X87484999Y-92874832D01*
X87477905Y-92869571D01*
X87471360Y-92863640D01*
X87465429Y-92857095D01*
X87460168Y-92850001D01*
X87455627Y-92842426D01*
X87451851Y-92834442D01*
X87448875Y-92826126D01*
X87446729Y-92817558D01*
X87445433Y-92808822D01*
X87445000Y-92800000D01*
X87445000Y-92620000D01*
X87445433Y-92611178D01*
X87446729Y-92602442D01*
X87448875Y-92593874D01*
X87451851Y-92585558D01*
X87455627Y-92577574D01*
X87460168Y-92569999D01*
X87465429Y-92562905D01*
X87471360Y-92556360D01*
X87477905Y-92550429D01*
X87484999Y-92545168D01*
X87492574Y-92540627D01*
X87500558Y-92536851D01*
X87508874Y-92533875D01*
X87517442Y-92531729D01*
X87526178Y-92530433D01*
X87535000Y-92530000D01*
X87955000Y-92530000D01*
X87963822Y-92530433D01*
G37*
G36*
X87213822Y-92530433D02*
G01*
X87222558Y-92531729D01*
X87231126Y-92533875D01*
X87239442Y-92536851D01*
X87247426Y-92540627D01*
X87255001Y-92545168D01*
X87262095Y-92550429D01*
X87268640Y-92556360D01*
X87274571Y-92562905D01*
X87279832Y-92569999D01*
X87284373Y-92577574D01*
X87288149Y-92585558D01*
X87291125Y-92593874D01*
X87293271Y-92602442D01*
X87294567Y-92611178D01*
X87295000Y-92620000D01*
X87295000Y-92800000D01*
X87294567Y-92808822D01*
X87293271Y-92817558D01*
X87291125Y-92826126D01*
X87288149Y-92834442D01*
X87284373Y-92842426D01*
X87279832Y-92850001D01*
X87274571Y-92857095D01*
X87268640Y-92863640D01*
X87262095Y-92869571D01*
X87255001Y-92874832D01*
X87247426Y-92879373D01*
X87239442Y-92883149D01*
X87231126Y-92886125D01*
X87222558Y-92888271D01*
X87213822Y-92889567D01*
X87205000Y-92890000D01*
X86785000Y-92890000D01*
X86776178Y-92889567D01*
X86767442Y-92888271D01*
X86758874Y-92886125D01*
X86750558Y-92883149D01*
X86742574Y-92879373D01*
X86734999Y-92874832D01*
X86727905Y-92869571D01*
X86721360Y-92863640D01*
X86715429Y-92857095D01*
X86710168Y-92850001D01*
X86705627Y-92842426D01*
X86701851Y-92834442D01*
X86698875Y-92826126D01*
X86696729Y-92817558D01*
X86695433Y-92808822D01*
X86695000Y-92800000D01*
X86695000Y-92620000D01*
X86695433Y-92611178D01*
X86696729Y-92602442D01*
X86698875Y-92593874D01*
X86701851Y-92585558D01*
X86705627Y-92577574D01*
X86710168Y-92569999D01*
X86715429Y-92562905D01*
X86721360Y-92556360D01*
X86727905Y-92550429D01*
X86734999Y-92545168D01*
X86742574Y-92540627D01*
X86750558Y-92536851D01*
X86758874Y-92533875D01*
X86767442Y-92531729D01*
X86776178Y-92530433D01*
X86785000Y-92530000D01*
X87205000Y-92530000D01*
X87213822Y-92530433D01*
G37*
M02*
