G04 #@! TF.GenerationSoftware,KiCad,Pcbnew,(5.1.5-0-10_14)*
G04 #@! TF.CreationDate,2020-09-27T01:00:48-07:00*
G04 #@! TF.ProjectId,Bias_Tester,42696173-5f54-4657-9374-65722e6b6963,rev?*
G04 #@! TF.SameCoordinates,Original*
G04 #@! TF.FileFunction,Soldermask,Bot*
G04 #@! TF.FilePolarity,Negative*
%FSLAX46Y46*%
G04 Gerber Fmt 4.6, Leading zero omitted, Abs format (unit mm)*
G04 Created by KiCad (PCBNEW (5.1.5-0-10_14)) date 2020-09-27 01:00:48*
%MOMM*%
%LPD*%
G04 APERTURE LIST*
%ADD10C,0.150000*%
G04 APERTURE END LIST*
D10*
G36*
X166447990Y-108374896D02*
G01*
X166447992Y-108374897D01*
X166447993Y-108374897D01*
X166621229Y-108446654D01*
X167039452Y-108619888D01*
X167305603Y-108797724D01*
X167571753Y-108975559D01*
X168024441Y-109428247D01*
X168189039Y-109674586D01*
X168380112Y-109960548D01*
X168625104Y-110552010D01*
X168750000Y-111179903D01*
X168750000Y-111820097D01*
X168625104Y-112447990D01*
X168380112Y-113039452D01*
X168024440Y-113571754D01*
X167571754Y-114024440D01*
X167039452Y-114380112D01*
X166621229Y-114553346D01*
X166447993Y-114625103D01*
X166447992Y-114625103D01*
X166447990Y-114625104D01*
X165820097Y-114750000D01*
X165179903Y-114750000D01*
X164552010Y-114625104D01*
X164552008Y-114625103D01*
X164552007Y-114625103D01*
X164378771Y-114553346D01*
X163960548Y-114380112D01*
X163428246Y-114024440D01*
X162975560Y-113571754D01*
X162619888Y-113039452D01*
X162374896Y-112447990D01*
X162250000Y-111820097D01*
X162250000Y-111179903D01*
X162374896Y-110552010D01*
X162619888Y-109960548D01*
X162810961Y-109674586D01*
X162975559Y-109428247D01*
X163428247Y-108975559D01*
X163694397Y-108797724D01*
X163960548Y-108619888D01*
X164378771Y-108446654D01*
X164552007Y-108374897D01*
X164552008Y-108374897D01*
X164552010Y-108374896D01*
X165179903Y-108250000D01*
X165820097Y-108250000D01*
X166447990Y-108374896D01*
G37*
G36*
X76447990Y-108374896D02*
G01*
X76447992Y-108374897D01*
X76447993Y-108374897D01*
X76621229Y-108446654D01*
X77039452Y-108619888D01*
X77305603Y-108797724D01*
X77571753Y-108975559D01*
X78024441Y-109428247D01*
X78189039Y-109674586D01*
X78380112Y-109960548D01*
X78625104Y-110552010D01*
X78750000Y-111179903D01*
X78750000Y-111820097D01*
X78625104Y-112447990D01*
X78380112Y-113039452D01*
X78024440Y-113571754D01*
X77571754Y-114024440D01*
X77039452Y-114380112D01*
X76621229Y-114553346D01*
X76447993Y-114625103D01*
X76447992Y-114625103D01*
X76447990Y-114625104D01*
X75820097Y-114750000D01*
X75179903Y-114750000D01*
X74552010Y-114625104D01*
X74552008Y-114625103D01*
X74552007Y-114625103D01*
X74378771Y-114553346D01*
X73960548Y-114380112D01*
X73428246Y-114024440D01*
X72975560Y-113571754D01*
X72619888Y-113039452D01*
X72374896Y-112447990D01*
X72250000Y-111820097D01*
X72250000Y-111179903D01*
X72374896Y-110552010D01*
X72619888Y-109960548D01*
X72810961Y-109674586D01*
X72975559Y-109428247D01*
X73428247Y-108975559D01*
X73694397Y-108797724D01*
X73960548Y-108619888D01*
X74378771Y-108446654D01*
X74552007Y-108374897D01*
X74552008Y-108374897D01*
X74552010Y-108374896D01*
X75179903Y-108250000D01*
X75820097Y-108250000D01*
X76447990Y-108374896D01*
G37*
G36*
X124609196Y-109799958D02*
G01*
X124609198Y-109799959D01*
X124609199Y-109799959D01*
X124696592Y-109836159D01*
X124845781Y-109897955D01*
X125058702Y-110040224D01*
X125239776Y-110221298D01*
X125382045Y-110434219D01*
X125480042Y-110670804D01*
X125530000Y-110921961D01*
X125530000Y-111178039D01*
X125480042Y-111429196D01*
X125382045Y-111665781D01*
X125239776Y-111878702D01*
X125058702Y-112059776D01*
X124845781Y-112202045D01*
X124696592Y-112263841D01*
X124609199Y-112300041D01*
X124609198Y-112300041D01*
X124609196Y-112300042D01*
X124358039Y-112350000D01*
X124101961Y-112350000D01*
X123850804Y-112300042D01*
X123850802Y-112300041D01*
X123850801Y-112300041D01*
X123763408Y-112263841D01*
X123614219Y-112202045D01*
X123401298Y-112059776D01*
X123220224Y-111878702D01*
X123077955Y-111665781D01*
X122979958Y-111429196D01*
X122930000Y-111178039D01*
X122930000Y-110921961D01*
X122979958Y-110670804D01*
X123077955Y-110434219D01*
X123220224Y-110221298D01*
X123401298Y-110040224D01*
X123614219Y-109897955D01*
X123763408Y-109836159D01*
X123850801Y-109799959D01*
X123850802Y-109799959D01*
X123850804Y-109799958D01*
X124101961Y-109750000D01*
X124358039Y-109750000D01*
X124609196Y-109799958D01*
G37*
G36*
X110262520Y-109674586D02*
G01*
X110262522Y-109674587D01*
X110262523Y-109674587D01*
X110323025Y-109699648D01*
X110426310Y-109742430D01*
X110573717Y-109840924D01*
X110699076Y-109966283D01*
X110797570Y-110113690D01*
X110865414Y-110277480D01*
X110900000Y-110451358D01*
X110900000Y-110628642D01*
X110865414Y-110802520D01*
X110797570Y-110966310D01*
X110699076Y-111113717D01*
X110573717Y-111239076D01*
X110426310Y-111337570D01*
X110323025Y-111380352D01*
X110262523Y-111405413D01*
X110262522Y-111405413D01*
X110262520Y-111405414D01*
X110088642Y-111440000D01*
X109911358Y-111440000D01*
X109737480Y-111405414D01*
X109737478Y-111405413D01*
X109737477Y-111405413D01*
X109676975Y-111380352D01*
X109573690Y-111337570D01*
X109426283Y-111239076D01*
X109300924Y-111113717D01*
X109202430Y-110966310D01*
X109134586Y-110802520D01*
X109100000Y-110628642D01*
X109100000Y-110451358D01*
X109134586Y-110277480D01*
X109202430Y-110113690D01*
X109300924Y-109966283D01*
X109426283Y-109840924D01*
X109573690Y-109742430D01*
X109676975Y-109699648D01*
X109737477Y-109674587D01*
X109737478Y-109674587D01*
X109737480Y-109674586D01*
X109911358Y-109640000D01*
X110088642Y-109640000D01*
X110262520Y-109674586D01*
G37*
G36*
X114536274Y-108740350D02*
G01*
X114727362Y-108819502D01*
X114899336Y-108934411D01*
X115045589Y-109080664D01*
X115160498Y-109252638D01*
X115239650Y-109443726D01*
X115280000Y-109646584D01*
X115280000Y-109853416D01*
X115239650Y-110056274D01*
X115160498Y-110247362D01*
X115045589Y-110419336D01*
X114899336Y-110565589D01*
X114727362Y-110680498D01*
X114536274Y-110759650D01*
X114333416Y-110800000D01*
X114126584Y-110800000D01*
X113923726Y-110759650D01*
X113732638Y-110680498D01*
X113560664Y-110565589D01*
X113414411Y-110419336D01*
X113299502Y-110247362D01*
X113220350Y-110056274D01*
X113180000Y-109853416D01*
X113180000Y-109646584D01*
X113220350Y-109443726D01*
X113299502Y-109252638D01*
X113414411Y-109080664D01*
X113560664Y-108934411D01*
X113732638Y-108819502D01*
X113923726Y-108740350D01*
X114126584Y-108700000D01*
X114333416Y-108700000D01*
X114536274Y-108740350D01*
G37*
G36*
X110900000Y-108900000D02*
G01*
X109100000Y-108900000D01*
X109100000Y-107100000D01*
X110900000Y-107100000D01*
X110900000Y-108900000D01*
G37*
G36*
X114536274Y-104990350D02*
G01*
X114727362Y-105069502D01*
X114899336Y-105184411D01*
X115045589Y-105330664D01*
X115160498Y-105502638D01*
X115239650Y-105693726D01*
X115280000Y-105896584D01*
X115280000Y-106103416D01*
X115239650Y-106306274D01*
X115160498Y-106497362D01*
X115045589Y-106669336D01*
X114899336Y-106815589D01*
X114727362Y-106930498D01*
X114536274Y-107009650D01*
X114333416Y-107050000D01*
X114126584Y-107050000D01*
X113923726Y-107009650D01*
X113732638Y-106930498D01*
X113560664Y-106815589D01*
X113414411Y-106669336D01*
X113299502Y-106497362D01*
X113220350Y-106306274D01*
X113180000Y-106103416D01*
X113180000Y-105896584D01*
X113220350Y-105693726D01*
X113299502Y-105502638D01*
X113414411Y-105330664D01*
X113560664Y-105184411D01*
X113732638Y-105069502D01*
X113923726Y-104990350D01*
X114126584Y-104950000D01*
X114333416Y-104950000D01*
X114536274Y-104990350D01*
G37*
G36*
X75900000Y-106900000D02*
G01*
X74100000Y-106900000D01*
X74100000Y-105100000D01*
X75900000Y-105100000D01*
X75900000Y-106900000D01*
G37*
G36*
X105679196Y-102799958D02*
G01*
X105679198Y-102799959D01*
X105679199Y-102799959D01*
X105766592Y-102836159D01*
X105915781Y-102897955D01*
X106128702Y-103040224D01*
X106309776Y-103221298D01*
X106452045Y-103434219D01*
X106550042Y-103670804D01*
X106600000Y-103921961D01*
X106600000Y-104178039D01*
X106550042Y-104429196D01*
X106452045Y-104665781D01*
X106309776Y-104878702D01*
X106128702Y-105059776D01*
X105915781Y-105202045D01*
X105766592Y-105263841D01*
X105679199Y-105300041D01*
X105679198Y-105300041D01*
X105679196Y-105300042D01*
X105428039Y-105350000D01*
X105171961Y-105350000D01*
X104920804Y-105300042D01*
X104920802Y-105300041D01*
X104920801Y-105300041D01*
X104833408Y-105263841D01*
X104684219Y-105202045D01*
X104471298Y-105059776D01*
X104290224Y-104878702D01*
X104147955Y-104665781D01*
X104049958Y-104429196D01*
X104000000Y-104178039D01*
X104000000Y-103921961D01*
X104049958Y-103670804D01*
X104147955Y-103434219D01*
X104290224Y-103221298D01*
X104471298Y-103040224D01*
X104684219Y-102897955D01*
X104833408Y-102836159D01*
X104920801Y-102799959D01*
X104920802Y-102799959D01*
X104920804Y-102799958D01*
X105171961Y-102750000D01*
X105428039Y-102750000D01*
X105679196Y-102799958D01*
G37*
G36*
X95606274Y-101740350D02*
G01*
X95797362Y-101819502D01*
X95969336Y-101934411D01*
X96115589Y-102080664D01*
X96230498Y-102252638D01*
X96309650Y-102443726D01*
X96350000Y-102646584D01*
X96350000Y-102853416D01*
X96309650Y-103056274D01*
X96230498Y-103247362D01*
X96115589Y-103419336D01*
X95969336Y-103565589D01*
X95797362Y-103680498D01*
X95606274Y-103759650D01*
X95403416Y-103800000D01*
X95196584Y-103800000D01*
X94993726Y-103759650D01*
X94802638Y-103680498D01*
X94630664Y-103565589D01*
X94484411Y-103419336D01*
X94369502Y-103247362D01*
X94290350Y-103056274D01*
X94250000Y-102853416D01*
X94250000Y-102646584D01*
X94290350Y-102443726D01*
X94369502Y-102252638D01*
X94484411Y-102080664D01*
X94630664Y-101934411D01*
X94802638Y-101819502D01*
X94993726Y-101740350D01*
X95196584Y-101700000D01*
X95403416Y-101700000D01*
X95606274Y-101740350D01*
G37*
G36*
X141247936Y-101802665D02*
G01*
X141247938Y-101802666D01*
X141247939Y-101802666D01*
X141402628Y-101866740D01*
X141541842Y-101959760D01*
X141660240Y-102078158D01*
X141753260Y-102217372D01*
X141809611Y-102353416D01*
X141817335Y-102372064D01*
X141850000Y-102536282D01*
X141850000Y-102703718D01*
X141820224Y-102853413D01*
X141817334Y-102867939D01*
X141753260Y-103022628D01*
X141660240Y-103161842D01*
X141541842Y-103280240D01*
X141402628Y-103373260D01*
X141247939Y-103437334D01*
X141247938Y-103437334D01*
X141247936Y-103437335D01*
X141083718Y-103470000D01*
X140916282Y-103470000D01*
X140752064Y-103437335D01*
X140752062Y-103437334D01*
X140752061Y-103437334D01*
X140597372Y-103373260D01*
X140458158Y-103280240D01*
X140339760Y-103161842D01*
X140246740Y-103022628D01*
X140182666Y-102867939D01*
X140179777Y-102853413D01*
X140150000Y-102703718D01*
X140150000Y-102536282D01*
X140182665Y-102372064D01*
X140190389Y-102353416D01*
X140246740Y-102217372D01*
X140339760Y-102078158D01*
X140458158Y-101959760D01*
X140597372Y-101866740D01*
X140752061Y-101802666D01*
X140752062Y-101802666D01*
X140752064Y-101802665D01*
X140916282Y-101770000D01*
X141083718Y-101770000D01*
X141247936Y-101802665D01*
G37*
G36*
X138707936Y-101802665D02*
G01*
X138707938Y-101802666D01*
X138707939Y-101802666D01*
X138862628Y-101866740D01*
X139001842Y-101959760D01*
X139120240Y-102078158D01*
X139213260Y-102217372D01*
X139269611Y-102353416D01*
X139277335Y-102372064D01*
X139310000Y-102536282D01*
X139310000Y-102703718D01*
X139280224Y-102853413D01*
X139277334Y-102867939D01*
X139213260Y-103022628D01*
X139120240Y-103161842D01*
X139001842Y-103280240D01*
X138862628Y-103373260D01*
X138707939Y-103437334D01*
X138707938Y-103437334D01*
X138707936Y-103437335D01*
X138543718Y-103470000D01*
X138376282Y-103470000D01*
X138212064Y-103437335D01*
X138212062Y-103437334D01*
X138212061Y-103437334D01*
X138057372Y-103373260D01*
X137918158Y-103280240D01*
X137799760Y-103161842D01*
X137706740Y-103022628D01*
X137642666Y-102867939D01*
X137639777Y-102853413D01*
X137610000Y-102703718D01*
X137610000Y-102536282D01*
X137642665Y-102372064D01*
X137650389Y-102353416D01*
X137706740Y-102217372D01*
X137799760Y-102078158D01*
X137918158Y-101959760D01*
X138057372Y-101866740D01*
X138212061Y-101802666D01*
X138212062Y-101802666D01*
X138212064Y-101802665D01*
X138376282Y-101770000D01*
X138543718Y-101770000D01*
X138707936Y-101802665D01*
G37*
G36*
X136167936Y-101802665D02*
G01*
X136167938Y-101802666D01*
X136167939Y-101802666D01*
X136322628Y-101866740D01*
X136461842Y-101959760D01*
X136580240Y-102078158D01*
X136673260Y-102217372D01*
X136729611Y-102353416D01*
X136737335Y-102372064D01*
X136770000Y-102536282D01*
X136770000Y-102703718D01*
X136740224Y-102853413D01*
X136737334Y-102867939D01*
X136673260Y-103022628D01*
X136580240Y-103161842D01*
X136461842Y-103280240D01*
X136322628Y-103373260D01*
X136167939Y-103437334D01*
X136167938Y-103437334D01*
X136167936Y-103437335D01*
X136003718Y-103470000D01*
X135836282Y-103470000D01*
X135672064Y-103437335D01*
X135672062Y-103437334D01*
X135672061Y-103437334D01*
X135517372Y-103373260D01*
X135378158Y-103280240D01*
X135259760Y-103161842D01*
X135166740Y-103022628D01*
X135102666Y-102867939D01*
X135099777Y-102853413D01*
X135070000Y-102703718D01*
X135070000Y-102536282D01*
X135102665Y-102372064D01*
X135110389Y-102353416D01*
X135166740Y-102217372D01*
X135259760Y-102078158D01*
X135378158Y-101959760D01*
X135517372Y-101866740D01*
X135672061Y-101802666D01*
X135672062Y-101802666D01*
X135672064Y-101802665D01*
X135836282Y-101770000D01*
X136003718Y-101770000D01*
X136167936Y-101802665D01*
G37*
G36*
X133627936Y-101802665D02*
G01*
X133627938Y-101802666D01*
X133627939Y-101802666D01*
X133782628Y-101866740D01*
X133921842Y-101959760D01*
X134040240Y-102078158D01*
X134133260Y-102217372D01*
X134189611Y-102353416D01*
X134197335Y-102372064D01*
X134230000Y-102536282D01*
X134230000Y-102703718D01*
X134200224Y-102853413D01*
X134197334Y-102867939D01*
X134133260Y-103022628D01*
X134040240Y-103161842D01*
X133921842Y-103280240D01*
X133782628Y-103373260D01*
X133627939Y-103437334D01*
X133627938Y-103437334D01*
X133627936Y-103437335D01*
X133463718Y-103470000D01*
X133296282Y-103470000D01*
X133132064Y-103437335D01*
X133132062Y-103437334D01*
X133132061Y-103437334D01*
X132977372Y-103373260D01*
X132838158Y-103280240D01*
X132719760Y-103161842D01*
X132626740Y-103022628D01*
X132562666Y-102867939D01*
X132559777Y-102853413D01*
X132530000Y-102703718D01*
X132530000Y-102536282D01*
X132562665Y-102372064D01*
X132570389Y-102353416D01*
X132626740Y-102217372D01*
X132719760Y-102078158D01*
X132838158Y-101959760D01*
X132977372Y-101866740D01*
X133132061Y-101802666D01*
X133132062Y-101802666D01*
X133132064Y-101802665D01*
X133296282Y-101770000D01*
X133463718Y-101770000D01*
X133627936Y-101802665D01*
G37*
G36*
X92262520Y-101674586D02*
G01*
X92262522Y-101674587D01*
X92262523Y-101674587D01*
X92323025Y-101699648D01*
X92426310Y-101742430D01*
X92573717Y-101840924D01*
X92699076Y-101966283D01*
X92797570Y-102113690D01*
X92811195Y-102146584D01*
X92854032Y-102250000D01*
X92865414Y-102277480D01*
X92900000Y-102451358D01*
X92900000Y-102628642D01*
X92865414Y-102802520D01*
X92797570Y-102966310D01*
X92699076Y-103113717D01*
X92573717Y-103239076D01*
X92426310Y-103337570D01*
X92340147Y-103373260D01*
X92262523Y-103405413D01*
X92262522Y-103405413D01*
X92262520Y-103405414D01*
X92088642Y-103440000D01*
X91911358Y-103440000D01*
X91737480Y-103405414D01*
X91737478Y-103405413D01*
X91737477Y-103405413D01*
X91659853Y-103373260D01*
X91573690Y-103337570D01*
X91426283Y-103239076D01*
X91300924Y-103113717D01*
X91202430Y-102966310D01*
X91134586Y-102802520D01*
X91100000Y-102628642D01*
X91100000Y-102451358D01*
X91134586Y-102277480D01*
X91145969Y-102250000D01*
X91188805Y-102146584D01*
X91202430Y-102113690D01*
X91300924Y-101966283D01*
X91426283Y-101840924D01*
X91573690Y-101742430D01*
X91676975Y-101699648D01*
X91737477Y-101674587D01*
X91737478Y-101674587D01*
X91737480Y-101674586D01*
X91911358Y-101640000D01*
X92088642Y-101640000D01*
X92262520Y-101674586D01*
G37*
G36*
X114536274Y-101240350D02*
G01*
X114727362Y-101319502D01*
X114899336Y-101434411D01*
X115045589Y-101580664D01*
X115160498Y-101752638D01*
X115239650Y-101943726D01*
X115280000Y-102146584D01*
X115280000Y-102353416D01*
X115239650Y-102556274D01*
X115160498Y-102747362D01*
X115045589Y-102919336D01*
X114899336Y-103065589D01*
X114727362Y-103180498D01*
X114536274Y-103259650D01*
X114333416Y-103300000D01*
X114126584Y-103300000D01*
X113923726Y-103259650D01*
X113732638Y-103180498D01*
X113560664Y-103065589D01*
X113414411Y-102919336D01*
X113299502Y-102747362D01*
X113220350Y-102556274D01*
X113180000Y-102353416D01*
X113180000Y-102146584D01*
X113220350Y-101943726D01*
X113299502Y-101752638D01*
X113414411Y-101580664D01*
X113560664Y-101434411D01*
X113732638Y-101319502D01*
X113923726Y-101240350D01*
X114126584Y-101200000D01*
X114333416Y-101200000D01*
X114536274Y-101240350D01*
G37*
G36*
X74239922Y-101859405D02*
G01*
X74342989Y-101890670D01*
X74362449Y-101896573D01*
X74433238Y-101934411D01*
X74475368Y-101956930D01*
X74574343Y-102038157D01*
X74655570Y-102137132D01*
X74655571Y-102137134D01*
X74715927Y-102250051D01*
X74716712Y-102252639D01*
X74753095Y-102372578D01*
X74765645Y-102500000D01*
X74753095Y-102627422D01*
X74721830Y-102730489D01*
X74715927Y-102749949D01*
X74689196Y-102799958D01*
X74655570Y-102862868D01*
X74574343Y-102961843D01*
X74475368Y-103043070D01*
X74475366Y-103043071D01*
X74362449Y-103103427D01*
X74342989Y-103109330D01*
X74239922Y-103140595D01*
X74144432Y-103150000D01*
X73380568Y-103150000D01*
X73285078Y-103140595D01*
X73182011Y-103109330D01*
X73162551Y-103103427D01*
X73049634Y-103043071D01*
X73049632Y-103043070D01*
X72950657Y-102961843D01*
X72869430Y-102862868D01*
X72835804Y-102799958D01*
X72809073Y-102749949D01*
X72803170Y-102730489D01*
X72771905Y-102627422D01*
X72759355Y-102500000D01*
X72771905Y-102372578D01*
X72808288Y-102252639D01*
X72809073Y-102250051D01*
X72869429Y-102137134D01*
X72869430Y-102137132D01*
X72950657Y-102038157D01*
X73049632Y-101956930D01*
X73091762Y-101934411D01*
X73162551Y-101896573D01*
X73182011Y-101890670D01*
X73285078Y-101859405D01*
X73380568Y-101850000D01*
X74144432Y-101850000D01*
X74239922Y-101859405D01*
G37*
G36*
X76588740Y-100734928D02*
G01*
X76688561Y-100754783D01*
X76829602Y-100813205D01*
X76956533Y-100898017D01*
X77064483Y-101005967D01*
X77149295Y-101132898D01*
X77207717Y-101273939D01*
X77237500Y-101423670D01*
X77237500Y-101576330D01*
X77207717Y-101726061D01*
X77149295Y-101867102D01*
X77064483Y-101994033D01*
X76956533Y-102101983D01*
X76829602Y-102186795D01*
X76688561Y-102245217D01*
X76588740Y-102265072D01*
X76538831Y-102275000D01*
X76386169Y-102275000D01*
X76336260Y-102265072D01*
X76236439Y-102245217D01*
X76095398Y-102186795D01*
X75968467Y-102101983D01*
X75860517Y-101994033D01*
X75775705Y-101867102D01*
X75717283Y-101726061D01*
X75687500Y-101576330D01*
X75687500Y-101423670D01*
X75717283Y-101273939D01*
X75775705Y-101132898D01*
X75860517Y-101005967D01*
X75968467Y-100898017D01*
X76095398Y-100813205D01*
X76236439Y-100754783D01*
X76336260Y-100734928D01*
X76386169Y-100725000D01*
X76538831Y-100725000D01*
X76588740Y-100734928D01*
G37*
G36*
X124609196Y-99699958D02*
G01*
X124609198Y-99699959D01*
X124609199Y-99699959D01*
X124696592Y-99736159D01*
X124845781Y-99797955D01*
X125058702Y-99940224D01*
X125239776Y-100121298D01*
X125382045Y-100334219D01*
X125480042Y-100570804D01*
X125530000Y-100821961D01*
X125530000Y-101078039D01*
X125480042Y-101329196D01*
X125382045Y-101565781D01*
X125239776Y-101778702D01*
X125058702Y-101959776D01*
X124845781Y-102102045D01*
X124738247Y-102146587D01*
X124609199Y-102200041D01*
X124609198Y-102200041D01*
X124609196Y-102200042D01*
X124358039Y-102250000D01*
X124101961Y-102250000D01*
X123850804Y-102200042D01*
X123850802Y-102200041D01*
X123850801Y-102200041D01*
X123721753Y-102146587D01*
X123614219Y-102102045D01*
X123401298Y-101959776D01*
X123220224Y-101778702D01*
X123077955Y-101565781D01*
X122979958Y-101329196D01*
X122930000Y-101078039D01*
X122930000Y-100821961D01*
X122979958Y-100570804D01*
X123077955Y-100334219D01*
X123220224Y-100121298D01*
X123401298Y-99940224D01*
X123614219Y-99797955D01*
X123763408Y-99736159D01*
X123850801Y-99699959D01*
X123850802Y-99699959D01*
X123850804Y-99699958D01*
X124101961Y-99650000D01*
X124358039Y-99650000D01*
X124609196Y-99699958D01*
G37*
G36*
X164900000Y-101300000D02*
G01*
X163100000Y-101300000D01*
X163100000Y-99500000D01*
X164900000Y-99500000D01*
X164900000Y-101300000D01*
G37*
G36*
X92900000Y-100900000D02*
G01*
X91100000Y-100900000D01*
X91100000Y-99100000D01*
X92900000Y-99100000D01*
X92900000Y-100900000D01*
G37*
G36*
X95606274Y-97990350D02*
G01*
X95797362Y-98069502D01*
X95969336Y-98184411D01*
X96115589Y-98330664D01*
X96230498Y-98502638D01*
X96309650Y-98693726D01*
X96350000Y-98896584D01*
X96350000Y-99103416D01*
X96309650Y-99306274D01*
X96230498Y-99497362D01*
X96115589Y-99669336D01*
X95969336Y-99815589D01*
X95797362Y-99930498D01*
X95606274Y-100009650D01*
X95403416Y-100050000D01*
X95196584Y-100050000D01*
X94993726Y-100009650D01*
X94802638Y-99930498D01*
X94630664Y-99815589D01*
X94484411Y-99669336D01*
X94369502Y-99497362D01*
X94290350Y-99306274D01*
X94250000Y-99103416D01*
X94250000Y-98896584D01*
X94290350Y-98693726D01*
X94369502Y-98502638D01*
X94484411Y-98330664D01*
X94630664Y-98184411D01*
X94802638Y-98069502D01*
X94993726Y-97990350D01*
X95196584Y-97950000D01*
X95403416Y-97950000D01*
X95606274Y-97990350D01*
G37*
G36*
X164262520Y-96994586D02*
G01*
X164262522Y-96994587D01*
X164262523Y-96994587D01*
X164323025Y-97019648D01*
X164426310Y-97062430D01*
X164573717Y-97160924D01*
X164699076Y-97286283D01*
X164797570Y-97433690D01*
X164865414Y-97597480D01*
X164900000Y-97771358D01*
X164900000Y-97948642D01*
X164865414Y-98122520D01*
X164797570Y-98286310D01*
X164699076Y-98433717D01*
X164573717Y-98559076D01*
X164426310Y-98657570D01*
X164323025Y-98700352D01*
X164262523Y-98725413D01*
X164262522Y-98725413D01*
X164262520Y-98725414D01*
X164088642Y-98760000D01*
X163911358Y-98760000D01*
X163737480Y-98725414D01*
X163737478Y-98725413D01*
X163737477Y-98725413D01*
X163676975Y-98700352D01*
X163573690Y-98657570D01*
X163426283Y-98559076D01*
X163300924Y-98433717D01*
X163202430Y-98286310D01*
X163134586Y-98122520D01*
X163100000Y-97948642D01*
X163100000Y-97771358D01*
X163134586Y-97597480D01*
X163202430Y-97433690D01*
X163300924Y-97286283D01*
X163426283Y-97160924D01*
X163573690Y-97062430D01*
X163676975Y-97019648D01*
X163737477Y-96994587D01*
X163737478Y-96994587D01*
X163737480Y-96994586D01*
X163911358Y-96960000D01*
X164088642Y-96960000D01*
X164262520Y-96994586D01*
G37*
G36*
X124609196Y-95799958D02*
G01*
X124609198Y-95799959D01*
X124609199Y-95799959D01*
X124651148Y-95817335D01*
X124845781Y-95897955D01*
X125058702Y-96040224D01*
X125239776Y-96221298D01*
X125382045Y-96434219D01*
X125480042Y-96670804D01*
X125530000Y-96921961D01*
X125530000Y-97178039D01*
X125480042Y-97429196D01*
X125382045Y-97665781D01*
X125239776Y-97878702D01*
X125058702Y-98059776D01*
X124845781Y-98202045D01*
X124696592Y-98263841D01*
X124609199Y-98300041D01*
X124609198Y-98300041D01*
X124609196Y-98300042D01*
X124358039Y-98350000D01*
X124101961Y-98350000D01*
X123850804Y-98300042D01*
X123850802Y-98300041D01*
X123850801Y-98300041D01*
X123763408Y-98263841D01*
X123614219Y-98202045D01*
X123401298Y-98059776D01*
X123220224Y-97878702D01*
X123077955Y-97665781D01*
X122979958Y-97429196D01*
X122930000Y-97178039D01*
X122930000Y-96921961D01*
X122979958Y-96670804D01*
X123077955Y-96434219D01*
X123220224Y-96221298D01*
X123401298Y-96040224D01*
X123614219Y-95897955D01*
X123808852Y-95817335D01*
X123850801Y-95799959D01*
X123850802Y-95799959D01*
X123850804Y-95799958D01*
X124101961Y-95750000D01*
X124358039Y-95750000D01*
X124609196Y-95799958D01*
G37*
G36*
X76588740Y-95734928D02*
G01*
X76688561Y-95754783D01*
X76829602Y-95813205D01*
X76956533Y-95898017D01*
X77064483Y-96005967D01*
X77149295Y-96132898D01*
X77207717Y-96273939D01*
X77237500Y-96423670D01*
X77237500Y-96576330D01*
X77207717Y-96726061D01*
X77149295Y-96867102D01*
X77064483Y-96994033D01*
X76956533Y-97101983D01*
X76829602Y-97186795D01*
X76688561Y-97245217D01*
X76588740Y-97265072D01*
X76538831Y-97275000D01*
X76386169Y-97275000D01*
X76336260Y-97265072D01*
X76236439Y-97245217D01*
X76095398Y-97186795D01*
X75968467Y-97101983D01*
X75860517Y-96994033D01*
X75775705Y-96867102D01*
X75717283Y-96726061D01*
X75687500Y-96576330D01*
X75687500Y-96423670D01*
X75717283Y-96273939D01*
X75775705Y-96132898D01*
X75860517Y-96005967D01*
X75968467Y-95898017D01*
X76095398Y-95813205D01*
X76236439Y-95754783D01*
X76336260Y-95734928D01*
X76386169Y-95725000D01*
X76538831Y-95725000D01*
X76588740Y-95734928D01*
G37*
G36*
X114536274Y-94740350D02*
G01*
X114727362Y-94819502D01*
X114899336Y-94934411D01*
X115045589Y-95080664D01*
X115160498Y-95252638D01*
X115239650Y-95443726D01*
X115280000Y-95646584D01*
X115280000Y-95853416D01*
X115239650Y-96056274D01*
X115160498Y-96247362D01*
X115045589Y-96419336D01*
X114899336Y-96565589D01*
X114727362Y-96680498D01*
X114536274Y-96759650D01*
X114333416Y-96800000D01*
X114126584Y-96800000D01*
X113923726Y-96759650D01*
X113732638Y-96680498D01*
X113560664Y-96565589D01*
X113414411Y-96419336D01*
X113299502Y-96247362D01*
X113220350Y-96056274D01*
X113180000Y-95853416D01*
X113180000Y-95646584D01*
X113220350Y-95443726D01*
X113299502Y-95252638D01*
X113414411Y-95080664D01*
X113560664Y-94934411D01*
X113732638Y-94819502D01*
X113923726Y-94740350D01*
X114126584Y-94700000D01*
X114333416Y-94700000D01*
X114536274Y-94740350D01*
G37*
G36*
X95606274Y-94240350D02*
G01*
X95797362Y-94319502D01*
X95969336Y-94434411D01*
X96115589Y-94580664D01*
X96230498Y-94752638D01*
X96309650Y-94943726D01*
X96350000Y-95146584D01*
X96350000Y-95353416D01*
X96309650Y-95556274D01*
X96230498Y-95747362D01*
X96115589Y-95919336D01*
X95969336Y-96065589D01*
X95797362Y-96180498D01*
X95606274Y-96259650D01*
X95403416Y-96300000D01*
X95196584Y-96300000D01*
X94993726Y-96259650D01*
X94802638Y-96180498D01*
X94630664Y-96065589D01*
X94484411Y-95919336D01*
X94369502Y-95747362D01*
X94290350Y-95556274D01*
X94250000Y-95353416D01*
X94250000Y-95146584D01*
X94290350Y-94943726D01*
X94369502Y-94752638D01*
X94484411Y-94580664D01*
X94630664Y-94434411D01*
X94802638Y-94319502D01*
X94993726Y-94240350D01*
X95196584Y-94200000D01*
X95403416Y-94200000D01*
X95606274Y-94240350D01*
G37*
G36*
X74239922Y-94859405D02*
G01*
X74342989Y-94890670D01*
X74362449Y-94896573D01*
X74399325Y-94916284D01*
X74475368Y-94956930D01*
X74574343Y-95038157D01*
X74655570Y-95137132D01*
X74655571Y-95137134D01*
X74715927Y-95250051D01*
X74716712Y-95252639D01*
X74753095Y-95372578D01*
X74765645Y-95500000D01*
X74753095Y-95627422D01*
X74723495Y-95725000D01*
X74715927Y-95749949D01*
X74679908Y-95817335D01*
X74655570Y-95862868D01*
X74574343Y-95961843D01*
X74475368Y-96043070D01*
X74475366Y-96043071D01*
X74362449Y-96103427D01*
X74342989Y-96109330D01*
X74239922Y-96140595D01*
X74144432Y-96150000D01*
X73380568Y-96150000D01*
X73285078Y-96140595D01*
X73182011Y-96109330D01*
X73162551Y-96103427D01*
X73049634Y-96043071D01*
X73049632Y-96043070D01*
X72950657Y-95961843D01*
X72869430Y-95862868D01*
X72845092Y-95817335D01*
X72809073Y-95749949D01*
X72801505Y-95725000D01*
X72771905Y-95627422D01*
X72759355Y-95500000D01*
X72771905Y-95372578D01*
X72808288Y-95252639D01*
X72809073Y-95250051D01*
X72869429Y-95137134D01*
X72869430Y-95137132D01*
X72950657Y-95038157D01*
X73049632Y-94956930D01*
X73125675Y-94916284D01*
X73162551Y-94896573D01*
X73182011Y-94890670D01*
X73285078Y-94859405D01*
X73380568Y-94850000D01*
X74144432Y-94850000D01*
X74239922Y-94859405D01*
G37*
G36*
X133627936Y-94182665D02*
G01*
X133627938Y-94182666D01*
X133627939Y-94182666D01*
X133782628Y-94246740D01*
X133921842Y-94339760D01*
X134040240Y-94458158D01*
X134133260Y-94597372D01*
X134192483Y-94740350D01*
X134197335Y-94752064D01*
X134230000Y-94916282D01*
X134230000Y-95083718D01*
X134206862Y-95200042D01*
X134197334Y-95247939D01*
X134133260Y-95402628D01*
X134040240Y-95541842D01*
X133921842Y-95660240D01*
X133782628Y-95753260D01*
X133627939Y-95817334D01*
X133627938Y-95817334D01*
X133627936Y-95817335D01*
X133463718Y-95850000D01*
X133296282Y-95850000D01*
X133132064Y-95817335D01*
X133132062Y-95817334D01*
X133132061Y-95817334D01*
X132977372Y-95753260D01*
X132838158Y-95660240D01*
X132719760Y-95541842D01*
X132626740Y-95402628D01*
X132562666Y-95247939D01*
X132553139Y-95200042D01*
X132530000Y-95083718D01*
X132530000Y-94916282D01*
X132562665Y-94752064D01*
X132567517Y-94740350D01*
X132626740Y-94597372D01*
X132719760Y-94458158D01*
X132838158Y-94339760D01*
X132977372Y-94246740D01*
X133132061Y-94182666D01*
X133132062Y-94182666D01*
X133132064Y-94182665D01*
X133296282Y-94150000D01*
X133463718Y-94150000D01*
X133627936Y-94182665D01*
G37*
G36*
X136167936Y-94182665D02*
G01*
X136167938Y-94182666D01*
X136167939Y-94182666D01*
X136322628Y-94246740D01*
X136461842Y-94339760D01*
X136580240Y-94458158D01*
X136673260Y-94597372D01*
X136732483Y-94740350D01*
X136737335Y-94752064D01*
X136770000Y-94916282D01*
X136770000Y-95083718D01*
X136746862Y-95200042D01*
X136737334Y-95247939D01*
X136673260Y-95402628D01*
X136580240Y-95541842D01*
X136461842Y-95660240D01*
X136322628Y-95753260D01*
X136167939Y-95817334D01*
X136167938Y-95817334D01*
X136167936Y-95817335D01*
X136003718Y-95850000D01*
X135836282Y-95850000D01*
X135672064Y-95817335D01*
X135672062Y-95817334D01*
X135672061Y-95817334D01*
X135517372Y-95753260D01*
X135378158Y-95660240D01*
X135259760Y-95541842D01*
X135166740Y-95402628D01*
X135102666Y-95247939D01*
X135093139Y-95200042D01*
X135070000Y-95083718D01*
X135070000Y-94916282D01*
X135102665Y-94752064D01*
X135107517Y-94740350D01*
X135166740Y-94597372D01*
X135259760Y-94458158D01*
X135378158Y-94339760D01*
X135517372Y-94246740D01*
X135672061Y-94182666D01*
X135672062Y-94182666D01*
X135672064Y-94182665D01*
X135836282Y-94150000D01*
X136003718Y-94150000D01*
X136167936Y-94182665D01*
G37*
G36*
X138707936Y-94182665D02*
G01*
X138707938Y-94182666D01*
X138707939Y-94182666D01*
X138862628Y-94246740D01*
X139001842Y-94339760D01*
X139120240Y-94458158D01*
X139213260Y-94597372D01*
X139272483Y-94740350D01*
X139277335Y-94752064D01*
X139310000Y-94916282D01*
X139310000Y-95083718D01*
X139286862Y-95200042D01*
X139277334Y-95247939D01*
X139213260Y-95402628D01*
X139120240Y-95541842D01*
X139001842Y-95660240D01*
X138862628Y-95753260D01*
X138707939Y-95817334D01*
X138707938Y-95817334D01*
X138707936Y-95817335D01*
X138543718Y-95850000D01*
X138376282Y-95850000D01*
X138212064Y-95817335D01*
X138212062Y-95817334D01*
X138212061Y-95817334D01*
X138057372Y-95753260D01*
X137918158Y-95660240D01*
X137799760Y-95541842D01*
X137706740Y-95402628D01*
X137642666Y-95247939D01*
X137633139Y-95200042D01*
X137610000Y-95083718D01*
X137610000Y-94916282D01*
X137642665Y-94752064D01*
X137647517Y-94740350D01*
X137706740Y-94597372D01*
X137799760Y-94458158D01*
X137918158Y-94339760D01*
X138057372Y-94246740D01*
X138212061Y-94182666D01*
X138212062Y-94182666D01*
X138212064Y-94182665D01*
X138376282Y-94150000D01*
X138543718Y-94150000D01*
X138707936Y-94182665D01*
G37*
G36*
X141850000Y-95850000D02*
G01*
X140150000Y-95850000D01*
X140150000Y-94150000D01*
X141850000Y-94150000D01*
X141850000Y-95850000D01*
G37*
G36*
X105679196Y-92699958D02*
G01*
X105679198Y-92699959D01*
X105679199Y-92699959D01*
X105766592Y-92736159D01*
X105915781Y-92797955D01*
X106128702Y-92940224D01*
X106309776Y-93121298D01*
X106452045Y-93334219D01*
X106550042Y-93570804D01*
X106600000Y-93821961D01*
X106600000Y-94078039D01*
X106575741Y-94200000D01*
X106550041Y-94329199D01*
X106513841Y-94416592D01*
X106452045Y-94565781D01*
X106309776Y-94778702D01*
X106128702Y-94959776D01*
X105915781Y-95102045D01*
X105808247Y-95146587D01*
X105679199Y-95200041D01*
X105679198Y-95200041D01*
X105679196Y-95200042D01*
X105428039Y-95250000D01*
X105171961Y-95250000D01*
X104920804Y-95200042D01*
X104920802Y-95200041D01*
X104920801Y-95200041D01*
X104791753Y-95146587D01*
X104684219Y-95102045D01*
X104471298Y-94959776D01*
X104290224Y-94778702D01*
X104147955Y-94565781D01*
X104086159Y-94416592D01*
X104049959Y-94329199D01*
X104024260Y-94200000D01*
X104000000Y-94078039D01*
X104000000Y-93821961D01*
X104049958Y-93570804D01*
X104147955Y-93334219D01*
X104290224Y-93121298D01*
X104471298Y-92940224D01*
X104684219Y-92797955D01*
X104833408Y-92736159D01*
X104920801Y-92699959D01*
X104920802Y-92699959D01*
X104920804Y-92699958D01*
X105171961Y-92650000D01*
X105428039Y-92650000D01*
X105679196Y-92699958D01*
G37*
G36*
X114536274Y-90990350D02*
G01*
X114727362Y-91069502D01*
X114899336Y-91184411D01*
X115045589Y-91330664D01*
X115160498Y-91502638D01*
X115239650Y-91693726D01*
X115280000Y-91896584D01*
X115280000Y-92103416D01*
X115239650Y-92306274D01*
X115160498Y-92497362D01*
X115045589Y-92669336D01*
X114899336Y-92815589D01*
X114727362Y-92930498D01*
X114536274Y-93009650D01*
X114333416Y-93050000D01*
X114126584Y-93050000D01*
X113923726Y-93009650D01*
X113732638Y-92930498D01*
X113560664Y-92815589D01*
X113414411Y-92669336D01*
X113299502Y-92497362D01*
X113220350Y-92306274D01*
X113180000Y-92103416D01*
X113180000Y-91896584D01*
X113220350Y-91693726D01*
X113299502Y-91502638D01*
X113414411Y-91330664D01*
X113560664Y-91184411D01*
X113732638Y-91069502D01*
X113923726Y-90990350D01*
X114126584Y-90950000D01*
X114333416Y-90950000D01*
X114536274Y-90990350D01*
G37*
G36*
X75900000Y-92900000D02*
G01*
X74100000Y-92900000D01*
X74100000Y-91100000D01*
X75900000Y-91100000D01*
X75900000Y-92900000D01*
G37*
G36*
X110900000Y-90900000D02*
G01*
X109100000Y-90900000D01*
X109100000Y-89100000D01*
X110900000Y-89100000D01*
X110900000Y-90900000D01*
G37*
G36*
X76447990Y-83374896D02*
G01*
X76447992Y-83374897D01*
X76447993Y-83374897D01*
X76621229Y-83446654D01*
X77039452Y-83619888D01*
X77571754Y-83975560D01*
X78024440Y-84428246D01*
X78380112Y-84960548D01*
X78625104Y-85552010D01*
X78750000Y-86179903D01*
X78750000Y-86820097D01*
X78625104Y-87447990D01*
X78380112Y-88039452D01*
X78202276Y-88305603D01*
X78034784Y-88556274D01*
X78024440Y-88571754D01*
X77571754Y-89024440D01*
X77039452Y-89380112D01*
X76621229Y-89553346D01*
X76447993Y-89625103D01*
X76447992Y-89625103D01*
X76447990Y-89625104D01*
X75820097Y-89750000D01*
X75179903Y-89750000D01*
X74552010Y-89625104D01*
X74552008Y-89625103D01*
X74552007Y-89625103D01*
X74378771Y-89553346D01*
X73960548Y-89380112D01*
X73428246Y-89024440D01*
X72975560Y-88571754D01*
X72965217Y-88556274D01*
X72797724Y-88305603D01*
X72619888Y-88039452D01*
X72374896Y-87447990D01*
X72250000Y-86820097D01*
X72250000Y-86179903D01*
X72374896Y-85552010D01*
X72619888Y-84960548D01*
X72975560Y-84428246D01*
X73428246Y-83975560D01*
X73960548Y-83619888D01*
X74378771Y-83446654D01*
X74552007Y-83374897D01*
X74552008Y-83374897D01*
X74552010Y-83374896D01*
X75179903Y-83250000D01*
X75820097Y-83250000D01*
X76447990Y-83374896D01*
G37*
G36*
X166397990Y-83374896D02*
G01*
X166397992Y-83374897D01*
X166397993Y-83374897D01*
X166571229Y-83446654D01*
X166989452Y-83619888D01*
X167521754Y-83975560D01*
X167974440Y-84428246D01*
X168330112Y-84960548D01*
X168575104Y-85552010D01*
X168700000Y-86179903D01*
X168700000Y-86820097D01*
X168575104Y-87447990D01*
X168330112Y-88039452D01*
X168152276Y-88305603D01*
X167984784Y-88556274D01*
X167974440Y-88571754D01*
X167521754Y-89024440D01*
X166989452Y-89380112D01*
X166571229Y-89553346D01*
X166397993Y-89625103D01*
X166397992Y-89625103D01*
X166397990Y-89625104D01*
X165770097Y-89750000D01*
X165129903Y-89750000D01*
X164502010Y-89625104D01*
X164502008Y-89625103D01*
X164502007Y-89625103D01*
X164328771Y-89553346D01*
X163910548Y-89380112D01*
X163378246Y-89024440D01*
X162925560Y-88571754D01*
X162915217Y-88556274D01*
X162747724Y-88305603D01*
X162569888Y-88039452D01*
X162324896Y-87447990D01*
X162200000Y-86820097D01*
X162200000Y-86179903D01*
X162324896Y-85552010D01*
X162569888Y-84960548D01*
X162925560Y-84428246D01*
X163378246Y-83975560D01*
X163910548Y-83619888D01*
X164328771Y-83446654D01*
X164502007Y-83374897D01*
X164502008Y-83374897D01*
X164502010Y-83374896D01*
X165129903Y-83250000D01*
X165770097Y-83250000D01*
X166397990Y-83374896D01*
G37*
G36*
X114536274Y-87240350D02*
G01*
X114727362Y-87319502D01*
X114899336Y-87434411D01*
X115045589Y-87580664D01*
X115160498Y-87752638D01*
X115239650Y-87943726D01*
X115280000Y-88146584D01*
X115280000Y-88353416D01*
X115239650Y-88556274D01*
X115160498Y-88747362D01*
X115045589Y-88919336D01*
X114899336Y-89065589D01*
X114727362Y-89180498D01*
X114536274Y-89259650D01*
X114333416Y-89300000D01*
X114126584Y-89300000D01*
X113923726Y-89259650D01*
X113732638Y-89180498D01*
X113560664Y-89065589D01*
X113414411Y-88919336D01*
X113299502Y-88747362D01*
X113220350Y-88556274D01*
X113180000Y-88353416D01*
X113180000Y-88146584D01*
X113220350Y-87943726D01*
X113299502Y-87752638D01*
X113414411Y-87580664D01*
X113560664Y-87434411D01*
X113732638Y-87319502D01*
X113923726Y-87240350D01*
X114126584Y-87200000D01*
X114333416Y-87200000D01*
X114536274Y-87240350D01*
G37*
G36*
X110262520Y-86594586D02*
G01*
X110262522Y-86594587D01*
X110262523Y-86594587D01*
X110323025Y-86619648D01*
X110426310Y-86662430D01*
X110573717Y-86760924D01*
X110699076Y-86886283D01*
X110797570Y-87033690D01*
X110865414Y-87197480D01*
X110900000Y-87371358D01*
X110900000Y-87548642D01*
X110865414Y-87722520D01*
X110797570Y-87886310D01*
X110699076Y-88033717D01*
X110573717Y-88159076D01*
X110426310Y-88257570D01*
X110323025Y-88300352D01*
X110262523Y-88325413D01*
X110262522Y-88325413D01*
X110262520Y-88325414D01*
X110088642Y-88360000D01*
X109911358Y-88360000D01*
X109737480Y-88325414D01*
X109737478Y-88325413D01*
X109737477Y-88325413D01*
X109676975Y-88300352D01*
X109573690Y-88257570D01*
X109426283Y-88159076D01*
X109300924Y-88033717D01*
X109202430Y-87886310D01*
X109134586Y-87722520D01*
X109100000Y-87548642D01*
X109100000Y-87371358D01*
X109134586Y-87197480D01*
X109202430Y-87033690D01*
X109300924Y-86886283D01*
X109426283Y-86760924D01*
X109573690Y-86662430D01*
X109676975Y-86619648D01*
X109737477Y-86594587D01*
X109737478Y-86594587D01*
X109737480Y-86594586D01*
X109911358Y-86560000D01*
X110088642Y-86560000D01*
X110262520Y-86594586D01*
G37*
G36*
X124609196Y-85699958D02*
G01*
X124609198Y-85699959D01*
X124609199Y-85699959D01*
X124696592Y-85736159D01*
X124845781Y-85797955D01*
X125058702Y-85940224D01*
X125239776Y-86121298D01*
X125382045Y-86334219D01*
X125480042Y-86570804D01*
X125530000Y-86821961D01*
X125530000Y-87078039D01*
X125480042Y-87329196D01*
X125382045Y-87565781D01*
X125239776Y-87778702D01*
X125058702Y-87959776D01*
X124845781Y-88102045D01*
X124738247Y-88146587D01*
X124609199Y-88200041D01*
X124609198Y-88200041D01*
X124609196Y-88200042D01*
X124358039Y-88250000D01*
X124101961Y-88250000D01*
X123850804Y-88200042D01*
X123850802Y-88200041D01*
X123850801Y-88200041D01*
X123721753Y-88146587D01*
X123614219Y-88102045D01*
X123401298Y-87959776D01*
X123220224Y-87778702D01*
X123077955Y-87565781D01*
X122979958Y-87329196D01*
X122930000Y-87078039D01*
X122930000Y-86821961D01*
X122979958Y-86570804D01*
X123077955Y-86334219D01*
X123220224Y-86121298D01*
X123401298Y-85940224D01*
X123614219Y-85797955D01*
X123763408Y-85736159D01*
X123850801Y-85699959D01*
X123850802Y-85699959D01*
X123850804Y-85699958D01*
X124101961Y-85650000D01*
X124358039Y-85650000D01*
X124609196Y-85699958D01*
G37*
M02*
