G04 #@! TF.GenerationSoftware,KiCad,Pcbnew,(5.1.5-0-10_14)*
G04 #@! TF.CreationDate,2020-09-27T01:00:48-07:00*
G04 #@! TF.ProjectId,Bias_Tester,42696173-5f54-4657-9374-65722e6b6963,rev?*
G04 #@! TF.SameCoordinates,Original*
G04 #@! TF.FileFunction,Legend,Bot*
G04 #@! TF.FilePolarity,Positive*
%FSLAX46Y46*%
G04 Gerber Fmt 4.6, Leading zero omitted, Abs format (unit mm)*
G04 Created by KiCad (PCBNEW (5.1.5-0-10_14)) date 2020-09-27 01:00:48*
%MOMM*%
%LPD*%
G04 APERTURE LIST*
%ADD10C,1.550000*%
%ADD11O,2.000000X1.300000*%
%ADD12R,1.800000X1.800000*%
%ADD13O,1.800000X1.800000*%
%ADD14C,2.100000*%
%ADD15C,2.600000*%
%ADD16C,6.500000*%
%ADD17R,1.700000X1.700000*%
%ADD18O,1.700000X1.700000*%
G04 APERTURE END LIST*
%LPC*%
D10*
X76462500Y-96500000D03*
X76462500Y-101500000D03*
D11*
X73762500Y-95500000D03*
X73762500Y-102500000D03*
D12*
X110000000Y-90000000D03*
D13*
X110000000Y-87460000D03*
X92000000Y-102540000D03*
D12*
X92000000Y-100000000D03*
X110000000Y-108000000D03*
D13*
X110000000Y-110540000D03*
D14*
X114230000Y-88250000D03*
X114230000Y-92000000D03*
X114230000Y-95750000D03*
D15*
X124230000Y-86950000D03*
X124230000Y-97050000D03*
D14*
X95300000Y-95250000D03*
X95300000Y-99000000D03*
X95300000Y-102750000D03*
D15*
X105300000Y-93950000D03*
X105300000Y-104050000D03*
X124230000Y-111050000D03*
X124230000Y-100950000D03*
D14*
X114230000Y-109750000D03*
X114230000Y-106000000D03*
X114230000Y-102250000D03*
D12*
X75000000Y-106000000D03*
X75000000Y-92000000D03*
D16*
X75500000Y-86500000D03*
X165450000Y-86500000D03*
X75500000Y-111500000D03*
X165500000Y-111500000D03*
D12*
X164000000Y-100400000D03*
D13*
X164000000Y-97860000D03*
D17*
X141000000Y-95000000D03*
D18*
X133380000Y-102620000D03*
X138460000Y-95000000D03*
X135920000Y-102620000D03*
X135920000Y-95000000D03*
X138460000Y-102620000D03*
X133380000Y-95000000D03*
X141000000Y-102620000D03*
M02*
