G04 #@! TF.GenerationSoftware,KiCad,Pcbnew,(5.1.5-0-10_14)*
G04 #@! TF.CreationDate,2020-09-27T01:00:48-07:00*
G04 #@! TF.ProjectId,Bias_Tester,42696173-5f54-4657-9374-65722e6b6963,rev?*
G04 #@! TF.SameCoordinates,Original*
G04 #@! TF.FileFunction,Legend,Top*
G04 #@! TF.FilePolarity,Positive*
%FSLAX46Y46*%
G04 Gerber Fmt 4.6, Leading zero omitted, Abs format (unit mm)*
G04 Created by KiCad (PCBNEW (5.1.5-0-10_14)) date 2020-09-27 01:00:48*
%MOMM*%
%LPD*%
G04 APERTURE LIST*
%ADD10C,0.300000*%
%ADD11C,0.152400*%
%ADD12C,0.120000*%
%ADD13C,0.150000*%
%ADD14C,0.280000*%
%ADD15R,2.000000X1.600000*%
%ADD16C,1.550000*%
%ADD17R,1.450000X0.500000*%
%ADD18O,2.000000X1.300000*%
%ADD19R,2.000000X1.300000*%
%ADD20R,1.800000X1.800000*%
%ADD21O,1.800000X1.800000*%
%ADD22C,2.100000*%
%ADD23C,2.600000*%
%ADD24R,3.500000X1.900000*%
%ADD25C,6.500000*%
%ADD26R,1.700000X0.550000*%
%ADD27R,1.700000X1.700000*%
%ADD28O,1.700000X1.700000*%
G04 APERTURE END LIST*
D10*
X151678571Y-107750000D02*
X151535714Y-107678571D01*
X151321428Y-107678571D01*
X151107142Y-107750000D01*
X150964285Y-107892857D01*
X150892857Y-108035714D01*
X150821428Y-108321428D01*
X150821428Y-108535714D01*
X150892857Y-108821428D01*
X150964285Y-108964285D01*
X151107142Y-109107142D01*
X151321428Y-109178571D01*
X151464285Y-109178571D01*
X151678571Y-109107142D01*
X151750000Y-109035714D01*
X151750000Y-108535714D01*
X151464285Y-108535714D01*
X152321428Y-107821428D02*
X152392857Y-107750000D01*
X152535714Y-107678571D01*
X152892857Y-107678571D01*
X153035714Y-107750000D01*
X153107142Y-107821428D01*
X153178571Y-107964285D01*
X153178571Y-108107142D01*
X153107142Y-108321428D01*
X152250000Y-109178571D01*
X153178571Y-109178571D01*
X145178571Y-105250000D02*
X145035714Y-105178571D01*
X144821428Y-105178571D01*
X144607142Y-105250000D01*
X144464285Y-105392857D01*
X144392857Y-105535714D01*
X144321428Y-105821428D01*
X144321428Y-106035714D01*
X144392857Y-106321428D01*
X144464285Y-106464285D01*
X144607142Y-106607142D01*
X144821428Y-106678571D01*
X144964285Y-106678571D01*
X145178571Y-106607142D01*
X145250000Y-106535714D01*
X145250000Y-106035714D01*
X144964285Y-106035714D01*
X146678571Y-106678571D02*
X145821428Y-106678571D01*
X146250000Y-106678571D02*
X146250000Y-105178571D01*
X146107142Y-105392857D01*
X145964285Y-105535714D01*
X145821428Y-105607142D01*
X89000000Y-92107142D02*
X90142857Y-92107142D01*
X89571428Y-92678571D02*
X89571428Y-91535714D01*
X90714285Y-91178571D02*
X91642857Y-91178571D01*
X91142857Y-91750000D01*
X91357142Y-91750000D01*
X91500000Y-91821428D01*
X91571428Y-91892857D01*
X91642857Y-92035714D01*
X91642857Y-92392857D01*
X91571428Y-92535714D01*
X91500000Y-92607142D01*
X91357142Y-92678571D01*
X90928571Y-92678571D01*
X90785714Y-92607142D01*
X90714285Y-92535714D01*
X92285714Y-92535714D02*
X92357142Y-92607142D01*
X92285714Y-92678571D01*
X92214285Y-92607142D01*
X92285714Y-92535714D01*
X92285714Y-92678571D01*
X92857142Y-91178571D02*
X93785714Y-91178571D01*
X93285714Y-91750000D01*
X93500000Y-91750000D01*
X93642857Y-91821428D01*
X93714285Y-91892857D01*
X93785714Y-92035714D01*
X93785714Y-92392857D01*
X93714285Y-92535714D01*
X93642857Y-92607142D01*
X93500000Y-92678571D01*
X93071428Y-92678571D01*
X92928571Y-92607142D01*
X92857142Y-92535714D01*
X94214285Y-91178571D02*
X94714285Y-92678571D01*
X95214285Y-91178571D01*
X96464285Y-88178571D02*
X96964285Y-89678571D01*
X97464285Y-88178571D01*
X97964285Y-89678571D02*
X97964285Y-88678571D01*
X97964285Y-88821428D02*
X98035714Y-88750000D01*
X98178571Y-88678571D01*
X98392857Y-88678571D01*
X98535714Y-88750000D01*
X98607142Y-88892857D01*
X98607142Y-89678571D01*
X98607142Y-88892857D02*
X98678571Y-88750000D01*
X98821428Y-88678571D01*
X99035714Y-88678571D01*
X99178571Y-88750000D01*
X99250000Y-88892857D01*
X99250000Y-89678571D01*
X99964285Y-89678571D02*
X99964285Y-88678571D01*
X99964285Y-88178571D02*
X99892857Y-88250000D01*
X99964285Y-88321428D01*
X100035714Y-88250000D01*
X99964285Y-88178571D01*
X99964285Y-88321428D01*
X101321428Y-89678571D02*
X101321428Y-88178571D01*
X101321428Y-89607142D02*
X101178571Y-89678571D01*
X100892857Y-89678571D01*
X100750000Y-89607142D01*
X100678571Y-89535714D01*
X100607142Y-89392857D01*
X100607142Y-88964285D01*
X100678571Y-88821428D01*
X100750000Y-88750000D01*
X100892857Y-88678571D01*
X101178571Y-88678571D01*
X101321428Y-88750000D01*
X84000000Y-109107142D02*
X85142857Y-109107142D01*
X84571428Y-109678571D02*
X84571428Y-108535714D01*
X86500000Y-108678571D02*
X86500000Y-109678571D01*
X86142857Y-108107142D02*
X85785714Y-109178571D01*
X86714285Y-109178571D01*
X87285714Y-109535714D02*
X87357142Y-109607142D01*
X87285714Y-109678571D01*
X87214285Y-109607142D01*
X87285714Y-109535714D01*
X87285714Y-109678571D01*
X88714285Y-108178571D02*
X88000000Y-108178571D01*
X87928571Y-108892857D01*
X88000000Y-108821428D01*
X88142857Y-108750000D01*
X88500000Y-108750000D01*
X88642857Y-108821428D01*
X88714285Y-108892857D01*
X88785714Y-109035714D01*
X88785714Y-109392857D01*
X88714285Y-109535714D01*
X88642857Y-109607142D01*
X88500000Y-109678571D01*
X88142857Y-109678571D01*
X88000000Y-109607142D01*
X87928571Y-109535714D01*
X89214285Y-108178571D02*
X89714285Y-109678571D01*
X90214285Y-108178571D01*
X78357142Y-105250000D02*
X78214285Y-105178571D01*
X78000000Y-105178571D01*
X77785714Y-105250000D01*
X77642857Y-105392857D01*
X77571428Y-105535714D01*
X77500000Y-105821428D01*
X77500000Y-106035714D01*
X77571428Y-106321428D01*
X77642857Y-106464285D01*
X77785714Y-106607142D01*
X78000000Y-106678571D01*
X78142857Y-106678571D01*
X78357142Y-106607142D01*
X78428571Y-106535714D01*
X78428571Y-106035714D01*
X78142857Y-106035714D01*
X79071428Y-106678571D02*
X79071428Y-105178571D01*
X79928571Y-106678571D01*
X79928571Y-105178571D01*
X80642857Y-106678571D02*
X80642857Y-105178571D01*
X81000000Y-105178571D01*
X81214285Y-105250000D01*
X81357142Y-105392857D01*
X81428571Y-105535714D01*
X81500000Y-105821428D01*
X81500000Y-106035714D01*
X81428571Y-106321428D01*
X81357142Y-106464285D01*
X81214285Y-106607142D01*
X81000000Y-106678571D01*
X80642857Y-106678571D01*
X77571428Y-92107142D02*
X78714285Y-92107142D01*
X78142857Y-92678571D02*
X78142857Y-91535714D01*
X80142857Y-91178571D02*
X79428571Y-91178571D01*
X79357142Y-91892857D01*
X79428571Y-91821428D01*
X79571428Y-91750000D01*
X79928571Y-91750000D01*
X80071428Y-91821428D01*
X80142857Y-91892857D01*
X80214285Y-92035714D01*
X80214285Y-92392857D01*
X80142857Y-92535714D01*
X80071428Y-92607142D01*
X79928571Y-92678571D01*
X79571428Y-92678571D01*
X79428571Y-92607142D01*
X79357142Y-92535714D01*
X80642857Y-91178571D02*
X81142857Y-92678571D01*
X81642857Y-91178571D01*
X162535714Y-95107142D02*
X162750000Y-95178571D01*
X163107142Y-95178571D01*
X163250000Y-95107142D01*
X163321428Y-95035714D01*
X163392857Y-94892857D01*
X163392857Y-94750000D01*
X163321428Y-94607142D01*
X163250000Y-94535714D01*
X163107142Y-94464285D01*
X162821428Y-94392857D01*
X162678571Y-94321428D01*
X162607142Y-94250000D01*
X162535714Y-94107142D01*
X162535714Y-93964285D01*
X162607142Y-93821428D01*
X162678571Y-93750000D01*
X162821428Y-93678571D01*
X163178571Y-93678571D01*
X163392857Y-93750000D01*
X164035714Y-95178571D02*
X164035714Y-94178571D01*
X164035714Y-93678571D02*
X163964285Y-93750000D01*
X164035714Y-93821428D01*
X164107142Y-93750000D01*
X164035714Y-93678571D01*
X164035714Y-93821428D01*
X165392857Y-94178571D02*
X165392857Y-95392857D01*
X165321428Y-95535714D01*
X165250000Y-95607142D01*
X165107142Y-95678571D01*
X164892857Y-95678571D01*
X164750000Y-95607142D01*
X165392857Y-95107142D02*
X165250000Y-95178571D01*
X164964285Y-95178571D01*
X164821428Y-95107142D01*
X164750000Y-95035714D01*
X164678571Y-94892857D01*
X164678571Y-94464285D01*
X164750000Y-94321428D01*
X164821428Y-94250000D01*
X164964285Y-94178571D01*
X165250000Y-94178571D01*
X165392857Y-94250000D01*
X162857142Y-103250000D02*
X162714285Y-103178571D01*
X162500000Y-103178571D01*
X162285714Y-103250000D01*
X162142857Y-103392857D01*
X162071428Y-103535714D01*
X162000000Y-103821428D01*
X162000000Y-104035714D01*
X162071428Y-104321428D01*
X162142857Y-104464285D01*
X162285714Y-104607142D01*
X162500000Y-104678571D01*
X162642857Y-104678571D01*
X162857142Y-104607142D01*
X162928571Y-104535714D01*
X162928571Y-104035714D01*
X162642857Y-104035714D01*
X163571428Y-104678571D02*
X163571428Y-103178571D01*
X164428571Y-104678571D01*
X164428571Y-103178571D01*
X165142857Y-104678571D02*
X165142857Y-103178571D01*
X165500000Y-103178571D01*
X165714285Y-103250000D01*
X165857142Y-103392857D01*
X165928571Y-103535714D01*
X166000000Y-103821428D01*
X166000000Y-104035714D01*
X165928571Y-104321428D01*
X165857142Y-104464285D01*
X165714285Y-104607142D01*
X165500000Y-104678571D01*
X165142857Y-104678571D01*
D11*
X86208500Y-99791500D02*
X86208500Y-98608500D01*
X87391500Y-99791500D02*
X86208500Y-99791500D01*
X87391500Y-98608500D02*
X87391500Y-99791500D01*
X86208500Y-98608500D02*
X87391500Y-98608500D01*
X87391500Y-97791500D02*
X86208500Y-97791500D01*
X87391500Y-96608500D02*
X87391500Y-97791500D01*
X86208500Y-96608500D02*
X87391500Y-96608500D01*
X86208500Y-97791500D02*
X86208500Y-96608500D01*
D12*
X76762500Y-95100000D02*
X76762500Y-95550000D01*
X74912500Y-95100000D02*
X76762500Y-95100000D01*
X72362500Y-102900000D02*
X72612500Y-102900000D01*
X72362500Y-95100000D02*
X72612500Y-95100000D01*
X74912500Y-102900000D02*
X76762500Y-102900000D01*
X76762500Y-102900000D02*
X76762500Y-102450000D01*
X77312500Y-97300000D02*
X77312500Y-97750000D01*
X77312500Y-97300000D02*
X76862500Y-97300000D01*
X111330000Y-86130000D02*
X108670000Y-86130000D01*
X111330000Y-88730000D02*
X111330000Y-86130000D01*
X108670000Y-88730000D02*
X108670000Y-86130000D01*
X111330000Y-88730000D02*
X108670000Y-88730000D01*
X111330000Y-90000000D02*
X111330000Y-91330000D01*
X111330000Y-91330000D02*
X110000000Y-91330000D01*
X90670000Y-98670000D02*
X92000000Y-98670000D01*
X90670000Y-100000000D02*
X90670000Y-98670000D01*
X90670000Y-101270000D02*
X93330000Y-101270000D01*
X93330000Y-101270000D02*
X93330000Y-103870000D01*
X90670000Y-101270000D02*
X90670000Y-103870000D01*
X90670000Y-103870000D02*
X93330000Y-103870000D01*
X108670000Y-111870000D02*
X111330000Y-111870000D01*
X108670000Y-109270000D02*
X108670000Y-111870000D01*
X111330000Y-109270000D02*
X111330000Y-111870000D01*
X108670000Y-109270000D02*
X111330000Y-109270000D01*
X108670000Y-108000000D02*
X108670000Y-106670000D01*
X108670000Y-106670000D02*
X110000000Y-106670000D01*
X130480000Y-85750000D02*
X112980000Y-85750000D01*
X112980000Y-85750000D02*
X112980000Y-98250000D01*
X112980000Y-98250000D02*
X130480000Y-98250000D01*
X130480000Y-98250000D02*
X130480000Y-85750000D01*
X111550000Y-92750000D02*
X94050000Y-92750000D01*
X94050000Y-92750000D02*
X94050000Y-105250000D01*
X94050000Y-105250000D02*
X111550000Y-105250000D01*
X111550000Y-105250000D02*
X111550000Y-92750000D01*
X130480000Y-112250000D02*
X130480000Y-99750000D01*
X112980000Y-112250000D02*
X130480000Y-112250000D01*
X112980000Y-99750000D02*
X112980000Y-112250000D01*
X130480000Y-99750000D02*
X112980000Y-99750000D01*
D13*
X93350000Y-95490000D02*
X89550000Y-95490000D01*
X89550000Y-95490000D02*
X89550000Y-93290000D01*
X89550000Y-93290000D02*
X93350000Y-93290000D01*
X93350000Y-93290000D02*
X93350000Y-95490000D01*
X95370000Y-87830000D02*
X95370000Y-90030000D01*
X91570000Y-87830000D02*
X95370000Y-87830000D01*
X91570000Y-90030000D02*
X91570000Y-87830000D01*
X95370000Y-90030000D02*
X91570000Y-90030000D01*
D12*
X73670000Y-104670000D02*
X75000000Y-104670000D01*
X73670000Y-106000000D02*
X73670000Y-104670000D01*
X73670000Y-107270000D02*
X76330000Y-107270000D01*
X76330000Y-107270000D02*
X76330000Y-107330000D01*
X73670000Y-107270000D02*
X73670000Y-107330000D01*
X73670000Y-107330000D02*
X76330000Y-107330000D01*
X73670000Y-93330000D02*
X76330000Y-93330000D01*
X73670000Y-93270000D02*
X73670000Y-93330000D01*
X76330000Y-93270000D02*
X76330000Y-93330000D01*
X73670000Y-93270000D02*
X76330000Y-93270000D01*
X73670000Y-92000000D02*
X73670000Y-90670000D01*
X73670000Y-90670000D02*
X75000000Y-90670000D01*
D13*
X143800000Y-102220000D02*
X147600000Y-102220000D01*
X147600000Y-102220000D02*
X147600000Y-104420000D01*
X147600000Y-104420000D02*
X143800000Y-104420000D01*
X143800000Y-104420000D02*
X143800000Y-102220000D01*
X150000000Y-104460000D02*
X153800000Y-104460000D01*
X153800000Y-104460000D02*
X153800000Y-106660000D01*
X153800000Y-106660000D02*
X150000000Y-106660000D01*
X150000000Y-106660000D02*
X150000000Y-104460000D01*
D12*
X165330000Y-96530000D02*
X162670000Y-96530000D01*
X165330000Y-99130000D02*
X165330000Y-96530000D01*
X162670000Y-99130000D02*
X162670000Y-96530000D01*
X165330000Y-99130000D02*
X162670000Y-99130000D01*
X165330000Y-100400000D02*
X165330000Y-101730000D01*
X165330000Y-101730000D02*
X164000000Y-101730000D01*
D13*
X78930000Y-103510000D02*
X78930000Y-101310000D01*
X82730000Y-103510000D02*
X78930000Y-103510000D01*
X82730000Y-101310000D02*
X82730000Y-103510000D01*
X78930000Y-101310000D02*
X82730000Y-101310000D01*
X85070000Y-107100000D02*
X85070000Y-104900000D01*
X88870000Y-107100000D02*
X85070000Y-107100000D01*
X88870000Y-104900000D02*
X88870000Y-107100000D01*
X85070000Y-104900000D02*
X88870000Y-104900000D01*
D12*
X149890000Y-98000000D02*
X149890000Y-100000000D01*
X152110000Y-99000000D02*
X152110000Y-100000000D01*
X142330000Y-99810000D02*
G75*
G02X142330000Y-97810000I0J1000000D01*
G01*
X142330000Y-97810000D02*
X142330000Y-96160000D01*
X142330000Y-96160000D02*
X132050000Y-96160000D01*
X132050000Y-96160000D02*
X132050000Y-101460000D01*
X132050000Y-101460000D02*
X142330000Y-101460000D01*
X142330000Y-101460000D02*
X142330000Y-99810000D01*
X142390000Y-93670000D02*
X131990000Y-93670000D01*
X131990000Y-93670000D02*
X131990000Y-103950000D01*
X131990000Y-103950000D02*
X142390000Y-103950000D01*
X142390000Y-103950000D02*
X142390000Y-93670000D01*
X88480000Y-92710000D02*
X88480000Y-93710000D01*
X86260000Y-91710000D02*
X86260000Y-93710000D01*
D13*
X86800000Y-98652380D02*
X86800000Y-98890476D01*
X86561904Y-98795238D02*
X86800000Y-98890476D01*
X87038095Y-98795238D01*
X86657142Y-99080952D02*
X86800000Y-98890476D01*
X86942857Y-99080952D01*
X86800000Y-98652380D02*
X86800000Y-98890476D01*
X86561904Y-98795238D02*
X86800000Y-98890476D01*
X87038095Y-98795238D01*
X86657142Y-99080952D02*
X86800000Y-98890476D01*
X86942857Y-99080952D01*
X86800000Y-96652380D02*
X86800000Y-96890476D01*
X86561904Y-96795238D02*
X86800000Y-96890476D01*
X87038095Y-96795238D01*
X86657142Y-97080952D02*
X86800000Y-96890476D01*
X86942857Y-97080952D01*
%LPC*%
D14*
X86975000Y-99375000D03*
X86625000Y-99375000D03*
X86975000Y-99025000D03*
X86625000Y-99025000D03*
X86975000Y-97375000D03*
X86625000Y-97375000D03*
X86975000Y-97025000D03*
X86625000Y-97025000D03*
D13*
G36*
X79014408Y-97370831D02*
G01*
X79031153Y-97373315D01*
X79047574Y-97377428D01*
X79063513Y-97383131D01*
X79078816Y-97390369D01*
X79093336Y-97399071D01*
X79106933Y-97409156D01*
X79119476Y-97420524D01*
X79130844Y-97433067D01*
X79140929Y-97446664D01*
X79149631Y-97461184D01*
X79156869Y-97476487D01*
X79162572Y-97492426D01*
X79166685Y-97508847D01*
X79169169Y-97525592D01*
X79170000Y-97542500D01*
X79170000Y-97887500D01*
X79169169Y-97904408D01*
X79166685Y-97921153D01*
X79162572Y-97937574D01*
X79156869Y-97953513D01*
X79149631Y-97968816D01*
X79140929Y-97983336D01*
X79130844Y-97996933D01*
X79119476Y-98009476D01*
X79106933Y-98020844D01*
X79093336Y-98030929D01*
X79078816Y-98039631D01*
X79063513Y-98046869D01*
X79047574Y-98052572D01*
X79031153Y-98056685D01*
X79014408Y-98059169D01*
X78997500Y-98060000D01*
X78602500Y-98060000D01*
X78585592Y-98059169D01*
X78568847Y-98056685D01*
X78552426Y-98052572D01*
X78536487Y-98046869D01*
X78521184Y-98039631D01*
X78506664Y-98030929D01*
X78493067Y-98020844D01*
X78480524Y-98009476D01*
X78469156Y-97996933D01*
X78459071Y-97983336D01*
X78450369Y-97968816D01*
X78443131Y-97953513D01*
X78437428Y-97937574D01*
X78433315Y-97921153D01*
X78430831Y-97904408D01*
X78430000Y-97887500D01*
X78430000Y-97542500D01*
X78430831Y-97525592D01*
X78433315Y-97508847D01*
X78437428Y-97492426D01*
X78443131Y-97476487D01*
X78450369Y-97461184D01*
X78459071Y-97446664D01*
X78469156Y-97433067D01*
X78480524Y-97420524D01*
X78493067Y-97409156D01*
X78506664Y-97399071D01*
X78521184Y-97390369D01*
X78536487Y-97383131D01*
X78552426Y-97377428D01*
X78568847Y-97373315D01*
X78585592Y-97370831D01*
X78602500Y-97370000D01*
X78997500Y-97370000D01*
X79014408Y-97370831D01*
G37*
G36*
X79014408Y-98340831D02*
G01*
X79031153Y-98343315D01*
X79047574Y-98347428D01*
X79063513Y-98353131D01*
X79078816Y-98360369D01*
X79093336Y-98369071D01*
X79106933Y-98379156D01*
X79119476Y-98390524D01*
X79130844Y-98403067D01*
X79140929Y-98416664D01*
X79149631Y-98431184D01*
X79156869Y-98446487D01*
X79162572Y-98462426D01*
X79166685Y-98478847D01*
X79169169Y-98495592D01*
X79170000Y-98512500D01*
X79170000Y-98857500D01*
X79169169Y-98874408D01*
X79166685Y-98891153D01*
X79162572Y-98907574D01*
X79156869Y-98923513D01*
X79149631Y-98938816D01*
X79140929Y-98953336D01*
X79130844Y-98966933D01*
X79119476Y-98979476D01*
X79106933Y-98990844D01*
X79093336Y-99000929D01*
X79078816Y-99009631D01*
X79063513Y-99016869D01*
X79047574Y-99022572D01*
X79031153Y-99026685D01*
X79014408Y-99029169D01*
X78997500Y-99030000D01*
X78602500Y-99030000D01*
X78585592Y-99029169D01*
X78568847Y-99026685D01*
X78552426Y-99022572D01*
X78536487Y-99016869D01*
X78521184Y-99009631D01*
X78506664Y-99000929D01*
X78493067Y-98990844D01*
X78480524Y-98979476D01*
X78469156Y-98966933D01*
X78459071Y-98953336D01*
X78450369Y-98938816D01*
X78443131Y-98923513D01*
X78437428Y-98907574D01*
X78433315Y-98891153D01*
X78430831Y-98874408D01*
X78430000Y-98857500D01*
X78430000Y-98512500D01*
X78430831Y-98495592D01*
X78433315Y-98478847D01*
X78437428Y-98462426D01*
X78443131Y-98446487D01*
X78450369Y-98431184D01*
X78459071Y-98416664D01*
X78469156Y-98403067D01*
X78480524Y-98390524D01*
X78493067Y-98379156D01*
X78506664Y-98369071D01*
X78521184Y-98360369D01*
X78536487Y-98353131D01*
X78552426Y-98347428D01*
X78568847Y-98343315D01*
X78585592Y-98340831D01*
X78602500Y-98340000D01*
X78997500Y-98340000D01*
X79014408Y-98340831D01*
G37*
G36*
X81814408Y-98340831D02*
G01*
X81831153Y-98343315D01*
X81847574Y-98347428D01*
X81863513Y-98353131D01*
X81878816Y-98360369D01*
X81893336Y-98369071D01*
X81906933Y-98379156D01*
X81919476Y-98390524D01*
X81930844Y-98403067D01*
X81940929Y-98416664D01*
X81949631Y-98431184D01*
X81956869Y-98446487D01*
X81962572Y-98462426D01*
X81966685Y-98478847D01*
X81969169Y-98495592D01*
X81970000Y-98512500D01*
X81970000Y-98857500D01*
X81969169Y-98874408D01*
X81966685Y-98891153D01*
X81962572Y-98907574D01*
X81956869Y-98923513D01*
X81949631Y-98938816D01*
X81940929Y-98953336D01*
X81930844Y-98966933D01*
X81919476Y-98979476D01*
X81906933Y-98990844D01*
X81893336Y-99000929D01*
X81878816Y-99009631D01*
X81863513Y-99016869D01*
X81847574Y-99022572D01*
X81831153Y-99026685D01*
X81814408Y-99029169D01*
X81797500Y-99030000D01*
X81402500Y-99030000D01*
X81385592Y-99029169D01*
X81368847Y-99026685D01*
X81352426Y-99022572D01*
X81336487Y-99016869D01*
X81321184Y-99009631D01*
X81306664Y-99000929D01*
X81293067Y-98990844D01*
X81280524Y-98979476D01*
X81269156Y-98966933D01*
X81259071Y-98953336D01*
X81250369Y-98938816D01*
X81243131Y-98923513D01*
X81237428Y-98907574D01*
X81233315Y-98891153D01*
X81230831Y-98874408D01*
X81230000Y-98857500D01*
X81230000Y-98512500D01*
X81230831Y-98495592D01*
X81233315Y-98478847D01*
X81237428Y-98462426D01*
X81243131Y-98446487D01*
X81250369Y-98431184D01*
X81259071Y-98416664D01*
X81269156Y-98403067D01*
X81280524Y-98390524D01*
X81293067Y-98379156D01*
X81306664Y-98369071D01*
X81321184Y-98360369D01*
X81336487Y-98353131D01*
X81352426Y-98347428D01*
X81368847Y-98343315D01*
X81385592Y-98340831D01*
X81402500Y-98340000D01*
X81797500Y-98340000D01*
X81814408Y-98340831D01*
G37*
G36*
X81814408Y-97370831D02*
G01*
X81831153Y-97373315D01*
X81847574Y-97377428D01*
X81863513Y-97383131D01*
X81878816Y-97390369D01*
X81893336Y-97399071D01*
X81906933Y-97409156D01*
X81919476Y-97420524D01*
X81930844Y-97433067D01*
X81940929Y-97446664D01*
X81949631Y-97461184D01*
X81956869Y-97476487D01*
X81962572Y-97492426D01*
X81966685Y-97508847D01*
X81969169Y-97525592D01*
X81970000Y-97542500D01*
X81970000Y-97887500D01*
X81969169Y-97904408D01*
X81966685Y-97921153D01*
X81962572Y-97937574D01*
X81956869Y-97953513D01*
X81949631Y-97968816D01*
X81940929Y-97983336D01*
X81930844Y-97996933D01*
X81919476Y-98009476D01*
X81906933Y-98020844D01*
X81893336Y-98030929D01*
X81878816Y-98039631D01*
X81863513Y-98046869D01*
X81847574Y-98052572D01*
X81831153Y-98056685D01*
X81814408Y-98059169D01*
X81797500Y-98060000D01*
X81402500Y-98060000D01*
X81385592Y-98059169D01*
X81368847Y-98056685D01*
X81352426Y-98052572D01*
X81336487Y-98046869D01*
X81321184Y-98039631D01*
X81306664Y-98030929D01*
X81293067Y-98020844D01*
X81280524Y-98009476D01*
X81269156Y-97996933D01*
X81259071Y-97983336D01*
X81250369Y-97968816D01*
X81243131Y-97953513D01*
X81237428Y-97937574D01*
X81233315Y-97921153D01*
X81230831Y-97904408D01*
X81230000Y-97887500D01*
X81230000Y-97542500D01*
X81230831Y-97525592D01*
X81233315Y-97508847D01*
X81237428Y-97492426D01*
X81243131Y-97476487D01*
X81250369Y-97461184D01*
X81259071Y-97446664D01*
X81269156Y-97433067D01*
X81280524Y-97420524D01*
X81293067Y-97409156D01*
X81306664Y-97399071D01*
X81321184Y-97390369D01*
X81336487Y-97383131D01*
X81352426Y-97377428D01*
X81368847Y-97373315D01*
X81385592Y-97370831D01*
X81402500Y-97370000D01*
X81797500Y-97370000D01*
X81814408Y-97370831D01*
G37*
G36*
X83014408Y-97370831D02*
G01*
X83031153Y-97373315D01*
X83047574Y-97377428D01*
X83063513Y-97383131D01*
X83078816Y-97390369D01*
X83093336Y-97399071D01*
X83106933Y-97409156D01*
X83119476Y-97420524D01*
X83130844Y-97433067D01*
X83140929Y-97446664D01*
X83149631Y-97461184D01*
X83156869Y-97476487D01*
X83162572Y-97492426D01*
X83166685Y-97508847D01*
X83169169Y-97525592D01*
X83170000Y-97542500D01*
X83170000Y-97887500D01*
X83169169Y-97904408D01*
X83166685Y-97921153D01*
X83162572Y-97937574D01*
X83156869Y-97953513D01*
X83149631Y-97968816D01*
X83140929Y-97983336D01*
X83130844Y-97996933D01*
X83119476Y-98009476D01*
X83106933Y-98020844D01*
X83093336Y-98030929D01*
X83078816Y-98039631D01*
X83063513Y-98046869D01*
X83047574Y-98052572D01*
X83031153Y-98056685D01*
X83014408Y-98059169D01*
X82997500Y-98060000D01*
X82602500Y-98060000D01*
X82585592Y-98059169D01*
X82568847Y-98056685D01*
X82552426Y-98052572D01*
X82536487Y-98046869D01*
X82521184Y-98039631D01*
X82506664Y-98030929D01*
X82493067Y-98020844D01*
X82480524Y-98009476D01*
X82469156Y-97996933D01*
X82459071Y-97983336D01*
X82450369Y-97968816D01*
X82443131Y-97953513D01*
X82437428Y-97937574D01*
X82433315Y-97921153D01*
X82430831Y-97904408D01*
X82430000Y-97887500D01*
X82430000Y-97542500D01*
X82430831Y-97525592D01*
X82433315Y-97508847D01*
X82437428Y-97492426D01*
X82443131Y-97476487D01*
X82450369Y-97461184D01*
X82459071Y-97446664D01*
X82469156Y-97433067D01*
X82480524Y-97420524D01*
X82493067Y-97409156D01*
X82506664Y-97399071D01*
X82521184Y-97390369D01*
X82536487Y-97383131D01*
X82552426Y-97377428D01*
X82568847Y-97373315D01*
X82585592Y-97370831D01*
X82602500Y-97370000D01*
X82997500Y-97370000D01*
X83014408Y-97370831D01*
G37*
G36*
X83014408Y-98340831D02*
G01*
X83031153Y-98343315D01*
X83047574Y-98347428D01*
X83063513Y-98353131D01*
X83078816Y-98360369D01*
X83093336Y-98369071D01*
X83106933Y-98379156D01*
X83119476Y-98390524D01*
X83130844Y-98403067D01*
X83140929Y-98416664D01*
X83149631Y-98431184D01*
X83156869Y-98446487D01*
X83162572Y-98462426D01*
X83166685Y-98478847D01*
X83169169Y-98495592D01*
X83170000Y-98512500D01*
X83170000Y-98857500D01*
X83169169Y-98874408D01*
X83166685Y-98891153D01*
X83162572Y-98907574D01*
X83156869Y-98923513D01*
X83149631Y-98938816D01*
X83140929Y-98953336D01*
X83130844Y-98966933D01*
X83119476Y-98979476D01*
X83106933Y-98990844D01*
X83093336Y-99000929D01*
X83078816Y-99009631D01*
X83063513Y-99016869D01*
X83047574Y-99022572D01*
X83031153Y-99026685D01*
X83014408Y-99029169D01*
X82997500Y-99030000D01*
X82602500Y-99030000D01*
X82585592Y-99029169D01*
X82568847Y-99026685D01*
X82552426Y-99022572D01*
X82536487Y-99016869D01*
X82521184Y-99009631D01*
X82506664Y-99000929D01*
X82493067Y-98990844D01*
X82480524Y-98979476D01*
X82469156Y-98966933D01*
X82459071Y-98953336D01*
X82450369Y-98938816D01*
X82443131Y-98923513D01*
X82437428Y-98907574D01*
X82433315Y-98891153D01*
X82430831Y-98874408D01*
X82430000Y-98857500D01*
X82430000Y-98512500D01*
X82430831Y-98495592D01*
X82433315Y-98478847D01*
X82437428Y-98462426D01*
X82443131Y-98446487D01*
X82450369Y-98431184D01*
X82459071Y-98416664D01*
X82469156Y-98403067D01*
X82480524Y-98390524D01*
X82493067Y-98379156D01*
X82506664Y-98369071D01*
X82521184Y-98360369D01*
X82536487Y-98353131D01*
X82552426Y-98347428D01*
X82568847Y-98343315D01*
X82585592Y-98340831D01*
X82602500Y-98340000D01*
X82997500Y-98340000D01*
X83014408Y-98340831D01*
G37*
G36*
X87274408Y-94440831D02*
G01*
X87291153Y-94443315D01*
X87307574Y-94447428D01*
X87323513Y-94453131D01*
X87338816Y-94460369D01*
X87353336Y-94469071D01*
X87366933Y-94479156D01*
X87379476Y-94490524D01*
X87390844Y-94503067D01*
X87400929Y-94516664D01*
X87409631Y-94531184D01*
X87416869Y-94546487D01*
X87422572Y-94562426D01*
X87426685Y-94578847D01*
X87429169Y-94595592D01*
X87430000Y-94612500D01*
X87430000Y-95007500D01*
X87429169Y-95024408D01*
X87426685Y-95041153D01*
X87422572Y-95057574D01*
X87416869Y-95073513D01*
X87409631Y-95088816D01*
X87400929Y-95103336D01*
X87390844Y-95116933D01*
X87379476Y-95129476D01*
X87366933Y-95140844D01*
X87353336Y-95150929D01*
X87338816Y-95159631D01*
X87323513Y-95166869D01*
X87307574Y-95172572D01*
X87291153Y-95176685D01*
X87274408Y-95179169D01*
X87257500Y-95180000D01*
X86912500Y-95180000D01*
X86895592Y-95179169D01*
X86878847Y-95176685D01*
X86862426Y-95172572D01*
X86846487Y-95166869D01*
X86831184Y-95159631D01*
X86816664Y-95150929D01*
X86803067Y-95140844D01*
X86790524Y-95129476D01*
X86779156Y-95116933D01*
X86769071Y-95103336D01*
X86760369Y-95088816D01*
X86753131Y-95073513D01*
X86747428Y-95057574D01*
X86743315Y-95041153D01*
X86740831Y-95024408D01*
X86740000Y-95007500D01*
X86740000Y-94612500D01*
X86740831Y-94595592D01*
X86743315Y-94578847D01*
X86747428Y-94562426D01*
X86753131Y-94546487D01*
X86760369Y-94531184D01*
X86769071Y-94516664D01*
X86779156Y-94503067D01*
X86790524Y-94490524D01*
X86803067Y-94479156D01*
X86816664Y-94469071D01*
X86831184Y-94460369D01*
X86846487Y-94453131D01*
X86862426Y-94447428D01*
X86878847Y-94443315D01*
X86895592Y-94440831D01*
X86912500Y-94440000D01*
X87257500Y-94440000D01*
X87274408Y-94440831D01*
G37*
G36*
X88244408Y-94440831D02*
G01*
X88261153Y-94443315D01*
X88277574Y-94447428D01*
X88293513Y-94453131D01*
X88308816Y-94460369D01*
X88323336Y-94469071D01*
X88336933Y-94479156D01*
X88349476Y-94490524D01*
X88360844Y-94503067D01*
X88370929Y-94516664D01*
X88379631Y-94531184D01*
X88386869Y-94546487D01*
X88392572Y-94562426D01*
X88396685Y-94578847D01*
X88399169Y-94595592D01*
X88400000Y-94612500D01*
X88400000Y-95007500D01*
X88399169Y-95024408D01*
X88396685Y-95041153D01*
X88392572Y-95057574D01*
X88386869Y-95073513D01*
X88379631Y-95088816D01*
X88370929Y-95103336D01*
X88360844Y-95116933D01*
X88349476Y-95129476D01*
X88336933Y-95140844D01*
X88323336Y-95150929D01*
X88308816Y-95159631D01*
X88293513Y-95166869D01*
X88277574Y-95172572D01*
X88261153Y-95176685D01*
X88244408Y-95179169D01*
X88227500Y-95180000D01*
X87882500Y-95180000D01*
X87865592Y-95179169D01*
X87848847Y-95176685D01*
X87832426Y-95172572D01*
X87816487Y-95166869D01*
X87801184Y-95159631D01*
X87786664Y-95150929D01*
X87773067Y-95140844D01*
X87760524Y-95129476D01*
X87749156Y-95116933D01*
X87739071Y-95103336D01*
X87730369Y-95088816D01*
X87723131Y-95073513D01*
X87717428Y-95057574D01*
X87713315Y-95041153D01*
X87710831Y-95024408D01*
X87710000Y-95007500D01*
X87710000Y-94612500D01*
X87710831Y-94595592D01*
X87713315Y-94578847D01*
X87717428Y-94562426D01*
X87723131Y-94546487D01*
X87730369Y-94531184D01*
X87739071Y-94516664D01*
X87749156Y-94503067D01*
X87760524Y-94490524D01*
X87773067Y-94479156D01*
X87786664Y-94469071D01*
X87801184Y-94460369D01*
X87816487Y-94453131D01*
X87832426Y-94447428D01*
X87848847Y-94443315D01*
X87865592Y-94440831D01*
X87882500Y-94440000D01*
X88227500Y-94440000D01*
X88244408Y-94440831D01*
G37*
G36*
X88214408Y-97440831D02*
G01*
X88231153Y-97443315D01*
X88247574Y-97447428D01*
X88263513Y-97453131D01*
X88278816Y-97460369D01*
X88293336Y-97469071D01*
X88306933Y-97479156D01*
X88319476Y-97490524D01*
X88330844Y-97503067D01*
X88340929Y-97516664D01*
X88349631Y-97531184D01*
X88356869Y-97546487D01*
X88362572Y-97562426D01*
X88366685Y-97578847D01*
X88369169Y-97595592D01*
X88370000Y-97612500D01*
X88370000Y-97957500D01*
X88369169Y-97974408D01*
X88366685Y-97991153D01*
X88362572Y-98007574D01*
X88356869Y-98023513D01*
X88349631Y-98038816D01*
X88340929Y-98053336D01*
X88330844Y-98066933D01*
X88319476Y-98079476D01*
X88306933Y-98090844D01*
X88293336Y-98100929D01*
X88278816Y-98109631D01*
X88263513Y-98116869D01*
X88247574Y-98122572D01*
X88231153Y-98126685D01*
X88214408Y-98129169D01*
X88197500Y-98130000D01*
X87802500Y-98130000D01*
X87785592Y-98129169D01*
X87768847Y-98126685D01*
X87752426Y-98122572D01*
X87736487Y-98116869D01*
X87721184Y-98109631D01*
X87706664Y-98100929D01*
X87693067Y-98090844D01*
X87680524Y-98079476D01*
X87669156Y-98066933D01*
X87659071Y-98053336D01*
X87650369Y-98038816D01*
X87643131Y-98023513D01*
X87637428Y-98007574D01*
X87633315Y-97991153D01*
X87630831Y-97974408D01*
X87630000Y-97957500D01*
X87630000Y-97612500D01*
X87630831Y-97595592D01*
X87633315Y-97578847D01*
X87637428Y-97562426D01*
X87643131Y-97546487D01*
X87650369Y-97531184D01*
X87659071Y-97516664D01*
X87669156Y-97503067D01*
X87680524Y-97490524D01*
X87693067Y-97479156D01*
X87706664Y-97469071D01*
X87721184Y-97460369D01*
X87736487Y-97453131D01*
X87752426Y-97447428D01*
X87768847Y-97443315D01*
X87785592Y-97440831D01*
X87802500Y-97440000D01*
X88197500Y-97440000D01*
X88214408Y-97440831D01*
G37*
G36*
X88214408Y-96470831D02*
G01*
X88231153Y-96473315D01*
X88247574Y-96477428D01*
X88263513Y-96483131D01*
X88278816Y-96490369D01*
X88293336Y-96499071D01*
X88306933Y-96509156D01*
X88319476Y-96520524D01*
X88330844Y-96533067D01*
X88340929Y-96546664D01*
X88349631Y-96561184D01*
X88356869Y-96576487D01*
X88362572Y-96592426D01*
X88366685Y-96608847D01*
X88369169Y-96625592D01*
X88370000Y-96642500D01*
X88370000Y-96987500D01*
X88369169Y-97004408D01*
X88366685Y-97021153D01*
X88362572Y-97037574D01*
X88356869Y-97053513D01*
X88349631Y-97068816D01*
X88340929Y-97083336D01*
X88330844Y-97096933D01*
X88319476Y-97109476D01*
X88306933Y-97120844D01*
X88293336Y-97130929D01*
X88278816Y-97139631D01*
X88263513Y-97146869D01*
X88247574Y-97152572D01*
X88231153Y-97156685D01*
X88214408Y-97159169D01*
X88197500Y-97160000D01*
X87802500Y-97160000D01*
X87785592Y-97159169D01*
X87768847Y-97156685D01*
X87752426Y-97152572D01*
X87736487Y-97146869D01*
X87721184Y-97139631D01*
X87706664Y-97130929D01*
X87693067Y-97120844D01*
X87680524Y-97109476D01*
X87669156Y-97096933D01*
X87659071Y-97083336D01*
X87650369Y-97068816D01*
X87643131Y-97053513D01*
X87637428Y-97037574D01*
X87633315Y-97021153D01*
X87630831Y-97004408D01*
X87630000Y-96987500D01*
X87630000Y-96642500D01*
X87630831Y-96625592D01*
X87633315Y-96608847D01*
X87637428Y-96592426D01*
X87643131Y-96576487D01*
X87650369Y-96561184D01*
X87659071Y-96546664D01*
X87669156Y-96533067D01*
X87680524Y-96520524D01*
X87693067Y-96509156D01*
X87706664Y-96499071D01*
X87721184Y-96490369D01*
X87736487Y-96483131D01*
X87752426Y-96477428D01*
X87768847Y-96473315D01*
X87785592Y-96470831D01*
X87802500Y-96470000D01*
X88197500Y-96470000D01*
X88214408Y-96470831D01*
G37*
G36*
X153014408Y-99740831D02*
G01*
X153031153Y-99743315D01*
X153047574Y-99747428D01*
X153063513Y-99753131D01*
X153078816Y-99760369D01*
X153093336Y-99769071D01*
X153106933Y-99779156D01*
X153119476Y-99790524D01*
X153130844Y-99803067D01*
X153140929Y-99816664D01*
X153149631Y-99831184D01*
X153156869Y-99846487D01*
X153162572Y-99862426D01*
X153166685Y-99878847D01*
X153169169Y-99895592D01*
X153170000Y-99912500D01*
X153170000Y-100257500D01*
X153169169Y-100274408D01*
X153166685Y-100291153D01*
X153162572Y-100307574D01*
X153156869Y-100323513D01*
X153149631Y-100338816D01*
X153140929Y-100353336D01*
X153130844Y-100366933D01*
X153119476Y-100379476D01*
X153106933Y-100390844D01*
X153093336Y-100400929D01*
X153078816Y-100409631D01*
X153063513Y-100416869D01*
X153047574Y-100422572D01*
X153031153Y-100426685D01*
X153014408Y-100429169D01*
X152997500Y-100430000D01*
X152602500Y-100430000D01*
X152585592Y-100429169D01*
X152568847Y-100426685D01*
X152552426Y-100422572D01*
X152536487Y-100416869D01*
X152521184Y-100409631D01*
X152506664Y-100400929D01*
X152493067Y-100390844D01*
X152480524Y-100379476D01*
X152469156Y-100366933D01*
X152459071Y-100353336D01*
X152450369Y-100338816D01*
X152443131Y-100323513D01*
X152437428Y-100307574D01*
X152433315Y-100291153D01*
X152430831Y-100274408D01*
X152430000Y-100257500D01*
X152430000Y-99912500D01*
X152430831Y-99895592D01*
X152433315Y-99878847D01*
X152437428Y-99862426D01*
X152443131Y-99846487D01*
X152450369Y-99831184D01*
X152459071Y-99816664D01*
X152469156Y-99803067D01*
X152480524Y-99790524D01*
X152493067Y-99779156D01*
X152506664Y-99769071D01*
X152521184Y-99760369D01*
X152536487Y-99753131D01*
X152552426Y-99747428D01*
X152568847Y-99743315D01*
X152585592Y-99740831D01*
X152602500Y-99740000D01*
X152997500Y-99740000D01*
X153014408Y-99740831D01*
G37*
G36*
X153014408Y-98770831D02*
G01*
X153031153Y-98773315D01*
X153047574Y-98777428D01*
X153063513Y-98783131D01*
X153078816Y-98790369D01*
X153093336Y-98799071D01*
X153106933Y-98809156D01*
X153119476Y-98820524D01*
X153130844Y-98833067D01*
X153140929Y-98846664D01*
X153149631Y-98861184D01*
X153156869Y-98876487D01*
X153162572Y-98892426D01*
X153166685Y-98908847D01*
X153169169Y-98925592D01*
X153170000Y-98942500D01*
X153170000Y-99287500D01*
X153169169Y-99304408D01*
X153166685Y-99321153D01*
X153162572Y-99337574D01*
X153156869Y-99353513D01*
X153149631Y-99368816D01*
X153140929Y-99383336D01*
X153130844Y-99396933D01*
X153119476Y-99409476D01*
X153106933Y-99420844D01*
X153093336Y-99430929D01*
X153078816Y-99439631D01*
X153063513Y-99446869D01*
X153047574Y-99452572D01*
X153031153Y-99456685D01*
X153014408Y-99459169D01*
X152997500Y-99460000D01*
X152602500Y-99460000D01*
X152585592Y-99459169D01*
X152568847Y-99456685D01*
X152552426Y-99452572D01*
X152536487Y-99446869D01*
X152521184Y-99439631D01*
X152506664Y-99430929D01*
X152493067Y-99420844D01*
X152480524Y-99409476D01*
X152469156Y-99396933D01*
X152459071Y-99383336D01*
X152450369Y-99368816D01*
X152443131Y-99353513D01*
X152437428Y-99337574D01*
X152433315Y-99321153D01*
X152430831Y-99304408D01*
X152430000Y-99287500D01*
X152430000Y-98942500D01*
X152430831Y-98925592D01*
X152433315Y-98908847D01*
X152437428Y-98892426D01*
X152443131Y-98876487D01*
X152450369Y-98861184D01*
X152459071Y-98846664D01*
X152469156Y-98833067D01*
X152480524Y-98820524D01*
X152493067Y-98809156D01*
X152506664Y-98799071D01*
X152521184Y-98790369D01*
X152536487Y-98783131D01*
X152552426Y-98777428D01*
X152568847Y-98773315D01*
X152585592Y-98770831D01*
X152602500Y-98770000D01*
X152997500Y-98770000D01*
X153014408Y-98770831D01*
G37*
G36*
X88214408Y-98370831D02*
G01*
X88231153Y-98373315D01*
X88247574Y-98377428D01*
X88263513Y-98383131D01*
X88278816Y-98390369D01*
X88293336Y-98399071D01*
X88306933Y-98409156D01*
X88319476Y-98420524D01*
X88330844Y-98433067D01*
X88340929Y-98446664D01*
X88349631Y-98461184D01*
X88356869Y-98476487D01*
X88362572Y-98492426D01*
X88366685Y-98508847D01*
X88369169Y-98525592D01*
X88370000Y-98542500D01*
X88370000Y-98887500D01*
X88369169Y-98904408D01*
X88366685Y-98921153D01*
X88362572Y-98937574D01*
X88356869Y-98953513D01*
X88349631Y-98968816D01*
X88340929Y-98983336D01*
X88330844Y-98996933D01*
X88319476Y-99009476D01*
X88306933Y-99020844D01*
X88293336Y-99030929D01*
X88278816Y-99039631D01*
X88263513Y-99046869D01*
X88247574Y-99052572D01*
X88231153Y-99056685D01*
X88214408Y-99059169D01*
X88197500Y-99060000D01*
X87802500Y-99060000D01*
X87785592Y-99059169D01*
X87768847Y-99056685D01*
X87752426Y-99052572D01*
X87736487Y-99046869D01*
X87721184Y-99039631D01*
X87706664Y-99030929D01*
X87693067Y-99020844D01*
X87680524Y-99009476D01*
X87669156Y-98996933D01*
X87659071Y-98983336D01*
X87650369Y-98968816D01*
X87643131Y-98953513D01*
X87637428Y-98937574D01*
X87633315Y-98921153D01*
X87630831Y-98904408D01*
X87630000Y-98887500D01*
X87630000Y-98542500D01*
X87630831Y-98525592D01*
X87633315Y-98508847D01*
X87637428Y-98492426D01*
X87643131Y-98476487D01*
X87650369Y-98461184D01*
X87659071Y-98446664D01*
X87669156Y-98433067D01*
X87680524Y-98420524D01*
X87693067Y-98409156D01*
X87706664Y-98399071D01*
X87721184Y-98390369D01*
X87736487Y-98383131D01*
X87752426Y-98377428D01*
X87768847Y-98373315D01*
X87785592Y-98370831D01*
X87802500Y-98370000D01*
X88197500Y-98370000D01*
X88214408Y-98370831D01*
G37*
G36*
X88214408Y-99340831D02*
G01*
X88231153Y-99343315D01*
X88247574Y-99347428D01*
X88263513Y-99353131D01*
X88278816Y-99360369D01*
X88293336Y-99369071D01*
X88306933Y-99379156D01*
X88319476Y-99390524D01*
X88330844Y-99403067D01*
X88340929Y-99416664D01*
X88349631Y-99431184D01*
X88356869Y-99446487D01*
X88362572Y-99462426D01*
X88366685Y-99478847D01*
X88369169Y-99495592D01*
X88370000Y-99512500D01*
X88370000Y-99857500D01*
X88369169Y-99874408D01*
X88366685Y-99891153D01*
X88362572Y-99907574D01*
X88356869Y-99923513D01*
X88349631Y-99938816D01*
X88340929Y-99953336D01*
X88330844Y-99966933D01*
X88319476Y-99979476D01*
X88306933Y-99990844D01*
X88293336Y-100000929D01*
X88278816Y-100009631D01*
X88263513Y-100016869D01*
X88247574Y-100022572D01*
X88231153Y-100026685D01*
X88214408Y-100029169D01*
X88197500Y-100030000D01*
X87802500Y-100030000D01*
X87785592Y-100029169D01*
X87768847Y-100026685D01*
X87752426Y-100022572D01*
X87736487Y-100016869D01*
X87721184Y-100009631D01*
X87706664Y-100000929D01*
X87693067Y-99990844D01*
X87680524Y-99979476D01*
X87669156Y-99966933D01*
X87659071Y-99953336D01*
X87650369Y-99938816D01*
X87643131Y-99923513D01*
X87637428Y-99907574D01*
X87633315Y-99891153D01*
X87630831Y-99874408D01*
X87630000Y-99857500D01*
X87630000Y-99512500D01*
X87630831Y-99495592D01*
X87633315Y-99478847D01*
X87637428Y-99462426D01*
X87643131Y-99446487D01*
X87650369Y-99431184D01*
X87659071Y-99416664D01*
X87669156Y-99403067D01*
X87680524Y-99390524D01*
X87693067Y-99379156D01*
X87706664Y-99369071D01*
X87721184Y-99360369D01*
X87736487Y-99353131D01*
X87752426Y-99347428D01*
X87768847Y-99343315D01*
X87785592Y-99340831D01*
X87802500Y-99340000D01*
X88197500Y-99340000D01*
X88214408Y-99340831D01*
G37*
D15*
X73762500Y-100000000D03*
D16*
X76462500Y-96500000D03*
D17*
X76462500Y-98350000D03*
X76462500Y-97700000D03*
X76462500Y-100300000D03*
X76462500Y-99650000D03*
X76462500Y-99000000D03*
D16*
X76462500Y-101500000D03*
D15*
X73762500Y-98000000D03*
D18*
X73762500Y-95500000D03*
X73762500Y-102500000D03*
D19*
X73762500Y-101900000D03*
X73762500Y-96100000D03*
D20*
X110000000Y-90000000D03*
D21*
X110000000Y-87460000D03*
X92000000Y-102540000D03*
D20*
X92000000Y-100000000D03*
X110000000Y-108000000D03*
D21*
X110000000Y-110540000D03*
D13*
G36*
X80047252Y-97350602D02*
G01*
X80059386Y-97352402D01*
X80071286Y-97355382D01*
X80082835Y-97359515D01*
X80093925Y-97364760D01*
X80104446Y-97371066D01*
X80114299Y-97378374D01*
X80123388Y-97386612D01*
X80131626Y-97395701D01*
X80138934Y-97405554D01*
X80145240Y-97416075D01*
X80150485Y-97427165D01*
X80154618Y-97438714D01*
X80157598Y-97450614D01*
X80159398Y-97462748D01*
X80160000Y-97475000D01*
X80160000Y-97725000D01*
X80159398Y-97737252D01*
X80157598Y-97749386D01*
X80154618Y-97761286D01*
X80150485Y-97772835D01*
X80145240Y-97783925D01*
X80138934Y-97794446D01*
X80131626Y-97804299D01*
X80123388Y-97813388D01*
X80114299Y-97821626D01*
X80104446Y-97828934D01*
X80093925Y-97835240D01*
X80082835Y-97840485D01*
X80071286Y-97844618D01*
X80059386Y-97847598D01*
X80047252Y-97849398D01*
X80035000Y-97850000D01*
X79725000Y-97850000D01*
X79712748Y-97849398D01*
X79700614Y-97847598D01*
X79688714Y-97844618D01*
X79677165Y-97840485D01*
X79666075Y-97835240D01*
X79655554Y-97828934D01*
X79645701Y-97821626D01*
X79636612Y-97813388D01*
X79628374Y-97804299D01*
X79621066Y-97794446D01*
X79614760Y-97783925D01*
X79609515Y-97772835D01*
X79605382Y-97761286D01*
X79602402Y-97749386D01*
X79600602Y-97737252D01*
X79600000Y-97725000D01*
X79600000Y-97475000D01*
X79600602Y-97462748D01*
X79602402Y-97450614D01*
X79605382Y-97438714D01*
X79609515Y-97427165D01*
X79614760Y-97416075D01*
X79621066Y-97405554D01*
X79628374Y-97395701D01*
X79636612Y-97386612D01*
X79645701Y-97378374D01*
X79655554Y-97371066D01*
X79666075Y-97364760D01*
X79677165Y-97359515D01*
X79688714Y-97355382D01*
X79700614Y-97352402D01*
X79712748Y-97350602D01*
X79725000Y-97350000D01*
X80035000Y-97350000D01*
X80047252Y-97350602D01*
G37*
G36*
X80687252Y-97350602D02*
G01*
X80699386Y-97352402D01*
X80711286Y-97355382D01*
X80722835Y-97359515D01*
X80733925Y-97364760D01*
X80744446Y-97371066D01*
X80754299Y-97378374D01*
X80763388Y-97386612D01*
X80771626Y-97395701D01*
X80778934Y-97405554D01*
X80785240Y-97416075D01*
X80790485Y-97427165D01*
X80794618Y-97438714D01*
X80797598Y-97450614D01*
X80799398Y-97462748D01*
X80800000Y-97475000D01*
X80800000Y-97725000D01*
X80799398Y-97737252D01*
X80797598Y-97749386D01*
X80794618Y-97761286D01*
X80790485Y-97772835D01*
X80785240Y-97783925D01*
X80778934Y-97794446D01*
X80771626Y-97804299D01*
X80763388Y-97813388D01*
X80754299Y-97821626D01*
X80744446Y-97828934D01*
X80733925Y-97835240D01*
X80722835Y-97840485D01*
X80711286Y-97844618D01*
X80699386Y-97847598D01*
X80687252Y-97849398D01*
X80675000Y-97850000D01*
X80365000Y-97850000D01*
X80352748Y-97849398D01*
X80340614Y-97847598D01*
X80328714Y-97844618D01*
X80317165Y-97840485D01*
X80306075Y-97835240D01*
X80295554Y-97828934D01*
X80285701Y-97821626D01*
X80276612Y-97813388D01*
X80268374Y-97804299D01*
X80261066Y-97794446D01*
X80254760Y-97783925D01*
X80249515Y-97772835D01*
X80245382Y-97761286D01*
X80242402Y-97749386D01*
X80240602Y-97737252D01*
X80240000Y-97725000D01*
X80240000Y-97475000D01*
X80240602Y-97462748D01*
X80242402Y-97450614D01*
X80245382Y-97438714D01*
X80249515Y-97427165D01*
X80254760Y-97416075D01*
X80261066Y-97405554D01*
X80268374Y-97395701D01*
X80276612Y-97386612D01*
X80285701Y-97378374D01*
X80295554Y-97371066D01*
X80306075Y-97364760D01*
X80317165Y-97359515D01*
X80328714Y-97355382D01*
X80340614Y-97352402D01*
X80352748Y-97350602D01*
X80365000Y-97350000D01*
X80675000Y-97350000D01*
X80687252Y-97350602D01*
G37*
G36*
X146374408Y-98630831D02*
G01*
X146391153Y-98633315D01*
X146407574Y-98637428D01*
X146423513Y-98643131D01*
X146438816Y-98650369D01*
X146453336Y-98659071D01*
X146466933Y-98669156D01*
X146479476Y-98680524D01*
X146490844Y-98693067D01*
X146500929Y-98706664D01*
X146509631Y-98721184D01*
X146516869Y-98736487D01*
X146522572Y-98752426D01*
X146526685Y-98768847D01*
X146529169Y-98785592D01*
X146530000Y-98802500D01*
X146530000Y-99197500D01*
X146529169Y-99214408D01*
X146526685Y-99231153D01*
X146522572Y-99247574D01*
X146516869Y-99263513D01*
X146509631Y-99278816D01*
X146500929Y-99293336D01*
X146490844Y-99306933D01*
X146479476Y-99319476D01*
X146466933Y-99330844D01*
X146453336Y-99340929D01*
X146438816Y-99349631D01*
X146423513Y-99356869D01*
X146407574Y-99362572D01*
X146391153Y-99366685D01*
X146374408Y-99369169D01*
X146357500Y-99370000D01*
X146012500Y-99370000D01*
X145995592Y-99369169D01*
X145978847Y-99366685D01*
X145962426Y-99362572D01*
X145946487Y-99356869D01*
X145931184Y-99349631D01*
X145916664Y-99340929D01*
X145903067Y-99330844D01*
X145890524Y-99319476D01*
X145879156Y-99306933D01*
X145869071Y-99293336D01*
X145860369Y-99278816D01*
X145853131Y-99263513D01*
X145847428Y-99247574D01*
X145843315Y-99231153D01*
X145840831Y-99214408D01*
X145840000Y-99197500D01*
X145840000Y-98802500D01*
X145840831Y-98785592D01*
X145843315Y-98768847D01*
X145847428Y-98752426D01*
X145853131Y-98736487D01*
X145860369Y-98721184D01*
X145869071Y-98706664D01*
X145879156Y-98693067D01*
X145890524Y-98680524D01*
X145903067Y-98669156D01*
X145916664Y-98659071D01*
X145931184Y-98650369D01*
X145946487Y-98643131D01*
X145962426Y-98637428D01*
X145978847Y-98633315D01*
X145995592Y-98630831D01*
X146012500Y-98630000D01*
X146357500Y-98630000D01*
X146374408Y-98630831D01*
G37*
G36*
X145404408Y-98630831D02*
G01*
X145421153Y-98633315D01*
X145437574Y-98637428D01*
X145453513Y-98643131D01*
X145468816Y-98650369D01*
X145483336Y-98659071D01*
X145496933Y-98669156D01*
X145509476Y-98680524D01*
X145520844Y-98693067D01*
X145530929Y-98706664D01*
X145539631Y-98721184D01*
X145546869Y-98736487D01*
X145552572Y-98752426D01*
X145556685Y-98768847D01*
X145559169Y-98785592D01*
X145560000Y-98802500D01*
X145560000Y-99197500D01*
X145559169Y-99214408D01*
X145556685Y-99231153D01*
X145552572Y-99247574D01*
X145546869Y-99263513D01*
X145539631Y-99278816D01*
X145530929Y-99293336D01*
X145520844Y-99306933D01*
X145509476Y-99319476D01*
X145496933Y-99330844D01*
X145483336Y-99340929D01*
X145468816Y-99349631D01*
X145453513Y-99356869D01*
X145437574Y-99362572D01*
X145421153Y-99366685D01*
X145404408Y-99369169D01*
X145387500Y-99370000D01*
X145042500Y-99370000D01*
X145025592Y-99369169D01*
X145008847Y-99366685D01*
X144992426Y-99362572D01*
X144976487Y-99356869D01*
X144961184Y-99349631D01*
X144946664Y-99340929D01*
X144933067Y-99330844D01*
X144920524Y-99319476D01*
X144909156Y-99306933D01*
X144899071Y-99293336D01*
X144890369Y-99278816D01*
X144883131Y-99263513D01*
X144877428Y-99247574D01*
X144873315Y-99231153D01*
X144870831Y-99214408D01*
X144870000Y-99197500D01*
X144870000Y-98802500D01*
X144870831Y-98785592D01*
X144873315Y-98768847D01*
X144877428Y-98752426D01*
X144883131Y-98736487D01*
X144890369Y-98721184D01*
X144899071Y-98706664D01*
X144909156Y-98693067D01*
X144920524Y-98680524D01*
X144933067Y-98669156D01*
X144946664Y-98659071D01*
X144961184Y-98650369D01*
X144976487Y-98643131D01*
X144992426Y-98637428D01*
X145008847Y-98633315D01*
X145025592Y-98630831D01*
X145042500Y-98630000D01*
X145387500Y-98630000D01*
X145404408Y-98630831D01*
G37*
G36*
X85624408Y-90770831D02*
G01*
X85641153Y-90773315D01*
X85657574Y-90777428D01*
X85673513Y-90783131D01*
X85688816Y-90790369D01*
X85703336Y-90799071D01*
X85716933Y-90809156D01*
X85729476Y-90820524D01*
X85740844Y-90833067D01*
X85750929Y-90846664D01*
X85759631Y-90861184D01*
X85766869Y-90876487D01*
X85772572Y-90892426D01*
X85776685Y-90908847D01*
X85779169Y-90925592D01*
X85780000Y-90942500D01*
X85780000Y-91287500D01*
X85779169Y-91304408D01*
X85776685Y-91321153D01*
X85772572Y-91337574D01*
X85766869Y-91353513D01*
X85759631Y-91368816D01*
X85750929Y-91383336D01*
X85740844Y-91396933D01*
X85729476Y-91409476D01*
X85716933Y-91420844D01*
X85703336Y-91430929D01*
X85688816Y-91439631D01*
X85673513Y-91446869D01*
X85657574Y-91452572D01*
X85641153Y-91456685D01*
X85624408Y-91459169D01*
X85607500Y-91460000D01*
X85212500Y-91460000D01*
X85195592Y-91459169D01*
X85178847Y-91456685D01*
X85162426Y-91452572D01*
X85146487Y-91446869D01*
X85131184Y-91439631D01*
X85116664Y-91430929D01*
X85103067Y-91420844D01*
X85090524Y-91409476D01*
X85079156Y-91396933D01*
X85069071Y-91383336D01*
X85060369Y-91368816D01*
X85053131Y-91353513D01*
X85047428Y-91337574D01*
X85043315Y-91321153D01*
X85040831Y-91304408D01*
X85040000Y-91287500D01*
X85040000Y-90942500D01*
X85040831Y-90925592D01*
X85043315Y-90908847D01*
X85047428Y-90892426D01*
X85053131Y-90876487D01*
X85060369Y-90861184D01*
X85069071Y-90846664D01*
X85079156Y-90833067D01*
X85090524Y-90820524D01*
X85103067Y-90809156D01*
X85116664Y-90799071D01*
X85131184Y-90790369D01*
X85146487Y-90783131D01*
X85162426Y-90777428D01*
X85178847Y-90773315D01*
X85195592Y-90770831D01*
X85212500Y-90770000D01*
X85607500Y-90770000D01*
X85624408Y-90770831D01*
G37*
G36*
X85624408Y-91740831D02*
G01*
X85641153Y-91743315D01*
X85657574Y-91747428D01*
X85673513Y-91753131D01*
X85688816Y-91760369D01*
X85703336Y-91769071D01*
X85716933Y-91779156D01*
X85729476Y-91790524D01*
X85740844Y-91803067D01*
X85750929Y-91816664D01*
X85759631Y-91831184D01*
X85766869Y-91846487D01*
X85772572Y-91862426D01*
X85776685Y-91878847D01*
X85779169Y-91895592D01*
X85780000Y-91912500D01*
X85780000Y-92257500D01*
X85779169Y-92274408D01*
X85776685Y-92291153D01*
X85772572Y-92307574D01*
X85766869Y-92323513D01*
X85759631Y-92338816D01*
X85750929Y-92353336D01*
X85740844Y-92366933D01*
X85729476Y-92379476D01*
X85716933Y-92390844D01*
X85703336Y-92400929D01*
X85688816Y-92409631D01*
X85673513Y-92416869D01*
X85657574Y-92422572D01*
X85641153Y-92426685D01*
X85624408Y-92429169D01*
X85607500Y-92430000D01*
X85212500Y-92430000D01*
X85195592Y-92429169D01*
X85178847Y-92426685D01*
X85162426Y-92422572D01*
X85146487Y-92416869D01*
X85131184Y-92409631D01*
X85116664Y-92400929D01*
X85103067Y-92390844D01*
X85090524Y-92379476D01*
X85079156Y-92366933D01*
X85069071Y-92353336D01*
X85060369Y-92338816D01*
X85053131Y-92323513D01*
X85047428Y-92307574D01*
X85043315Y-92291153D01*
X85040831Y-92274408D01*
X85040000Y-92257500D01*
X85040000Y-91912500D01*
X85040831Y-91895592D01*
X85043315Y-91878847D01*
X85047428Y-91862426D01*
X85053131Y-91846487D01*
X85060369Y-91831184D01*
X85069071Y-91816664D01*
X85079156Y-91803067D01*
X85090524Y-91790524D01*
X85103067Y-91779156D01*
X85116664Y-91769071D01*
X85131184Y-91760369D01*
X85146487Y-91753131D01*
X85162426Y-91747428D01*
X85178847Y-91743315D01*
X85195592Y-91740831D01*
X85212500Y-91740000D01*
X85607500Y-91740000D01*
X85624408Y-91740831D01*
G37*
G36*
X85624408Y-89840831D02*
G01*
X85641153Y-89843315D01*
X85657574Y-89847428D01*
X85673513Y-89853131D01*
X85688816Y-89860369D01*
X85703336Y-89869071D01*
X85716933Y-89879156D01*
X85729476Y-89890524D01*
X85740844Y-89903067D01*
X85750929Y-89916664D01*
X85759631Y-89931184D01*
X85766869Y-89946487D01*
X85772572Y-89962426D01*
X85776685Y-89978847D01*
X85779169Y-89995592D01*
X85780000Y-90012500D01*
X85780000Y-90357500D01*
X85779169Y-90374408D01*
X85776685Y-90391153D01*
X85772572Y-90407574D01*
X85766869Y-90423513D01*
X85759631Y-90438816D01*
X85750929Y-90453336D01*
X85740844Y-90466933D01*
X85729476Y-90479476D01*
X85716933Y-90490844D01*
X85703336Y-90500929D01*
X85688816Y-90509631D01*
X85673513Y-90516869D01*
X85657574Y-90522572D01*
X85641153Y-90526685D01*
X85624408Y-90529169D01*
X85607500Y-90530000D01*
X85212500Y-90530000D01*
X85195592Y-90529169D01*
X85178847Y-90526685D01*
X85162426Y-90522572D01*
X85146487Y-90516869D01*
X85131184Y-90509631D01*
X85116664Y-90500929D01*
X85103067Y-90490844D01*
X85090524Y-90479476D01*
X85079156Y-90466933D01*
X85069071Y-90453336D01*
X85060369Y-90438816D01*
X85053131Y-90423513D01*
X85047428Y-90407574D01*
X85043315Y-90391153D01*
X85040831Y-90374408D01*
X85040000Y-90357500D01*
X85040000Y-90012500D01*
X85040831Y-89995592D01*
X85043315Y-89978847D01*
X85047428Y-89962426D01*
X85053131Y-89946487D01*
X85060369Y-89931184D01*
X85069071Y-89916664D01*
X85079156Y-89903067D01*
X85090524Y-89890524D01*
X85103067Y-89879156D01*
X85116664Y-89869071D01*
X85131184Y-89860369D01*
X85146487Y-89853131D01*
X85162426Y-89847428D01*
X85178847Y-89843315D01*
X85195592Y-89840831D01*
X85212500Y-89840000D01*
X85607500Y-89840000D01*
X85624408Y-89840831D01*
G37*
G36*
X85624408Y-88870831D02*
G01*
X85641153Y-88873315D01*
X85657574Y-88877428D01*
X85673513Y-88883131D01*
X85688816Y-88890369D01*
X85703336Y-88899071D01*
X85716933Y-88909156D01*
X85729476Y-88920524D01*
X85740844Y-88933067D01*
X85750929Y-88946664D01*
X85759631Y-88961184D01*
X85766869Y-88976487D01*
X85772572Y-88992426D01*
X85776685Y-89008847D01*
X85779169Y-89025592D01*
X85780000Y-89042500D01*
X85780000Y-89387500D01*
X85779169Y-89404408D01*
X85776685Y-89421153D01*
X85772572Y-89437574D01*
X85766869Y-89453513D01*
X85759631Y-89468816D01*
X85750929Y-89483336D01*
X85740844Y-89496933D01*
X85729476Y-89509476D01*
X85716933Y-89520844D01*
X85703336Y-89530929D01*
X85688816Y-89539631D01*
X85673513Y-89546869D01*
X85657574Y-89552572D01*
X85641153Y-89556685D01*
X85624408Y-89559169D01*
X85607500Y-89560000D01*
X85212500Y-89560000D01*
X85195592Y-89559169D01*
X85178847Y-89556685D01*
X85162426Y-89552572D01*
X85146487Y-89546869D01*
X85131184Y-89539631D01*
X85116664Y-89530929D01*
X85103067Y-89520844D01*
X85090524Y-89509476D01*
X85079156Y-89496933D01*
X85069071Y-89483336D01*
X85060369Y-89468816D01*
X85053131Y-89453513D01*
X85047428Y-89437574D01*
X85043315Y-89421153D01*
X85040831Y-89404408D01*
X85040000Y-89387500D01*
X85040000Y-89042500D01*
X85040831Y-89025592D01*
X85043315Y-89008847D01*
X85047428Y-88992426D01*
X85053131Y-88976487D01*
X85060369Y-88961184D01*
X85069071Y-88946664D01*
X85079156Y-88933067D01*
X85090524Y-88920524D01*
X85103067Y-88909156D01*
X85116664Y-88899071D01*
X85131184Y-88890369D01*
X85146487Y-88883131D01*
X85162426Y-88877428D01*
X85178847Y-88873315D01*
X85195592Y-88870831D01*
X85212500Y-88870000D01*
X85607500Y-88870000D01*
X85624408Y-88870831D01*
G37*
G36*
X151674408Y-100730831D02*
G01*
X151691153Y-100733315D01*
X151707574Y-100737428D01*
X151723513Y-100743131D01*
X151738816Y-100750369D01*
X151753336Y-100759071D01*
X151766933Y-100769156D01*
X151779476Y-100780524D01*
X151790844Y-100793067D01*
X151800929Y-100806664D01*
X151809631Y-100821184D01*
X151816869Y-100836487D01*
X151822572Y-100852426D01*
X151826685Y-100868847D01*
X151829169Y-100885592D01*
X151830000Y-100902500D01*
X151830000Y-101297500D01*
X151829169Y-101314408D01*
X151826685Y-101331153D01*
X151822572Y-101347574D01*
X151816869Y-101363513D01*
X151809631Y-101378816D01*
X151800929Y-101393336D01*
X151790844Y-101406933D01*
X151779476Y-101419476D01*
X151766933Y-101430844D01*
X151753336Y-101440929D01*
X151738816Y-101449631D01*
X151723513Y-101456869D01*
X151707574Y-101462572D01*
X151691153Y-101466685D01*
X151674408Y-101469169D01*
X151657500Y-101470000D01*
X151312500Y-101470000D01*
X151295592Y-101469169D01*
X151278847Y-101466685D01*
X151262426Y-101462572D01*
X151246487Y-101456869D01*
X151231184Y-101449631D01*
X151216664Y-101440929D01*
X151203067Y-101430844D01*
X151190524Y-101419476D01*
X151179156Y-101406933D01*
X151169071Y-101393336D01*
X151160369Y-101378816D01*
X151153131Y-101363513D01*
X151147428Y-101347574D01*
X151143315Y-101331153D01*
X151140831Y-101314408D01*
X151140000Y-101297500D01*
X151140000Y-100902500D01*
X151140831Y-100885592D01*
X151143315Y-100868847D01*
X151147428Y-100852426D01*
X151153131Y-100836487D01*
X151160369Y-100821184D01*
X151169071Y-100806664D01*
X151179156Y-100793067D01*
X151190524Y-100780524D01*
X151203067Y-100769156D01*
X151216664Y-100759071D01*
X151231184Y-100750369D01*
X151246487Y-100743131D01*
X151262426Y-100737428D01*
X151278847Y-100733315D01*
X151295592Y-100730831D01*
X151312500Y-100730000D01*
X151657500Y-100730000D01*
X151674408Y-100730831D01*
G37*
G36*
X150704408Y-100730831D02*
G01*
X150721153Y-100733315D01*
X150737574Y-100737428D01*
X150753513Y-100743131D01*
X150768816Y-100750369D01*
X150783336Y-100759071D01*
X150796933Y-100769156D01*
X150809476Y-100780524D01*
X150820844Y-100793067D01*
X150830929Y-100806664D01*
X150839631Y-100821184D01*
X150846869Y-100836487D01*
X150852572Y-100852426D01*
X150856685Y-100868847D01*
X150859169Y-100885592D01*
X150860000Y-100902500D01*
X150860000Y-101297500D01*
X150859169Y-101314408D01*
X150856685Y-101331153D01*
X150852572Y-101347574D01*
X150846869Y-101363513D01*
X150839631Y-101378816D01*
X150830929Y-101393336D01*
X150820844Y-101406933D01*
X150809476Y-101419476D01*
X150796933Y-101430844D01*
X150783336Y-101440929D01*
X150768816Y-101449631D01*
X150753513Y-101456869D01*
X150737574Y-101462572D01*
X150721153Y-101466685D01*
X150704408Y-101469169D01*
X150687500Y-101470000D01*
X150342500Y-101470000D01*
X150325592Y-101469169D01*
X150308847Y-101466685D01*
X150292426Y-101462572D01*
X150276487Y-101456869D01*
X150261184Y-101449631D01*
X150246664Y-101440929D01*
X150233067Y-101430844D01*
X150220524Y-101419476D01*
X150209156Y-101406933D01*
X150199071Y-101393336D01*
X150190369Y-101378816D01*
X150183131Y-101363513D01*
X150177428Y-101347574D01*
X150173315Y-101331153D01*
X150170831Y-101314408D01*
X150170000Y-101297500D01*
X150170000Y-100902500D01*
X150170831Y-100885592D01*
X150173315Y-100868847D01*
X150177428Y-100852426D01*
X150183131Y-100836487D01*
X150190369Y-100821184D01*
X150199071Y-100806664D01*
X150209156Y-100793067D01*
X150220524Y-100780524D01*
X150233067Y-100769156D01*
X150246664Y-100759071D01*
X150261184Y-100750369D01*
X150276487Y-100743131D01*
X150292426Y-100737428D01*
X150308847Y-100733315D01*
X150325592Y-100730831D01*
X150342500Y-100730000D01*
X150687500Y-100730000D01*
X150704408Y-100730831D01*
G37*
G36*
X153574408Y-100730831D02*
G01*
X153591153Y-100733315D01*
X153607574Y-100737428D01*
X153623513Y-100743131D01*
X153638816Y-100750369D01*
X153653336Y-100759071D01*
X153666933Y-100769156D01*
X153679476Y-100780524D01*
X153690844Y-100793067D01*
X153700929Y-100806664D01*
X153709631Y-100821184D01*
X153716869Y-100836487D01*
X153722572Y-100852426D01*
X153726685Y-100868847D01*
X153729169Y-100885592D01*
X153730000Y-100902500D01*
X153730000Y-101297500D01*
X153729169Y-101314408D01*
X153726685Y-101331153D01*
X153722572Y-101347574D01*
X153716869Y-101363513D01*
X153709631Y-101378816D01*
X153700929Y-101393336D01*
X153690844Y-101406933D01*
X153679476Y-101419476D01*
X153666933Y-101430844D01*
X153653336Y-101440929D01*
X153638816Y-101449631D01*
X153623513Y-101456869D01*
X153607574Y-101462572D01*
X153591153Y-101466685D01*
X153574408Y-101469169D01*
X153557500Y-101470000D01*
X153212500Y-101470000D01*
X153195592Y-101469169D01*
X153178847Y-101466685D01*
X153162426Y-101462572D01*
X153146487Y-101456869D01*
X153131184Y-101449631D01*
X153116664Y-101440929D01*
X153103067Y-101430844D01*
X153090524Y-101419476D01*
X153079156Y-101406933D01*
X153069071Y-101393336D01*
X153060369Y-101378816D01*
X153053131Y-101363513D01*
X153047428Y-101347574D01*
X153043315Y-101331153D01*
X153040831Y-101314408D01*
X153040000Y-101297500D01*
X153040000Y-100902500D01*
X153040831Y-100885592D01*
X153043315Y-100868847D01*
X153047428Y-100852426D01*
X153053131Y-100836487D01*
X153060369Y-100821184D01*
X153069071Y-100806664D01*
X153079156Y-100793067D01*
X153090524Y-100780524D01*
X153103067Y-100769156D01*
X153116664Y-100759071D01*
X153131184Y-100750369D01*
X153146487Y-100743131D01*
X153162426Y-100737428D01*
X153178847Y-100733315D01*
X153195592Y-100730831D01*
X153212500Y-100730000D01*
X153557500Y-100730000D01*
X153574408Y-100730831D01*
G37*
G36*
X152604408Y-100730831D02*
G01*
X152621153Y-100733315D01*
X152637574Y-100737428D01*
X152653513Y-100743131D01*
X152668816Y-100750369D01*
X152683336Y-100759071D01*
X152696933Y-100769156D01*
X152709476Y-100780524D01*
X152720844Y-100793067D01*
X152730929Y-100806664D01*
X152739631Y-100821184D01*
X152746869Y-100836487D01*
X152752572Y-100852426D01*
X152756685Y-100868847D01*
X152759169Y-100885592D01*
X152760000Y-100902500D01*
X152760000Y-101297500D01*
X152759169Y-101314408D01*
X152756685Y-101331153D01*
X152752572Y-101347574D01*
X152746869Y-101363513D01*
X152739631Y-101378816D01*
X152730929Y-101393336D01*
X152720844Y-101406933D01*
X152709476Y-101419476D01*
X152696933Y-101430844D01*
X152683336Y-101440929D01*
X152668816Y-101449631D01*
X152653513Y-101456869D01*
X152637574Y-101462572D01*
X152621153Y-101466685D01*
X152604408Y-101469169D01*
X152587500Y-101470000D01*
X152242500Y-101470000D01*
X152225592Y-101469169D01*
X152208847Y-101466685D01*
X152192426Y-101462572D01*
X152176487Y-101456869D01*
X152161184Y-101449631D01*
X152146664Y-101440929D01*
X152133067Y-101430844D01*
X152120524Y-101419476D01*
X152109156Y-101406933D01*
X152099071Y-101393336D01*
X152090369Y-101378816D01*
X152083131Y-101363513D01*
X152077428Y-101347574D01*
X152073315Y-101331153D01*
X152070831Y-101314408D01*
X152070000Y-101297500D01*
X152070000Y-100902500D01*
X152070831Y-100885592D01*
X152073315Y-100868847D01*
X152077428Y-100852426D01*
X152083131Y-100836487D01*
X152090369Y-100821184D01*
X152099071Y-100806664D01*
X152109156Y-100793067D01*
X152120524Y-100780524D01*
X152133067Y-100769156D01*
X152146664Y-100759071D01*
X152161184Y-100750369D01*
X152176487Y-100743131D01*
X152192426Y-100737428D01*
X152208847Y-100733315D01*
X152225592Y-100730831D01*
X152242500Y-100730000D01*
X152587500Y-100730000D01*
X152604408Y-100730831D01*
G37*
G36*
X151204408Y-96530831D02*
G01*
X151221153Y-96533315D01*
X151237574Y-96537428D01*
X151253513Y-96543131D01*
X151268816Y-96550369D01*
X151283336Y-96559071D01*
X151296933Y-96569156D01*
X151309476Y-96580524D01*
X151320844Y-96593067D01*
X151330929Y-96606664D01*
X151339631Y-96621184D01*
X151346869Y-96636487D01*
X151352572Y-96652426D01*
X151356685Y-96668847D01*
X151359169Y-96685592D01*
X151360000Y-96702500D01*
X151360000Y-97097500D01*
X151359169Y-97114408D01*
X151356685Y-97131153D01*
X151352572Y-97147574D01*
X151346869Y-97163513D01*
X151339631Y-97178816D01*
X151330929Y-97193336D01*
X151320844Y-97206933D01*
X151309476Y-97219476D01*
X151296933Y-97230844D01*
X151283336Y-97240929D01*
X151268816Y-97249631D01*
X151253513Y-97256869D01*
X151237574Y-97262572D01*
X151221153Y-97266685D01*
X151204408Y-97269169D01*
X151187500Y-97270000D01*
X150842500Y-97270000D01*
X150825592Y-97269169D01*
X150808847Y-97266685D01*
X150792426Y-97262572D01*
X150776487Y-97256869D01*
X150761184Y-97249631D01*
X150746664Y-97240929D01*
X150733067Y-97230844D01*
X150720524Y-97219476D01*
X150709156Y-97206933D01*
X150699071Y-97193336D01*
X150690369Y-97178816D01*
X150683131Y-97163513D01*
X150677428Y-97147574D01*
X150673315Y-97131153D01*
X150670831Y-97114408D01*
X150670000Y-97097500D01*
X150670000Y-96702500D01*
X150670831Y-96685592D01*
X150673315Y-96668847D01*
X150677428Y-96652426D01*
X150683131Y-96636487D01*
X150690369Y-96621184D01*
X150699071Y-96606664D01*
X150709156Y-96593067D01*
X150720524Y-96580524D01*
X150733067Y-96569156D01*
X150746664Y-96559071D01*
X150761184Y-96550369D01*
X150776487Y-96543131D01*
X150792426Y-96537428D01*
X150808847Y-96533315D01*
X150825592Y-96530831D01*
X150842500Y-96530000D01*
X151187500Y-96530000D01*
X151204408Y-96530831D01*
G37*
G36*
X152174408Y-96530831D02*
G01*
X152191153Y-96533315D01*
X152207574Y-96537428D01*
X152223513Y-96543131D01*
X152238816Y-96550369D01*
X152253336Y-96559071D01*
X152266933Y-96569156D01*
X152279476Y-96580524D01*
X152290844Y-96593067D01*
X152300929Y-96606664D01*
X152309631Y-96621184D01*
X152316869Y-96636487D01*
X152322572Y-96652426D01*
X152326685Y-96668847D01*
X152329169Y-96685592D01*
X152330000Y-96702500D01*
X152330000Y-97097500D01*
X152329169Y-97114408D01*
X152326685Y-97131153D01*
X152322572Y-97147574D01*
X152316869Y-97163513D01*
X152309631Y-97178816D01*
X152300929Y-97193336D01*
X152290844Y-97206933D01*
X152279476Y-97219476D01*
X152266933Y-97230844D01*
X152253336Y-97240929D01*
X152238816Y-97249631D01*
X152223513Y-97256869D01*
X152207574Y-97262572D01*
X152191153Y-97266685D01*
X152174408Y-97269169D01*
X152157500Y-97270000D01*
X151812500Y-97270000D01*
X151795592Y-97269169D01*
X151778847Y-97266685D01*
X151762426Y-97262572D01*
X151746487Y-97256869D01*
X151731184Y-97249631D01*
X151716664Y-97240929D01*
X151703067Y-97230844D01*
X151690524Y-97219476D01*
X151679156Y-97206933D01*
X151669071Y-97193336D01*
X151660369Y-97178816D01*
X151653131Y-97163513D01*
X151647428Y-97147574D01*
X151643315Y-97131153D01*
X151640831Y-97114408D01*
X151640000Y-97097500D01*
X151640000Y-96702500D01*
X151640831Y-96685592D01*
X151643315Y-96668847D01*
X151647428Y-96652426D01*
X151653131Y-96636487D01*
X151660369Y-96621184D01*
X151669071Y-96606664D01*
X151679156Y-96593067D01*
X151690524Y-96580524D01*
X151703067Y-96569156D01*
X151716664Y-96559071D01*
X151731184Y-96550369D01*
X151746487Y-96543131D01*
X151762426Y-96537428D01*
X151778847Y-96533315D01*
X151795592Y-96530831D01*
X151812500Y-96530000D01*
X152157500Y-96530000D01*
X152174408Y-96530831D01*
G37*
D22*
X114230000Y-88250000D03*
X114230000Y-92000000D03*
X114230000Y-95750000D03*
D23*
X124230000Y-86950000D03*
X124230000Y-97050000D03*
D22*
X95300000Y-95250000D03*
X95300000Y-99000000D03*
X95300000Y-102750000D03*
D23*
X105300000Y-93950000D03*
X105300000Y-104050000D03*
X124230000Y-111050000D03*
X124230000Y-100950000D03*
D22*
X114230000Y-109750000D03*
X114230000Y-106000000D03*
X114230000Y-102250000D03*
D24*
X91450000Y-94390000D03*
X93470000Y-88930000D03*
D20*
X75000000Y-106000000D03*
X75000000Y-92000000D03*
D25*
X75500000Y-86500000D03*
X165450000Y-86500000D03*
X75500000Y-111500000D03*
X165500000Y-111500000D03*
D13*
G36*
X85814408Y-97440831D02*
G01*
X85831153Y-97443315D01*
X85847574Y-97447428D01*
X85863513Y-97453131D01*
X85878816Y-97460369D01*
X85893336Y-97469071D01*
X85906933Y-97479156D01*
X85919476Y-97490524D01*
X85930844Y-97503067D01*
X85940929Y-97516664D01*
X85949631Y-97531184D01*
X85956869Y-97546487D01*
X85962572Y-97562426D01*
X85966685Y-97578847D01*
X85969169Y-97595592D01*
X85970000Y-97612500D01*
X85970000Y-97957500D01*
X85969169Y-97974408D01*
X85966685Y-97991153D01*
X85962572Y-98007574D01*
X85956869Y-98023513D01*
X85949631Y-98038816D01*
X85940929Y-98053336D01*
X85930844Y-98066933D01*
X85919476Y-98079476D01*
X85906933Y-98090844D01*
X85893336Y-98100929D01*
X85878816Y-98109631D01*
X85863513Y-98116869D01*
X85847574Y-98122572D01*
X85831153Y-98126685D01*
X85814408Y-98129169D01*
X85797500Y-98130000D01*
X85402500Y-98130000D01*
X85385592Y-98129169D01*
X85368847Y-98126685D01*
X85352426Y-98122572D01*
X85336487Y-98116869D01*
X85321184Y-98109631D01*
X85306664Y-98100929D01*
X85293067Y-98090844D01*
X85280524Y-98079476D01*
X85269156Y-98066933D01*
X85259071Y-98053336D01*
X85250369Y-98038816D01*
X85243131Y-98023513D01*
X85237428Y-98007574D01*
X85233315Y-97991153D01*
X85230831Y-97974408D01*
X85230000Y-97957500D01*
X85230000Y-97612500D01*
X85230831Y-97595592D01*
X85233315Y-97578847D01*
X85237428Y-97562426D01*
X85243131Y-97546487D01*
X85250369Y-97531184D01*
X85259071Y-97516664D01*
X85269156Y-97503067D01*
X85280524Y-97490524D01*
X85293067Y-97479156D01*
X85306664Y-97469071D01*
X85321184Y-97460369D01*
X85336487Y-97453131D01*
X85352426Y-97447428D01*
X85368847Y-97443315D01*
X85385592Y-97440831D01*
X85402500Y-97440000D01*
X85797500Y-97440000D01*
X85814408Y-97440831D01*
G37*
G36*
X85814408Y-96470831D02*
G01*
X85831153Y-96473315D01*
X85847574Y-96477428D01*
X85863513Y-96483131D01*
X85878816Y-96490369D01*
X85893336Y-96499071D01*
X85906933Y-96509156D01*
X85919476Y-96520524D01*
X85930844Y-96533067D01*
X85940929Y-96546664D01*
X85949631Y-96561184D01*
X85956869Y-96576487D01*
X85962572Y-96592426D01*
X85966685Y-96608847D01*
X85969169Y-96625592D01*
X85970000Y-96642500D01*
X85970000Y-96987500D01*
X85969169Y-97004408D01*
X85966685Y-97021153D01*
X85962572Y-97037574D01*
X85956869Y-97053513D01*
X85949631Y-97068816D01*
X85940929Y-97083336D01*
X85930844Y-97096933D01*
X85919476Y-97109476D01*
X85906933Y-97120844D01*
X85893336Y-97130929D01*
X85878816Y-97139631D01*
X85863513Y-97146869D01*
X85847574Y-97152572D01*
X85831153Y-97156685D01*
X85814408Y-97159169D01*
X85797500Y-97160000D01*
X85402500Y-97160000D01*
X85385592Y-97159169D01*
X85368847Y-97156685D01*
X85352426Y-97152572D01*
X85336487Y-97146869D01*
X85321184Y-97139631D01*
X85306664Y-97130929D01*
X85293067Y-97120844D01*
X85280524Y-97109476D01*
X85269156Y-97096933D01*
X85259071Y-97083336D01*
X85250369Y-97068816D01*
X85243131Y-97053513D01*
X85237428Y-97037574D01*
X85233315Y-97021153D01*
X85230831Y-97004408D01*
X85230000Y-96987500D01*
X85230000Y-96642500D01*
X85230831Y-96625592D01*
X85233315Y-96608847D01*
X85237428Y-96592426D01*
X85243131Y-96576487D01*
X85250369Y-96561184D01*
X85259071Y-96546664D01*
X85269156Y-96533067D01*
X85280524Y-96520524D01*
X85293067Y-96509156D01*
X85306664Y-96499071D01*
X85321184Y-96490369D01*
X85336487Y-96483131D01*
X85352426Y-96477428D01*
X85368847Y-96473315D01*
X85385592Y-96470831D01*
X85402500Y-96470000D01*
X85797500Y-96470000D01*
X85814408Y-96470831D01*
G37*
G36*
X86624408Y-88870831D02*
G01*
X86641153Y-88873315D01*
X86657574Y-88877428D01*
X86673513Y-88883131D01*
X86688816Y-88890369D01*
X86703336Y-88899071D01*
X86716933Y-88909156D01*
X86729476Y-88920524D01*
X86740844Y-88933067D01*
X86750929Y-88946664D01*
X86759631Y-88961184D01*
X86766869Y-88976487D01*
X86772572Y-88992426D01*
X86776685Y-89008847D01*
X86779169Y-89025592D01*
X86780000Y-89042500D01*
X86780000Y-89387500D01*
X86779169Y-89404408D01*
X86776685Y-89421153D01*
X86772572Y-89437574D01*
X86766869Y-89453513D01*
X86759631Y-89468816D01*
X86750929Y-89483336D01*
X86740844Y-89496933D01*
X86729476Y-89509476D01*
X86716933Y-89520844D01*
X86703336Y-89530929D01*
X86688816Y-89539631D01*
X86673513Y-89546869D01*
X86657574Y-89552572D01*
X86641153Y-89556685D01*
X86624408Y-89559169D01*
X86607500Y-89560000D01*
X86212500Y-89560000D01*
X86195592Y-89559169D01*
X86178847Y-89556685D01*
X86162426Y-89552572D01*
X86146487Y-89546869D01*
X86131184Y-89539631D01*
X86116664Y-89530929D01*
X86103067Y-89520844D01*
X86090524Y-89509476D01*
X86079156Y-89496933D01*
X86069071Y-89483336D01*
X86060369Y-89468816D01*
X86053131Y-89453513D01*
X86047428Y-89437574D01*
X86043315Y-89421153D01*
X86040831Y-89404408D01*
X86040000Y-89387500D01*
X86040000Y-89042500D01*
X86040831Y-89025592D01*
X86043315Y-89008847D01*
X86047428Y-88992426D01*
X86053131Y-88976487D01*
X86060369Y-88961184D01*
X86069071Y-88946664D01*
X86079156Y-88933067D01*
X86090524Y-88920524D01*
X86103067Y-88909156D01*
X86116664Y-88899071D01*
X86131184Y-88890369D01*
X86146487Y-88883131D01*
X86162426Y-88877428D01*
X86178847Y-88873315D01*
X86195592Y-88870831D01*
X86212500Y-88870000D01*
X86607500Y-88870000D01*
X86624408Y-88870831D01*
G37*
G36*
X86624408Y-89840831D02*
G01*
X86641153Y-89843315D01*
X86657574Y-89847428D01*
X86673513Y-89853131D01*
X86688816Y-89860369D01*
X86703336Y-89869071D01*
X86716933Y-89879156D01*
X86729476Y-89890524D01*
X86740844Y-89903067D01*
X86750929Y-89916664D01*
X86759631Y-89931184D01*
X86766869Y-89946487D01*
X86772572Y-89962426D01*
X86776685Y-89978847D01*
X86779169Y-89995592D01*
X86780000Y-90012500D01*
X86780000Y-90357500D01*
X86779169Y-90374408D01*
X86776685Y-90391153D01*
X86772572Y-90407574D01*
X86766869Y-90423513D01*
X86759631Y-90438816D01*
X86750929Y-90453336D01*
X86740844Y-90466933D01*
X86729476Y-90479476D01*
X86716933Y-90490844D01*
X86703336Y-90500929D01*
X86688816Y-90509631D01*
X86673513Y-90516869D01*
X86657574Y-90522572D01*
X86641153Y-90526685D01*
X86624408Y-90529169D01*
X86607500Y-90530000D01*
X86212500Y-90530000D01*
X86195592Y-90529169D01*
X86178847Y-90526685D01*
X86162426Y-90522572D01*
X86146487Y-90516869D01*
X86131184Y-90509631D01*
X86116664Y-90500929D01*
X86103067Y-90490844D01*
X86090524Y-90479476D01*
X86079156Y-90466933D01*
X86069071Y-90453336D01*
X86060369Y-90438816D01*
X86053131Y-90423513D01*
X86047428Y-90407574D01*
X86043315Y-90391153D01*
X86040831Y-90374408D01*
X86040000Y-90357500D01*
X86040000Y-90012500D01*
X86040831Y-89995592D01*
X86043315Y-89978847D01*
X86047428Y-89962426D01*
X86053131Y-89946487D01*
X86060369Y-89931184D01*
X86069071Y-89916664D01*
X86079156Y-89903067D01*
X86090524Y-89890524D01*
X86103067Y-89879156D01*
X86116664Y-89869071D01*
X86131184Y-89860369D01*
X86146487Y-89853131D01*
X86162426Y-89847428D01*
X86178847Y-89843315D01*
X86195592Y-89840831D01*
X86212500Y-89840000D01*
X86607500Y-89840000D01*
X86624408Y-89840831D01*
G37*
G36*
X151674408Y-101730831D02*
G01*
X151691153Y-101733315D01*
X151707574Y-101737428D01*
X151723513Y-101743131D01*
X151738816Y-101750369D01*
X151753336Y-101759071D01*
X151766933Y-101769156D01*
X151779476Y-101780524D01*
X151790844Y-101793067D01*
X151800929Y-101806664D01*
X151809631Y-101821184D01*
X151816869Y-101836487D01*
X151822572Y-101852426D01*
X151826685Y-101868847D01*
X151829169Y-101885592D01*
X151830000Y-101902500D01*
X151830000Y-102297500D01*
X151829169Y-102314408D01*
X151826685Y-102331153D01*
X151822572Y-102347574D01*
X151816869Y-102363513D01*
X151809631Y-102378816D01*
X151800929Y-102393336D01*
X151790844Y-102406933D01*
X151779476Y-102419476D01*
X151766933Y-102430844D01*
X151753336Y-102440929D01*
X151738816Y-102449631D01*
X151723513Y-102456869D01*
X151707574Y-102462572D01*
X151691153Y-102466685D01*
X151674408Y-102469169D01*
X151657500Y-102470000D01*
X151312500Y-102470000D01*
X151295592Y-102469169D01*
X151278847Y-102466685D01*
X151262426Y-102462572D01*
X151246487Y-102456869D01*
X151231184Y-102449631D01*
X151216664Y-102440929D01*
X151203067Y-102430844D01*
X151190524Y-102419476D01*
X151179156Y-102406933D01*
X151169071Y-102393336D01*
X151160369Y-102378816D01*
X151153131Y-102363513D01*
X151147428Y-102347574D01*
X151143315Y-102331153D01*
X151140831Y-102314408D01*
X151140000Y-102297500D01*
X151140000Y-101902500D01*
X151140831Y-101885592D01*
X151143315Y-101868847D01*
X151147428Y-101852426D01*
X151153131Y-101836487D01*
X151160369Y-101821184D01*
X151169071Y-101806664D01*
X151179156Y-101793067D01*
X151190524Y-101780524D01*
X151203067Y-101769156D01*
X151216664Y-101759071D01*
X151231184Y-101750369D01*
X151246487Y-101743131D01*
X151262426Y-101737428D01*
X151278847Y-101733315D01*
X151295592Y-101730831D01*
X151312500Y-101730000D01*
X151657500Y-101730000D01*
X151674408Y-101730831D01*
G37*
G36*
X150704408Y-101730831D02*
G01*
X150721153Y-101733315D01*
X150737574Y-101737428D01*
X150753513Y-101743131D01*
X150768816Y-101750369D01*
X150783336Y-101759071D01*
X150796933Y-101769156D01*
X150809476Y-101780524D01*
X150820844Y-101793067D01*
X150830929Y-101806664D01*
X150839631Y-101821184D01*
X150846869Y-101836487D01*
X150852572Y-101852426D01*
X150856685Y-101868847D01*
X150859169Y-101885592D01*
X150860000Y-101902500D01*
X150860000Y-102297500D01*
X150859169Y-102314408D01*
X150856685Y-102331153D01*
X150852572Y-102347574D01*
X150846869Y-102363513D01*
X150839631Y-102378816D01*
X150830929Y-102393336D01*
X150820844Y-102406933D01*
X150809476Y-102419476D01*
X150796933Y-102430844D01*
X150783336Y-102440929D01*
X150768816Y-102449631D01*
X150753513Y-102456869D01*
X150737574Y-102462572D01*
X150721153Y-102466685D01*
X150704408Y-102469169D01*
X150687500Y-102470000D01*
X150342500Y-102470000D01*
X150325592Y-102469169D01*
X150308847Y-102466685D01*
X150292426Y-102462572D01*
X150276487Y-102456869D01*
X150261184Y-102449631D01*
X150246664Y-102440929D01*
X150233067Y-102430844D01*
X150220524Y-102419476D01*
X150209156Y-102406933D01*
X150199071Y-102393336D01*
X150190369Y-102378816D01*
X150183131Y-102363513D01*
X150177428Y-102347574D01*
X150173315Y-102331153D01*
X150170831Y-102314408D01*
X150170000Y-102297500D01*
X150170000Y-101902500D01*
X150170831Y-101885592D01*
X150173315Y-101868847D01*
X150177428Y-101852426D01*
X150183131Y-101836487D01*
X150190369Y-101821184D01*
X150199071Y-101806664D01*
X150209156Y-101793067D01*
X150220524Y-101780524D01*
X150233067Y-101769156D01*
X150246664Y-101759071D01*
X150261184Y-101750369D01*
X150276487Y-101743131D01*
X150292426Y-101737428D01*
X150308847Y-101733315D01*
X150325592Y-101730831D01*
X150342500Y-101730000D01*
X150687500Y-101730000D01*
X150704408Y-101730831D01*
G37*
G36*
X85814408Y-98370831D02*
G01*
X85831153Y-98373315D01*
X85847574Y-98377428D01*
X85863513Y-98383131D01*
X85878816Y-98390369D01*
X85893336Y-98399071D01*
X85906933Y-98409156D01*
X85919476Y-98420524D01*
X85930844Y-98433067D01*
X85940929Y-98446664D01*
X85949631Y-98461184D01*
X85956869Y-98476487D01*
X85962572Y-98492426D01*
X85966685Y-98508847D01*
X85969169Y-98525592D01*
X85970000Y-98542500D01*
X85970000Y-98887500D01*
X85969169Y-98904408D01*
X85966685Y-98921153D01*
X85962572Y-98937574D01*
X85956869Y-98953513D01*
X85949631Y-98968816D01*
X85940929Y-98983336D01*
X85930844Y-98996933D01*
X85919476Y-99009476D01*
X85906933Y-99020844D01*
X85893336Y-99030929D01*
X85878816Y-99039631D01*
X85863513Y-99046869D01*
X85847574Y-99052572D01*
X85831153Y-99056685D01*
X85814408Y-99059169D01*
X85797500Y-99060000D01*
X85402500Y-99060000D01*
X85385592Y-99059169D01*
X85368847Y-99056685D01*
X85352426Y-99052572D01*
X85336487Y-99046869D01*
X85321184Y-99039631D01*
X85306664Y-99030929D01*
X85293067Y-99020844D01*
X85280524Y-99009476D01*
X85269156Y-98996933D01*
X85259071Y-98983336D01*
X85250369Y-98968816D01*
X85243131Y-98953513D01*
X85237428Y-98937574D01*
X85233315Y-98921153D01*
X85230831Y-98904408D01*
X85230000Y-98887500D01*
X85230000Y-98542500D01*
X85230831Y-98525592D01*
X85233315Y-98508847D01*
X85237428Y-98492426D01*
X85243131Y-98476487D01*
X85250369Y-98461184D01*
X85259071Y-98446664D01*
X85269156Y-98433067D01*
X85280524Y-98420524D01*
X85293067Y-98409156D01*
X85306664Y-98399071D01*
X85321184Y-98390369D01*
X85336487Y-98383131D01*
X85352426Y-98377428D01*
X85368847Y-98373315D01*
X85385592Y-98370831D01*
X85402500Y-98370000D01*
X85797500Y-98370000D01*
X85814408Y-98370831D01*
G37*
G36*
X85814408Y-99340831D02*
G01*
X85831153Y-99343315D01*
X85847574Y-99347428D01*
X85863513Y-99353131D01*
X85878816Y-99360369D01*
X85893336Y-99369071D01*
X85906933Y-99379156D01*
X85919476Y-99390524D01*
X85930844Y-99403067D01*
X85940929Y-99416664D01*
X85949631Y-99431184D01*
X85956869Y-99446487D01*
X85962572Y-99462426D01*
X85966685Y-99478847D01*
X85969169Y-99495592D01*
X85970000Y-99512500D01*
X85970000Y-99857500D01*
X85969169Y-99874408D01*
X85966685Y-99891153D01*
X85962572Y-99907574D01*
X85956869Y-99923513D01*
X85949631Y-99938816D01*
X85940929Y-99953336D01*
X85930844Y-99966933D01*
X85919476Y-99979476D01*
X85906933Y-99990844D01*
X85893336Y-100000929D01*
X85878816Y-100009631D01*
X85863513Y-100016869D01*
X85847574Y-100022572D01*
X85831153Y-100026685D01*
X85814408Y-100029169D01*
X85797500Y-100030000D01*
X85402500Y-100030000D01*
X85385592Y-100029169D01*
X85368847Y-100026685D01*
X85352426Y-100022572D01*
X85336487Y-100016869D01*
X85321184Y-100009631D01*
X85306664Y-100000929D01*
X85293067Y-99990844D01*
X85280524Y-99979476D01*
X85269156Y-99966933D01*
X85259071Y-99953336D01*
X85250369Y-99938816D01*
X85243131Y-99923513D01*
X85237428Y-99907574D01*
X85233315Y-99891153D01*
X85230831Y-99874408D01*
X85230000Y-99857500D01*
X85230000Y-99512500D01*
X85230831Y-99495592D01*
X85233315Y-99478847D01*
X85237428Y-99462426D01*
X85243131Y-99446487D01*
X85250369Y-99431184D01*
X85259071Y-99416664D01*
X85269156Y-99403067D01*
X85280524Y-99390524D01*
X85293067Y-99379156D01*
X85306664Y-99369071D01*
X85321184Y-99360369D01*
X85336487Y-99353131D01*
X85352426Y-99347428D01*
X85368847Y-99343315D01*
X85385592Y-99340831D01*
X85402500Y-99340000D01*
X85797500Y-99340000D01*
X85814408Y-99340831D01*
G37*
D24*
X145700000Y-103320000D03*
X151900000Y-105560000D03*
D20*
X164000000Y-100400000D03*
D21*
X164000000Y-97860000D03*
D24*
X80830000Y-102410000D03*
X86970000Y-106000000D03*
D26*
X151000000Y-99000000D03*
D13*
G36*
X151859802Y-99575482D02*
G01*
X151869509Y-99576921D01*
X151879028Y-99579306D01*
X151888268Y-99582612D01*
X151897140Y-99586808D01*
X151905557Y-99591853D01*
X151913439Y-99597699D01*
X151920711Y-99604289D01*
X151927301Y-99611561D01*
X151933147Y-99619443D01*
X151938192Y-99627860D01*
X151942388Y-99636732D01*
X151945694Y-99645972D01*
X151948079Y-99655491D01*
X151949518Y-99665198D01*
X151950000Y-99675000D01*
X151950000Y-100325000D01*
X151949518Y-100334802D01*
X151948079Y-100344509D01*
X151945694Y-100354028D01*
X151942388Y-100363268D01*
X151938192Y-100372140D01*
X151933147Y-100380557D01*
X151927301Y-100388439D01*
X151920711Y-100395711D01*
X151913439Y-100402301D01*
X151905557Y-100408147D01*
X151897140Y-100413192D01*
X151888268Y-100417388D01*
X151879028Y-100420694D01*
X151869509Y-100423079D01*
X151859802Y-100424518D01*
X151850000Y-100425000D01*
X151650000Y-100425000D01*
X151640198Y-100424518D01*
X151630491Y-100423079D01*
X151620972Y-100420694D01*
X151611732Y-100417388D01*
X151602860Y-100413192D01*
X151594443Y-100408147D01*
X151586561Y-100402301D01*
X151579289Y-100395711D01*
X151572699Y-100388439D01*
X151566853Y-100380557D01*
X151561808Y-100372140D01*
X151557612Y-100363268D01*
X151554306Y-100354028D01*
X151551921Y-100344509D01*
X151550482Y-100334802D01*
X151550000Y-100325000D01*
X151550000Y-99675000D01*
X151550482Y-99665198D01*
X151551921Y-99655491D01*
X151554306Y-99645972D01*
X151557612Y-99636732D01*
X151561808Y-99627860D01*
X151566853Y-99619443D01*
X151572699Y-99611561D01*
X151579289Y-99604289D01*
X151586561Y-99597699D01*
X151594443Y-99591853D01*
X151602860Y-99586808D01*
X151611732Y-99582612D01*
X151620972Y-99579306D01*
X151630491Y-99576921D01*
X151640198Y-99575482D01*
X151650000Y-99575000D01*
X151850000Y-99575000D01*
X151859802Y-99575482D01*
G37*
G36*
X151359802Y-99575482D02*
G01*
X151369509Y-99576921D01*
X151379028Y-99579306D01*
X151388268Y-99582612D01*
X151397140Y-99586808D01*
X151405557Y-99591853D01*
X151413439Y-99597699D01*
X151420711Y-99604289D01*
X151427301Y-99611561D01*
X151433147Y-99619443D01*
X151438192Y-99627860D01*
X151442388Y-99636732D01*
X151445694Y-99645972D01*
X151448079Y-99655491D01*
X151449518Y-99665198D01*
X151450000Y-99675000D01*
X151450000Y-100325000D01*
X151449518Y-100334802D01*
X151448079Y-100344509D01*
X151445694Y-100354028D01*
X151442388Y-100363268D01*
X151438192Y-100372140D01*
X151433147Y-100380557D01*
X151427301Y-100388439D01*
X151420711Y-100395711D01*
X151413439Y-100402301D01*
X151405557Y-100408147D01*
X151397140Y-100413192D01*
X151388268Y-100417388D01*
X151379028Y-100420694D01*
X151369509Y-100423079D01*
X151359802Y-100424518D01*
X151350000Y-100425000D01*
X151150000Y-100425000D01*
X151140198Y-100424518D01*
X151130491Y-100423079D01*
X151120972Y-100420694D01*
X151111732Y-100417388D01*
X151102860Y-100413192D01*
X151094443Y-100408147D01*
X151086561Y-100402301D01*
X151079289Y-100395711D01*
X151072699Y-100388439D01*
X151066853Y-100380557D01*
X151061808Y-100372140D01*
X151057612Y-100363268D01*
X151054306Y-100354028D01*
X151051921Y-100344509D01*
X151050482Y-100334802D01*
X151050000Y-100325000D01*
X151050000Y-99675000D01*
X151050482Y-99665198D01*
X151051921Y-99655491D01*
X151054306Y-99645972D01*
X151057612Y-99636732D01*
X151061808Y-99627860D01*
X151066853Y-99619443D01*
X151072699Y-99611561D01*
X151079289Y-99604289D01*
X151086561Y-99597699D01*
X151094443Y-99591853D01*
X151102860Y-99586808D01*
X151111732Y-99582612D01*
X151120972Y-99579306D01*
X151130491Y-99576921D01*
X151140198Y-99575482D01*
X151150000Y-99575000D01*
X151350000Y-99575000D01*
X151359802Y-99575482D01*
G37*
G36*
X150859802Y-99575482D02*
G01*
X150869509Y-99576921D01*
X150879028Y-99579306D01*
X150888268Y-99582612D01*
X150897140Y-99586808D01*
X150905557Y-99591853D01*
X150913439Y-99597699D01*
X150920711Y-99604289D01*
X150927301Y-99611561D01*
X150933147Y-99619443D01*
X150938192Y-99627860D01*
X150942388Y-99636732D01*
X150945694Y-99645972D01*
X150948079Y-99655491D01*
X150949518Y-99665198D01*
X150950000Y-99675000D01*
X150950000Y-100325000D01*
X150949518Y-100334802D01*
X150948079Y-100344509D01*
X150945694Y-100354028D01*
X150942388Y-100363268D01*
X150938192Y-100372140D01*
X150933147Y-100380557D01*
X150927301Y-100388439D01*
X150920711Y-100395711D01*
X150913439Y-100402301D01*
X150905557Y-100408147D01*
X150897140Y-100413192D01*
X150888268Y-100417388D01*
X150879028Y-100420694D01*
X150869509Y-100423079D01*
X150859802Y-100424518D01*
X150850000Y-100425000D01*
X150650000Y-100425000D01*
X150640198Y-100424518D01*
X150630491Y-100423079D01*
X150620972Y-100420694D01*
X150611732Y-100417388D01*
X150602860Y-100413192D01*
X150594443Y-100408147D01*
X150586561Y-100402301D01*
X150579289Y-100395711D01*
X150572699Y-100388439D01*
X150566853Y-100380557D01*
X150561808Y-100372140D01*
X150557612Y-100363268D01*
X150554306Y-100354028D01*
X150551921Y-100344509D01*
X150550482Y-100334802D01*
X150550000Y-100325000D01*
X150550000Y-99675000D01*
X150550482Y-99665198D01*
X150551921Y-99655491D01*
X150554306Y-99645972D01*
X150557612Y-99636732D01*
X150561808Y-99627860D01*
X150566853Y-99619443D01*
X150572699Y-99611561D01*
X150579289Y-99604289D01*
X150586561Y-99597699D01*
X150594443Y-99591853D01*
X150602860Y-99586808D01*
X150611732Y-99582612D01*
X150620972Y-99579306D01*
X150630491Y-99576921D01*
X150640198Y-99575482D01*
X150650000Y-99575000D01*
X150850000Y-99575000D01*
X150859802Y-99575482D01*
G37*
G36*
X150359802Y-99575482D02*
G01*
X150369509Y-99576921D01*
X150379028Y-99579306D01*
X150388268Y-99582612D01*
X150397140Y-99586808D01*
X150405557Y-99591853D01*
X150413439Y-99597699D01*
X150420711Y-99604289D01*
X150427301Y-99611561D01*
X150433147Y-99619443D01*
X150438192Y-99627860D01*
X150442388Y-99636732D01*
X150445694Y-99645972D01*
X150448079Y-99655491D01*
X150449518Y-99665198D01*
X150450000Y-99675000D01*
X150450000Y-100325000D01*
X150449518Y-100334802D01*
X150448079Y-100344509D01*
X150445694Y-100354028D01*
X150442388Y-100363268D01*
X150438192Y-100372140D01*
X150433147Y-100380557D01*
X150427301Y-100388439D01*
X150420711Y-100395711D01*
X150413439Y-100402301D01*
X150405557Y-100408147D01*
X150397140Y-100413192D01*
X150388268Y-100417388D01*
X150379028Y-100420694D01*
X150369509Y-100423079D01*
X150359802Y-100424518D01*
X150350000Y-100425000D01*
X150150000Y-100425000D01*
X150140198Y-100424518D01*
X150130491Y-100423079D01*
X150120972Y-100420694D01*
X150111732Y-100417388D01*
X150102860Y-100413192D01*
X150094443Y-100408147D01*
X150086561Y-100402301D01*
X150079289Y-100395711D01*
X150072699Y-100388439D01*
X150066853Y-100380557D01*
X150061808Y-100372140D01*
X150057612Y-100363268D01*
X150054306Y-100354028D01*
X150051921Y-100344509D01*
X150050482Y-100334802D01*
X150050000Y-100325000D01*
X150050000Y-99675000D01*
X150050482Y-99665198D01*
X150051921Y-99655491D01*
X150054306Y-99645972D01*
X150057612Y-99636732D01*
X150061808Y-99627860D01*
X150066853Y-99619443D01*
X150072699Y-99611561D01*
X150079289Y-99604289D01*
X150086561Y-99597699D01*
X150094443Y-99591853D01*
X150102860Y-99586808D01*
X150111732Y-99582612D01*
X150120972Y-99579306D01*
X150130491Y-99576921D01*
X150140198Y-99575482D01*
X150150000Y-99575000D01*
X150350000Y-99575000D01*
X150359802Y-99575482D01*
G37*
G36*
X150359802Y-97575482D02*
G01*
X150369509Y-97576921D01*
X150379028Y-97579306D01*
X150388268Y-97582612D01*
X150397140Y-97586808D01*
X150405557Y-97591853D01*
X150413439Y-97597699D01*
X150420711Y-97604289D01*
X150427301Y-97611561D01*
X150433147Y-97619443D01*
X150438192Y-97627860D01*
X150442388Y-97636732D01*
X150445694Y-97645972D01*
X150448079Y-97655491D01*
X150449518Y-97665198D01*
X150450000Y-97675000D01*
X150450000Y-98325000D01*
X150449518Y-98334802D01*
X150448079Y-98344509D01*
X150445694Y-98354028D01*
X150442388Y-98363268D01*
X150438192Y-98372140D01*
X150433147Y-98380557D01*
X150427301Y-98388439D01*
X150420711Y-98395711D01*
X150413439Y-98402301D01*
X150405557Y-98408147D01*
X150397140Y-98413192D01*
X150388268Y-98417388D01*
X150379028Y-98420694D01*
X150369509Y-98423079D01*
X150359802Y-98424518D01*
X150350000Y-98425000D01*
X150150000Y-98425000D01*
X150140198Y-98424518D01*
X150130491Y-98423079D01*
X150120972Y-98420694D01*
X150111732Y-98417388D01*
X150102860Y-98413192D01*
X150094443Y-98408147D01*
X150086561Y-98402301D01*
X150079289Y-98395711D01*
X150072699Y-98388439D01*
X150066853Y-98380557D01*
X150061808Y-98372140D01*
X150057612Y-98363268D01*
X150054306Y-98354028D01*
X150051921Y-98344509D01*
X150050482Y-98334802D01*
X150050000Y-98325000D01*
X150050000Y-97675000D01*
X150050482Y-97665198D01*
X150051921Y-97655491D01*
X150054306Y-97645972D01*
X150057612Y-97636732D01*
X150061808Y-97627860D01*
X150066853Y-97619443D01*
X150072699Y-97611561D01*
X150079289Y-97604289D01*
X150086561Y-97597699D01*
X150094443Y-97591853D01*
X150102860Y-97586808D01*
X150111732Y-97582612D01*
X150120972Y-97579306D01*
X150130491Y-97576921D01*
X150140198Y-97575482D01*
X150150000Y-97575000D01*
X150350000Y-97575000D01*
X150359802Y-97575482D01*
G37*
G36*
X150859802Y-97575482D02*
G01*
X150869509Y-97576921D01*
X150879028Y-97579306D01*
X150888268Y-97582612D01*
X150897140Y-97586808D01*
X150905557Y-97591853D01*
X150913439Y-97597699D01*
X150920711Y-97604289D01*
X150927301Y-97611561D01*
X150933147Y-97619443D01*
X150938192Y-97627860D01*
X150942388Y-97636732D01*
X150945694Y-97645972D01*
X150948079Y-97655491D01*
X150949518Y-97665198D01*
X150950000Y-97675000D01*
X150950000Y-98325000D01*
X150949518Y-98334802D01*
X150948079Y-98344509D01*
X150945694Y-98354028D01*
X150942388Y-98363268D01*
X150938192Y-98372140D01*
X150933147Y-98380557D01*
X150927301Y-98388439D01*
X150920711Y-98395711D01*
X150913439Y-98402301D01*
X150905557Y-98408147D01*
X150897140Y-98413192D01*
X150888268Y-98417388D01*
X150879028Y-98420694D01*
X150869509Y-98423079D01*
X150859802Y-98424518D01*
X150850000Y-98425000D01*
X150650000Y-98425000D01*
X150640198Y-98424518D01*
X150630491Y-98423079D01*
X150620972Y-98420694D01*
X150611732Y-98417388D01*
X150602860Y-98413192D01*
X150594443Y-98408147D01*
X150586561Y-98402301D01*
X150579289Y-98395711D01*
X150572699Y-98388439D01*
X150566853Y-98380557D01*
X150561808Y-98372140D01*
X150557612Y-98363268D01*
X150554306Y-98354028D01*
X150551921Y-98344509D01*
X150550482Y-98334802D01*
X150550000Y-98325000D01*
X150550000Y-97675000D01*
X150550482Y-97665198D01*
X150551921Y-97655491D01*
X150554306Y-97645972D01*
X150557612Y-97636732D01*
X150561808Y-97627860D01*
X150566853Y-97619443D01*
X150572699Y-97611561D01*
X150579289Y-97604289D01*
X150586561Y-97597699D01*
X150594443Y-97591853D01*
X150602860Y-97586808D01*
X150611732Y-97582612D01*
X150620972Y-97579306D01*
X150630491Y-97576921D01*
X150640198Y-97575482D01*
X150650000Y-97575000D01*
X150850000Y-97575000D01*
X150859802Y-97575482D01*
G37*
G36*
X151359802Y-97575482D02*
G01*
X151369509Y-97576921D01*
X151379028Y-97579306D01*
X151388268Y-97582612D01*
X151397140Y-97586808D01*
X151405557Y-97591853D01*
X151413439Y-97597699D01*
X151420711Y-97604289D01*
X151427301Y-97611561D01*
X151433147Y-97619443D01*
X151438192Y-97627860D01*
X151442388Y-97636732D01*
X151445694Y-97645972D01*
X151448079Y-97655491D01*
X151449518Y-97665198D01*
X151450000Y-97675000D01*
X151450000Y-98325000D01*
X151449518Y-98334802D01*
X151448079Y-98344509D01*
X151445694Y-98354028D01*
X151442388Y-98363268D01*
X151438192Y-98372140D01*
X151433147Y-98380557D01*
X151427301Y-98388439D01*
X151420711Y-98395711D01*
X151413439Y-98402301D01*
X151405557Y-98408147D01*
X151397140Y-98413192D01*
X151388268Y-98417388D01*
X151379028Y-98420694D01*
X151369509Y-98423079D01*
X151359802Y-98424518D01*
X151350000Y-98425000D01*
X151150000Y-98425000D01*
X151140198Y-98424518D01*
X151130491Y-98423079D01*
X151120972Y-98420694D01*
X151111732Y-98417388D01*
X151102860Y-98413192D01*
X151094443Y-98408147D01*
X151086561Y-98402301D01*
X151079289Y-98395711D01*
X151072699Y-98388439D01*
X151066853Y-98380557D01*
X151061808Y-98372140D01*
X151057612Y-98363268D01*
X151054306Y-98354028D01*
X151051921Y-98344509D01*
X151050482Y-98334802D01*
X151050000Y-98325000D01*
X151050000Y-97675000D01*
X151050482Y-97665198D01*
X151051921Y-97655491D01*
X151054306Y-97645972D01*
X151057612Y-97636732D01*
X151061808Y-97627860D01*
X151066853Y-97619443D01*
X151072699Y-97611561D01*
X151079289Y-97604289D01*
X151086561Y-97597699D01*
X151094443Y-97591853D01*
X151102860Y-97586808D01*
X151111732Y-97582612D01*
X151120972Y-97579306D01*
X151130491Y-97576921D01*
X151140198Y-97575482D01*
X151150000Y-97575000D01*
X151350000Y-97575000D01*
X151359802Y-97575482D01*
G37*
G36*
X151859802Y-97575482D02*
G01*
X151869509Y-97576921D01*
X151879028Y-97579306D01*
X151888268Y-97582612D01*
X151897140Y-97586808D01*
X151905557Y-97591853D01*
X151913439Y-97597699D01*
X151920711Y-97604289D01*
X151927301Y-97611561D01*
X151933147Y-97619443D01*
X151938192Y-97627860D01*
X151942388Y-97636732D01*
X151945694Y-97645972D01*
X151948079Y-97655491D01*
X151949518Y-97665198D01*
X151950000Y-97675000D01*
X151950000Y-98325000D01*
X151949518Y-98334802D01*
X151948079Y-98344509D01*
X151945694Y-98354028D01*
X151942388Y-98363268D01*
X151938192Y-98372140D01*
X151933147Y-98380557D01*
X151927301Y-98388439D01*
X151920711Y-98395711D01*
X151913439Y-98402301D01*
X151905557Y-98408147D01*
X151897140Y-98413192D01*
X151888268Y-98417388D01*
X151879028Y-98420694D01*
X151869509Y-98423079D01*
X151859802Y-98424518D01*
X151850000Y-98425000D01*
X151650000Y-98425000D01*
X151640198Y-98424518D01*
X151630491Y-98423079D01*
X151620972Y-98420694D01*
X151611732Y-98417388D01*
X151602860Y-98413192D01*
X151594443Y-98408147D01*
X151586561Y-98402301D01*
X151579289Y-98395711D01*
X151572699Y-98388439D01*
X151566853Y-98380557D01*
X151561808Y-98372140D01*
X151557612Y-98363268D01*
X151554306Y-98354028D01*
X151551921Y-98344509D01*
X151550482Y-98334802D01*
X151550000Y-98325000D01*
X151550000Y-97675000D01*
X151550482Y-97665198D01*
X151551921Y-97655491D01*
X151554306Y-97645972D01*
X151557612Y-97636732D01*
X151561808Y-97627860D01*
X151566853Y-97619443D01*
X151572699Y-97611561D01*
X151579289Y-97604289D01*
X151586561Y-97597699D01*
X151594443Y-97591853D01*
X151602860Y-97586808D01*
X151611732Y-97582612D01*
X151620972Y-97579306D01*
X151630491Y-97576921D01*
X151640198Y-97575482D01*
X151650000Y-97575000D01*
X151850000Y-97575000D01*
X151859802Y-97575482D01*
G37*
D27*
X141000000Y-95000000D03*
D28*
X133380000Y-102620000D03*
X138460000Y-95000000D03*
X135920000Y-102620000D03*
X135920000Y-95000000D03*
X138460000Y-102620000D03*
X133380000Y-95000000D03*
X141000000Y-102620000D03*
D13*
G36*
X88229802Y-91285482D02*
G01*
X88239509Y-91286921D01*
X88249028Y-91289306D01*
X88258268Y-91292612D01*
X88267140Y-91296808D01*
X88275557Y-91301853D01*
X88283439Y-91307699D01*
X88290711Y-91314289D01*
X88297301Y-91321561D01*
X88303147Y-91329443D01*
X88308192Y-91337860D01*
X88312388Y-91346732D01*
X88315694Y-91355972D01*
X88318079Y-91365491D01*
X88319518Y-91375198D01*
X88320000Y-91385000D01*
X88320000Y-92035000D01*
X88319518Y-92044802D01*
X88318079Y-92054509D01*
X88315694Y-92064028D01*
X88312388Y-92073268D01*
X88308192Y-92082140D01*
X88303147Y-92090557D01*
X88297301Y-92098439D01*
X88290711Y-92105711D01*
X88283439Y-92112301D01*
X88275557Y-92118147D01*
X88267140Y-92123192D01*
X88258268Y-92127388D01*
X88249028Y-92130694D01*
X88239509Y-92133079D01*
X88229802Y-92134518D01*
X88220000Y-92135000D01*
X88020000Y-92135000D01*
X88010198Y-92134518D01*
X88000491Y-92133079D01*
X87990972Y-92130694D01*
X87981732Y-92127388D01*
X87972860Y-92123192D01*
X87964443Y-92118147D01*
X87956561Y-92112301D01*
X87949289Y-92105711D01*
X87942699Y-92098439D01*
X87936853Y-92090557D01*
X87931808Y-92082140D01*
X87927612Y-92073268D01*
X87924306Y-92064028D01*
X87921921Y-92054509D01*
X87920482Y-92044802D01*
X87920000Y-92035000D01*
X87920000Y-91385000D01*
X87920482Y-91375198D01*
X87921921Y-91365491D01*
X87924306Y-91355972D01*
X87927612Y-91346732D01*
X87931808Y-91337860D01*
X87936853Y-91329443D01*
X87942699Y-91321561D01*
X87949289Y-91314289D01*
X87956561Y-91307699D01*
X87964443Y-91301853D01*
X87972860Y-91296808D01*
X87981732Y-91292612D01*
X87990972Y-91289306D01*
X88000491Y-91286921D01*
X88010198Y-91285482D01*
X88020000Y-91285000D01*
X88220000Y-91285000D01*
X88229802Y-91285482D01*
G37*
G36*
X87729802Y-91285482D02*
G01*
X87739509Y-91286921D01*
X87749028Y-91289306D01*
X87758268Y-91292612D01*
X87767140Y-91296808D01*
X87775557Y-91301853D01*
X87783439Y-91307699D01*
X87790711Y-91314289D01*
X87797301Y-91321561D01*
X87803147Y-91329443D01*
X87808192Y-91337860D01*
X87812388Y-91346732D01*
X87815694Y-91355972D01*
X87818079Y-91365491D01*
X87819518Y-91375198D01*
X87820000Y-91385000D01*
X87820000Y-92035000D01*
X87819518Y-92044802D01*
X87818079Y-92054509D01*
X87815694Y-92064028D01*
X87812388Y-92073268D01*
X87808192Y-92082140D01*
X87803147Y-92090557D01*
X87797301Y-92098439D01*
X87790711Y-92105711D01*
X87783439Y-92112301D01*
X87775557Y-92118147D01*
X87767140Y-92123192D01*
X87758268Y-92127388D01*
X87749028Y-92130694D01*
X87739509Y-92133079D01*
X87729802Y-92134518D01*
X87720000Y-92135000D01*
X87520000Y-92135000D01*
X87510198Y-92134518D01*
X87500491Y-92133079D01*
X87490972Y-92130694D01*
X87481732Y-92127388D01*
X87472860Y-92123192D01*
X87464443Y-92118147D01*
X87456561Y-92112301D01*
X87449289Y-92105711D01*
X87442699Y-92098439D01*
X87436853Y-92090557D01*
X87431808Y-92082140D01*
X87427612Y-92073268D01*
X87424306Y-92064028D01*
X87421921Y-92054509D01*
X87420482Y-92044802D01*
X87420000Y-92035000D01*
X87420000Y-91385000D01*
X87420482Y-91375198D01*
X87421921Y-91365491D01*
X87424306Y-91355972D01*
X87427612Y-91346732D01*
X87431808Y-91337860D01*
X87436853Y-91329443D01*
X87442699Y-91321561D01*
X87449289Y-91314289D01*
X87456561Y-91307699D01*
X87464443Y-91301853D01*
X87472860Y-91296808D01*
X87481732Y-91292612D01*
X87490972Y-91289306D01*
X87500491Y-91286921D01*
X87510198Y-91285482D01*
X87520000Y-91285000D01*
X87720000Y-91285000D01*
X87729802Y-91285482D01*
G37*
G36*
X87229802Y-91285482D02*
G01*
X87239509Y-91286921D01*
X87249028Y-91289306D01*
X87258268Y-91292612D01*
X87267140Y-91296808D01*
X87275557Y-91301853D01*
X87283439Y-91307699D01*
X87290711Y-91314289D01*
X87297301Y-91321561D01*
X87303147Y-91329443D01*
X87308192Y-91337860D01*
X87312388Y-91346732D01*
X87315694Y-91355972D01*
X87318079Y-91365491D01*
X87319518Y-91375198D01*
X87320000Y-91385000D01*
X87320000Y-92035000D01*
X87319518Y-92044802D01*
X87318079Y-92054509D01*
X87315694Y-92064028D01*
X87312388Y-92073268D01*
X87308192Y-92082140D01*
X87303147Y-92090557D01*
X87297301Y-92098439D01*
X87290711Y-92105711D01*
X87283439Y-92112301D01*
X87275557Y-92118147D01*
X87267140Y-92123192D01*
X87258268Y-92127388D01*
X87249028Y-92130694D01*
X87239509Y-92133079D01*
X87229802Y-92134518D01*
X87220000Y-92135000D01*
X87020000Y-92135000D01*
X87010198Y-92134518D01*
X87000491Y-92133079D01*
X86990972Y-92130694D01*
X86981732Y-92127388D01*
X86972860Y-92123192D01*
X86964443Y-92118147D01*
X86956561Y-92112301D01*
X86949289Y-92105711D01*
X86942699Y-92098439D01*
X86936853Y-92090557D01*
X86931808Y-92082140D01*
X86927612Y-92073268D01*
X86924306Y-92064028D01*
X86921921Y-92054509D01*
X86920482Y-92044802D01*
X86920000Y-92035000D01*
X86920000Y-91385000D01*
X86920482Y-91375198D01*
X86921921Y-91365491D01*
X86924306Y-91355972D01*
X86927612Y-91346732D01*
X86931808Y-91337860D01*
X86936853Y-91329443D01*
X86942699Y-91321561D01*
X86949289Y-91314289D01*
X86956561Y-91307699D01*
X86964443Y-91301853D01*
X86972860Y-91296808D01*
X86981732Y-91292612D01*
X86990972Y-91289306D01*
X87000491Y-91286921D01*
X87010198Y-91285482D01*
X87020000Y-91285000D01*
X87220000Y-91285000D01*
X87229802Y-91285482D01*
G37*
G36*
X86729802Y-91285482D02*
G01*
X86739509Y-91286921D01*
X86749028Y-91289306D01*
X86758268Y-91292612D01*
X86767140Y-91296808D01*
X86775557Y-91301853D01*
X86783439Y-91307699D01*
X86790711Y-91314289D01*
X86797301Y-91321561D01*
X86803147Y-91329443D01*
X86808192Y-91337860D01*
X86812388Y-91346732D01*
X86815694Y-91355972D01*
X86818079Y-91365491D01*
X86819518Y-91375198D01*
X86820000Y-91385000D01*
X86820000Y-92035000D01*
X86819518Y-92044802D01*
X86818079Y-92054509D01*
X86815694Y-92064028D01*
X86812388Y-92073268D01*
X86808192Y-92082140D01*
X86803147Y-92090557D01*
X86797301Y-92098439D01*
X86790711Y-92105711D01*
X86783439Y-92112301D01*
X86775557Y-92118147D01*
X86767140Y-92123192D01*
X86758268Y-92127388D01*
X86749028Y-92130694D01*
X86739509Y-92133079D01*
X86729802Y-92134518D01*
X86720000Y-92135000D01*
X86520000Y-92135000D01*
X86510198Y-92134518D01*
X86500491Y-92133079D01*
X86490972Y-92130694D01*
X86481732Y-92127388D01*
X86472860Y-92123192D01*
X86464443Y-92118147D01*
X86456561Y-92112301D01*
X86449289Y-92105711D01*
X86442699Y-92098439D01*
X86436853Y-92090557D01*
X86431808Y-92082140D01*
X86427612Y-92073268D01*
X86424306Y-92064028D01*
X86421921Y-92054509D01*
X86420482Y-92044802D01*
X86420000Y-92035000D01*
X86420000Y-91385000D01*
X86420482Y-91375198D01*
X86421921Y-91365491D01*
X86424306Y-91355972D01*
X86427612Y-91346732D01*
X86431808Y-91337860D01*
X86436853Y-91329443D01*
X86442699Y-91321561D01*
X86449289Y-91314289D01*
X86456561Y-91307699D01*
X86464443Y-91301853D01*
X86472860Y-91296808D01*
X86481732Y-91292612D01*
X86490972Y-91289306D01*
X86500491Y-91286921D01*
X86510198Y-91285482D01*
X86520000Y-91285000D01*
X86720000Y-91285000D01*
X86729802Y-91285482D01*
G37*
G36*
X86729802Y-93285482D02*
G01*
X86739509Y-93286921D01*
X86749028Y-93289306D01*
X86758268Y-93292612D01*
X86767140Y-93296808D01*
X86775557Y-93301853D01*
X86783439Y-93307699D01*
X86790711Y-93314289D01*
X86797301Y-93321561D01*
X86803147Y-93329443D01*
X86808192Y-93337860D01*
X86812388Y-93346732D01*
X86815694Y-93355972D01*
X86818079Y-93365491D01*
X86819518Y-93375198D01*
X86820000Y-93385000D01*
X86820000Y-94035000D01*
X86819518Y-94044802D01*
X86818079Y-94054509D01*
X86815694Y-94064028D01*
X86812388Y-94073268D01*
X86808192Y-94082140D01*
X86803147Y-94090557D01*
X86797301Y-94098439D01*
X86790711Y-94105711D01*
X86783439Y-94112301D01*
X86775557Y-94118147D01*
X86767140Y-94123192D01*
X86758268Y-94127388D01*
X86749028Y-94130694D01*
X86739509Y-94133079D01*
X86729802Y-94134518D01*
X86720000Y-94135000D01*
X86520000Y-94135000D01*
X86510198Y-94134518D01*
X86500491Y-94133079D01*
X86490972Y-94130694D01*
X86481732Y-94127388D01*
X86472860Y-94123192D01*
X86464443Y-94118147D01*
X86456561Y-94112301D01*
X86449289Y-94105711D01*
X86442699Y-94098439D01*
X86436853Y-94090557D01*
X86431808Y-94082140D01*
X86427612Y-94073268D01*
X86424306Y-94064028D01*
X86421921Y-94054509D01*
X86420482Y-94044802D01*
X86420000Y-94035000D01*
X86420000Y-93385000D01*
X86420482Y-93375198D01*
X86421921Y-93365491D01*
X86424306Y-93355972D01*
X86427612Y-93346732D01*
X86431808Y-93337860D01*
X86436853Y-93329443D01*
X86442699Y-93321561D01*
X86449289Y-93314289D01*
X86456561Y-93307699D01*
X86464443Y-93301853D01*
X86472860Y-93296808D01*
X86481732Y-93292612D01*
X86490972Y-93289306D01*
X86500491Y-93286921D01*
X86510198Y-93285482D01*
X86520000Y-93285000D01*
X86720000Y-93285000D01*
X86729802Y-93285482D01*
G37*
G36*
X87229802Y-93285482D02*
G01*
X87239509Y-93286921D01*
X87249028Y-93289306D01*
X87258268Y-93292612D01*
X87267140Y-93296808D01*
X87275557Y-93301853D01*
X87283439Y-93307699D01*
X87290711Y-93314289D01*
X87297301Y-93321561D01*
X87303147Y-93329443D01*
X87308192Y-93337860D01*
X87312388Y-93346732D01*
X87315694Y-93355972D01*
X87318079Y-93365491D01*
X87319518Y-93375198D01*
X87320000Y-93385000D01*
X87320000Y-94035000D01*
X87319518Y-94044802D01*
X87318079Y-94054509D01*
X87315694Y-94064028D01*
X87312388Y-94073268D01*
X87308192Y-94082140D01*
X87303147Y-94090557D01*
X87297301Y-94098439D01*
X87290711Y-94105711D01*
X87283439Y-94112301D01*
X87275557Y-94118147D01*
X87267140Y-94123192D01*
X87258268Y-94127388D01*
X87249028Y-94130694D01*
X87239509Y-94133079D01*
X87229802Y-94134518D01*
X87220000Y-94135000D01*
X87020000Y-94135000D01*
X87010198Y-94134518D01*
X87000491Y-94133079D01*
X86990972Y-94130694D01*
X86981732Y-94127388D01*
X86972860Y-94123192D01*
X86964443Y-94118147D01*
X86956561Y-94112301D01*
X86949289Y-94105711D01*
X86942699Y-94098439D01*
X86936853Y-94090557D01*
X86931808Y-94082140D01*
X86927612Y-94073268D01*
X86924306Y-94064028D01*
X86921921Y-94054509D01*
X86920482Y-94044802D01*
X86920000Y-94035000D01*
X86920000Y-93385000D01*
X86920482Y-93375198D01*
X86921921Y-93365491D01*
X86924306Y-93355972D01*
X86927612Y-93346732D01*
X86931808Y-93337860D01*
X86936853Y-93329443D01*
X86942699Y-93321561D01*
X86949289Y-93314289D01*
X86956561Y-93307699D01*
X86964443Y-93301853D01*
X86972860Y-93296808D01*
X86981732Y-93292612D01*
X86990972Y-93289306D01*
X87000491Y-93286921D01*
X87010198Y-93285482D01*
X87020000Y-93285000D01*
X87220000Y-93285000D01*
X87229802Y-93285482D01*
G37*
G36*
X87729802Y-93285482D02*
G01*
X87739509Y-93286921D01*
X87749028Y-93289306D01*
X87758268Y-93292612D01*
X87767140Y-93296808D01*
X87775557Y-93301853D01*
X87783439Y-93307699D01*
X87790711Y-93314289D01*
X87797301Y-93321561D01*
X87803147Y-93329443D01*
X87808192Y-93337860D01*
X87812388Y-93346732D01*
X87815694Y-93355972D01*
X87818079Y-93365491D01*
X87819518Y-93375198D01*
X87820000Y-93385000D01*
X87820000Y-94035000D01*
X87819518Y-94044802D01*
X87818079Y-94054509D01*
X87815694Y-94064028D01*
X87812388Y-94073268D01*
X87808192Y-94082140D01*
X87803147Y-94090557D01*
X87797301Y-94098439D01*
X87790711Y-94105711D01*
X87783439Y-94112301D01*
X87775557Y-94118147D01*
X87767140Y-94123192D01*
X87758268Y-94127388D01*
X87749028Y-94130694D01*
X87739509Y-94133079D01*
X87729802Y-94134518D01*
X87720000Y-94135000D01*
X87520000Y-94135000D01*
X87510198Y-94134518D01*
X87500491Y-94133079D01*
X87490972Y-94130694D01*
X87481732Y-94127388D01*
X87472860Y-94123192D01*
X87464443Y-94118147D01*
X87456561Y-94112301D01*
X87449289Y-94105711D01*
X87442699Y-94098439D01*
X87436853Y-94090557D01*
X87431808Y-94082140D01*
X87427612Y-94073268D01*
X87424306Y-94064028D01*
X87421921Y-94054509D01*
X87420482Y-94044802D01*
X87420000Y-94035000D01*
X87420000Y-93385000D01*
X87420482Y-93375198D01*
X87421921Y-93365491D01*
X87424306Y-93355972D01*
X87427612Y-93346732D01*
X87431808Y-93337860D01*
X87436853Y-93329443D01*
X87442699Y-93321561D01*
X87449289Y-93314289D01*
X87456561Y-93307699D01*
X87464443Y-93301853D01*
X87472860Y-93296808D01*
X87481732Y-93292612D01*
X87490972Y-93289306D01*
X87500491Y-93286921D01*
X87510198Y-93285482D01*
X87520000Y-93285000D01*
X87720000Y-93285000D01*
X87729802Y-93285482D01*
G37*
G36*
X88229802Y-93285482D02*
G01*
X88239509Y-93286921D01*
X88249028Y-93289306D01*
X88258268Y-93292612D01*
X88267140Y-93296808D01*
X88275557Y-93301853D01*
X88283439Y-93307699D01*
X88290711Y-93314289D01*
X88297301Y-93321561D01*
X88303147Y-93329443D01*
X88308192Y-93337860D01*
X88312388Y-93346732D01*
X88315694Y-93355972D01*
X88318079Y-93365491D01*
X88319518Y-93375198D01*
X88320000Y-93385000D01*
X88320000Y-94035000D01*
X88319518Y-94044802D01*
X88318079Y-94054509D01*
X88315694Y-94064028D01*
X88312388Y-94073268D01*
X88308192Y-94082140D01*
X88303147Y-94090557D01*
X88297301Y-94098439D01*
X88290711Y-94105711D01*
X88283439Y-94112301D01*
X88275557Y-94118147D01*
X88267140Y-94123192D01*
X88258268Y-94127388D01*
X88249028Y-94130694D01*
X88239509Y-94133079D01*
X88229802Y-94134518D01*
X88220000Y-94135000D01*
X88020000Y-94135000D01*
X88010198Y-94134518D01*
X88000491Y-94133079D01*
X87990972Y-94130694D01*
X87981732Y-94127388D01*
X87972860Y-94123192D01*
X87964443Y-94118147D01*
X87956561Y-94112301D01*
X87949289Y-94105711D01*
X87942699Y-94098439D01*
X87936853Y-94090557D01*
X87931808Y-94082140D01*
X87927612Y-94073268D01*
X87924306Y-94064028D01*
X87921921Y-94054509D01*
X87920482Y-94044802D01*
X87920000Y-94035000D01*
X87920000Y-93385000D01*
X87920482Y-93375198D01*
X87921921Y-93365491D01*
X87924306Y-93355972D01*
X87927612Y-93346732D01*
X87931808Y-93337860D01*
X87936853Y-93329443D01*
X87942699Y-93321561D01*
X87949289Y-93314289D01*
X87956561Y-93307699D01*
X87964443Y-93301853D01*
X87972860Y-93296808D01*
X87981732Y-93292612D01*
X87990972Y-93289306D01*
X88000491Y-93286921D01*
X88010198Y-93285482D01*
X88020000Y-93285000D01*
X88220000Y-93285000D01*
X88229802Y-93285482D01*
G37*
D26*
X87370000Y-92710000D03*
M02*
