M48
; DRILL file {KiCad (5.1.5-0-10_14)} date Sunday, 27 September 2020 at 00:59:41
; FORMAT={-:-/ absolute / inch / decimal}
; #@! TF.CreationDate,2020-09-27T00:59:41-07:00
; #@! TF.GenerationSoftware,Kicad,Pcbnew,(5.1.5-0-10_14)
; #@! TF.FileFunction,Plated,1,4,PTH
FMAT,2
INCH
T1C0.0079
T2C0.0236
T3C0.0315
T4C0.0335
T5C0.0394
T6C0.0984
T7C0.1260
%
G90
G05
T1
X2.9079Y-3.5665
X2.9787Y-3.6937
X3.0453Y-3.5933
X3.0512Y-3.7386
X3.102Y-3.913
X3.1307Y-3.961
X3.1398Y-3.6795
X3.1634Y-3.7945
X3.213Y-3.9126
X3.2201Y-3.9685
X3.2598Y-3.913
X3.3055Y-3.6299
X3.3331Y-3.5114
X3.3697Y-3.9524
X3.3882Y-3.6894
X3.3933Y-3.8638
X3.3957Y-3.5843
X3.4008Y-3.7331
X3.4079Y-3.4224
X3.424Y-3.8531
X3.424Y-3.9319
X3.4311Y-3.5126
X3.4394Y-3.8673
X3.4654Y-3.9524
X3.4776Y-4.0303
X3.4839Y-3.6492
X3.4976Y-3.6106
X3.4996Y-3.8118
X3.5016Y-3.3531
X3.5039Y-3.7295
X3.5118Y-3.8846
X3.5169Y-3.4264
X3.5591Y-3.9657
X3.5803Y-3.5827
X3.5811Y-4.1311
X3.5846Y-3.6417
X3.6157Y-3.4382
X3.6319Y-3.3606
X3.665Y-4.1024
X3.6862Y-4.2083
X3.7193Y-3.5843
X3.722Y-3.6492
X3.7472Y-3.422
X3.7484Y-4.1701
X3.7614Y-4.3079
X3.8201Y-3.4496
X3.8398Y-4.3969
X3.8492Y-4.276
X3.8535Y-3.6461
X3.8563Y-3.5854
X3.8579Y-3.3524
X3.8795Y-3.8157
X3.9185Y-3.9728
X3.935Y-3.4303
X3.952Y-4.3693
X3.9701Y-3.3606
X3.989Y-3.6535
X3.9921Y-3.587
X4.0291Y-4.4764
X4.0343Y-4.413
X4.0874Y-3.4323
X4.0933Y-4.0114
X4.1012Y-4.4157
X4.1024Y-4.4783
X4.1232Y-3.3622
X4.1276Y-3.8205
X4.1437Y-3.5843
X4.1547Y-4.2228
X4.1886Y-3.4252
X4.2114Y-4.4772
X4.2122Y-4.415
X4.2445Y-3.7098
X4.2791Y-3.639
X4.2843Y-3.8728
X4.2913Y-3.3472
X4.3Y-3.9957
X4.3185Y-4.1047
X4.3213Y-4.4169
X4.3232Y-4.4811
X4.4035Y-4.4795
X4.4091Y-4.4134
X4.4094Y-3.3571
X4.4122Y-3.6449
X4.413Y-3.4343
X4.4134Y-3.7213
X4.526Y-4.4051
X4.526Y-4.4839
X4.5524Y-3.3594
X4.5913Y-3.7138
X4.5957Y-3.6516
X4.6043Y-4.1213
X4.6067Y-4.2425
X4.622Y-3.4272
X4.6555Y-4.4248
X4.6563Y-4.4783
X4.6681Y-3.3606
X4.7193Y-3.6484
X4.7236Y-3.7201
X4.7567Y-3.4319
X4.7654Y-4.1224
X4.7858Y-4.4783
X4.7902Y-4.4213
X4.8106Y-4.2425
X4.8118Y-3.4937
X4.822Y-3.3626
X4.8516Y-3.6516
X4.8594Y-3.7138
X4.898Y-3.5634
X4.9815Y-4.1476
X4.9843Y-4.478
X4.9862Y-4.4177
X4.9933Y-3.4811
X4.998Y-3.6484
X5.0071Y-3.7185
X5.0157Y-3.5839
X5.0807Y-3.4992
X5.0984Y-3.7366
X5.0988Y-4.0394
X5.1016Y-3.8173
X5.1335Y-3.6531
X5.1441Y-3.9102
X5.1445Y-4.4157
X5.148Y-3.5827
X5.15Y-4.478
X5.1811Y-3.4949
X5.1866Y-3.7323
X5.2035Y-3.8236
X5.2264Y-3.976
X5.2705Y-3.8953
X5.2843Y-3.5717
X5.2972Y-4.4138
X5.3012Y-3.6516
X5.3555Y-4.4591
X5.3843Y-3.5839
X5.3858Y-3.4976
X5.3878Y-3.6543
X5.4102Y-4.2933
X5.4594Y-3.6516
X5.4799Y-4.3441
X5.4984Y-4.1937
X5.5307Y-3.5701
X5.5449Y-3.5016
X5.5693Y-3.6484
X5.585Y-4.1878
X5.6087Y-3.4866
X5.6417Y-3.7705
X5.6504Y-3.6008
X5.7142Y-3.7079
X5.7197Y-3.8429
X5.7283Y-3.524
X5.7386Y-3.6591
X5.7976Y-3.7732
X5.798Y-3.6185
X5.7992Y-3.9173
X5.8906Y-3.9398
X5.8925Y-3.6799
X5.8941Y-3.8579
X5.8984Y-3.898
X5.9126Y-3.8185
X5.9291Y-3.7575
X5.9921Y-3.9213
X6.0157Y-3.8732
X6.0177Y-3.8213
X6.0476Y-3.939
X6.0665Y-3.8252
X6.1343Y-3.8008
X6.1591Y-3.9134
X6.2484Y-3.8063
X6.2717Y-3.915
X6.3303Y-3.9079
X6.3449Y-3.8043
T3
X5.2512Y-3.7402
X5.2512Y-4.0402
X5.3512Y-3.7402
X5.3512Y-4.0402
X5.4512Y-3.7402
X5.4512Y-4.0402
X5.5512Y-3.7402
X5.5512Y-4.0402
T4
X3.0103Y-3.7992
X3.0103Y-3.9961
T5
X2.9528Y-4.1732
X4.4972Y-4.0256
X4.4972Y-4.1732
X4.4972Y-4.3209
X2.9528Y-3.622
X4.3307Y-3.4433
X4.3307Y-3.5433
X4.3307Y-4.252
X4.3307Y-4.352
X4.4972Y-3.4744
X4.4972Y-3.622
X4.4972Y-3.7697
X3.622Y-3.937
X3.622Y-4.037
X6.4567Y-3.8528
X6.4567Y-3.9528
X3.752Y-3.75
X3.752Y-3.8976
X3.752Y-4.0453
T6
X4.1457Y-3.6988
X4.1457Y-4.0965
X4.8909Y-3.9744
X4.8909Y-4.372
X4.8909Y-3.4232
X4.8909Y-3.8209
T7
X6.5138Y-3.4055
X2.9724Y-3.4055
X2.9724Y-4.3898
X6.5157Y-4.3898
T2
G00X2.8903Y-3.7598
M15
G01X2.9178Y-3.7598
M16
G05
G00X2.9178Y-4.0354
M15
G01X2.8903Y-4.0354
M16
G05
T0
M30
