G04 #@! TF.GenerationSoftware,KiCad,Pcbnew,(5.1.5-0-10_14)*
G04 #@! TF.CreationDate,2020-08-02T20:33:51-07:00*
G04 #@! TF.ProjectId,Nose_PCB_panel,4e6f7365-5f50-4434-925f-70616e656c2e,rev?*
G04 #@! TF.SameCoordinates,Original*
G04 #@! TF.FileFunction,Soldermask,Top*
G04 #@! TF.FilePolarity,Negative*
%FSLAX46Y46*%
G04 Gerber Fmt 4.6, Leading zero omitted, Abs format (unit mm)*
G04 Created by KiCad (PCBNEW (5.1.5-0-10_14)) date 2020-08-02 20:33:51*
%MOMM*%
%LPD*%
G04 APERTURE LIST*
%ADD10C,0.100000*%
G04 APERTURE END LIST*
D10*
G36*
X143301000Y-76851000D02*
G01*
X142450921Y-76851000D01*
X142426535Y-76853402D01*
X142403086Y-76860515D01*
X142381475Y-76872066D01*
X142362533Y-76887611D01*
X142346988Y-76906553D01*
X142335437Y-76928164D01*
X142328324Y-76951613D01*
X142325922Y-76975999D01*
X142328324Y-77000385D01*
X142335437Y-77023834D01*
X142340684Y-77034928D01*
X142342031Y-77037447D01*
X142348284Y-77058062D01*
X142351000Y-77085640D01*
X142351000Y-77594360D01*
X142348284Y-77621938D01*
X142342029Y-77642557D01*
X142331876Y-77661553D01*
X142318208Y-77678208D01*
X142301553Y-77691876D01*
X142282557Y-77702029D01*
X142261938Y-77708284D01*
X142234360Y-77711000D01*
X141775640Y-77711000D01*
X141748062Y-77708284D01*
X141727443Y-77702029D01*
X141708447Y-77691876D01*
X141691792Y-77678208D01*
X141678124Y-77661553D01*
X141667971Y-77642557D01*
X141661716Y-77621938D01*
X141659000Y-77594360D01*
X141659000Y-77085640D01*
X141661716Y-77058062D01*
X141667969Y-77037447D01*
X141669316Y-77034928D01*
X141678694Y-77012290D01*
X141683476Y-76988257D01*
X141683477Y-76963753D01*
X141678697Y-76939719D01*
X141669321Y-76917080D01*
X141655708Y-76896705D01*
X141638382Y-76879377D01*
X141618008Y-76865762D01*
X141595370Y-76856384D01*
X141571337Y-76851602D01*
X141559079Y-76851000D01*
X141480921Y-76851000D01*
X141456535Y-76853402D01*
X141433086Y-76860515D01*
X141411475Y-76872066D01*
X141392533Y-76887611D01*
X141376988Y-76906553D01*
X141365437Y-76928164D01*
X141358324Y-76951613D01*
X141355922Y-76975999D01*
X141358324Y-77000385D01*
X141365437Y-77023834D01*
X141370684Y-77034928D01*
X141372031Y-77037447D01*
X141378284Y-77058062D01*
X141381000Y-77085640D01*
X141381000Y-77594360D01*
X141378284Y-77621938D01*
X141372029Y-77642557D01*
X141361876Y-77661553D01*
X141348208Y-77678208D01*
X141331553Y-77691876D01*
X141312557Y-77702029D01*
X141291938Y-77708284D01*
X141264360Y-77711000D01*
X140805640Y-77711000D01*
X140778062Y-77708284D01*
X140757443Y-77702029D01*
X140738447Y-77691876D01*
X140721792Y-77678208D01*
X140708124Y-77661553D01*
X140697971Y-77642557D01*
X140691716Y-77621938D01*
X140689000Y-77594360D01*
X140689000Y-77085640D01*
X140691716Y-77058062D01*
X140697969Y-77037447D01*
X140699316Y-77034928D01*
X140708694Y-77012290D01*
X140713476Y-76988257D01*
X140713477Y-76963753D01*
X140708697Y-76939719D01*
X140699321Y-76917080D01*
X140699000Y-76916600D01*
X140699000Y-74249000D01*
X143301000Y-74249000D01*
X143301000Y-76851000D01*
G37*
G36*
X139151000Y-77601000D02*
G01*
X136849000Y-77601000D01*
X136849000Y-76449000D01*
X139151000Y-76449000D01*
X139151000Y-77601000D01*
G37*
G36*
X135301000Y-76851000D02*
G01*
X132699000Y-76851000D01*
X132699000Y-74249000D01*
X135301000Y-74249000D01*
X135301000Y-76851000D01*
G37*
G36*
X140051000Y-76101000D02*
G01*
X138949000Y-76101000D01*
X138949000Y-74999000D01*
X140051000Y-74999000D01*
X140051000Y-76101000D01*
G37*
G36*
X137051000Y-76101000D02*
G01*
X135949000Y-76101000D01*
X135949000Y-74999000D01*
X137051000Y-74999000D01*
X137051000Y-76101000D01*
G37*
G36*
X139151000Y-74651000D02*
G01*
X136849000Y-74651000D01*
X136849000Y-73499000D01*
X139151000Y-73499000D01*
X139151000Y-74651000D01*
G37*
G36*
X143301000Y-71151000D02*
G01*
X142450921Y-71151000D01*
X142426535Y-71153402D01*
X142403086Y-71160515D01*
X142381475Y-71172066D01*
X142362533Y-71187611D01*
X142346988Y-71206553D01*
X142335437Y-71228164D01*
X142328324Y-71251613D01*
X142325922Y-71275999D01*
X142328324Y-71300385D01*
X142335437Y-71323834D01*
X142340684Y-71334928D01*
X142342031Y-71337447D01*
X142348284Y-71358062D01*
X142351000Y-71385640D01*
X142351000Y-71894360D01*
X142348284Y-71921938D01*
X142342029Y-71942557D01*
X142331876Y-71961553D01*
X142318208Y-71978208D01*
X142301553Y-71991876D01*
X142282557Y-72002029D01*
X142261938Y-72008284D01*
X142234360Y-72011000D01*
X141775640Y-72011000D01*
X141748062Y-72008284D01*
X141727443Y-72002029D01*
X141708447Y-71991876D01*
X141691792Y-71978208D01*
X141678124Y-71961553D01*
X141667971Y-71942557D01*
X141661716Y-71921938D01*
X141659000Y-71894360D01*
X141659000Y-71385640D01*
X141661716Y-71358062D01*
X141667969Y-71337447D01*
X141669316Y-71334928D01*
X141678694Y-71312290D01*
X141683476Y-71288257D01*
X141683477Y-71263753D01*
X141678697Y-71239719D01*
X141669321Y-71217080D01*
X141655708Y-71196705D01*
X141638382Y-71179377D01*
X141618008Y-71165762D01*
X141595370Y-71156384D01*
X141571337Y-71151602D01*
X141559079Y-71151000D01*
X141480921Y-71151000D01*
X141456535Y-71153402D01*
X141433086Y-71160515D01*
X141411475Y-71172066D01*
X141392533Y-71187611D01*
X141376988Y-71206553D01*
X141365437Y-71228164D01*
X141358324Y-71251613D01*
X141355922Y-71275999D01*
X141358324Y-71300385D01*
X141365437Y-71323834D01*
X141370684Y-71334928D01*
X141372031Y-71337447D01*
X141378284Y-71358062D01*
X141381000Y-71385640D01*
X141381000Y-71894360D01*
X141378284Y-71921938D01*
X141372029Y-71942557D01*
X141361876Y-71961553D01*
X141348208Y-71978208D01*
X141331553Y-71991876D01*
X141312557Y-72002029D01*
X141291938Y-72008284D01*
X141264360Y-72011000D01*
X140805640Y-72011000D01*
X140778062Y-72008284D01*
X140757443Y-72002029D01*
X140738447Y-71991876D01*
X140721792Y-71978208D01*
X140708124Y-71961553D01*
X140697971Y-71942557D01*
X140691716Y-71921938D01*
X140689000Y-71894360D01*
X140689000Y-71385640D01*
X140691716Y-71358062D01*
X140697969Y-71337447D01*
X140699316Y-71334928D01*
X140708694Y-71312290D01*
X140713476Y-71288257D01*
X140713477Y-71263753D01*
X140708697Y-71239719D01*
X140699321Y-71217080D01*
X140699000Y-71216600D01*
X140699000Y-68549000D01*
X143301000Y-68549000D01*
X143301000Y-71151000D01*
G37*
G36*
X139151000Y-71901000D02*
G01*
X136849000Y-71901000D01*
X136849000Y-70749000D01*
X139151000Y-70749000D01*
X139151000Y-71901000D01*
G37*
G36*
X135301000Y-71151000D02*
G01*
X132699000Y-71151000D01*
X132699000Y-68549000D01*
X135301000Y-68549000D01*
X135301000Y-71151000D01*
G37*
G36*
X140051000Y-70401000D02*
G01*
X138949000Y-70401000D01*
X138949000Y-69299000D01*
X140051000Y-69299000D01*
X140051000Y-70401000D01*
G37*
G36*
X137051000Y-70401000D02*
G01*
X135949000Y-70401000D01*
X135949000Y-69299000D01*
X137051000Y-69299000D01*
X137051000Y-70401000D01*
G37*
G36*
X139151000Y-68951000D02*
G01*
X136849000Y-68951000D01*
X136849000Y-67799000D01*
X139151000Y-67799000D01*
X139151000Y-68951000D01*
G37*
M02*
