G04 #@! TF.GenerationSoftware,KiCad,Pcbnew,(5.1.5-0-10_14)*
G04 #@! TF.CreationDate,2020-05-02T21:38:08-07:00*
G04 #@! TF.ProjectId,EOGlass,454f476c-6173-4732-9e6b-696361645f70,rev?*
G04 #@! TF.SameCoordinates,Original*
G04 #@! TF.FileFunction,Soldermask,Top*
G04 #@! TF.FilePolarity,Negative*
%FSLAX46Y46*%
G04 Gerber Fmt 4.6, Leading zero omitted, Abs format (unit mm)*
G04 Created by KiCad (PCBNEW (5.1.5-0-10_14)) date 2020-05-02 21:38:08*
%MOMM*%
%LPD*%
G04 APERTURE LIST*
%ADD10C,0.100000*%
%ADD11R,3.900000X2.100000*%
%ADD12R,1.600000X0.550000*%
%ADD13O,1.200000X1.900000*%
%ADD14O,1.200000X2.300000*%
G04 APERTURE END LIST*
D10*
G36*
X127404802Y-64250482D02*
G01*
X127414509Y-64251921D01*
X127424028Y-64254306D01*
X127433268Y-64257612D01*
X127442140Y-64261808D01*
X127450557Y-64266853D01*
X127458439Y-64272699D01*
X127465711Y-64279289D01*
X127472301Y-64286561D01*
X127478147Y-64294443D01*
X127483192Y-64302860D01*
X127487388Y-64311732D01*
X127490694Y-64320972D01*
X127493079Y-64330491D01*
X127494518Y-64340198D01*
X127495000Y-64350000D01*
X127495000Y-64550000D01*
X127494518Y-64559802D01*
X127493079Y-64569509D01*
X127490694Y-64579028D01*
X127487388Y-64588268D01*
X127483192Y-64597140D01*
X127478147Y-64605557D01*
X127472301Y-64613439D01*
X127465711Y-64620711D01*
X127458439Y-64627301D01*
X127450557Y-64633147D01*
X127442140Y-64638192D01*
X127433268Y-64642388D01*
X127424028Y-64645694D01*
X127414509Y-64648079D01*
X127404802Y-64649518D01*
X127395000Y-64650000D01*
X126020000Y-64650000D01*
X126010198Y-64649518D01*
X126000491Y-64648079D01*
X125990972Y-64645694D01*
X125981732Y-64642388D01*
X125972860Y-64638192D01*
X125964443Y-64633147D01*
X125956561Y-64627301D01*
X125949289Y-64620711D01*
X125942699Y-64613439D01*
X125936853Y-64605557D01*
X125931808Y-64597140D01*
X125927612Y-64588268D01*
X125924306Y-64579028D01*
X125921921Y-64569509D01*
X125920482Y-64559802D01*
X125920000Y-64550000D01*
X125920000Y-64350000D01*
X125920482Y-64340198D01*
X125921921Y-64330491D01*
X125924306Y-64320972D01*
X125927612Y-64311732D01*
X125931808Y-64302860D01*
X125936853Y-64294443D01*
X125942699Y-64286561D01*
X125949289Y-64279289D01*
X125956561Y-64272699D01*
X125964443Y-64266853D01*
X125972860Y-64261808D01*
X125981732Y-64257612D01*
X125990972Y-64254306D01*
X126000491Y-64251921D01*
X126010198Y-64250482D01*
X126020000Y-64250000D01*
X127395000Y-64250000D01*
X127404802Y-64250482D01*
G37*
G36*
X127404802Y-64750482D02*
G01*
X127414509Y-64751921D01*
X127424028Y-64754306D01*
X127433268Y-64757612D01*
X127442140Y-64761808D01*
X127450557Y-64766853D01*
X127458439Y-64772699D01*
X127465711Y-64779289D01*
X127472301Y-64786561D01*
X127478147Y-64794443D01*
X127483192Y-64802860D01*
X127487388Y-64811732D01*
X127490694Y-64820972D01*
X127493079Y-64830491D01*
X127494518Y-64840198D01*
X127495000Y-64850000D01*
X127495000Y-65050000D01*
X127494518Y-65059802D01*
X127493079Y-65069509D01*
X127490694Y-65079028D01*
X127487388Y-65088268D01*
X127483192Y-65097140D01*
X127478147Y-65105557D01*
X127472301Y-65113439D01*
X127465711Y-65120711D01*
X127458439Y-65127301D01*
X127450557Y-65133147D01*
X127442140Y-65138192D01*
X127433268Y-65142388D01*
X127424028Y-65145694D01*
X127414509Y-65148079D01*
X127404802Y-65149518D01*
X127395000Y-65150000D01*
X126020000Y-65150000D01*
X126010198Y-65149518D01*
X126000491Y-65148079D01*
X125990972Y-65145694D01*
X125981732Y-65142388D01*
X125972860Y-65138192D01*
X125964443Y-65133147D01*
X125956561Y-65127301D01*
X125949289Y-65120711D01*
X125942699Y-65113439D01*
X125936853Y-65105557D01*
X125931808Y-65097140D01*
X125927612Y-65088268D01*
X125924306Y-65079028D01*
X125921921Y-65069509D01*
X125920482Y-65059802D01*
X125920000Y-65050000D01*
X125920000Y-64850000D01*
X125920482Y-64840198D01*
X125921921Y-64830491D01*
X125924306Y-64820972D01*
X125927612Y-64811732D01*
X125931808Y-64802860D01*
X125936853Y-64794443D01*
X125942699Y-64786561D01*
X125949289Y-64779289D01*
X125956561Y-64772699D01*
X125964443Y-64766853D01*
X125972860Y-64761808D01*
X125981732Y-64757612D01*
X125990972Y-64754306D01*
X126000491Y-64751921D01*
X126010198Y-64750482D01*
X126020000Y-64750000D01*
X127395000Y-64750000D01*
X127404802Y-64750482D01*
G37*
G36*
X127404802Y-65250482D02*
G01*
X127414509Y-65251921D01*
X127424028Y-65254306D01*
X127433268Y-65257612D01*
X127442140Y-65261808D01*
X127450557Y-65266853D01*
X127458439Y-65272699D01*
X127465711Y-65279289D01*
X127472301Y-65286561D01*
X127478147Y-65294443D01*
X127483192Y-65302860D01*
X127487388Y-65311732D01*
X127490694Y-65320972D01*
X127493079Y-65330491D01*
X127494518Y-65340198D01*
X127495000Y-65350000D01*
X127495000Y-65550000D01*
X127494518Y-65559802D01*
X127493079Y-65569509D01*
X127490694Y-65579028D01*
X127487388Y-65588268D01*
X127483192Y-65597140D01*
X127478147Y-65605557D01*
X127472301Y-65613439D01*
X127465711Y-65620711D01*
X127458439Y-65627301D01*
X127450557Y-65633147D01*
X127442140Y-65638192D01*
X127433268Y-65642388D01*
X127424028Y-65645694D01*
X127414509Y-65648079D01*
X127404802Y-65649518D01*
X127395000Y-65650000D01*
X126020000Y-65650000D01*
X126010198Y-65649518D01*
X126000491Y-65648079D01*
X125990972Y-65645694D01*
X125981732Y-65642388D01*
X125972860Y-65638192D01*
X125964443Y-65633147D01*
X125956561Y-65627301D01*
X125949289Y-65620711D01*
X125942699Y-65613439D01*
X125936853Y-65605557D01*
X125931808Y-65597140D01*
X125927612Y-65588268D01*
X125924306Y-65579028D01*
X125921921Y-65569509D01*
X125920482Y-65559802D01*
X125920000Y-65550000D01*
X125920000Y-65350000D01*
X125920482Y-65340198D01*
X125921921Y-65330491D01*
X125924306Y-65320972D01*
X125927612Y-65311732D01*
X125931808Y-65302860D01*
X125936853Y-65294443D01*
X125942699Y-65286561D01*
X125949289Y-65279289D01*
X125956561Y-65272699D01*
X125964443Y-65266853D01*
X125972860Y-65261808D01*
X125981732Y-65257612D01*
X125990972Y-65254306D01*
X126000491Y-65251921D01*
X126010198Y-65250482D01*
X126020000Y-65250000D01*
X127395000Y-65250000D01*
X127404802Y-65250482D01*
G37*
G36*
X127404802Y-65750482D02*
G01*
X127414509Y-65751921D01*
X127424028Y-65754306D01*
X127433268Y-65757612D01*
X127442140Y-65761808D01*
X127450557Y-65766853D01*
X127458439Y-65772699D01*
X127465711Y-65779289D01*
X127472301Y-65786561D01*
X127478147Y-65794443D01*
X127483192Y-65802860D01*
X127487388Y-65811732D01*
X127490694Y-65820972D01*
X127493079Y-65830491D01*
X127494518Y-65840198D01*
X127495000Y-65850000D01*
X127495000Y-66050000D01*
X127494518Y-66059802D01*
X127493079Y-66069509D01*
X127490694Y-66079028D01*
X127487388Y-66088268D01*
X127483192Y-66097140D01*
X127478147Y-66105557D01*
X127472301Y-66113439D01*
X127465711Y-66120711D01*
X127458439Y-66127301D01*
X127450557Y-66133147D01*
X127442140Y-66138192D01*
X127433268Y-66142388D01*
X127424028Y-66145694D01*
X127414509Y-66148079D01*
X127404802Y-66149518D01*
X127395000Y-66150000D01*
X126020000Y-66150000D01*
X126010198Y-66149518D01*
X126000491Y-66148079D01*
X125990972Y-66145694D01*
X125981732Y-66142388D01*
X125972860Y-66138192D01*
X125964443Y-66133147D01*
X125956561Y-66127301D01*
X125949289Y-66120711D01*
X125942699Y-66113439D01*
X125936853Y-66105557D01*
X125931808Y-66097140D01*
X125927612Y-66088268D01*
X125924306Y-66079028D01*
X125921921Y-66069509D01*
X125920482Y-66059802D01*
X125920000Y-66050000D01*
X125920000Y-65850000D01*
X125920482Y-65840198D01*
X125921921Y-65830491D01*
X125924306Y-65820972D01*
X125927612Y-65811732D01*
X125931808Y-65802860D01*
X125936853Y-65794443D01*
X125942699Y-65786561D01*
X125949289Y-65779289D01*
X125956561Y-65772699D01*
X125964443Y-65766853D01*
X125972860Y-65761808D01*
X125981732Y-65757612D01*
X125990972Y-65754306D01*
X126000491Y-65751921D01*
X126010198Y-65750482D01*
X126020000Y-65750000D01*
X127395000Y-65750000D01*
X127404802Y-65750482D01*
G37*
G36*
X127404802Y-66250482D02*
G01*
X127414509Y-66251921D01*
X127424028Y-66254306D01*
X127433268Y-66257612D01*
X127442140Y-66261808D01*
X127450557Y-66266853D01*
X127458439Y-66272699D01*
X127465711Y-66279289D01*
X127472301Y-66286561D01*
X127478147Y-66294443D01*
X127483192Y-66302860D01*
X127487388Y-66311732D01*
X127490694Y-66320972D01*
X127493079Y-66330491D01*
X127494518Y-66340198D01*
X127495000Y-66350000D01*
X127495000Y-66550000D01*
X127494518Y-66559802D01*
X127493079Y-66569509D01*
X127490694Y-66579028D01*
X127487388Y-66588268D01*
X127483192Y-66597140D01*
X127478147Y-66605557D01*
X127472301Y-66613439D01*
X127465711Y-66620711D01*
X127458439Y-66627301D01*
X127450557Y-66633147D01*
X127442140Y-66638192D01*
X127433268Y-66642388D01*
X127424028Y-66645694D01*
X127414509Y-66648079D01*
X127404802Y-66649518D01*
X127395000Y-66650000D01*
X126020000Y-66650000D01*
X126010198Y-66649518D01*
X126000491Y-66648079D01*
X125990972Y-66645694D01*
X125981732Y-66642388D01*
X125972860Y-66638192D01*
X125964443Y-66633147D01*
X125956561Y-66627301D01*
X125949289Y-66620711D01*
X125942699Y-66613439D01*
X125936853Y-66605557D01*
X125931808Y-66597140D01*
X125927612Y-66588268D01*
X125924306Y-66579028D01*
X125921921Y-66569509D01*
X125920482Y-66559802D01*
X125920000Y-66550000D01*
X125920000Y-66350000D01*
X125920482Y-66340198D01*
X125921921Y-66330491D01*
X125924306Y-66320972D01*
X125927612Y-66311732D01*
X125931808Y-66302860D01*
X125936853Y-66294443D01*
X125942699Y-66286561D01*
X125949289Y-66279289D01*
X125956561Y-66272699D01*
X125964443Y-66266853D01*
X125972860Y-66261808D01*
X125981732Y-66257612D01*
X125990972Y-66254306D01*
X126000491Y-66251921D01*
X126010198Y-66250482D01*
X126020000Y-66250000D01*
X127395000Y-66250000D01*
X127404802Y-66250482D01*
G37*
G36*
X127404802Y-66750482D02*
G01*
X127414509Y-66751921D01*
X127424028Y-66754306D01*
X127433268Y-66757612D01*
X127442140Y-66761808D01*
X127450557Y-66766853D01*
X127458439Y-66772699D01*
X127465711Y-66779289D01*
X127472301Y-66786561D01*
X127478147Y-66794443D01*
X127483192Y-66802860D01*
X127487388Y-66811732D01*
X127490694Y-66820972D01*
X127493079Y-66830491D01*
X127494518Y-66840198D01*
X127495000Y-66850000D01*
X127495000Y-67050000D01*
X127494518Y-67059802D01*
X127493079Y-67069509D01*
X127490694Y-67079028D01*
X127487388Y-67088268D01*
X127483192Y-67097140D01*
X127478147Y-67105557D01*
X127472301Y-67113439D01*
X127465711Y-67120711D01*
X127458439Y-67127301D01*
X127450557Y-67133147D01*
X127442140Y-67138192D01*
X127433268Y-67142388D01*
X127424028Y-67145694D01*
X127414509Y-67148079D01*
X127404802Y-67149518D01*
X127395000Y-67150000D01*
X126020000Y-67150000D01*
X126010198Y-67149518D01*
X126000491Y-67148079D01*
X125990972Y-67145694D01*
X125981732Y-67142388D01*
X125972860Y-67138192D01*
X125964443Y-67133147D01*
X125956561Y-67127301D01*
X125949289Y-67120711D01*
X125942699Y-67113439D01*
X125936853Y-67105557D01*
X125931808Y-67097140D01*
X125927612Y-67088268D01*
X125924306Y-67079028D01*
X125921921Y-67069509D01*
X125920482Y-67059802D01*
X125920000Y-67050000D01*
X125920000Y-66850000D01*
X125920482Y-66840198D01*
X125921921Y-66830491D01*
X125924306Y-66820972D01*
X125927612Y-66811732D01*
X125931808Y-66802860D01*
X125936853Y-66794443D01*
X125942699Y-66786561D01*
X125949289Y-66779289D01*
X125956561Y-66772699D01*
X125964443Y-66766853D01*
X125972860Y-66761808D01*
X125981732Y-66757612D01*
X125990972Y-66754306D01*
X126000491Y-66751921D01*
X126010198Y-66750482D01*
X126020000Y-66750000D01*
X127395000Y-66750000D01*
X127404802Y-66750482D01*
G37*
G36*
X127404802Y-67250482D02*
G01*
X127414509Y-67251921D01*
X127424028Y-67254306D01*
X127433268Y-67257612D01*
X127442140Y-67261808D01*
X127450557Y-67266853D01*
X127458439Y-67272699D01*
X127465711Y-67279289D01*
X127472301Y-67286561D01*
X127478147Y-67294443D01*
X127483192Y-67302860D01*
X127487388Y-67311732D01*
X127490694Y-67320972D01*
X127493079Y-67330491D01*
X127494518Y-67340198D01*
X127495000Y-67350000D01*
X127495000Y-67550000D01*
X127494518Y-67559802D01*
X127493079Y-67569509D01*
X127490694Y-67579028D01*
X127487388Y-67588268D01*
X127483192Y-67597140D01*
X127478147Y-67605557D01*
X127472301Y-67613439D01*
X127465711Y-67620711D01*
X127458439Y-67627301D01*
X127450557Y-67633147D01*
X127442140Y-67638192D01*
X127433268Y-67642388D01*
X127424028Y-67645694D01*
X127414509Y-67648079D01*
X127404802Y-67649518D01*
X127395000Y-67650000D01*
X126020000Y-67650000D01*
X126010198Y-67649518D01*
X126000491Y-67648079D01*
X125990972Y-67645694D01*
X125981732Y-67642388D01*
X125972860Y-67638192D01*
X125964443Y-67633147D01*
X125956561Y-67627301D01*
X125949289Y-67620711D01*
X125942699Y-67613439D01*
X125936853Y-67605557D01*
X125931808Y-67597140D01*
X125927612Y-67588268D01*
X125924306Y-67579028D01*
X125921921Y-67569509D01*
X125920482Y-67559802D01*
X125920000Y-67550000D01*
X125920000Y-67350000D01*
X125920482Y-67340198D01*
X125921921Y-67330491D01*
X125924306Y-67320972D01*
X125927612Y-67311732D01*
X125931808Y-67302860D01*
X125936853Y-67294443D01*
X125942699Y-67286561D01*
X125949289Y-67279289D01*
X125956561Y-67272699D01*
X125964443Y-67266853D01*
X125972860Y-67261808D01*
X125981732Y-67257612D01*
X125990972Y-67254306D01*
X126000491Y-67251921D01*
X126010198Y-67250482D01*
X126020000Y-67250000D01*
X127395000Y-67250000D01*
X127404802Y-67250482D01*
G37*
G36*
X127404802Y-67750482D02*
G01*
X127414509Y-67751921D01*
X127424028Y-67754306D01*
X127433268Y-67757612D01*
X127442140Y-67761808D01*
X127450557Y-67766853D01*
X127458439Y-67772699D01*
X127465711Y-67779289D01*
X127472301Y-67786561D01*
X127478147Y-67794443D01*
X127483192Y-67802860D01*
X127487388Y-67811732D01*
X127490694Y-67820972D01*
X127493079Y-67830491D01*
X127494518Y-67840198D01*
X127495000Y-67850000D01*
X127495000Y-68050000D01*
X127494518Y-68059802D01*
X127493079Y-68069509D01*
X127490694Y-68079028D01*
X127487388Y-68088268D01*
X127483192Y-68097140D01*
X127478147Y-68105557D01*
X127472301Y-68113439D01*
X127465711Y-68120711D01*
X127458439Y-68127301D01*
X127450557Y-68133147D01*
X127442140Y-68138192D01*
X127433268Y-68142388D01*
X127424028Y-68145694D01*
X127414509Y-68148079D01*
X127404802Y-68149518D01*
X127395000Y-68150000D01*
X126020000Y-68150000D01*
X126010198Y-68149518D01*
X126000491Y-68148079D01*
X125990972Y-68145694D01*
X125981732Y-68142388D01*
X125972860Y-68138192D01*
X125964443Y-68133147D01*
X125956561Y-68127301D01*
X125949289Y-68120711D01*
X125942699Y-68113439D01*
X125936853Y-68105557D01*
X125931808Y-68097140D01*
X125927612Y-68088268D01*
X125924306Y-68079028D01*
X125921921Y-68069509D01*
X125920482Y-68059802D01*
X125920000Y-68050000D01*
X125920000Y-67850000D01*
X125920482Y-67840198D01*
X125921921Y-67830491D01*
X125924306Y-67820972D01*
X125927612Y-67811732D01*
X125931808Y-67802860D01*
X125936853Y-67794443D01*
X125942699Y-67786561D01*
X125949289Y-67779289D01*
X125956561Y-67772699D01*
X125964443Y-67766853D01*
X125972860Y-67761808D01*
X125981732Y-67757612D01*
X125990972Y-67754306D01*
X126000491Y-67751921D01*
X126010198Y-67750482D01*
X126020000Y-67750000D01*
X127395000Y-67750000D01*
X127404802Y-67750482D01*
G37*
G36*
X127404802Y-68250482D02*
G01*
X127414509Y-68251921D01*
X127424028Y-68254306D01*
X127433268Y-68257612D01*
X127442140Y-68261808D01*
X127450557Y-68266853D01*
X127458439Y-68272699D01*
X127465711Y-68279289D01*
X127472301Y-68286561D01*
X127478147Y-68294443D01*
X127483192Y-68302860D01*
X127487388Y-68311732D01*
X127490694Y-68320972D01*
X127493079Y-68330491D01*
X127494518Y-68340198D01*
X127495000Y-68350000D01*
X127495000Y-68550000D01*
X127494518Y-68559802D01*
X127493079Y-68569509D01*
X127490694Y-68579028D01*
X127487388Y-68588268D01*
X127483192Y-68597140D01*
X127478147Y-68605557D01*
X127472301Y-68613439D01*
X127465711Y-68620711D01*
X127458439Y-68627301D01*
X127450557Y-68633147D01*
X127442140Y-68638192D01*
X127433268Y-68642388D01*
X127424028Y-68645694D01*
X127414509Y-68648079D01*
X127404802Y-68649518D01*
X127395000Y-68650000D01*
X126020000Y-68650000D01*
X126010198Y-68649518D01*
X126000491Y-68648079D01*
X125990972Y-68645694D01*
X125981732Y-68642388D01*
X125972860Y-68638192D01*
X125964443Y-68633147D01*
X125956561Y-68627301D01*
X125949289Y-68620711D01*
X125942699Y-68613439D01*
X125936853Y-68605557D01*
X125931808Y-68597140D01*
X125927612Y-68588268D01*
X125924306Y-68579028D01*
X125921921Y-68569509D01*
X125920482Y-68559802D01*
X125920000Y-68550000D01*
X125920000Y-68350000D01*
X125920482Y-68340198D01*
X125921921Y-68330491D01*
X125924306Y-68320972D01*
X125927612Y-68311732D01*
X125931808Y-68302860D01*
X125936853Y-68294443D01*
X125942699Y-68286561D01*
X125949289Y-68279289D01*
X125956561Y-68272699D01*
X125964443Y-68266853D01*
X125972860Y-68261808D01*
X125981732Y-68257612D01*
X125990972Y-68254306D01*
X126000491Y-68251921D01*
X126010198Y-68250482D01*
X126020000Y-68250000D01*
X127395000Y-68250000D01*
X127404802Y-68250482D01*
G37*
G36*
X127404802Y-68750482D02*
G01*
X127414509Y-68751921D01*
X127424028Y-68754306D01*
X127433268Y-68757612D01*
X127442140Y-68761808D01*
X127450557Y-68766853D01*
X127458439Y-68772699D01*
X127465711Y-68779289D01*
X127472301Y-68786561D01*
X127478147Y-68794443D01*
X127483192Y-68802860D01*
X127487388Y-68811732D01*
X127490694Y-68820972D01*
X127493079Y-68830491D01*
X127494518Y-68840198D01*
X127495000Y-68850000D01*
X127495000Y-69050000D01*
X127494518Y-69059802D01*
X127493079Y-69069509D01*
X127490694Y-69079028D01*
X127487388Y-69088268D01*
X127483192Y-69097140D01*
X127478147Y-69105557D01*
X127472301Y-69113439D01*
X127465711Y-69120711D01*
X127458439Y-69127301D01*
X127450557Y-69133147D01*
X127442140Y-69138192D01*
X127433268Y-69142388D01*
X127424028Y-69145694D01*
X127414509Y-69148079D01*
X127404802Y-69149518D01*
X127395000Y-69150000D01*
X126020000Y-69150000D01*
X126010198Y-69149518D01*
X126000491Y-69148079D01*
X125990972Y-69145694D01*
X125981732Y-69142388D01*
X125972860Y-69138192D01*
X125964443Y-69133147D01*
X125956561Y-69127301D01*
X125949289Y-69120711D01*
X125942699Y-69113439D01*
X125936853Y-69105557D01*
X125931808Y-69097140D01*
X125927612Y-69088268D01*
X125924306Y-69079028D01*
X125921921Y-69069509D01*
X125920482Y-69059802D01*
X125920000Y-69050000D01*
X125920000Y-68850000D01*
X125920482Y-68840198D01*
X125921921Y-68830491D01*
X125924306Y-68820972D01*
X125927612Y-68811732D01*
X125931808Y-68802860D01*
X125936853Y-68794443D01*
X125942699Y-68786561D01*
X125949289Y-68779289D01*
X125956561Y-68772699D01*
X125964443Y-68766853D01*
X125972860Y-68761808D01*
X125981732Y-68757612D01*
X125990972Y-68754306D01*
X126000491Y-68751921D01*
X126010198Y-68750482D01*
X126020000Y-68750000D01*
X127395000Y-68750000D01*
X127404802Y-68750482D01*
G37*
G36*
X127404802Y-69250482D02*
G01*
X127414509Y-69251921D01*
X127424028Y-69254306D01*
X127433268Y-69257612D01*
X127442140Y-69261808D01*
X127450557Y-69266853D01*
X127458439Y-69272699D01*
X127465711Y-69279289D01*
X127472301Y-69286561D01*
X127478147Y-69294443D01*
X127483192Y-69302860D01*
X127487388Y-69311732D01*
X127490694Y-69320972D01*
X127493079Y-69330491D01*
X127494518Y-69340198D01*
X127495000Y-69350000D01*
X127495000Y-69550000D01*
X127494518Y-69559802D01*
X127493079Y-69569509D01*
X127490694Y-69579028D01*
X127487388Y-69588268D01*
X127483192Y-69597140D01*
X127478147Y-69605557D01*
X127472301Y-69613439D01*
X127465711Y-69620711D01*
X127458439Y-69627301D01*
X127450557Y-69633147D01*
X127442140Y-69638192D01*
X127433268Y-69642388D01*
X127424028Y-69645694D01*
X127414509Y-69648079D01*
X127404802Y-69649518D01*
X127395000Y-69650000D01*
X126020000Y-69650000D01*
X126010198Y-69649518D01*
X126000491Y-69648079D01*
X125990972Y-69645694D01*
X125981732Y-69642388D01*
X125972860Y-69638192D01*
X125964443Y-69633147D01*
X125956561Y-69627301D01*
X125949289Y-69620711D01*
X125942699Y-69613439D01*
X125936853Y-69605557D01*
X125931808Y-69597140D01*
X125927612Y-69588268D01*
X125924306Y-69579028D01*
X125921921Y-69569509D01*
X125920482Y-69559802D01*
X125920000Y-69550000D01*
X125920000Y-69350000D01*
X125920482Y-69340198D01*
X125921921Y-69330491D01*
X125924306Y-69320972D01*
X125927612Y-69311732D01*
X125931808Y-69302860D01*
X125936853Y-69294443D01*
X125942699Y-69286561D01*
X125949289Y-69279289D01*
X125956561Y-69272699D01*
X125964443Y-69266853D01*
X125972860Y-69261808D01*
X125981732Y-69257612D01*
X125990972Y-69254306D01*
X126000491Y-69251921D01*
X126010198Y-69250482D01*
X126020000Y-69250000D01*
X127395000Y-69250000D01*
X127404802Y-69250482D01*
G37*
G36*
X127404802Y-69750482D02*
G01*
X127414509Y-69751921D01*
X127424028Y-69754306D01*
X127433268Y-69757612D01*
X127442140Y-69761808D01*
X127450557Y-69766853D01*
X127458439Y-69772699D01*
X127465711Y-69779289D01*
X127472301Y-69786561D01*
X127478147Y-69794443D01*
X127483192Y-69802860D01*
X127487388Y-69811732D01*
X127490694Y-69820972D01*
X127493079Y-69830491D01*
X127494518Y-69840198D01*
X127495000Y-69850000D01*
X127495000Y-70050000D01*
X127494518Y-70059802D01*
X127493079Y-70069509D01*
X127490694Y-70079028D01*
X127487388Y-70088268D01*
X127483192Y-70097140D01*
X127478147Y-70105557D01*
X127472301Y-70113439D01*
X127465711Y-70120711D01*
X127458439Y-70127301D01*
X127450557Y-70133147D01*
X127442140Y-70138192D01*
X127433268Y-70142388D01*
X127424028Y-70145694D01*
X127414509Y-70148079D01*
X127404802Y-70149518D01*
X127395000Y-70150000D01*
X126020000Y-70150000D01*
X126010198Y-70149518D01*
X126000491Y-70148079D01*
X125990972Y-70145694D01*
X125981732Y-70142388D01*
X125972860Y-70138192D01*
X125964443Y-70133147D01*
X125956561Y-70127301D01*
X125949289Y-70120711D01*
X125942699Y-70113439D01*
X125936853Y-70105557D01*
X125931808Y-70097140D01*
X125927612Y-70088268D01*
X125924306Y-70079028D01*
X125921921Y-70069509D01*
X125920482Y-70059802D01*
X125920000Y-70050000D01*
X125920000Y-69850000D01*
X125920482Y-69840198D01*
X125921921Y-69830491D01*
X125924306Y-69820972D01*
X125927612Y-69811732D01*
X125931808Y-69802860D01*
X125936853Y-69794443D01*
X125942699Y-69786561D01*
X125949289Y-69779289D01*
X125956561Y-69772699D01*
X125964443Y-69766853D01*
X125972860Y-69761808D01*
X125981732Y-69757612D01*
X125990972Y-69754306D01*
X126000491Y-69751921D01*
X126010198Y-69750482D01*
X126020000Y-69750000D01*
X127395000Y-69750000D01*
X127404802Y-69750482D01*
G37*
G36*
X128229802Y-70575482D02*
G01*
X128239509Y-70576921D01*
X128249028Y-70579306D01*
X128258268Y-70582612D01*
X128267140Y-70586808D01*
X128275557Y-70591853D01*
X128283439Y-70597699D01*
X128290711Y-70604289D01*
X128297301Y-70611561D01*
X128303147Y-70619443D01*
X128308192Y-70627860D01*
X128312388Y-70636732D01*
X128315694Y-70645972D01*
X128318079Y-70655491D01*
X128319518Y-70665198D01*
X128320000Y-70675000D01*
X128320000Y-72050000D01*
X128319518Y-72059802D01*
X128318079Y-72069509D01*
X128315694Y-72079028D01*
X128312388Y-72088268D01*
X128308192Y-72097140D01*
X128303147Y-72105557D01*
X128297301Y-72113439D01*
X128290711Y-72120711D01*
X128283439Y-72127301D01*
X128275557Y-72133147D01*
X128267140Y-72138192D01*
X128258268Y-72142388D01*
X128249028Y-72145694D01*
X128239509Y-72148079D01*
X128229802Y-72149518D01*
X128220000Y-72150000D01*
X128020000Y-72150000D01*
X128010198Y-72149518D01*
X128000491Y-72148079D01*
X127990972Y-72145694D01*
X127981732Y-72142388D01*
X127972860Y-72138192D01*
X127964443Y-72133147D01*
X127956561Y-72127301D01*
X127949289Y-72120711D01*
X127942699Y-72113439D01*
X127936853Y-72105557D01*
X127931808Y-72097140D01*
X127927612Y-72088268D01*
X127924306Y-72079028D01*
X127921921Y-72069509D01*
X127920482Y-72059802D01*
X127920000Y-72050000D01*
X127920000Y-70675000D01*
X127920482Y-70665198D01*
X127921921Y-70655491D01*
X127924306Y-70645972D01*
X127927612Y-70636732D01*
X127931808Y-70627860D01*
X127936853Y-70619443D01*
X127942699Y-70611561D01*
X127949289Y-70604289D01*
X127956561Y-70597699D01*
X127964443Y-70591853D01*
X127972860Y-70586808D01*
X127981732Y-70582612D01*
X127990972Y-70579306D01*
X128000491Y-70576921D01*
X128010198Y-70575482D01*
X128020000Y-70575000D01*
X128220000Y-70575000D01*
X128229802Y-70575482D01*
G37*
G36*
X128729802Y-70575482D02*
G01*
X128739509Y-70576921D01*
X128749028Y-70579306D01*
X128758268Y-70582612D01*
X128767140Y-70586808D01*
X128775557Y-70591853D01*
X128783439Y-70597699D01*
X128790711Y-70604289D01*
X128797301Y-70611561D01*
X128803147Y-70619443D01*
X128808192Y-70627860D01*
X128812388Y-70636732D01*
X128815694Y-70645972D01*
X128818079Y-70655491D01*
X128819518Y-70665198D01*
X128820000Y-70675000D01*
X128820000Y-72050000D01*
X128819518Y-72059802D01*
X128818079Y-72069509D01*
X128815694Y-72079028D01*
X128812388Y-72088268D01*
X128808192Y-72097140D01*
X128803147Y-72105557D01*
X128797301Y-72113439D01*
X128790711Y-72120711D01*
X128783439Y-72127301D01*
X128775557Y-72133147D01*
X128767140Y-72138192D01*
X128758268Y-72142388D01*
X128749028Y-72145694D01*
X128739509Y-72148079D01*
X128729802Y-72149518D01*
X128720000Y-72150000D01*
X128520000Y-72150000D01*
X128510198Y-72149518D01*
X128500491Y-72148079D01*
X128490972Y-72145694D01*
X128481732Y-72142388D01*
X128472860Y-72138192D01*
X128464443Y-72133147D01*
X128456561Y-72127301D01*
X128449289Y-72120711D01*
X128442699Y-72113439D01*
X128436853Y-72105557D01*
X128431808Y-72097140D01*
X128427612Y-72088268D01*
X128424306Y-72079028D01*
X128421921Y-72069509D01*
X128420482Y-72059802D01*
X128420000Y-72050000D01*
X128420000Y-70675000D01*
X128420482Y-70665198D01*
X128421921Y-70655491D01*
X128424306Y-70645972D01*
X128427612Y-70636732D01*
X128431808Y-70627860D01*
X128436853Y-70619443D01*
X128442699Y-70611561D01*
X128449289Y-70604289D01*
X128456561Y-70597699D01*
X128464443Y-70591853D01*
X128472860Y-70586808D01*
X128481732Y-70582612D01*
X128490972Y-70579306D01*
X128500491Y-70576921D01*
X128510198Y-70575482D01*
X128520000Y-70575000D01*
X128720000Y-70575000D01*
X128729802Y-70575482D01*
G37*
G36*
X129229802Y-70575482D02*
G01*
X129239509Y-70576921D01*
X129249028Y-70579306D01*
X129258268Y-70582612D01*
X129267140Y-70586808D01*
X129275557Y-70591853D01*
X129283439Y-70597699D01*
X129290711Y-70604289D01*
X129297301Y-70611561D01*
X129303147Y-70619443D01*
X129308192Y-70627860D01*
X129312388Y-70636732D01*
X129315694Y-70645972D01*
X129318079Y-70655491D01*
X129319518Y-70665198D01*
X129320000Y-70675000D01*
X129320000Y-72050000D01*
X129319518Y-72059802D01*
X129318079Y-72069509D01*
X129315694Y-72079028D01*
X129312388Y-72088268D01*
X129308192Y-72097140D01*
X129303147Y-72105557D01*
X129297301Y-72113439D01*
X129290711Y-72120711D01*
X129283439Y-72127301D01*
X129275557Y-72133147D01*
X129267140Y-72138192D01*
X129258268Y-72142388D01*
X129249028Y-72145694D01*
X129239509Y-72148079D01*
X129229802Y-72149518D01*
X129220000Y-72150000D01*
X129020000Y-72150000D01*
X129010198Y-72149518D01*
X129000491Y-72148079D01*
X128990972Y-72145694D01*
X128981732Y-72142388D01*
X128972860Y-72138192D01*
X128964443Y-72133147D01*
X128956561Y-72127301D01*
X128949289Y-72120711D01*
X128942699Y-72113439D01*
X128936853Y-72105557D01*
X128931808Y-72097140D01*
X128927612Y-72088268D01*
X128924306Y-72079028D01*
X128921921Y-72069509D01*
X128920482Y-72059802D01*
X128920000Y-72050000D01*
X128920000Y-70675000D01*
X128920482Y-70665198D01*
X128921921Y-70655491D01*
X128924306Y-70645972D01*
X128927612Y-70636732D01*
X128931808Y-70627860D01*
X128936853Y-70619443D01*
X128942699Y-70611561D01*
X128949289Y-70604289D01*
X128956561Y-70597699D01*
X128964443Y-70591853D01*
X128972860Y-70586808D01*
X128981732Y-70582612D01*
X128990972Y-70579306D01*
X129000491Y-70576921D01*
X129010198Y-70575482D01*
X129020000Y-70575000D01*
X129220000Y-70575000D01*
X129229802Y-70575482D01*
G37*
G36*
X129729802Y-70575482D02*
G01*
X129739509Y-70576921D01*
X129749028Y-70579306D01*
X129758268Y-70582612D01*
X129767140Y-70586808D01*
X129775557Y-70591853D01*
X129783439Y-70597699D01*
X129790711Y-70604289D01*
X129797301Y-70611561D01*
X129803147Y-70619443D01*
X129808192Y-70627860D01*
X129812388Y-70636732D01*
X129815694Y-70645972D01*
X129818079Y-70655491D01*
X129819518Y-70665198D01*
X129820000Y-70675000D01*
X129820000Y-72050000D01*
X129819518Y-72059802D01*
X129818079Y-72069509D01*
X129815694Y-72079028D01*
X129812388Y-72088268D01*
X129808192Y-72097140D01*
X129803147Y-72105557D01*
X129797301Y-72113439D01*
X129790711Y-72120711D01*
X129783439Y-72127301D01*
X129775557Y-72133147D01*
X129767140Y-72138192D01*
X129758268Y-72142388D01*
X129749028Y-72145694D01*
X129739509Y-72148079D01*
X129729802Y-72149518D01*
X129720000Y-72150000D01*
X129520000Y-72150000D01*
X129510198Y-72149518D01*
X129500491Y-72148079D01*
X129490972Y-72145694D01*
X129481732Y-72142388D01*
X129472860Y-72138192D01*
X129464443Y-72133147D01*
X129456561Y-72127301D01*
X129449289Y-72120711D01*
X129442699Y-72113439D01*
X129436853Y-72105557D01*
X129431808Y-72097140D01*
X129427612Y-72088268D01*
X129424306Y-72079028D01*
X129421921Y-72069509D01*
X129420482Y-72059802D01*
X129420000Y-72050000D01*
X129420000Y-70675000D01*
X129420482Y-70665198D01*
X129421921Y-70655491D01*
X129424306Y-70645972D01*
X129427612Y-70636732D01*
X129431808Y-70627860D01*
X129436853Y-70619443D01*
X129442699Y-70611561D01*
X129449289Y-70604289D01*
X129456561Y-70597699D01*
X129464443Y-70591853D01*
X129472860Y-70586808D01*
X129481732Y-70582612D01*
X129490972Y-70579306D01*
X129500491Y-70576921D01*
X129510198Y-70575482D01*
X129520000Y-70575000D01*
X129720000Y-70575000D01*
X129729802Y-70575482D01*
G37*
G36*
X130229802Y-70575482D02*
G01*
X130239509Y-70576921D01*
X130249028Y-70579306D01*
X130258268Y-70582612D01*
X130267140Y-70586808D01*
X130275557Y-70591853D01*
X130283439Y-70597699D01*
X130290711Y-70604289D01*
X130297301Y-70611561D01*
X130303147Y-70619443D01*
X130308192Y-70627860D01*
X130312388Y-70636732D01*
X130315694Y-70645972D01*
X130318079Y-70655491D01*
X130319518Y-70665198D01*
X130320000Y-70675000D01*
X130320000Y-72050000D01*
X130319518Y-72059802D01*
X130318079Y-72069509D01*
X130315694Y-72079028D01*
X130312388Y-72088268D01*
X130308192Y-72097140D01*
X130303147Y-72105557D01*
X130297301Y-72113439D01*
X130290711Y-72120711D01*
X130283439Y-72127301D01*
X130275557Y-72133147D01*
X130267140Y-72138192D01*
X130258268Y-72142388D01*
X130249028Y-72145694D01*
X130239509Y-72148079D01*
X130229802Y-72149518D01*
X130220000Y-72150000D01*
X130020000Y-72150000D01*
X130010198Y-72149518D01*
X130000491Y-72148079D01*
X129990972Y-72145694D01*
X129981732Y-72142388D01*
X129972860Y-72138192D01*
X129964443Y-72133147D01*
X129956561Y-72127301D01*
X129949289Y-72120711D01*
X129942699Y-72113439D01*
X129936853Y-72105557D01*
X129931808Y-72097140D01*
X129927612Y-72088268D01*
X129924306Y-72079028D01*
X129921921Y-72069509D01*
X129920482Y-72059802D01*
X129920000Y-72050000D01*
X129920000Y-70675000D01*
X129920482Y-70665198D01*
X129921921Y-70655491D01*
X129924306Y-70645972D01*
X129927612Y-70636732D01*
X129931808Y-70627860D01*
X129936853Y-70619443D01*
X129942699Y-70611561D01*
X129949289Y-70604289D01*
X129956561Y-70597699D01*
X129964443Y-70591853D01*
X129972860Y-70586808D01*
X129981732Y-70582612D01*
X129990972Y-70579306D01*
X130000491Y-70576921D01*
X130010198Y-70575482D01*
X130020000Y-70575000D01*
X130220000Y-70575000D01*
X130229802Y-70575482D01*
G37*
G36*
X130729802Y-70575482D02*
G01*
X130739509Y-70576921D01*
X130749028Y-70579306D01*
X130758268Y-70582612D01*
X130767140Y-70586808D01*
X130775557Y-70591853D01*
X130783439Y-70597699D01*
X130790711Y-70604289D01*
X130797301Y-70611561D01*
X130803147Y-70619443D01*
X130808192Y-70627860D01*
X130812388Y-70636732D01*
X130815694Y-70645972D01*
X130818079Y-70655491D01*
X130819518Y-70665198D01*
X130820000Y-70675000D01*
X130820000Y-72050000D01*
X130819518Y-72059802D01*
X130818079Y-72069509D01*
X130815694Y-72079028D01*
X130812388Y-72088268D01*
X130808192Y-72097140D01*
X130803147Y-72105557D01*
X130797301Y-72113439D01*
X130790711Y-72120711D01*
X130783439Y-72127301D01*
X130775557Y-72133147D01*
X130767140Y-72138192D01*
X130758268Y-72142388D01*
X130749028Y-72145694D01*
X130739509Y-72148079D01*
X130729802Y-72149518D01*
X130720000Y-72150000D01*
X130520000Y-72150000D01*
X130510198Y-72149518D01*
X130500491Y-72148079D01*
X130490972Y-72145694D01*
X130481732Y-72142388D01*
X130472860Y-72138192D01*
X130464443Y-72133147D01*
X130456561Y-72127301D01*
X130449289Y-72120711D01*
X130442699Y-72113439D01*
X130436853Y-72105557D01*
X130431808Y-72097140D01*
X130427612Y-72088268D01*
X130424306Y-72079028D01*
X130421921Y-72069509D01*
X130420482Y-72059802D01*
X130420000Y-72050000D01*
X130420000Y-70675000D01*
X130420482Y-70665198D01*
X130421921Y-70655491D01*
X130424306Y-70645972D01*
X130427612Y-70636732D01*
X130431808Y-70627860D01*
X130436853Y-70619443D01*
X130442699Y-70611561D01*
X130449289Y-70604289D01*
X130456561Y-70597699D01*
X130464443Y-70591853D01*
X130472860Y-70586808D01*
X130481732Y-70582612D01*
X130490972Y-70579306D01*
X130500491Y-70576921D01*
X130510198Y-70575482D01*
X130520000Y-70575000D01*
X130720000Y-70575000D01*
X130729802Y-70575482D01*
G37*
G36*
X131229802Y-70575482D02*
G01*
X131239509Y-70576921D01*
X131249028Y-70579306D01*
X131258268Y-70582612D01*
X131267140Y-70586808D01*
X131275557Y-70591853D01*
X131283439Y-70597699D01*
X131290711Y-70604289D01*
X131297301Y-70611561D01*
X131303147Y-70619443D01*
X131308192Y-70627860D01*
X131312388Y-70636732D01*
X131315694Y-70645972D01*
X131318079Y-70655491D01*
X131319518Y-70665198D01*
X131320000Y-70675000D01*
X131320000Y-72050000D01*
X131319518Y-72059802D01*
X131318079Y-72069509D01*
X131315694Y-72079028D01*
X131312388Y-72088268D01*
X131308192Y-72097140D01*
X131303147Y-72105557D01*
X131297301Y-72113439D01*
X131290711Y-72120711D01*
X131283439Y-72127301D01*
X131275557Y-72133147D01*
X131267140Y-72138192D01*
X131258268Y-72142388D01*
X131249028Y-72145694D01*
X131239509Y-72148079D01*
X131229802Y-72149518D01*
X131220000Y-72150000D01*
X131020000Y-72150000D01*
X131010198Y-72149518D01*
X131000491Y-72148079D01*
X130990972Y-72145694D01*
X130981732Y-72142388D01*
X130972860Y-72138192D01*
X130964443Y-72133147D01*
X130956561Y-72127301D01*
X130949289Y-72120711D01*
X130942699Y-72113439D01*
X130936853Y-72105557D01*
X130931808Y-72097140D01*
X130927612Y-72088268D01*
X130924306Y-72079028D01*
X130921921Y-72069509D01*
X130920482Y-72059802D01*
X130920000Y-72050000D01*
X130920000Y-70675000D01*
X130920482Y-70665198D01*
X130921921Y-70655491D01*
X130924306Y-70645972D01*
X130927612Y-70636732D01*
X130931808Y-70627860D01*
X130936853Y-70619443D01*
X130942699Y-70611561D01*
X130949289Y-70604289D01*
X130956561Y-70597699D01*
X130964443Y-70591853D01*
X130972860Y-70586808D01*
X130981732Y-70582612D01*
X130990972Y-70579306D01*
X131000491Y-70576921D01*
X131010198Y-70575482D01*
X131020000Y-70575000D01*
X131220000Y-70575000D01*
X131229802Y-70575482D01*
G37*
G36*
X131729802Y-70575482D02*
G01*
X131739509Y-70576921D01*
X131749028Y-70579306D01*
X131758268Y-70582612D01*
X131767140Y-70586808D01*
X131775557Y-70591853D01*
X131783439Y-70597699D01*
X131790711Y-70604289D01*
X131797301Y-70611561D01*
X131803147Y-70619443D01*
X131808192Y-70627860D01*
X131812388Y-70636732D01*
X131815694Y-70645972D01*
X131818079Y-70655491D01*
X131819518Y-70665198D01*
X131820000Y-70675000D01*
X131820000Y-72050000D01*
X131819518Y-72059802D01*
X131818079Y-72069509D01*
X131815694Y-72079028D01*
X131812388Y-72088268D01*
X131808192Y-72097140D01*
X131803147Y-72105557D01*
X131797301Y-72113439D01*
X131790711Y-72120711D01*
X131783439Y-72127301D01*
X131775557Y-72133147D01*
X131767140Y-72138192D01*
X131758268Y-72142388D01*
X131749028Y-72145694D01*
X131739509Y-72148079D01*
X131729802Y-72149518D01*
X131720000Y-72150000D01*
X131520000Y-72150000D01*
X131510198Y-72149518D01*
X131500491Y-72148079D01*
X131490972Y-72145694D01*
X131481732Y-72142388D01*
X131472860Y-72138192D01*
X131464443Y-72133147D01*
X131456561Y-72127301D01*
X131449289Y-72120711D01*
X131442699Y-72113439D01*
X131436853Y-72105557D01*
X131431808Y-72097140D01*
X131427612Y-72088268D01*
X131424306Y-72079028D01*
X131421921Y-72069509D01*
X131420482Y-72059802D01*
X131420000Y-72050000D01*
X131420000Y-70675000D01*
X131420482Y-70665198D01*
X131421921Y-70655491D01*
X131424306Y-70645972D01*
X131427612Y-70636732D01*
X131431808Y-70627860D01*
X131436853Y-70619443D01*
X131442699Y-70611561D01*
X131449289Y-70604289D01*
X131456561Y-70597699D01*
X131464443Y-70591853D01*
X131472860Y-70586808D01*
X131481732Y-70582612D01*
X131490972Y-70579306D01*
X131500491Y-70576921D01*
X131510198Y-70575482D01*
X131520000Y-70575000D01*
X131720000Y-70575000D01*
X131729802Y-70575482D01*
G37*
G36*
X132229802Y-70575482D02*
G01*
X132239509Y-70576921D01*
X132249028Y-70579306D01*
X132258268Y-70582612D01*
X132267140Y-70586808D01*
X132275557Y-70591853D01*
X132283439Y-70597699D01*
X132290711Y-70604289D01*
X132297301Y-70611561D01*
X132303147Y-70619443D01*
X132308192Y-70627860D01*
X132312388Y-70636732D01*
X132315694Y-70645972D01*
X132318079Y-70655491D01*
X132319518Y-70665198D01*
X132320000Y-70675000D01*
X132320000Y-72050000D01*
X132319518Y-72059802D01*
X132318079Y-72069509D01*
X132315694Y-72079028D01*
X132312388Y-72088268D01*
X132308192Y-72097140D01*
X132303147Y-72105557D01*
X132297301Y-72113439D01*
X132290711Y-72120711D01*
X132283439Y-72127301D01*
X132275557Y-72133147D01*
X132267140Y-72138192D01*
X132258268Y-72142388D01*
X132249028Y-72145694D01*
X132239509Y-72148079D01*
X132229802Y-72149518D01*
X132220000Y-72150000D01*
X132020000Y-72150000D01*
X132010198Y-72149518D01*
X132000491Y-72148079D01*
X131990972Y-72145694D01*
X131981732Y-72142388D01*
X131972860Y-72138192D01*
X131964443Y-72133147D01*
X131956561Y-72127301D01*
X131949289Y-72120711D01*
X131942699Y-72113439D01*
X131936853Y-72105557D01*
X131931808Y-72097140D01*
X131927612Y-72088268D01*
X131924306Y-72079028D01*
X131921921Y-72069509D01*
X131920482Y-72059802D01*
X131920000Y-72050000D01*
X131920000Y-70675000D01*
X131920482Y-70665198D01*
X131921921Y-70655491D01*
X131924306Y-70645972D01*
X131927612Y-70636732D01*
X131931808Y-70627860D01*
X131936853Y-70619443D01*
X131942699Y-70611561D01*
X131949289Y-70604289D01*
X131956561Y-70597699D01*
X131964443Y-70591853D01*
X131972860Y-70586808D01*
X131981732Y-70582612D01*
X131990972Y-70579306D01*
X132000491Y-70576921D01*
X132010198Y-70575482D01*
X132020000Y-70575000D01*
X132220000Y-70575000D01*
X132229802Y-70575482D01*
G37*
G36*
X132729802Y-70575482D02*
G01*
X132739509Y-70576921D01*
X132749028Y-70579306D01*
X132758268Y-70582612D01*
X132767140Y-70586808D01*
X132775557Y-70591853D01*
X132783439Y-70597699D01*
X132790711Y-70604289D01*
X132797301Y-70611561D01*
X132803147Y-70619443D01*
X132808192Y-70627860D01*
X132812388Y-70636732D01*
X132815694Y-70645972D01*
X132818079Y-70655491D01*
X132819518Y-70665198D01*
X132820000Y-70675000D01*
X132820000Y-72050000D01*
X132819518Y-72059802D01*
X132818079Y-72069509D01*
X132815694Y-72079028D01*
X132812388Y-72088268D01*
X132808192Y-72097140D01*
X132803147Y-72105557D01*
X132797301Y-72113439D01*
X132790711Y-72120711D01*
X132783439Y-72127301D01*
X132775557Y-72133147D01*
X132767140Y-72138192D01*
X132758268Y-72142388D01*
X132749028Y-72145694D01*
X132739509Y-72148079D01*
X132729802Y-72149518D01*
X132720000Y-72150000D01*
X132520000Y-72150000D01*
X132510198Y-72149518D01*
X132500491Y-72148079D01*
X132490972Y-72145694D01*
X132481732Y-72142388D01*
X132472860Y-72138192D01*
X132464443Y-72133147D01*
X132456561Y-72127301D01*
X132449289Y-72120711D01*
X132442699Y-72113439D01*
X132436853Y-72105557D01*
X132431808Y-72097140D01*
X132427612Y-72088268D01*
X132424306Y-72079028D01*
X132421921Y-72069509D01*
X132420482Y-72059802D01*
X132420000Y-72050000D01*
X132420000Y-70675000D01*
X132420482Y-70665198D01*
X132421921Y-70655491D01*
X132424306Y-70645972D01*
X132427612Y-70636732D01*
X132431808Y-70627860D01*
X132436853Y-70619443D01*
X132442699Y-70611561D01*
X132449289Y-70604289D01*
X132456561Y-70597699D01*
X132464443Y-70591853D01*
X132472860Y-70586808D01*
X132481732Y-70582612D01*
X132490972Y-70579306D01*
X132500491Y-70576921D01*
X132510198Y-70575482D01*
X132520000Y-70575000D01*
X132720000Y-70575000D01*
X132729802Y-70575482D01*
G37*
G36*
X133229802Y-70575482D02*
G01*
X133239509Y-70576921D01*
X133249028Y-70579306D01*
X133258268Y-70582612D01*
X133267140Y-70586808D01*
X133275557Y-70591853D01*
X133283439Y-70597699D01*
X133290711Y-70604289D01*
X133297301Y-70611561D01*
X133303147Y-70619443D01*
X133308192Y-70627860D01*
X133312388Y-70636732D01*
X133315694Y-70645972D01*
X133318079Y-70655491D01*
X133319518Y-70665198D01*
X133320000Y-70675000D01*
X133320000Y-72050000D01*
X133319518Y-72059802D01*
X133318079Y-72069509D01*
X133315694Y-72079028D01*
X133312388Y-72088268D01*
X133308192Y-72097140D01*
X133303147Y-72105557D01*
X133297301Y-72113439D01*
X133290711Y-72120711D01*
X133283439Y-72127301D01*
X133275557Y-72133147D01*
X133267140Y-72138192D01*
X133258268Y-72142388D01*
X133249028Y-72145694D01*
X133239509Y-72148079D01*
X133229802Y-72149518D01*
X133220000Y-72150000D01*
X133020000Y-72150000D01*
X133010198Y-72149518D01*
X133000491Y-72148079D01*
X132990972Y-72145694D01*
X132981732Y-72142388D01*
X132972860Y-72138192D01*
X132964443Y-72133147D01*
X132956561Y-72127301D01*
X132949289Y-72120711D01*
X132942699Y-72113439D01*
X132936853Y-72105557D01*
X132931808Y-72097140D01*
X132927612Y-72088268D01*
X132924306Y-72079028D01*
X132921921Y-72069509D01*
X132920482Y-72059802D01*
X132920000Y-72050000D01*
X132920000Y-70675000D01*
X132920482Y-70665198D01*
X132921921Y-70655491D01*
X132924306Y-70645972D01*
X132927612Y-70636732D01*
X132931808Y-70627860D01*
X132936853Y-70619443D01*
X132942699Y-70611561D01*
X132949289Y-70604289D01*
X132956561Y-70597699D01*
X132964443Y-70591853D01*
X132972860Y-70586808D01*
X132981732Y-70582612D01*
X132990972Y-70579306D01*
X133000491Y-70576921D01*
X133010198Y-70575482D01*
X133020000Y-70575000D01*
X133220000Y-70575000D01*
X133229802Y-70575482D01*
G37*
G36*
X133729802Y-70575482D02*
G01*
X133739509Y-70576921D01*
X133749028Y-70579306D01*
X133758268Y-70582612D01*
X133767140Y-70586808D01*
X133775557Y-70591853D01*
X133783439Y-70597699D01*
X133790711Y-70604289D01*
X133797301Y-70611561D01*
X133803147Y-70619443D01*
X133808192Y-70627860D01*
X133812388Y-70636732D01*
X133815694Y-70645972D01*
X133818079Y-70655491D01*
X133819518Y-70665198D01*
X133820000Y-70675000D01*
X133820000Y-72050000D01*
X133819518Y-72059802D01*
X133818079Y-72069509D01*
X133815694Y-72079028D01*
X133812388Y-72088268D01*
X133808192Y-72097140D01*
X133803147Y-72105557D01*
X133797301Y-72113439D01*
X133790711Y-72120711D01*
X133783439Y-72127301D01*
X133775557Y-72133147D01*
X133767140Y-72138192D01*
X133758268Y-72142388D01*
X133749028Y-72145694D01*
X133739509Y-72148079D01*
X133729802Y-72149518D01*
X133720000Y-72150000D01*
X133520000Y-72150000D01*
X133510198Y-72149518D01*
X133500491Y-72148079D01*
X133490972Y-72145694D01*
X133481732Y-72142388D01*
X133472860Y-72138192D01*
X133464443Y-72133147D01*
X133456561Y-72127301D01*
X133449289Y-72120711D01*
X133442699Y-72113439D01*
X133436853Y-72105557D01*
X133431808Y-72097140D01*
X133427612Y-72088268D01*
X133424306Y-72079028D01*
X133421921Y-72069509D01*
X133420482Y-72059802D01*
X133420000Y-72050000D01*
X133420000Y-70675000D01*
X133420482Y-70665198D01*
X133421921Y-70655491D01*
X133424306Y-70645972D01*
X133427612Y-70636732D01*
X133431808Y-70627860D01*
X133436853Y-70619443D01*
X133442699Y-70611561D01*
X133449289Y-70604289D01*
X133456561Y-70597699D01*
X133464443Y-70591853D01*
X133472860Y-70586808D01*
X133481732Y-70582612D01*
X133490972Y-70579306D01*
X133500491Y-70576921D01*
X133510198Y-70575482D01*
X133520000Y-70575000D01*
X133720000Y-70575000D01*
X133729802Y-70575482D01*
G37*
G36*
X135729802Y-69750482D02*
G01*
X135739509Y-69751921D01*
X135749028Y-69754306D01*
X135758268Y-69757612D01*
X135767140Y-69761808D01*
X135775557Y-69766853D01*
X135783439Y-69772699D01*
X135790711Y-69779289D01*
X135797301Y-69786561D01*
X135803147Y-69794443D01*
X135808192Y-69802860D01*
X135812388Y-69811732D01*
X135815694Y-69820972D01*
X135818079Y-69830491D01*
X135819518Y-69840198D01*
X135820000Y-69850000D01*
X135820000Y-70050000D01*
X135819518Y-70059802D01*
X135818079Y-70069509D01*
X135815694Y-70079028D01*
X135812388Y-70088268D01*
X135808192Y-70097140D01*
X135803147Y-70105557D01*
X135797301Y-70113439D01*
X135790711Y-70120711D01*
X135783439Y-70127301D01*
X135775557Y-70133147D01*
X135767140Y-70138192D01*
X135758268Y-70142388D01*
X135749028Y-70145694D01*
X135739509Y-70148079D01*
X135729802Y-70149518D01*
X135720000Y-70150000D01*
X134345000Y-70150000D01*
X134335198Y-70149518D01*
X134325491Y-70148079D01*
X134315972Y-70145694D01*
X134306732Y-70142388D01*
X134297860Y-70138192D01*
X134289443Y-70133147D01*
X134281561Y-70127301D01*
X134274289Y-70120711D01*
X134267699Y-70113439D01*
X134261853Y-70105557D01*
X134256808Y-70097140D01*
X134252612Y-70088268D01*
X134249306Y-70079028D01*
X134246921Y-70069509D01*
X134245482Y-70059802D01*
X134245000Y-70050000D01*
X134245000Y-69850000D01*
X134245482Y-69840198D01*
X134246921Y-69830491D01*
X134249306Y-69820972D01*
X134252612Y-69811732D01*
X134256808Y-69802860D01*
X134261853Y-69794443D01*
X134267699Y-69786561D01*
X134274289Y-69779289D01*
X134281561Y-69772699D01*
X134289443Y-69766853D01*
X134297860Y-69761808D01*
X134306732Y-69757612D01*
X134315972Y-69754306D01*
X134325491Y-69751921D01*
X134335198Y-69750482D01*
X134345000Y-69750000D01*
X135720000Y-69750000D01*
X135729802Y-69750482D01*
G37*
G36*
X135729802Y-69250482D02*
G01*
X135739509Y-69251921D01*
X135749028Y-69254306D01*
X135758268Y-69257612D01*
X135767140Y-69261808D01*
X135775557Y-69266853D01*
X135783439Y-69272699D01*
X135790711Y-69279289D01*
X135797301Y-69286561D01*
X135803147Y-69294443D01*
X135808192Y-69302860D01*
X135812388Y-69311732D01*
X135815694Y-69320972D01*
X135818079Y-69330491D01*
X135819518Y-69340198D01*
X135820000Y-69350000D01*
X135820000Y-69550000D01*
X135819518Y-69559802D01*
X135818079Y-69569509D01*
X135815694Y-69579028D01*
X135812388Y-69588268D01*
X135808192Y-69597140D01*
X135803147Y-69605557D01*
X135797301Y-69613439D01*
X135790711Y-69620711D01*
X135783439Y-69627301D01*
X135775557Y-69633147D01*
X135767140Y-69638192D01*
X135758268Y-69642388D01*
X135749028Y-69645694D01*
X135739509Y-69648079D01*
X135729802Y-69649518D01*
X135720000Y-69650000D01*
X134345000Y-69650000D01*
X134335198Y-69649518D01*
X134325491Y-69648079D01*
X134315972Y-69645694D01*
X134306732Y-69642388D01*
X134297860Y-69638192D01*
X134289443Y-69633147D01*
X134281561Y-69627301D01*
X134274289Y-69620711D01*
X134267699Y-69613439D01*
X134261853Y-69605557D01*
X134256808Y-69597140D01*
X134252612Y-69588268D01*
X134249306Y-69579028D01*
X134246921Y-69569509D01*
X134245482Y-69559802D01*
X134245000Y-69550000D01*
X134245000Y-69350000D01*
X134245482Y-69340198D01*
X134246921Y-69330491D01*
X134249306Y-69320972D01*
X134252612Y-69311732D01*
X134256808Y-69302860D01*
X134261853Y-69294443D01*
X134267699Y-69286561D01*
X134274289Y-69279289D01*
X134281561Y-69272699D01*
X134289443Y-69266853D01*
X134297860Y-69261808D01*
X134306732Y-69257612D01*
X134315972Y-69254306D01*
X134325491Y-69251921D01*
X134335198Y-69250482D01*
X134345000Y-69250000D01*
X135720000Y-69250000D01*
X135729802Y-69250482D01*
G37*
G36*
X135729802Y-68750482D02*
G01*
X135739509Y-68751921D01*
X135749028Y-68754306D01*
X135758268Y-68757612D01*
X135767140Y-68761808D01*
X135775557Y-68766853D01*
X135783439Y-68772699D01*
X135790711Y-68779289D01*
X135797301Y-68786561D01*
X135803147Y-68794443D01*
X135808192Y-68802860D01*
X135812388Y-68811732D01*
X135815694Y-68820972D01*
X135818079Y-68830491D01*
X135819518Y-68840198D01*
X135820000Y-68850000D01*
X135820000Y-69050000D01*
X135819518Y-69059802D01*
X135818079Y-69069509D01*
X135815694Y-69079028D01*
X135812388Y-69088268D01*
X135808192Y-69097140D01*
X135803147Y-69105557D01*
X135797301Y-69113439D01*
X135790711Y-69120711D01*
X135783439Y-69127301D01*
X135775557Y-69133147D01*
X135767140Y-69138192D01*
X135758268Y-69142388D01*
X135749028Y-69145694D01*
X135739509Y-69148079D01*
X135729802Y-69149518D01*
X135720000Y-69150000D01*
X134345000Y-69150000D01*
X134335198Y-69149518D01*
X134325491Y-69148079D01*
X134315972Y-69145694D01*
X134306732Y-69142388D01*
X134297860Y-69138192D01*
X134289443Y-69133147D01*
X134281561Y-69127301D01*
X134274289Y-69120711D01*
X134267699Y-69113439D01*
X134261853Y-69105557D01*
X134256808Y-69097140D01*
X134252612Y-69088268D01*
X134249306Y-69079028D01*
X134246921Y-69069509D01*
X134245482Y-69059802D01*
X134245000Y-69050000D01*
X134245000Y-68850000D01*
X134245482Y-68840198D01*
X134246921Y-68830491D01*
X134249306Y-68820972D01*
X134252612Y-68811732D01*
X134256808Y-68802860D01*
X134261853Y-68794443D01*
X134267699Y-68786561D01*
X134274289Y-68779289D01*
X134281561Y-68772699D01*
X134289443Y-68766853D01*
X134297860Y-68761808D01*
X134306732Y-68757612D01*
X134315972Y-68754306D01*
X134325491Y-68751921D01*
X134335198Y-68750482D01*
X134345000Y-68750000D01*
X135720000Y-68750000D01*
X135729802Y-68750482D01*
G37*
G36*
X135729802Y-68250482D02*
G01*
X135739509Y-68251921D01*
X135749028Y-68254306D01*
X135758268Y-68257612D01*
X135767140Y-68261808D01*
X135775557Y-68266853D01*
X135783439Y-68272699D01*
X135790711Y-68279289D01*
X135797301Y-68286561D01*
X135803147Y-68294443D01*
X135808192Y-68302860D01*
X135812388Y-68311732D01*
X135815694Y-68320972D01*
X135818079Y-68330491D01*
X135819518Y-68340198D01*
X135820000Y-68350000D01*
X135820000Y-68550000D01*
X135819518Y-68559802D01*
X135818079Y-68569509D01*
X135815694Y-68579028D01*
X135812388Y-68588268D01*
X135808192Y-68597140D01*
X135803147Y-68605557D01*
X135797301Y-68613439D01*
X135790711Y-68620711D01*
X135783439Y-68627301D01*
X135775557Y-68633147D01*
X135767140Y-68638192D01*
X135758268Y-68642388D01*
X135749028Y-68645694D01*
X135739509Y-68648079D01*
X135729802Y-68649518D01*
X135720000Y-68650000D01*
X134345000Y-68650000D01*
X134335198Y-68649518D01*
X134325491Y-68648079D01*
X134315972Y-68645694D01*
X134306732Y-68642388D01*
X134297860Y-68638192D01*
X134289443Y-68633147D01*
X134281561Y-68627301D01*
X134274289Y-68620711D01*
X134267699Y-68613439D01*
X134261853Y-68605557D01*
X134256808Y-68597140D01*
X134252612Y-68588268D01*
X134249306Y-68579028D01*
X134246921Y-68569509D01*
X134245482Y-68559802D01*
X134245000Y-68550000D01*
X134245000Y-68350000D01*
X134245482Y-68340198D01*
X134246921Y-68330491D01*
X134249306Y-68320972D01*
X134252612Y-68311732D01*
X134256808Y-68302860D01*
X134261853Y-68294443D01*
X134267699Y-68286561D01*
X134274289Y-68279289D01*
X134281561Y-68272699D01*
X134289443Y-68266853D01*
X134297860Y-68261808D01*
X134306732Y-68257612D01*
X134315972Y-68254306D01*
X134325491Y-68251921D01*
X134335198Y-68250482D01*
X134345000Y-68250000D01*
X135720000Y-68250000D01*
X135729802Y-68250482D01*
G37*
G36*
X135729802Y-67750482D02*
G01*
X135739509Y-67751921D01*
X135749028Y-67754306D01*
X135758268Y-67757612D01*
X135767140Y-67761808D01*
X135775557Y-67766853D01*
X135783439Y-67772699D01*
X135790711Y-67779289D01*
X135797301Y-67786561D01*
X135803147Y-67794443D01*
X135808192Y-67802860D01*
X135812388Y-67811732D01*
X135815694Y-67820972D01*
X135818079Y-67830491D01*
X135819518Y-67840198D01*
X135820000Y-67850000D01*
X135820000Y-68050000D01*
X135819518Y-68059802D01*
X135818079Y-68069509D01*
X135815694Y-68079028D01*
X135812388Y-68088268D01*
X135808192Y-68097140D01*
X135803147Y-68105557D01*
X135797301Y-68113439D01*
X135790711Y-68120711D01*
X135783439Y-68127301D01*
X135775557Y-68133147D01*
X135767140Y-68138192D01*
X135758268Y-68142388D01*
X135749028Y-68145694D01*
X135739509Y-68148079D01*
X135729802Y-68149518D01*
X135720000Y-68150000D01*
X134345000Y-68150000D01*
X134335198Y-68149518D01*
X134325491Y-68148079D01*
X134315972Y-68145694D01*
X134306732Y-68142388D01*
X134297860Y-68138192D01*
X134289443Y-68133147D01*
X134281561Y-68127301D01*
X134274289Y-68120711D01*
X134267699Y-68113439D01*
X134261853Y-68105557D01*
X134256808Y-68097140D01*
X134252612Y-68088268D01*
X134249306Y-68079028D01*
X134246921Y-68069509D01*
X134245482Y-68059802D01*
X134245000Y-68050000D01*
X134245000Y-67850000D01*
X134245482Y-67840198D01*
X134246921Y-67830491D01*
X134249306Y-67820972D01*
X134252612Y-67811732D01*
X134256808Y-67802860D01*
X134261853Y-67794443D01*
X134267699Y-67786561D01*
X134274289Y-67779289D01*
X134281561Y-67772699D01*
X134289443Y-67766853D01*
X134297860Y-67761808D01*
X134306732Y-67757612D01*
X134315972Y-67754306D01*
X134325491Y-67751921D01*
X134335198Y-67750482D01*
X134345000Y-67750000D01*
X135720000Y-67750000D01*
X135729802Y-67750482D01*
G37*
G36*
X135729802Y-67250482D02*
G01*
X135739509Y-67251921D01*
X135749028Y-67254306D01*
X135758268Y-67257612D01*
X135767140Y-67261808D01*
X135775557Y-67266853D01*
X135783439Y-67272699D01*
X135790711Y-67279289D01*
X135797301Y-67286561D01*
X135803147Y-67294443D01*
X135808192Y-67302860D01*
X135812388Y-67311732D01*
X135815694Y-67320972D01*
X135818079Y-67330491D01*
X135819518Y-67340198D01*
X135820000Y-67350000D01*
X135820000Y-67550000D01*
X135819518Y-67559802D01*
X135818079Y-67569509D01*
X135815694Y-67579028D01*
X135812388Y-67588268D01*
X135808192Y-67597140D01*
X135803147Y-67605557D01*
X135797301Y-67613439D01*
X135790711Y-67620711D01*
X135783439Y-67627301D01*
X135775557Y-67633147D01*
X135767140Y-67638192D01*
X135758268Y-67642388D01*
X135749028Y-67645694D01*
X135739509Y-67648079D01*
X135729802Y-67649518D01*
X135720000Y-67650000D01*
X134345000Y-67650000D01*
X134335198Y-67649518D01*
X134325491Y-67648079D01*
X134315972Y-67645694D01*
X134306732Y-67642388D01*
X134297860Y-67638192D01*
X134289443Y-67633147D01*
X134281561Y-67627301D01*
X134274289Y-67620711D01*
X134267699Y-67613439D01*
X134261853Y-67605557D01*
X134256808Y-67597140D01*
X134252612Y-67588268D01*
X134249306Y-67579028D01*
X134246921Y-67569509D01*
X134245482Y-67559802D01*
X134245000Y-67550000D01*
X134245000Y-67350000D01*
X134245482Y-67340198D01*
X134246921Y-67330491D01*
X134249306Y-67320972D01*
X134252612Y-67311732D01*
X134256808Y-67302860D01*
X134261853Y-67294443D01*
X134267699Y-67286561D01*
X134274289Y-67279289D01*
X134281561Y-67272699D01*
X134289443Y-67266853D01*
X134297860Y-67261808D01*
X134306732Y-67257612D01*
X134315972Y-67254306D01*
X134325491Y-67251921D01*
X134335198Y-67250482D01*
X134345000Y-67250000D01*
X135720000Y-67250000D01*
X135729802Y-67250482D01*
G37*
G36*
X135729802Y-66750482D02*
G01*
X135739509Y-66751921D01*
X135749028Y-66754306D01*
X135758268Y-66757612D01*
X135767140Y-66761808D01*
X135775557Y-66766853D01*
X135783439Y-66772699D01*
X135790711Y-66779289D01*
X135797301Y-66786561D01*
X135803147Y-66794443D01*
X135808192Y-66802860D01*
X135812388Y-66811732D01*
X135815694Y-66820972D01*
X135818079Y-66830491D01*
X135819518Y-66840198D01*
X135820000Y-66850000D01*
X135820000Y-67050000D01*
X135819518Y-67059802D01*
X135818079Y-67069509D01*
X135815694Y-67079028D01*
X135812388Y-67088268D01*
X135808192Y-67097140D01*
X135803147Y-67105557D01*
X135797301Y-67113439D01*
X135790711Y-67120711D01*
X135783439Y-67127301D01*
X135775557Y-67133147D01*
X135767140Y-67138192D01*
X135758268Y-67142388D01*
X135749028Y-67145694D01*
X135739509Y-67148079D01*
X135729802Y-67149518D01*
X135720000Y-67150000D01*
X134345000Y-67150000D01*
X134335198Y-67149518D01*
X134325491Y-67148079D01*
X134315972Y-67145694D01*
X134306732Y-67142388D01*
X134297860Y-67138192D01*
X134289443Y-67133147D01*
X134281561Y-67127301D01*
X134274289Y-67120711D01*
X134267699Y-67113439D01*
X134261853Y-67105557D01*
X134256808Y-67097140D01*
X134252612Y-67088268D01*
X134249306Y-67079028D01*
X134246921Y-67069509D01*
X134245482Y-67059802D01*
X134245000Y-67050000D01*
X134245000Y-66850000D01*
X134245482Y-66840198D01*
X134246921Y-66830491D01*
X134249306Y-66820972D01*
X134252612Y-66811732D01*
X134256808Y-66802860D01*
X134261853Y-66794443D01*
X134267699Y-66786561D01*
X134274289Y-66779289D01*
X134281561Y-66772699D01*
X134289443Y-66766853D01*
X134297860Y-66761808D01*
X134306732Y-66757612D01*
X134315972Y-66754306D01*
X134325491Y-66751921D01*
X134335198Y-66750482D01*
X134345000Y-66750000D01*
X135720000Y-66750000D01*
X135729802Y-66750482D01*
G37*
G36*
X135729802Y-66250482D02*
G01*
X135739509Y-66251921D01*
X135749028Y-66254306D01*
X135758268Y-66257612D01*
X135767140Y-66261808D01*
X135775557Y-66266853D01*
X135783439Y-66272699D01*
X135790711Y-66279289D01*
X135797301Y-66286561D01*
X135803147Y-66294443D01*
X135808192Y-66302860D01*
X135812388Y-66311732D01*
X135815694Y-66320972D01*
X135818079Y-66330491D01*
X135819518Y-66340198D01*
X135820000Y-66350000D01*
X135820000Y-66550000D01*
X135819518Y-66559802D01*
X135818079Y-66569509D01*
X135815694Y-66579028D01*
X135812388Y-66588268D01*
X135808192Y-66597140D01*
X135803147Y-66605557D01*
X135797301Y-66613439D01*
X135790711Y-66620711D01*
X135783439Y-66627301D01*
X135775557Y-66633147D01*
X135767140Y-66638192D01*
X135758268Y-66642388D01*
X135749028Y-66645694D01*
X135739509Y-66648079D01*
X135729802Y-66649518D01*
X135720000Y-66650000D01*
X134345000Y-66650000D01*
X134335198Y-66649518D01*
X134325491Y-66648079D01*
X134315972Y-66645694D01*
X134306732Y-66642388D01*
X134297860Y-66638192D01*
X134289443Y-66633147D01*
X134281561Y-66627301D01*
X134274289Y-66620711D01*
X134267699Y-66613439D01*
X134261853Y-66605557D01*
X134256808Y-66597140D01*
X134252612Y-66588268D01*
X134249306Y-66579028D01*
X134246921Y-66569509D01*
X134245482Y-66559802D01*
X134245000Y-66550000D01*
X134245000Y-66350000D01*
X134245482Y-66340198D01*
X134246921Y-66330491D01*
X134249306Y-66320972D01*
X134252612Y-66311732D01*
X134256808Y-66302860D01*
X134261853Y-66294443D01*
X134267699Y-66286561D01*
X134274289Y-66279289D01*
X134281561Y-66272699D01*
X134289443Y-66266853D01*
X134297860Y-66261808D01*
X134306732Y-66257612D01*
X134315972Y-66254306D01*
X134325491Y-66251921D01*
X134335198Y-66250482D01*
X134345000Y-66250000D01*
X135720000Y-66250000D01*
X135729802Y-66250482D01*
G37*
G36*
X135729802Y-65750482D02*
G01*
X135739509Y-65751921D01*
X135749028Y-65754306D01*
X135758268Y-65757612D01*
X135767140Y-65761808D01*
X135775557Y-65766853D01*
X135783439Y-65772699D01*
X135790711Y-65779289D01*
X135797301Y-65786561D01*
X135803147Y-65794443D01*
X135808192Y-65802860D01*
X135812388Y-65811732D01*
X135815694Y-65820972D01*
X135818079Y-65830491D01*
X135819518Y-65840198D01*
X135820000Y-65850000D01*
X135820000Y-66050000D01*
X135819518Y-66059802D01*
X135818079Y-66069509D01*
X135815694Y-66079028D01*
X135812388Y-66088268D01*
X135808192Y-66097140D01*
X135803147Y-66105557D01*
X135797301Y-66113439D01*
X135790711Y-66120711D01*
X135783439Y-66127301D01*
X135775557Y-66133147D01*
X135767140Y-66138192D01*
X135758268Y-66142388D01*
X135749028Y-66145694D01*
X135739509Y-66148079D01*
X135729802Y-66149518D01*
X135720000Y-66150000D01*
X134345000Y-66150000D01*
X134335198Y-66149518D01*
X134325491Y-66148079D01*
X134315972Y-66145694D01*
X134306732Y-66142388D01*
X134297860Y-66138192D01*
X134289443Y-66133147D01*
X134281561Y-66127301D01*
X134274289Y-66120711D01*
X134267699Y-66113439D01*
X134261853Y-66105557D01*
X134256808Y-66097140D01*
X134252612Y-66088268D01*
X134249306Y-66079028D01*
X134246921Y-66069509D01*
X134245482Y-66059802D01*
X134245000Y-66050000D01*
X134245000Y-65850000D01*
X134245482Y-65840198D01*
X134246921Y-65830491D01*
X134249306Y-65820972D01*
X134252612Y-65811732D01*
X134256808Y-65802860D01*
X134261853Y-65794443D01*
X134267699Y-65786561D01*
X134274289Y-65779289D01*
X134281561Y-65772699D01*
X134289443Y-65766853D01*
X134297860Y-65761808D01*
X134306732Y-65757612D01*
X134315972Y-65754306D01*
X134325491Y-65751921D01*
X134335198Y-65750482D01*
X134345000Y-65750000D01*
X135720000Y-65750000D01*
X135729802Y-65750482D01*
G37*
G36*
X135729802Y-65250482D02*
G01*
X135739509Y-65251921D01*
X135749028Y-65254306D01*
X135758268Y-65257612D01*
X135767140Y-65261808D01*
X135775557Y-65266853D01*
X135783439Y-65272699D01*
X135790711Y-65279289D01*
X135797301Y-65286561D01*
X135803147Y-65294443D01*
X135808192Y-65302860D01*
X135812388Y-65311732D01*
X135815694Y-65320972D01*
X135818079Y-65330491D01*
X135819518Y-65340198D01*
X135820000Y-65350000D01*
X135820000Y-65550000D01*
X135819518Y-65559802D01*
X135818079Y-65569509D01*
X135815694Y-65579028D01*
X135812388Y-65588268D01*
X135808192Y-65597140D01*
X135803147Y-65605557D01*
X135797301Y-65613439D01*
X135790711Y-65620711D01*
X135783439Y-65627301D01*
X135775557Y-65633147D01*
X135767140Y-65638192D01*
X135758268Y-65642388D01*
X135749028Y-65645694D01*
X135739509Y-65648079D01*
X135729802Y-65649518D01*
X135720000Y-65650000D01*
X134345000Y-65650000D01*
X134335198Y-65649518D01*
X134325491Y-65648079D01*
X134315972Y-65645694D01*
X134306732Y-65642388D01*
X134297860Y-65638192D01*
X134289443Y-65633147D01*
X134281561Y-65627301D01*
X134274289Y-65620711D01*
X134267699Y-65613439D01*
X134261853Y-65605557D01*
X134256808Y-65597140D01*
X134252612Y-65588268D01*
X134249306Y-65579028D01*
X134246921Y-65569509D01*
X134245482Y-65559802D01*
X134245000Y-65550000D01*
X134245000Y-65350000D01*
X134245482Y-65340198D01*
X134246921Y-65330491D01*
X134249306Y-65320972D01*
X134252612Y-65311732D01*
X134256808Y-65302860D01*
X134261853Y-65294443D01*
X134267699Y-65286561D01*
X134274289Y-65279289D01*
X134281561Y-65272699D01*
X134289443Y-65266853D01*
X134297860Y-65261808D01*
X134306732Y-65257612D01*
X134315972Y-65254306D01*
X134325491Y-65251921D01*
X134335198Y-65250482D01*
X134345000Y-65250000D01*
X135720000Y-65250000D01*
X135729802Y-65250482D01*
G37*
G36*
X135729802Y-64750482D02*
G01*
X135739509Y-64751921D01*
X135749028Y-64754306D01*
X135758268Y-64757612D01*
X135767140Y-64761808D01*
X135775557Y-64766853D01*
X135783439Y-64772699D01*
X135790711Y-64779289D01*
X135797301Y-64786561D01*
X135803147Y-64794443D01*
X135808192Y-64802860D01*
X135812388Y-64811732D01*
X135815694Y-64820972D01*
X135818079Y-64830491D01*
X135819518Y-64840198D01*
X135820000Y-64850000D01*
X135820000Y-65050000D01*
X135819518Y-65059802D01*
X135818079Y-65069509D01*
X135815694Y-65079028D01*
X135812388Y-65088268D01*
X135808192Y-65097140D01*
X135803147Y-65105557D01*
X135797301Y-65113439D01*
X135790711Y-65120711D01*
X135783439Y-65127301D01*
X135775557Y-65133147D01*
X135767140Y-65138192D01*
X135758268Y-65142388D01*
X135749028Y-65145694D01*
X135739509Y-65148079D01*
X135729802Y-65149518D01*
X135720000Y-65150000D01*
X134345000Y-65150000D01*
X134335198Y-65149518D01*
X134325491Y-65148079D01*
X134315972Y-65145694D01*
X134306732Y-65142388D01*
X134297860Y-65138192D01*
X134289443Y-65133147D01*
X134281561Y-65127301D01*
X134274289Y-65120711D01*
X134267699Y-65113439D01*
X134261853Y-65105557D01*
X134256808Y-65097140D01*
X134252612Y-65088268D01*
X134249306Y-65079028D01*
X134246921Y-65069509D01*
X134245482Y-65059802D01*
X134245000Y-65050000D01*
X134245000Y-64850000D01*
X134245482Y-64840198D01*
X134246921Y-64830491D01*
X134249306Y-64820972D01*
X134252612Y-64811732D01*
X134256808Y-64802860D01*
X134261853Y-64794443D01*
X134267699Y-64786561D01*
X134274289Y-64779289D01*
X134281561Y-64772699D01*
X134289443Y-64766853D01*
X134297860Y-64761808D01*
X134306732Y-64757612D01*
X134315972Y-64754306D01*
X134325491Y-64751921D01*
X134335198Y-64750482D01*
X134345000Y-64750000D01*
X135720000Y-64750000D01*
X135729802Y-64750482D01*
G37*
G36*
X135729802Y-64250482D02*
G01*
X135739509Y-64251921D01*
X135749028Y-64254306D01*
X135758268Y-64257612D01*
X135767140Y-64261808D01*
X135775557Y-64266853D01*
X135783439Y-64272699D01*
X135790711Y-64279289D01*
X135797301Y-64286561D01*
X135803147Y-64294443D01*
X135808192Y-64302860D01*
X135812388Y-64311732D01*
X135815694Y-64320972D01*
X135818079Y-64330491D01*
X135819518Y-64340198D01*
X135820000Y-64350000D01*
X135820000Y-64550000D01*
X135819518Y-64559802D01*
X135818079Y-64569509D01*
X135815694Y-64579028D01*
X135812388Y-64588268D01*
X135808192Y-64597140D01*
X135803147Y-64605557D01*
X135797301Y-64613439D01*
X135790711Y-64620711D01*
X135783439Y-64627301D01*
X135775557Y-64633147D01*
X135767140Y-64638192D01*
X135758268Y-64642388D01*
X135749028Y-64645694D01*
X135739509Y-64648079D01*
X135729802Y-64649518D01*
X135720000Y-64650000D01*
X134345000Y-64650000D01*
X134335198Y-64649518D01*
X134325491Y-64648079D01*
X134315972Y-64645694D01*
X134306732Y-64642388D01*
X134297860Y-64638192D01*
X134289443Y-64633147D01*
X134281561Y-64627301D01*
X134274289Y-64620711D01*
X134267699Y-64613439D01*
X134261853Y-64605557D01*
X134256808Y-64597140D01*
X134252612Y-64588268D01*
X134249306Y-64579028D01*
X134246921Y-64569509D01*
X134245482Y-64559802D01*
X134245000Y-64550000D01*
X134245000Y-64350000D01*
X134245482Y-64340198D01*
X134246921Y-64330491D01*
X134249306Y-64320972D01*
X134252612Y-64311732D01*
X134256808Y-64302860D01*
X134261853Y-64294443D01*
X134267699Y-64286561D01*
X134274289Y-64279289D01*
X134281561Y-64272699D01*
X134289443Y-64266853D01*
X134297860Y-64261808D01*
X134306732Y-64257612D01*
X134315972Y-64254306D01*
X134325491Y-64251921D01*
X134335198Y-64250482D01*
X134345000Y-64250000D01*
X135720000Y-64250000D01*
X135729802Y-64250482D01*
G37*
G36*
X133729802Y-62250482D02*
G01*
X133739509Y-62251921D01*
X133749028Y-62254306D01*
X133758268Y-62257612D01*
X133767140Y-62261808D01*
X133775557Y-62266853D01*
X133783439Y-62272699D01*
X133790711Y-62279289D01*
X133797301Y-62286561D01*
X133803147Y-62294443D01*
X133808192Y-62302860D01*
X133812388Y-62311732D01*
X133815694Y-62320972D01*
X133818079Y-62330491D01*
X133819518Y-62340198D01*
X133820000Y-62350000D01*
X133820000Y-63725000D01*
X133819518Y-63734802D01*
X133818079Y-63744509D01*
X133815694Y-63754028D01*
X133812388Y-63763268D01*
X133808192Y-63772140D01*
X133803147Y-63780557D01*
X133797301Y-63788439D01*
X133790711Y-63795711D01*
X133783439Y-63802301D01*
X133775557Y-63808147D01*
X133767140Y-63813192D01*
X133758268Y-63817388D01*
X133749028Y-63820694D01*
X133739509Y-63823079D01*
X133729802Y-63824518D01*
X133720000Y-63825000D01*
X133520000Y-63825000D01*
X133510198Y-63824518D01*
X133500491Y-63823079D01*
X133490972Y-63820694D01*
X133481732Y-63817388D01*
X133472860Y-63813192D01*
X133464443Y-63808147D01*
X133456561Y-63802301D01*
X133449289Y-63795711D01*
X133442699Y-63788439D01*
X133436853Y-63780557D01*
X133431808Y-63772140D01*
X133427612Y-63763268D01*
X133424306Y-63754028D01*
X133421921Y-63744509D01*
X133420482Y-63734802D01*
X133420000Y-63725000D01*
X133420000Y-62350000D01*
X133420482Y-62340198D01*
X133421921Y-62330491D01*
X133424306Y-62320972D01*
X133427612Y-62311732D01*
X133431808Y-62302860D01*
X133436853Y-62294443D01*
X133442699Y-62286561D01*
X133449289Y-62279289D01*
X133456561Y-62272699D01*
X133464443Y-62266853D01*
X133472860Y-62261808D01*
X133481732Y-62257612D01*
X133490972Y-62254306D01*
X133500491Y-62251921D01*
X133510198Y-62250482D01*
X133520000Y-62250000D01*
X133720000Y-62250000D01*
X133729802Y-62250482D01*
G37*
G36*
X133229802Y-62250482D02*
G01*
X133239509Y-62251921D01*
X133249028Y-62254306D01*
X133258268Y-62257612D01*
X133267140Y-62261808D01*
X133275557Y-62266853D01*
X133283439Y-62272699D01*
X133290711Y-62279289D01*
X133297301Y-62286561D01*
X133303147Y-62294443D01*
X133308192Y-62302860D01*
X133312388Y-62311732D01*
X133315694Y-62320972D01*
X133318079Y-62330491D01*
X133319518Y-62340198D01*
X133320000Y-62350000D01*
X133320000Y-63725000D01*
X133319518Y-63734802D01*
X133318079Y-63744509D01*
X133315694Y-63754028D01*
X133312388Y-63763268D01*
X133308192Y-63772140D01*
X133303147Y-63780557D01*
X133297301Y-63788439D01*
X133290711Y-63795711D01*
X133283439Y-63802301D01*
X133275557Y-63808147D01*
X133267140Y-63813192D01*
X133258268Y-63817388D01*
X133249028Y-63820694D01*
X133239509Y-63823079D01*
X133229802Y-63824518D01*
X133220000Y-63825000D01*
X133020000Y-63825000D01*
X133010198Y-63824518D01*
X133000491Y-63823079D01*
X132990972Y-63820694D01*
X132981732Y-63817388D01*
X132972860Y-63813192D01*
X132964443Y-63808147D01*
X132956561Y-63802301D01*
X132949289Y-63795711D01*
X132942699Y-63788439D01*
X132936853Y-63780557D01*
X132931808Y-63772140D01*
X132927612Y-63763268D01*
X132924306Y-63754028D01*
X132921921Y-63744509D01*
X132920482Y-63734802D01*
X132920000Y-63725000D01*
X132920000Y-62350000D01*
X132920482Y-62340198D01*
X132921921Y-62330491D01*
X132924306Y-62320972D01*
X132927612Y-62311732D01*
X132931808Y-62302860D01*
X132936853Y-62294443D01*
X132942699Y-62286561D01*
X132949289Y-62279289D01*
X132956561Y-62272699D01*
X132964443Y-62266853D01*
X132972860Y-62261808D01*
X132981732Y-62257612D01*
X132990972Y-62254306D01*
X133000491Y-62251921D01*
X133010198Y-62250482D01*
X133020000Y-62250000D01*
X133220000Y-62250000D01*
X133229802Y-62250482D01*
G37*
G36*
X132729802Y-62250482D02*
G01*
X132739509Y-62251921D01*
X132749028Y-62254306D01*
X132758268Y-62257612D01*
X132767140Y-62261808D01*
X132775557Y-62266853D01*
X132783439Y-62272699D01*
X132790711Y-62279289D01*
X132797301Y-62286561D01*
X132803147Y-62294443D01*
X132808192Y-62302860D01*
X132812388Y-62311732D01*
X132815694Y-62320972D01*
X132818079Y-62330491D01*
X132819518Y-62340198D01*
X132820000Y-62350000D01*
X132820000Y-63725000D01*
X132819518Y-63734802D01*
X132818079Y-63744509D01*
X132815694Y-63754028D01*
X132812388Y-63763268D01*
X132808192Y-63772140D01*
X132803147Y-63780557D01*
X132797301Y-63788439D01*
X132790711Y-63795711D01*
X132783439Y-63802301D01*
X132775557Y-63808147D01*
X132767140Y-63813192D01*
X132758268Y-63817388D01*
X132749028Y-63820694D01*
X132739509Y-63823079D01*
X132729802Y-63824518D01*
X132720000Y-63825000D01*
X132520000Y-63825000D01*
X132510198Y-63824518D01*
X132500491Y-63823079D01*
X132490972Y-63820694D01*
X132481732Y-63817388D01*
X132472860Y-63813192D01*
X132464443Y-63808147D01*
X132456561Y-63802301D01*
X132449289Y-63795711D01*
X132442699Y-63788439D01*
X132436853Y-63780557D01*
X132431808Y-63772140D01*
X132427612Y-63763268D01*
X132424306Y-63754028D01*
X132421921Y-63744509D01*
X132420482Y-63734802D01*
X132420000Y-63725000D01*
X132420000Y-62350000D01*
X132420482Y-62340198D01*
X132421921Y-62330491D01*
X132424306Y-62320972D01*
X132427612Y-62311732D01*
X132431808Y-62302860D01*
X132436853Y-62294443D01*
X132442699Y-62286561D01*
X132449289Y-62279289D01*
X132456561Y-62272699D01*
X132464443Y-62266853D01*
X132472860Y-62261808D01*
X132481732Y-62257612D01*
X132490972Y-62254306D01*
X132500491Y-62251921D01*
X132510198Y-62250482D01*
X132520000Y-62250000D01*
X132720000Y-62250000D01*
X132729802Y-62250482D01*
G37*
G36*
X132229802Y-62250482D02*
G01*
X132239509Y-62251921D01*
X132249028Y-62254306D01*
X132258268Y-62257612D01*
X132267140Y-62261808D01*
X132275557Y-62266853D01*
X132283439Y-62272699D01*
X132290711Y-62279289D01*
X132297301Y-62286561D01*
X132303147Y-62294443D01*
X132308192Y-62302860D01*
X132312388Y-62311732D01*
X132315694Y-62320972D01*
X132318079Y-62330491D01*
X132319518Y-62340198D01*
X132320000Y-62350000D01*
X132320000Y-63725000D01*
X132319518Y-63734802D01*
X132318079Y-63744509D01*
X132315694Y-63754028D01*
X132312388Y-63763268D01*
X132308192Y-63772140D01*
X132303147Y-63780557D01*
X132297301Y-63788439D01*
X132290711Y-63795711D01*
X132283439Y-63802301D01*
X132275557Y-63808147D01*
X132267140Y-63813192D01*
X132258268Y-63817388D01*
X132249028Y-63820694D01*
X132239509Y-63823079D01*
X132229802Y-63824518D01*
X132220000Y-63825000D01*
X132020000Y-63825000D01*
X132010198Y-63824518D01*
X132000491Y-63823079D01*
X131990972Y-63820694D01*
X131981732Y-63817388D01*
X131972860Y-63813192D01*
X131964443Y-63808147D01*
X131956561Y-63802301D01*
X131949289Y-63795711D01*
X131942699Y-63788439D01*
X131936853Y-63780557D01*
X131931808Y-63772140D01*
X131927612Y-63763268D01*
X131924306Y-63754028D01*
X131921921Y-63744509D01*
X131920482Y-63734802D01*
X131920000Y-63725000D01*
X131920000Y-62350000D01*
X131920482Y-62340198D01*
X131921921Y-62330491D01*
X131924306Y-62320972D01*
X131927612Y-62311732D01*
X131931808Y-62302860D01*
X131936853Y-62294443D01*
X131942699Y-62286561D01*
X131949289Y-62279289D01*
X131956561Y-62272699D01*
X131964443Y-62266853D01*
X131972860Y-62261808D01*
X131981732Y-62257612D01*
X131990972Y-62254306D01*
X132000491Y-62251921D01*
X132010198Y-62250482D01*
X132020000Y-62250000D01*
X132220000Y-62250000D01*
X132229802Y-62250482D01*
G37*
G36*
X131729802Y-62250482D02*
G01*
X131739509Y-62251921D01*
X131749028Y-62254306D01*
X131758268Y-62257612D01*
X131767140Y-62261808D01*
X131775557Y-62266853D01*
X131783439Y-62272699D01*
X131790711Y-62279289D01*
X131797301Y-62286561D01*
X131803147Y-62294443D01*
X131808192Y-62302860D01*
X131812388Y-62311732D01*
X131815694Y-62320972D01*
X131818079Y-62330491D01*
X131819518Y-62340198D01*
X131820000Y-62350000D01*
X131820000Y-63725000D01*
X131819518Y-63734802D01*
X131818079Y-63744509D01*
X131815694Y-63754028D01*
X131812388Y-63763268D01*
X131808192Y-63772140D01*
X131803147Y-63780557D01*
X131797301Y-63788439D01*
X131790711Y-63795711D01*
X131783439Y-63802301D01*
X131775557Y-63808147D01*
X131767140Y-63813192D01*
X131758268Y-63817388D01*
X131749028Y-63820694D01*
X131739509Y-63823079D01*
X131729802Y-63824518D01*
X131720000Y-63825000D01*
X131520000Y-63825000D01*
X131510198Y-63824518D01*
X131500491Y-63823079D01*
X131490972Y-63820694D01*
X131481732Y-63817388D01*
X131472860Y-63813192D01*
X131464443Y-63808147D01*
X131456561Y-63802301D01*
X131449289Y-63795711D01*
X131442699Y-63788439D01*
X131436853Y-63780557D01*
X131431808Y-63772140D01*
X131427612Y-63763268D01*
X131424306Y-63754028D01*
X131421921Y-63744509D01*
X131420482Y-63734802D01*
X131420000Y-63725000D01*
X131420000Y-62350000D01*
X131420482Y-62340198D01*
X131421921Y-62330491D01*
X131424306Y-62320972D01*
X131427612Y-62311732D01*
X131431808Y-62302860D01*
X131436853Y-62294443D01*
X131442699Y-62286561D01*
X131449289Y-62279289D01*
X131456561Y-62272699D01*
X131464443Y-62266853D01*
X131472860Y-62261808D01*
X131481732Y-62257612D01*
X131490972Y-62254306D01*
X131500491Y-62251921D01*
X131510198Y-62250482D01*
X131520000Y-62250000D01*
X131720000Y-62250000D01*
X131729802Y-62250482D01*
G37*
G36*
X131229802Y-62250482D02*
G01*
X131239509Y-62251921D01*
X131249028Y-62254306D01*
X131258268Y-62257612D01*
X131267140Y-62261808D01*
X131275557Y-62266853D01*
X131283439Y-62272699D01*
X131290711Y-62279289D01*
X131297301Y-62286561D01*
X131303147Y-62294443D01*
X131308192Y-62302860D01*
X131312388Y-62311732D01*
X131315694Y-62320972D01*
X131318079Y-62330491D01*
X131319518Y-62340198D01*
X131320000Y-62350000D01*
X131320000Y-63725000D01*
X131319518Y-63734802D01*
X131318079Y-63744509D01*
X131315694Y-63754028D01*
X131312388Y-63763268D01*
X131308192Y-63772140D01*
X131303147Y-63780557D01*
X131297301Y-63788439D01*
X131290711Y-63795711D01*
X131283439Y-63802301D01*
X131275557Y-63808147D01*
X131267140Y-63813192D01*
X131258268Y-63817388D01*
X131249028Y-63820694D01*
X131239509Y-63823079D01*
X131229802Y-63824518D01*
X131220000Y-63825000D01*
X131020000Y-63825000D01*
X131010198Y-63824518D01*
X131000491Y-63823079D01*
X130990972Y-63820694D01*
X130981732Y-63817388D01*
X130972860Y-63813192D01*
X130964443Y-63808147D01*
X130956561Y-63802301D01*
X130949289Y-63795711D01*
X130942699Y-63788439D01*
X130936853Y-63780557D01*
X130931808Y-63772140D01*
X130927612Y-63763268D01*
X130924306Y-63754028D01*
X130921921Y-63744509D01*
X130920482Y-63734802D01*
X130920000Y-63725000D01*
X130920000Y-62350000D01*
X130920482Y-62340198D01*
X130921921Y-62330491D01*
X130924306Y-62320972D01*
X130927612Y-62311732D01*
X130931808Y-62302860D01*
X130936853Y-62294443D01*
X130942699Y-62286561D01*
X130949289Y-62279289D01*
X130956561Y-62272699D01*
X130964443Y-62266853D01*
X130972860Y-62261808D01*
X130981732Y-62257612D01*
X130990972Y-62254306D01*
X131000491Y-62251921D01*
X131010198Y-62250482D01*
X131020000Y-62250000D01*
X131220000Y-62250000D01*
X131229802Y-62250482D01*
G37*
G36*
X130729802Y-62250482D02*
G01*
X130739509Y-62251921D01*
X130749028Y-62254306D01*
X130758268Y-62257612D01*
X130767140Y-62261808D01*
X130775557Y-62266853D01*
X130783439Y-62272699D01*
X130790711Y-62279289D01*
X130797301Y-62286561D01*
X130803147Y-62294443D01*
X130808192Y-62302860D01*
X130812388Y-62311732D01*
X130815694Y-62320972D01*
X130818079Y-62330491D01*
X130819518Y-62340198D01*
X130820000Y-62350000D01*
X130820000Y-63725000D01*
X130819518Y-63734802D01*
X130818079Y-63744509D01*
X130815694Y-63754028D01*
X130812388Y-63763268D01*
X130808192Y-63772140D01*
X130803147Y-63780557D01*
X130797301Y-63788439D01*
X130790711Y-63795711D01*
X130783439Y-63802301D01*
X130775557Y-63808147D01*
X130767140Y-63813192D01*
X130758268Y-63817388D01*
X130749028Y-63820694D01*
X130739509Y-63823079D01*
X130729802Y-63824518D01*
X130720000Y-63825000D01*
X130520000Y-63825000D01*
X130510198Y-63824518D01*
X130500491Y-63823079D01*
X130490972Y-63820694D01*
X130481732Y-63817388D01*
X130472860Y-63813192D01*
X130464443Y-63808147D01*
X130456561Y-63802301D01*
X130449289Y-63795711D01*
X130442699Y-63788439D01*
X130436853Y-63780557D01*
X130431808Y-63772140D01*
X130427612Y-63763268D01*
X130424306Y-63754028D01*
X130421921Y-63744509D01*
X130420482Y-63734802D01*
X130420000Y-63725000D01*
X130420000Y-62350000D01*
X130420482Y-62340198D01*
X130421921Y-62330491D01*
X130424306Y-62320972D01*
X130427612Y-62311732D01*
X130431808Y-62302860D01*
X130436853Y-62294443D01*
X130442699Y-62286561D01*
X130449289Y-62279289D01*
X130456561Y-62272699D01*
X130464443Y-62266853D01*
X130472860Y-62261808D01*
X130481732Y-62257612D01*
X130490972Y-62254306D01*
X130500491Y-62251921D01*
X130510198Y-62250482D01*
X130520000Y-62250000D01*
X130720000Y-62250000D01*
X130729802Y-62250482D01*
G37*
G36*
X130229802Y-62250482D02*
G01*
X130239509Y-62251921D01*
X130249028Y-62254306D01*
X130258268Y-62257612D01*
X130267140Y-62261808D01*
X130275557Y-62266853D01*
X130283439Y-62272699D01*
X130290711Y-62279289D01*
X130297301Y-62286561D01*
X130303147Y-62294443D01*
X130308192Y-62302860D01*
X130312388Y-62311732D01*
X130315694Y-62320972D01*
X130318079Y-62330491D01*
X130319518Y-62340198D01*
X130320000Y-62350000D01*
X130320000Y-63725000D01*
X130319518Y-63734802D01*
X130318079Y-63744509D01*
X130315694Y-63754028D01*
X130312388Y-63763268D01*
X130308192Y-63772140D01*
X130303147Y-63780557D01*
X130297301Y-63788439D01*
X130290711Y-63795711D01*
X130283439Y-63802301D01*
X130275557Y-63808147D01*
X130267140Y-63813192D01*
X130258268Y-63817388D01*
X130249028Y-63820694D01*
X130239509Y-63823079D01*
X130229802Y-63824518D01*
X130220000Y-63825000D01*
X130020000Y-63825000D01*
X130010198Y-63824518D01*
X130000491Y-63823079D01*
X129990972Y-63820694D01*
X129981732Y-63817388D01*
X129972860Y-63813192D01*
X129964443Y-63808147D01*
X129956561Y-63802301D01*
X129949289Y-63795711D01*
X129942699Y-63788439D01*
X129936853Y-63780557D01*
X129931808Y-63772140D01*
X129927612Y-63763268D01*
X129924306Y-63754028D01*
X129921921Y-63744509D01*
X129920482Y-63734802D01*
X129920000Y-63725000D01*
X129920000Y-62350000D01*
X129920482Y-62340198D01*
X129921921Y-62330491D01*
X129924306Y-62320972D01*
X129927612Y-62311732D01*
X129931808Y-62302860D01*
X129936853Y-62294443D01*
X129942699Y-62286561D01*
X129949289Y-62279289D01*
X129956561Y-62272699D01*
X129964443Y-62266853D01*
X129972860Y-62261808D01*
X129981732Y-62257612D01*
X129990972Y-62254306D01*
X130000491Y-62251921D01*
X130010198Y-62250482D01*
X130020000Y-62250000D01*
X130220000Y-62250000D01*
X130229802Y-62250482D01*
G37*
G36*
X129729802Y-62250482D02*
G01*
X129739509Y-62251921D01*
X129749028Y-62254306D01*
X129758268Y-62257612D01*
X129767140Y-62261808D01*
X129775557Y-62266853D01*
X129783439Y-62272699D01*
X129790711Y-62279289D01*
X129797301Y-62286561D01*
X129803147Y-62294443D01*
X129808192Y-62302860D01*
X129812388Y-62311732D01*
X129815694Y-62320972D01*
X129818079Y-62330491D01*
X129819518Y-62340198D01*
X129820000Y-62350000D01*
X129820000Y-63725000D01*
X129819518Y-63734802D01*
X129818079Y-63744509D01*
X129815694Y-63754028D01*
X129812388Y-63763268D01*
X129808192Y-63772140D01*
X129803147Y-63780557D01*
X129797301Y-63788439D01*
X129790711Y-63795711D01*
X129783439Y-63802301D01*
X129775557Y-63808147D01*
X129767140Y-63813192D01*
X129758268Y-63817388D01*
X129749028Y-63820694D01*
X129739509Y-63823079D01*
X129729802Y-63824518D01*
X129720000Y-63825000D01*
X129520000Y-63825000D01*
X129510198Y-63824518D01*
X129500491Y-63823079D01*
X129490972Y-63820694D01*
X129481732Y-63817388D01*
X129472860Y-63813192D01*
X129464443Y-63808147D01*
X129456561Y-63802301D01*
X129449289Y-63795711D01*
X129442699Y-63788439D01*
X129436853Y-63780557D01*
X129431808Y-63772140D01*
X129427612Y-63763268D01*
X129424306Y-63754028D01*
X129421921Y-63744509D01*
X129420482Y-63734802D01*
X129420000Y-63725000D01*
X129420000Y-62350000D01*
X129420482Y-62340198D01*
X129421921Y-62330491D01*
X129424306Y-62320972D01*
X129427612Y-62311732D01*
X129431808Y-62302860D01*
X129436853Y-62294443D01*
X129442699Y-62286561D01*
X129449289Y-62279289D01*
X129456561Y-62272699D01*
X129464443Y-62266853D01*
X129472860Y-62261808D01*
X129481732Y-62257612D01*
X129490972Y-62254306D01*
X129500491Y-62251921D01*
X129510198Y-62250482D01*
X129520000Y-62250000D01*
X129720000Y-62250000D01*
X129729802Y-62250482D01*
G37*
G36*
X129229802Y-62250482D02*
G01*
X129239509Y-62251921D01*
X129249028Y-62254306D01*
X129258268Y-62257612D01*
X129267140Y-62261808D01*
X129275557Y-62266853D01*
X129283439Y-62272699D01*
X129290711Y-62279289D01*
X129297301Y-62286561D01*
X129303147Y-62294443D01*
X129308192Y-62302860D01*
X129312388Y-62311732D01*
X129315694Y-62320972D01*
X129318079Y-62330491D01*
X129319518Y-62340198D01*
X129320000Y-62350000D01*
X129320000Y-63725000D01*
X129319518Y-63734802D01*
X129318079Y-63744509D01*
X129315694Y-63754028D01*
X129312388Y-63763268D01*
X129308192Y-63772140D01*
X129303147Y-63780557D01*
X129297301Y-63788439D01*
X129290711Y-63795711D01*
X129283439Y-63802301D01*
X129275557Y-63808147D01*
X129267140Y-63813192D01*
X129258268Y-63817388D01*
X129249028Y-63820694D01*
X129239509Y-63823079D01*
X129229802Y-63824518D01*
X129220000Y-63825000D01*
X129020000Y-63825000D01*
X129010198Y-63824518D01*
X129000491Y-63823079D01*
X128990972Y-63820694D01*
X128981732Y-63817388D01*
X128972860Y-63813192D01*
X128964443Y-63808147D01*
X128956561Y-63802301D01*
X128949289Y-63795711D01*
X128942699Y-63788439D01*
X128936853Y-63780557D01*
X128931808Y-63772140D01*
X128927612Y-63763268D01*
X128924306Y-63754028D01*
X128921921Y-63744509D01*
X128920482Y-63734802D01*
X128920000Y-63725000D01*
X128920000Y-62350000D01*
X128920482Y-62340198D01*
X128921921Y-62330491D01*
X128924306Y-62320972D01*
X128927612Y-62311732D01*
X128931808Y-62302860D01*
X128936853Y-62294443D01*
X128942699Y-62286561D01*
X128949289Y-62279289D01*
X128956561Y-62272699D01*
X128964443Y-62266853D01*
X128972860Y-62261808D01*
X128981732Y-62257612D01*
X128990972Y-62254306D01*
X129000491Y-62251921D01*
X129010198Y-62250482D01*
X129020000Y-62250000D01*
X129220000Y-62250000D01*
X129229802Y-62250482D01*
G37*
G36*
X128729802Y-62250482D02*
G01*
X128739509Y-62251921D01*
X128749028Y-62254306D01*
X128758268Y-62257612D01*
X128767140Y-62261808D01*
X128775557Y-62266853D01*
X128783439Y-62272699D01*
X128790711Y-62279289D01*
X128797301Y-62286561D01*
X128803147Y-62294443D01*
X128808192Y-62302860D01*
X128812388Y-62311732D01*
X128815694Y-62320972D01*
X128818079Y-62330491D01*
X128819518Y-62340198D01*
X128820000Y-62350000D01*
X128820000Y-63725000D01*
X128819518Y-63734802D01*
X128818079Y-63744509D01*
X128815694Y-63754028D01*
X128812388Y-63763268D01*
X128808192Y-63772140D01*
X128803147Y-63780557D01*
X128797301Y-63788439D01*
X128790711Y-63795711D01*
X128783439Y-63802301D01*
X128775557Y-63808147D01*
X128767140Y-63813192D01*
X128758268Y-63817388D01*
X128749028Y-63820694D01*
X128739509Y-63823079D01*
X128729802Y-63824518D01*
X128720000Y-63825000D01*
X128520000Y-63825000D01*
X128510198Y-63824518D01*
X128500491Y-63823079D01*
X128490972Y-63820694D01*
X128481732Y-63817388D01*
X128472860Y-63813192D01*
X128464443Y-63808147D01*
X128456561Y-63802301D01*
X128449289Y-63795711D01*
X128442699Y-63788439D01*
X128436853Y-63780557D01*
X128431808Y-63772140D01*
X128427612Y-63763268D01*
X128424306Y-63754028D01*
X128421921Y-63744509D01*
X128420482Y-63734802D01*
X128420000Y-63725000D01*
X128420000Y-62350000D01*
X128420482Y-62340198D01*
X128421921Y-62330491D01*
X128424306Y-62320972D01*
X128427612Y-62311732D01*
X128431808Y-62302860D01*
X128436853Y-62294443D01*
X128442699Y-62286561D01*
X128449289Y-62279289D01*
X128456561Y-62272699D01*
X128464443Y-62266853D01*
X128472860Y-62261808D01*
X128481732Y-62257612D01*
X128490972Y-62254306D01*
X128500491Y-62251921D01*
X128510198Y-62250482D01*
X128520000Y-62250000D01*
X128720000Y-62250000D01*
X128729802Y-62250482D01*
G37*
G36*
X128229802Y-62250482D02*
G01*
X128239509Y-62251921D01*
X128249028Y-62254306D01*
X128258268Y-62257612D01*
X128267140Y-62261808D01*
X128275557Y-62266853D01*
X128283439Y-62272699D01*
X128290711Y-62279289D01*
X128297301Y-62286561D01*
X128303147Y-62294443D01*
X128308192Y-62302860D01*
X128312388Y-62311732D01*
X128315694Y-62320972D01*
X128318079Y-62330491D01*
X128319518Y-62340198D01*
X128320000Y-62350000D01*
X128320000Y-63725000D01*
X128319518Y-63734802D01*
X128318079Y-63744509D01*
X128315694Y-63754028D01*
X128312388Y-63763268D01*
X128308192Y-63772140D01*
X128303147Y-63780557D01*
X128297301Y-63788439D01*
X128290711Y-63795711D01*
X128283439Y-63802301D01*
X128275557Y-63808147D01*
X128267140Y-63813192D01*
X128258268Y-63817388D01*
X128249028Y-63820694D01*
X128239509Y-63823079D01*
X128229802Y-63824518D01*
X128220000Y-63825000D01*
X128020000Y-63825000D01*
X128010198Y-63824518D01*
X128000491Y-63823079D01*
X127990972Y-63820694D01*
X127981732Y-63817388D01*
X127972860Y-63813192D01*
X127964443Y-63808147D01*
X127956561Y-63802301D01*
X127949289Y-63795711D01*
X127942699Y-63788439D01*
X127936853Y-63780557D01*
X127931808Y-63772140D01*
X127927612Y-63763268D01*
X127924306Y-63754028D01*
X127921921Y-63744509D01*
X127920482Y-63734802D01*
X127920000Y-63725000D01*
X127920000Y-62350000D01*
X127920482Y-62340198D01*
X127921921Y-62330491D01*
X127924306Y-62320972D01*
X127927612Y-62311732D01*
X127931808Y-62302860D01*
X127936853Y-62294443D01*
X127942699Y-62286561D01*
X127949289Y-62279289D01*
X127956561Y-62272699D01*
X127964443Y-62266853D01*
X127972860Y-62261808D01*
X127981732Y-62257612D01*
X127990972Y-62254306D01*
X128000491Y-62251921D01*
X128010198Y-62250482D01*
X128020000Y-62250000D01*
X128220000Y-62250000D01*
X128229802Y-62250482D01*
G37*
G36*
X124214408Y-71140831D02*
G01*
X124231153Y-71143315D01*
X124247574Y-71147428D01*
X124263513Y-71153131D01*
X124278816Y-71160369D01*
X124293336Y-71169071D01*
X124306933Y-71179156D01*
X124319476Y-71190524D01*
X124330844Y-71203067D01*
X124340929Y-71216664D01*
X124349631Y-71231184D01*
X124356869Y-71246487D01*
X124362572Y-71262426D01*
X124366685Y-71278847D01*
X124369169Y-71295592D01*
X124370000Y-71312500D01*
X124370000Y-71657500D01*
X124369169Y-71674408D01*
X124366685Y-71691153D01*
X124362572Y-71707574D01*
X124356869Y-71723513D01*
X124349631Y-71738816D01*
X124340929Y-71753336D01*
X124330844Y-71766933D01*
X124319476Y-71779476D01*
X124306933Y-71790844D01*
X124293336Y-71800929D01*
X124278816Y-71809631D01*
X124263513Y-71816869D01*
X124247574Y-71822572D01*
X124231153Y-71826685D01*
X124214408Y-71829169D01*
X124197500Y-71830000D01*
X123802500Y-71830000D01*
X123785592Y-71829169D01*
X123768847Y-71826685D01*
X123752426Y-71822572D01*
X123736487Y-71816869D01*
X123721184Y-71809631D01*
X123706664Y-71800929D01*
X123693067Y-71790844D01*
X123680524Y-71779476D01*
X123669156Y-71766933D01*
X123659071Y-71753336D01*
X123650369Y-71738816D01*
X123643131Y-71723513D01*
X123637428Y-71707574D01*
X123633315Y-71691153D01*
X123630831Y-71674408D01*
X123630000Y-71657500D01*
X123630000Y-71312500D01*
X123630831Y-71295592D01*
X123633315Y-71278847D01*
X123637428Y-71262426D01*
X123643131Y-71246487D01*
X123650369Y-71231184D01*
X123659071Y-71216664D01*
X123669156Y-71203067D01*
X123680524Y-71190524D01*
X123693067Y-71179156D01*
X123706664Y-71169071D01*
X123721184Y-71160369D01*
X123736487Y-71153131D01*
X123752426Y-71147428D01*
X123768847Y-71143315D01*
X123785592Y-71140831D01*
X123802500Y-71140000D01*
X124197500Y-71140000D01*
X124214408Y-71140831D01*
G37*
G36*
X124214408Y-70170831D02*
G01*
X124231153Y-70173315D01*
X124247574Y-70177428D01*
X124263513Y-70183131D01*
X124278816Y-70190369D01*
X124293336Y-70199071D01*
X124306933Y-70209156D01*
X124319476Y-70220524D01*
X124330844Y-70233067D01*
X124340929Y-70246664D01*
X124349631Y-70261184D01*
X124356869Y-70276487D01*
X124362572Y-70292426D01*
X124366685Y-70308847D01*
X124369169Y-70325592D01*
X124370000Y-70342500D01*
X124370000Y-70687500D01*
X124369169Y-70704408D01*
X124366685Y-70721153D01*
X124362572Y-70737574D01*
X124356869Y-70753513D01*
X124349631Y-70768816D01*
X124340929Y-70783336D01*
X124330844Y-70796933D01*
X124319476Y-70809476D01*
X124306933Y-70820844D01*
X124293336Y-70830929D01*
X124278816Y-70839631D01*
X124263513Y-70846869D01*
X124247574Y-70852572D01*
X124231153Y-70856685D01*
X124214408Y-70859169D01*
X124197500Y-70860000D01*
X123802500Y-70860000D01*
X123785592Y-70859169D01*
X123768847Y-70856685D01*
X123752426Y-70852572D01*
X123736487Y-70846869D01*
X123721184Y-70839631D01*
X123706664Y-70830929D01*
X123693067Y-70820844D01*
X123680524Y-70809476D01*
X123669156Y-70796933D01*
X123659071Y-70783336D01*
X123650369Y-70768816D01*
X123643131Y-70753513D01*
X123637428Y-70737574D01*
X123633315Y-70721153D01*
X123630831Y-70704408D01*
X123630000Y-70687500D01*
X123630000Y-70342500D01*
X123630831Y-70325592D01*
X123633315Y-70308847D01*
X123637428Y-70292426D01*
X123643131Y-70276487D01*
X123650369Y-70261184D01*
X123659071Y-70246664D01*
X123669156Y-70233067D01*
X123680524Y-70220524D01*
X123693067Y-70209156D01*
X123706664Y-70199071D01*
X123721184Y-70190369D01*
X123736487Y-70183131D01*
X123752426Y-70177428D01*
X123768847Y-70173315D01*
X123785592Y-70170831D01*
X123802500Y-70170000D01*
X124197500Y-70170000D01*
X124214408Y-70170831D01*
G37*
G36*
X126574408Y-70730831D02*
G01*
X126591153Y-70733315D01*
X126607574Y-70737428D01*
X126623513Y-70743131D01*
X126638816Y-70750369D01*
X126653336Y-70759071D01*
X126666933Y-70769156D01*
X126679476Y-70780524D01*
X126690844Y-70793067D01*
X126700929Y-70806664D01*
X126709631Y-70821184D01*
X126716869Y-70836487D01*
X126722572Y-70852426D01*
X126726685Y-70868847D01*
X126729169Y-70885592D01*
X126730000Y-70902500D01*
X126730000Y-71297500D01*
X126729169Y-71314408D01*
X126726685Y-71331153D01*
X126722572Y-71347574D01*
X126716869Y-71363513D01*
X126709631Y-71378816D01*
X126700929Y-71393336D01*
X126690844Y-71406933D01*
X126679476Y-71419476D01*
X126666933Y-71430844D01*
X126653336Y-71440929D01*
X126638816Y-71449631D01*
X126623513Y-71456869D01*
X126607574Y-71462572D01*
X126591153Y-71466685D01*
X126574408Y-71469169D01*
X126557500Y-71470000D01*
X126212500Y-71470000D01*
X126195592Y-71469169D01*
X126178847Y-71466685D01*
X126162426Y-71462572D01*
X126146487Y-71456869D01*
X126131184Y-71449631D01*
X126116664Y-71440929D01*
X126103067Y-71430844D01*
X126090524Y-71419476D01*
X126079156Y-71406933D01*
X126069071Y-71393336D01*
X126060369Y-71378816D01*
X126053131Y-71363513D01*
X126047428Y-71347574D01*
X126043315Y-71331153D01*
X126040831Y-71314408D01*
X126040000Y-71297500D01*
X126040000Y-70902500D01*
X126040831Y-70885592D01*
X126043315Y-70868847D01*
X126047428Y-70852426D01*
X126053131Y-70836487D01*
X126060369Y-70821184D01*
X126069071Y-70806664D01*
X126079156Y-70793067D01*
X126090524Y-70780524D01*
X126103067Y-70769156D01*
X126116664Y-70759071D01*
X126131184Y-70750369D01*
X126146487Y-70743131D01*
X126162426Y-70737428D01*
X126178847Y-70733315D01*
X126195592Y-70730831D01*
X126212500Y-70730000D01*
X126557500Y-70730000D01*
X126574408Y-70730831D01*
G37*
G36*
X125604408Y-70730831D02*
G01*
X125621153Y-70733315D01*
X125637574Y-70737428D01*
X125653513Y-70743131D01*
X125668816Y-70750369D01*
X125683336Y-70759071D01*
X125696933Y-70769156D01*
X125709476Y-70780524D01*
X125720844Y-70793067D01*
X125730929Y-70806664D01*
X125739631Y-70821184D01*
X125746869Y-70836487D01*
X125752572Y-70852426D01*
X125756685Y-70868847D01*
X125759169Y-70885592D01*
X125760000Y-70902500D01*
X125760000Y-71297500D01*
X125759169Y-71314408D01*
X125756685Y-71331153D01*
X125752572Y-71347574D01*
X125746869Y-71363513D01*
X125739631Y-71378816D01*
X125730929Y-71393336D01*
X125720844Y-71406933D01*
X125709476Y-71419476D01*
X125696933Y-71430844D01*
X125683336Y-71440929D01*
X125668816Y-71449631D01*
X125653513Y-71456869D01*
X125637574Y-71462572D01*
X125621153Y-71466685D01*
X125604408Y-71469169D01*
X125587500Y-71470000D01*
X125242500Y-71470000D01*
X125225592Y-71469169D01*
X125208847Y-71466685D01*
X125192426Y-71462572D01*
X125176487Y-71456869D01*
X125161184Y-71449631D01*
X125146664Y-71440929D01*
X125133067Y-71430844D01*
X125120524Y-71419476D01*
X125109156Y-71406933D01*
X125099071Y-71393336D01*
X125090369Y-71378816D01*
X125083131Y-71363513D01*
X125077428Y-71347574D01*
X125073315Y-71331153D01*
X125070831Y-71314408D01*
X125070000Y-71297500D01*
X125070000Y-70902500D01*
X125070831Y-70885592D01*
X125073315Y-70868847D01*
X125077428Y-70852426D01*
X125083131Y-70836487D01*
X125090369Y-70821184D01*
X125099071Y-70806664D01*
X125109156Y-70793067D01*
X125120524Y-70780524D01*
X125133067Y-70769156D01*
X125146664Y-70759071D01*
X125161184Y-70750369D01*
X125176487Y-70743131D01*
X125192426Y-70737428D01*
X125208847Y-70733315D01*
X125225592Y-70730831D01*
X125242500Y-70730000D01*
X125587500Y-70730000D01*
X125604408Y-70730831D01*
G37*
G36*
X123214408Y-66170831D02*
G01*
X123231153Y-66173315D01*
X123247574Y-66177428D01*
X123263513Y-66183131D01*
X123278816Y-66190369D01*
X123293336Y-66199071D01*
X123306933Y-66209156D01*
X123319476Y-66220524D01*
X123330844Y-66233067D01*
X123340929Y-66246664D01*
X123349631Y-66261184D01*
X123356869Y-66276487D01*
X123362572Y-66292426D01*
X123366685Y-66308847D01*
X123369169Y-66325592D01*
X123370000Y-66342500D01*
X123370000Y-66687500D01*
X123369169Y-66704408D01*
X123366685Y-66721153D01*
X123362572Y-66737574D01*
X123356869Y-66753513D01*
X123349631Y-66768816D01*
X123340929Y-66783336D01*
X123330844Y-66796933D01*
X123319476Y-66809476D01*
X123306933Y-66820844D01*
X123293336Y-66830929D01*
X123278816Y-66839631D01*
X123263513Y-66846869D01*
X123247574Y-66852572D01*
X123231153Y-66856685D01*
X123214408Y-66859169D01*
X123197500Y-66860000D01*
X122802500Y-66860000D01*
X122785592Y-66859169D01*
X122768847Y-66856685D01*
X122752426Y-66852572D01*
X122736487Y-66846869D01*
X122721184Y-66839631D01*
X122706664Y-66830929D01*
X122693067Y-66820844D01*
X122680524Y-66809476D01*
X122669156Y-66796933D01*
X122659071Y-66783336D01*
X122650369Y-66768816D01*
X122643131Y-66753513D01*
X122637428Y-66737574D01*
X122633315Y-66721153D01*
X122630831Y-66704408D01*
X122630000Y-66687500D01*
X122630000Y-66342500D01*
X122630831Y-66325592D01*
X122633315Y-66308847D01*
X122637428Y-66292426D01*
X122643131Y-66276487D01*
X122650369Y-66261184D01*
X122659071Y-66246664D01*
X122669156Y-66233067D01*
X122680524Y-66220524D01*
X122693067Y-66209156D01*
X122706664Y-66199071D01*
X122721184Y-66190369D01*
X122736487Y-66183131D01*
X122752426Y-66177428D01*
X122768847Y-66173315D01*
X122785592Y-66170831D01*
X122802500Y-66170000D01*
X123197500Y-66170000D01*
X123214408Y-66170831D01*
G37*
G36*
X123214408Y-67140831D02*
G01*
X123231153Y-67143315D01*
X123247574Y-67147428D01*
X123263513Y-67153131D01*
X123278816Y-67160369D01*
X123293336Y-67169071D01*
X123306933Y-67179156D01*
X123319476Y-67190524D01*
X123330844Y-67203067D01*
X123340929Y-67216664D01*
X123349631Y-67231184D01*
X123356869Y-67246487D01*
X123362572Y-67262426D01*
X123366685Y-67278847D01*
X123369169Y-67295592D01*
X123370000Y-67312500D01*
X123370000Y-67657500D01*
X123369169Y-67674408D01*
X123366685Y-67691153D01*
X123362572Y-67707574D01*
X123356869Y-67723513D01*
X123349631Y-67738816D01*
X123340929Y-67753336D01*
X123330844Y-67766933D01*
X123319476Y-67779476D01*
X123306933Y-67790844D01*
X123293336Y-67800929D01*
X123278816Y-67809631D01*
X123263513Y-67816869D01*
X123247574Y-67822572D01*
X123231153Y-67826685D01*
X123214408Y-67829169D01*
X123197500Y-67830000D01*
X122802500Y-67830000D01*
X122785592Y-67829169D01*
X122768847Y-67826685D01*
X122752426Y-67822572D01*
X122736487Y-67816869D01*
X122721184Y-67809631D01*
X122706664Y-67800929D01*
X122693067Y-67790844D01*
X122680524Y-67779476D01*
X122669156Y-67766933D01*
X122659071Y-67753336D01*
X122650369Y-67738816D01*
X122643131Y-67723513D01*
X122637428Y-67707574D01*
X122633315Y-67691153D01*
X122630831Y-67674408D01*
X122630000Y-67657500D01*
X122630000Y-67312500D01*
X122630831Y-67295592D01*
X122633315Y-67278847D01*
X122637428Y-67262426D01*
X122643131Y-67246487D01*
X122650369Y-67231184D01*
X122659071Y-67216664D01*
X122669156Y-67203067D01*
X122680524Y-67190524D01*
X122693067Y-67179156D01*
X122706664Y-67169071D01*
X122721184Y-67160369D01*
X122736487Y-67153131D01*
X122752426Y-67147428D01*
X122768847Y-67143315D01*
X122785592Y-67140831D01*
X122802500Y-67140000D01*
X123197500Y-67140000D01*
X123214408Y-67140831D01*
G37*
G36*
X124214408Y-67140831D02*
G01*
X124231153Y-67143315D01*
X124247574Y-67147428D01*
X124263513Y-67153131D01*
X124278816Y-67160369D01*
X124293336Y-67169071D01*
X124306933Y-67179156D01*
X124319476Y-67190524D01*
X124330844Y-67203067D01*
X124340929Y-67216664D01*
X124349631Y-67231184D01*
X124356869Y-67246487D01*
X124362572Y-67262426D01*
X124366685Y-67278847D01*
X124369169Y-67295592D01*
X124370000Y-67312500D01*
X124370000Y-67657500D01*
X124369169Y-67674408D01*
X124366685Y-67691153D01*
X124362572Y-67707574D01*
X124356869Y-67723513D01*
X124349631Y-67738816D01*
X124340929Y-67753336D01*
X124330844Y-67766933D01*
X124319476Y-67779476D01*
X124306933Y-67790844D01*
X124293336Y-67800929D01*
X124278816Y-67809631D01*
X124263513Y-67816869D01*
X124247574Y-67822572D01*
X124231153Y-67826685D01*
X124214408Y-67829169D01*
X124197500Y-67830000D01*
X123802500Y-67830000D01*
X123785592Y-67829169D01*
X123768847Y-67826685D01*
X123752426Y-67822572D01*
X123736487Y-67816869D01*
X123721184Y-67809631D01*
X123706664Y-67800929D01*
X123693067Y-67790844D01*
X123680524Y-67779476D01*
X123669156Y-67766933D01*
X123659071Y-67753336D01*
X123650369Y-67738816D01*
X123643131Y-67723513D01*
X123637428Y-67707574D01*
X123633315Y-67691153D01*
X123630831Y-67674408D01*
X123630000Y-67657500D01*
X123630000Y-67312500D01*
X123630831Y-67295592D01*
X123633315Y-67278847D01*
X123637428Y-67262426D01*
X123643131Y-67246487D01*
X123650369Y-67231184D01*
X123659071Y-67216664D01*
X123669156Y-67203067D01*
X123680524Y-67190524D01*
X123693067Y-67179156D01*
X123706664Y-67169071D01*
X123721184Y-67160369D01*
X123736487Y-67153131D01*
X123752426Y-67147428D01*
X123768847Y-67143315D01*
X123785592Y-67140831D01*
X123802500Y-67140000D01*
X124197500Y-67140000D01*
X124214408Y-67140831D01*
G37*
G36*
X124214408Y-66170831D02*
G01*
X124231153Y-66173315D01*
X124247574Y-66177428D01*
X124263513Y-66183131D01*
X124278816Y-66190369D01*
X124293336Y-66199071D01*
X124306933Y-66209156D01*
X124319476Y-66220524D01*
X124330844Y-66233067D01*
X124340929Y-66246664D01*
X124349631Y-66261184D01*
X124356869Y-66276487D01*
X124362572Y-66292426D01*
X124366685Y-66308847D01*
X124369169Y-66325592D01*
X124370000Y-66342500D01*
X124370000Y-66687500D01*
X124369169Y-66704408D01*
X124366685Y-66721153D01*
X124362572Y-66737574D01*
X124356869Y-66753513D01*
X124349631Y-66768816D01*
X124340929Y-66783336D01*
X124330844Y-66796933D01*
X124319476Y-66809476D01*
X124306933Y-66820844D01*
X124293336Y-66830929D01*
X124278816Y-66839631D01*
X124263513Y-66846869D01*
X124247574Y-66852572D01*
X124231153Y-66856685D01*
X124214408Y-66859169D01*
X124197500Y-66860000D01*
X123802500Y-66860000D01*
X123785592Y-66859169D01*
X123768847Y-66856685D01*
X123752426Y-66852572D01*
X123736487Y-66846869D01*
X123721184Y-66839631D01*
X123706664Y-66830929D01*
X123693067Y-66820844D01*
X123680524Y-66809476D01*
X123669156Y-66796933D01*
X123659071Y-66783336D01*
X123650369Y-66768816D01*
X123643131Y-66753513D01*
X123637428Y-66737574D01*
X123633315Y-66721153D01*
X123630831Y-66704408D01*
X123630000Y-66687500D01*
X123630000Y-66342500D01*
X123630831Y-66325592D01*
X123633315Y-66308847D01*
X123637428Y-66292426D01*
X123643131Y-66276487D01*
X123650369Y-66261184D01*
X123659071Y-66246664D01*
X123669156Y-66233067D01*
X123680524Y-66220524D01*
X123693067Y-66209156D01*
X123706664Y-66199071D01*
X123721184Y-66190369D01*
X123736487Y-66183131D01*
X123752426Y-66177428D01*
X123768847Y-66173315D01*
X123785592Y-66170831D01*
X123802500Y-66170000D01*
X124197500Y-66170000D01*
X124214408Y-66170831D01*
G37*
G36*
X122074408Y-63830831D02*
G01*
X122091153Y-63833315D01*
X122107574Y-63837428D01*
X122123513Y-63843131D01*
X122138816Y-63850369D01*
X122153336Y-63859071D01*
X122166933Y-63869156D01*
X122179476Y-63880524D01*
X122190844Y-63893067D01*
X122200929Y-63906664D01*
X122209631Y-63921184D01*
X122216869Y-63936487D01*
X122222572Y-63952426D01*
X122226685Y-63968847D01*
X122229169Y-63985592D01*
X122230000Y-64002500D01*
X122230000Y-64397500D01*
X122229169Y-64414408D01*
X122226685Y-64431153D01*
X122222572Y-64447574D01*
X122216869Y-64463513D01*
X122209631Y-64478816D01*
X122200929Y-64493336D01*
X122190844Y-64506933D01*
X122179476Y-64519476D01*
X122166933Y-64530844D01*
X122153336Y-64540929D01*
X122138816Y-64549631D01*
X122123513Y-64556869D01*
X122107574Y-64562572D01*
X122091153Y-64566685D01*
X122074408Y-64569169D01*
X122057500Y-64570000D01*
X121712500Y-64570000D01*
X121695592Y-64569169D01*
X121678847Y-64566685D01*
X121662426Y-64562572D01*
X121646487Y-64556869D01*
X121631184Y-64549631D01*
X121616664Y-64540929D01*
X121603067Y-64530844D01*
X121590524Y-64519476D01*
X121579156Y-64506933D01*
X121569071Y-64493336D01*
X121560369Y-64478816D01*
X121553131Y-64463513D01*
X121547428Y-64447574D01*
X121543315Y-64431153D01*
X121540831Y-64414408D01*
X121540000Y-64397500D01*
X121540000Y-64002500D01*
X121540831Y-63985592D01*
X121543315Y-63968847D01*
X121547428Y-63952426D01*
X121553131Y-63936487D01*
X121560369Y-63921184D01*
X121569071Y-63906664D01*
X121579156Y-63893067D01*
X121590524Y-63880524D01*
X121603067Y-63869156D01*
X121616664Y-63859071D01*
X121631184Y-63850369D01*
X121646487Y-63843131D01*
X121662426Y-63837428D01*
X121678847Y-63833315D01*
X121695592Y-63830831D01*
X121712500Y-63830000D01*
X122057500Y-63830000D01*
X122074408Y-63830831D01*
G37*
G36*
X121104408Y-63830831D02*
G01*
X121121153Y-63833315D01*
X121137574Y-63837428D01*
X121153513Y-63843131D01*
X121168816Y-63850369D01*
X121183336Y-63859071D01*
X121196933Y-63869156D01*
X121209476Y-63880524D01*
X121220844Y-63893067D01*
X121230929Y-63906664D01*
X121239631Y-63921184D01*
X121246869Y-63936487D01*
X121252572Y-63952426D01*
X121256685Y-63968847D01*
X121259169Y-63985592D01*
X121260000Y-64002500D01*
X121260000Y-64397500D01*
X121259169Y-64414408D01*
X121256685Y-64431153D01*
X121252572Y-64447574D01*
X121246869Y-64463513D01*
X121239631Y-64478816D01*
X121230929Y-64493336D01*
X121220844Y-64506933D01*
X121209476Y-64519476D01*
X121196933Y-64530844D01*
X121183336Y-64540929D01*
X121168816Y-64549631D01*
X121153513Y-64556869D01*
X121137574Y-64562572D01*
X121121153Y-64566685D01*
X121104408Y-64569169D01*
X121087500Y-64570000D01*
X120742500Y-64570000D01*
X120725592Y-64569169D01*
X120708847Y-64566685D01*
X120692426Y-64562572D01*
X120676487Y-64556869D01*
X120661184Y-64549631D01*
X120646664Y-64540929D01*
X120633067Y-64530844D01*
X120620524Y-64519476D01*
X120609156Y-64506933D01*
X120599071Y-64493336D01*
X120590369Y-64478816D01*
X120583131Y-64463513D01*
X120577428Y-64447574D01*
X120573315Y-64431153D01*
X120570831Y-64414408D01*
X120570000Y-64397500D01*
X120570000Y-64002500D01*
X120570831Y-63985592D01*
X120573315Y-63968847D01*
X120577428Y-63952426D01*
X120583131Y-63936487D01*
X120590369Y-63921184D01*
X120599071Y-63906664D01*
X120609156Y-63893067D01*
X120620524Y-63880524D01*
X120633067Y-63869156D01*
X120646664Y-63859071D01*
X120661184Y-63850369D01*
X120676487Y-63843131D01*
X120692426Y-63837428D01*
X120708847Y-63833315D01*
X120725592Y-63830831D01*
X120742500Y-63830000D01*
X121087500Y-63830000D01*
X121104408Y-63830831D01*
G37*
G36*
X125454408Y-67380831D02*
G01*
X125471153Y-67383315D01*
X125487574Y-67387428D01*
X125503513Y-67393131D01*
X125518816Y-67400369D01*
X125533336Y-67409071D01*
X125546933Y-67419156D01*
X125559476Y-67430524D01*
X125570844Y-67443067D01*
X125580929Y-67456664D01*
X125589631Y-67471184D01*
X125596869Y-67486487D01*
X125602572Y-67502426D01*
X125606685Y-67518847D01*
X125609169Y-67535592D01*
X125610000Y-67552500D01*
X125610000Y-67897500D01*
X125609169Y-67914408D01*
X125606685Y-67931153D01*
X125602572Y-67947574D01*
X125596869Y-67963513D01*
X125589631Y-67978816D01*
X125580929Y-67993336D01*
X125570844Y-68006933D01*
X125559476Y-68019476D01*
X125546933Y-68030844D01*
X125533336Y-68040929D01*
X125518816Y-68049631D01*
X125503513Y-68056869D01*
X125487574Y-68062572D01*
X125471153Y-68066685D01*
X125454408Y-68069169D01*
X125437500Y-68070000D01*
X125042500Y-68070000D01*
X125025592Y-68069169D01*
X125008847Y-68066685D01*
X124992426Y-68062572D01*
X124976487Y-68056869D01*
X124961184Y-68049631D01*
X124946664Y-68040929D01*
X124933067Y-68030844D01*
X124920524Y-68019476D01*
X124909156Y-68006933D01*
X124899071Y-67993336D01*
X124890369Y-67978816D01*
X124883131Y-67963513D01*
X124877428Y-67947574D01*
X124873315Y-67931153D01*
X124870831Y-67914408D01*
X124870000Y-67897500D01*
X124870000Y-67552500D01*
X124870831Y-67535592D01*
X124873315Y-67518847D01*
X124877428Y-67502426D01*
X124883131Y-67486487D01*
X124890369Y-67471184D01*
X124899071Y-67456664D01*
X124909156Y-67443067D01*
X124920524Y-67430524D01*
X124933067Y-67419156D01*
X124946664Y-67409071D01*
X124961184Y-67400369D01*
X124976487Y-67393131D01*
X124992426Y-67387428D01*
X125008847Y-67383315D01*
X125025592Y-67380831D01*
X125042500Y-67380000D01*
X125437500Y-67380000D01*
X125454408Y-67380831D01*
G37*
G36*
X125454408Y-68350831D02*
G01*
X125471153Y-68353315D01*
X125487574Y-68357428D01*
X125503513Y-68363131D01*
X125518816Y-68370369D01*
X125533336Y-68379071D01*
X125546933Y-68389156D01*
X125559476Y-68400524D01*
X125570844Y-68413067D01*
X125580929Y-68426664D01*
X125589631Y-68441184D01*
X125596869Y-68456487D01*
X125602572Y-68472426D01*
X125606685Y-68488847D01*
X125609169Y-68505592D01*
X125610000Y-68522500D01*
X125610000Y-68867500D01*
X125609169Y-68884408D01*
X125606685Y-68901153D01*
X125602572Y-68917574D01*
X125596869Y-68933513D01*
X125589631Y-68948816D01*
X125580929Y-68963336D01*
X125570844Y-68976933D01*
X125559476Y-68989476D01*
X125546933Y-69000844D01*
X125533336Y-69010929D01*
X125518816Y-69019631D01*
X125503513Y-69026869D01*
X125487574Y-69032572D01*
X125471153Y-69036685D01*
X125454408Y-69039169D01*
X125437500Y-69040000D01*
X125042500Y-69040000D01*
X125025592Y-69039169D01*
X125008847Y-69036685D01*
X124992426Y-69032572D01*
X124976487Y-69026869D01*
X124961184Y-69019631D01*
X124946664Y-69010929D01*
X124933067Y-69000844D01*
X124920524Y-68989476D01*
X124909156Y-68976933D01*
X124899071Y-68963336D01*
X124890369Y-68948816D01*
X124883131Y-68933513D01*
X124877428Y-68917574D01*
X124873315Y-68901153D01*
X124870831Y-68884408D01*
X124870000Y-68867500D01*
X124870000Y-68522500D01*
X124870831Y-68505592D01*
X124873315Y-68488847D01*
X124877428Y-68472426D01*
X124883131Y-68456487D01*
X124890369Y-68441184D01*
X124899071Y-68426664D01*
X124909156Y-68413067D01*
X124920524Y-68400524D01*
X124933067Y-68389156D01*
X124946664Y-68379071D01*
X124961184Y-68370369D01*
X124976487Y-68363131D01*
X124992426Y-68357428D01*
X125008847Y-68353315D01*
X125025592Y-68350831D01*
X125042500Y-68350000D01*
X125437500Y-68350000D01*
X125454408Y-68350831D01*
G37*
G36*
X127374408Y-62530831D02*
G01*
X127391153Y-62533315D01*
X127407574Y-62537428D01*
X127423513Y-62543131D01*
X127438816Y-62550369D01*
X127453336Y-62559071D01*
X127466933Y-62569156D01*
X127479476Y-62580524D01*
X127490844Y-62593067D01*
X127500929Y-62606664D01*
X127509631Y-62621184D01*
X127516869Y-62636487D01*
X127522572Y-62652426D01*
X127526685Y-62668847D01*
X127529169Y-62685592D01*
X127530000Y-62702500D01*
X127530000Y-63097500D01*
X127529169Y-63114408D01*
X127526685Y-63131153D01*
X127522572Y-63147574D01*
X127516869Y-63163513D01*
X127509631Y-63178816D01*
X127500929Y-63193336D01*
X127490844Y-63206933D01*
X127479476Y-63219476D01*
X127466933Y-63230844D01*
X127453336Y-63240929D01*
X127438816Y-63249631D01*
X127423513Y-63256869D01*
X127407574Y-63262572D01*
X127391153Y-63266685D01*
X127374408Y-63269169D01*
X127357500Y-63270000D01*
X127012500Y-63270000D01*
X126995592Y-63269169D01*
X126978847Y-63266685D01*
X126962426Y-63262572D01*
X126946487Y-63256869D01*
X126931184Y-63249631D01*
X126916664Y-63240929D01*
X126903067Y-63230844D01*
X126890524Y-63219476D01*
X126879156Y-63206933D01*
X126869071Y-63193336D01*
X126860369Y-63178816D01*
X126853131Y-63163513D01*
X126847428Y-63147574D01*
X126843315Y-63131153D01*
X126840831Y-63114408D01*
X126840000Y-63097500D01*
X126840000Y-62702500D01*
X126840831Y-62685592D01*
X126843315Y-62668847D01*
X126847428Y-62652426D01*
X126853131Y-62636487D01*
X126860369Y-62621184D01*
X126869071Y-62606664D01*
X126879156Y-62593067D01*
X126890524Y-62580524D01*
X126903067Y-62569156D01*
X126916664Y-62559071D01*
X126931184Y-62550369D01*
X126946487Y-62543131D01*
X126962426Y-62537428D01*
X126978847Y-62533315D01*
X126995592Y-62530831D01*
X127012500Y-62530000D01*
X127357500Y-62530000D01*
X127374408Y-62530831D01*
G37*
G36*
X126404408Y-62530831D02*
G01*
X126421153Y-62533315D01*
X126437574Y-62537428D01*
X126453513Y-62543131D01*
X126468816Y-62550369D01*
X126483336Y-62559071D01*
X126496933Y-62569156D01*
X126509476Y-62580524D01*
X126520844Y-62593067D01*
X126530929Y-62606664D01*
X126539631Y-62621184D01*
X126546869Y-62636487D01*
X126552572Y-62652426D01*
X126556685Y-62668847D01*
X126559169Y-62685592D01*
X126560000Y-62702500D01*
X126560000Y-63097500D01*
X126559169Y-63114408D01*
X126556685Y-63131153D01*
X126552572Y-63147574D01*
X126546869Y-63163513D01*
X126539631Y-63178816D01*
X126530929Y-63193336D01*
X126520844Y-63206933D01*
X126509476Y-63219476D01*
X126496933Y-63230844D01*
X126483336Y-63240929D01*
X126468816Y-63249631D01*
X126453513Y-63256869D01*
X126437574Y-63262572D01*
X126421153Y-63266685D01*
X126404408Y-63269169D01*
X126387500Y-63270000D01*
X126042500Y-63270000D01*
X126025592Y-63269169D01*
X126008847Y-63266685D01*
X125992426Y-63262572D01*
X125976487Y-63256869D01*
X125961184Y-63249631D01*
X125946664Y-63240929D01*
X125933067Y-63230844D01*
X125920524Y-63219476D01*
X125909156Y-63206933D01*
X125899071Y-63193336D01*
X125890369Y-63178816D01*
X125883131Y-63163513D01*
X125877428Y-63147574D01*
X125873315Y-63131153D01*
X125870831Y-63114408D01*
X125870000Y-63097500D01*
X125870000Y-62702500D01*
X125870831Y-62685592D01*
X125873315Y-62668847D01*
X125877428Y-62652426D01*
X125883131Y-62636487D01*
X125890369Y-62621184D01*
X125899071Y-62606664D01*
X125909156Y-62593067D01*
X125920524Y-62580524D01*
X125933067Y-62569156D01*
X125946664Y-62559071D01*
X125961184Y-62550369D01*
X125976487Y-62543131D01*
X125992426Y-62537428D01*
X126008847Y-62533315D01*
X126025592Y-62530831D01*
X126042500Y-62530000D01*
X126387500Y-62530000D01*
X126404408Y-62530831D01*
G37*
G36*
X123274408Y-70830831D02*
G01*
X123291153Y-70833315D01*
X123307574Y-70837428D01*
X123323513Y-70843131D01*
X123338816Y-70850369D01*
X123353336Y-70859071D01*
X123366933Y-70869156D01*
X123379476Y-70880524D01*
X123390844Y-70893067D01*
X123400929Y-70906664D01*
X123409631Y-70921184D01*
X123416869Y-70936487D01*
X123422572Y-70952426D01*
X123426685Y-70968847D01*
X123429169Y-70985592D01*
X123430000Y-71002500D01*
X123430000Y-71397500D01*
X123429169Y-71414408D01*
X123426685Y-71431153D01*
X123422572Y-71447574D01*
X123416869Y-71463513D01*
X123409631Y-71478816D01*
X123400929Y-71493336D01*
X123390844Y-71506933D01*
X123379476Y-71519476D01*
X123366933Y-71530844D01*
X123353336Y-71540929D01*
X123338816Y-71549631D01*
X123323513Y-71556869D01*
X123307574Y-71562572D01*
X123291153Y-71566685D01*
X123274408Y-71569169D01*
X123257500Y-71570000D01*
X122912500Y-71570000D01*
X122895592Y-71569169D01*
X122878847Y-71566685D01*
X122862426Y-71562572D01*
X122846487Y-71556869D01*
X122831184Y-71549631D01*
X122816664Y-71540929D01*
X122803067Y-71530844D01*
X122790524Y-71519476D01*
X122779156Y-71506933D01*
X122769071Y-71493336D01*
X122760369Y-71478816D01*
X122753131Y-71463513D01*
X122747428Y-71447574D01*
X122743315Y-71431153D01*
X122740831Y-71414408D01*
X122740000Y-71397500D01*
X122740000Y-71002500D01*
X122740831Y-70985592D01*
X122743315Y-70968847D01*
X122747428Y-70952426D01*
X122753131Y-70936487D01*
X122760369Y-70921184D01*
X122769071Y-70906664D01*
X122779156Y-70893067D01*
X122790524Y-70880524D01*
X122803067Y-70869156D01*
X122816664Y-70859071D01*
X122831184Y-70850369D01*
X122846487Y-70843131D01*
X122862426Y-70837428D01*
X122878847Y-70833315D01*
X122895592Y-70830831D01*
X122912500Y-70830000D01*
X123257500Y-70830000D01*
X123274408Y-70830831D01*
G37*
G36*
X122304408Y-70830831D02*
G01*
X122321153Y-70833315D01*
X122337574Y-70837428D01*
X122353513Y-70843131D01*
X122368816Y-70850369D01*
X122383336Y-70859071D01*
X122396933Y-70869156D01*
X122409476Y-70880524D01*
X122420844Y-70893067D01*
X122430929Y-70906664D01*
X122439631Y-70921184D01*
X122446869Y-70936487D01*
X122452572Y-70952426D01*
X122456685Y-70968847D01*
X122459169Y-70985592D01*
X122460000Y-71002500D01*
X122460000Y-71397500D01*
X122459169Y-71414408D01*
X122456685Y-71431153D01*
X122452572Y-71447574D01*
X122446869Y-71463513D01*
X122439631Y-71478816D01*
X122430929Y-71493336D01*
X122420844Y-71506933D01*
X122409476Y-71519476D01*
X122396933Y-71530844D01*
X122383336Y-71540929D01*
X122368816Y-71549631D01*
X122353513Y-71556869D01*
X122337574Y-71562572D01*
X122321153Y-71566685D01*
X122304408Y-71569169D01*
X122287500Y-71570000D01*
X121942500Y-71570000D01*
X121925592Y-71569169D01*
X121908847Y-71566685D01*
X121892426Y-71562572D01*
X121876487Y-71556869D01*
X121861184Y-71549631D01*
X121846664Y-71540929D01*
X121833067Y-71530844D01*
X121820524Y-71519476D01*
X121809156Y-71506933D01*
X121799071Y-71493336D01*
X121790369Y-71478816D01*
X121783131Y-71463513D01*
X121777428Y-71447574D01*
X121773315Y-71431153D01*
X121770831Y-71414408D01*
X121770000Y-71397500D01*
X121770000Y-71002500D01*
X121770831Y-70985592D01*
X121773315Y-70968847D01*
X121777428Y-70952426D01*
X121783131Y-70936487D01*
X121790369Y-70921184D01*
X121799071Y-70906664D01*
X121809156Y-70893067D01*
X121820524Y-70880524D01*
X121833067Y-70869156D01*
X121846664Y-70859071D01*
X121861184Y-70850369D01*
X121876487Y-70843131D01*
X121892426Y-70837428D01*
X121908847Y-70833315D01*
X121925592Y-70830831D01*
X121942500Y-70830000D01*
X122287500Y-70830000D01*
X122304408Y-70830831D01*
G37*
G36*
X135414408Y-62270831D02*
G01*
X135431153Y-62273315D01*
X135447574Y-62277428D01*
X135463513Y-62283131D01*
X135478816Y-62290369D01*
X135493336Y-62299071D01*
X135506933Y-62309156D01*
X135519476Y-62320524D01*
X135530844Y-62333067D01*
X135540929Y-62346664D01*
X135549631Y-62361184D01*
X135556869Y-62376487D01*
X135562572Y-62392426D01*
X135566685Y-62408847D01*
X135569169Y-62425592D01*
X135570000Y-62442500D01*
X135570000Y-62787500D01*
X135569169Y-62804408D01*
X135566685Y-62821153D01*
X135562572Y-62837574D01*
X135556869Y-62853513D01*
X135549631Y-62868816D01*
X135540929Y-62883336D01*
X135530844Y-62896933D01*
X135519476Y-62909476D01*
X135506933Y-62920844D01*
X135493336Y-62930929D01*
X135478816Y-62939631D01*
X135463513Y-62946869D01*
X135447574Y-62952572D01*
X135431153Y-62956685D01*
X135414408Y-62959169D01*
X135397500Y-62960000D01*
X135002500Y-62960000D01*
X134985592Y-62959169D01*
X134968847Y-62956685D01*
X134952426Y-62952572D01*
X134936487Y-62946869D01*
X134921184Y-62939631D01*
X134906664Y-62930929D01*
X134893067Y-62920844D01*
X134880524Y-62909476D01*
X134869156Y-62896933D01*
X134859071Y-62883336D01*
X134850369Y-62868816D01*
X134843131Y-62853513D01*
X134837428Y-62837574D01*
X134833315Y-62821153D01*
X134830831Y-62804408D01*
X134830000Y-62787500D01*
X134830000Y-62442500D01*
X134830831Y-62425592D01*
X134833315Y-62408847D01*
X134837428Y-62392426D01*
X134843131Y-62376487D01*
X134850369Y-62361184D01*
X134859071Y-62346664D01*
X134869156Y-62333067D01*
X134880524Y-62320524D01*
X134893067Y-62309156D01*
X134906664Y-62299071D01*
X134921184Y-62290369D01*
X134936487Y-62283131D01*
X134952426Y-62277428D01*
X134968847Y-62273315D01*
X134985592Y-62270831D01*
X135002500Y-62270000D01*
X135397500Y-62270000D01*
X135414408Y-62270831D01*
G37*
G36*
X135414408Y-63240831D02*
G01*
X135431153Y-63243315D01*
X135447574Y-63247428D01*
X135463513Y-63253131D01*
X135478816Y-63260369D01*
X135493336Y-63269071D01*
X135506933Y-63279156D01*
X135519476Y-63290524D01*
X135530844Y-63303067D01*
X135540929Y-63316664D01*
X135549631Y-63331184D01*
X135556869Y-63346487D01*
X135562572Y-63362426D01*
X135566685Y-63378847D01*
X135569169Y-63395592D01*
X135570000Y-63412500D01*
X135570000Y-63757500D01*
X135569169Y-63774408D01*
X135566685Y-63791153D01*
X135562572Y-63807574D01*
X135556869Y-63823513D01*
X135549631Y-63838816D01*
X135540929Y-63853336D01*
X135530844Y-63866933D01*
X135519476Y-63879476D01*
X135506933Y-63890844D01*
X135493336Y-63900929D01*
X135478816Y-63909631D01*
X135463513Y-63916869D01*
X135447574Y-63922572D01*
X135431153Y-63926685D01*
X135414408Y-63929169D01*
X135397500Y-63930000D01*
X135002500Y-63930000D01*
X134985592Y-63929169D01*
X134968847Y-63926685D01*
X134952426Y-63922572D01*
X134936487Y-63916869D01*
X134921184Y-63909631D01*
X134906664Y-63900929D01*
X134893067Y-63890844D01*
X134880524Y-63879476D01*
X134869156Y-63866933D01*
X134859071Y-63853336D01*
X134850369Y-63838816D01*
X134843131Y-63823513D01*
X134837428Y-63807574D01*
X134833315Y-63791153D01*
X134830831Y-63774408D01*
X134830000Y-63757500D01*
X134830000Y-63412500D01*
X134830831Y-63395592D01*
X134833315Y-63378847D01*
X134837428Y-63362426D01*
X134843131Y-63346487D01*
X134850369Y-63331184D01*
X134859071Y-63316664D01*
X134869156Y-63303067D01*
X134880524Y-63290524D01*
X134893067Y-63279156D01*
X134906664Y-63269071D01*
X134921184Y-63260369D01*
X134936487Y-63253131D01*
X134952426Y-63247428D01*
X134968847Y-63243315D01*
X134985592Y-63240831D01*
X135002500Y-63240000D01*
X135397500Y-63240000D01*
X135414408Y-63240831D01*
G37*
D11*
X117200000Y-63300000D03*
X117200000Y-71700000D03*
D12*
X137375000Y-66200000D03*
X137375000Y-65550000D03*
X137375000Y-66850000D03*
X137375000Y-64900000D03*
X137375000Y-67500000D03*
D13*
X137125000Y-69000000D03*
X137125000Y-63400000D03*
D14*
X139275000Y-66200000D03*
D10*
G36*
X124047252Y-72050602D02*
G01*
X124059386Y-72052402D01*
X124071286Y-72055382D01*
X124082835Y-72059515D01*
X124093925Y-72064760D01*
X124104446Y-72071066D01*
X124114299Y-72078374D01*
X124123388Y-72086612D01*
X124131626Y-72095701D01*
X124138934Y-72105554D01*
X124145240Y-72116075D01*
X124150485Y-72127165D01*
X124154618Y-72138714D01*
X124157598Y-72150614D01*
X124159398Y-72162748D01*
X124160000Y-72175000D01*
X124160000Y-72425000D01*
X124159398Y-72437252D01*
X124157598Y-72449386D01*
X124154618Y-72461286D01*
X124150485Y-72472835D01*
X124145240Y-72483925D01*
X124138934Y-72494446D01*
X124131626Y-72504299D01*
X124123388Y-72513388D01*
X124114299Y-72521626D01*
X124104446Y-72528934D01*
X124093925Y-72535240D01*
X124082835Y-72540485D01*
X124071286Y-72544618D01*
X124059386Y-72547598D01*
X124047252Y-72549398D01*
X124035000Y-72550000D01*
X123725000Y-72550000D01*
X123712748Y-72549398D01*
X123700614Y-72547598D01*
X123688714Y-72544618D01*
X123677165Y-72540485D01*
X123666075Y-72535240D01*
X123655554Y-72528934D01*
X123645701Y-72521626D01*
X123636612Y-72513388D01*
X123628374Y-72504299D01*
X123621066Y-72494446D01*
X123614760Y-72483925D01*
X123609515Y-72472835D01*
X123605382Y-72461286D01*
X123602402Y-72449386D01*
X123600602Y-72437252D01*
X123600000Y-72425000D01*
X123600000Y-72175000D01*
X123600602Y-72162748D01*
X123602402Y-72150614D01*
X123605382Y-72138714D01*
X123609515Y-72127165D01*
X123614760Y-72116075D01*
X123621066Y-72105554D01*
X123628374Y-72095701D01*
X123636612Y-72086612D01*
X123645701Y-72078374D01*
X123655554Y-72071066D01*
X123666075Y-72064760D01*
X123677165Y-72059515D01*
X123688714Y-72055382D01*
X123700614Y-72052402D01*
X123712748Y-72050602D01*
X123725000Y-72050000D01*
X124035000Y-72050000D01*
X124047252Y-72050602D01*
G37*
G36*
X124687252Y-72050602D02*
G01*
X124699386Y-72052402D01*
X124711286Y-72055382D01*
X124722835Y-72059515D01*
X124733925Y-72064760D01*
X124744446Y-72071066D01*
X124754299Y-72078374D01*
X124763388Y-72086612D01*
X124771626Y-72095701D01*
X124778934Y-72105554D01*
X124785240Y-72116075D01*
X124790485Y-72127165D01*
X124794618Y-72138714D01*
X124797598Y-72150614D01*
X124799398Y-72162748D01*
X124800000Y-72175000D01*
X124800000Y-72425000D01*
X124799398Y-72437252D01*
X124797598Y-72449386D01*
X124794618Y-72461286D01*
X124790485Y-72472835D01*
X124785240Y-72483925D01*
X124778934Y-72494446D01*
X124771626Y-72504299D01*
X124763388Y-72513388D01*
X124754299Y-72521626D01*
X124744446Y-72528934D01*
X124733925Y-72535240D01*
X124722835Y-72540485D01*
X124711286Y-72544618D01*
X124699386Y-72547598D01*
X124687252Y-72549398D01*
X124675000Y-72550000D01*
X124365000Y-72550000D01*
X124352748Y-72549398D01*
X124340614Y-72547598D01*
X124328714Y-72544618D01*
X124317165Y-72540485D01*
X124306075Y-72535240D01*
X124295554Y-72528934D01*
X124285701Y-72521626D01*
X124276612Y-72513388D01*
X124268374Y-72504299D01*
X124261066Y-72494446D01*
X124254760Y-72483925D01*
X124249515Y-72472835D01*
X124245382Y-72461286D01*
X124242402Y-72449386D01*
X124240602Y-72437252D01*
X124240000Y-72425000D01*
X124240000Y-72175000D01*
X124240602Y-72162748D01*
X124242402Y-72150614D01*
X124245382Y-72138714D01*
X124249515Y-72127165D01*
X124254760Y-72116075D01*
X124261066Y-72105554D01*
X124268374Y-72095701D01*
X124276612Y-72086612D01*
X124285701Y-72078374D01*
X124295554Y-72071066D01*
X124306075Y-72064760D01*
X124317165Y-72059515D01*
X124328714Y-72055382D01*
X124340614Y-72052402D01*
X124352748Y-72050602D01*
X124365000Y-72050000D01*
X124675000Y-72050000D01*
X124687252Y-72050602D01*
G37*
G36*
X115714408Y-67640831D02*
G01*
X115731153Y-67643315D01*
X115747574Y-67647428D01*
X115763513Y-67653131D01*
X115778816Y-67660369D01*
X115793336Y-67669071D01*
X115806933Y-67679156D01*
X115819476Y-67690524D01*
X115830844Y-67703067D01*
X115840929Y-67716664D01*
X115849631Y-67731184D01*
X115856869Y-67746487D01*
X115862572Y-67762426D01*
X115866685Y-67778847D01*
X115869169Y-67795592D01*
X115870000Y-67812500D01*
X115870000Y-68157500D01*
X115869169Y-68174408D01*
X115866685Y-68191153D01*
X115862572Y-68207574D01*
X115856869Y-68223513D01*
X115849631Y-68238816D01*
X115840929Y-68253336D01*
X115830844Y-68266933D01*
X115819476Y-68279476D01*
X115806933Y-68290844D01*
X115793336Y-68300929D01*
X115778816Y-68309631D01*
X115763513Y-68316869D01*
X115747574Y-68322572D01*
X115731153Y-68326685D01*
X115714408Y-68329169D01*
X115697500Y-68330000D01*
X115302500Y-68330000D01*
X115285592Y-68329169D01*
X115268847Y-68326685D01*
X115252426Y-68322572D01*
X115236487Y-68316869D01*
X115221184Y-68309631D01*
X115206664Y-68300929D01*
X115193067Y-68290844D01*
X115180524Y-68279476D01*
X115169156Y-68266933D01*
X115159071Y-68253336D01*
X115150369Y-68238816D01*
X115143131Y-68223513D01*
X115137428Y-68207574D01*
X115133315Y-68191153D01*
X115130831Y-68174408D01*
X115130000Y-68157500D01*
X115130000Y-67812500D01*
X115130831Y-67795592D01*
X115133315Y-67778847D01*
X115137428Y-67762426D01*
X115143131Y-67746487D01*
X115150369Y-67731184D01*
X115159071Y-67716664D01*
X115169156Y-67703067D01*
X115180524Y-67690524D01*
X115193067Y-67679156D01*
X115206664Y-67669071D01*
X115221184Y-67660369D01*
X115236487Y-67653131D01*
X115252426Y-67647428D01*
X115268847Y-67643315D01*
X115285592Y-67640831D01*
X115302500Y-67640000D01*
X115697500Y-67640000D01*
X115714408Y-67640831D01*
G37*
G36*
X115714408Y-66670831D02*
G01*
X115731153Y-66673315D01*
X115747574Y-66677428D01*
X115763513Y-66683131D01*
X115778816Y-66690369D01*
X115793336Y-66699071D01*
X115806933Y-66709156D01*
X115819476Y-66720524D01*
X115830844Y-66733067D01*
X115840929Y-66746664D01*
X115849631Y-66761184D01*
X115856869Y-66776487D01*
X115862572Y-66792426D01*
X115866685Y-66808847D01*
X115869169Y-66825592D01*
X115870000Y-66842500D01*
X115870000Y-67187500D01*
X115869169Y-67204408D01*
X115866685Y-67221153D01*
X115862572Y-67237574D01*
X115856869Y-67253513D01*
X115849631Y-67268816D01*
X115840929Y-67283336D01*
X115830844Y-67296933D01*
X115819476Y-67309476D01*
X115806933Y-67320844D01*
X115793336Y-67330929D01*
X115778816Y-67339631D01*
X115763513Y-67346869D01*
X115747574Y-67352572D01*
X115731153Y-67356685D01*
X115714408Y-67359169D01*
X115697500Y-67360000D01*
X115302500Y-67360000D01*
X115285592Y-67359169D01*
X115268847Y-67356685D01*
X115252426Y-67352572D01*
X115236487Y-67346869D01*
X115221184Y-67339631D01*
X115206664Y-67330929D01*
X115193067Y-67320844D01*
X115180524Y-67309476D01*
X115169156Y-67296933D01*
X115159071Y-67283336D01*
X115150369Y-67268816D01*
X115143131Y-67253513D01*
X115137428Y-67237574D01*
X115133315Y-67221153D01*
X115130831Y-67204408D01*
X115130000Y-67187500D01*
X115130000Y-66842500D01*
X115130831Y-66825592D01*
X115133315Y-66808847D01*
X115137428Y-66792426D01*
X115143131Y-66776487D01*
X115150369Y-66761184D01*
X115159071Y-66746664D01*
X115169156Y-66733067D01*
X115180524Y-66720524D01*
X115193067Y-66709156D01*
X115206664Y-66699071D01*
X115221184Y-66690369D01*
X115236487Y-66683131D01*
X115252426Y-66677428D01*
X115268847Y-66673315D01*
X115285592Y-66670831D01*
X115302500Y-66670000D01*
X115697500Y-66670000D01*
X115714408Y-66670831D01*
G37*
G36*
X115704408Y-64890831D02*
G01*
X115721153Y-64893315D01*
X115737574Y-64897428D01*
X115753513Y-64903131D01*
X115768816Y-64910369D01*
X115783336Y-64919071D01*
X115796933Y-64929156D01*
X115809476Y-64940524D01*
X115820844Y-64953067D01*
X115830929Y-64966664D01*
X115839631Y-64981184D01*
X115846869Y-64996487D01*
X115852572Y-65012426D01*
X115856685Y-65028847D01*
X115859169Y-65045592D01*
X115860000Y-65062500D01*
X115860000Y-65457500D01*
X115859169Y-65474408D01*
X115856685Y-65491153D01*
X115852572Y-65507574D01*
X115846869Y-65523513D01*
X115839631Y-65538816D01*
X115830929Y-65553336D01*
X115820844Y-65566933D01*
X115809476Y-65579476D01*
X115796933Y-65590844D01*
X115783336Y-65600929D01*
X115768816Y-65609631D01*
X115753513Y-65616869D01*
X115737574Y-65622572D01*
X115721153Y-65626685D01*
X115704408Y-65629169D01*
X115687500Y-65630000D01*
X115342500Y-65630000D01*
X115325592Y-65629169D01*
X115308847Y-65626685D01*
X115292426Y-65622572D01*
X115276487Y-65616869D01*
X115261184Y-65609631D01*
X115246664Y-65600929D01*
X115233067Y-65590844D01*
X115220524Y-65579476D01*
X115209156Y-65566933D01*
X115199071Y-65553336D01*
X115190369Y-65538816D01*
X115183131Y-65523513D01*
X115177428Y-65507574D01*
X115173315Y-65491153D01*
X115170831Y-65474408D01*
X115170000Y-65457500D01*
X115170000Y-65062500D01*
X115170831Y-65045592D01*
X115173315Y-65028847D01*
X115177428Y-65012426D01*
X115183131Y-64996487D01*
X115190369Y-64981184D01*
X115199071Y-64966664D01*
X115209156Y-64953067D01*
X115220524Y-64940524D01*
X115233067Y-64929156D01*
X115246664Y-64919071D01*
X115261184Y-64910369D01*
X115276487Y-64903131D01*
X115292426Y-64897428D01*
X115308847Y-64893315D01*
X115325592Y-64890831D01*
X115342500Y-64890000D01*
X115687500Y-64890000D01*
X115704408Y-64890831D01*
G37*
G36*
X116674408Y-64890831D02*
G01*
X116691153Y-64893315D01*
X116707574Y-64897428D01*
X116723513Y-64903131D01*
X116738816Y-64910369D01*
X116753336Y-64919071D01*
X116766933Y-64929156D01*
X116779476Y-64940524D01*
X116790844Y-64953067D01*
X116800929Y-64966664D01*
X116809631Y-64981184D01*
X116816869Y-64996487D01*
X116822572Y-65012426D01*
X116826685Y-65028847D01*
X116829169Y-65045592D01*
X116830000Y-65062500D01*
X116830000Y-65457500D01*
X116829169Y-65474408D01*
X116826685Y-65491153D01*
X116822572Y-65507574D01*
X116816869Y-65523513D01*
X116809631Y-65538816D01*
X116800929Y-65553336D01*
X116790844Y-65566933D01*
X116779476Y-65579476D01*
X116766933Y-65590844D01*
X116753336Y-65600929D01*
X116738816Y-65609631D01*
X116723513Y-65616869D01*
X116707574Y-65622572D01*
X116691153Y-65626685D01*
X116674408Y-65629169D01*
X116657500Y-65630000D01*
X116312500Y-65630000D01*
X116295592Y-65629169D01*
X116278847Y-65626685D01*
X116262426Y-65622572D01*
X116246487Y-65616869D01*
X116231184Y-65609631D01*
X116216664Y-65600929D01*
X116203067Y-65590844D01*
X116190524Y-65579476D01*
X116179156Y-65566933D01*
X116169071Y-65553336D01*
X116160369Y-65538816D01*
X116153131Y-65523513D01*
X116147428Y-65507574D01*
X116143315Y-65491153D01*
X116140831Y-65474408D01*
X116140000Y-65457500D01*
X116140000Y-65062500D01*
X116140831Y-65045592D01*
X116143315Y-65028847D01*
X116147428Y-65012426D01*
X116153131Y-64996487D01*
X116160369Y-64981184D01*
X116169071Y-64966664D01*
X116179156Y-64953067D01*
X116190524Y-64940524D01*
X116203067Y-64929156D01*
X116216664Y-64919071D01*
X116231184Y-64910369D01*
X116246487Y-64903131D01*
X116262426Y-64897428D01*
X116278847Y-64893315D01*
X116295592Y-64890831D01*
X116312500Y-64890000D01*
X116657500Y-64890000D01*
X116674408Y-64890831D01*
G37*
G36*
X115704408Y-69380831D02*
G01*
X115721153Y-69383315D01*
X115737574Y-69387428D01*
X115753513Y-69393131D01*
X115768816Y-69400369D01*
X115783336Y-69409071D01*
X115796933Y-69419156D01*
X115809476Y-69430524D01*
X115820844Y-69443067D01*
X115830929Y-69456664D01*
X115839631Y-69471184D01*
X115846869Y-69486487D01*
X115852572Y-69502426D01*
X115856685Y-69518847D01*
X115859169Y-69535592D01*
X115860000Y-69552500D01*
X115860000Y-69947500D01*
X115859169Y-69964408D01*
X115856685Y-69981153D01*
X115852572Y-69997574D01*
X115846869Y-70013513D01*
X115839631Y-70028816D01*
X115830929Y-70043336D01*
X115820844Y-70056933D01*
X115809476Y-70069476D01*
X115796933Y-70080844D01*
X115783336Y-70090929D01*
X115768816Y-70099631D01*
X115753513Y-70106869D01*
X115737574Y-70112572D01*
X115721153Y-70116685D01*
X115704408Y-70119169D01*
X115687500Y-70120000D01*
X115342500Y-70120000D01*
X115325592Y-70119169D01*
X115308847Y-70116685D01*
X115292426Y-70112572D01*
X115276487Y-70106869D01*
X115261184Y-70099631D01*
X115246664Y-70090929D01*
X115233067Y-70080844D01*
X115220524Y-70069476D01*
X115209156Y-70056933D01*
X115199071Y-70043336D01*
X115190369Y-70028816D01*
X115183131Y-70013513D01*
X115177428Y-69997574D01*
X115173315Y-69981153D01*
X115170831Y-69964408D01*
X115170000Y-69947500D01*
X115170000Y-69552500D01*
X115170831Y-69535592D01*
X115173315Y-69518847D01*
X115177428Y-69502426D01*
X115183131Y-69486487D01*
X115190369Y-69471184D01*
X115199071Y-69456664D01*
X115209156Y-69443067D01*
X115220524Y-69430524D01*
X115233067Y-69419156D01*
X115246664Y-69409071D01*
X115261184Y-69400369D01*
X115276487Y-69393131D01*
X115292426Y-69387428D01*
X115308847Y-69383315D01*
X115325592Y-69380831D01*
X115342500Y-69380000D01*
X115687500Y-69380000D01*
X115704408Y-69380831D01*
G37*
G36*
X116674408Y-69380831D02*
G01*
X116691153Y-69383315D01*
X116707574Y-69387428D01*
X116723513Y-69393131D01*
X116738816Y-69400369D01*
X116753336Y-69409071D01*
X116766933Y-69419156D01*
X116779476Y-69430524D01*
X116790844Y-69443067D01*
X116800929Y-69456664D01*
X116809631Y-69471184D01*
X116816869Y-69486487D01*
X116822572Y-69502426D01*
X116826685Y-69518847D01*
X116829169Y-69535592D01*
X116830000Y-69552500D01*
X116830000Y-69947500D01*
X116829169Y-69964408D01*
X116826685Y-69981153D01*
X116822572Y-69997574D01*
X116816869Y-70013513D01*
X116809631Y-70028816D01*
X116800929Y-70043336D01*
X116790844Y-70056933D01*
X116779476Y-70069476D01*
X116766933Y-70080844D01*
X116753336Y-70090929D01*
X116738816Y-70099631D01*
X116723513Y-70106869D01*
X116707574Y-70112572D01*
X116691153Y-70116685D01*
X116674408Y-70119169D01*
X116657500Y-70120000D01*
X116312500Y-70120000D01*
X116295592Y-70119169D01*
X116278847Y-70116685D01*
X116262426Y-70112572D01*
X116246487Y-70106869D01*
X116231184Y-70099631D01*
X116216664Y-70090929D01*
X116203067Y-70080844D01*
X116190524Y-70069476D01*
X116179156Y-70056933D01*
X116169071Y-70043336D01*
X116160369Y-70028816D01*
X116153131Y-70013513D01*
X116147428Y-69997574D01*
X116143315Y-69981153D01*
X116140831Y-69964408D01*
X116140000Y-69947500D01*
X116140000Y-69552500D01*
X116140831Y-69535592D01*
X116143315Y-69518847D01*
X116147428Y-69502426D01*
X116153131Y-69486487D01*
X116160369Y-69471184D01*
X116169071Y-69456664D01*
X116179156Y-69443067D01*
X116190524Y-69430524D01*
X116203067Y-69419156D01*
X116216664Y-69409071D01*
X116231184Y-69400369D01*
X116246487Y-69393131D01*
X116262426Y-69387428D01*
X116278847Y-69383315D01*
X116295592Y-69380831D01*
X116312500Y-69380000D01*
X116657500Y-69380000D01*
X116674408Y-69380831D01*
G37*
G36*
X121314408Y-71140831D02*
G01*
X121331153Y-71143315D01*
X121347574Y-71147428D01*
X121363513Y-71153131D01*
X121378816Y-71160369D01*
X121393336Y-71169071D01*
X121406933Y-71179156D01*
X121419476Y-71190524D01*
X121430844Y-71203067D01*
X121440929Y-71216664D01*
X121449631Y-71231184D01*
X121456869Y-71246487D01*
X121462572Y-71262426D01*
X121466685Y-71278847D01*
X121469169Y-71295592D01*
X121470000Y-71312500D01*
X121470000Y-71657500D01*
X121469169Y-71674408D01*
X121466685Y-71691153D01*
X121462572Y-71707574D01*
X121456869Y-71723513D01*
X121449631Y-71738816D01*
X121440929Y-71753336D01*
X121430844Y-71766933D01*
X121419476Y-71779476D01*
X121406933Y-71790844D01*
X121393336Y-71800929D01*
X121378816Y-71809631D01*
X121363513Y-71816869D01*
X121347574Y-71822572D01*
X121331153Y-71826685D01*
X121314408Y-71829169D01*
X121297500Y-71830000D01*
X120902500Y-71830000D01*
X120885592Y-71829169D01*
X120868847Y-71826685D01*
X120852426Y-71822572D01*
X120836487Y-71816869D01*
X120821184Y-71809631D01*
X120806664Y-71800929D01*
X120793067Y-71790844D01*
X120780524Y-71779476D01*
X120769156Y-71766933D01*
X120759071Y-71753336D01*
X120750369Y-71738816D01*
X120743131Y-71723513D01*
X120737428Y-71707574D01*
X120733315Y-71691153D01*
X120730831Y-71674408D01*
X120730000Y-71657500D01*
X120730000Y-71312500D01*
X120730831Y-71295592D01*
X120733315Y-71278847D01*
X120737428Y-71262426D01*
X120743131Y-71246487D01*
X120750369Y-71231184D01*
X120759071Y-71216664D01*
X120769156Y-71203067D01*
X120780524Y-71190524D01*
X120793067Y-71179156D01*
X120806664Y-71169071D01*
X120821184Y-71160369D01*
X120836487Y-71153131D01*
X120852426Y-71147428D01*
X120868847Y-71143315D01*
X120885592Y-71140831D01*
X120902500Y-71140000D01*
X121297500Y-71140000D01*
X121314408Y-71140831D01*
G37*
G36*
X121314408Y-70170831D02*
G01*
X121331153Y-70173315D01*
X121347574Y-70177428D01*
X121363513Y-70183131D01*
X121378816Y-70190369D01*
X121393336Y-70199071D01*
X121406933Y-70209156D01*
X121419476Y-70220524D01*
X121430844Y-70233067D01*
X121440929Y-70246664D01*
X121449631Y-70261184D01*
X121456869Y-70276487D01*
X121462572Y-70292426D01*
X121466685Y-70308847D01*
X121469169Y-70325592D01*
X121470000Y-70342500D01*
X121470000Y-70687500D01*
X121469169Y-70704408D01*
X121466685Y-70721153D01*
X121462572Y-70737574D01*
X121456869Y-70753513D01*
X121449631Y-70768816D01*
X121440929Y-70783336D01*
X121430844Y-70796933D01*
X121419476Y-70809476D01*
X121406933Y-70820844D01*
X121393336Y-70830929D01*
X121378816Y-70839631D01*
X121363513Y-70846869D01*
X121347574Y-70852572D01*
X121331153Y-70856685D01*
X121314408Y-70859169D01*
X121297500Y-70860000D01*
X120902500Y-70860000D01*
X120885592Y-70859169D01*
X120868847Y-70856685D01*
X120852426Y-70852572D01*
X120836487Y-70846869D01*
X120821184Y-70839631D01*
X120806664Y-70830929D01*
X120793067Y-70820844D01*
X120780524Y-70809476D01*
X120769156Y-70796933D01*
X120759071Y-70783336D01*
X120750369Y-70768816D01*
X120743131Y-70753513D01*
X120737428Y-70737574D01*
X120733315Y-70721153D01*
X120730831Y-70704408D01*
X120730000Y-70687500D01*
X120730000Y-70342500D01*
X120730831Y-70325592D01*
X120733315Y-70308847D01*
X120737428Y-70292426D01*
X120743131Y-70276487D01*
X120750369Y-70261184D01*
X120759071Y-70246664D01*
X120769156Y-70233067D01*
X120780524Y-70220524D01*
X120793067Y-70209156D01*
X120806664Y-70199071D01*
X120821184Y-70190369D01*
X120836487Y-70183131D01*
X120852426Y-70177428D01*
X120868847Y-70173315D01*
X120885592Y-70170831D01*
X120902500Y-70170000D01*
X121297500Y-70170000D01*
X121314408Y-70170831D01*
G37*
G36*
X120314408Y-71170831D02*
G01*
X120331153Y-71173315D01*
X120347574Y-71177428D01*
X120363513Y-71183131D01*
X120378816Y-71190369D01*
X120393336Y-71199071D01*
X120406933Y-71209156D01*
X120419476Y-71220524D01*
X120430844Y-71233067D01*
X120440929Y-71246664D01*
X120449631Y-71261184D01*
X120456869Y-71276487D01*
X120462572Y-71292426D01*
X120466685Y-71308847D01*
X120469169Y-71325592D01*
X120470000Y-71342500D01*
X120470000Y-71687500D01*
X120469169Y-71704408D01*
X120466685Y-71721153D01*
X120462572Y-71737574D01*
X120456869Y-71753513D01*
X120449631Y-71768816D01*
X120440929Y-71783336D01*
X120430844Y-71796933D01*
X120419476Y-71809476D01*
X120406933Y-71820844D01*
X120393336Y-71830929D01*
X120378816Y-71839631D01*
X120363513Y-71846869D01*
X120347574Y-71852572D01*
X120331153Y-71856685D01*
X120314408Y-71859169D01*
X120297500Y-71860000D01*
X119902500Y-71860000D01*
X119885592Y-71859169D01*
X119868847Y-71856685D01*
X119852426Y-71852572D01*
X119836487Y-71846869D01*
X119821184Y-71839631D01*
X119806664Y-71830929D01*
X119793067Y-71820844D01*
X119780524Y-71809476D01*
X119769156Y-71796933D01*
X119759071Y-71783336D01*
X119750369Y-71768816D01*
X119743131Y-71753513D01*
X119737428Y-71737574D01*
X119733315Y-71721153D01*
X119730831Y-71704408D01*
X119730000Y-71687500D01*
X119730000Y-71342500D01*
X119730831Y-71325592D01*
X119733315Y-71308847D01*
X119737428Y-71292426D01*
X119743131Y-71276487D01*
X119750369Y-71261184D01*
X119759071Y-71246664D01*
X119769156Y-71233067D01*
X119780524Y-71220524D01*
X119793067Y-71209156D01*
X119806664Y-71199071D01*
X119821184Y-71190369D01*
X119836487Y-71183131D01*
X119852426Y-71177428D01*
X119868847Y-71173315D01*
X119885592Y-71170831D01*
X119902500Y-71170000D01*
X120297500Y-71170000D01*
X120314408Y-71170831D01*
G37*
G36*
X120314408Y-72140831D02*
G01*
X120331153Y-72143315D01*
X120347574Y-72147428D01*
X120363513Y-72153131D01*
X120378816Y-72160369D01*
X120393336Y-72169071D01*
X120406933Y-72179156D01*
X120419476Y-72190524D01*
X120430844Y-72203067D01*
X120440929Y-72216664D01*
X120449631Y-72231184D01*
X120456869Y-72246487D01*
X120462572Y-72262426D01*
X120466685Y-72278847D01*
X120469169Y-72295592D01*
X120470000Y-72312500D01*
X120470000Y-72657500D01*
X120469169Y-72674408D01*
X120466685Y-72691153D01*
X120462572Y-72707574D01*
X120456869Y-72723513D01*
X120449631Y-72738816D01*
X120440929Y-72753336D01*
X120430844Y-72766933D01*
X120419476Y-72779476D01*
X120406933Y-72790844D01*
X120393336Y-72800929D01*
X120378816Y-72809631D01*
X120363513Y-72816869D01*
X120347574Y-72822572D01*
X120331153Y-72826685D01*
X120314408Y-72829169D01*
X120297500Y-72830000D01*
X119902500Y-72830000D01*
X119885592Y-72829169D01*
X119868847Y-72826685D01*
X119852426Y-72822572D01*
X119836487Y-72816869D01*
X119821184Y-72809631D01*
X119806664Y-72800929D01*
X119793067Y-72790844D01*
X119780524Y-72779476D01*
X119769156Y-72766933D01*
X119759071Y-72753336D01*
X119750369Y-72738816D01*
X119743131Y-72723513D01*
X119737428Y-72707574D01*
X119733315Y-72691153D01*
X119730831Y-72674408D01*
X119730000Y-72657500D01*
X119730000Y-72312500D01*
X119730831Y-72295592D01*
X119733315Y-72278847D01*
X119737428Y-72262426D01*
X119743131Y-72246487D01*
X119750369Y-72231184D01*
X119759071Y-72216664D01*
X119769156Y-72203067D01*
X119780524Y-72190524D01*
X119793067Y-72179156D01*
X119806664Y-72169071D01*
X119821184Y-72160369D01*
X119836487Y-72153131D01*
X119852426Y-72147428D01*
X119868847Y-72143315D01*
X119885592Y-72140831D01*
X119902500Y-72140000D01*
X120297500Y-72140000D01*
X120314408Y-72140831D01*
G37*
G36*
X120834408Y-64820831D02*
G01*
X120851153Y-64823315D01*
X120867574Y-64827428D01*
X120883513Y-64833131D01*
X120898816Y-64840369D01*
X120913336Y-64849071D01*
X120926933Y-64859156D01*
X120939476Y-64870524D01*
X120950844Y-64883067D01*
X120960929Y-64896664D01*
X120969631Y-64911184D01*
X120976869Y-64926487D01*
X120982572Y-64942426D01*
X120986685Y-64958847D01*
X120989169Y-64975592D01*
X120990000Y-64992500D01*
X120990000Y-65387500D01*
X120989169Y-65404408D01*
X120986685Y-65421153D01*
X120982572Y-65437574D01*
X120976869Y-65453513D01*
X120969631Y-65468816D01*
X120960929Y-65483336D01*
X120950844Y-65496933D01*
X120939476Y-65509476D01*
X120926933Y-65520844D01*
X120913336Y-65530929D01*
X120898816Y-65539631D01*
X120883513Y-65546869D01*
X120867574Y-65552572D01*
X120851153Y-65556685D01*
X120834408Y-65559169D01*
X120817500Y-65560000D01*
X120472500Y-65560000D01*
X120455592Y-65559169D01*
X120438847Y-65556685D01*
X120422426Y-65552572D01*
X120406487Y-65546869D01*
X120391184Y-65539631D01*
X120376664Y-65530929D01*
X120363067Y-65520844D01*
X120350524Y-65509476D01*
X120339156Y-65496933D01*
X120329071Y-65483336D01*
X120320369Y-65468816D01*
X120313131Y-65453513D01*
X120307428Y-65437574D01*
X120303315Y-65421153D01*
X120300831Y-65404408D01*
X120300000Y-65387500D01*
X120300000Y-64992500D01*
X120300831Y-64975592D01*
X120303315Y-64958847D01*
X120307428Y-64942426D01*
X120313131Y-64926487D01*
X120320369Y-64911184D01*
X120329071Y-64896664D01*
X120339156Y-64883067D01*
X120350524Y-64870524D01*
X120363067Y-64859156D01*
X120376664Y-64849071D01*
X120391184Y-64840369D01*
X120406487Y-64833131D01*
X120422426Y-64827428D01*
X120438847Y-64823315D01*
X120455592Y-64820831D01*
X120472500Y-64820000D01*
X120817500Y-64820000D01*
X120834408Y-64820831D01*
G37*
G36*
X121804408Y-64820831D02*
G01*
X121821153Y-64823315D01*
X121837574Y-64827428D01*
X121853513Y-64833131D01*
X121868816Y-64840369D01*
X121883336Y-64849071D01*
X121896933Y-64859156D01*
X121909476Y-64870524D01*
X121920844Y-64883067D01*
X121930929Y-64896664D01*
X121939631Y-64911184D01*
X121946869Y-64926487D01*
X121952572Y-64942426D01*
X121956685Y-64958847D01*
X121959169Y-64975592D01*
X121960000Y-64992500D01*
X121960000Y-65387500D01*
X121959169Y-65404408D01*
X121956685Y-65421153D01*
X121952572Y-65437574D01*
X121946869Y-65453513D01*
X121939631Y-65468816D01*
X121930929Y-65483336D01*
X121920844Y-65496933D01*
X121909476Y-65509476D01*
X121896933Y-65520844D01*
X121883336Y-65530929D01*
X121868816Y-65539631D01*
X121853513Y-65546869D01*
X121837574Y-65552572D01*
X121821153Y-65556685D01*
X121804408Y-65559169D01*
X121787500Y-65560000D01*
X121442500Y-65560000D01*
X121425592Y-65559169D01*
X121408847Y-65556685D01*
X121392426Y-65552572D01*
X121376487Y-65546869D01*
X121361184Y-65539631D01*
X121346664Y-65530929D01*
X121333067Y-65520844D01*
X121320524Y-65509476D01*
X121309156Y-65496933D01*
X121299071Y-65483336D01*
X121290369Y-65468816D01*
X121283131Y-65453513D01*
X121277428Y-65437574D01*
X121273315Y-65421153D01*
X121270831Y-65404408D01*
X121270000Y-65387500D01*
X121270000Y-64992500D01*
X121270831Y-64975592D01*
X121273315Y-64958847D01*
X121277428Y-64942426D01*
X121283131Y-64926487D01*
X121290369Y-64911184D01*
X121299071Y-64896664D01*
X121309156Y-64883067D01*
X121320524Y-64870524D01*
X121333067Y-64859156D01*
X121346664Y-64849071D01*
X121361184Y-64840369D01*
X121376487Y-64833131D01*
X121392426Y-64827428D01*
X121408847Y-64823315D01*
X121425592Y-64820831D01*
X121442500Y-64820000D01*
X121787500Y-64820000D01*
X121804408Y-64820831D01*
G37*
G36*
X121104408Y-62830831D02*
G01*
X121121153Y-62833315D01*
X121137574Y-62837428D01*
X121153513Y-62843131D01*
X121168816Y-62850369D01*
X121183336Y-62859071D01*
X121196933Y-62869156D01*
X121209476Y-62880524D01*
X121220844Y-62893067D01*
X121230929Y-62906664D01*
X121239631Y-62921184D01*
X121246869Y-62936487D01*
X121252572Y-62952426D01*
X121256685Y-62968847D01*
X121259169Y-62985592D01*
X121260000Y-63002500D01*
X121260000Y-63397500D01*
X121259169Y-63414408D01*
X121256685Y-63431153D01*
X121252572Y-63447574D01*
X121246869Y-63463513D01*
X121239631Y-63478816D01*
X121230929Y-63493336D01*
X121220844Y-63506933D01*
X121209476Y-63519476D01*
X121196933Y-63530844D01*
X121183336Y-63540929D01*
X121168816Y-63549631D01*
X121153513Y-63556869D01*
X121137574Y-63562572D01*
X121121153Y-63566685D01*
X121104408Y-63569169D01*
X121087500Y-63570000D01*
X120742500Y-63570000D01*
X120725592Y-63569169D01*
X120708847Y-63566685D01*
X120692426Y-63562572D01*
X120676487Y-63556869D01*
X120661184Y-63549631D01*
X120646664Y-63540929D01*
X120633067Y-63530844D01*
X120620524Y-63519476D01*
X120609156Y-63506933D01*
X120599071Y-63493336D01*
X120590369Y-63478816D01*
X120583131Y-63463513D01*
X120577428Y-63447574D01*
X120573315Y-63431153D01*
X120570831Y-63414408D01*
X120570000Y-63397500D01*
X120570000Y-63002500D01*
X120570831Y-62985592D01*
X120573315Y-62968847D01*
X120577428Y-62952426D01*
X120583131Y-62936487D01*
X120590369Y-62921184D01*
X120599071Y-62906664D01*
X120609156Y-62893067D01*
X120620524Y-62880524D01*
X120633067Y-62869156D01*
X120646664Y-62859071D01*
X120661184Y-62850369D01*
X120676487Y-62843131D01*
X120692426Y-62837428D01*
X120708847Y-62833315D01*
X120725592Y-62830831D01*
X120742500Y-62830000D01*
X121087500Y-62830000D01*
X121104408Y-62830831D01*
G37*
G36*
X122074408Y-62830831D02*
G01*
X122091153Y-62833315D01*
X122107574Y-62837428D01*
X122123513Y-62843131D01*
X122138816Y-62850369D01*
X122153336Y-62859071D01*
X122166933Y-62869156D01*
X122179476Y-62880524D01*
X122190844Y-62893067D01*
X122200929Y-62906664D01*
X122209631Y-62921184D01*
X122216869Y-62936487D01*
X122222572Y-62952426D01*
X122226685Y-62968847D01*
X122229169Y-62985592D01*
X122230000Y-63002500D01*
X122230000Y-63397500D01*
X122229169Y-63414408D01*
X122226685Y-63431153D01*
X122222572Y-63447574D01*
X122216869Y-63463513D01*
X122209631Y-63478816D01*
X122200929Y-63493336D01*
X122190844Y-63506933D01*
X122179476Y-63519476D01*
X122166933Y-63530844D01*
X122153336Y-63540929D01*
X122138816Y-63549631D01*
X122123513Y-63556869D01*
X122107574Y-63562572D01*
X122091153Y-63566685D01*
X122074408Y-63569169D01*
X122057500Y-63570000D01*
X121712500Y-63570000D01*
X121695592Y-63569169D01*
X121678847Y-63566685D01*
X121662426Y-63562572D01*
X121646487Y-63556869D01*
X121631184Y-63549631D01*
X121616664Y-63540929D01*
X121603067Y-63530844D01*
X121590524Y-63519476D01*
X121579156Y-63506933D01*
X121569071Y-63493336D01*
X121560369Y-63478816D01*
X121553131Y-63463513D01*
X121547428Y-63447574D01*
X121543315Y-63431153D01*
X121540831Y-63414408D01*
X121540000Y-63397500D01*
X121540000Y-63002500D01*
X121540831Y-62985592D01*
X121543315Y-62968847D01*
X121547428Y-62952426D01*
X121553131Y-62936487D01*
X121560369Y-62921184D01*
X121569071Y-62906664D01*
X121579156Y-62893067D01*
X121590524Y-62880524D01*
X121603067Y-62869156D01*
X121616664Y-62859071D01*
X121631184Y-62850369D01*
X121646487Y-62843131D01*
X121662426Y-62837428D01*
X121678847Y-62833315D01*
X121695592Y-62830831D01*
X121712500Y-62830000D01*
X122057500Y-62830000D01*
X122074408Y-62830831D01*
G37*
G36*
X123104408Y-63830831D02*
G01*
X123121153Y-63833315D01*
X123137574Y-63837428D01*
X123153513Y-63843131D01*
X123168816Y-63850369D01*
X123183336Y-63859071D01*
X123196933Y-63869156D01*
X123209476Y-63880524D01*
X123220844Y-63893067D01*
X123230929Y-63906664D01*
X123239631Y-63921184D01*
X123246869Y-63936487D01*
X123252572Y-63952426D01*
X123256685Y-63968847D01*
X123259169Y-63985592D01*
X123260000Y-64002500D01*
X123260000Y-64397500D01*
X123259169Y-64414408D01*
X123256685Y-64431153D01*
X123252572Y-64447574D01*
X123246869Y-64463513D01*
X123239631Y-64478816D01*
X123230929Y-64493336D01*
X123220844Y-64506933D01*
X123209476Y-64519476D01*
X123196933Y-64530844D01*
X123183336Y-64540929D01*
X123168816Y-64549631D01*
X123153513Y-64556869D01*
X123137574Y-64562572D01*
X123121153Y-64566685D01*
X123104408Y-64569169D01*
X123087500Y-64570000D01*
X122742500Y-64570000D01*
X122725592Y-64569169D01*
X122708847Y-64566685D01*
X122692426Y-64562572D01*
X122676487Y-64556869D01*
X122661184Y-64549631D01*
X122646664Y-64540929D01*
X122633067Y-64530844D01*
X122620524Y-64519476D01*
X122609156Y-64506933D01*
X122599071Y-64493336D01*
X122590369Y-64478816D01*
X122583131Y-64463513D01*
X122577428Y-64447574D01*
X122573315Y-64431153D01*
X122570831Y-64414408D01*
X122570000Y-64397500D01*
X122570000Y-64002500D01*
X122570831Y-63985592D01*
X122573315Y-63968847D01*
X122577428Y-63952426D01*
X122583131Y-63936487D01*
X122590369Y-63921184D01*
X122599071Y-63906664D01*
X122609156Y-63893067D01*
X122620524Y-63880524D01*
X122633067Y-63869156D01*
X122646664Y-63859071D01*
X122661184Y-63850369D01*
X122676487Y-63843131D01*
X122692426Y-63837428D01*
X122708847Y-63833315D01*
X122725592Y-63830831D01*
X122742500Y-63830000D01*
X123087500Y-63830000D01*
X123104408Y-63830831D01*
G37*
G36*
X124074408Y-63830831D02*
G01*
X124091153Y-63833315D01*
X124107574Y-63837428D01*
X124123513Y-63843131D01*
X124138816Y-63850369D01*
X124153336Y-63859071D01*
X124166933Y-63869156D01*
X124179476Y-63880524D01*
X124190844Y-63893067D01*
X124200929Y-63906664D01*
X124209631Y-63921184D01*
X124216869Y-63936487D01*
X124222572Y-63952426D01*
X124226685Y-63968847D01*
X124229169Y-63985592D01*
X124230000Y-64002500D01*
X124230000Y-64397500D01*
X124229169Y-64414408D01*
X124226685Y-64431153D01*
X124222572Y-64447574D01*
X124216869Y-64463513D01*
X124209631Y-64478816D01*
X124200929Y-64493336D01*
X124190844Y-64506933D01*
X124179476Y-64519476D01*
X124166933Y-64530844D01*
X124153336Y-64540929D01*
X124138816Y-64549631D01*
X124123513Y-64556869D01*
X124107574Y-64562572D01*
X124091153Y-64566685D01*
X124074408Y-64569169D01*
X124057500Y-64570000D01*
X123712500Y-64570000D01*
X123695592Y-64569169D01*
X123678847Y-64566685D01*
X123662426Y-64562572D01*
X123646487Y-64556869D01*
X123631184Y-64549631D01*
X123616664Y-64540929D01*
X123603067Y-64530844D01*
X123590524Y-64519476D01*
X123579156Y-64506933D01*
X123569071Y-64493336D01*
X123560369Y-64478816D01*
X123553131Y-64463513D01*
X123547428Y-64447574D01*
X123543315Y-64431153D01*
X123540831Y-64414408D01*
X123540000Y-64397500D01*
X123540000Y-64002500D01*
X123540831Y-63985592D01*
X123543315Y-63968847D01*
X123547428Y-63952426D01*
X123553131Y-63936487D01*
X123560369Y-63921184D01*
X123569071Y-63906664D01*
X123579156Y-63893067D01*
X123590524Y-63880524D01*
X123603067Y-63869156D01*
X123616664Y-63859071D01*
X123631184Y-63850369D01*
X123646487Y-63843131D01*
X123662426Y-63837428D01*
X123678847Y-63833315D01*
X123695592Y-63830831D01*
X123712500Y-63830000D01*
X124057500Y-63830000D01*
X124074408Y-63830831D01*
G37*
G36*
X123204408Y-65130831D02*
G01*
X123221153Y-65133315D01*
X123237574Y-65137428D01*
X123253513Y-65143131D01*
X123268816Y-65150369D01*
X123283336Y-65159071D01*
X123296933Y-65169156D01*
X123309476Y-65180524D01*
X123320844Y-65193067D01*
X123330929Y-65206664D01*
X123339631Y-65221184D01*
X123346869Y-65236487D01*
X123352572Y-65252426D01*
X123356685Y-65268847D01*
X123359169Y-65285592D01*
X123360000Y-65302500D01*
X123360000Y-65697500D01*
X123359169Y-65714408D01*
X123356685Y-65731153D01*
X123352572Y-65747574D01*
X123346869Y-65763513D01*
X123339631Y-65778816D01*
X123330929Y-65793336D01*
X123320844Y-65806933D01*
X123309476Y-65819476D01*
X123296933Y-65830844D01*
X123283336Y-65840929D01*
X123268816Y-65849631D01*
X123253513Y-65856869D01*
X123237574Y-65862572D01*
X123221153Y-65866685D01*
X123204408Y-65869169D01*
X123187500Y-65870000D01*
X122842500Y-65870000D01*
X122825592Y-65869169D01*
X122808847Y-65866685D01*
X122792426Y-65862572D01*
X122776487Y-65856869D01*
X122761184Y-65849631D01*
X122746664Y-65840929D01*
X122733067Y-65830844D01*
X122720524Y-65819476D01*
X122709156Y-65806933D01*
X122699071Y-65793336D01*
X122690369Y-65778816D01*
X122683131Y-65763513D01*
X122677428Y-65747574D01*
X122673315Y-65731153D01*
X122670831Y-65714408D01*
X122670000Y-65697500D01*
X122670000Y-65302500D01*
X122670831Y-65285592D01*
X122673315Y-65268847D01*
X122677428Y-65252426D01*
X122683131Y-65236487D01*
X122690369Y-65221184D01*
X122699071Y-65206664D01*
X122709156Y-65193067D01*
X122720524Y-65180524D01*
X122733067Y-65169156D01*
X122746664Y-65159071D01*
X122761184Y-65150369D01*
X122776487Y-65143131D01*
X122792426Y-65137428D01*
X122808847Y-65133315D01*
X122825592Y-65130831D01*
X122842500Y-65130000D01*
X123187500Y-65130000D01*
X123204408Y-65130831D01*
G37*
G36*
X124174408Y-65130831D02*
G01*
X124191153Y-65133315D01*
X124207574Y-65137428D01*
X124223513Y-65143131D01*
X124238816Y-65150369D01*
X124253336Y-65159071D01*
X124266933Y-65169156D01*
X124279476Y-65180524D01*
X124290844Y-65193067D01*
X124300929Y-65206664D01*
X124309631Y-65221184D01*
X124316869Y-65236487D01*
X124322572Y-65252426D01*
X124326685Y-65268847D01*
X124329169Y-65285592D01*
X124330000Y-65302500D01*
X124330000Y-65697500D01*
X124329169Y-65714408D01*
X124326685Y-65731153D01*
X124322572Y-65747574D01*
X124316869Y-65763513D01*
X124309631Y-65778816D01*
X124300929Y-65793336D01*
X124290844Y-65806933D01*
X124279476Y-65819476D01*
X124266933Y-65830844D01*
X124253336Y-65840929D01*
X124238816Y-65849631D01*
X124223513Y-65856869D01*
X124207574Y-65862572D01*
X124191153Y-65866685D01*
X124174408Y-65869169D01*
X124157500Y-65870000D01*
X123812500Y-65870000D01*
X123795592Y-65869169D01*
X123778847Y-65866685D01*
X123762426Y-65862572D01*
X123746487Y-65856869D01*
X123731184Y-65849631D01*
X123716664Y-65840929D01*
X123703067Y-65830844D01*
X123690524Y-65819476D01*
X123679156Y-65806933D01*
X123669071Y-65793336D01*
X123660369Y-65778816D01*
X123653131Y-65763513D01*
X123647428Y-65747574D01*
X123643315Y-65731153D01*
X123640831Y-65714408D01*
X123640000Y-65697500D01*
X123640000Y-65302500D01*
X123640831Y-65285592D01*
X123643315Y-65268847D01*
X123647428Y-65252426D01*
X123653131Y-65236487D01*
X123660369Y-65221184D01*
X123669071Y-65206664D01*
X123679156Y-65193067D01*
X123690524Y-65180524D01*
X123703067Y-65169156D01*
X123716664Y-65159071D01*
X123731184Y-65150369D01*
X123746487Y-65143131D01*
X123762426Y-65137428D01*
X123778847Y-65133315D01*
X123795592Y-65130831D01*
X123812500Y-65130000D01*
X124157500Y-65130000D01*
X124174408Y-65130831D01*
G37*
G36*
X123504408Y-68530831D02*
G01*
X123521153Y-68533315D01*
X123537574Y-68537428D01*
X123553513Y-68543131D01*
X123568816Y-68550369D01*
X123583336Y-68559071D01*
X123596933Y-68569156D01*
X123609476Y-68580524D01*
X123620844Y-68593067D01*
X123630929Y-68606664D01*
X123639631Y-68621184D01*
X123646869Y-68636487D01*
X123652572Y-68652426D01*
X123656685Y-68668847D01*
X123659169Y-68685592D01*
X123660000Y-68702500D01*
X123660000Y-69097500D01*
X123659169Y-69114408D01*
X123656685Y-69131153D01*
X123652572Y-69147574D01*
X123646869Y-69163513D01*
X123639631Y-69178816D01*
X123630929Y-69193336D01*
X123620844Y-69206933D01*
X123609476Y-69219476D01*
X123596933Y-69230844D01*
X123583336Y-69240929D01*
X123568816Y-69249631D01*
X123553513Y-69256869D01*
X123537574Y-69262572D01*
X123521153Y-69266685D01*
X123504408Y-69269169D01*
X123487500Y-69270000D01*
X123142500Y-69270000D01*
X123125592Y-69269169D01*
X123108847Y-69266685D01*
X123092426Y-69262572D01*
X123076487Y-69256869D01*
X123061184Y-69249631D01*
X123046664Y-69240929D01*
X123033067Y-69230844D01*
X123020524Y-69219476D01*
X123009156Y-69206933D01*
X122999071Y-69193336D01*
X122990369Y-69178816D01*
X122983131Y-69163513D01*
X122977428Y-69147574D01*
X122973315Y-69131153D01*
X122970831Y-69114408D01*
X122970000Y-69097500D01*
X122970000Y-68702500D01*
X122970831Y-68685592D01*
X122973315Y-68668847D01*
X122977428Y-68652426D01*
X122983131Y-68636487D01*
X122990369Y-68621184D01*
X122999071Y-68606664D01*
X123009156Y-68593067D01*
X123020524Y-68580524D01*
X123033067Y-68569156D01*
X123046664Y-68559071D01*
X123061184Y-68550369D01*
X123076487Y-68543131D01*
X123092426Y-68537428D01*
X123108847Y-68533315D01*
X123125592Y-68530831D01*
X123142500Y-68530000D01*
X123487500Y-68530000D01*
X123504408Y-68530831D01*
G37*
G36*
X124474408Y-68530831D02*
G01*
X124491153Y-68533315D01*
X124507574Y-68537428D01*
X124523513Y-68543131D01*
X124538816Y-68550369D01*
X124553336Y-68559071D01*
X124566933Y-68569156D01*
X124579476Y-68580524D01*
X124590844Y-68593067D01*
X124600929Y-68606664D01*
X124609631Y-68621184D01*
X124616869Y-68636487D01*
X124622572Y-68652426D01*
X124626685Y-68668847D01*
X124629169Y-68685592D01*
X124630000Y-68702500D01*
X124630000Y-69097500D01*
X124629169Y-69114408D01*
X124626685Y-69131153D01*
X124622572Y-69147574D01*
X124616869Y-69163513D01*
X124609631Y-69178816D01*
X124600929Y-69193336D01*
X124590844Y-69206933D01*
X124579476Y-69219476D01*
X124566933Y-69230844D01*
X124553336Y-69240929D01*
X124538816Y-69249631D01*
X124523513Y-69256869D01*
X124507574Y-69262572D01*
X124491153Y-69266685D01*
X124474408Y-69269169D01*
X124457500Y-69270000D01*
X124112500Y-69270000D01*
X124095592Y-69269169D01*
X124078847Y-69266685D01*
X124062426Y-69262572D01*
X124046487Y-69256869D01*
X124031184Y-69249631D01*
X124016664Y-69240929D01*
X124003067Y-69230844D01*
X123990524Y-69219476D01*
X123979156Y-69206933D01*
X123969071Y-69193336D01*
X123960369Y-69178816D01*
X123953131Y-69163513D01*
X123947428Y-69147574D01*
X123943315Y-69131153D01*
X123940831Y-69114408D01*
X123940000Y-69097500D01*
X123940000Y-68702500D01*
X123940831Y-68685592D01*
X123943315Y-68668847D01*
X123947428Y-68652426D01*
X123953131Y-68636487D01*
X123960369Y-68621184D01*
X123969071Y-68606664D01*
X123979156Y-68593067D01*
X123990524Y-68580524D01*
X124003067Y-68569156D01*
X124016664Y-68559071D01*
X124031184Y-68550369D01*
X124046487Y-68543131D01*
X124062426Y-68537428D01*
X124078847Y-68533315D01*
X124095592Y-68530831D01*
X124112500Y-68530000D01*
X124457500Y-68530000D01*
X124474408Y-68530831D01*
G37*
G36*
X117814703Y-66225722D02*
G01*
X117829264Y-66227882D01*
X117843543Y-66231459D01*
X117857403Y-66236418D01*
X117870710Y-66242712D01*
X117883336Y-66250280D01*
X117895159Y-66259048D01*
X117906066Y-66268934D01*
X117915952Y-66279841D01*
X117924720Y-66291664D01*
X117932288Y-66304290D01*
X117938582Y-66317597D01*
X117943541Y-66331457D01*
X117947118Y-66345736D01*
X117949278Y-66360297D01*
X117950000Y-66375000D01*
X117950000Y-66675000D01*
X117949278Y-66689703D01*
X117947118Y-66704264D01*
X117943541Y-66718543D01*
X117938582Y-66732403D01*
X117932288Y-66745710D01*
X117924720Y-66758336D01*
X117915952Y-66770159D01*
X117906066Y-66781066D01*
X117895159Y-66790952D01*
X117883336Y-66799720D01*
X117870710Y-66807288D01*
X117857403Y-66813582D01*
X117843543Y-66818541D01*
X117829264Y-66822118D01*
X117814703Y-66824278D01*
X117800000Y-66825000D01*
X116375000Y-66825000D01*
X116360297Y-66824278D01*
X116345736Y-66822118D01*
X116331457Y-66818541D01*
X116317597Y-66813582D01*
X116304290Y-66807288D01*
X116291664Y-66799720D01*
X116279841Y-66790952D01*
X116268934Y-66781066D01*
X116259048Y-66770159D01*
X116250280Y-66758336D01*
X116242712Y-66745710D01*
X116236418Y-66732403D01*
X116231459Y-66718543D01*
X116227882Y-66704264D01*
X116225722Y-66689703D01*
X116225000Y-66675000D01*
X116225000Y-66375000D01*
X116225722Y-66360297D01*
X116227882Y-66345736D01*
X116231459Y-66331457D01*
X116236418Y-66317597D01*
X116242712Y-66304290D01*
X116250280Y-66291664D01*
X116259048Y-66279841D01*
X116268934Y-66268934D01*
X116279841Y-66259048D01*
X116291664Y-66250280D01*
X116304290Y-66242712D01*
X116317597Y-66236418D01*
X116331457Y-66231459D01*
X116345736Y-66227882D01*
X116360297Y-66225722D01*
X116375000Y-66225000D01*
X117800000Y-66225000D01*
X117814703Y-66225722D01*
G37*
G36*
X117814703Y-66875722D02*
G01*
X117829264Y-66877882D01*
X117843543Y-66881459D01*
X117857403Y-66886418D01*
X117870710Y-66892712D01*
X117883336Y-66900280D01*
X117895159Y-66909048D01*
X117906066Y-66918934D01*
X117915952Y-66929841D01*
X117924720Y-66941664D01*
X117932288Y-66954290D01*
X117938582Y-66967597D01*
X117943541Y-66981457D01*
X117947118Y-66995736D01*
X117949278Y-67010297D01*
X117950000Y-67025000D01*
X117950000Y-67325000D01*
X117949278Y-67339703D01*
X117947118Y-67354264D01*
X117943541Y-67368543D01*
X117938582Y-67382403D01*
X117932288Y-67395710D01*
X117924720Y-67408336D01*
X117915952Y-67420159D01*
X117906066Y-67431066D01*
X117895159Y-67440952D01*
X117883336Y-67449720D01*
X117870710Y-67457288D01*
X117857403Y-67463582D01*
X117843543Y-67468541D01*
X117829264Y-67472118D01*
X117814703Y-67474278D01*
X117800000Y-67475000D01*
X116375000Y-67475000D01*
X116360297Y-67474278D01*
X116345736Y-67472118D01*
X116331457Y-67468541D01*
X116317597Y-67463582D01*
X116304290Y-67457288D01*
X116291664Y-67449720D01*
X116279841Y-67440952D01*
X116268934Y-67431066D01*
X116259048Y-67420159D01*
X116250280Y-67408336D01*
X116242712Y-67395710D01*
X116236418Y-67382403D01*
X116231459Y-67368543D01*
X116227882Y-67354264D01*
X116225722Y-67339703D01*
X116225000Y-67325000D01*
X116225000Y-67025000D01*
X116225722Y-67010297D01*
X116227882Y-66995736D01*
X116231459Y-66981457D01*
X116236418Y-66967597D01*
X116242712Y-66954290D01*
X116250280Y-66941664D01*
X116259048Y-66929841D01*
X116268934Y-66918934D01*
X116279841Y-66909048D01*
X116291664Y-66900280D01*
X116304290Y-66892712D01*
X116317597Y-66886418D01*
X116331457Y-66881459D01*
X116345736Y-66877882D01*
X116360297Y-66875722D01*
X116375000Y-66875000D01*
X117800000Y-66875000D01*
X117814703Y-66875722D01*
G37*
G36*
X117814703Y-67525722D02*
G01*
X117829264Y-67527882D01*
X117843543Y-67531459D01*
X117857403Y-67536418D01*
X117870710Y-67542712D01*
X117883336Y-67550280D01*
X117895159Y-67559048D01*
X117906066Y-67568934D01*
X117915952Y-67579841D01*
X117924720Y-67591664D01*
X117932288Y-67604290D01*
X117938582Y-67617597D01*
X117943541Y-67631457D01*
X117947118Y-67645736D01*
X117949278Y-67660297D01*
X117950000Y-67675000D01*
X117950000Y-67975000D01*
X117949278Y-67989703D01*
X117947118Y-68004264D01*
X117943541Y-68018543D01*
X117938582Y-68032403D01*
X117932288Y-68045710D01*
X117924720Y-68058336D01*
X117915952Y-68070159D01*
X117906066Y-68081066D01*
X117895159Y-68090952D01*
X117883336Y-68099720D01*
X117870710Y-68107288D01*
X117857403Y-68113582D01*
X117843543Y-68118541D01*
X117829264Y-68122118D01*
X117814703Y-68124278D01*
X117800000Y-68125000D01*
X116375000Y-68125000D01*
X116360297Y-68124278D01*
X116345736Y-68122118D01*
X116331457Y-68118541D01*
X116317597Y-68113582D01*
X116304290Y-68107288D01*
X116291664Y-68099720D01*
X116279841Y-68090952D01*
X116268934Y-68081066D01*
X116259048Y-68070159D01*
X116250280Y-68058336D01*
X116242712Y-68045710D01*
X116236418Y-68032403D01*
X116231459Y-68018543D01*
X116227882Y-68004264D01*
X116225722Y-67989703D01*
X116225000Y-67975000D01*
X116225000Y-67675000D01*
X116225722Y-67660297D01*
X116227882Y-67645736D01*
X116231459Y-67631457D01*
X116236418Y-67617597D01*
X116242712Y-67604290D01*
X116250280Y-67591664D01*
X116259048Y-67579841D01*
X116268934Y-67568934D01*
X116279841Y-67559048D01*
X116291664Y-67550280D01*
X116304290Y-67542712D01*
X116317597Y-67536418D01*
X116331457Y-67531459D01*
X116345736Y-67527882D01*
X116360297Y-67525722D01*
X116375000Y-67525000D01*
X117800000Y-67525000D01*
X117814703Y-67525722D01*
G37*
G36*
X117814703Y-68175722D02*
G01*
X117829264Y-68177882D01*
X117843543Y-68181459D01*
X117857403Y-68186418D01*
X117870710Y-68192712D01*
X117883336Y-68200280D01*
X117895159Y-68209048D01*
X117906066Y-68218934D01*
X117915952Y-68229841D01*
X117924720Y-68241664D01*
X117932288Y-68254290D01*
X117938582Y-68267597D01*
X117943541Y-68281457D01*
X117947118Y-68295736D01*
X117949278Y-68310297D01*
X117950000Y-68325000D01*
X117950000Y-68625000D01*
X117949278Y-68639703D01*
X117947118Y-68654264D01*
X117943541Y-68668543D01*
X117938582Y-68682403D01*
X117932288Y-68695710D01*
X117924720Y-68708336D01*
X117915952Y-68720159D01*
X117906066Y-68731066D01*
X117895159Y-68740952D01*
X117883336Y-68749720D01*
X117870710Y-68757288D01*
X117857403Y-68763582D01*
X117843543Y-68768541D01*
X117829264Y-68772118D01*
X117814703Y-68774278D01*
X117800000Y-68775000D01*
X116375000Y-68775000D01*
X116360297Y-68774278D01*
X116345736Y-68772118D01*
X116331457Y-68768541D01*
X116317597Y-68763582D01*
X116304290Y-68757288D01*
X116291664Y-68749720D01*
X116279841Y-68740952D01*
X116268934Y-68731066D01*
X116259048Y-68720159D01*
X116250280Y-68708336D01*
X116242712Y-68695710D01*
X116236418Y-68682403D01*
X116231459Y-68668543D01*
X116227882Y-68654264D01*
X116225722Y-68639703D01*
X116225000Y-68625000D01*
X116225000Y-68325000D01*
X116225722Y-68310297D01*
X116227882Y-68295736D01*
X116231459Y-68281457D01*
X116236418Y-68267597D01*
X116242712Y-68254290D01*
X116250280Y-68241664D01*
X116259048Y-68229841D01*
X116268934Y-68218934D01*
X116279841Y-68209048D01*
X116291664Y-68200280D01*
X116304290Y-68192712D01*
X116317597Y-68186418D01*
X116331457Y-68181459D01*
X116345736Y-68177882D01*
X116360297Y-68175722D01*
X116375000Y-68175000D01*
X117800000Y-68175000D01*
X117814703Y-68175722D01*
G37*
G36*
X122039703Y-68175722D02*
G01*
X122054264Y-68177882D01*
X122068543Y-68181459D01*
X122082403Y-68186418D01*
X122095710Y-68192712D01*
X122108336Y-68200280D01*
X122120159Y-68209048D01*
X122131066Y-68218934D01*
X122140952Y-68229841D01*
X122149720Y-68241664D01*
X122157288Y-68254290D01*
X122163582Y-68267597D01*
X122168541Y-68281457D01*
X122172118Y-68295736D01*
X122174278Y-68310297D01*
X122175000Y-68325000D01*
X122175000Y-68625000D01*
X122174278Y-68639703D01*
X122172118Y-68654264D01*
X122168541Y-68668543D01*
X122163582Y-68682403D01*
X122157288Y-68695710D01*
X122149720Y-68708336D01*
X122140952Y-68720159D01*
X122131066Y-68731066D01*
X122120159Y-68740952D01*
X122108336Y-68749720D01*
X122095710Y-68757288D01*
X122082403Y-68763582D01*
X122068543Y-68768541D01*
X122054264Y-68772118D01*
X122039703Y-68774278D01*
X122025000Y-68775000D01*
X120600000Y-68775000D01*
X120585297Y-68774278D01*
X120570736Y-68772118D01*
X120556457Y-68768541D01*
X120542597Y-68763582D01*
X120529290Y-68757288D01*
X120516664Y-68749720D01*
X120504841Y-68740952D01*
X120493934Y-68731066D01*
X120484048Y-68720159D01*
X120475280Y-68708336D01*
X120467712Y-68695710D01*
X120461418Y-68682403D01*
X120456459Y-68668543D01*
X120452882Y-68654264D01*
X120450722Y-68639703D01*
X120450000Y-68625000D01*
X120450000Y-68325000D01*
X120450722Y-68310297D01*
X120452882Y-68295736D01*
X120456459Y-68281457D01*
X120461418Y-68267597D01*
X120467712Y-68254290D01*
X120475280Y-68241664D01*
X120484048Y-68229841D01*
X120493934Y-68218934D01*
X120504841Y-68209048D01*
X120516664Y-68200280D01*
X120529290Y-68192712D01*
X120542597Y-68186418D01*
X120556457Y-68181459D01*
X120570736Y-68177882D01*
X120585297Y-68175722D01*
X120600000Y-68175000D01*
X122025000Y-68175000D01*
X122039703Y-68175722D01*
G37*
G36*
X122039703Y-67525722D02*
G01*
X122054264Y-67527882D01*
X122068543Y-67531459D01*
X122082403Y-67536418D01*
X122095710Y-67542712D01*
X122108336Y-67550280D01*
X122120159Y-67559048D01*
X122131066Y-67568934D01*
X122140952Y-67579841D01*
X122149720Y-67591664D01*
X122157288Y-67604290D01*
X122163582Y-67617597D01*
X122168541Y-67631457D01*
X122172118Y-67645736D01*
X122174278Y-67660297D01*
X122175000Y-67675000D01*
X122175000Y-67975000D01*
X122174278Y-67989703D01*
X122172118Y-68004264D01*
X122168541Y-68018543D01*
X122163582Y-68032403D01*
X122157288Y-68045710D01*
X122149720Y-68058336D01*
X122140952Y-68070159D01*
X122131066Y-68081066D01*
X122120159Y-68090952D01*
X122108336Y-68099720D01*
X122095710Y-68107288D01*
X122082403Y-68113582D01*
X122068543Y-68118541D01*
X122054264Y-68122118D01*
X122039703Y-68124278D01*
X122025000Y-68125000D01*
X120600000Y-68125000D01*
X120585297Y-68124278D01*
X120570736Y-68122118D01*
X120556457Y-68118541D01*
X120542597Y-68113582D01*
X120529290Y-68107288D01*
X120516664Y-68099720D01*
X120504841Y-68090952D01*
X120493934Y-68081066D01*
X120484048Y-68070159D01*
X120475280Y-68058336D01*
X120467712Y-68045710D01*
X120461418Y-68032403D01*
X120456459Y-68018543D01*
X120452882Y-68004264D01*
X120450722Y-67989703D01*
X120450000Y-67975000D01*
X120450000Y-67675000D01*
X120450722Y-67660297D01*
X120452882Y-67645736D01*
X120456459Y-67631457D01*
X120461418Y-67617597D01*
X120467712Y-67604290D01*
X120475280Y-67591664D01*
X120484048Y-67579841D01*
X120493934Y-67568934D01*
X120504841Y-67559048D01*
X120516664Y-67550280D01*
X120529290Y-67542712D01*
X120542597Y-67536418D01*
X120556457Y-67531459D01*
X120570736Y-67527882D01*
X120585297Y-67525722D01*
X120600000Y-67525000D01*
X122025000Y-67525000D01*
X122039703Y-67525722D01*
G37*
G36*
X122039703Y-66875722D02*
G01*
X122054264Y-66877882D01*
X122068543Y-66881459D01*
X122082403Y-66886418D01*
X122095710Y-66892712D01*
X122108336Y-66900280D01*
X122120159Y-66909048D01*
X122131066Y-66918934D01*
X122140952Y-66929841D01*
X122149720Y-66941664D01*
X122157288Y-66954290D01*
X122163582Y-66967597D01*
X122168541Y-66981457D01*
X122172118Y-66995736D01*
X122174278Y-67010297D01*
X122175000Y-67025000D01*
X122175000Y-67325000D01*
X122174278Y-67339703D01*
X122172118Y-67354264D01*
X122168541Y-67368543D01*
X122163582Y-67382403D01*
X122157288Y-67395710D01*
X122149720Y-67408336D01*
X122140952Y-67420159D01*
X122131066Y-67431066D01*
X122120159Y-67440952D01*
X122108336Y-67449720D01*
X122095710Y-67457288D01*
X122082403Y-67463582D01*
X122068543Y-67468541D01*
X122054264Y-67472118D01*
X122039703Y-67474278D01*
X122025000Y-67475000D01*
X120600000Y-67475000D01*
X120585297Y-67474278D01*
X120570736Y-67472118D01*
X120556457Y-67468541D01*
X120542597Y-67463582D01*
X120529290Y-67457288D01*
X120516664Y-67449720D01*
X120504841Y-67440952D01*
X120493934Y-67431066D01*
X120484048Y-67420159D01*
X120475280Y-67408336D01*
X120467712Y-67395710D01*
X120461418Y-67382403D01*
X120456459Y-67368543D01*
X120452882Y-67354264D01*
X120450722Y-67339703D01*
X120450000Y-67325000D01*
X120450000Y-67025000D01*
X120450722Y-67010297D01*
X120452882Y-66995736D01*
X120456459Y-66981457D01*
X120461418Y-66967597D01*
X120467712Y-66954290D01*
X120475280Y-66941664D01*
X120484048Y-66929841D01*
X120493934Y-66918934D01*
X120504841Y-66909048D01*
X120516664Y-66900280D01*
X120529290Y-66892712D01*
X120542597Y-66886418D01*
X120556457Y-66881459D01*
X120570736Y-66877882D01*
X120585297Y-66875722D01*
X120600000Y-66875000D01*
X122025000Y-66875000D01*
X122039703Y-66875722D01*
G37*
G36*
X122039703Y-66225722D02*
G01*
X122054264Y-66227882D01*
X122068543Y-66231459D01*
X122082403Y-66236418D01*
X122095710Y-66242712D01*
X122108336Y-66250280D01*
X122120159Y-66259048D01*
X122131066Y-66268934D01*
X122140952Y-66279841D01*
X122149720Y-66291664D01*
X122157288Y-66304290D01*
X122163582Y-66317597D01*
X122168541Y-66331457D01*
X122172118Y-66345736D01*
X122174278Y-66360297D01*
X122175000Y-66375000D01*
X122175000Y-66675000D01*
X122174278Y-66689703D01*
X122172118Y-66704264D01*
X122168541Y-66718543D01*
X122163582Y-66732403D01*
X122157288Y-66745710D01*
X122149720Y-66758336D01*
X122140952Y-66770159D01*
X122131066Y-66781066D01*
X122120159Y-66790952D01*
X122108336Y-66799720D01*
X122095710Y-66807288D01*
X122082403Y-66813582D01*
X122068543Y-66818541D01*
X122054264Y-66822118D01*
X122039703Y-66824278D01*
X122025000Y-66825000D01*
X120600000Y-66825000D01*
X120585297Y-66824278D01*
X120570736Y-66822118D01*
X120556457Y-66818541D01*
X120542597Y-66813582D01*
X120529290Y-66807288D01*
X120516664Y-66799720D01*
X120504841Y-66790952D01*
X120493934Y-66781066D01*
X120484048Y-66770159D01*
X120475280Y-66758336D01*
X120467712Y-66745710D01*
X120461418Y-66732403D01*
X120456459Y-66718543D01*
X120452882Y-66704264D01*
X120450722Y-66689703D01*
X120450000Y-66675000D01*
X120450000Y-66375000D01*
X120450722Y-66360297D01*
X120452882Y-66345736D01*
X120456459Y-66331457D01*
X120461418Y-66317597D01*
X120467712Y-66304290D01*
X120475280Y-66291664D01*
X120484048Y-66279841D01*
X120493934Y-66268934D01*
X120504841Y-66259048D01*
X120516664Y-66250280D01*
X120529290Y-66242712D01*
X120542597Y-66236418D01*
X120556457Y-66231459D01*
X120570736Y-66227882D01*
X120585297Y-66225722D01*
X120600000Y-66225000D01*
X122025000Y-66225000D01*
X122039703Y-66225722D01*
G37*
D11*
X137700000Y-71700000D03*
M02*
