G04 #@! TF.GenerationSoftware,KiCad,Pcbnew,(5.1.5-0-10_14)*
G04 #@! TF.CreationDate,2020-05-02T21:38:08-07:00*
G04 #@! TF.ProjectId,EOGlass,454f476c-6173-4732-9e6b-696361645f70,rev?*
G04 #@! TF.SameCoordinates,Original*
G04 #@! TF.FileFunction,Paste,Top*
G04 #@! TF.FilePolarity,Positive*
%FSLAX46Y46*%
G04 Gerber Fmt 4.6, Leading zero omitted, Abs format (unit mm)*
G04 Created by KiCad (PCBNEW (5.1.5-0-10_14)) date 2020-05-02 21:38:08*
%MOMM*%
%LPD*%
G04 APERTURE LIST*
%ADD10C,0.100000*%
%ADD11R,3.800000X2.000000*%
%ADD12R,1.500000X0.450000*%
G04 APERTURE END LIST*
D10*
G36*
X127377351Y-64300361D02*
G01*
X127384632Y-64301441D01*
X127391771Y-64303229D01*
X127398701Y-64305709D01*
X127405355Y-64308856D01*
X127411668Y-64312640D01*
X127417579Y-64317024D01*
X127423033Y-64321967D01*
X127427976Y-64327421D01*
X127432360Y-64333332D01*
X127436144Y-64339645D01*
X127439291Y-64346299D01*
X127441771Y-64353229D01*
X127443559Y-64360368D01*
X127444639Y-64367649D01*
X127445000Y-64375000D01*
X127445000Y-64525000D01*
X127444639Y-64532351D01*
X127443559Y-64539632D01*
X127441771Y-64546771D01*
X127439291Y-64553701D01*
X127436144Y-64560355D01*
X127432360Y-64566668D01*
X127427976Y-64572579D01*
X127423033Y-64578033D01*
X127417579Y-64582976D01*
X127411668Y-64587360D01*
X127405355Y-64591144D01*
X127398701Y-64594291D01*
X127391771Y-64596771D01*
X127384632Y-64598559D01*
X127377351Y-64599639D01*
X127370000Y-64600000D01*
X126045000Y-64600000D01*
X126037649Y-64599639D01*
X126030368Y-64598559D01*
X126023229Y-64596771D01*
X126016299Y-64594291D01*
X126009645Y-64591144D01*
X126003332Y-64587360D01*
X125997421Y-64582976D01*
X125991967Y-64578033D01*
X125987024Y-64572579D01*
X125982640Y-64566668D01*
X125978856Y-64560355D01*
X125975709Y-64553701D01*
X125973229Y-64546771D01*
X125971441Y-64539632D01*
X125970361Y-64532351D01*
X125970000Y-64525000D01*
X125970000Y-64375000D01*
X125970361Y-64367649D01*
X125971441Y-64360368D01*
X125973229Y-64353229D01*
X125975709Y-64346299D01*
X125978856Y-64339645D01*
X125982640Y-64333332D01*
X125987024Y-64327421D01*
X125991967Y-64321967D01*
X125997421Y-64317024D01*
X126003332Y-64312640D01*
X126009645Y-64308856D01*
X126016299Y-64305709D01*
X126023229Y-64303229D01*
X126030368Y-64301441D01*
X126037649Y-64300361D01*
X126045000Y-64300000D01*
X127370000Y-64300000D01*
X127377351Y-64300361D01*
G37*
G36*
X127377351Y-64800361D02*
G01*
X127384632Y-64801441D01*
X127391771Y-64803229D01*
X127398701Y-64805709D01*
X127405355Y-64808856D01*
X127411668Y-64812640D01*
X127417579Y-64817024D01*
X127423033Y-64821967D01*
X127427976Y-64827421D01*
X127432360Y-64833332D01*
X127436144Y-64839645D01*
X127439291Y-64846299D01*
X127441771Y-64853229D01*
X127443559Y-64860368D01*
X127444639Y-64867649D01*
X127445000Y-64875000D01*
X127445000Y-65025000D01*
X127444639Y-65032351D01*
X127443559Y-65039632D01*
X127441771Y-65046771D01*
X127439291Y-65053701D01*
X127436144Y-65060355D01*
X127432360Y-65066668D01*
X127427976Y-65072579D01*
X127423033Y-65078033D01*
X127417579Y-65082976D01*
X127411668Y-65087360D01*
X127405355Y-65091144D01*
X127398701Y-65094291D01*
X127391771Y-65096771D01*
X127384632Y-65098559D01*
X127377351Y-65099639D01*
X127370000Y-65100000D01*
X126045000Y-65100000D01*
X126037649Y-65099639D01*
X126030368Y-65098559D01*
X126023229Y-65096771D01*
X126016299Y-65094291D01*
X126009645Y-65091144D01*
X126003332Y-65087360D01*
X125997421Y-65082976D01*
X125991967Y-65078033D01*
X125987024Y-65072579D01*
X125982640Y-65066668D01*
X125978856Y-65060355D01*
X125975709Y-65053701D01*
X125973229Y-65046771D01*
X125971441Y-65039632D01*
X125970361Y-65032351D01*
X125970000Y-65025000D01*
X125970000Y-64875000D01*
X125970361Y-64867649D01*
X125971441Y-64860368D01*
X125973229Y-64853229D01*
X125975709Y-64846299D01*
X125978856Y-64839645D01*
X125982640Y-64833332D01*
X125987024Y-64827421D01*
X125991967Y-64821967D01*
X125997421Y-64817024D01*
X126003332Y-64812640D01*
X126009645Y-64808856D01*
X126016299Y-64805709D01*
X126023229Y-64803229D01*
X126030368Y-64801441D01*
X126037649Y-64800361D01*
X126045000Y-64800000D01*
X127370000Y-64800000D01*
X127377351Y-64800361D01*
G37*
G36*
X127377351Y-65300361D02*
G01*
X127384632Y-65301441D01*
X127391771Y-65303229D01*
X127398701Y-65305709D01*
X127405355Y-65308856D01*
X127411668Y-65312640D01*
X127417579Y-65317024D01*
X127423033Y-65321967D01*
X127427976Y-65327421D01*
X127432360Y-65333332D01*
X127436144Y-65339645D01*
X127439291Y-65346299D01*
X127441771Y-65353229D01*
X127443559Y-65360368D01*
X127444639Y-65367649D01*
X127445000Y-65375000D01*
X127445000Y-65525000D01*
X127444639Y-65532351D01*
X127443559Y-65539632D01*
X127441771Y-65546771D01*
X127439291Y-65553701D01*
X127436144Y-65560355D01*
X127432360Y-65566668D01*
X127427976Y-65572579D01*
X127423033Y-65578033D01*
X127417579Y-65582976D01*
X127411668Y-65587360D01*
X127405355Y-65591144D01*
X127398701Y-65594291D01*
X127391771Y-65596771D01*
X127384632Y-65598559D01*
X127377351Y-65599639D01*
X127370000Y-65600000D01*
X126045000Y-65600000D01*
X126037649Y-65599639D01*
X126030368Y-65598559D01*
X126023229Y-65596771D01*
X126016299Y-65594291D01*
X126009645Y-65591144D01*
X126003332Y-65587360D01*
X125997421Y-65582976D01*
X125991967Y-65578033D01*
X125987024Y-65572579D01*
X125982640Y-65566668D01*
X125978856Y-65560355D01*
X125975709Y-65553701D01*
X125973229Y-65546771D01*
X125971441Y-65539632D01*
X125970361Y-65532351D01*
X125970000Y-65525000D01*
X125970000Y-65375000D01*
X125970361Y-65367649D01*
X125971441Y-65360368D01*
X125973229Y-65353229D01*
X125975709Y-65346299D01*
X125978856Y-65339645D01*
X125982640Y-65333332D01*
X125987024Y-65327421D01*
X125991967Y-65321967D01*
X125997421Y-65317024D01*
X126003332Y-65312640D01*
X126009645Y-65308856D01*
X126016299Y-65305709D01*
X126023229Y-65303229D01*
X126030368Y-65301441D01*
X126037649Y-65300361D01*
X126045000Y-65300000D01*
X127370000Y-65300000D01*
X127377351Y-65300361D01*
G37*
G36*
X127377351Y-65800361D02*
G01*
X127384632Y-65801441D01*
X127391771Y-65803229D01*
X127398701Y-65805709D01*
X127405355Y-65808856D01*
X127411668Y-65812640D01*
X127417579Y-65817024D01*
X127423033Y-65821967D01*
X127427976Y-65827421D01*
X127432360Y-65833332D01*
X127436144Y-65839645D01*
X127439291Y-65846299D01*
X127441771Y-65853229D01*
X127443559Y-65860368D01*
X127444639Y-65867649D01*
X127445000Y-65875000D01*
X127445000Y-66025000D01*
X127444639Y-66032351D01*
X127443559Y-66039632D01*
X127441771Y-66046771D01*
X127439291Y-66053701D01*
X127436144Y-66060355D01*
X127432360Y-66066668D01*
X127427976Y-66072579D01*
X127423033Y-66078033D01*
X127417579Y-66082976D01*
X127411668Y-66087360D01*
X127405355Y-66091144D01*
X127398701Y-66094291D01*
X127391771Y-66096771D01*
X127384632Y-66098559D01*
X127377351Y-66099639D01*
X127370000Y-66100000D01*
X126045000Y-66100000D01*
X126037649Y-66099639D01*
X126030368Y-66098559D01*
X126023229Y-66096771D01*
X126016299Y-66094291D01*
X126009645Y-66091144D01*
X126003332Y-66087360D01*
X125997421Y-66082976D01*
X125991967Y-66078033D01*
X125987024Y-66072579D01*
X125982640Y-66066668D01*
X125978856Y-66060355D01*
X125975709Y-66053701D01*
X125973229Y-66046771D01*
X125971441Y-66039632D01*
X125970361Y-66032351D01*
X125970000Y-66025000D01*
X125970000Y-65875000D01*
X125970361Y-65867649D01*
X125971441Y-65860368D01*
X125973229Y-65853229D01*
X125975709Y-65846299D01*
X125978856Y-65839645D01*
X125982640Y-65833332D01*
X125987024Y-65827421D01*
X125991967Y-65821967D01*
X125997421Y-65817024D01*
X126003332Y-65812640D01*
X126009645Y-65808856D01*
X126016299Y-65805709D01*
X126023229Y-65803229D01*
X126030368Y-65801441D01*
X126037649Y-65800361D01*
X126045000Y-65800000D01*
X127370000Y-65800000D01*
X127377351Y-65800361D01*
G37*
G36*
X127377351Y-66300361D02*
G01*
X127384632Y-66301441D01*
X127391771Y-66303229D01*
X127398701Y-66305709D01*
X127405355Y-66308856D01*
X127411668Y-66312640D01*
X127417579Y-66317024D01*
X127423033Y-66321967D01*
X127427976Y-66327421D01*
X127432360Y-66333332D01*
X127436144Y-66339645D01*
X127439291Y-66346299D01*
X127441771Y-66353229D01*
X127443559Y-66360368D01*
X127444639Y-66367649D01*
X127445000Y-66375000D01*
X127445000Y-66525000D01*
X127444639Y-66532351D01*
X127443559Y-66539632D01*
X127441771Y-66546771D01*
X127439291Y-66553701D01*
X127436144Y-66560355D01*
X127432360Y-66566668D01*
X127427976Y-66572579D01*
X127423033Y-66578033D01*
X127417579Y-66582976D01*
X127411668Y-66587360D01*
X127405355Y-66591144D01*
X127398701Y-66594291D01*
X127391771Y-66596771D01*
X127384632Y-66598559D01*
X127377351Y-66599639D01*
X127370000Y-66600000D01*
X126045000Y-66600000D01*
X126037649Y-66599639D01*
X126030368Y-66598559D01*
X126023229Y-66596771D01*
X126016299Y-66594291D01*
X126009645Y-66591144D01*
X126003332Y-66587360D01*
X125997421Y-66582976D01*
X125991967Y-66578033D01*
X125987024Y-66572579D01*
X125982640Y-66566668D01*
X125978856Y-66560355D01*
X125975709Y-66553701D01*
X125973229Y-66546771D01*
X125971441Y-66539632D01*
X125970361Y-66532351D01*
X125970000Y-66525000D01*
X125970000Y-66375000D01*
X125970361Y-66367649D01*
X125971441Y-66360368D01*
X125973229Y-66353229D01*
X125975709Y-66346299D01*
X125978856Y-66339645D01*
X125982640Y-66333332D01*
X125987024Y-66327421D01*
X125991967Y-66321967D01*
X125997421Y-66317024D01*
X126003332Y-66312640D01*
X126009645Y-66308856D01*
X126016299Y-66305709D01*
X126023229Y-66303229D01*
X126030368Y-66301441D01*
X126037649Y-66300361D01*
X126045000Y-66300000D01*
X127370000Y-66300000D01*
X127377351Y-66300361D01*
G37*
G36*
X127377351Y-66800361D02*
G01*
X127384632Y-66801441D01*
X127391771Y-66803229D01*
X127398701Y-66805709D01*
X127405355Y-66808856D01*
X127411668Y-66812640D01*
X127417579Y-66817024D01*
X127423033Y-66821967D01*
X127427976Y-66827421D01*
X127432360Y-66833332D01*
X127436144Y-66839645D01*
X127439291Y-66846299D01*
X127441771Y-66853229D01*
X127443559Y-66860368D01*
X127444639Y-66867649D01*
X127445000Y-66875000D01*
X127445000Y-67025000D01*
X127444639Y-67032351D01*
X127443559Y-67039632D01*
X127441771Y-67046771D01*
X127439291Y-67053701D01*
X127436144Y-67060355D01*
X127432360Y-67066668D01*
X127427976Y-67072579D01*
X127423033Y-67078033D01*
X127417579Y-67082976D01*
X127411668Y-67087360D01*
X127405355Y-67091144D01*
X127398701Y-67094291D01*
X127391771Y-67096771D01*
X127384632Y-67098559D01*
X127377351Y-67099639D01*
X127370000Y-67100000D01*
X126045000Y-67100000D01*
X126037649Y-67099639D01*
X126030368Y-67098559D01*
X126023229Y-67096771D01*
X126016299Y-67094291D01*
X126009645Y-67091144D01*
X126003332Y-67087360D01*
X125997421Y-67082976D01*
X125991967Y-67078033D01*
X125987024Y-67072579D01*
X125982640Y-67066668D01*
X125978856Y-67060355D01*
X125975709Y-67053701D01*
X125973229Y-67046771D01*
X125971441Y-67039632D01*
X125970361Y-67032351D01*
X125970000Y-67025000D01*
X125970000Y-66875000D01*
X125970361Y-66867649D01*
X125971441Y-66860368D01*
X125973229Y-66853229D01*
X125975709Y-66846299D01*
X125978856Y-66839645D01*
X125982640Y-66833332D01*
X125987024Y-66827421D01*
X125991967Y-66821967D01*
X125997421Y-66817024D01*
X126003332Y-66812640D01*
X126009645Y-66808856D01*
X126016299Y-66805709D01*
X126023229Y-66803229D01*
X126030368Y-66801441D01*
X126037649Y-66800361D01*
X126045000Y-66800000D01*
X127370000Y-66800000D01*
X127377351Y-66800361D01*
G37*
G36*
X127377351Y-67300361D02*
G01*
X127384632Y-67301441D01*
X127391771Y-67303229D01*
X127398701Y-67305709D01*
X127405355Y-67308856D01*
X127411668Y-67312640D01*
X127417579Y-67317024D01*
X127423033Y-67321967D01*
X127427976Y-67327421D01*
X127432360Y-67333332D01*
X127436144Y-67339645D01*
X127439291Y-67346299D01*
X127441771Y-67353229D01*
X127443559Y-67360368D01*
X127444639Y-67367649D01*
X127445000Y-67375000D01*
X127445000Y-67525000D01*
X127444639Y-67532351D01*
X127443559Y-67539632D01*
X127441771Y-67546771D01*
X127439291Y-67553701D01*
X127436144Y-67560355D01*
X127432360Y-67566668D01*
X127427976Y-67572579D01*
X127423033Y-67578033D01*
X127417579Y-67582976D01*
X127411668Y-67587360D01*
X127405355Y-67591144D01*
X127398701Y-67594291D01*
X127391771Y-67596771D01*
X127384632Y-67598559D01*
X127377351Y-67599639D01*
X127370000Y-67600000D01*
X126045000Y-67600000D01*
X126037649Y-67599639D01*
X126030368Y-67598559D01*
X126023229Y-67596771D01*
X126016299Y-67594291D01*
X126009645Y-67591144D01*
X126003332Y-67587360D01*
X125997421Y-67582976D01*
X125991967Y-67578033D01*
X125987024Y-67572579D01*
X125982640Y-67566668D01*
X125978856Y-67560355D01*
X125975709Y-67553701D01*
X125973229Y-67546771D01*
X125971441Y-67539632D01*
X125970361Y-67532351D01*
X125970000Y-67525000D01*
X125970000Y-67375000D01*
X125970361Y-67367649D01*
X125971441Y-67360368D01*
X125973229Y-67353229D01*
X125975709Y-67346299D01*
X125978856Y-67339645D01*
X125982640Y-67333332D01*
X125987024Y-67327421D01*
X125991967Y-67321967D01*
X125997421Y-67317024D01*
X126003332Y-67312640D01*
X126009645Y-67308856D01*
X126016299Y-67305709D01*
X126023229Y-67303229D01*
X126030368Y-67301441D01*
X126037649Y-67300361D01*
X126045000Y-67300000D01*
X127370000Y-67300000D01*
X127377351Y-67300361D01*
G37*
G36*
X127377351Y-67800361D02*
G01*
X127384632Y-67801441D01*
X127391771Y-67803229D01*
X127398701Y-67805709D01*
X127405355Y-67808856D01*
X127411668Y-67812640D01*
X127417579Y-67817024D01*
X127423033Y-67821967D01*
X127427976Y-67827421D01*
X127432360Y-67833332D01*
X127436144Y-67839645D01*
X127439291Y-67846299D01*
X127441771Y-67853229D01*
X127443559Y-67860368D01*
X127444639Y-67867649D01*
X127445000Y-67875000D01*
X127445000Y-68025000D01*
X127444639Y-68032351D01*
X127443559Y-68039632D01*
X127441771Y-68046771D01*
X127439291Y-68053701D01*
X127436144Y-68060355D01*
X127432360Y-68066668D01*
X127427976Y-68072579D01*
X127423033Y-68078033D01*
X127417579Y-68082976D01*
X127411668Y-68087360D01*
X127405355Y-68091144D01*
X127398701Y-68094291D01*
X127391771Y-68096771D01*
X127384632Y-68098559D01*
X127377351Y-68099639D01*
X127370000Y-68100000D01*
X126045000Y-68100000D01*
X126037649Y-68099639D01*
X126030368Y-68098559D01*
X126023229Y-68096771D01*
X126016299Y-68094291D01*
X126009645Y-68091144D01*
X126003332Y-68087360D01*
X125997421Y-68082976D01*
X125991967Y-68078033D01*
X125987024Y-68072579D01*
X125982640Y-68066668D01*
X125978856Y-68060355D01*
X125975709Y-68053701D01*
X125973229Y-68046771D01*
X125971441Y-68039632D01*
X125970361Y-68032351D01*
X125970000Y-68025000D01*
X125970000Y-67875000D01*
X125970361Y-67867649D01*
X125971441Y-67860368D01*
X125973229Y-67853229D01*
X125975709Y-67846299D01*
X125978856Y-67839645D01*
X125982640Y-67833332D01*
X125987024Y-67827421D01*
X125991967Y-67821967D01*
X125997421Y-67817024D01*
X126003332Y-67812640D01*
X126009645Y-67808856D01*
X126016299Y-67805709D01*
X126023229Y-67803229D01*
X126030368Y-67801441D01*
X126037649Y-67800361D01*
X126045000Y-67800000D01*
X127370000Y-67800000D01*
X127377351Y-67800361D01*
G37*
G36*
X127377351Y-68300361D02*
G01*
X127384632Y-68301441D01*
X127391771Y-68303229D01*
X127398701Y-68305709D01*
X127405355Y-68308856D01*
X127411668Y-68312640D01*
X127417579Y-68317024D01*
X127423033Y-68321967D01*
X127427976Y-68327421D01*
X127432360Y-68333332D01*
X127436144Y-68339645D01*
X127439291Y-68346299D01*
X127441771Y-68353229D01*
X127443559Y-68360368D01*
X127444639Y-68367649D01*
X127445000Y-68375000D01*
X127445000Y-68525000D01*
X127444639Y-68532351D01*
X127443559Y-68539632D01*
X127441771Y-68546771D01*
X127439291Y-68553701D01*
X127436144Y-68560355D01*
X127432360Y-68566668D01*
X127427976Y-68572579D01*
X127423033Y-68578033D01*
X127417579Y-68582976D01*
X127411668Y-68587360D01*
X127405355Y-68591144D01*
X127398701Y-68594291D01*
X127391771Y-68596771D01*
X127384632Y-68598559D01*
X127377351Y-68599639D01*
X127370000Y-68600000D01*
X126045000Y-68600000D01*
X126037649Y-68599639D01*
X126030368Y-68598559D01*
X126023229Y-68596771D01*
X126016299Y-68594291D01*
X126009645Y-68591144D01*
X126003332Y-68587360D01*
X125997421Y-68582976D01*
X125991967Y-68578033D01*
X125987024Y-68572579D01*
X125982640Y-68566668D01*
X125978856Y-68560355D01*
X125975709Y-68553701D01*
X125973229Y-68546771D01*
X125971441Y-68539632D01*
X125970361Y-68532351D01*
X125970000Y-68525000D01*
X125970000Y-68375000D01*
X125970361Y-68367649D01*
X125971441Y-68360368D01*
X125973229Y-68353229D01*
X125975709Y-68346299D01*
X125978856Y-68339645D01*
X125982640Y-68333332D01*
X125987024Y-68327421D01*
X125991967Y-68321967D01*
X125997421Y-68317024D01*
X126003332Y-68312640D01*
X126009645Y-68308856D01*
X126016299Y-68305709D01*
X126023229Y-68303229D01*
X126030368Y-68301441D01*
X126037649Y-68300361D01*
X126045000Y-68300000D01*
X127370000Y-68300000D01*
X127377351Y-68300361D01*
G37*
G36*
X127377351Y-68800361D02*
G01*
X127384632Y-68801441D01*
X127391771Y-68803229D01*
X127398701Y-68805709D01*
X127405355Y-68808856D01*
X127411668Y-68812640D01*
X127417579Y-68817024D01*
X127423033Y-68821967D01*
X127427976Y-68827421D01*
X127432360Y-68833332D01*
X127436144Y-68839645D01*
X127439291Y-68846299D01*
X127441771Y-68853229D01*
X127443559Y-68860368D01*
X127444639Y-68867649D01*
X127445000Y-68875000D01*
X127445000Y-69025000D01*
X127444639Y-69032351D01*
X127443559Y-69039632D01*
X127441771Y-69046771D01*
X127439291Y-69053701D01*
X127436144Y-69060355D01*
X127432360Y-69066668D01*
X127427976Y-69072579D01*
X127423033Y-69078033D01*
X127417579Y-69082976D01*
X127411668Y-69087360D01*
X127405355Y-69091144D01*
X127398701Y-69094291D01*
X127391771Y-69096771D01*
X127384632Y-69098559D01*
X127377351Y-69099639D01*
X127370000Y-69100000D01*
X126045000Y-69100000D01*
X126037649Y-69099639D01*
X126030368Y-69098559D01*
X126023229Y-69096771D01*
X126016299Y-69094291D01*
X126009645Y-69091144D01*
X126003332Y-69087360D01*
X125997421Y-69082976D01*
X125991967Y-69078033D01*
X125987024Y-69072579D01*
X125982640Y-69066668D01*
X125978856Y-69060355D01*
X125975709Y-69053701D01*
X125973229Y-69046771D01*
X125971441Y-69039632D01*
X125970361Y-69032351D01*
X125970000Y-69025000D01*
X125970000Y-68875000D01*
X125970361Y-68867649D01*
X125971441Y-68860368D01*
X125973229Y-68853229D01*
X125975709Y-68846299D01*
X125978856Y-68839645D01*
X125982640Y-68833332D01*
X125987024Y-68827421D01*
X125991967Y-68821967D01*
X125997421Y-68817024D01*
X126003332Y-68812640D01*
X126009645Y-68808856D01*
X126016299Y-68805709D01*
X126023229Y-68803229D01*
X126030368Y-68801441D01*
X126037649Y-68800361D01*
X126045000Y-68800000D01*
X127370000Y-68800000D01*
X127377351Y-68800361D01*
G37*
G36*
X127377351Y-69300361D02*
G01*
X127384632Y-69301441D01*
X127391771Y-69303229D01*
X127398701Y-69305709D01*
X127405355Y-69308856D01*
X127411668Y-69312640D01*
X127417579Y-69317024D01*
X127423033Y-69321967D01*
X127427976Y-69327421D01*
X127432360Y-69333332D01*
X127436144Y-69339645D01*
X127439291Y-69346299D01*
X127441771Y-69353229D01*
X127443559Y-69360368D01*
X127444639Y-69367649D01*
X127445000Y-69375000D01*
X127445000Y-69525000D01*
X127444639Y-69532351D01*
X127443559Y-69539632D01*
X127441771Y-69546771D01*
X127439291Y-69553701D01*
X127436144Y-69560355D01*
X127432360Y-69566668D01*
X127427976Y-69572579D01*
X127423033Y-69578033D01*
X127417579Y-69582976D01*
X127411668Y-69587360D01*
X127405355Y-69591144D01*
X127398701Y-69594291D01*
X127391771Y-69596771D01*
X127384632Y-69598559D01*
X127377351Y-69599639D01*
X127370000Y-69600000D01*
X126045000Y-69600000D01*
X126037649Y-69599639D01*
X126030368Y-69598559D01*
X126023229Y-69596771D01*
X126016299Y-69594291D01*
X126009645Y-69591144D01*
X126003332Y-69587360D01*
X125997421Y-69582976D01*
X125991967Y-69578033D01*
X125987024Y-69572579D01*
X125982640Y-69566668D01*
X125978856Y-69560355D01*
X125975709Y-69553701D01*
X125973229Y-69546771D01*
X125971441Y-69539632D01*
X125970361Y-69532351D01*
X125970000Y-69525000D01*
X125970000Y-69375000D01*
X125970361Y-69367649D01*
X125971441Y-69360368D01*
X125973229Y-69353229D01*
X125975709Y-69346299D01*
X125978856Y-69339645D01*
X125982640Y-69333332D01*
X125987024Y-69327421D01*
X125991967Y-69321967D01*
X125997421Y-69317024D01*
X126003332Y-69312640D01*
X126009645Y-69308856D01*
X126016299Y-69305709D01*
X126023229Y-69303229D01*
X126030368Y-69301441D01*
X126037649Y-69300361D01*
X126045000Y-69300000D01*
X127370000Y-69300000D01*
X127377351Y-69300361D01*
G37*
G36*
X127377351Y-69800361D02*
G01*
X127384632Y-69801441D01*
X127391771Y-69803229D01*
X127398701Y-69805709D01*
X127405355Y-69808856D01*
X127411668Y-69812640D01*
X127417579Y-69817024D01*
X127423033Y-69821967D01*
X127427976Y-69827421D01*
X127432360Y-69833332D01*
X127436144Y-69839645D01*
X127439291Y-69846299D01*
X127441771Y-69853229D01*
X127443559Y-69860368D01*
X127444639Y-69867649D01*
X127445000Y-69875000D01*
X127445000Y-70025000D01*
X127444639Y-70032351D01*
X127443559Y-70039632D01*
X127441771Y-70046771D01*
X127439291Y-70053701D01*
X127436144Y-70060355D01*
X127432360Y-70066668D01*
X127427976Y-70072579D01*
X127423033Y-70078033D01*
X127417579Y-70082976D01*
X127411668Y-70087360D01*
X127405355Y-70091144D01*
X127398701Y-70094291D01*
X127391771Y-70096771D01*
X127384632Y-70098559D01*
X127377351Y-70099639D01*
X127370000Y-70100000D01*
X126045000Y-70100000D01*
X126037649Y-70099639D01*
X126030368Y-70098559D01*
X126023229Y-70096771D01*
X126016299Y-70094291D01*
X126009645Y-70091144D01*
X126003332Y-70087360D01*
X125997421Y-70082976D01*
X125991967Y-70078033D01*
X125987024Y-70072579D01*
X125982640Y-70066668D01*
X125978856Y-70060355D01*
X125975709Y-70053701D01*
X125973229Y-70046771D01*
X125971441Y-70039632D01*
X125970361Y-70032351D01*
X125970000Y-70025000D01*
X125970000Y-69875000D01*
X125970361Y-69867649D01*
X125971441Y-69860368D01*
X125973229Y-69853229D01*
X125975709Y-69846299D01*
X125978856Y-69839645D01*
X125982640Y-69833332D01*
X125987024Y-69827421D01*
X125991967Y-69821967D01*
X125997421Y-69817024D01*
X126003332Y-69812640D01*
X126009645Y-69808856D01*
X126016299Y-69805709D01*
X126023229Y-69803229D01*
X126030368Y-69801441D01*
X126037649Y-69800361D01*
X126045000Y-69800000D01*
X127370000Y-69800000D01*
X127377351Y-69800361D01*
G37*
G36*
X128202351Y-70625361D02*
G01*
X128209632Y-70626441D01*
X128216771Y-70628229D01*
X128223701Y-70630709D01*
X128230355Y-70633856D01*
X128236668Y-70637640D01*
X128242579Y-70642024D01*
X128248033Y-70646967D01*
X128252976Y-70652421D01*
X128257360Y-70658332D01*
X128261144Y-70664645D01*
X128264291Y-70671299D01*
X128266771Y-70678229D01*
X128268559Y-70685368D01*
X128269639Y-70692649D01*
X128270000Y-70700000D01*
X128270000Y-72025000D01*
X128269639Y-72032351D01*
X128268559Y-72039632D01*
X128266771Y-72046771D01*
X128264291Y-72053701D01*
X128261144Y-72060355D01*
X128257360Y-72066668D01*
X128252976Y-72072579D01*
X128248033Y-72078033D01*
X128242579Y-72082976D01*
X128236668Y-72087360D01*
X128230355Y-72091144D01*
X128223701Y-72094291D01*
X128216771Y-72096771D01*
X128209632Y-72098559D01*
X128202351Y-72099639D01*
X128195000Y-72100000D01*
X128045000Y-72100000D01*
X128037649Y-72099639D01*
X128030368Y-72098559D01*
X128023229Y-72096771D01*
X128016299Y-72094291D01*
X128009645Y-72091144D01*
X128003332Y-72087360D01*
X127997421Y-72082976D01*
X127991967Y-72078033D01*
X127987024Y-72072579D01*
X127982640Y-72066668D01*
X127978856Y-72060355D01*
X127975709Y-72053701D01*
X127973229Y-72046771D01*
X127971441Y-72039632D01*
X127970361Y-72032351D01*
X127970000Y-72025000D01*
X127970000Y-70700000D01*
X127970361Y-70692649D01*
X127971441Y-70685368D01*
X127973229Y-70678229D01*
X127975709Y-70671299D01*
X127978856Y-70664645D01*
X127982640Y-70658332D01*
X127987024Y-70652421D01*
X127991967Y-70646967D01*
X127997421Y-70642024D01*
X128003332Y-70637640D01*
X128009645Y-70633856D01*
X128016299Y-70630709D01*
X128023229Y-70628229D01*
X128030368Y-70626441D01*
X128037649Y-70625361D01*
X128045000Y-70625000D01*
X128195000Y-70625000D01*
X128202351Y-70625361D01*
G37*
G36*
X128702351Y-70625361D02*
G01*
X128709632Y-70626441D01*
X128716771Y-70628229D01*
X128723701Y-70630709D01*
X128730355Y-70633856D01*
X128736668Y-70637640D01*
X128742579Y-70642024D01*
X128748033Y-70646967D01*
X128752976Y-70652421D01*
X128757360Y-70658332D01*
X128761144Y-70664645D01*
X128764291Y-70671299D01*
X128766771Y-70678229D01*
X128768559Y-70685368D01*
X128769639Y-70692649D01*
X128770000Y-70700000D01*
X128770000Y-72025000D01*
X128769639Y-72032351D01*
X128768559Y-72039632D01*
X128766771Y-72046771D01*
X128764291Y-72053701D01*
X128761144Y-72060355D01*
X128757360Y-72066668D01*
X128752976Y-72072579D01*
X128748033Y-72078033D01*
X128742579Y-72082976D01*
X128736668Y-72087360D01*
X128730355Y-72091144D01*
X128723701Y-72094291D01*
X128716771Y-72096771D01*
X128709632Y-72098559D01*
X128702351Y-72099639D01*
X128695000Y-72100000D01*
X128545000Y-72100000D01*
X128537649Y-72099639D01*
X128530368Y-72098559D01*
X128523229Y-72096771D01*
X128516299Y-72094291D01*
X128509645Y-72091144D01*
X128503332Y-72087360D01*
X128497421Y-72082976D01*
X128491967Y-72078033D01*
X128487024Y-72072579D01*
X128482640Y-72066668D01*
X128478856Y-72060355D01*
X128475709Y-72053701D01*
X128473229Y-72046771D01*
X128471441Y-72039632D01*
X128470361Y-72032351D01*
X128470000Y-72025000D01*
X128470000Y-70700000D01*
X128470361Y-70692649D01*
X128471441Y-70685368D01*
X128473229Y-70678229D01*
X128475709Y-70671299D01*
X128478856Y-70664645D01*
X128482640Y-70658332D01*
X128487024Y-70652421D01*
X128491967Y-70646967D01*
X128497421Y-70642024D01*
X128503332Y-70637640D01*
X128509645Y-70633856D01*
X128516299Y-70630709D01*
X128523229Y-70628229D01*
X128530368Y-70626441D01*
X128537649Y-70625361D01*
X128545000Y-70625000D01*
X128695000Y-70625000D01*
X128702351Y-70625361D01*
G37*
G36*
X129202351Y-70625361D02*
G01*
X129209632Y-70626441D01*
X129216771Y-70628229D01*
X129223701Y-70630709D01*
X129230355Y-70633856D01*
X129236668Y-70637640D01*
X129242579Y-70642024D01*
X129248033Y-70646967D01*
X129252976Y-70652421D01*
X129257360Y-70658332D01*
X129261144Y-70664645D01*
X129264291Y-70671299D01*
X129266771Y-70678229D01*
X129268559Y-70685368D01*
X129269639Y-70692649D01*
X129270000Y-70700000D01*
X129270000Y-72025000D01*
X129269639Y-72032351D01*
X129268559Y-72039632D01*
X129266771Y-72046771D01*
X129264291Y-72053701D01*
X129261144Y-72060355D01*
X129257360Y-72066668D01*
X129252976Y-72072579D01*
X129248033Y-72078033D01*
X129242579Y-72082976D01*
X129236668Y-72087360D01*
X129230355Y-72091144D01*
X129223701Y-72094291D01*
X129216771Y-72096771D01*
X129209632Y-72098559D01*
X129202351Y-72099639D01*
X129195000Y-72100000D01*
X129045000Y-72100000D01*
X129037649Y-72099639D01*
X129030368Y-72098559D01*
X129023229Y-72096771D01*
X129016299Y-72094291D01*
X129009645Y-72091144D01*
X129003332Y-72087360D01*
X128997421Y-72082976D01*
X128991967Y-72078033D01*
X128987024Y-72072579D01*
X128982640Y-72066668D01*
X128978856Y-72060355D01*
X128975709Y-72053701D01*
X128973229Y-72046771D01*
X128971441Y-72039632D01*
X128970361Y-72032351D01*
X128970000Y-72025000D01*
X128970000Y-70700000D01*
X128970361Y-70692649D01*
X128971441Y-70685368D01*
X128973229Y-70678229D01*
X128975709Y-70671299D01*
X128978856Y-70664645D01*
X128982640Y-70658332D01*
X128987024Y-70652421D01*
X128991967Y-70646967D01*
X128997421Y-70642024D01*
X129003332Y-70637640D01*
X129009645Y-70633856D01*
X129016299Y-70630709D01*
X129023229Y-70628229D01*
X129030368Y-70626441D01*
X129037649Y-70625361D01*
X129045000Y-70625000D01*
X129195000Y-70625000D01*
X129202351Y-70625361D01*
G37*
G36*
X129702351Y-70625361D02*
G01*
X129709632Y-70626441D01*
X129716771Y-70628229D01*
X129723701Y-70630709D01*
X129730355Y-70633856D01*
X129736668Y-70637640D01*
X129742579Y-70642024D01*
X129748033Y-70646967D01*
X129752976Y-70652421D01*
X129757360Y-70658332D01*
X129761144Y-70664645D01*
X129764291Y-70671299D01*
X129766771Y-70678229D01*
X129768559Y-70685368D01*
X129769639Y-70692649D01*
X129770000Y-70700000D01*
X129770000Y-72025000D01*
X129769639Y-72032351D01*
X129768559Y-72039632D01*
X129766771Y-72046771D01*
X129764291Y-72053701D01*
X129761144Y-72060355D01*
X129757360Y-72066668D01*
X129752976Y-72072579D01*
X129748033Y-72078033D01*
X129742579Y-72082976D01*
X129736668Y-72087360D01*
X129730355Y-72091144D01*
X129723701Y-72094291D01*
X129716771Y-72096771D01*
X129709632Y-72098559D01*
X129702351Y-72099639D01*
X129695000Y-72100000D01*
X129545000Y-72100000D01*
X129537649Y-72099639D01*
X129530368Y-72098559D01*
X129523229Y-72096771D01*
X129516299Y-72094291D01*
X129509645Y-72091144D01*
X129503332Y-72087360D01*
X129497421Y-72082976D01*
X129491967Y-72078033D01*
X129487024Y-72072579D01*
X129482640Y-72066668D01*
X129478856Y-72060355D01*
X129475709Y-72053701D01*
X129473229Y-72046771D01*
X129471441Y-72039632D01*
X129470361Y-72032351D01*
X129470000Y-72025000D01*
X129470000Y-70700000D01*
X129470361Y-70692649D01*
X129471441Y-70685368D01*
X129473229Y-70678229D01*
X129475709Y-70671299D01*
X129478856Y-70664645D01*
X129482640Y-70658332D01*
X129487024Y-70652421D01*
X129491967Y-70646967D01*
X129497421Y-70642024D01*
X129503332Y-70637640D01*
X129509645Y-70633856D01*
X129516299Y-70630709D01*
X129523229Y-70628229D01*
X129530368Y-70626441D01*
X129537649Y-70625361D01*
X129545000Y-70625000D01*
X129695000Y-70625000D01*
X129702351Y-70625361D01*
G37*
G36*
X130202351Y-70625361D02*
G01*
X130209632Y-70626441D01*
X130216771Y-70628229D01*
X130223701Y-70630709D01*
X130230355Y-70633856D01*
X130236668Y-70637640D01*
X130242579Y-70642024D01*
X130248033Y-70646967D01*
X130252976Y-70652421D01*
X130257360Y-70658332D01*
X130261144Y-70664645D01*
X130264291Y-70671299D01*
X130266771Y-70678229D01*
X130268559Y-70685368D01*
X130269639Y-70692649D01*
X130270000Y-70700000D01*
X130270000Y-72025000D01*
X130269639Y-72032351D01*
X130268559Y-72039632D01*
X130266771Y-72046771D01*
X130264291Y-72053701D01*
X130261144Y-72060355D01*
X130257360Y-72066668D01*
X130252976Y-72072579D01*
X130248033Y-72078033D01*
X130242579Y-72082976D01*
X130236668Y-72087360D01*
X130230355Y-72091144D01*
X130223701Y-72094291D01*
X130216771Y-72096771D01*
X130209632Y-72098559D01*
X130202351Y-72099639D01*
X130195000Y-72100000D01*
X130045000Y-72100000D01*
X130037649Y-72099639D01*
X130030368Y-72098559D01*
X130023229Y-72096771D01*
X130016299Y-72094291D01*
X130009645Y-72091144D01*
X130003332Y-72087360D01*
X129997421Y-72082976D01*
X129991967Y-72078033D01*
X129987024Y-72072579D01*
X129982640Y-72066668D01*
X129978856Y-72060355D01*
X129975709Y-72053701D01*
X129973229Y-72046771D01*
X129971441Y-72039632D01*
X129970361Y-72032351D01*
X129970000Y-72025000D01*
X129970000Y-70700000D01*
X129970361Y-70692649D01*
X129971441Y-70685368D01*
X129973229Y-70678229D01*
X129975709Y-70671299D01*
X129978856Y-70664645D01*
X129982640Y-70658332D01*
X129987024Y-70652421D01*
X129991967Y-70646967D01*
X129997421Y-70642024D01*
X130003332Y-70637640D01*
X130009645Y-70633856D01*
X130016299Y-70630709D01*
X130023229Y-70628229D01*
X130030368Y-70626441D01*
X130037649Y-70625361D01*
X130045000Y-70625000D01*
X130195000Y-70625000D01*
X130202351Y-70625361D01*
G37*
G36*
X130702351Y-70625361D02*
G01*
X130709632Y-70626441D01*
X130716771Y-70628229D01*
X130723701Y-70630709D01*
X130730355Y-70633856D01*
X130736668Y-70637640D01*
X130742579Y-70642024D01*
X130748033Y-70646967D01*
X130752976Y-70652421D01*
X130757360Y-70658332D01*
X130761144Y-70664645D01*
X130764291Y-70671299D01*
X130766771Y-70678229D01*
X130768559Y-70685368D01*
X130769639Y-70692649D01*
X130770000Y-70700000D01*
X130770000Y-72025000D01*
X130769639Y-72032351D01*
X130768559Y-72039632D01*
X130766771Y-72046771D01*
X130764291Y-72053701D01*
X130761144Y-72060355D01*
X130757360Y-72066668D01*
X130752976Y-72072579D01*
X130748033Y-72078033D01*
X130742579Y-72082976D01*
X130736668Y-72087360D01*
X130730355Y-72091144D01*
X130723701Y-72094291D01*
X130716771Y-72096771D01*
X130709632Y-72098559D01*
X130702351Y-72099639D01*
X130695000Y-72100000D01*
X130545000Y-72100000D01*
X130537649Y-72099639D01*
X130530368Y-72098559D01*
X130523229Y-72096771D01*
X130516299Y-72094291D01*
X130509645Y-72091144D01*
X130503332Y-72087360D01*
X130497421Y-72082976D01*
X130491967Y-72078033D01*
X130487024Y-72072579D01*
X130482640Y-72066668D01*
X130478856Y-72060355D01*
X130475709Y-72053701D01*
X130473229Y-72046771D01*
X130471441Y-72039632D01*
X130470361Y-72032351D01*
X130470000Y-72025000D01*
X130470000Y-70700000D01*
X130470361Y-70692649D01*
X130471441Y-70685368D01*
X130473229Y-70678229D01*
X130475709Y-70671299D01*
X130478856Y-70664645D01*
X130482640Y-70658332D01*
X130487024Y-70652421D01*
X130491967Y-70646967D01*
X130497421Y-70642024D01*
X130503332Y-70637640D01*
X130509645Y-70633856D01*
X130516299Y-70630709D01*
X130523229Y-70628229D01*
X130530368Y-70626441D01*
X130537649Y-70625361D01*
X130545000Y-70625000D01*
X130695000Y-70625000D01*
X130702351Y-70625361D01*
G37*
G36*
X131202351Y-70625361D02*
G01*
X131209632Y-70626441D01*
X131216771Y-70628229D01*
X131223701Y-70630709D01*
X131230355Y-70633856D01*
X131236668Y-70637640D01*
X131242579Y-70642024D01*
X131248033Y-70646967D01*
X131252976Y-70652421D01*
X131257360Y-70658332D01*
X131261144Y-70664645D01*
X131264291Y-70671299D01*
X131266771Y-70678229D01*
X131268559Y-70685368D01*
X131269639Y-70692649D01*
X131270000Y-70700000D01*
X131270000Y-72025000D01*
X131269639Y-72032351D01*
X131268559Y-72039632D01*
X131266771Y-72046771D01*
X131264291Y-72053701D01*
X131261144Y-72060355D01*
X131257360Y-72066668D01*
X131252976Y-72072579D01*
X131248033Y-72078033D01*
X131242579Y-72082976D01*
X131236668Y-72087360D01*
X131230355Y-72091144D01*
X131223701Y-72094291D01*
X131216771Y-72096771D01*
X131209632Y-72098559D01*
X131202351Y-72099639D01*
X131195000Y-72100000D01*
X131045000Y-72100000D01*
X131037649Y-72099639D01*
X131030368Y-72098559D01*
X131023229Y-72096771D01*
X131016299Y-72094291D01*
X131009645Y-72091144D01*
X131003332Y-72087360D01*
X130997421Y-72082976D01*
X130991967Y-72078033D01*
X130987024Y-72072579D01*
X130982640Y-72066668D01*
X130978856Y-72060355D01*
X130975709Y-72053701D01*
X130973229Y-72046771D01*
X130971441Y-72039632D01*
X130970361Y-72032351D01*
X130970000Y-72025000D01*
X130970000Y-70700000D01*
X130970361Y-70692649D01*
X130971441Y-70685368D01*
X130973229Y-70678229D01*
X130975709Y-70671299D01*
X130978856Y-70664645D01*
X130982640Y-70658332D01*
X130987024Y-70652421D01*
X130991967Y-70646967D01*
X130997421Y-70642024D01*
X131003332Y-70637640D01*
X131009645Y-70633856D01*
X131016299Y-70630709D01*
X131023229Y-70628229D01*
X131030368Y-70626441D01*
X131037649Y-70625361D01*
X131045000Y-70625000D01*
X131195000Y-70625000D01*
X131202351Y-70625361D01*
G37*
G36*
X131702351Y-70625361D02*
G01*
X131709632Y-70626441D01*
X131716771Y-70628229D01*
X131723701Y-70630709D01*
X131730355Y-70633856D01*
X131736668Y-70637640D01*
X131742579Y-70642024D01*
X131748033Y-70646967D01*
X131752976Y-70652421D01*
X131757360Y-70658332D01*
X131761144Y-70664645D01*
X131764291Y-70671299D01*
X131766771Y-70678229D01*
X131768559Y-70685368D01*
X131769639Y-70692649D01*
X131770000Y-70700000D01*
X131770000Y-72025000D01*
X131769639Y-72032351D01*
X131768559Y-72039632D01*
X131766771Y-72046771D01*
X131764291Y-72053701D01*
X131761144Y-72060355D01*
X131757360Y-72066668D01*
X131752976Y-72072579D01*
X131748033Y-72078033D01*
X131742579Y-72082976D01*
X131736668Y-72087360D01*
X131730355Y-72091144D01*
X131723701Y-72094291D01*
X131716771Y-72096771D01*
X131709632Y-72098559D01*
X131702351Y-72099639D01*
X131695000Y-72100000D01*
X131545000Y-72100000D01*
X131537649Y-72099639D01*
X131530368Y-72098559D01*
X131523229Y-72096771D01*
X131516299Y-72094291D01*
X131509645Y-72091144D01*
X131503332Y-72087360D01*
X131497421Y-72082976D01*
X131491967Y-72078033D01*
X131487024Y-72072579D01*
X131482640Y-72066668D01*
X131478856Y-72060355D01*
X131475709Y-72053701D01*
X131473229Y-72046771D01*
X131471441Y-72039632D01*
X131470361Y-72032351D01*
X131470000Y-72025000D01*
X131470000Y-70700000D01*
X131470361Y-70692649D01*
X131471441Y-70685368D01*
X131473229Y-70678229D01*
X131475709Y-70671299D01*
X131478856Y-70664645D01*
X131482640Y-70658332D01*
X131487024Y-70652421D01*
X131491967Y-70646967D01*
X131497421Y-70642024D01*
X131503332Y-70637640D01*
X131509645Y-70633856D01*
X131516299Y-70630709D01*
X131523229Y-70628229D01*
X131530368Y-70626441D01*
X131537649Y-70625361D01*
X131545000Y-70625000D01*
X131695000Y-70625000D01*
X131702351Y-70625361D01*
G37*
G36*
X132202351Y-70625361D02*
G01*
X132209632Y-70626441D01*
X132216771Y-70628229D01*
X132223701Y-70630709D01*
X132230355Y-70633856D01*
X132236668Y-70637640D01*
X132242579Y-70642024D01*
X132248033Y-70646967D01*
X132252976Y-70652421D01*
X132257360Y-70658332D01*
X132261144Y-70664645D01*
X132264291Y-70671299D01*
X132266771Y-70678229D01*
X132268559Y-70685368D01*
X132269639Y-70692649D01*
X132270000Y-70700000D01*
X132270000Y-72025000D01*
X132269639Y-72032351D01*
X132268559Y-72039632D01*
X132266771Y-72046771D01*
X132264291Y-72053701D01*
X132261144Y-72060355D01*
X132257360Y-72066668D01*
X132252976Y-72072579D01*
X132248033Y-72078033D01*
X132242579Y-72082976D01*
X132236668Y-72087360D01*
X132230355Y-72091144D01*
X132223701Y-72094291D01*
X132216771Y-72096771D01*
X132209632Y-72098559D01*
X132202351Y-72099639D01*
X132195000Y-72100000D01*
X132045000Y-72100000D01*
X132037649Y-72099639D01*
X132030368Y-72098559D01*
X132023229Y-72096771D01*
X132016299Y-72094291D01*
X132009645Y-72091144D01*
X132003332Y-72087360D01*
X131997421Y-72082976D01*
X131991967Y-72078033D01*
X131987024Y-72072579D01*
X131982640Y-72066668D01*
X131978856Y-72060355D01*
X131975709Y-72053701D01*
X131973229Y-72046771D01*
X131971441Y-72039632D01*
X131970361Y-72032351D01*
X131970000Y-72025000D01*
X131970000Y-70700000D01*
X131970361Y-70692649D01*
X131971441Y-70685368D01*
X131973229Y-70678229D01*
X131975709Y-70671299D01*
X131978856Y-70664645D01*
X131982640Y-70658332D01*
X131987024Y-70652421D01*
X131991967Y-70646967D01*
X131997421Y-70642024D01*
X132003332Y-70637640D01*
X132009645Y-70633856D01*
X132016299Y-70630709D01*
X132023229Y-70628229D01*
X132030368Y-70626441D01*
X132037649Y-70625361D01*
X132045000Y-70625000D01*
X132195000Y-70625000D01*
X132202351Y-70625361D01*
G37*
G36*
X132702351Y-70625361D02*
G01*
X132709632Y-70626441D01*
X132716771Y-70628229D01*
X132723701Y-70630709D01*
X132730355Y-70633856D01*
X132736668Y-70637640D01*
X132742579Y-70642024D01*
X132748033Y-70646967D01*
X132752976Y-70652421D01*
X132757360Y-70658332D01*
X132761144Y-70664645D01*
X132764291Y-70671299D01*
X132766771Y-70678229D01*
X132768559Y-70685368D01*
X132769639Y-70692649D01*
X132770000Y-70700000D01*
X132770000Y-72025000D01*
X132769639Y-72032351D01*
X132768559Y-72039632D01*
X132766771Y-72046771D01*
X132764291Y-72053701D01*
X132761144Y-72060355D01*
X132757360Y-72066668D01*
X132752976Y-72072579D01*
X132748033Y-72078033D01*
X132742579Y-72082976D01*
X132736668Y-72087360D01*
X132730355Y-72091144D01*
X132723701Y-72094291D01*
X132716771Y-72096771D01*
X132709632Y-72098559D01*
X132702351Y-72099639D01*
X132695000Y-72100000D01*
X132545000Y-72100000D01*
X132537649Y-72099639D01*
X132530368Y-72098559D01*
X132523229Y-72096771D01*
X132516299Y-72094291D01*
X132509645Y-72091144D01*
X132503332Y-72087360D01*
X132497421Y-72082976D01*
X132491967Y-72078033D01*
X132487024Y-72072579D01*
X132482640Y-72066668D01*
X132478856Y-72060355D01*
X132475709Y-72053701D01*
X132473229Y-72046771D01*
X132471441Y-72039632D01*
X132470361Y-72032351D01*
X132470000Y-72025000D01*
X132470000Y-70700000D01*
X132470361Y-70692649D01*
X132471441Y-70685368D01*
X132473229Y-70678229D01*
X132475709Y-70671299D01*
X132478856Y-70664645D01*
X132482640Y-70658332D01*
X132487024Y-70652421D01*
X132491967Y-70646967D01*
X132497421Y-70642024D01*
X132503332Y-70637640D01*
X132509645Y-70633856D01*
X132516299Y-70630709D01*
X132523229Y-70628229D01*
X132530368Y-70626441D01*
X132537649Y-70625361D01*
X132545000Y-70625000D01*
X132695000Y-70625000D01*
X132702351Y-70625361D01*
G37*
G36*
X133202351Y-70625361D02*
G01*
X133209632Y-70626441D01*
X133216771Y-70628229D01*
X133223701Y-70630709D01*
X133230355Y-70633856D01*
X133236668Y-70637640D01*
X133242579Y-70642024D01*
X133248033Y-70646967D01*
X133252976Y-70652421D01*
X133257360Y-70658332D01*
X133261144Y-70664645D01*
X133264291Y-70671299D01*
X133266771Y-70678229D01*
X133268559Y-70685368D01*
X133269639Y-70692649D01*
X133270000Y-70700000D01*
X133270000Y-72025000D01*
X133269639Y-72032351D01*
X133268559Y-72039632D01*
X133266771Y-72046771D01*
X133264291Y-72053701D01*
X133261144Y-72060355D01*
X133257360Y-72066668D01*
X133252976Y-72072579D01*
X133248033Y-72078033D01*
X133242579Y-72082976D01*
X133236668Y-72087360D01*
X133230355Y-72091144D01*
X133223701Y-72094291D01*
X133216771Y-72096771D01*
X133209632Y-72098559D01*
X133202351Y-72099639D01*
X133195000Y-72100000D01*
X133045000Y-72100000D01*
X133037649Y-72099639D01*
X133030368Y-72098559D01*
X133023229Y-72096771D01*
X133016299Y-72094291D01*
X133009645Y-72091144D01*
X133003332Y-72087360D01*
X132997421Y-72082976D01*
X132991967Y-72078033D01*
X132987024Y-72072579D01*
X132982640Y-72066668D01*
X132978856Y-72060355D01*
X132975709Y-72053701D01*
X132973229Y-72046771D01*
X132971441Y-72039632D01*
X132970361Y-72032351D01*
X132970000Y-72025000D01*
X132970000Y-70700000D01*
X132970361Y-70692649D01*
X132971441Y-70685368D01*
X132973229Y-70678229D01*
X132975709Y-70671299D01*
X132978856Y-70664645D01*
X132982640Y-70658332D01*
X132987024Y-70652421D01*
X132991967Y-70646967D01*
X132997421Y-70642024D01*
X133003332Y-70637640D01*
X133009645Y-70633856D01*
X133016299Y-70630709D01*
X133023229Y-70628229D01*
X133030368Y-70626441D01*
X133037649Y-70625361D01*
X133045000Y-70625000D01*
X133195000Y-70625000D01*
X133202351Y-70625361D01*
G37*
G36*
X133702351Y-70625361D02*
G01*
X133709632Y-70626441D01*
X133716771Y-70628229D01*
X133723701Y-70630709D01*
X133730355Y-70633856D01*
X133736668Y-70637640D01*
X133742579Y-70642024D01*
X133748033Y-70646967D01*
X133752976Y-70652421D01*
X133757360Y-70658332D01*
X133761144Y-70664645D01*
X133764291Y-70671299D01*
X133766771Y-70678229D01*
X133768559Y-70685368D01*
X133769639Y-70692649D01*
X133770000Y-70700000D01*
X133770000Y-72025000D01*
X133769639Y-72032351D01*
X133768559Y-72039632D01*
X133766771Y-72046771D01*
X133764291Y-72053701D01*
X133761144Y-72060355D01*
X133757360Y-72066668D01*
X133752976Y-72072579D01*
X133748033Y-72078033D01*
X133742579Y-72082976D01*
X133736668Y-72087360D01*
X133730355Y-72091144D01*
X133723701Y-72094291D01*
X133716771Y-72096771D01*
X133709632Y-72098559D01*
X133702351Y-72099639D01*
X133695000Y-72100000D01*
X133545000Y-72100000D01*
X133537649Y-72099639D01*
X133530368Y-72098559D01*
X133523229Y-72096771D01*
X133516299Y-72094291D01*
X133509645Y-72091144D01*
X133503332Y-72087360D01*
X133497421Y-72082976D01*
X133491967Y-72078033D01*
X133487024Y-72072579D01*
X133482640Y-72066668D01*
X133478856Y-72060355D01*
X133475709Y-72053701D01*
X133473229Y-72046771D01*
X133471441Y-72039632D01*
X133470361Y-72032351D01*
X133470000Y-72025000D01*
X133470000Y-70700000D01*
X133470361Y-70692649D01*
X133471441Y-70685368D01*
X133473229Y-70678229D01*
X133475709Y-70671299D01*
X133478856Y-70664645D01*
X133482640Y-70658332D01*
X133487024Y-70652421D01*
X133491967Y-70646967D01*
X133497421Y-70642024D01*
X133503332Y-70637640D01*
X133509645Y-70633856D01*
X133516299Y-70630709D01*
X133523229Y-70628229D01*
X133530368Y-70626441D01*
X133537649Y-70625361D01*
X133545000Y-70625000D01*
X133695000Y-70625000D01*
X133702351Y-70625361D01*
G37*
G36*
X135702351Y-69800361D02*
G01*
X135709632Y-69801441D01*
X135716771Y-69803229D01*
X135723701Y-69805709D01*
X135730355Y-69808856D01*
X135736668Y-69812640D01*
X135742579Y-69817024D01*
X135748033Y-69821967D01*
X135752976Y-69827421D01*
X135757360Y-69833332D01*
X135761144Y-69839645D01*
X135764291Y-69846299D01*
X135766771Y-69853229D01*
X135768559Y-69860368D01*
X135769639Y-69867649D01*
X135770000Y-69875000D01*
X135770000Y-70025000D01*
X135769639Y-70032351D01*
X135768559Y-70039632D01*
X135766771Y-70046771D01*
X135764291Y-70053701D01*
X135761144Y-70060355D01*
X135757360Y-70066668D01*
X135752976Y-70072579D01*
X135748033Y-70078033D01*
X135742579Y-70082976D01*
X135736668Y-70087360D01*
X135730355Y-70091144D01*
X135723701Y-70094291D01*
X135716771Y-70096771D01*
X135709632Y-70098559D01*
X135702351Y-70099639D01*
X135695000Y-70100000D01*
X134370000Y-70100000D01*
X134362649Y-70099639D01*
X134355368Y-70098559D01*
X134348229Y-70096771D01*
X134341299Y-70094291D01*
X134334645Y-70091144D01*
X134328332Y-70087360D01*
X134322421Y-70082976D01*
X134316967Y-70078033D01*
X134312024Y-70072579D01*
X134307640Y-70066668D01*
X134303856Y-70060355D01*
X134300709Y-70053701D01*
X134298229Y-70046771D01*
X134296441Y-70039632D01*
X134295361Y-70032351D01*
X134295000Y-70025000D01*
X134295000Y-69875000D01*
X134295361Y-69867649D01*
X134296441Y-69860368D01*
X134298229Y-69853229D01*
X134300709Y-69846299D01*
X134303856Y-69839645D01*
X134307640Y-69833332D01*
X134312024Y-69827421D01*
X134316967Y-69821967D01*
X134322421Y-69817024D01*
X134328332Y-69812640D01*
X134334645Y-69808856D01*
X134341299Y-69805709D01*
X134348229Y-69803229D01*
X134355368Y-69801441D01*
X134362649Y-69800361D01*
X134370000Y-69800000D01*
X135695000Y-69800000D01*
X135702351Y-69800361D01*
G37*
G36*
X135702351Y-69300361D02*
G01*
X135709632Y-69301441D01*
X135716771Y-69303229D01*
X135723701Y-69305709D01*
X135730355Y-69308856D01*
X135736668Y-69312640D01*
X135742579Y-69317024D01*
X135748033Y-69321967D01*
X135752976Y-69327421D01*
X135757360Y-69333332D01*
X135761144Y-69339645D01*
X135764291Y-69346299D01*
X135766771Y-69353229D01*
X135768559Y-69360368D01*
X135769639Y-69367649D01*
X135770000Y-69375000D01*
X135770000Y-69525000D01*
X135769639Y-69532351D01*
X135768559Y-69539632D01*
X135766771Y-69546771D01*
X135764291Y-69553701D01*
X135761144Y-69560355D01*
X135757360Y-69566668D01*
X135752976Y-69572579D01*
X135748033Y-69578033D01*
X135742579Y-69582976D01*
X135736668Y-69587360D01*
X135730355Y-69591144D01*
X135723701Y-69594291D01*
X135716771Y-69596771D01*
X135709632Y-69598559D01*
X135702351Y-69599639D01*
X135695000Y-69600000D01*
X134370000Y-69600000D01*
X134362649Y-69599639D01*
X134355368Y-69598559D01*
X134348229Y-69596771D01*
X134341299Y-69594291D01*
X134334645Y-69591144D01*
X134328332Y-69587360D01*
X134322421Y-69582976D01*
X134316967Y-69578033D01*
X134312024Y-69572579D01*
X134307640Y-69566668D01*
X134303856Y-69560355D01*
X134300709Y-69553701D01*
X134298229Y-69546771D01*
X134296441Y-69539632D01*
X134295361Y-69532351D01*
X134295000Y-69525000D01*
X134295000Y-69375000D01*
X134295361Y-69367649D01*
X134296441Y-69360368D01*
X134298229Y-69353229D01*
X134300709Y-69346299D01*
X134303856Y-69339645D01*
X134307640Y-69333332D01*
X134312024Y-69327421D01*
X134316967Y-69321967D01*
X134322421Y-69317024D01*
X134328332Y-69312640D01*
X134334645Y-69308856D01*
X134341299Y-69305709D01*
X134348229Y-69303229D01*
X134355368Y-69301441D01*
X134362649Y-69300361D01*
X134370000Y-69300000D01*
X135695000Y-69300000D01*
X135702351Y-69300361D01*
G37*
G36*
X135702351Y-68800361D02*
G01*
X135709632Y-68801441D01*
X135716771Y-68803229D01*
X135723701Y-68805709D01*
X135730355Y-68808856D01*
X135736668Y-68812640D01*
X135742579Y-68817024D01*
X135748033Y-68821967D01*
X135752976Y-68827421D01*
X135757360Y-68833332D01*
X135761144Y-68839645D01*
X135764291Y-68846299D01*
X135766771Y-68853229D01*
X135768559Y-68860368D01*
X135769639Y-68867649D01*
X135770000Y-68875000D01*
X135770000Y-69025000D01*
X135769639Y-69032351D01*
X135768559Y-69039632D01*
X135766771Y-69046771D01*
X135764291Y-69053701D01*
X135761144Y-69060355D01*
X135757360Y-69066668D01*
X135752976Y-69072579D01*
X135748033Y-69078033D01*
X135742579Y-69082976D01*
X135736668Y-69087360D01*
X135730355Y-69091144D01*
X135723701Y-69094291D01*
X135716771Y-69096771D01*
X135709632Y-69098559D01*
X135702351Y-69099639D01*
X135695000Y-69100000D01*
X134370000Y-69100000D01*
X134362649Y-69099639D01*
X134355368Y-69098559D01*
X134348229Y-69096771D01*
X134341299Y-69094291D01*
X134334645Y-69091144D01*
X134328332Y-69087360D01*
X134322421Y-69082976D01*
X134316967Y-69078033D01*
X134312024Y-69072579D01*
X134307640Y-69066668D01*
X134303856Y-69060355D01*
X134300709Y-69053701D01*
X134298229Y-69046771D01*
X134296441Y-69039632D01*
X134295361Y-69032351D01*
X134295000Y-69025000D01*
X134295000Y-68875000D01*
X134295361Y-68867649D01*
X134296441Y-68860368D01*
X134298229Y-68853229D01*
X134300709Y-68846299D01*
X134303856Y-68839645D01*
X134307640Y-68833332D01*
X134312024Y-68827421D01*
X134316967Y-68821967D01*
X134322421Y-68817024D01*
X134328332Y-68812640D01*
X134334645Y-68808856D01*
X134341299Y-68805709D01*
X134348229Y-68803229D01*
X134355368Y-68801441D01*
X134362649Y-68800361D01*
X134370000Y-68800000D01*
X135695000Y-68800000D01*
X135702351Y-68800361D01*
G37*
G36*
X135702351Y-68300361D02*
G01*
X135709632Y-68301441D01*
X135716771Y-68303229D01*
X135723701Y-68305709D01*
X135730355Y-68308856D01*
X135736668Y-68312640D01*
X135742579Y-68317024D01*
X135748033Y-68321967D01*
X135752976Y-68327421D01*
X135757360Y-68333332D01*
X135761144Y-68339645D01*
X135764291Y-68346299D01*
X135766771Y-68353229D01*
X135768559Y-68360368D01*
X135769639Y-68367649D01*
X135770000Y-68375000D01*
X135770000Y-68525000D01*
X135769639Y-68532351D01*
X135768559Y-68539632D01*
X135766771Y-68546771D01*
X135764291Y-68553701D01*
X135761144Y-68560355D01*
X135757360Y-68566668D01*
X135752976Y-68572579D01*
X135748033Y-68578033D01*
X135742579Y-68582976D01*
X135736668Y-68587360D01*
X135730355Y-68591144D01*
X135723701Y-68594291D01*
X135716771Y-68596771D01*
X135709632Y-68598559D01*
X135702351Y-68599639D01*
X135695000Y-68600000D01*
X134370000Y-68600000D01*
X134362649Y-68599639D01*
X134355368Y-68598559D01*
X134348229Y-68596771D01*
X134341299Y-68594291D01*
X134334645Y-68591144D01*
X134328332Y-68587360D01*
X134322421Y-68582976D01*
X134316967Y-68578033D01*
X134312024Y-68572579D01*
X134307640Y-68566668D01*
X134303856Y-68560355D01*
X134300709Y-68553701D01*
X134298229Y-68546771D01*
X134296441Y-68539632D01*
X134295361Y-68532351D01*
X134295000Y-68525000D01*
X134295000Y-68375000D01*
X134295361Y-68367649D01*
X134296441Y-68360368D01*
X134298229Y-68353229D01*
X134300709Y-68346299D01*
X134303856Y-68339645D01*
X134307640Y-68333332D01*
X134312024Y-68327421D01*
X134316967Y-68321967D01*
X134322421Y-68317024D01*
X134328332Y-68312640D01*
X134334645Y-68308856D01*
X134341299Y-68305709D01*
X134348229Y-68303229D01*
X134355368Y-68301441D01*
X134362649Y-68300361D01*
X134370000Y-68300000D01*
X135695000Y-68300000D01*
X135702351Y-68300361D01*
G37*
G36*
X135702351Y-67800361D02*
G01*
X135709632Y-67801441D01*
X135716771Y-67803229D01*
X135723701Y-67805709D01*
X135730355Y-67808856D01*
X135736668Y-67812640D01*
X135742579Y-67817024D01*
X135748033Y-67821967D01*
X135752976Y-67827421D01*
X135757360Y-67833332D01*
X135761144Y-67839645D01*
X135764291Y-67846299D01*
X135766771Y-67853229D01*
X135768559Y-67860368D01*
X135769639Y-67867649D01*
X135770000Y-67875000D01*
X135770000Y-68025000D01*
X135769639Y-68032351D01*
X135768559Y-68039632D01*
X135766771Y-68046771D01*
X135764291Y-68053701D01*
X135761144Y-68060355D01*
X135757360Y-68066668D01*
X135752976Y-68072579D01*
X135748033Y-68078033D01*
X135742579Y-68082976D01*
X135736668Y-68087360D01*
X135730355Y-68091144D01*
X135723701Y-68094291D01*
X135716771Y-68096771D01*
X135709632Y-68098559D01*
X135702351Y-68099639D01*
X135695000Y-68100000D01*
X134370000Y-68100000D01*
X134362649Y-68099639D01*
X134355368Y-68098559D01*
X134348229Y-68096771D01*
X134341299Y-68094291D01*
X134334645Y-68091144D01*
X134328332Y-68087360D01*
X134322421Y-68082976D01*
X134316967Y-68078033D01*
X134312024Y-68072579D01*
X134307640Y-68066668D01*
X134303856Y-68060355D01*
X134300709Y-68053701D01*
X134298229Y-68046771D01*
X134296441Y-68039632D01*
X134295361Y-68032351D01*
X134295000Y-68025000D01*
X134295000Y-67875000D01*
X134295361Y-67867649D01*
X134296441Y-67860368D01*
X134298229Y-67853229D01*
X134300709Y-67846299D01*
X134303856Y-67839645D01*
X134307640Y-67833332D01*
X134312024Y-67827421D01*
X134316967Y-67821967D01*
X134322421Y-67817024D01*
X134328332Y-67812640D01*
X134334645Y-67808856D01*
X134341299Y-67805709D01*
X134348229Y-67803229D01*
X134355368Y-67801441D01*
X134362649Y-67800361D01*
X134370000Y-67800000D01*
X135695000Y-67800000D01*
X135702351Y-67800361D01*
G37*
G36*
X135702351Y-67300361D02*
G01*
X135709632Y-67301441D01*
X135716771Y-67303229D01*
X135723701Y-67305709D01*
X135730355Y-67308856D01*
X135736668Y-67312640D01*
X135742579Y-67317024D01*
X135748033Y-67321967D01*
X135752976Y-67327421D01*
X135757360Y-67333332D01*
X135761144Y-67339645D01*
X135764291Y-67346299D01*
X135766771Y-67353229D01*
X135768559Y-67360368D01*
X135769639Y-67367649D01*
X135770000Y-67375000D01*
X135770000Y-67525000D01*
X135769639Y-67532351D01*
X135768559Y-67539632D01*
X135766771Y-67546771D01*
X135764291Y-67553701D01*
X135761144Y-67560355D01*
X135757360Y-67566668D01*
X135752976Y-67572579D01*
X135748033Y-67578033D01*
X135742579Y-67582976D01*
X135736668Y-67587360D01*
X135730355Y-67591144D01*
X135723701Y-67594291D01*
X135716771Y-67596771D01*
X135709632Y-67598559D01*
X135702351Y-67599639D01*
X135695000Y-67600000D01*
X134370000Y-67600000D01*
X134362649Y-67599639D01*
X134355368Y-67598559D01*
X134348229Y-67596771D01*
X134341299Y-67594291D01*
X134334645Y-67591144D01*
X134328332Y-67587360D01*
X134322421Y-67582976D01*
X134316967Y-67578033D01*
X134312024Y-67572579D01*
X134307640Y-67566668D01*
X134303856Y-67560355D01*
X134300709Y-67553701D01*
X134298229Y-67546771D01*
X134296441Y-67539632D01*
X134295361Y-67532351D01*
X134295000Y-67525000D01*
X134295000Y-67375000D01*
X134295361Y-67367649D01*
X134296441Y-67360368D01*
X134298229Y-67353229D01*
X134300709Y-67346299D01*
X134303856Y-67339645D01*
X134307640Y-67333332D01*
X134312024Y-67327421D01*
X134316967Y-67321967D01*
X134322421Y-67317024D01*
X134328332Y-67312640D01*
X134334645Y-67308856D01*
X134341299Y-67305709D01*
X134348229Y-67303229D01*
X134355368Y-67301441D01*
X134362649Y-67300361D01*
X134370000Y-67300000D01*
X135695000Y-67300000D01*
X135702351Y-67300361D01*
G37*
G36*
X135702351Y-66800361D02*
G01*
X135709632Y-66801441D01*
X135716771Y-66803229D01*
X135723701Y-66805709D01*
X135730355Y-66808856D01*
X135736668Y-66812640D01*
X135742579Y-66817024D01*
X135748033Y-66821967D01*
X135752976Y-66827421D01*
X135757360Y-66833332D01*
X135761144Y-66839645D01*
X135764291Y-66846299D01*
X135766771Y-66853229D01*
X135768559Y-66860368D01*
X135769639Y-66867649D01*
X135770000Y-66875000D01*
X135770000Y-67025000D01*
X135769639Y-67032351D01*
X135768559Y-67039632D01*
X135766771Y-67046771D01*
X135764291Y-67053701D01*
X135761144Y-67060355D01*
X135757360Y-67066668D01*
X135752976Y-67072579D01*
X135748033Y-67078033D01*
X135742579Y-67082976D01*
X135736668Y-67087360D01*
X135730355Y-67091144D01*
X135723701Y-67094291D01*
X135716771Y-67096771D01*
X135709632Y-67098559D01*
X135702351Y-67099639D01*
X135695000Y-67100000D01*
X134370000Y-67100000D01*
X134362649Y-67099639D01*
X134355368Y-67098559D01*
X134348229Y-67096771D01*
X134341299Y-67094291D01*
X134334645Y-67091144D01*
X134328332Y-67087360D01*
X134322421Y-67082976D01*
X134316967Y-67078033D01*
X134312024Y-67072579D01*
X134307640Y-67066668D01*
X134303856Y-67060355D01*
X134300709Y-67053701D01*
X134298229Y-67046771D01*
X134296441Y-67039632D01*
X134295361Y-67032351D01*
X134295000Y-67025000D01*
X134295000Y-66875000D01*
X134295361Y-66867649D01*
X134296441Y-66860368D01*
X134298229Y-66853229D01*
X134300709Y-66846299D01*
X134303856Y-66839645D01*
X134307640Y-66833332D01*
X134312024Y-66827421D01*
X134316967Y-66821967D01*
X134322421Y-66817024D01*
X134328332Y-66812640D01*
X134334645Y-66808856D01*
X134341299Y-66805709D01*
X134348229Y-66803229D01*
X134355368Y-66801441D01*
X134362649Y-66800361D01*
X134370000Y-66800000D01*
X135695000Y-66800000D01*
X135702351Y-66800361D01*
G37*
G36*
X135702351Y-66300361D02*
G01*
X135709632Y-66301441D01*
X135716771Y-66303229D01*
X135723701Y-66305709D01*
X135730355Y-66308856D01*
X135736668Y-66312640D01*
X135742579Y-66317024D01*
X135748033Y-66321967D01*
X135752976Y-66327421D01*
X135757360Y-66333332D01*
X135761144Y-66339645D01*
X135764291Y-66346299D01*
X135766771Y-66353229D01*
X135768559Y-66360368D01*
X135769639Y-66367649D01*
X135770000Y-66375000D01*
X135770000Y-66525000D01*
X135769639Y-66532351D01*
X135768559Y-66539632D01*
X135766771Y-66546771D01*
X135764291Y-66553701D01*
X135761144Y-66560355D01*
X135757360Y-66566668D01*
X135752976Y-66572579D01*
X135748033Y-66578033D01*
X135742579Y-66582976D01*
X135736668Y-66587360D01*
X135730355Y-66591144D01*
X135723701Y-66594291D01*
X135716771Y-66596771D01*
X135709632Y-66598559D01*
X135702351Y-66599639D01*
X135695000Y-66600000D01*
X134370000Y-66600000D01*
X134362649Y-66599639D01*
X134355368Y-66598559D01*
X134348229Y-66596771D01*
X134341299Y-66594291D01*
X134334645Y-66591144D01*
X134328332Y-66587360D01*
X134322421Y-66582976D01*
X134316967Y-66578033D01*
X134312024Y-66572579D01*
X134307640Y-66566668D01*
X134303856Y-66560355D01*
X134300709Y-66553701D01*
X134298229Y-66546771D01*
X134296441Y-66539632D01*
X134295361Y-66532351D01*
X134295000Y-66525000D01*
X134295000Y-66375000D01*
X134295361Y-66367649D01*
X134296441Y-66360368D01*
X134298229Y-66353229D01*
X134300709Y-66346299D01*
X134303856Y-66339645D01*
X134307640Y-66333332D01*
X134312024Y-66327421D01*
X134316967Y-66321967D01*
X134322421Y-66317024D01*
X134328332Y-66312640D01*
X134334645Y-66308856D01*
X134341299Y-66305709D01*
X134348229Y-66303229D01*
X134355368Y-66301441D01*
X134362649Y-66300361D01*
X134370000Y-66300000D01*
X135695000Y-66300000D01*
X135702351Y-66300361D01*
G37*
G36*
X135702351Y-65800361D02*
G01*
X135709632Y-65801441D01*
X135716771Y-65803229D01*
X135723701Y-65805709D01*
X135730355Y-65808856D01*
X135736668Y-65812640D01*
X135742579Y-65817024D01*
X135748033Y-65821967D01*
X135752976Y-65827421D01*
X135757360Y-65833332D01*
X135761144Y-65839645D01*
X135764291Y-65846299D01*
X135766771Y-65853229D01*
X135768559Y-65860368D01*
X135769639Y-65867649D01*
X135770000Y-65875000D01*
X135770000Y-66025000D01*
X135769639Y-66032351D01*
X135768559Y-66039632D01*
X135766771Y-66046771D01*
X135764291Y-66053701D01*
X135761144Y-66060355D01*
X135757360Y-66066668D01*
X135752976Y-66072579D01*
X135748033Y-66078033D01*
X135742579Y-66082976D01*
X135736668Y-66087360D01*
X135730355Y-66091144D01*
X135723701Y-66094291D01*
X135716771Y-66096771D01*
X135709632Y-66098559D01*
X135702351Y-66099639D01*
X135695000Y-66100000D01*
X134370000Y-66100000D01*
X134362649Y-66099639D01*
X134355368Y-66098559D01*
X134348229Y-66096771D01*
X134341299Y-66094291D01*
X134334645Y-66091144D01*
X134328332Y-66087360D01*
X134322421Y-66082976D01*
X134316967Y-66078033D01*
X134312024Y-66072579D01*
X134307640Y-66066668D01*
X134303856Y-66060355D01*
X134300709Y-66053701D01*
X134298229Y-66046771D01*
X134296441Y-66039632D01*
X134295361Y-66032351D01*
X134295000Y-66025000D01*
X134295000Y-65875000D01*
X134295361Y-65867649D01*
X134296441Y-65860368D01*
X134298229Y-65853229D01*
X134300709Y-65846299D01*
X134303856Y-65839645D01*
X134307640Y-65833332D01*
X134312024Y-65827421D01*
X134316967Y-65821967D01*
X134322421Y-65817024D01*
X134328332Y-65812640D01*
X134334645Y-65808856D01*
X134341299Y-65805709D01*
X134348229Y-65803229D01*
X134355368Y-65801441D01*
X134362649Y-65800361D01*
X134370000Y-65800000D01*
X135695000Y-65800000D01*
X135702351Y-65800361D01*
G37*
G36*
X135702351Y-65300361D02*
G01*
X135709632Y-65301441D01*
X135716771Y-65303229D01*
X135723701Y-65305709D01*
X135730355Y-65308856D01*
X135736668Y-65312640D01*
X135742579Y-65317024D01*
X135748033Y-65321967D01*
X135752976Y-65327421D01*
X135757360Y-65333332D01*
X135761144Y-65339645D01*
X135764291Y-65346299D01*
X135766771Y-65353229D01*
X135768559Y-65360368D01*
X135769639Y-65367649D01*
X135770000Y-65375000D01*
X135770000Y-65525000D01*
X135769639Y-65532351D01*
X135768559Y-65539632D01*
X135766771Y-65546771D01*
X135764291Y-65553701D01*
X135761144Y-65560355D01*
X135757360Y-65566668D01*
X135752976Y-65572579D01*
X135748033Y-65578033D01*
X135742579Y-65582976D01*
X135736668Y-65587360D01*
X135730355Y-65591144D01*
X135723701Y-65594291D01*
X135716771Y-65596771D01*
X135709632Y-65598559D01*
X135702351Y-65599639D01*
X135695000Y-65600000D01*
X134370000Y-65600000D01*
X134362649Y-65599639D01*
X134355368Y-65598559D01*
X134348229Y-65596771D01*
X134341299Y-65594291D01*
X134334645Y-65591144D01*
X134328332Y-65587360D01*
X134322421Y-65582976D01*
X134316967Y-65578033D01*
X134312024Y-65572579D01*
X134307640Y-65566668D01*
X134303856Y-65560355D01*
X134300709Y-65553701D01*
X134298229Y-65546771D01*
X134296441Y-65539632D01*
X134295361Y-65532351D01*
X134295000Y-65525000D01*
X134295000Y-65375000D01*
X134295361Y-65367649D01*
X134296441Y-65360368D01*
X134298229Y-65353229D01*
X134300709Y-65346299D01*
X134303856Y-65339645D01*
X134307640Y-65333332D01*
X134312024Y-65327421D01*
X134316967Y-65321967D01*
X134322421Y-65317024D01*
X134328332Y-65312640D01*
X134334645Y-65308856D01*
X134341299Y-65305709D01*
X134348229Y-65303229D01*
X134355368Y-65301441D01*
X134362649Y-65300361D01*
X134370000Y-65300000D01*
X135695000Y-65300000D01*
X135702351Y-65300361D01*
G37*
G36*
X135702351Y-64800361D02*
G01*
X135709632Y-64801441D01*
X135716771Y-64803229D01*
X135723701Y-64805709D01*
X135730355Y-64808856D01*
X135736668Y-64812640D01*
X135742579Y-64817024D01*
X135748033Y-64821967D01*
X135752976Y-64827421D01*
X135757360Y-64833332D01*
X135761144Y-64839645D01*
X135764291Y-64846299D01*
X135766771Y-64853229D01*
X135768559Y-64860368D01*
X135769639Y-64867649D01*
X135770000Y-64875000D01*
X135770000Y-65025000D01*
X135769639Y-65032351D01*
X135768559Y-65039632D01*
X135766771Y-65046771D01*
X135764291Y-65053701D01*
X135761144Y-65060355D01*
X135757360Y-65066668D01*
X135752976Y-65072579D01*
X135748033Y-65078033D01*
X135742579Y-65082976D01*
X135736668Y-65087360D01*
X135730355Y-65091144D01*
X135723701Y-65094291D01*
X135716771Y-65096771D01*
X135709632Y-65098559D01*
X135702351Y-65099639D01*
X135695000Y-65100000D01*
X134370000Y-65100000D01*
X134362649Y-65099639D01*
X134355368Y-65098559D01*
X134348229Y-65096771D01*
X134341299Y-65094291D01*
X134334645Y-65091144D01*
X134328332Y-65087360D01*
X134322421Y-65082976D01*
X134316967Y-65078033D01*
X134312024Y-65072579D01*
X134307640Y-65066668D01*
X134303856Y-65060355D01*
X134300709Y-65053701D01*
X134298229Y-65046771D01*
X134296441Y-65039632D01*
X134295361Y-65032351D01*
X134295000Y-65025000D01*
X134295000Y-64875000D01*
X134295361Y-64867649D01*
X134296441Y-64860368D01*
X134298229Y-64853229D01*
X134300709Y-64846299D01*
X134303856Y-64839645D01*
X134307640Y-64833332D01*
X134312024Y-64827421D01*
X134316967Y-64821967D01*
X134322421Y-64817024D01*
X134328332Y-64812640D01*
X134334645Y-64808856D01*
X134341299Y-64805709D01*
X134348229Y-64803229D01*
X134355368Y-64801441D01*
X134362649Y-64800361D01*
X134370000Y-64800000D01*
X135695000Y-64800000D01*
X135702351Y-64800361D01*
G37*
G36*
X135702351Y-64300361D02*
G01*
X135709632Y-64301441D01*
X135716771Y-64303229D01*
X135723701Y-64305709D01*
X135730355Y-64308856D01*
X135736668Y-64312640D01*
X135742579Y-64317024D01*
X135748033Y-64321967D01*
X135752976Y-64327421D01*
X135757360Y-64333332D01*
X135761144Y-64339645D01*
X135764291Y-64346299D01*
X135766771Y-64353229D01*
X135768559Y-64360368D01*
X135769639Y-64367649D01*
X135770000Y-64375000D01*
X135770000Y-64525000D01*
X135769639Y-64532351D01*
X135768559Y-64539632D01*
X135766771Y-64546771D01*
X135764291Y-64553701D01*
X135761144Y-64560355D01*
X135757360Y-64566668D01*
X135752976Y-64572579D01*
X135748033Y-64578033D01*
X135742579Y-64582976D01*
X135736668Y-64587360D01*
X135730355Y-64591144D01*
X135723701Y-64594291D01*
X135716771Y-64596771D01*
X135709632Y-64598559D01*
X135702351Y-64599639D01*
X135695000Y-64600000D01*
X134370000Y-64600000D01*
X134362649Y-64599639D01*
X134355368Y-64598559D01*
X134348229Y-64596771D01*
X134341299Y-64594291D01*
X134334645Y-64591144D01*
X134328332Y-64587360D01*
X134322421Y-64582976D01*
X134316967Y-64578033D01*
X134312024Y-64572579D01*
X134307640Y-64566668D01*
X134303856Y-64560355D01*
X134300709Y-64553701D01*
X134298229Y-64546771D01*
X134296441Y-64539632D01*
X134295361Y-64532351D01*
X134295000Y-64525000D01*
X134295000Y-64375000D01*
X134295361Y-64367649D01*
X134296441Y-64360368D01*
X134298229Y-64353229D01*
X134300709Y-64346299D01*
X134303856Y-64339645D01*
X134307640Y-64333332D01*
X134312024Y-64327421D01*
X134316967Y-64321967D01*
X134322421Y-64317024D01*
X134328332Y-64312640D01*
X134334645Y-64308856D01*
X134341299Y-64305709D01*
X134348229Y-64303229D01*
X134355368Y-64301441D01*
X134362649Y-64300361D01*
X134370000Y-64300000D01*
X135695000Y-64300000D01*
X135702351Y-64300361D01*
G37*
G36*
X133702351Y-62300361D02*
G01*
X133709632Y-62301441D01*
X133716771Y-62303229D01*
X133723701Y-62305709D01*
X133730355Y-62308856D01*
X133736668Y-62312640D01*
X133742579Y-62317024D01*
X133748033Y-62321967D01*
X133752976Y-62327421D01*
X133757360Y-62333332D01*
X133761144Y-62339645D01*
X133764291Y-62346299D01*
X133766771Y-62353229D01*
X133768559Y-62360368D01*
X133769639Y-62367649D01*
X133770000Y-62375000D01*
X133770000Y-63700000D01*
X133769639Y-63707351D01*
X133768559Y-63714632D01*
X133766771Y-63721771D01*
X133764291Y-63728701D01*
X133761144Y-63735355D01*
X133757360Y-63741668D01*
X133752976Y-63747579D01*
X133748033Y-63753033D01*
X133742579Y-63757976D01*
X133736668Y-63762360D01*
X133730355Y-63766144D01*
X133723701Y-63769291D01*
X133716771Y-63771771D01*
X133709632Y-63773559D01*
X133702351Y-63774639D01*
X133695000Y-63775000D01*
X133545000Y-63775000D01*
X133537649Y-63774639D01*
X133530368Y-63773559D01*
X133523229Y-63771771D01*
X133516299Y-63769291D01*
X133509645Y-63766144D01*
X133503332Y-63762360D01*
X133497421Y-63757976D01*
X133491967Y-63753033D01*
X133487024Y-63747579D01*
X133482640Y-63741668D01*
X133478856Y-63735355D01*
X133475709Y-63728701D01*
X133473229Y-63721771D01*
X133471441Y-63714632D01*
X133470361Y-63707351D01*
X133470000Y-63700000D01*
X133470000Y-62375000D01*
X133470361Y-62367649D01*
X133471441Y-62360368D01*
X133473229Y-62353229D01*
X133475709Y-62346299D01*
X133478856Y-62339645D01*
X133482640Y-62333332D01*
X133487024Y-62327421D01*
X133491967Y-62321967D01*
X133497421Y-62317024D01*
X133503332Y-62312640D01*
X133509645Y-62308856D01*
X133516299Y-62305709D01*
X133523229Y-62303229D01*
X133530368Y-62301441D01*
X133537649Y-62300361D01*
X133545000Y-62300000D01*
X133695000Y-62300000D01*
X133702351Y-62300361D01*
G37*
G36*
X133202351Y-62300361D02*
G01*
X133209632Y-62301441D01*
X133216771Y-62303229D01*
X133223701Y-62305709D01*
X133230355Y-62308856D01*
X133236668Y-62312640D01*
X133242579Y-62317024D01*
X133248033Y-62321967D01*
X133252976Y-62327421D01*
X133257360Y-62333332D01*
X133261144Y-62339645D01*
X133264291Y-62346299D01*
X133266771Y-62353229D01*
X133268559Y-62360368D01*
X133269639Y-62367649D01*
X133270000Y-62375000D01*
X133270000Y-63700000D01*
X133269639Y-63707351D01*
X133268559Y-63714632D01*
X133266771Y-63721771D01*
X133264291Y-63728701D01*
X133261144Y-63735355D01*
X133257360Y-63741668D01*
X133252976Y-63747579D01*
X133248033Y-63753033D01*
X133242579Y-63757976D01*
X133236668Y-63762360D01*
X133230355Y-63766144D01*
X133223701Y-63769291D01*
X133216771Y-63771771D01*
X133209632Y-63773559D01*
X133202351Y-63774639D01*
X133195000Y-63775000D01*
X133045000Y-63775000D01*
X133037649Y-63774639D01*
X133030368Y-63773559D01*
X133023229Y-63771771D01*
X133016299Y-63769291D01*
X133009645Y-63766144D01*
X133003332Y-63762360D01*
X132997421Y-63757976D01*
X132991967Y-63753033D01*
X132987024Y-63747579D01*
X132982640Y-63741668D01*
X132978856Y-63735355D01*
X132975709Y-63728701D01*
X132973229Y-63721771D01*
X132971441Y-63714632D01*
X132970361Y-63707351D01*
X132970000Y-63700000D01*
X132970000Y-62375000D01*
X132970361Y-62367649D01*
X132971441Y-62360368D01*
X132973229Y-62353229D01*
X132975709Y-62346299D01*
X132978856Y-62339645D01*
X132982640Y-62333332D01*
X132987024Y-62327421D01*
X132991967Y-62321967D01*
X132997421Y-62317024D01*
X133003332Y-62312640D01*
X133009645Y-62308856D01*
X133016299Y-62305709D01*
X133023229Y-62303229D01*
X133030368Y-62301441D01*
X133037649Y-62300361D01*
X133045000Y-62300000D01*
X133195000Y-62300000D01*
X133202351Y-62300361D01*
G37*
G36*
X132702351Y-62300361D02*
G01*
X132709632Y-62301441D01*
X132716771Y-62303229D01*
X132723701Y-62305709D01*
X132730355Y-62308856D01*
X132736668Y-62312640D01*
X132742579Y-62317024D01*
X132748033Y-62321967D01*
X132752976Y-62327421D01*
X132757360Y-62333332D01*
X132761144Y-62339645D01*
X132764291Y-62346299D01*
X132766771Y-62353229D01*
X132768559Y-62360368D01*
X132769639Y-62367649D01*
X132770000Y-62375000D01*
X132770000Y-63700000D01*
X132769639Y-63707351D01*
X132768559Y-63714632D01*
X132766771Y-63721771D01*
X132764291Y-63728701D01*
X132761144Y-63735355D01*
X132757360Y-63741668D01*
X132752976Y-63747579D01*
X132748033Y-63753033D01*
X132742579Y-63757976D01*
X132736668Y-63762360D01*
X132730355Y-63766144D01*
X132723701Y-63769291D01*
X132716771Y-63771771D01*
X132709632Y-63773559D01*
X132702351Y-63774639D01*
X132695000Y-63775000D01*
X132545000Y-63775000D01*
X132537649Y-63774639D01*
X132530368Y-63773559D01*
X132523229Y-63771771D01*
X132516299Y-63769291D01*
X132509645Y-63766144D01*
X132503332Y-63762360D01*
X132497421Y-63757976D01*
X132491967Y-63753033D01*
X132487024Y-63747579D01*
X132482640Y-63741668D01*
X132478856Y-63735355D01*
X132475709Y-63728701D01*
X132473229Y-63721771D01*
X132471441Y-63714632D01*
X132470361Y-63707351D01*
X132470000Y-63700000D01*
X132470000Y-62375000D01*
X132470361Y-62367649D01*
X132471441Y-62360368D01*
X132473229Y-62353229D01*
X132475709Y-62346299D01*
X132478856Y-62339645D01*
X132482640Y-62333332D01*
X132487024Y-62327421D01*
X132491967Y-62321967D01*
X132497421Y-62317024D01*
X132503332Y-62312640D01*
X132509645Y-62308856D01*
X132516299Y-62305709D01*
X132523229Y-62303229D01*
X132530368Y-62301441D01*
X132537649Y-62300361D01*
X132545000Y-62300000D01*
X132695000Y-62300000D01*
X132702351Y-62300361D01*
G37*
G36*
X132202351Y-62300361D02*
G01*
X132209632Y-62301441D01*
X132216771Y-62303229D01*
X132223701Y-62305709D01*
X132230355Y-62308856D01*
X132236668Y-62312640D01*
X132242579Y-62317024D01*
X132248033Y-62321967D01*
X132252976Y-62327421D01*
X132257360Y-62333332D01*
X132261144Y-62339645D01*
X132264291Y-62346299D01*
X132266771Y-62353229D01*
X132268559Y-62360368D01*
X132269639Y-62367649D01*
X132270000Y-62375000D01*
X132270000Y-63700000D01*
X132269639Y-63707351D01*
X132268559Y-63714632D01*
X132266771Y-63721771D01*
X132264291Y-63728701D01*
X132261144Y-63735355D01*
X132257360Y-63741668D01*
X132252976Y-63747579D01*
X132248033Y-63753033D01*
X132242579Y-63757976D01*
X132236668Y-63762360D01*
X132230355Y-63766144D01*
X132223701Y-63769291D01*
X132216771Y-63771771D01*
X132209632Y-63773559D01*
X132202351Y-63774639D01*
X132195000Y-63775000D01*
X132045000Y-63775000D01*
X132037649Y-63774639D01*
X132030368Y-63773559D01*
X132023229Y-63771771D01*
X132016299Y-63769291D01*
X132009645Y-63766144D01*
X132003332Y-63762360D01*
X131997421Y-63757976D01*
X131991967Y-63753033D01*
X131987024Y-63747579D01*
X131982640Y-63741668D01*
X131978856Y-63735355D01*
X131975709Y-63728701D01*
X131973229Y-63721771D01*
X131971441Y-63714632D01*
X131970361Y-63707351D01*
X131970000Y-63700000D01*
X131970000Y-62375000D01*
X131970361Y-62367649D01*
X131971441Y-62360368D01*
X131973229Y-62353229D01*
X131975709Y-62346299D01*
X131978856Y-62339645D01*
X131982640Y-62333332D01*
X131987024Y-62327421D01*
X131991967Y-62321967D01*
X131997421Y-62317024D01*
X132003332Y-62312640D01*
X132009645Y-62308856D01*
X132016299Y-62305709D01*
X132023229Y-62303229D01*
X132030368Y-62301441D01*
X132037649Y-62300361D01*
X132045000Y-62300000D01*
X132195000Y-62300000D01*
X132202351Y-62300361D01*
G37*
G36*
X131702351Y-62300361D02*
G01*
X131709632Y-62301441D01*
X131716771Y-62303229D01*
X131723701Y-62305709D01*
X131730355Y-62308856D01*
X131736668Y-62312640D01*
X131742579Y-62317024D01*
X131748033Y-62321967D01*
X131752976Y-62327421D01*
X131757360Y-62333332D01*
X131761144Y-62339645D01*
X131764291Y-62346299D01*
X131766771Y-62353229D01*
X131768559Y-62360368D01*
X131769639Y-62367649D01*
X131770000Y-62375000D01*
X131770000Y-63700000D01*
X131769639Y-63707351D01*
X131768559Y-63714632D01*
X131766771Y-63721771D01*
X131764291Y-63728701D01*
X131761144Y-63735355D01*
X131757360Y-63741668D01*
X131752976Y-63747579D01*
X131748033Y-63753033D01*
X131742579Y-63757976D01*
X131736668Y-63762360D01*
X131730355Y-63766144D01*
X131723701Y-63769291D01*
X131716771Y-63771771D01*
X131709632Y-63773559D01*
X131702351Y-63774639D01*
X131695000Y-63775000D01*
X131545000Y-63775000D01*
X131537649Y-63774639D01*
X131530368Y-63773559D01*
X131523229Y-63771771D01*
X131516299Y-63769291D01*
X131509645Y-63766144D01*
X131503332Y-63762360D01*
X131497421Y-63757976D01*
X131491967Y-63753033D01*
X131487024Y-63747579D01*
X131482640Y-63741668D01*
X131478856Y-63735355D01*
X131475709Y-63728701D01*
X131473229Y-63721771D01*
X131471441Y-63714632D01*
X131470361Y-63707351D01*
X131470000Y-63700000D01*
X131470000Y-62375000D01*
X131470361Y-62367649D01*
X131471441Y-62360368D01*
X131473229Y-62353229D01*
X131475709Y-62346299D01*
X131478856Y-62339645D01*
X131482640Y-62333332D01*
X131487024Y-62327421D01*
X131491967Y-62321967D01*
X131497421Y-62317024D01*
X131503332Y-62312640D01*
X131509645Y-62308856D01*
X131516299Y-62305709D01*
X131523229Y-62303229D01*
X131530368Y-62301441D01*
X131537649Y-62300361D01*
X131545000Y-62300000D01*
X131695000Y-62300000D01*
X131702351Y-62300361D01*
G37*
G36*
X131202351Y-62300361D02*
G01*
X131209632Y-62301441D01*
X131216771Y-62303229D01*
X131223701Y-62305709D01*
X131230355Y-62308856D01*
X131236668Y-62312640D01*
X131242579Y-62317024D01*
X131248033Y-62321967D01*
X131252976Y-62327421D01*
X131257360Y-62333332D01*
X131261144Y-62339645D01*
X131264291Y-62346299D01*
X131266771Y-62353229D01*
X131268559Y-62360368D01*
X131269639Y-62367649D01*
X131270000Y-62375000D01*
X131270000Y-63700000D01*
X131269639Y-63707351D01*
X131268559Y-63714632D01*
X131266771Y-63721771D01*
X131264291Y-63728701D01*
X131261144Y-63735355D01*
X131257360Y-63741668D01*
X131252976Y-63747579D01*
X131248033Y-63753033D01*
X131242579Y-63757976D01*
X131236668Y-63762360D01*
X131230355Y-63766144D01*
X131223701Y-63769291D01*
X131216771Y-63771771D01*
X131209632Y-63773559D01*
X131202351Y-63774639D01*
X131195000Y-63775000D01*
X131045000Y-63775000D01*
X131037649Y-63774639D01*
X131030368Y-63773559D01*
X131023229Y-63771771D01*
X131016299Y-63769291D01*
X131009645Y-63766144D01*
X131003332Y-63762360D01*
X130997421Y-63757976D01*
X130991967Y-63753033D01*
X130987024Y-63747579D01*
X130982640Y-63741668D01*
X130978856Y-63735355D01*
X130975709Y-63728701D01*
X130973229Y-63721771D01*
X130971441Y-63714632D01*
X130970361Y-63707351D01*
X130970000Y-63700000D01*
X130970000Y-62375000D01*
X130970361Y-62367649D01*
X130971441Y-62360368D01*
X130973229Y-62353229D01*
X130975709Y-62346299D01*
X130978856Y-62339645D01*
X130982640Y-62333332D01*
X130987024Y-62327421D01*
X130991967Y-62321967D01*
X130997421Y-62317024D01*
X131003332Y-62312640D01*
X131009645Y-62308856D01*
X131016299Y-62305709D01*
X131023229Y-62303229D01*
X131030368Y-62301441D01*
X131037649Y-62300361D01*
X131045000Y-62300000D01*
X131195000Y-62300000D01*
X131202351Y-62300361D01*
G37*
G36*
X130702351Y-62300361D02*
G01*
X130709632Y-62301441D01*
X130716771Y-62303229D01*
X130723701Y-62305709D01*
X130730355Y-62308856D01*
X130736668Y-62312640D01*
X130742579Y-62317024D01*
X130748033Y-62321967D01*
X130752976Y-62327421D01*
X130757360Y-62333332D01*
X130761144Y-62339645D01*
X130764291Y-62346299D01*
X130766771Y-62353229D01*
X130768559Y-62360368D01*
X130769639Y-62367649D01*
X130770000Y-62375000D01*
X130770000Y-63700000D01*
X130769639Y-63707351D01*
X130768559Y-63714632D01*
X130766771Y-63721771D01*
X130764291Y-63728701D01*
X130761144Y-63735355D01*
X130757360Y-63741668D01*
X130752976Y-63747579D01*
X130748033Y-63753033D01*
X130742579Y-63757976D01*
X130736668Y-63762360D01*
X130730355Y-63766144D01*
X130723701Y-63769291D01*
X130716771Y-63771771D01*
X130709632Y-63773559D01*
X130702351Y-63774639D01*
X130695000Y-63775000D01*
X130545000Y-63775000D01*
X130537649Y-63774639D01*
X130530368Y-63773559D01*
X130523229Y-63771771D01*
X130516299Y-63769291D01*
X130509645Y-63766144D01*
X130503332Y-63762360D01*
X130497421Y-63757976D01*
X130491967Y-63753033D01*
X130487024Y-63747579D01*
X130482640Y-63741668D01*
X130478856Y-63735355D01*
X130475709Y-63728701D01*
X130473229Y-63721771D01*
X130471441Y-63714632D01*
X130470361Y-63707351D01*
X130470000Y-63700000D01*
X130470000Y-62375000D01*
X130470361Y-62367649D01*
X130471441Y-62360368D01*
X130473229Y-62353229D01*
X130475709Y-62346299D01*
X130478856Y-62339645D01*
X130482640Y-62333332D01*
X130487024Y-62327421D01*
X130491967Y-62321967D01*
X130497421Y-62317024D01*
X130503332Y-62312640D01*
X130509645Y-62308856D01*
X130516299Y-62305709D01*
X130523229Y-62303229D01*
X130530368Y-62301441D01*
X130537649Y-62300361D01*
X130545000Y-62300000D01*
X130695000Y-62300000D01*
X130702351Y-62300361D01*
G37*
G36*
X130202351Y-62300361D02*
G01*
X130209632Y-62301441D01*
X130216771Y-62303229D01*
X130223701Y-62305709D01*
X130230355Y-62308856D01*
X130236668Y-62312640D01*
X130242579Y-62317024D01*
X130248033Y-62321967D01*
X130252976Y-62327421D01*
X130257360Y-62333332D01*
X130261144Y-62339645D01*
X130264291Y-62346299D01*
X130266771Y-62353229D01*
X130268559Y-62360368D01*
X130269639Y-62367649D01*
X130270000Y-62375000D01*
X130270000Y-63700000D01*
X130269639Y-63707351D01*
X130268559Y-63714632D01*
X130266771Y-63721771D01*
X130264291Y-63728701D01*
X130261144Y-63735355D01*
X130257360Y-63741668D01*
X130252976Y-63747579D01*
X130248033Y-63753033D01*
X130242579Y-63757976D01*
X130236668Y-63762360D01*
X130230355Y-63766144D01*
X130223701Y-63769291D01*
X130216771Y-63771771D01*
X130209632Y-63773559D01*
X130202351Y-63774639D01*
X130195000Y-63775000D01*
X130045000Y-63775000D01*
X130037649Y-63774639D01*
X130030368Y-63773559D01*
X130023229Y-63771771D01*
X130016299Y-63769291D01*
X130009645Y-63766144D01*
X130003332Y-63762360D01*
X129997421Y-63757976D01*
X129991967Y-63753033D01*
X129987024Y-63747579D01*
X129982640Y-63741668D01*
X129978856Y-63735355D01*
X129975709Y-63728701D01*
X129973229Y-63721771D01*
X129971441Y-63714632D01*
X129970361Y-63707351D01*
X129970000Y-63700000D01*
X129970000Y-62375000D01*
X129970361Y-62367649D01*
X129971441Y-62360368D01*
X129973229Y-62353229D01*
X129975709Y-62346299D01*
X129978856Y-62339645D01*
X129982640Y-62333332D01*
X129987024Y-62327421D01*
X129991967Y-62321967D01*
X129997421Y-62317024D01*
X130003332Y-62312640D01*
X130009645Y-62308856D01*
X130016299Y-62305709D01*
X130023229Y-62303229D01*
X130030368Y-62301441D01*
X130037649Y-62300361D01*
X130045000Y-62300000D01*
X130195000Y-62300000D01*
X130202351Y-62300361D01*
G37*
G36*
X129702351Y-62300361D02*
G01*
X129709632Y-62301441D01*
X129716771Y-62303229D01*
X129723701Y-62305709D01*
X129730355Y-62308856D01*
X129736668Y-62312640D01*
X129742579Y-62317024D01*
X129748033Y-62321967D01*
X129752976Y-62327421D01*
X129757360Y-62333332D01*
X129761144Y-62339645D01*
X129764291Y-62346299D01*
X129766771Y-62353229D01*
X129768559Y-62360368D01*
X129769639Y-62367649D01*
X129770000Y-62375000D01*
X129770000Y-63700000D01*
X129769639Y-63707351D01*
X129768559Y-63714632D01*
X129766771Y-63721771D01*
X129764291Y-63728701D01*
X129761144Y-63735355D01*
X129757360Y-63741668D01*
X129752976Y-63747579D01*
X129748033Y-63753033D01*
X129742579Y-63757976D01*
X129736668Y-63762360D01*
X129730355Y-63766144D01*
X129723701Y-63769291D01*
X129716771Y-63771771D01*
X129709632Y-63773559D01*
X129702351Y-63774639D01*
X129695000Y-63775000D01*
X129545000Y-63775000D01*
X129537649Y-63774639D01*
X129530368Y-63773559D01*
X129523229Y-63771771D01*
X129516299Y-63769291D01*
X129509645Y-63766144D01*
X129503332Y-63762360D01*
X129497421Y-63757976D01*
X129491967Y-63753033D01*
X129487024Y-63747579D01*
X129482640Y-63741668D01*
X129478856Y-63735355D01*
X129475709Y-63728701D01*
X129473229Y-63721771D01*
X129471441Y-63714632D01*
X129470361Y-63707351D01*
X129470000Y-63700000D01*
X129470000Y-62375000D01*
X129470361Y-62367649D01*
X129471441Y-62360368D01*
X129473229Y-62353229D01*
X129475709Y-62346299D01*
X129478856Y-62339645D01*
X129482640Y-62333332D01*
X129487024Y-62327421D01*
X129491967Y-62321967D01*
X129497421Y-62317024D01*
X129503332Y-62312640D01*
X129509645Y-62308856D01*
X129516299Y-62305709D01*
X129523229Y-62303229D01*
X129530368Y-62301441D01*
X129537649Y-62300361D01*
X129545000Y-62300000D01*
X129695000Y-62300000D01*
X129702351Y-62300361D01*
G37*
G36*
X129202351Y-62300361D02*
G01*
X129209632Y-62301441D01*
X129216771Y-62303229D01*
X129223701Y-62305709D01*
X129230355Y-62308856D01*
X129236668Y-62312640D01*
X129242579Y-62317024D01*
X129248033Y-62321967D01*
X129252976Y-62327421D01*
X129257360Y-62333332D01*
X129261144Y-62339645D01*
X129264291Y-62346299D01*
X129266771Y-62353229D01*
X129268559Y-62360368D01*
X129269639Y-62367649D01*
X129270000Y-62375000D01*
X129270000Y-63700000D01*
X129269639Y-63707351D01*
X129268559Y-63714632D01*
X129266771Y-63721771D01*
X129264291Y-63728701D01*
X129261144Y-63735355D01*
X129257360Y-63741668D01*
X129252976Y-63747579D01*
X129248033Y-63753033D01*
X129242579Y-63757976D01*
X129236668Y-63762360D01*
X129230355Y-63766144D01*
X129223701Y-63769291D01*
X129216771Y-63771771D01*
X129209632Y-63773559D01*
X129202351Y-63774639D01*
X129195000Y-63775000D01*
X129045000Y-63775000D01*
X129037649Y-63774639D01*
X129030368Y-63773559D01*
X129023229Y-63771771D01*
X129016299Y-63769291D01*
X129009645Y-63766144D01*
X129003332Y-63762360D01*
X128997421Y-63757976D01*
X128991967Y-63753033D01*
X128987024Y-63747579D01*
X128982640Y-63741668D01*
X128978856Y-63735355D01*
X128975709Y-63728701D01*
X128973229Y-63721771D01*
X128971441Y-63714632D01*
X128970361Y-63707351D01*
X128970000Y-63700000D01*
X128970000Y-62375000D01*
X128970361Y-62367649D01*
X128971441Y-62360368D01*
X128973229Y-62353229D01*
X128975709Y-62346299D01*
X128978856Y-62339645D01*
X128982640Y-62333332D01*
X128987024Y-62327421D01*
X128991967Y-62321967D01*
X128997421Y-62317024D01*
X129003332Y-62312640D01*
X129009645Y-62308856D01*
X129016299Y-62305709D01*
X129023229Y-62303229D01*
X129030368Y-62301441D01*
X129037649Y-62300361D01*
X129045000Y-62300000D01*
X129195000Y-62300000D01*
X129202351Y-62300361D01*
G37*
G36*
X128702351Y-62300361D02*
G01*
X128709632Y-62301441D01*
X128716771Y-62303229D01*
X128723701Y-62305709D01*
X128730355Y-62308856D01*
X128736668Y-62312640D01*
X128742579Y-62317024D01*
X128748033Y-62321967D01*
X128752976Y-62327421D01*
X128757360Y-62333332D01*
X128761144Y-62339645D01*
X128764291Y-62346299D01*
X128766771Y-62353229D01*
X128768559Y-62360368D01*
X128769639Y-62367649D01*
X128770000Y-62375000D01*
X128770000Y-63700000D01*
X128769639Y-63707351D01*
X128768559Y-63714632D01*
X128766771Y-63721771D01*
X128764291Y-63728701D01*
X128761144Y-63735355D01*
X128757360Y-63741668D01*
X128752976Y-63747579D01*
X128748033Y-63753033D01*
X128742579Y-63757976D01*
X128736668Y-63762360D01*
X128730355Y-63766144D01*
X128723701Y-63769291D01*
X128716771Y-63771771D01*
X128709632Y-63773559D01*
X128702351Y-63774639D01*
X128695000Y-63775000D01*
X128545000Y-63775000D01*
X128537649Y-63774639D01*
X128530368Y-63773559D01*
X128523229Y-63771771D01*
X128516299Y-63769291D01*
X128509645Y-63766144D01*
X128503332Y-63762360D01*
X128497421Y-63757976D01*
X128491967Y-63753033D01*
X128487024Y-63747579D01*
X128482640Y-63741668D01*
X128478856Y-63735355D01*
X128475709Y-63728701D01*
X128473229Y-63721771D01*
X128471441Y-63714632D01*
X128470361Y-63707351D01*
X128470000Y-63700000D01*
X128470000Y-62375000D01*
X128470361Y-62367649D01*
X128471441Y-62360368D01*
X128473229Y-62353229D01*
X128475709Y-62346299D01*
X128478856Y-62339645D01*
X128482640Y-62333332D01*
X128487024Y-62327421D01*
X128491967Y-62321967D01*
X128497421Y-62317024D01*
X128503332Y-62312640D01*
X128509645Y-62308856D01*
X128516299Y-62305709D01*
X128523229Y-62303229D01*
X128530368Y-62301441D01*
X128537649Y-62300361D01*
X128545000Y-62300000D01*
X128695000Y-62300000D01*
X128702351Y-62300361D01*
G37*
G36*
X128202351Y-62300361D02*
G01*
X128209632Y-62301441D01*
X128216771Y-62303229D01*
X128223701Y-62305709D01*
X128230355Y-62308856D01*
X128236668Y-62312640D01*
X128242579Y-62317024D01*
X128248033Y-62321967D01*
X128252976Y-62327421D01*
X128257360Y-62333332D01*
X128261144Y-62339645D01*
X128264291Y-62346299D01*
X128266771Y-62353229D01*
X128268559Y-62360368D01*
X128269639Y-62367649D01*
X128270000Y-62375000D01*
X128270000Y-63700000D01*
X128269639Y-63707351D01*
X128268559Y-63714632D01*
X128266771Y-63721771D01*
X128264291Y-63728701D01*
X128261144Y-63735355D01*
X128257360Y-63741668D01*
X128252976Y-63747579D01*
X128248033Y-63753033D01*
X128242579Y-63757976D01*
X128236668Y-63762360D01*
X128230355Y-63766144D01*
X128223701Y-63769291D01*
X128216771Y-63771771D01*
X128209632Y-63773559D01*
X128202351Y-63774639D01*
X128195000Y-63775000D01*
X128045000Y-63775000D01*
X128037649Y-63774639D01*
X128030368Y-63773559D01*
X128023229Y-63771771D01*
X128016299Y-63769291D01*
X128009645Y-63766144D01*
X128003332Y-63762360D01*
X127997421Y-63757976D01*
X127991967Y-63753033D01*
X127987024Y-63747579D01*
X127982640Y-63741668D01*
X127978856Y-63735355D01*
X127975709Y-63728701D01*
X127973229Y-63721771D01*
X127971441Y-63714632D01*
X127970361Y-63707351D01*
X127970000Y-63700000D01*
X127970000Y-62375000D01*
X127970361Y-62367649D01*
X127971441Y-62360368D01*
X127973229Y-62353229D01*
X127975709Y-62346299D01*
X127978856Y-62339645D01*
X127982640Y-62333332D01*
X127987024Y-62327421D01*
X127991967Y-62321967D01*
X127997421Y-62317024D01*
X128003332Y-62312640D01*
X128009645Y-62308856D01*
X128016299Y-62305709D01*
X128023229Y-62303229D01*
X128030368Y-62301441D01*
X128037649Y-62300361D01*
X128045000Y-62300000D01*
X128195000Y-62300000D01*
X128202351Y-62300361D01*
G37*
G36*
X124186958Y-71190710D02*
G01*
X124201276Y-71192834D01*
X124215317Y-71196351D01*
X124228946Y-71201228D01*
X124242031Y-71207417D01*
X124254447Y-71214858D01*
X124266073Y-71223481D01*
X124276798Y-71233202D01*
X124286519Y-71243927D01*
X124295142Y-71255553D01*
X124302583Y-71267969D01*
X124308772Y-71281054D01*
X124313649Y-71294683D01*
X124317166Y-71308724D01*
X124319290Y-71323042D01*
X124320000Y-71337500D01*
X124320000Y-71632500D01*
X124319290Y-71646958D01*
X124317166Y-71661276D01*
X124313649Y-71675317D01*
X124308772Y-71688946D01*
X124302583Y-71702031D01*
X124295142Y-71714447D01*
X124286519Y-71726073D01*
X124276798Y-71736798D01*
X124266073Y-71746519D01*
X124254447Y-71755142D01*
X124242031Y-71762583D01*
X124228946Y-71768772D01*
X124215317Y-71773649D01*
X124201276Y-71777166D01*
X124186958Y-71779290D01*
X124172500Y-71780000D01*
X123827500Y-71780000D01*
X123813042Y-71779290D01*
X123798724Y-71777166D01*
X123784683Y-71773649D01*
X123771054Y-71768772D01*
X123757969Y-71762583D01*
X123745553Y-71755142D01*
X123733927Y-71746519D01*
X123723202Y-71736798D01*
X123713481Y-71726073D01*
X123704858Y-71714447D01*
X123697417Y-71702031D01*
X123691228Y-71688946D01*
X123686351Y-71675317D01*
X123682834Y-71661276D01*
X123680710Y-71646958D01*
X123680000Y-71632500D01*
X123680000Y-71337500D01*
X123680710Y-71323042D01*
X123682834Y-71308724D01*
X123686351Y-71294683D01*
X123691228Y-71281054D01*
X123697417Y-71267969D01*
X123704858Y-71255553D01*
X123713481Y-71243927D01*
X123723202Y-71233202D01*
X123733927Y-71223481D01*
X123745553Y-71214858D01*
X123757969Y-71207417D01*
X123771054Y-71201228D01*
X123784683Y-71196351D01*
X123798724Y-71192834D01*
X123813042Y-71190710D01*
X123827500Y-71190000D01*
X124172500Y-71190000D01*
X124186958Y-71190710D01*
G37*
G36*
X124186958Y-70220710D02*
G01*
X124201276Y-70222834D01*
X124215317Y-70226351D01*
X124228946Y-70231228D01*
X124242031Y-70237417D01*
X124254447Y-70244858D01*
X124266073Y-70253481D01*
X124276798Y-70263202D01*
X124286519Y-70273927D01*
X124295142Y-70285553D01*
X124302583Y-70297969D01*
X124308772Y-70311054D01*
X124313649Y-70324683D01*
X124317166Y-70338724D01*
X124319290Y-70353042D01*
X124320000Y-70367500D01*
X124320000Y-70662500D01*
X124319290Y-70676958D01*
X124317166Y-70691276D01*
X124313649Y-70705317D01*
X124308772Y-70718946D01*
X124302583Y-70732031D01*
X124295142Y-70744447D01*
X124286519Y-70756073D01*
X124276798Y-70766798D01*
X124266073Y-70776519D01*
X124254447Y-70785142D01*
X124242031Y-70792583D01*
X124228946Y-70798772D01*
X124215317Y-70803649D01*
X124201276Y-70807166D01*
X124186958Y-70809290D01*
X124172500Y-70810000D01*
X123827500Y-70810000D01*
X123813042Y-70809290D01*
X123798724Y-70807166D01*
X123784683Y-70803649D01*
X123771054Y-70798772D01*
X123757969Y-70792583D01*
X123745553Y-70785142D01*
X123733927Y-70776519D01*
X123723202Y-70766798D01*
X123713481Y-70756073D01*
X123704858Y-70744447D01*
X123697417Y-70732031D01*
X123691228Y-70718946D01*
X123686351Y-70705317D01*
X123682834Y-70691276D01*
X123680710Y-70676958D01*
X123680000Y-70662500D01*
X123680000Y-70367500D01*
X123680710Y-70353042D01*
X123682834Y-70338724D01*
X123686351Y-70324683D01*
X123691228Y-70311054D01*
X123697417Y-70297969D01*
X123704858Y-70285553D01*
X123713481Y-70273927D01*
X123723202Y-70263202D01*
X123733927Y-70253481D01*
X123745553Y-70244858D01*
X123757969Y-70237417D01*
X123771054Y-70231228D01*
X123784683Y-70226351D01*
X123798724Y-70222834D01*
X123813042Y-70220710D01*
X123827500Y-70220000D01*
X124172500Y-70220000D01*
X124186958Y-70220710D01*
G37*
G36*
X126546958Y-70780710D02*
G01*
X126561276Y-70782834D01*
X126575317Y-70786351D01*
X126588946Y-70791228D01*
X126602031Y-70797417D01*
X126614447Y-70804858D01*
X126626073Y-70813481D01*
X126636798Y-70823202D01*
X126646519Y-70833927D01*
X126655142Y-70845553D01*
X126662583Y-70857969D01*
X126668772Y-70871054D01*
X126673649Y-70884683D01*
X126677166Y-70898724D01*
X126679290Y-70913042D01*
X126680000Y-70927500D01*
X126680000Y-71272500D01*
X126679290Y-71286958D01*
X126677166Y-71301276D01*
X126673649Y-71315317D01*
X126668772Y-71328946D01*
X126662583Y-71342031D01*
X126655142Y-71354447D01*
X126646519Y-71366073D01*
X126636798Y-71376798D01*
X126626073Y-71386519D01*
X126614447Y-71395142D01*
X126602031Y-71402583D01*
X126588946Y-71408772D01*
X126575317Y-71413649D01*
X126561276Y-71417166D01*
X126546958Y-71419290D01*
X126532500Y-71420000D01*
X126237500Y-71420000D01*
X126223042Y-71419290D01*
X126208724Y-71417166D01*
X126194683Y-71413649D01*
X126181054Y-71408772D01*
X126167969Y-71402583D01*
X126155553Y-71395142D01*
X126143927Y-71386519D01*
X126133202Y-71376798D01*
X126123481Y-71366073D01*
X126114858Y-71354447D01*
X126107417Y-71342031D01*
X126101228Y-71328946D01*
X126096351Y-71315317D01*
X126092834Y-71301276D01*
X126090710Y-71286958D01*
X126090000Y-71272500D01*
X126090000Y-70927500D01*
X126090710Y-70913042D01*
X126092834Y-70898724D01*
X126096351Y-70884683D01*
X126101228Y-70871054D01*
X126107417Y-70857969D01*
X126114858Y-70845553D01*
X126123481Y-70833927D01*
X126133202Y-70823202D01*
X126143927Y-70813481D01*
X126155553Y-70804858D01*
X126167969Y-70797417D01*
X126181054Y-70791228D01*
X126194683Y-70786351D01*
X126208724Y-70782834D01*
X126223042Y-70780710D01*
X126237500Y-70780000D01*
X126532500Y-70780000D01*
X126546958Y-70780710D01*
G37*
G36*
X125576958Y-70780710D02*
G01*
X125591276Y-70782834D01*
X125605317Y-70786351D01*
X125618946Y-70791228D01*
X125632031Y-70797417D01*
X125644447Y-70804858D01*
X125656073Y-70813481D01*
X125666798Y-70823202D01*
X125676519Y-70833927D01*
X125685142Y-70845553D01*
X125692583Y-70857969D01*
X125698772Y-70871054D01*
X125703649Y-70884683D01*
X125707166Y-70898724D01*
X125709290Y-70913042D01*
X125710000Y-70927500D01*
X125710000Y-71272500D01*
X125709290Y-71286958D01*
X125707166Y-71301276D01*
X125703649Y-71315317D01*
X125698772Y-71328946D01*
X125692583Y-71342031D01*
X125685142Y-71354447D01*
X125676519Y-71366073D01*
X125666798Y-71376798D01*
X125656073Y-71386519D01*
X125644447Y-71395142D01*
X125632031Y-71402583D01*
X125618946Y-71408772D01*
X125605317Y-71413649D01*
X125591276Y-71417166D01*
X125576958Y-71419290D01*
X125562500Y-71420000D01*
X125267500Y-71420000D01*
X125253042Y-71419290D01*
X125238724Y-71417166D01*
X125224683Y-71413649D01*
X125211054Y-71408772D01*
X125197969Y-71402583D01*
X125185553Y-71395142D01*
X125173927Y-71386519D01*
X125163202Y-71376798D01*
X125153481Y-71366073D01*
X125144858Y-71354447D01*
X125137417Y-71342031D01*
X125131228Y-71328946D01*
X125126351Y-71315317D01*
X125122834Y-71301276D01*
X125120710Y-71286958D01*
X125120000Y-71272500D01*
X125120000Y-70927500D01*
X125120710Y-70913042D01*
X125122834Y-70898724D01*
X125126351Y-70884683D01*
X125131228Y-70871054D01*
X125137417Y-70857969D01*
X125144858Y-70845553D01*
X125153481Y-70833927D01*
X125163202Y-70823202D01*
X125173927Y-70813481D01*
X125185553Y-70804858D01*
X125197969Y-70797417D01*
X125211054Y-70791228D01*
X125224683Y-70786351D01*
X125238724Y-70782834D01*
X125253042Y-70780710D01*
X125267500Y-70780000D01*
X125562500Y-70780000D01*
X125576958Y-70780710D01*
G37*
G36*
X123186958Y-66220710D02*
G01*
X123201276Y-66222834D01*
X123215317Y-66226351D01*
X123228946Y-66231228D01*
X123242031Y-66237417D01*
X123254447Y-66244858D01*
X123266073Y-66253481D01*
X123276798Y-66263202D01*
X123286519Y-66273927D01*
X123295142Y-66285553D01*
X123302583Y-66297969D01*
X123308772Y-66311054D01*
X123313649Y-66324683D01*
X123317166Y-66338724D01*
X123319290Y-66353042D01*
X123320000Y-66367500D01*
X123320000Y-66662500D01*
X123319290Y-66676958D01*
X123317166Y-66691276D01*
X123313649Y-66705317D01*
X123308772Y-66718946D01*
X123302583Y-66732031D01*
X123295142Y-66744447D01*
X123286519Y-66756073D01*
X123276798Y-66766798D01*
X123266073Y-66776519D01*
X123254447Y-66785142D01*
X123242031Y-66792583D01*
X123228946Y-66798772D01*
X123215317Y-66803649D01*
X123201276Y-66807166D01*
X123186958Y-66809290D01*
X123172500Y-66810000D01*
X122827500Y-66810000D01*
X122813042Y-66809290D01*
X122798724Y-66807166D01*
X122784683Y-66803649D01*
X122771054Y-66798772D01*
X122757969Y-66792583D01*
X122745553Y-66785142D01*
X122733927Y-66776519D01*
X122723202Y-66766798D01*
X122713481Y-66756073D01*
X122704858Y-66744447D01*
X122697417Y-66732031D01*
X122691228Y-66718946D01*
X122686351Y-66705317D01*
X122682834Y-66691276D01*
X122680710Y-66676958D01*
X122680000Y-66662500D01*
X122680000Y-66367500D01*
X122680710Y-66353042D01*
X122682834Y-66338724D01*
X122686351Y-66324683D01*
X122691228Y-66311054D01*
X122697417Y-66297969D01*
X122704858Y-66285553D01*
X122713481Y-66273927D01*
X122723202Y-66263202D01*
X122733927Y-66253481D01*
X122745553Y-66244858D01*
X122757969Y-66237417D01*
X122771054Y-66231228D01*
X122784683Y-66226351D01*
X122798724Y-66222834D01*
X122813042Y-66220710D01*
X122827500Y-66220000D01*
X123172500Y-66220000D01*
X123186958Y-66220710D01*
G37*
G36*
X123186958Y-67190710D02*
G01*
X123201276Y-67192834D01*
X123215317Y-67196351D01*
X123228946Y-67201228D01*
X123242031Y-67207417D01*
X123254447Y-67214858D01*
X123266073Y-67223481D01*
X123276798Y-67233202D01*
X123286519Y-67243927D01*
X123295142Y-67255553D01*
X123302583Y-67267969D01*
X123308772Y-67281054D01*
X123313649Y-67294683D01*
X123317166Y-67308724D01*
X123319290Y-67323042D01*
X123320000Y-67337500D01*
X123320000Y-67632500D01*
X123319290Y-67646958D01*
X123317166Y-67661276D01*
X123313649Y-67675317D01*
X123308772Y-67688946D01*
X123302583Y-67702031D01*
X123295142Y-67714447D01*
X123286519Y-67726073D01*
X123276798Y-67736798D01*
X123266073Y-67746519D01*
X123254447Y-67755142D01*
X123242031Y-67762583D01*
X123228946Y-67768772D01*
X123215317Y-67773649D01*
X123201276Y-67777166D01*
X123186958Y-67779290D01*
X123172500Y-67780000D01*
X122827500Y-67780000D01*
X122813042Y-67779290D01*
X122798724Y-67777166D01*
X122784683Y-67773649D01*
X122771054Y-67768772D01*
X122757969Y-67762583D01*
X122745553Y-67755142D01*
X122733927Y-67746519D01*
X122723202Y-67736798D01*
X122713481Y-67726073D01*
X122704858Y-67714447D01*
X122697417Y-67702031D01*
X122691228Y-67688946D01*
X122686351Y-67675317D01*
X122682834Y-67661276D01*
X122680710Y-67646958D01*
X122680000Y-67632500D01*
X122680000Y-67337500D01*
X122680710Y-67323042D01*
X122682834Y-67308724D01*
X122686351Y-67294683D01*
X122691228Y-67281054D01*
X122697417Y-67267969D01*
X122704858Y-67255553D01*
X122713481Y-67243927D01*
X122723202Y-67233202D01*
X122733927Y-67223481D01*
X122745553Y-67214858D01*
X122757969Y-67207417D01*
X122771054Y-67201228D01*
X122784683Y-67196351D01*
X122798724Y-67192834D01*
X122813042Y-67190710D01*
X122827500Y-67190000D01*
X123172500Y-67190000D01*
X123186958Y-67190710D01*
G37*
G36*
X124186958Y-67190710D02*
G01*
X124201276Y-67192834D01*
X124215317Y-67196351D01*
X124228946Y-67201228D01*
X124242031Y-67207417D01*
X124254447Y-67214858D01*
X124266073Y-67223481D01*
X124276798Y-67233202D01*
X124286519Y-67243927D01*
X124295142Y-67255553D01*
X124302583Y-67267969D01*
X124308772Y-67281054D01*
X124313649Y-67294683D01*
X124317166Y-67308724D01*
X124319290Y-67323042D01*
X124320000Y-67337500D01*
X124320000Y-67632500D01*
X124319290Y-67646958D01*
X124317166Y-67661276D01*
X124313649Y-67675317D01*
X124308772Y-67688946D01*
X124302583Y-67702031D01*
X124295142Y-67714447D01*
X124286519Y-67726073D01*
X124276798Y-67736798D01*
X124266073Y-67746519D01*
X124254447Y-67755142D01*
X124242031Y-67762583D01*
X124228946Y-67768772D01*
X124215317Y-67773649D01*
X124201276Y-67777166D01*
X124186958Y-67779290D01*
X124172500Y-67780000D01*
X123827500Y-67780000D01*
X123813042Y-67779290D01*
X123798724Y-67777166D01*
X123784683Y-67773649D01*
X123771054Y-67768772D01*
X123757969Y-67762583D01*
X123745553Y-67755142D01*
X123733927Y-67746519D01*
X123723202Y-67736798D01*
X123713481Y-67726073D01*
X123704858Y-67714447D01*
X123697417Y-67702031D01*
X123691228Y-67688946D01*
X123686351Y-67675317D01*
X123682834Y-67661276D01*
X123680710Y-67646958D01*
X123680000Y-67632500D01*
X123680000Y-67337500D01*
X123680710Y-67323042D01*
X123682834Y-67308724D01*
X123686351Y-67294683D01*
X123691228Y-67281054D01*
X123697417Y-67267969D01*
X123704858Y-67255553D01*
X123713481Y-67243927D01*
X123723202Y-67233202D01*
X123733927Y-67223481D01*
X123745553Y-67214858D01*
X123757969Y-67207417D01*
X123771054Y-67201228D01*
X123784683Y-67196351D01*
X123798724Y-67192834D01*
X123813042Y-67190710D01*
X123827500Y-67190000D01*
X124172500Y-67190000D01*
X124186958Y-67190710D01*
G37*
G36*
X124186958Y-66220710D02*
G01*
X124201276Y-66222834D01*
X124215317Y-66226351D01*
X124228946Y-66231228D01*
X124242031Y-66237417D01*
X124254447Y-66244858D01*
X124266073Y-66253481D01*
X124276798Y-66263202D01*
X124286519Y-66273927D01*
X124295142Y-66285553D01*
X124302583Y-66297969D01*
X124308772Y-66311054D01*
X124313649Y-66324683D01*
X124317166Y-66338724D01*
X124319290Y-66353042D01*
X124320000Y-66367500D01*
X124320000Y-66662500D01*
X124319290Y-66676958D01*
X124317166Y-66691276D01*
X124313649Y-66705317D01*
X124308772Y-66718946D01*
X124302583Y-66732031D01*
X124295142Y-66744447D01*
X124286519Y-66756073D01*
X124276798Y-66766798D01*
X124266073Y-66776519D01*
X124254447Y-66785142D01*
X124242031Y-66792583D01*
X124228946Y-66798772D01*
X124215317Y-66803649D01*
X124201276Y-66807166D01*
X124186958Y-66809290D01*
X124172500Y-66810000D01*
X123827500Y-66810000D01*
X123813042Y-66809290D01*
X123798724Y-66807166D01*
X123784683Y-66803649D01*
X123771054Y-66798772D01*
X123757969Y-66792583D01*
X123745553Y-66785142D01*
X123733927Y-66776519D01*
X123723202Y-66766798D01*
X123713481Y-66756073D01*
X123704858Y-66744447D01*
X123697417Y-66732031D01*
X123691228Y-66718946D01*
X123686351Y-66705317D01*
X123682834Y-66691276D01*
X123680710Y-66676958D01*
X123680000Y-66662500D01*
X123680000Y-66367500D01*
X123680710Y-66353042D01*
X123682834Y-66338724D01*
X123686351Y-66324683D01*
X123691228Y-66311054D01*
X123697417Y-66297969D01*
X123704858Y-66285553D01*
X123713481Y-66273927D01*
X123723202Y-66263202D01*
X123733927Y-66253481D01*
X123745553Y-66244858D01*
X123757969Y-66237417D01*
X123771054Y-66231228D01*
X123784683Y-66226351D01*
X123798724Y-66222834D01*
X123813042Y-66220710D01*
X123827500Y-66220000D01*
X124172500Y-66220000D01*
X124186958Y-66220710D01*
G37*
G36*
X122046958Y-63880710D02*
G01*
X122061276Y-63882834D01*
X122075317Y-63886351D01*
X122088946Y-63891228D01*
X122102031Y-63897417D01*
X122114447Y-63904858D01*
X122126073Y-63913481D01*
X122136798Y-63923202D01*
X122146519Y-63933927D01*
X122155142Y-63945553D01*
X122162583Y-63957969D01*
X122168772Y-63971054D01*
X122173649Y-63984683D01*
X122177166Y-63998724D01*
X122179290Y-64013042D01*
X122180000Y-64027500D01*
X122180000Y-64372500D01*
X122179290Y-64386958D01*
X122177166Y-64401276D01*
X122173649Y-64415317D01*
X122168772Y-64428946D01*
X122162583Y-64442031D01*
X122155142Y-64454447D01*
X122146519Y-64466073D01*
X122136798Y-64476798D01*
X122126073Y-64486519D01*
X122114447Y-64495142D01*
X122102031Y-64502583D01*
X122088946Y-64508772D01*
X122075317Y-64513649D01*
X122061276Y-64517166D01*
X122046958Y-64519290D01*
X122032500Y-64520000D01*
X121737500Y-64520000D01*
X121723042Y-64519290D01*
X121708724Y-64517166D01*
X121694683Y-64513649D01*
X121681054Y-64508772D01*
X121667969Y-64502583D01*
X121655553Y-64495142D01*
X121643927Y-64486519D01*
X121633202Y-64476798D01*
X121623481Y-64466073D01*
X121614858Y-64454447D01*
X121607417Y-64442031D01*
X121601228Y-64428946D01*
X121596351Y-64415317D01*
X121592834Y-64401276D01*
X121590710Y-64386958D01*
X121590000Y-64372500D01*
X121590000Y-64027500D01*
X121590710Y-64013042D01*
X121592834Y-63998724D01*
X121596351Y-63984683D01*
X121601228Y-63971054D01*
X121607417Y-63957969D01*
X121614858Y-63945553D01*
X121623481Y-63933927D01*
X121633202Y-63923202D01*
X121643927Y-63913481D01*
X121655553Y-63904858D01*
X121667969Y-63897417D01*
X121681054Y-63891228D01*
X121694683Y-63886351D01*
X121708724Y-63882834D01*
X121723042Y-63880710D01*
X121737500Y-63880000D01*
X122032500Y-63880000D01*
X122046958Y-63880710D01*
G37*
G36*
X121076958Y-63880710D02*
G01*
X121091276Y-63882834D01*
X121105317Y-63886351D01*
X121118946Y-63891228D01*
X121132031Y-63897417D01*
X121144447Y-63904858D01*
X121156073Y-63913481D01*
X121166798Y-63923202D01*
X121176519Y-63933927D01*
X121185142Y-63945553D01*
X121192583Y-63957969D01*
X121198772Y-63971054D01*
X121203649Y-63984683D01*
X121207166Y-63998724D01*
X121209290Y-64013042D01*
X121210000Y-64027500D01*
X121210000Y-64372500D01*
X121209290Y-64386958D01*
X121207166Y-64401276D01*
X121203649Y-64415317D01*
X121198772Y-64428946D01*
X121192583Y-64442031D01*
X121185142Y-64454447D01*
X121176519Y-64466073D01*
X121166798Y-64476798D01*
X121156073Y-64486519D01*
X121144447Y-64495142D01*
X121132031Y-64502583D01*
X121118946Y-64508772D01*
X121105317Y-64513649D01*
X121091276Y-64517166D01*
X121076958Y-64519290D01*
X121062500Y-64520000D01*
X120767500Y-64520000D01*
X120753042Y-64519290D01*
X120738724Y-64517166D01*
X120724683Y-64513649D01*
X120711054Y-64508772D01*
X120697969Y-64502583D01*
X120685553Y-64495142D01*
X120673927Y-64486519D01*
X120663202Y-64476798D01*
X120653481Y-64466073D01*
X120644858Y-64454447D01*
X120637417Y-64442031D01*
X120631228Y-64428946D01*
X120626351Y-64415317D01*
X120622834Y-64401276D01*
X120620710Y-64386958D01*
X120620000Y-64372500D01*
X120620000Y-64027500D01*
X120620710Y-64013042D01*
X120622834Y-63998724D01*
X120626351Y-63984683D01*
X120631228Y-63971054D01*
X120637417Y-63957969D01*
X120644858Y-63945553D01*
X120653481Y-63933927D01*
X120663202Y-63923202D01*
X120673927Y-63913481D01*
X120685553Y-63904858D01*
X120697969Y-63897417D01*
X120711054Y-63891228D01*
X120724683Y-63886351D01*
X120738724Y-63882834D01*
X120753042Y-63880710D01*
X120767500Y-63880000D01*
X121062500Y-63880000D01*
X121076958Y-63880710D01*
G37*
G36*
X125426958Y-67430710D02*
G01*
X125441276Y-67432834D01*
X125455317Y-67436351D01*
X125468946Y-67441228D01*
X125482031Y-67447417D01*
X125494447Y-67454858D01*
X125506073Y-67463481D01*
X125516798Y-67473202D01*
X125526519Y-67483927D01*
X125535142Y-67495553D01*
X125542583Y-67507969D01*
X125548772Y-67521054D01*
X125553649Y-67534683D01*
X125557166Y-67548724D01*
X125559290Y-67563042D01*
X125560000Y-67577500D01*
X125560000Y-67872500D01*
X125559290Y-67886958D01*
X125557166Y-67901276D01*
X125553649Y-67915317D01*
X125548772Y-67928946D01*
X125542583Y-67942031D01*
X125535142Y-67954447D01*
X125526519Y-67966073D01*
X125516798Y-67976798D01*
X125506073Y-67986519D01*
X125494447Y-67995142D01*
X125482031Y-68002583D01*
X125468946Y-68008772D01*
X125455317Y-68013649D01*
X125441276Y-68017166D01*
X125426958Y-68019290D01*
X125412500Y-68020000D01*
X125067500Y-68020000D01*
X125053042Y-68019290D01*
X125038724Y-68017166D01*
X125024683Y-68013649D01*
X125011054Y-68008772D01*
X124997969Y-68002583D01*
X124985553Y-67995142D01*
X124973927Y-67986519D01*
X124963202Y-67976798D01*
X124953481Y-67966073D01*
X124944858Y-67954447D01*
X124937417Y-67942031D01*
X124931228Y-67928946D01*
X124926351Y-67915317D01*
X124922834Y-67901276D01*
X124920710Y-67886958D01*
X124920000Y-67872500D01*
X124920000Y-67577500D01*
X124920710Y-67563042D01*
X124922834Y-67548724D01*
X124926351Y-67534683D01*
X124931228Y-67521054D01*
X124937417Y-67507969D01*
X124944858Y-67495553D01*
X124953481Y-67483927D01*
X124963202Y-67473202D01*
X124973927Y-67463481D01*
X124985553Y-67454858D01*
X124997969Y-67447417D01*
X125011054Y-67441228D01*
X125024683Y-67436351D01*
X125038724Y-67432834D01*
X125053042Y-67430710D01*
X125067500Y-67430000D01*
X125412500Y-67430000D01*
X125426958Y-67430710D01*
G37*
G36*
X125426958Y-68400710D02*
G01*
X125441276Y-68402834D01*
X125455317Y-68406351D01*
X125468946Y-68411228D01*
X125482031Y-68417417D01*
X125494447Y-68424858D01*
X125506073Y-68433481D01*
X125516798Y-68443202D01*
X125526519Y-68453927D01*
X125535142Y-68465553D01*
X125542583Y-68477969D01*
X125548772Y-68491054D01*
X125553649Y-68504683D01*
X125557166Y-68518724D01*
X125559290Y-68533042D01*
X125560000Y-68547500D01*
X125560000Y-68842500D01*
X125559290Y-68856958D01*
X125557166Y-68871276D01*
X125553649Y-68885317D01*
X125548772Y-68898946D01*
X125542583Y-68912031D01*
X125535142Y-68924447D01*
X125526519Y-68936073D01*
X125516798Y-68946798D01*
X125506073Y-68956519D01*
X125494447Y-68965142D01*
X125482031Y-68972583D01*
X125468946Y-68978772D01*
X125455317Y-68983649D01*
X125441276Y-68987166D01*
X125426958Y-68989290D01*
X125412500Y-68990000D01*
X125067500Y-68990000D01*
X125053042Y-68989290D01*
X125038724Y-68987166D01*
X125024683Y-68983649D01*
X125011054Y-68978772D01*
X124997969Y-68972583D01*
X124985553Y-68965142D01*
X124973927Y-68956519D01*
X124963202Y-68946798D01*
X124953481Y-68936073D01*
X124944858Y-68924447D01*
X124937417Y-68912031D01*
X124931228Y-68898946D01*
X124926351Y-68885317D01*
X124922834Y-68871276D01*
X124920710Y-68856958D01*
X124920000Y-68842500D01*
X124920000Y-68547500D01*
X124920710Y-68533042D01*
X124922834Y-68518724D01*
X124926351Y-68504683D01*
X124931228Y-68491054D01*
X124937417Y-68477969D01*
X124944858Y-68465553D01*
X124953481Y-68453927D01*
X124963202Y-68443202D01*
X124973927Y-68433481D01*
X124985553Y-68424858D01*
X124997969Y-68417417D01*
X125011054Y-68411228D01*
X125024683Y-68406351D01*
X125038724Y-68402834D01*
X125053042Y-68400710D01*
X125067500Y-68400000D01*
X125412500Y-68400000D01*
X125426958Y-68400710D01*
G37*
G36*
X127346958Y-62580710D02*
G01*
X127361276Y-62582834D01*
X127375317Y-62586351D01*
X127388946Y-62591228D01*
X127402031Y-62597417D01*
X127414447Y-62604858D01*
X127426073Y-62613481D01*
X127436798Y-62623202D01*
X127446519Y-62633927D01*
X127455142Y-62645553D01*
X127462583Y-62657969D01*
X127468772Y-62671054D01*
X127473649Y-62684683D01*
X127477166Y-62698724D01*
X127479290Y-62713042D01*
X127480000Y-62727500D01*
X127480000Y-63072500D01*
X127479290Y-63086958D01*
X127477166Y-63101276D01*
X127473649Y-63115317D01*
X127468772Y-63128946D01*
X127462583Y-63142031D01*
X127455142Y-63154447D01*
X127446519Y-63166073D01*
X127436798Y-63176798D01*
X127426073Y-63186519D01*
X127414447Y-63195142D01*
X127402031Y-63202583D01*
X127388946Y-63208772D01*
X127375317Y-63213649D01*
X127361276Y-63217166D01*
X127346958Y-63219290D01*
X127332500Y-63220000D01*
X127037500Y-63220000D01*
X127023042Y-63219290D01*
X127008724Y-63217166D01*
X126994683Y-63213649D01*
X126981054Y-63208772D01*
X126967969Y-63202583D01*
X126955553Y-63195142D01*
X126943927Y-63186519D01*
X126933202Y-63176798D01*
X126923481Y-63166073D01*
X126914858Y-63154447D01*
X126907417Y-63142031D01*
X126901228Y-63128946D01*
X126896351Y-63115317D01*
X126892834Y-63101276D01*
X126890710Y-63086958D01*
X126890000Y-63072500D01*
X126890000Y-62727500D01*
X126890710Y-62713042D01*
X126892834Y-62698724D01*
X126896351Y-62684683D01*
X126901228Y-62671054D01*
X126907417Y-62657969D01*
X126914858Y-62645553D01*
X126923481Y-62633927D01*
X126933202Y-62623202D01*
X126943927Y-62613481D01*
X126955553Y-62604858D01*
X126967969Y-62597417D01*
X126981054Y-62591228D01*
X126994683Y-62586351D01*
X127008724Y-62582834D01*
X127023042Y-62580710D01*
X127037500Y-62580000D01*
X127332500Y-62580000D01*
X127346958Y-62580710D01*
G37*
G36*
X126376958Y-62580710D02*
G01*
X126391276Y-62582834D01*
X126405317Y-62586351D01*
X126418946Y-62591228D01*
X126432031Y-62597417D01*
X126444447Y-62604858D01*
X126456073Y-62613481D01*
X126466798Y-62623202D01*
X126476519Y-62633927D01*
X126485142Y-62645553D01*
X126492583Y-62657969D01*
X126498772Y-62671054D01*
X126503649Y-62684683D01*
X126507166Y-62698724D01*
X126509290Y-62713042D01*
X126510000Y-62727500D01*
X126510000Y-63072500D01*
X126509290Y-63086958D01*
X126507166Y-63101276D01*
X126503649Y-63115317D01*
X126498772Y-63128946D01*
X126492583Y-63142031D01*
X126485142Y-63154447D01*
X126476519Y-63166073D01*
X126466798Y-63176798D01*
X126456073Y-63186519D01*
X126444447Y-63195142D01*
X126432031Y-63202583D01*
X126418946Y-63208772D01*
X126405317Y-63213649D01*
X126391276Y-63217166D01*
X126376958Y-63219290D01*
X126362500Y-63220000D01*
X126067500Y-63220000D01*
X126053042Y-63219290D01*
X126038724Y-63217166D01*
X126024683Y-63213649D01*
X126011054Y-63208772D01*
X125997969Y-63202583D01*
X125985553Y-63195142D01*
X125973927Y-63186519D01*
X125963202Y-63176798D01*
X125953481Y-63166073D01*
X125944858Y-63154447D01*
X125937417Y-63142031D01*
X125931228Y-63128946D01*
X125926351Y-63115317D01*
X125922834Y-63101276D01*
X125920710Y-63086958D01*
X125920000Y-63072500D01*
X125920000Y-62727500D01*
X125920710Y-62713042D01*
X125922834Y-62698724D01*
X125926351Y-62684683D01*
X125931228Y-62671054D01*
X125937417Y-62657969D01*
X125944858Y-62645553D01*
X125953481Y-62633927D01*
X125963202Y-62623202D01*
X125973927Y-62613481D01*
X125985553Y-62604858D01*
X125997969Y-62597417D01*
X126011054Y-62591228D01*
X126024683Y-62586351D01*
X126038724Y-62582834D01*
X126053042Y-62580710D01*
X126067500Y-62580000D01*
X126362500Y-62580000D01*
X126376958Y-62580710D01*
G37*
G36*
X123246958Y-70880710D02*
G01*
X123261276Y-70882834D01*
X123275317Y-70886351D01*
X123288946Y-70891228D01*
X123302031Y-70897417D01*
X123314447Y-70904858D01*
X123326073Y-70913481D01*
X123336798Y-70923202D01*
X123346519Y-70933927D01*
X123355142Y-70945553D01*
X123362583Y-70957969D01*
X123368772Y-70971054D01*
X123373649Y-70984683D01*
X123377166Y-70998724D01*
X123379290Y-71013042D01*
X123380000Y-71027500D01*
X123380000Y-71372500D01*
X123379290Y-71386958D01*
X123377166Y-71401276D01*
X123373649Y-71415317D01*
X123368772Y-71428946D01*
X123362583Y-71442031D01*
X123355142Y-71454447D01*
X123346519Y-71466073D01*
X123336798Y-71476798D01*
X123326073Y-71486519D01*
X123314447Y-71495142D01*
X123302031Y-71502583D01*
X123288946Y-71508772D01*
X123275317Y-71513649D01*
X123261276Y-71517166D01*
X123246958Y-71519290D01*
X123232500Y-71520000D01*
X122937500Y-71520000D01*
X122923042Y-71519290D01*
X122908724Y-71517166D01*
X122894683Y-71513649D01*
X122881054Y-71508772D01*
X122867969Y-71502583D01*
X122855553Y-71495142D01*
X122843927Y-71486519D01*
X122833202Y-71476798D01*
X122823481Y-71466073D01*
X122814858Y-71454447D01*
X122807417Y-71442031D01*
X122801228Y-71428946D01*
X122796351Y-71415317D01*
X122792834Y-71401276D01*
X122790710Y-71386958D01*
X122790000Y-71372500D01*
X122790000Y-71027500D01*
X122790710Y-71013042D01*
X122792834Y-70998724D01*
X122796351Y-70984683D01*
X122801228Y-70971054D01*
X122807417Y-70957969D01*
X122814858Y-70945553D01*
X122823481Y-70933927D01*
X122833202Y-70923202D01*
X122843927Y-70913481D01*
X122855553Y-70904858D01*
X122867969Y-70897417D01*
X122881054Y-70891228D01*
X122894683Y-70886351D01*
X122908724Y-70882834D01*
X122923042Y-70880710D01*
X122937500Y-70880000D01*
X123232500Y-70880000D01*
X123246958Y-70880710D01*
G37*
G36*
X122276958Y-70880710D02*
G01*
X122291276Y-70882834D01*
X122305317Y-70886351D01*
X122318946Y-70891228D01*
X122332031Y-70897417D01*
X122344447Y-70904858D01*
X122356073Y-70913481D01*
X122366798Y-70923202D01*
X122376519Y-70933927D01*
X122385142Y-70945553D01*
X122392583Y-70957969D01*
X122398772Y-70971054D01*
X122403649Y-70984683D01*
X122407166Y-70998724D01*
X122409290Y-71013042D01*
X122410000Y-71027500D01*
X122410000Y-71372500D01*
X122409290Y-71386958D01*
X122407166Y-71401276D01*
X122403649Y-71415317D01*
X122398772Y-71428946D01*
X122392583Y-71442031D01*
X122385142Y-71454447D01*
X122376519Y-71466073D01*
X122366798Y-71476798D01*
X122356073Y-71486519D01*
X122344447Y-71495142D01*
X122332031Y-71502583D01*
X122318946Y-71508772D01*
X122305317Y-71513649D01*
X122291276Y-71517166D01*
X122276958Y-71519290D01*
X122262500Y-71520000D01*
X121967500Y-71520000D01*
X121953042Y-71519290D01*
X121938724Y-71517166D01*
X121924683Y-71513649D01*
X121911054Y-71508772D01*
X121897969Y-71502583D01*
X121885553Y-71495142D01*
X121873927Y-71486519D01*
X121863202Y-71476798D01*
X121853481Y-71466073D01*
X121844858Y-71454447D01*
X121837417Y-71442031D01*
X121831228Y-71428946D01*
X121826351Y-71415317D01*
X121822834Y-71401276D01*
X121820710Y-71386958D01*
X121820000Y-71372500D01*
X121820000Y-71027500D01*
X121820710Y-71013042D01*
X121822834Y-70998724D01*
X121826351Y-70984683D01*
X121831228Y-70971054D01*
X121837417Y-70957969D01*
X121844858Y-70945553D01*
X121853481Y-70933927D01*
X121863202Y-70923202D01*
X121873927Y-70913481D01*
X121885553Y-70904858D01*
X121897969Y-70897417D01*
X121911054Y-70891228D01*
X121924683Y-70886351D01*
X121938724Y-70882834D01*
X121953042Y-70880710D01*
X121967500Y-70880000D01*
X122262500Y-70880000D01*
X122276958Y-70880710D01*
G37*
G36*
X135386958Y-62320710D02*
G01*
X135401276Y-62322834D01*
X135415317Y-62326351D01*
X135428946Y-62331228D01*
X135442031Y-62337417D01*
X135454447Y-62344858D01*
X135466073Y-62353481D01*
X135476798Y-62363202D01*
X135486519Y-62373927D01*
X135495142Y-62385553D01*
X135502583Y-62397969D01*
X135508772Y-62411054D01*
X135513649Y-62424683D01*
X135517166Y-62438724D01*
X135519290Y-62453042D01*
X135520000Y-62467500D01*
X135520000Y-62762500D01*
X135519290Y-62776958D01*
X135517166Y-62791276D01*
X135513649Y-62805317D01*
X135508772Y-62818946D01*
X135502583Y-62832031D01*
X135495142Y-62844447D01*
X135486519Y-62856073D01*
X135476798Y-62866798D01*
X135466073Y-62876519D01*
X135454447Y-62885142D01*
X135442031Y-62892583D01*
X135428946Y-62898772D01*
X135415317Y-62903649D01*
X135401276Y-62907166D01*
X135386958Y-62909290D01*
X135372500Y-62910000D01*
X135027500Y-62910000D01*
X135013042Y-62909290D01*
X134998724Y-62907166D01*
X134984683Y-62903649D01*
X134971054Y-62898772D01*
X134957969Y-62892583D01*
X134945553Y-62885142D01*
X134933927Y-62876519D01*
X134923202Y-62866798D01*
X134913481Y-62856073D01*
X134904858Y-62844447D01*
X134897417Y-62832031D01*
X134891228Y-62818946D01*
X134886351Y-62805317D01*
X134882834Y-62791276D01*
X134880710Y-62776958D01*
X134880000Y-62762500D01*
X134880000Y-62467500D01*
X134880710Y-62453042D01*
X134882834Y-62438724D01*
X134886351Y-62424683D01*
X134891228Y-62411054D01*
X134897417Y-62397969D01*
X134904858Y-62385553D01*
X134913481Y-62373927D01*
X134923202Y-62363202D01*
X134933927Y-62353481D01*
X134945553Y-62344858D01*
X134957969Y-62337417D01*
X134971054Y-62331228D01*
X134984683Y-62326351D01*
X134998724Y-62322834D01*
X135013042Y-62320710D01*
X135027500Y-62320000D01*
X135372500Y-62320000D01*
X135386958Y-62320710D01*
G37*
G36*
X135386958Y-63290710D02*
G01*
X135401276Y-63292834D01*
X135415317Y-63296351D01*
X135428946Y-63301228D01*
X135442031Y-63307417D01*
X135454447Y-63314858D01*
X135466073Y-63323481D01*
X135476798Y-63333202D01*
X135486519Y-63343927D01*
X135495142Y-63355553D01*
X135502583Y-63367969D01*
X135508772Y-63381054D01*
X135513649Y-63394683D01*
X135517166Y-63408724D01*
X135519290Y-63423042D01*
X135520000Y-63437500D01*
X135520000Y-63732500D01*
X135519290Y-63746958D01*
X135517166Y-63761276D01*
X135513649Y-63775317D01*
X135508772Y-63788946D01*
X135502583Y-63802031D01*
X135495142Y-63814447D01*
X135486519Y-63826073D01*
X135476798Y-63836798D01*
X135466073Y-63846519D01*
X135454447Y-63855142D01*
X135442031Y-63862583D01*
X135428946Y-63868772D01*
X135415317Y-63873649D01*
X135401276Y-63877166D01*
X135386958Y-63879290D01*
X135372500Y-63880000D01*
X135027500Y-63880000D01*
X135013042Y-63879290D01*
X134998724Y-63877166D01*
X134984683Y-63873649D01*
X134971054Y-63868772D01*
X134957969Y-63862583D01*
X134945553Y-63855142D01*
X134933927Y-63846519D01*
X134923202Y-63836798D01*
X134913481Y-63826073D01*
X134904858Y-63814447D01*
X134897417Y-63802031D01*
X134891228Y-63788946D01*
X134886351Y-63775317D01*
X134882834Y-63761276D01*
X134880710Y-63746958D01*
X134880000Y-63732500D01*
X134880000Y-63437500D01*
X134880710Y-63423042D01*
X134882834Y-63408724D01*
X134886351Y-63394683D01*
X134891228Y-63381054D01*
X134897417Y-63367969D01*
X134904858Y-63355553D01*
X134913481Y-63343927D01*
X134923202Y-63333202D01*
X134933927Y-63323481D01*
X134945553Y-63314858D01*
X134957969Y-63307417D01*
X134971054Y-63301228D01*
X134984683Y-63296351D01*
X134998724Y-63292834D01*
X135013042Y-63290710D01*
X135027500Y-63290000D01*
X135372500Y-63290000D01*
X135386958Y-63290710D01*
G37*
D11*
X117200000Y-63300000D03*
X117200000Y-71700000D03*
D12*
X137375000Y-66200000D03*
X137375000Y-65550000D03*
X137375000Y-66850000D03*
X137375000Y-64900000D03*
X137375000Y-67500000D03*
D10*
G36*
X123942292Y-72120383D02*
G01*
X123950010Y-72121528D01*
X123957578Y-72123423D01*
X123964923Y-72126052D01*
X123971976Y-72129387D01*
X123978668Y-72133398D01*
X123984934Y-72138046D01*
X123990715Y-72143285D01*
X123995954Y-72149066D01*
X124000602Y-72155332D01*
X124004613Y-72162024D01*
X124007948Y-72169077D01*
X124010577Y-72176422D01*
X124012472Y-72183990D01*
X124013617Y-72191708D01*
X124014000Y-72199500D01*
X124014000Y-72400500D01*
X124013617Y-72408292D01*
X124012472Y-72416010D01*
X124010577Y-72423578D01*
X124007948Y-72430923D01*
X124004613Y-72437976D01*
X124000602Y-72444668D01*
X123995954Y-72450934D01*
X123990715Y-72456715D01*
X123984934Y-72461954D01*
X123978668Y-72466602D01*
X123971976Y-72470613D01*
X123964923Y-72473948D01*
X123957578Y-72476577D01*
X123950010Y-72478472D01*
X123942292Y-72479617D01*
X123934500Y-72480000D01*
X123775500Y-72480000D01*
X123767708Y-72479617D01*
X123759990Y-72478472D01*
X123752422Y-72476577D01*
X123745077Y-72473948D01*
X123738024Y-72470613D01*
X123731332Y-72466602D01*
X123725066Y-72461954D01*
X123719285Y-72456715D01*
X123714046Y-72450934D01*
X123709398Y-72444668D01*
X123705387Y-72437976D01*
X123702052Y-72430923D01*
X123699423Y-72423578D01*
X123697528Y-72416010D01*
X123696383Y-72408292D01*
X123696000Y-72400500D01*
X123696000Y-72199500D01*
X123696383Y-72191708D01*
X123697528Y-72183990D01*
X123699423Y-72176422D01*
X123702052Y-72169077D01*
X123705387Y-72162024D01*
X123709398Y-72155332D01*
X123714046Y-72149066D01*
X123719285Y-72143285D01*
X123725066Y-72138046D01*
X123731332Y-72133398D01*
X123738024Y-72129387D01*
X123745077Y-72126052D01*
X123752422Y-72123423D01*
X123759990Y-72121528D01*
X123767708Y-72120383D01*
X123775500Y-72120000D01*
X123934500Y-72120000D01*
X123942292Y-72120383D01*
G37*
G36*
X124632292Y-72120383D02*
G01*
X124640010Y-72121528D01*
X124647578Y-72123423D01*
X124654923Y-72126052D01*
X124661976Y-72129387D01*
X124668668Y-72133398D01*
X124674934Y-72138046D01*
X124680715Y-72143285D01*
X124685954Y-72149066D01*
X124690602Y-72155332D01*
X124694613Y-72162024D01*
X124697948Y-72169077D01*
X124700577Y-72176422D01*
X124702472Y-72183990D01*
X124703617Y-72191708D01*
X124704000Y-72199500D01*
X124704000Y-72400500D01*
X124703617Y-72408292D01*
X124702472Y-72416010D01*
X124700577Y-72423578D01*
X124697948Y-72430923D01*
X124694613Y-72437976D01*
X124690602Y-72444668D01*
X124685954Y-72450934D01*
X124680715Y-72456715D01*
X124674934Y-72461954D01*
X124668668Y-72466602D01*
X124661976Y-72470613D01*
X124654923Y-72473948D01*
X124647578Y-72476577D01*
X124640010Y-72478472D01*
X124632292Y-72479617D01*
X124624500Y-72480000D01*
X124465500Y-72480000D01*
X124457708Y-72479617D01*
X124449990Y-72478472D01*
X124442422Y-72476577D01*
X124435077Y-72473948D01*
X124428024Y-72470613D01*
X124421332Y-72466602D01*
X124415066Y-72461954D01*
X124409285Y-72456715D01*
X124404046Y-72450934D01*
X124399398Y-72444668D01*
X124395387Y-72437976D01*
X124392052Y-72430923D01*
X124389423Y-72423578D01*
X124387528Y-72416010D01*
X124386383Y-72408292D01*
X124386000Y-72400500D01*
X124386000Y-72199500D01*
X124386383Y-72191708D01*
X124387528Y-72183990D01*
X124389423Y-72176422D01*
X124392052Y-72169077D01*
X124395387Y-72162024D01*
X124399398Y-72155332D01*
X124404046Y-72149066D01*
X124409285Y-72143285D01*
X124415066Y-72138046D01*
X124421332Y-72133398D01*
X124428024Y-72129387D01*
X124435077Y-72126052D01*
X124442422Y-72123423D01*
X124449990Y-72121528D01*
X124457708Y-72120383D01*
X124465500Y-72120000D01*
X124624500Y-72120000D01*
X124632292Y-72120383D01*
G37*
G36*
X115686958Y-67690710D02*
G01*
X115701276Y-67692834D01*
X115715317Y-67696351D01*
X115728946Y-67701228D01*
X115742031Y-67707417D01*
X115754447Y-67714858D01*
X115766073Y-67723481D01*
X115776798Y-67733202D01*
X115786519Y-67743927D01*
X115795142Y-67755553D01*
X115802583Y-67767969D01*
X115808772Y-67781054D01*
X115813649Y-67794683D01*
X115817166Y-67808724D01*
X115819290Y-67823042D01*
X115820000Y-67837500D01*
X115820000Y-68132500D01*
X115819290Y-68146958D01*
X115817166Y-68161276D01*
X115813649Y-68175317D01*
X115808772Y-68188946D01*
X115802583Y-68202031D01*
X115795142Y-68214447D01*
X115786519Y-68226073D01*
X115776798Y-68236798D01*
X115766073Y-68246519D01*
X115754447Y-68255142D01*
X115742031Y-68262583D01*
X115728946Y-68268772D01*
X115715317Y-68273649D01*
X115701276Y-68277166D01*
X115686958Y-68279290D01*
X115672500Y-68280000D01*
X115327500Y-68280000D01*
X115313042Y-68279290D01*
X115298724Y-68277166D01*
X115284683Y-68273649D01*
X115271054Y-68268772D01*
X115257969Y-68262583D01*
X115245553Y-68255142D01*
X115233927Y-68246519D01*
X115223202Y-68236798D01*
X115213481Y-68226073D01*
X115204858Y-68214447D01*
X115197417Y-68202031D01*
X115191228Y-68188946D01*
X115186351Y-68175317D01*
X115182834Y-68161276D01*
X115180710Y-68146958D01*
X115180000Y-68132500D01*
X115180000Y-67837500D01*
X115180710Y-67823042D01*
X115182834Y-67808724D01*
X115186351Y-67794683D01*
X115191228Y-67781054D01*
X115197417Y-67767969D01*
X115204858Y-67755553D01*
X115213481Y-67743927D01*
X115223202Y-67733202D01*
X115233927Y-67723481D01*
X115245553Y-67714858D01*
X115257969Y-67707417D01*
X115271054Y-67701228D01*
X115284683Y-67696351D01*
X115298724Y-67692834D01*
X115313042Y-67690710D01*
X115327500Y-67690000D01*
X115672500Y-67690000D01*
X115686958Y-67690710D01*
G37*
G36*
X115686958Y-66720710D02*
G01*
X115701276Y-66722834D01*
X115715317Y-66726351D01*
X115728946Y-66731228D01*
X115742031Y-66737417D01*
X115754447Y-66744858D01*
X115766073Y-66753481D01*
X115776798Y-66763202D01*
X115786519Y-66773927D01*
X115795142Y-66785553D01*
X115802583Y-66797969D01*
X115808772Y-66811054D01*
X115813649Y-66824683D01*
X115817166Y-66838724D01*
X115819290Y-66853042D01*
X115820000Y-66867500D01*
X115820000Y-67162500D01*
X115819290Y-67176958D01*
X115817166Y-67191276D01*
X115813649Y-67205317D01*
X115808772Y-67218946D01*
X115802583Y-67232031D01*
X115795142Y-67244447D01*
X115786519Y-67256073D01*
X115776798Y-67266798D01*
X115766073Y-67276519D01*
X115754447Y-67285142D01*
X115742031Y-67292583D01*
X115728946Y-67298772D01*
X115715317Y-67303649D01*
X115701276Y-67307166D01*
X115686958Y-67309290D01*
X115672500Y-67310000D01*
X115327500Y-67310000D01*
X115313042Y-67309290D01*
X115298724Y-67307166D01*
X115284683Y-67303649D01*
X115271054Y-67298772D01*
X115257969Y-67292583D01*
X115245553Y-67285142D01*
X115233927Y-67276519D01*
X115223202Y-67266798D01*
X115213481Y-67256073D01*
X115204858Y-67244447D01*
X115197417Y-67232031D01*
X115191228Y-67218946D01*
X115186351Y-67205317D01*
X115182834Y-67191276D01*
X115180710Y-67176958D01*
X115180000Y-67162500D01*
X115180000Y-66867500D01*
X115180710Y-66853042D01*
X115182834Y-66838724D01*
X115186351Y-66824683D01*
X115191228Y-66811054D01*
X115197417Y-66797969D01*
X115204858Y-66785553D01*
X115213481Y-66773927D01*
X115223202Y-66763202D01*
X115233927Y-66753481D01*
X115245553Y-66744858D01*
X115257969Y-66737417D01*
X115271054Y-66731228D01*
X115284683Y-66726351D01*
X115298724Y-66722834D01*
X115313042Y-66720710D01*
X115327500Y-66720000D01*
X115672500Y-66720000D01*
X115686958Y-66720710D01*
G37*
G36*
X115676958Y-64940710D02*
G01*
X115691276Y-64942834D01*
X115705317Y-64946351D01*
X115718946Y-64951228D01*
X115732031Y-64957417D01*
X115744447Y-64964858D01*
X115756073Y-64973481D01*
X115766798Y-64983202D01*
X115776519Y-64993927D01*
X115785142Y-65005553D01*
X115792583Y-65017969D01*
X115798772Y-65031054D01*
X115803649Y-65044683D01*
X115807166Y-65058724D01*
X115809290Y-65073042D01*
X115810000Y-65087500D01*
X115810000Y-65432500D01*
X115809290Y-65446958D01*
X115807166Y-65461276D01*
X115803649Y-65475317D01*
X115798772Y-65488946D01*
X115792583Y-65502031D01*
X115785142Y-65514447D01*
X115776519Y-65526073D01*
X115766798Y-65536798D01*
X115756073Y-65546519D01*
X115744447Y-65555142D01*
X115732031Y-65562583D01*
X115718946Y-65568772D01*
X115705317Y-65573649D01*
X115691276Y-65577166D01*
X115676958Y-65579290D01*
X115662500Y-65580000D01*
X115367500Y-65580000D01*
X115353042Y-65579290D01*
X115338724Y-65577166D01*
X115324683Y-65573649D01*
X115311054Y-65568772D01*
X115297969Y-65562583D01*
X115285553Y-65555142D01*
X115273927Y-65546519D01*
X115263202Y-65536798D01*
X115253481Y-65526073D01*
X115244858Y-65514447D01*
X115237417Y-65502031D01*
X115231228Y-65488946D01*
X115226351Y-65475317D01*
X115222834Y-65461276D01*
X115220710Y-65446958D01*
X115220000Y-65432500D01*
X115220000Y-65087500D01*
X115220710Y-65073042D01*
X115222834Y-65058724D01*
X115226351Y-65044683D01*
X115231228Y-65031054D01*
X115237417Y-65017969D01*
X115244858Y-65005553D01*
X115253481Y-64993927D01*
X115263202Y-64983202D01*
X115273927Y-64973481D01*
X115285553Y-64964858D01*
X115297969Y-64957417D01*
X115311054Y-64951228D01*
X115324683Y-64946351D01*
X115338724Y-64942834D01*
X115353042Y-64940710D01*
X115367500Y-64940000D01*
X115662500Y-64940000D01*
X115676958Y-64940710D01*
G37*
G36*
X116646958Y-64940710D02*
G01*
X116661276Y-64942834D01*
X116675317Y-64946351D01*
X116688946Y-64951228D01*
X116702031Y-64957417D01*
X116714447Y-64964858D01*
X116726073Y-64973481D01*
X116736798Y-64983202D01*
X116746519Y-64993927D01*
X116755142Y-65005553D01*
X116762583Y-65017969D01*
X116768772Y-65031054D01*
X116773649Y-65044683D01*
X116777166Y-65058724D01*
X116779290Y-65073042D01*
X116780000Y-65087500D01*
X116780000Y-65432500D01*
X116779290Y-65446958D01*
X116777166Y-65461276D01*
X116773649Y-65475317D01*
X116768772Y-65488946D01*
X116762583Y-65502031D01*
X116755142Y-65514447D01*
X116746519Y-65526073D01*
X116736798Y-65536798D01*
X116726073Y-65546519D01*
X116714447Y-65555142D01*
X116702031Y-65562583D01*
X116688946Y-65568772D01*
X116675317Y-65573649D01*
X116661276Y-65577166D01*
X116646958Y-65579290D01*
X116632500Y-65580000D01*
X116337500Y-65580000D01*
X116323042Y-65579290D01*
X116308724Y-65577166D01*
X116294683Y-65573649D01*
X116281054Y-65568772D01*
X116267969Y-65562583D01*
X116255553Y-65555142D01*
X116243927Y-65546519D01*
X116233202Y-65536798D01*
X116223481Y-65526073D01*
X116214858Y-65514447D01*
X116207417Y-65502031D01*
X116201228Y-65488946D01*
X116196351Y-65475317D01*
X116192834Y-65461276D01*
X116190710Y-65446958D01*
X116190000Y-65432500D01*
X116190000Y-65087500D01*
X116190710Y-65073042D01*
X116192834Y-65058724D01*
X116196351Y-65044683D01*
X116201228Y-65031054D01*
X116207417Y-65017969D01*
X116214858Y-65005553D01*
X116223481Y-64993927D01*
X116233202Y-64983202D01*
X116243927Y-64973481D01*
X116255553Y-64964858D01*
X116267969Y-64957417D01*
X116281054Y-64951228D01*
X116294683Y-64946351D01*
X116308724Y-64942834D01*
X116323042Y-64940710D01*
X116337500Y-64940000D01*
X116632500Y-64940000D01*
X116646958Y-64940710D01*
G37*
G36*
X115676958Y-69430710D02*
G01*
X115691276Y-69432834D01*
X115705317Y-69436351D01*
X115718946Y-69441228D01*
X115732031Y-69447417D01*
X115744447Y-69454858D01*
X115756073Y-69463481D01*
X115766798Y-69473202D01*
X115776519Y-69483927D01*
X115785142Y-69495553D01*
X115792583Y-69507969D01*
X115798772Y-69521054D01*
X115803649Y-69534683D01*
X115807166Y-69548724D01*
X115809290Y-69563042D01*
X115810000Y-69577500D01*
X115810000Y-69922500D01*
X115809290Y-69936958D01*
X115807166Y-69951276D01*
X115803649Y-69965317D01*
X115798772Y-69978946D01*
X115792583Y-69992031D01*
X115785142Y-70004447D01*
X115776519Y-70016073D01*
X115766798Y-70026798D01*
X115756073Y-70036519D01*
X115744447Y-70045142D01*
X115732031Y-70052583D01*
X115718946Y-70058772D01*
X115705317Y-70063649D01*
X115691276Y-70067166D01*
X115676958Y-70069290D01*
X115662500Y-70070000D01*
X115367500Y-70070000D01*
X115353042Y-70069290D01*
X115338724Y-70067166D01*
X115324683Y-70063649D01*
X115311054Y-70058772D01*
X115297969Y-70052583D01*
X115285553Y-70045142D01*
X115273927Y-70036519D01*
X115263202Y-70026798D01*
X115253481Y-70016073D01*
X115244858Y-70004447D01*
X115237417Y-69992031D01*
X115231228Y-69978946D01*
X115226351Y-69965317D01*
X115222834Y-69951276D01*
X115220710Y-69936958D01*
X115220000Y-69922500D01*
X115220000Y-69577500D01*
X115220710Y-69563042D01*
X115222834Y-69548724D01*
X115226351Y-69534683D01*
X115231228Y-69521054D01*
X115237417Y-69507969D01*
X115244858Y-69495553D01*
X115253481Y-69483927D01*
X115263202Y-69473202D01*
X115273927Y-69463481D01*
X115285553Y-69454858D01*
X115297969Y-69447417D01*
X115311054Y-69441228D01*
X115324683Y-69436351D01*
X115338724Y-69432834D01*
X115353042Y-69430710D01*
X115367500Y-69430000D01*
X115662500Y-69430000D01*
X115676958Y-69430710D01*
G37*
G36*
X116646958Y-69430710D02*
G01*
X116661276Y-69432834D01*
X116675317Y-69436351D01*
X116688946Y-69441228D01*
X116702031Y-69447417D01*
X116714447Y-69454858D01*
X116726073Y-69463481D01*
X116736798Y-69473202D01*
X116746519Y-69483927D01*
X116755142Y-69495553D01*
X116762583Y-69507969D01*
X116768772Y-69521054D01*
X116773649Y-69534683D01*
X116777166Y-69548724D01*
X116779290Y-69563042D01*
X116780000Y-69577500D01*
X116780000Y-69922500D01*
X116779290Y-69936958D01*
X116777166Y-69951276D01*
X116773649Y-69965317D01*
X116768772Y-69978946D01*
X116762583Y-69992031D01*
X116755142Y-70004447D01*
X116746519Y-70016073D01*
X116736798Y-70026798D01*
X116726073Y-70036519D01*
X116714447Y-70045142D01*
X116702031Y-70052583D01*
X116688946Y-70058772D01*
X116675317Y-70063649D01*
X116661276Y-70067166D01*
X116646958Y-70069290D01*
X116632500Y-70070000D01*
X116337500Y-70070000D01*
X116323042Y-70069290D01*
X116308724Y-70067166D01*
X116294683Y-70063649D01*
X116281054Y-70058772D01*
X116267969Y-70052583D01*
X116255553Y-70045142D01*
X116243927Y-70036519D01*
X116233202Y-70026798D01*
X116223481Y-70016073D01*
X116214858Y-70004447D01*
X116207417Y-69992031D01*
X116201228Y-69978946D01*
X116196351Y-69965317D01*
X116192834Y-69951276D01*
X116190710Y-69936958D01*
X116190000Y-69922500D01*
X116190000Y-69577500D01*
X116190710Y-69563042D01*
X116192834Y-69548724D01*
X116196351Y-69534683D01*
X116201228Y-69521054D01*
X116207417Y-69507969D01*
X116214858Y-69495553D01*
X116223481Y-69483927D01*
X116233202Y-69473202D01*
X116243927Y-69463481D01*
X116255553Y-69454858D01*
X116267969Y-69447417D01*
X116281054Y-69441228D01*
X116294683Y-69436351D01*
X116308724Y-69432834D01*
X116323042Y-69430710D01*
X116337500Y-69430000D01*
X116632500Y-69430000D01*
X116646958Y-69430710D01*
G37*
G36*
X121286958Y-71190710D02*
G01*
X121301276Y-71192834D01*
X121315317Y-71196351D01*
X121328946Y-71201228D01*
X121342031Y-71207417D01*
X121354447Y-71214858D01*
X121366073Y-71223481D01*
X121376798Y-71233202D01*
X121386519Y-71243927D01*
X121395142Y-71255553D01*
X121402583Y-71267969D01*
X121408772Y-71281054D01*
X121413649Y-71294683D01*
X121417166Y-71308724D01*
X121419290Y-71323042D01*
X121420000Y-71337500D01*
X121420000Y-71632500D01*
X121419290Y-71646958D01*
X121417166Y-71661276D01*
X121413649Y-71675317D01*
X121408772Y-71688946D01*
X121402583Y-71702031D01*
X121395142Y-71714447D01*
X121386519Y-71726073D01*
X121376798Y-71736798D01*
X121366073Y-71746519D01*
X121354447Y-71755142D01*
X121342031Y-71762583D01*
X121328946Y-71768772D01*
X121315317Y-71773649D01*
X121301276Y-71777166D01*
X121286958Y-71779290D01*
X121272500Y-71780000D01*
X120927500Y-71780000D01*
X120913042Y-71779290D01*
X120898724Y-71777166D01*
X120884683Y-71773649D01*
X120871054Y-71768772D01*
X120857969Y-71762583D01*
X120845553Y-71755142D01*
X120833927Y-71746519D01*
X120823202Y-71736798D01*
X120813481Y-71726073D01*
X120804858Y-71714447D01*
X120797417Y-71702031D01*
X120791228Y-71688946D01*
X120786351Y-71675317D01*
X120782834Y-71661276D01*
X120780710Y-71646958D01*
X120780000Y-71632500D01*
X120780000Y-71337500D01*
X120780710Y-71323042D01*
X120782834Y-71308724D01*
X120786351Y-71294683D01*
X120791228Y-71281054D01*
X120797417Y-71267969D01*
X120804858Y-71255553D01*
X120813481Y-71243927D01*
X120823202Y-71233202D01*
X120833927Y-71223481D01*
X120845553Y-71214858D01*
X120857969Y-71207417D01*
X120871054Y-71201228D01*
X120884683Y-71196351D01*
X120898724Y-71192834D01*
X120913042Y-71190710D01*
X120927500Y-71190000D01*
X121272500Y-71190000D01*
X121286958Y-71190710D01*
G37*
G36*
X121286958Y-70220710D02*
G01*
X121301276Y-70222834D01*
X121315317Y-70226351D01*
X121328946Y-70231228D01*
X121342031Y-70237417D01*
X121354447Y-70244858D01*
X121366073Y-70253481D01*
X121376798Y-70263202D01*
X121386519Y-70273927D01*
X121395142Y-70285553D01*
X121402583Y-70297969D01*
X121408772Y-70311054D01*
X121413649Y-70324683D01*
X121417166Y-70338724D01*
X121419290Y-70353042D01*
X121420000Y-70367500D01*
X121420000Y-70662500D01*
X121419290Y-70676958D01*
X121417166Y-70691276D01*
X121413649Y-70705317D01*
X121408772Y-70718946D01*
X121402583Y-70732031D01*
X121395142Y-70744447D01*
X121386519Y-70756073D01*
X121376798Y-70766798D01*
X121366073Y-70776519D01*
X121354447Y-70785142D01*
X121342031Y-70792583D01*
X121328946Y-70798772D01*
X121315317Y-70803649D01*
X121301276Y-70807166D01*
X121286958Y-70809290D01*
X121272500Y-70810000D01*
X120927500Y-70810000D01*
X120913042Y-70809290D01*
X120898724Y-70807166D01*
X120884683Y-70803649D01*
X120871054Y-70798772D01*
X120857969Y-70792583D01*
X120845553Y-70785142D01*
X120833927Y-70776519D01*
X120823202Y-70766798D01*
X120813481Y-70756073D01*
X120804858Y-70744447D01*
X120797417Y-70732031D01*
X120791228Y-70718946D01*
X120786351Y-70705317D01*
X120782834Y-70691276D01*
X120780710Y-70676958D01*
X120780000Y-70662500D01*
X120780000Y-70367500D01*
X120780710Y-70353042D01*
X120782834Y-70338724D01*
X120786351Y-70324683D01*
X120791228Y-70311054D01*
X120797417Y-70297969D01*
X120804858Y-70285553D01*
X120813481Y-70273927D01*
X120823202Y-70263202D01*
X120833927Y-70253481D01*
X120845553Y-70244858D01*
X120857969Y-70237417D01*
X120871054Y-70231228D01*
X120884683Y-70226351D01*
X120898724Y-70222834D01*
X120913042Y-70220710D01*
X120927500Y-70220000D01*
X121272500Y-70220000D01*
X121286958Y-70220710D01*
G37*
G36*
X120286958Y-71220710D02*
G01*
X120301276Y-71222834D01*
X120315317Y-71226351D01*
X120328946Y-71231228D01*
X120342031Y-71237417D01*
X120354447Y-71244858D01*
X120366073Y-71253481D01*
X120376798Y-71263202D01*
X120386519Y-71273927D01*
X120395142Y-71285553D01*
X120402583Y-71297969D01*
X120408772Y-71311054D01*
X120413649Y-71324683D01*
X120417166Y-71338724D01*
X120419290Y-71353042D01*
X120420000Y-71367500D01*
X120420000Y-71662500D01*
X120419290Y-71676958D01*
X120417166Y-71691276D01*
X120413649Y-71705317D01*
X120408772Y-71718946D01*
X120402583Y-71732031D01*
X120395142Y-71744447D01*
X120386519Y-71756073D01*
X120376798Y-71766798D01*
X120366073Y-71776519D01*
X120354447Y-71785142D01*
X120342031Y-71792583D01*
X120328946Y-71798772D01*
X120315317Y-71803649D01*
X120301276Y-71807166D01*
X120286958Y-71809290D01*
X120272500Y-71810000D01*
X119927500Y-71810000D01*
X119913042Y-71809290D01*
X119898724Y-71807166D01*
X119884683Y-71803649D01*
X119871054Y-71798772D01*
X119857969Y-71792583D01*
X119845553Y-71785142D01*
X119833927Y-71776519D01*
X119823202Y-71766798D01*
X119813481Y-71756073D01*
X119804858Y-71744447D01*
X119797417Y-71732031D01*
X119791228Y-71718946D01*
X119786351Y-71705317D01*
X119782834Y-71691276D01*
X119780710Y-71676958D01*
X119780000Y-71662500D01*
X119780000Y-71367500D01*
X119780710Y-71353042D01*
X119782834Y-71338724D01*
X119786351Y-71324683D01*
X119791228Y-71311054D01*
X119797417Y-71297969D01*
X119804858Y-71285553D01*
X119813481Y-71273927D01*
X119823202Y-71263202D01*
X119833927Y-71253481D01*
X119845553Y-71244858D01*
X119857969Y-71237417D01*
X119871054Y-71231228D01*
X119884683Y-71226351D01*
X119898724Y-71222834D01*
X119913042Y-71220710D01*
X119927500Y-71220000D01*
X120272500Y-71220000D01*
X120286958Y-71220710D01*
G37*
G36*
X120286958Y-72190710D02*
G01*
X120301276Y-72192834D01*
X120315317Y-72196351D01*
X120328946Y-72201228D01*
X120342031Y-72207417D01*
X120354447Y-72214858D01*
X120366073Y-72223481D01*
X120376798Y-72233202D01*
X120386519Y-72243927D01*
X120395142Y-72255553D01*
X120402583Y-72267969D01*
X120408772Y-72281054D01*
X120413649Y-72294683D01*
X120417166Y-72308724D01*
X120419290Y-72323042D01*
X120420000Y-72337500D01*
X120420000Y-72632500D01*
X120419290Y-72646958D01*
X120417166Y-72661276D01*
X120413649Y-72675317D01*
X120408772Y-72688946D01*
X120402583Y-72702031D01*
X120395142Y-72714447D01*
X120386519Y-72726073D01*
X120376798Y-72736798D01*
X120366073Y-72746519D01*
X120354447Y-72755142D01*
X120342031Y-72762583D01*
X120328946Y-72768772D01*
X120315317Y-72773649D01*
X120301276Y-72777166D01*
X120286958Y-72779290D01*
X120272500Y-72780000D01*
X119927500Y-72780000D01*
X119913042Y-72779290D01*
X119898724Y-72777166D01*
X119884683Y-72773649D01*
X119871054Y-72768772D01*
X119857969Y-72762583D01*
X119845553Y-72755142D01*
X119833927Y-72746519D01*
X119823202Y-72736798D01*
X119813481Y-72726073D01*
X119804858Y-72714447D01*
X119797417Y-72702031D01*
X119791228Y-72688946D01*
X119786351Y-72675317D01*
X119782834Y-72661276D01*
X119780710Y-72646958D01*
X119780000Y-72632500D01*
X119780000Y-72337500D01*
X119780710Y-72323042D01*
X119782834Y-72308724D01*
X119786351Y-72294683D01*
X119791228Y-72281054D01*
X119797417Y-72267969D01*
X119804858Y-72255553D01*
X119813481Y-72243927D01*
X119823202Y-72233202D01*
X119833927Y-72223481D01*
X119845553Y-72214858D01*
X119857969Y-72207417D01*
X119871054Y-72201228D01*
X119884683Y-72196351D01*
X119898724Y-72192834D01*
X119913042Y-72190710D01*
X119927500Y-72190000D01*
X120272500Y-72190000D01*
X120286958Y-72190710D01*
G37*
G36*
X120806958Y-64870710D02*
G01*
X120821276Y-64872834D01*
X120835317Y-64876351D01*
X120848946Y-64881228D01*
X120862031Y-64887417D01*
X120874447Y-64894858D01*
X120886073Y-64903481D01*
X120896798Y-64913202D01*
X120906519Y-64923927D01*
X120915142Y-64935553D01*
X120922583Y-64947969D01*
X120928772Y-64961054D01*
X120933649Y-64974683D01*
X120937166Y-64988724D01*
X120939290Y-65003042D01*
X120940000Y-65017500D01*
X120940000Y-65362500D01*
X120939290Y-65376958D01*
X120937166Y-65391276D01*
X120933649Y-65405317D01*
X120928772Y-65418946D01*
X120922583Y-65432031D01*
X120915142Y-65444447D01*
X120906519Y-65456073D01*
X120896798Y-65466798D01*
X120886073Y-65476519D01*
X120874447Y-65485142D01*
X120862031Y-65492583D01*
X120848946Y-65498772D01*
X120835317Y-65503649D01*
X120821276Y-65507166D01*
X120806958Y-65509290D01*
X120792500Y-65510000D01*
X120497500Y-65510000D01*
X120483042Y-65509290D01*
X120468724Y-65507166D01*
X120454683Y-65503649D01*
X120441054Y-65498772D01*
X120427969Y-65492583D01*
X120415553Y-65485142D01*
X120403927Y-65476519D01*
X120393202Y-65466798D01*
X120383481Y-65456073D01*
X120374858Y-65444447D01*
X120367417Y-65432031D01*
X120361228Y-65418946D01*
X120356351Y-65405317D01*
X120352834Y-65391276D01*
X120350710Y-65376958D01*
X120350000Y-65362500D01*
X120350000Y-65017500D01*
X120350710Y-65003042D01*
X120352834Y-64988724D01*
X120356351Y-64974683D01*
X120361228Y-64961054D01*
X120367417Y-64947969D01*
X120374858Y-64935553D01*
X120383481Y-64923927D01*
X120393202Y-64913202D01*
X120403927Y-64903481D01*
X120415553Y-64894858D01*
X120427969Y-64887417D01*
X120441054Y-64881228D01*
X120454683Y-64876351D01*
X120468724Y-64872834D01*
X120483042Y-64870710D01*
X120497500Y-64870000D01*
X120792500Y-64870000D01*
X120806958Y-64870710D01*
G37*
G36*
X121776958Y-64870710D02*
G01*
X121791276Y-64872834D01*
X121805317Y-64876351D01*
X121818946Y-64881228D01*
X121832031Y-64887417D01*
X121844447Y-64894858D01*
X121856073Y-64903481D01*
X121866798Y-64913202D01*
X121876519Y-64923927D01*
X121885142Y-64935553D01*
X121892583Y-64947969D01*
X121898772Y-64961054D01*
X121903649Y-64974683D01*
X121907166Y-64988724D01*
X121909290Y-65003042D01*
X121910000Y-65017500D01*
X121910000Y-65362500D01*
X121909290Y-65376958D01*
X121907166Y-65391276D01*
X121903649Y-65405317D01*
X121898772Y-65418946D01*
X121892583Y-65432031D01*
X121885142Y-65444447D01*
X121876519Y-65456073D01*
X121866798Y-65466798D01*
X121856073Y-65476519D01*
X121844447Y-65485142D01*
X121832031Y-65492583D01*
X121818946Y-65498772D01*
X121805317Y-65503649D01*
X121791276Y-65507166D01*
X121776958Y-65509290D01*
X121762500Y-65510000D01*
X121467500Y-65510000D01*
X121453042Y-65509290D01*
X121438724Y-65507166D01*
X121424683Y-65503649D01*
X121411054Y-65498772D01*
X121397969Y-65492583D01*
X121385553Y-65485142D01*
X121373927Y-65476519D01*
X121363202Y-65466798D01*
X121353481Y-65456073D01*
X121344858Y-65444447D01*
X121337417Y-65432031D01*
X121331228Y-65418946D01*
X121326351Y-65405317D01*
X121322834Y-65391276D01*
X121320710Y-65376958D01*
X121320000Y-65362500D01*
X121320000Y-65017500D01*
X121320710Y-65003042D01*
X121322834Y-64988724D01*
X121326351Y-64974683D01*
X121331228Y-64961054D01*
X121337417Y-64947969D01*
X121344858Y-64935553D01*
X121353481Y-64923927D01*
X121363202Y-64913202D01*
X121373927Y-64903481D01*
X121385553Y-64894858D01*
X121397969Y-64887417D01*
X121411054Y-64881228D01*
X121424683Y-64876351D01*
X121438724Y-64872834D01*
X121453042Y-64870710D01*
X121467500Y-64870000D01*
X121762500Y-64870000D01*
X121776958Y-64870710D01*
G37*
G36*
X121076958Y-62880710D02*
G01*
X121091276Y-62882834D01*
X121105317Y-62886351D01*
X121118946Y-62891228D01*
X121132031Y-62897417D01*
X121144447Y-62904858D01*
X121156073Y-62913481D01*
X121166798Y-62923202D01*
X121176519Y-62933927D01*
X121185142Y-62945553D01*
X121192583Y-62957969D01*
X121198772Y-62971054D01*
X121203649Y-62984683D01*
X121207166Y-62998724D01*
X121209290Y-63013042D01*
X121210000Y-63027500D01*
X121210000Y-63372500D01*
X121209290Y-63386958D01*
X121207166Y-63401276D01*
X121203649Y-63415317D01*
X121198772Y-63428946D01*
X121192583Y-63442031D01*
X121185142Y-63454447D01*
X121176519Y-63466073D01*
X121166798Y-63476798D01*
X121156073Y-63486519D01*
X121144447Y-63495142D01*
X121132031Y-63502583D01*
X121118946Y-63508772D01*
X121105317Y-63513649D01*
X121091276Y-63517166D01*
X121076958Y-63519290D01*
X121062500Y-63520000D01*
X120767500Y-63520000D01*
X120753042Y-63519290D01*
X120738724Y-63517166D01*
X120724683Y-63513649D01*
X120711054Y-63508772D01*
X120697969Y-63502583D01*
X120685553Y-63495142D01*
X120673927Y-63486519D01*
X120663202Y-63476798D01*
X120653481Y-63466073D01*
X120644858Y-63454447D01*
X120637417Y-63442031D01*
X120631228Y-63428946D01*
X120626351Y-63415317D01*
X120622834Y-63401276D01*
X120620710Y-63386958D01*
X120620000Y-63372500D01*
X120620000Y-63027500D01*
X120620710Y-63013042D01*
X120622834Y-62998724D01*
X120626351Y-62984683D01*
X120631228Y-62971054D01*
X120637417Y-62957969D01*
X120644858Y-62945553D01*
X120653481Y-62933927D01*
X120663202Y-62923202D01*
X120673927Y-62913481D01*
X120685553Y-62904858D01*
X120697969Y-62897417D01*
X120711054Y-62891228D01*
X120724683Y-62886351D01*
X120738724Y-62882834D01*
X120753042Y-62880710D01*
X120767500Y-62880000D01*
X121062500Y-62880000D01*
X121076958Y-62880710D01*
G37*
G36*
X122046958Y-62880710D02*
G01*
X122061276Y-62882834D01*
X122075317Y-62886351D01*
X122088946Y-62891228D01*
X122102031Y-62897417D01*
X122114447Y-62904858D01*
X122126073Y-62913481D01*
X122136798Y-62923202D01*
X122146519Y-62933927D01*
X122155142Y-62945553D01*
X122162583Y-62957969D01*
X122168772Y-62971054D01*
X122173649Y-62984683D01*
X122177166Y-62998724D01*
X122179290Y-63013042D01*
X122180000Y-63027500D01*
X122180000Y-63372500D01*
X122179290Y-63386958D01*
X122177166Y-63401276D01*
X122173649Y-63415317D01*
X122168772Y-63428946D01*
X122162583Y-63442031D01*
X122155142Y-63454447D01*
X122146519Y-63466073D01*
X122136798Y-63476798D01*
X122126073Y-63486519D01*
X122114447Y-63495142D01*
X122102031Y-63502583D01*
X122088946Y-63508772D01*
X122075317Y-63513649D01*
X122061276Y-63517166D01*
X122046958Y-63519290D01*
X122032500Y-63520000D01*
X121737500Y-63520000D01*
X121723042Y-63519290D01*
X121708724Y-63517166D01*
X121694683Y-63513649D01*
X121681054Y-63508772D01*
X121667969Y-63502583D01*
X121655553Y-63495142D01*
X121643927Y-63486519D01*
X121633202Y-63476798D01*
X121623481Y-63466073D01*
X121614858Y-63454447D01*
X121607417Y-63442031D01*
X121601228Y-63428946D01*
X121596351Y-63415317D01*
X121592834Y-63401276D01*
X121590710Y-63386958D01*
X121590000Y-63372500D01*
X121590000Y-63027500D01*
X121590710Y-63013042D01*
X121592834Y-62998724D01*
X121596351Y-62984683D01*
X121601228Y-62971054D01*
X121607417Y-62957969D01*
X121614858Y-62945553D01*
X121623481Y-62933927D01*
X121633202Y-62923202D01*
X121643927Y-62913481D01*
X121655553Y-62904858D01*
X121667969Y-62897417D01*
X121681054Y-62891228D01*
X121694683Y-62886351D01*
X121708724Y-62882834D01*
X121723042Y-62880710D01*
X121737500Y-62880000D01*
X122032500Y-62880000D01*
X122046958Y-62880710D01*
G37*
G36*
X123076958Y-63880710D02*
G01*
X123091276Y-63882834D01*
X123105317Y-63886351D01*
X123118946Y-63891228D01*
X123132031Y-63897417D01*
X123144447Y-63904858D01*
X123156073Y-63913481D01*
X123166798Y-63923202D01*
X123176519Y-63933927D01*
X123185142Y-63945553D01*
X123192583Y-63957969D01*
X123198772Y-63971054D01*
X123203649Y-63984683D01*
X123207166Y-63998724D01*
X123209290Y-64013042D01*
X123210000Y-64027500D01*
X123210000Y-64372500D01*
X123209290Y-64386958D01*
X123207166Y-64401276D01*
X123203649Y-64415317D01*
X123198772Y-64428946D01*
X123192583Y-64442031D01*
X123185142Y-64454447D01*
X123176519Y-64466073D01*
X123166798Y-64476798D01*
X123156073Y-64486519D01*
X123144447Y-64495142D01*
X123132031Y-64502583D01*
X123118946Y-64508772D01*
X123105317Y-64513649D01*
X123091276Y-64517166D01*
X123076958Y-64519290D01*
X123062500Y-64520000D01*
X122767500Y-64520000D01*
X122753042Y-64519290D01*
X122738724Y-64517166D01*
X122724683Y-64513649D01*
X122711054Y-64508772D01*
X122697969Y-64502583D01*
X122685553Y-64495142D01*
X122673927Y-64486519D01*
X122663202Y-64476798D01*
X122653481Y-64466073D01*
X122644858Y-64454447D01*
X122637417Y-64442031D01*
X122631228Y-64428946D01*
X122626351Y-64415317D01*
X122622834Y-64401276D01*
X122620710Y-64386958D01*
X122620000Y-64372500D01*
X122620000Y-64027500D01*
X122620710Y-64013042D01*
X122622834Y-63998724D01*
X122626351Y-63984683D01*
X122631228Y-63971054D01*
X122637417Y-63957969D01*
X122644858Y-63945553D01*
X122653481Y-63933927D01*
X122663202Y-63923202D01*
X122673927Y-63913481D01*
X122685553Y-63904858D01*
X122697969Y-63897417D01*
X122711054Y-63891228D01*
X122724683Y-63886351D01*
X122738724Y-63882834D01*
X122753042Y-63880710D01*
X122767500Y-63880000D01*
X123062500Y-63880000D01*
X123076958Y-63880710D01*
G37*
G36*
X124046958Y-63880710D02*
G01*
X124061276Y-63882834D01*
X124075317Y-63886351D01*
X124088946Y-63891228D01*
X124102031Y-63897417D01*
X124114447Y-63904858D01*
X124126073Y-63913481D01*
X124136798Y-63923202D01*
X124146519Y-63933927D01*
X124155142Y-63945553D01*
X124162583Y-63957969D01*
X124168772Y-63971054D01*
X124173649Y-63984683D01*
X124177166Y-63998724D01*
X124179290Y-64013042D01*
X124180000Y-64027500D01*
X124180000Y-64372500D01*
X124179290Y-64386958D01*
X124177166Y-64401276D01*
X124173649Y-64415317D01*
X124168772Y-64428946D01*
X124162583Y-64442031D01*
X124155142Y-64454447D01*
X124146519Y-64466073D01*
X124136798Y-64476798D01*
X124126073Y-64486519D01*
X124114447Y-64495142D01*
X124102031Y-64502583D01*
X124088946Y-64508772D01*
X124075317Y-64513649D01*
X124061276Y-64517166D01*
X124046958Y-64519290D01*
X124032500Y-64520000D01*
X123737500Y-64520000D01*
X123723042Y-64519290D01*
X123708724Y-64517166D01*
X123694683Y-64513649D01*
X123681054Y-64508772D01*
X123667969Y-64502583D01*
X123655553Y-64495142D01*
X123643927Y-64486519D01*
X123633202Y-64476798D01*
X123623481Y-64466073D01*
X123614858Y-64454447D01*
X123607417Y-64442031D01*
X123601228Y-64428946D01*
X123596351Y-64415317D01*
X123592834Y-64401276D01*
X123590710Y-64386958D01*
X123590000Y-64372500D01*
X123590000Y-64027500D01*
X123590710Y-64013042D01*
X123592834Y-63998724D01*
X123596351Y-63984683D01*
X123601228Y-63971054D01*
X123607417Y-63957969D01*
X123614858Y-63945553D01*
X123623481Y-63933927D01*
X123633202Y-63923202D01*
X123643927Y-63913481D01*
X123655553Y-63904858D01*
X123667969Y-63897417D01*
X123681054Y-63891228D01*
X123694683Y-63886351D01*
X123708724Y-63882834D01*
X123723042Y-63880710D01*
X123737500Y-63880000D01*
X124032500Y-63880000D01*
X124046958Y-63880710D01*
G37*
G36*
X123176958Y-65180710D02*
G01*
X123191276Y-65182834D01*
X123205317Y-65186351D01*
X123218946Y-65191228D01*
X123232031Y-65197417D01*
X123244447Y-65204858D01*
X123256073Y-65213481D01*
X123266798Y-65223202D01*
X123276519Y-65233927D01*
X123285142Y-65245553D01*
X123292583Y-65257969D01*
X123298772Y-65271054D01*
X123303649Y-65284683D01*
X123307166Y-65298724D01*
X123309290Y-65313042D01*
X123310000Y-65327500D01*
X123310000Y-65672500D01*
X123309290Y-65686958D01*
X123307166Y-65701276D01*
X123303649Y-65715317D01*
X123298772Y-65728946D01*
X123292583Y-65742031D01*
X123285142Y-65754447D01*
X123276519Y-65766073D01*
X123266798Y-65776798D01*
X123256073Y-65786519D01*
X123244447Y-65795142D01*
X123232031Y-65802583D01*
X123218946Y-65808772D01*
X123205317Y-65813649D01*
X123191276Y-65817166D01*
X123176958Y-65819290D01*
X123162500Y-65820000D01*
X122867500Y-65820000D01*
X122853042Y-65819290D01*
X122838724Y-65817166D01*
X122824683Y-65813649D01*
X122811054Y-65808772D01*
X122797969Y-65802583D01*
X122785553Y-65795142D01*
X122773927Y-65786519D01*
X122763202Y-65776798D01*
X122753481Y-65766073D01*
X122744858Y-65754447D01*
X122737417Y-65742031D01*
X122731228Y-65728946D01*
X122726351Y-65715317D01*
X122722834Y-65701276D01*
X122720710Y-65686958D01*
X122720000Y-65672500D01*
X122720000Y-65327500D01*
X122720710Y-65313042D01*
X122722834Y-65298724D01*
X122726351Y-65284683D01*
X122731228Y-65271054D01*
X122737417Y-65257969D01*
X122744858Y-65245553D01*
X122753481Y-65233927D01*
X122763202Y-65223202D01*
X122773927Y-65213481D01*
X122785553Y-65204858D01*
X122797969Y-65197417D01*
X122811054Y-65191228D01*
X122824683Y-65186351D01*
X122838724Y-65182834D01*
X122853042Y-65180710D01*
X122867500Y-65180000D01*
X123162500Y-65180000D01*
X123176958Y-65180710D01*
G37*
G36*
X124146958Y-65180710D02*
G01*
X124161276Y-65182834D01*
X124175317Y-65186351D01*
X124188946Y-65191228D01*
X124202031Y-65197417D01*
X124214447Y-65204858D01*
X124226073Y-65213481D01*
X124236798Y-65223202D01*
X124246519Y-65233927D01*
X124255142Y-65245553D01*
X124262583Y-65257969D01*
X124268772Y-65271054D01*
X124273649Y-65284683D01*
X124277166Y-65298724D01*
X124279290Y-65313042D01*
X124280000Y-65327500D01*
X124280000Y-65672500D01*
X124279290Y-65686958D01*
X124277166Y-65701276D01*
X124273649Y-65715317D01*
X124268772Y-65728946D01*
X124262583Y-65742031D01*
X124255142Y-65754447D01*
X124246519Y-65766073D01*
X124236798Y-65776798D01*
X124226073Y-65786519D01*
X124214447Y-65795142D01*
X124202031Y-65802583D01*
X124188946Y-65808772D01*
X124175317Y-65813649D01*
X124161276Y-65817166D01*
X124146958Y-65819290D01*
X124132500Y-65820000D01*
X123837500Y-65820000D01*
X123823042Y-65819290D01*
X123808724Y-65817166D01*
X123794683Y-65813649D01*
X123781054Y-65808772D01*
X123767969Y-65802583D01*
X123755553Y-65795142D01*
X123743927Y-65786519D01*
X123733202Y-65776798D01*
X123723481Y-65766073D01*
X123714858Y-65754447D01*
X123707417Y-65742031D01*
X123701228Y-65728946D01*
X123696351Y-65715317D01*
X123692834Y-65701276D01*
X123690710Y-65686958D01*
X123690000Y-65672500D01*
X123690000Y-65327500D01*
X123690710Y-65313042D01*
X123692834Y-65298724D01*
X123696351Y-65284683D01*
X123701228Y-65271054D01*
X123707417Y-65257969D01*
X123714858Y-65245553D01*
X123723481Y-65233927D01*
X123733202Y-65223202D01*
X123743927Y-65213481D01*
X123755553Y-65204858D01*
X123767969Y-65197417D01*
X123781054Y-65191228D01*
X123794683Y-65186351D01*
X123808724Y-65182834D01*
X123823042Y-65180710D01*
X123837500Y-65180000D01*
X124132500Y-65180000D01*
X124146958Y-65180710D01*
G37*
G36*
X123476958Y-68580710D02*
G01*
X123491276Y-68582834D01*
X123505317Y-68586351D01*
X123518946Y-68591228D01*
X123532031Y-68597417D01*
X123544447Y-68604858D01*
X123556073Y-68613481D01*
X123566798Y-68623202D01*
X123576519Y-68633927D01*
X123585142Y-68645553D01*
X123592583Y-68657969D01*
X123598772Y-68671054D01*
X123603649Y-68684683D01*
X123607166Y-68698724D01*
X123609290Y-68713042D01*
X123610000Y-68727500D01*
X123610000Y-69072500D01*
X123609290Y-69086958D01*
X123607166Y-69101276D01*
X123603649Y-69115317D01*
X123598772Y-69128946D01*
X123592583Y-69142031D01*
X123585142Y-69154447D01*
X123576519Y-69166073D01*
X123566798Y-69176798D01*
X123556073Y-69186519D01*
X123544447Y-69195142D01*
X123532031Y-69202583D01*
X123518946Y-69208772D01*
X123505317Y-69213649D01*
X123491276Y-69217166D01*
X123476958Y-69219290D01*
X123462500Y-69220000D01*
X123167500Y-69220000D01*
X123153042Y-69219290D01*
X123138724Y-69217166D01*
X123124683Y-69213649D01*
X123111054Y-69208772D01*
X123097969Y-69202583D01*
X123085553Y-69195142D01*
X123073927Y-69186519D01*
X123063202Y-69176798D01*
X123053481Y-69166073D01*
X123044858Y-69154447D01*
X123037417Y-69142031D01*
X123031228Y-69128946D01*
X123026351Y-69115317D01*
X123022834Y-69101276D01*
X123020710Y-69086958D01*
X123020000Y-69072500D01*
X123020000Y-68727500D01*
X123020710Y-68713042D01*
X123022834Y-68698724D01*
X123026351Y-68684683D01*
X123031228Y-68671054D01*
X123037417Y-68657969D01*
X123044858Y-68645553D01*
X123053481Y-68633927D01*
X123063202Y-68623202D01*
X123073927Y-68613481D01*
X123085553Y-68604858D01*
X123097969Y-68597417D01*
X123111054Y-68591228D01*
X123124683Y-68586351D01*
X123138724Y-68582834D01*
X123153042Y-68580710D01*
X123167500Y-68580000D01*
X123462500Y-68580000D01*
X123476958Y-68580710D01*
G37*
G36*
X124446958Y-68580710D02*
G01*
X124461276Y-68582834D01*
X124475317Y-68586351D01*
X124488946Y-68591228D01*
X124502031Y-68597417D01*
X124514447Y-68604858D01*
X124526073Y-68613481D01*
X124536798Y-68623202D01*
X124546519Y-68633927D01*
X124555142Y-68645553D01*
X124562583Y-68657969D01*
X124568772Y-68671054D01*
X124573649Y-68684683D01*
X124577166Y-68698724D01*
X124579290Y-68713042D01*
X124580000Y-68727500D01*
X124580000Y-69072500D01*
X124579290Y-69086958D01*
X124577166Y-69101276D01*
X124573649Y-69115317D01*
X124568772Y-69128946D01*
X124562583Y-69142031D01*
X124555142Y-69154447D01*
X124546519Y-69166073D01*
X124536798Y-69176798D01*
X124526073Y-69186519D01*
X124514447Y-69195142D01*
X124502031Y-69202583D01*
X124488946Y-69208772D01*
X124475317Y-69213649D01*
X124461276Y-69217166D01*
X124446958Y-69219290D01*
X124432500Y-69220000D01*
X124137500Y-69220000D01*
X124123042Y-69219290D01*
X124108724Y-69217166D01*
X124094683Y-69213649D01*
X124081054Y-69208772D01*
X124067969Y-69202583D01*
X124055553Y-69195142D01*
X124043927Y-69186519D01*
X124033202Y-69176798D01*
X124023481Y-69166073D01*
X124014858Y-69154447D01*
X124007417Y-69142031D01*
X124001228Y-69128946D01*
X123996351Y-69115317D01*
X123992834Y-69101276D01*
X123990710Y-69086958D01*
X123990000Y-69072500D01*
X123990000Y-68727500D01*
X123990710Y-68713042D01*
X123992834Y-68698724D01*
X123996351Y-68684683D01*
X124001228Y-68671054D01*
X124007417Y-68657969D01*
X124014858Y-68645553D01*
X124023481Y-68633927D01*
X124033202Y-68623202D01*
X124043927Y-68613481D01*
X124055553Y-68604858D01*
X124067969Y-68597417D01*
X124081054Y-68591228D01*
X124094683Y-68586351D01*
X124108724Y-68582834D01*
X124123042Y-68580710D01*
X124137500Y-68580000D01*
X124432500Y-68580000D01*
X124446958Y-68580710D01*
G37*
G36*
X117787252Y-66275602D02*
G01*
X117799386Y-66277402D01*
X117811286Y-66280382D01*
X117822835Y-66284515D01*
X117833925Y-66289760D01*
X117844446Y-66296066D01*
X117854299Y-66303374D01*
X117863388Y-66311612D01*
X117871626Y-66320701D01*
X117878934Y-66330554D01*
X117885240Y-66341075D01*
X117890485Y-66352165D01*
X117894618Y-66363714D01*
X117897598Y-66375614D01*
X117899398Y-66387748D01*
X117900000Y-66400000D01*
X117900000Y-66650000D01*
X117899398Y-66662252D01*
X117897598Y-66674386D01*
X117894618Y-66686286D01*
X117890485Y-66697835D01*
X117885240Y-66708925D01*
X117878934Y-66719446D01*
X117871626Y-66729299D01*
X117863388Y-66738388D01*
X117854299Y-66746626D01*
X117844446Y-66753934D01*
X117833925Y-66760240D01*
X117822835Y-66765485D01*
X117811286Y-66769618D01*
X117799386Y-66772598D01*
X117787252Y-66774398D01*
X117775000Y-66775000D01*
X116400000Y-66775000D01*
X116387748Y-66774398D01*
X116375614Y-66772598D01*
X116363714Y-66769618D01*
X116352165Y-66765485D01*
X116341075Y-66760240D01*
X116330554Y-66753934D01*
X116320701Y-66746626D01*
X116311612Y-66738388D01*
X116303374Y-66729299D01*
X116296066Y-66719446D01*
X116289760Y-66708925D01*
X116284515Y-66697835D01*
X116280382Y-66686286D01*
X116277402Y-66674386D01*
X116275602Y-66662252D01*
X116275000Y-66650000D01*
X116275000Y-66400000D01*
X116275602Y-66387748D01*
X116277402Y-66375614D01*
X116280382Y-66363714D01*
X116284515Y-66352165D01*
X116289760Y-66341075D01*
X116296066Y-66330554D01*
X116303374Y-66320701D01*
X116311612Y-66311612D01*
X116320701Y-66303374D01*
X116330554Y-66296066D01*
X116341075Y-66289760D01*
X116352165Y-66284515D01*
X116363714Y-66280382D01*
X116375614Y-66277402D01*
X116387748Y-66275602D01*
X116400000Y-66275000D01*
X117775000Y-66275000D01*
X117787252Y-66275602D01*
G37*
G36*
X117787252Y-66925602D02*
G01*
X117799386Y-66927402D01*
X117811286Y-66930382D01*
X117822835Y-66934515D01*
X117833925Y-66939760D01*
X117844446Y-66946066D01*
X117854299Y-66953374D01*
X117863388Y-66961612D01*
X117871626Y-66970701D01*
X117878934Y-66980554D01*
X117885240Y-66991075D01*
X117890485Y-67002165D01*
X117894618Y-67013714D01*
X117897598Y-67025614D01*
X117899398Y-67037748D01*
X117900000Y-67050000D01*
X117900000Y-67300000D01*
X117899398Y-67312252D01*
X117897598Y-67324386D01*
X117894618Y-67336286D01*
X117890485Y-67347835D01*
X117885240Y-67358925D01*
X117878934Y-67369446D01*
X117871626Y-67379299D01*
X117863388Y-67388388D01*
X117854299Y-67396626D01*
X117844446Y-67403934D01*
X117833925Y-67410240D01*
X117822835Y-67415485D01*
X117811286Y-67419618D01*
X117799386Y-67422598D01*
X117787252Y-67424398D01*
X117775000Y-67425000D01*
X116400000Y-67425000D01*
X116387748Y-67424398D01*
X116375614Y-67422598D01*
X116363714Y-67419618D01*
X116352165Y-67415485D01*
X116341075Y-67410240D01*
X116330554Y-67403934D01*
X116320701Y-67396626D01*
X116311612Y-67388388D01*
X116303374Y-67379299D01*
X116296066Y-67369446D01*
X116289760Y-67358925D01*
X116284515Y-67347835D01*
X116280382Y-67336286D01*
X116277402Y-67324386D01*
X116275602Y-67312252D01*
X116275000Y-67300000D01*
X116275000Y-67050000D01*
X116275602Y-67037748D01*
X116277402Y-67025614D01*
X116280382Y-67013714D01*
X116284515Y-67002165D01*
X116289760Y-66991075D01*
X116296066Y-66980554D01*
X116303374Y-66970701D01*
X116311612Y-66961612D01*
X116320701Y-66953374D01*
X116330554Y-66946066D01*
X116341075Y-66939760D01*
X116352165Y-66934515D01*
X116363714Y-66930382D01*
X116375614Y-66927402D01*
X116387748Y-66925602D01*
X116400000Y-66925000D01*
X117775000Y-66925000D01*
X117787252Y-66925602D01*
G37*
G36*
X117787252Y-67575602D02*
G01*
X117799386Y-67577402D01*
X117811286Y-67580382D01*
X117822835Y-67584515D01*
X117833925Y-67589760D01*
X117844446Y-67596066D01*
X117854299Y-67603374D01*
X117863388Y-67611612D01*
X117871626Y-67620701D01*
X117878934Y-67630554D01*
X117885240Y-67641075D01*
X117890485Y-67652165D01*
X117894618Y-67663714D01*
X117897598Y-67675614D01*
X117899398Y-67687748D01*
X117900000Y-67700000D01*
X117900000Y-67950000D01*
X117899398Y-67962252D01*
X117897598Y-67974386D01*
X117894618Y-67986286D01*
X117890485Y-67997835D01*
X117885240Y-68008925D01*
X117878934Y-68019446D01*
X117871626Y-68029299D01*
X117863388Y-68038388D01*
X117854299Y-68046626D01*
X117844446Y-68053934D01*
X117833925Y-68060240D01*
X117822835Y-68065485D01*
X117811286Y-68069618D01*
X117799386Y-68072598D01*
X117787252Y-68074398D01*
X117775000Y-68075000D01*
X116400000Y-68075000D01*
X116387748Y-68074398D01*
X116375614Y-68072598D01*
X116363714Y-68069618D01*
X116352165Y-68065485D01*
X116341075Y-68060240D01*
X116330554Y-68053934D01*
X116320701Y-68046626D01*
X116311612Y-68038388D01*
X116303374Y-68029299D01*
X116296066Y-68019446D01*
X116289760Y-68008925D01*
X116284515Y-67997835D01*
X116280382Y-67986286D01*
X116277402Y-67974386D01*
X116275602Y-67962252D01*
X116275000Y-67950000D01*
X116275000Y-67700000D01*
X116275602Y-67687748D01*
X116277402Y-67675614D01*
X116280382Y-67663714D01*
X116284515Y-67652165D01*
X116289760Y-67641075D01*
X116296066Y-67630554D01*
X116303374Y-67620701D01*
X116311612Y-67611612D01*
X116320701Y-67603374D01*
X116330554Y-67596066D01*
X116341075Y-67589760D01*
X116352165Y-67584515D01*
X116363714Y-67580382D01*
X116375614Y-67577402D01*
X116387748Y-67575602D01*
X116400000Y-67575000D01*
X117775000Y-67575000D01*
X117787252Y-67575602D01*
G37*
G36*
X117787252Y-68225602D02*
G01*
X117799386Y-68227402D01*
X117811286Y-68230382D01*
X117822835Y-68234515D01*
X117833925Y-68239760D01*
X117844446Y-68246066D01*
X117854299Y-68253374D01*
X117863388Y-68261612D01*
X117871626Y-68270701D01*
X117878934Y-68280554D01*
X117885240Y-68291075D01*
X117890485Y-68302165D01*
X117894618Y-68313714D01*
X117897598Y-68325614D01*
X117899398Y-68337748D01*
X117900000Y-68350000D01*
X117900000Y-68600000D01*
X117899398Y-68612252D01*
X117897598Y-68624386D01*
X117894618Y-68636286D01*
X117890485Y-68647835D01*
X117885240Y-68658925D01*
X117878934Y-68669446D01*
X117871626Y-68679299D01*
X117863388Y-68688388D01*
X117854299Y-68696626D01*
X117844446Y-68703934D01*
X117833925Y-68710240D01*
X117822835Y-68715485D01*
X117811286Y-68719618D01*
X117799386Y-68722598D01*
X117787252Y-68724398D01*
X117775000Y-68725000D01*
X116400000Y-68725000D01*
X116387748Y-68724398D01*
X116375614Y-68722598D01*
X116363714Y-68719618D01*
X116352165Y-68715485D01*
X116341075Y-68710240D01*
X116330554Y-68703934D01*
X116320701Y-68696626D01*
X116311612Y-68688388D01*
X116303374Y-68679299D01*
X116296066Y-68669446D01*
X116289760Y-68658925D01*
X116284515Y-68647835D01*
X116280382Y-68636286D01*
X116277402Y-68624386D01*
X116275602Y-68612252D01*
X116275000Y-68600000D01*
X116275000Y-68350000D01*
X116275602Y-68337748D01*
X116277402Y-68325614D01*
X116280382Y-68313714D01*
X116284515Y-68302165D01*
X116289760Y-68291075D01*
X116296066Y-68280554D01*
X116303374Y-68270701D01*
X116311612Y-68261612D01*
X116320701Y-68253374D01*
X116330554Y-68246066D01*
X116341075Y-68239760D01*
X116352165Y-68234515D01*
X116363714Y-68230382D01*
X116375614Y-68227402D01*
X116387748Y-68225602D01*
X116400000Y-68225000D01*
X117775000Y-68225000D01*
X117787252Y-68225602D01*
G37*
G36*
X122012252Y-68225602D02*
G01*
X122024386Y-68227402D01*
X122036286Y-68230382D01*
X122047835Y-68234515D01*
X122058925Y-68239760D01*
X122069446Y-68246066D01*
X122079299Y-68253374D01*
X122088388Y-68261612D01*
X122096626Y-68270701D01*
X122103934Y-68280554D01*
X122110240Y-68291075D01*
X122115485Y-68302165D01*
X122119618Y-68313714D01*
X122122598Y-68325614D01*
X122124398Y-68337748D01*
X122125000Y-68350000D01*
X122125000Y-68600000D01*
X122124398Y-68612252D01*
X122122598Y-68624386D01*
X122119618Y-68636286D01*
X122115485Y-68647835D01*
X122110240Y-68658925D01*
X122103934Y-68669446D01*
X122096626Y-68679299D01*
X122088388Y-68688388D01*
X122079299Y-68696626D01*
X122069446Y-68703934D01*
X122058925Y-68710240D01*
X122047835Y-68715485D01*
X122036286Y-68719618D01*
X122024386Y-68722598D01*
X122012252Y-68724398D01*
X122000000Y-68725000D01*
X120625000Y-68725000D01*
X120612748Y-68724398D01*
X120600614Y-68722598D01*
X120588714Y-68719618D01*
X120577165Y-68715485D01*
X120566075Y-68710240D01*
X120555554Y-68703934D01*
X120545701Y-68696626D01*
X120536612Y-68688388D01*
X120528374Y-68679299D01*
X120521066Y-68669446D01*
X120514760Y-68658925D01*
X120509515Y-68647835D01*
X120505382Y-68636286D01*
X120502402Y-68624386D01*
X120500602Y-68612252D01*
X120500000Y-68600000D01*
X120500000Y-68350000D01*
X120500602Y-68337748D01*
X120502402Y-68325614D01*
X120505382Y-68313714D01*
X120509515Y-68302165D01*
X120514760Y-68291075D01*
X120521066Y-68280554D01*
X120528374Y-68270701D01*
X120536612Y-68261612D01*
X120545701Y-68253374D01*
X120555554Y-68246066D01*
X120566075Y-68239760D01*
X120577165Y-68234515D01*
X120588714Y-68230382D01*
X120600614Y-68227402D01*
X120612748Y-68225602D01*
X120625000Y-68225000D01*
X122000000Y-68225000D01*
X122012252Y-68225602D01*
G37*
G36*
X122012252Y-67575602D02*
G01*
X122024386Y-67577402D01*
X122036286Y-67580382D01*
X122047835Y-67584515D01*
X122058925Y-67589760D01*
X122069446Y-67596066D01*
X122079299Y-67603374D01*
X122088388Y-67611612D01*
X122096626Y-67620701D01*
X122103934Y-67630554D01*
X122110240Y-67641075D01*
X122115485Y-67652165D01*
X122119618Y-67663714D01*
X122122598Y-67675614D01*
X122124398Y-67687748D01*
X122125000Y-67700000D01*
X122125000Y-67950000D01*
X122124398Y-67962252D01*
X122122598Y-67974386D01*
X122119618Y-67986286D01*
X122115485Y-67997835D01*
X122110240Y-68008925D01*
X122103934Y-68019446D01*
X122096626Y-68029299D01*
X122088388Y-68038388D01*
X122079299Y-68046626D01*
X122069446Y-68053934D01*
X122058925Y-68060240D01*
X122047835Y-68065485D01*
X122036286Y-68069618D01*
X122024386Y-68072598D01*
X122012252Y-68074398D01*
X122000000Y-68075000D01*
X120625000Y-68075000D01*
X120612748Y-68074398D01*
X120600614Y-68072598D01*
X120588714Y-68069618D01*
X120577165Y-68065485D01*
X120566075Y-68060240D01*
X120555554Y-68053934D01*
X120545701Y-68046626D01*
X120536612Y-68038388D01*
X120528374Y-68029299D01*
X120521066Y-68019446D01*
X120514760Y-68008925D01*
X120509515Y-67997835D01*
X120505382Y-67986286D01*
X120502402Y-67974386D01*
X120500602Y-67962252D01*
X120500000Y-67950000D01*
X120500000Y-67700000D01*
X120500602Y-67687748D01*
X120502402Y-67675614D01*
X120505382Y-67663714D01*
X120509515Y-67652165D01*
X120514760Y-67641075D01*
X120521066Y-67630554D01*
X120528374Y-67620701D01*
X120536612Y-67611612D01*
X120545701Y-67603374D01*
X120555554Y-67596066D01*
X120566075Y-67589760D01*
X120577165Y-67584515D01*
X120588714Y-67580382D01*
X120600614Y-67577402D01*
X120612748Y-67575602D01*
X120625000Y-67575000D01*
X122000000Y-67575000D01*
X122012252Y-67575602D01*
G37*
G36*
X122012252Y-66925602D02*
G01*
X122024386Y-66927402D01*
X122036286Y-66930382D01*
X122047835Y-66934515D01*
X122058925Y-66939760D01*
X122069446Y-66946066D01*
X122079299Y-66953374D01*
X122088388Y-66961612D01*
X122096626Y-66970701D01*
X122103934Y-66980554D01*
X122110240Y-66991075D01*
X122115485Y-67002165D01*
X122119618Y-67013714D01*
X122122598Y-67025614D01*
X122124398Y-67037748D01*
X122125000Y-67050000D01*
X122125000Y-67300000D01*
X122124398Y-67312252D01*
X122122598Y-67324386D01*
X122119618Y-67336286D01*
X122115485Y-67347835D01*
X122110240Y-67358925D01*
X122103934Y-67369446D01*
X122096626Y-67379299D01*
X122088388Y-67388388D01*
X122079299Y-67396626D01*
X122069446Y-67403934D01*
X122058925Y-67410240D01*
X122047835Y-67415485D01*
X122036286Y-67419618D01*
X122024386Y-67422598D01*
X122012252Y-67424398D01*
X122000000Y-67425000D01*
X120625000Y-67425000D01*
X120612748Y-67424398D01*
X120600614Y-67422598D01*
X120588714Y-67419618D01*
X120577165Y-67415485D01*
X120566075Y-67410240D01*
X120555554Y-67403934D01*
X120545701Y-67396626D01*
X120536612Y-67388388D01*
X120528374Y-67379299D01*
X120521066Y-67369446D01*
X120514760Y-67358925D01*
X120509515Y-67347835D01*
X120505382Y-67336286D01*
X120502402Y-67324386D01*
X120500602Y-67312252D01*
X120500000Y-67300000D01*
X120500000Y-67050000D01*
X120500602Y-67037748D01*
X120502402Y-67025614D01*
X120505382Y-67013714D01*
X120509515Y-67002165D01*
X120514760Y-66991075D01*
X120521066Y-66980554D01*
X120528374Y-66970701D01*
X120536612Y-66961612D01*
X120545701Y-66953374D01*
X120555554Y-66946066D01*
X120566075Y-66939760D01*
X120577165Y-66934515D01*
X120588714Y-66930382D01*
X120600614Y-66927402D01*
X120612748Y-66925602D01*
X120625000Y-66925000D01*
X122000000Y-66925000D01*
X122012252Y-66925602D01*
G37*
G36*
X122012252Y-66275602D02*
G01*
X122024386Y-66277402D01*
X122036286Y-66280382D01*
X122047835Y-66284515D01*
X122058925Y-66289760D01*
X122069446Y-66296066D01*
X122079299Y-66303374D01*
X122088388Y-66311612D01*
X122096626Y-66320701D01*
X122103934Y-66330554D01*
X122110240Y-66341075D01*
X122115485Y-66352165D01*
X122119618Y-66363714D01*
X122122598Y-66375614D01*
X122124398Y-66387748D01*
X122125000Y-66400000D01*
X122125000Y-66650000D01*
X122124398Y-66662252D01*
X122122598Y-66674386D01*
X122119618Y-66686286D01*
X122115485Y-66697835D01*
X122110240Y-66708925D01*
X122103934Y-66719446D01*
X122096626Y-66729299D01*
X122088388Y-66738388D01*
X122079299Y-66746626D01*
X122069446Y-66753934D01*
X122058925Y-66760240D01*
X122047835Y-66765485D01*
X122036286Y-66769618D01*
X122024386Y-66772598D01*
X122012252Y-66774398D01*
X122000000Y-66775000D01*
X120625000Y-66775000D01*
X120612748Y-66774398D01*
X120600614Y-66772598D01*
X120588714Y-66769618D01*
X120577165Y-66765485D01*
X120566075Y-66760240D01*
X120555554Y-66753934D01*
X120545701Y-66746626D01*
X120536612Y-66738388D01*
X120528374Y-66729299D01*
X120521066Y-66719446D01*
X120514760Y-66708925D01*
X120509515Y-66697835D01*
X120505382Y-66686286D01*
X120502402Y-66674386D01*
X120500602Y-66662252D01*
X120500000Y-66650000D01*
X120500000Y-66400000D01*
X120500602Y-66387748D01*
X120502402Y-66375614D01*
X120505382Y-66363714D01*
X120509515Y-66352165D01*
X120514760Y-66341075D01*
X120521066Y-66330554D01*
X120528374Y-66320701D01*
X120536612Y-66311612D01*
X120545701Y-66303374D01*
X120555554Y-66296066D01*
X120566075Y-66289760D01*
X120577165Y-66284515D01*
X120588714Y-66280382D01*
X120600614Y-66277402D01*
X120612748Y-66275602D01*
X120625000Y-66275000D01*
X122000000Y-66275000D01*
X122012252Y-66275602D01*
G37*
D11*
X137700000Y-71700000D03*
M02*
