G04 #@! TF.GenerationSoftware,KiCad,Pcbnew,(5.1.5-0-10_14)*
G04 #@! TF.CreationDate,2020-05-02T21:38:08-07:00*
G04 #@! TF.ProjectId,EOGlass,454f476c-6173-4732-9e6b-696361645f70,rev?*
G04 #@! TF.SameCoordinates,Original*
G04 #@! TF.FileFunction,Copper,L3,Inr*
G04 #@! TF.FilePolarity,Positive*
%FSLAX46Y46*%
G04 Gerber Fmt 4.6, Leading zero omitted, Abs format (unit mm)*
G04 Created by KiCad (PCBNEW (5.1.5-0-10_14)) date 2020-05-02 21:38:08*
%MOMM*%
%LPD*%
G04 APERTURE LIST*
%ADD10O,1.100000X1.800000*%
%ADD11O,1.100000X2.200000*%
%ADD12C,0.450000*%
%ADD13C,0.130000*%
%ADD14C,0.150000*%
G04 APERTURE END LIST*
D10*
X137125000Y-69000000D03*
X137125000Y-63400000D03*
D11*
X139275000Y-66200000D03*
D12*
X116500000Y-65950000D03*
X121900000Y-70500000D03*
X120200000Y-66500000D03*
X125400000Y-70400000D03*
X125400000Y-71700000D03*
X124843539Y-71705758D03*
X122600000Y-72000000D03*
X122000000Y-72000000D03*
X127830000Y-68630000D03*
X122400000Y-66700000D03*
X120036424Y-67518962D03*
X137680000Y-72470000D03*
X135900000Y-71000000D03*
X137470000Y-70930000D03*
X121412500Y-69287500D03*
X120800000Y-72500000D03*
X139300000Y-71100000D03*
X139300000Y-72597600D03*
X134400000Y-62600000D03*
X135500000Y-72600000D03*
X128100000Y-67897597D03*
X133922753Y-69664493D03*
X133900000Y-68300000D03*
X130900000Y-70200000D03*
X130900000Y-68800000D03*
X134400000Y-63100000D03*
X117187872Y-69199073D03*
X124735046Y-70462031D03*
X122500000Y-68000000D03*
X139500000Y-69700000D03*
X139500000Y-67800000D03*
X127000000Y-71400000D03*
X131981386Y-72492754D03*
X115930000Y-69010000D03*
X115460000Y-66240000D03*
X123540000Y-62500000D03*
X120530000Y-62480000D03*
X119990000Y-64260000D03*
X119840000Y-62530000D03*
X123070000Y-62500000D03*
X135910000Y-62550000D03*
X135990000Y-63390000D03*
X138320000Y-63390000D03*
X138420000Y-62470000D03*
X139500000Y-62460000D03*
X139470000Y-64340000D03*
X139530000Y-63450000D03*
X139500000Y-69210000D03*
X136920000Y-70680000D03*
X135660000Y-72050000D03*
X130680000Y-72550000D03*
X130020000Y-72550000D03*
X131360000Y-72550000D03*
X121790000Y-72550000D03*
X121260000Y-72540000D03*
X116970000Y-70360000D03*
X129850000Y-67420000D03*
X129260000Y-67440000D03*
X129480000Y-66800000D03*
X127970000Y-65290000D03*
X127960000Y-65940000D03*
X127950000Y-66530000D03*
X128860000Y-65590000D03*
X131060000Y-67360000D03*
X130230000Y-69400000D03*
X130230000Y-70210000D03*
X133770000Y-65740000D03*
X133060000Y-67280000D03*
X132580000Y-66890000D03*
X132850000Y-65490000D03*
X131000000Y-66100000D03*
X118640000Y-67940000D03*
X118690000Y-65400000D03*
X122980000Y-70470000D03*
X134290000Y-72600000D03*
X119500000Y-70470000D03*
X118720000Y-69200000D03*
X136097984Y-64884733D03*
X138500000Y-64600000D03*
X138500000Y-65100000D03*
X136500000Y-64500000D03*
X136200000Y-65500000D03*
X138705000Y-71100000D03*
X122980000Y-70470000D03*
X123200000Y-71900000D03*
X117100000Y-64700000D03*
X134200000Y-63900000D03*
X133900000Y-64900000D03*
X128600000Y-64900000D03*
X127480000Y-63690000D03*
X124950000Y-64810000D03*
X122250000Y-65910000D03*
X119180000Y-66660000D03*
X118610000Y-66660000D03*
X138120000Y-64230000D03*
X129080000Y-68140000D03*
X122020000Y-69100000D03*
X119500000Y-67930000D03*
X130840000Y-64830000D03*
X133300000Y-65000000D03*
X126330000Y-72540000D03*
X125790000Y-63520000D03*
X136200000Y-67300000D03*
X129700000Y-68000000D03*
X124900000Y-67200000D03*
X133200000Y-72600000D03*
X119700000Y-65400000D03*
X117400000Y-65200000D03*
X128702403Y-64200000D03*
X138510000Y-67850000D03*
X133600000Y-66400000D03*
X128162297Y-64096135D03*
X134600000Y-72100000D03*
X125195735Y-72210664D03*
X125946937Y-72145329D03*
X136000000Y-64100000D03*
X126724228Y-63575772D03*
X125400000Y-62740000D03*
X125239228Y-63520772D03*
X133100000Y-66600000D03*
X133200000Y-66100000D03*
X120100000Y-64800000D03*
X120200000Y-63500000D03*
X128100000Y-67295194D03*
X127100000Y-70600000D03*
X120400000Y-70600000D03*
X122370000Y-65030000D03*
X129700000Y-64300000D03*
X127400000Y-72200000D03*
X133142400Y-64274038D03*
X132290618Y-65220000D03*
X132400000Y-66000000D03*
X124900000Y-65500000D03*
X124400000Y-62800000D03*
X125100000Y-66200000D03*
X117300000Y-69800000D03*
X117400000Y-65900000D03*
X122200000Y-69700000D03*
D13*
X123200000Y-72218198D02*
X123200000Y-71900000D01*
X122770000Y-72680000D02*
X123200000Y-72218198D01*
X121850000Y-72550000D02*
X122000000Y-72700000D01*
X121790000Y-72550000D02*
X121850000Y-72550000D01*
X122750000Y-72700000D02*
X122770000Y-72680000D01*
X122000000Y-72700000D02*
X122750000Y-72700000D01*
D14*
G36*
X136167083Y-62397379D02*
G01*
X136058169Y-62596799D01*
X135990253Y-62813635D01*
X135965944Y-63039555D01*
X136124330Y-63221000D01*
X136946000Y-63221000D01*
X136946000Y-63201000D01*
X137304000Y-63201000D01*
X137304000Y-63221000D01*
X138125670Y-63221000D01*
X138284056Y-63039555D01*
X138259747Y-62813635D01*
X138191831Y-62596799D01*
X138082917Y-62397379D01*
X137980624Y-62275000D01*
X139725000Y-62275000D01*
X139725000Y-64600058D01*
X139626811Y-64573005D01*
X139454000Y-64679113D01*
X139454000Y-66021000D01*
X139474000Y-66021000D01*
X139474000Y-66379000D01*
X139454000Y-66379000D01*
X139454000Y-67720887D01*
X139626811Y-67826995D01*
X139725000Y-67799942D01*
X139725000Y-72725000D01*
X115275000Y-72725000D01*
X115275000Y-71955679D01*
X121550000Y-71955679D01*
X121550000Y-72044321D01*
X121567294Y-72131260D01*
X121601215Y-72213155D01*
X121650462Y-72286858D01*
X121713142Y-72349538D01*
X121786845Y-72398785D01*
X121868740Y-72432706D01*
X121955679Y-72450000D01*
X122044321Y-72450000D01*
X122131260Y-72432706D01*
X122213155Y-72398785D01*
X122286858Y-72349538D01*
X122300000Y-72336396D01*
X122313142Y-72349538D01*
X122386845Y-72398785D01*
X122468740Y-72432706D01*
X122555679Y-72450000D01*
X122644321Y-72450000D01*
X122731260Y-72432706D01*
X122813155Y-72398785D01*
X122886858Y-72349538D01*
X122949538Y-72286858D01*
X122998785Y-72213155D01*
X123032706Y-72131260D01*
X123050000Y-72044321D01*
X123050000Y-71955679D01*
X123032706Y-71868740D01*
X122998785Y-71786845D01*
X122949538Y-71713142D01*
X122897833Y-71661437D01*
X124393539Y-71661437D01*
X124393539Y-71750079D01*
X124410833Y-71837018D01*
X124444754Y-71918913D01*
X124494001Y-71992616D01*
X124556681Y-72055296D01*
X124630384Y-72104543D01*
X124712279Y-72138464D01*
X124749796Y-72145927D01*
X124745735Y-72166343D01*
X124745735Y-72254985D01*
X124763029Y-72341924D01*
X124796950Y-72423819D01*
X124846197Y-72497522D01*
X124908877Y-72560202D01*
X124982580Y-72609449D01*
X125064475Y-72643370D01*
X125151414Y-72660664D01*
X125240056Y-72660664D01*
X125326995Y-72643370D01*
X125408890Y-72609449D01*
X125482593Y-72560202D01*
X125545273Y-72497522D01*
X125593164Y-72425849D01*
X125597399Y-72432187D01*
X125660079Y-72494867D01*
X125733782Y-72544114D01*
X125815677Y-72578035D01*
X125902616Y-72595329D01*
X125991258Y-72595329D01*
X126078197Y-72578035D01*
X126160092Y-72544114D01*
X126233795Y-72494867D01*
X126296475Y-72432187D01*
X126345722Y-72358484D01*
X126379643Y-72276589D01*
X126396937Y-72189650D01*
X126396937Y-72155679D01*
X126950000Y-72155679D01*
X126950000Y-72244321D01*
X126967294Y-72331260D01*
X127001215Y-72413155D01*
X127050462Y-72486858D01*
X127113142Y-72549538D01*
X127186845Y-72598785D01*
X127268740Y-72632706D01*
X127355679Y-72650000D01*
X127444321Y-72650000D01*
X127531260Y-72632706D01*
X127613155Y-72598785D01*
X127686858Y-72549538D01*
X127749538Y-72486858D01*
X127798785Y-72413155D01*
X127832706Y-72331260D01*
X127850000Y-72244321D01*
X127850000Y-72155679D01*
X127832706Y-72068740D01*
X127827297Y-72055679D01*
X134150000Y-72055679D01*
X134150000Y-72144321D01*
X134167294Y-72231260D01*
X134201215Y-72313155D01*
X134250462Y-72386858D01*
X134313142Y-72449538D01*
X134386845Y-72498785D01*
X134468740Y-72532706D01*
X134555679Y-72550000D01*
X134644321Y-72550000D01*
X134731260Y-72532706D01*
X134813155Y-72498785D01*
X134886858Y-72449538D01*
X134949538Y-72386858D01*
X134998785Y-72313155D01*
X135032706Y-72231260D01*
X135050000Y-72144321D01*
X135050000Y-72055679D01*
X135032706Y-71968740D01*
X134998785Y-71886845D01*
X134949538Y-71813142D01*
X134886858Y-71750462D01*
X134813155Y-71701215D01*
X134731260Y-71667294D01*
X134644321Y-71650000D01*
X134555679Y-71650000D01*
X134468740Y-71667294D01*
X134386845Y-71701215D01*
X134313142Y-71750462D01*
X134250462Y-71813142D01*
X134201215Y-71886845D01*
X134167294Y-71968740D01*
X134150000Y-72055679D01*
X127827297Y-72055679D01*
X127798785Y-71986845D01*
X127749538Y-71913142D01*
X127686858Y-71850462D01*
X127613155Y-71801215D01*
X127531260Y-71767294D01*
X127444321Y-71750000D01*
X127355679Y-71750000D01*
X127268740Y-71767294D01*
X127186845Y-71801215D01*
X127113142Y-71850462D01*
X127050462Y-71913142D01*
X127001215Y-71986845D01*
X126967294Y-72068740D01*
X126950000Y-72155679D01*
X126396937Y-72155679D01*
X126396937Y-72101008D01*
X126379643Y-72014069D01*
X126345722Y-71932174D01*
X126296475Y-71858471D01*
X126233795Y-71795791D01*
X126160092Y-71746544D01*
X126078197Y-71712623D01*
X125991258Y-71695329D01*
X125902616Y-71695329D01*
X125850000Y-71705795D01*
X125850000Y-71655679D01*
X125832706Y-71568740D01*
X125798785Y-71486845D01*
X125749538Y-71413142D01*
X125686858Y-71350462D01*
X125613155Y-71301215D01*
X125531260Y-71267294D01*
X125444321Y-71250000D01*
X125355679Y-71250000D01*
X125268740Y-71267294D01*
X125186845Y-71301215D01*
X125117461Y-71347576D01*
X125056694Y-71306973D01*
X124974799Y-71273052D01*
X124887860Y-71255758D01*
X124799218Y-71255758D01*
X124712279Y-71273052D01*
X124630384Y-71306973D01*
X124556681Y-71356220D01*
X124494001Y-71418900D01*
X124444754Y-71492603D01*
X124410833Y-71574498D01*
X124393539Y-71661437D01*
X122897833Y-71661437D01*
X122886858Y-71650462D01*
X122813155Y-71601215D01*
X122731260Y-71567294D01*
X122644321Y-71550000D01*
X122555679Y-71550000D01*
X122468740Y-71567294D01*
X122386845Y-71601215D01*
X122313142Y-71650462D01*
X122300000Y-71663604D01*
X122286858Y-71650462D01*
X122213155Y-71601215D01*
X122131260Y-71567294D01*
X122044321Y-71550000D01*
X121955679Y-71550000D01*
X121868740Y-71567294D01*
X121786845Y-71601215D01*
X121713142Y-71650462D01*
X121650462Y-71713142D01*
X121601215Y-71786845D01*
X121567294Y-71868740D01*
X121550000Y-71955679D01*
X115275000Y-71955679D01*
X115275000Y-70555679D01*
X119950000Y-70555679D01*
X119950000Y-70644321D01*
X119967294Y-70731260D01*
X120001215Y-70813155D01*
X120050462Y-70886858D01*
X120113142Y-70949538D01*
X120186845Y-70998785D01*
X120268740Y-71032706D01*
X120355679Y-71050000D01*
X120444321Y-71050000D01*
X120531260Y-71032706D01*
X120613155Y-70998785D01*
X120686858Y-70949538D01*
X120749538Y-70886858D01*
X120798785Y-70813155D01*
X120832706Y-70731260D01*
X120850000Y-70644321D01*
X120850000Y-70555679D01*
X120832706Y-70468740D01*
X120827297Y-70455679D01*
X121450000Y-70455679D01*
X121450000Y-70544321D01*
X121467294Y-70631260D01*
X121501215Y-70713155D01*
X121550462Y-70786858D01*
X121613142Y-70849538D01*
X121686845Y-70898785D01*
X121768740Y-70932706D01*
X121855679Y-70950000D01*
X121944321Y-70950000D01*
X122031260Y-70932706D01*
X122113155Y-70898785D01*
X122186858Y-70849538D01*
X122249538Y-70786858D01*
X122298785Y-70713155D01*
X122332706Y-70631260D01*
X122350000Y-70544321D01*
X122350000Y-70455679D01*
X122332706Y-70368740D01*
X122327297Y-70355679D01*
X124950000Y-70355679D01*
X124950000Y-70444321D01*
X124967294Y-70531260D01*
X125001215Y-70613155D01*
X125050462Y-70686858D01*
X125113142Y-70749538D01*
X125186845Y-70798785D01*
X125268740Y-70832706D01*
X125355679Y-70850000D01*
X125444321Y-70850000D01*
X125531260Y-70832706D01*
X125613155Y-70798785D01*
X125686858Y-70749538D01*
X125749538Y-70686858D01*
X125798785Y-70613155D01*
X125822591Y-70555679D01*
X126650000Y-70555679D01*
X126650000Y-70644321D01*
X126667294Y-70731260D01*
X126701215Y-70813155D01*
X126750462Y-70886858D01*
X126813142Y-70949538D01*
X126886845Y-70998785D01*
X126968740Y-71032706D01*
X127055679Y-71050000D01*
X127144321Y-71050000D01*
X127231260Y-71032706D01*
X127313155Y-70998785D01*
X127386858Y-70949538D01*
X127449538Y-70886858D01*
X127498785Y-70813155D01*
X127532706Y-70731260D01*
X127550000Y-70644321D01*
X127550000Y-70555679D01*
X127532706Y-70468740D01*
X127498785Y-70386845D01*
X127449538Y-70313142D01*
X127386858Y-70250462D01*
X127313155Y-70201215D01*
X127231260Y-70167294D01*
X127144321Y-70150000D01*
X127055679Y-70150000D01*
X126968740Y-70167294D01*
X126886845Y-70201215D01*
X126813142Y-70250462D01*
X126750462Y-70313142D01*
X126701215Y-70386845D01*
X126667294Y-70468740D01*
X126650000Y-70555679D01*
X125822591Y-70555679D01*
X125832706Y-70531260D01*
X125850000Y-70444321D01*
X125850000Y-70355679D01*
X125832706Y-70268740D01*
X125798785Y-70186845D01*
X125749538Y-70113142D01*
X125686858Y-70050462D01*
X125613155Y-70001215D01*
X125531260Y-69967294D01*
X125444321Y-69950000D01*
X125355679Y-69950000D01*
X125268740Y-69967294D01*
X125186845Y-70001215D01*
X125113142Y-70050462D01*
X125050462Y-70113142D01*
X125001215Y-70186845D01*
X124967294Y-70268740D01*
X124950000Y-70355679D01*
X122327297Y-70355679D01*
X122298785Y-70286845D01*
X122249538Y-70213142D01*
X122186858Y-70150462D01*
X122186167Y-70150000D01*
X122244321Y-70150000D01*
X122331260Y-70132706D01*
X122413155Y-70098785D01*
X122486858Y-70049538D01*
X122549538Y-69986858D01*
X122598785Y-69913155D01*
X122632706Y-69831260D01*
X122650000Y-69744321D01*
X122650000Y-69655679D01*
X122632706Y-69568740D01*
X122598785Y-69486845D01*
X122549538Y-69413142D01*
X122496841Y-69360445D01*
X135965944Y-69360445D01*
X135990253Y-69586365D01*
X136058169Y-69803201D01*
X136167083Y-70002621D01*
X136312809Y-70176961D01*
X136489747Y-70319522D01*
X136691098Y-70424825D01*
X136773189Y-70426995D01*
X136946000Y-70320887D01*
X136946000Y-69179000D01*
X137304000Y-69179000D01*
X137304000Y-70320887D01*
X137476811Y-70426995D01*
X137558902Y-70424825D01*
X137760253Y-70319522D01*
X137937191Y-70176961D01*
X138082917Y-70002621D01*
X138191831Y-69803201D01*
X138259747Y-69586365D01*
X138284056Y-69360445D01*
X138125670Y-69179000D01*
X137304000Y-69179000D01*
X136946000Y-69179000D01*
X136124330Y-69179000D01*
X135965944Y-69360445D01*
X122496841Y-69360445D01*
X122486858Y-69350462D01*
X122413155Y-69301215D01*
X122331260Y-69267294D01*
X122244321Y-69250000D01*
X122155679Y-69250000D01*
X122068740Y-69267294D01*
X121986845Y-69301215D01*
X121913142Y-69350462D01*
X121850462Y-69413142D01*
X121801215Y-69486845D01*
X121767294Y-69568740D01*
X121750000Y-69655679D01*
X121750000Y-69744321D01*
X121767294Y-69831260D01*
X121801215Y-69913155D01*
X121850462Y-69986858D01*
X121913142Y-70049538D01*
X121913833Y-70050000D01*
X121855679Y-70050000D01*
X121768740Y-70067294D01*
X121686845Y-70101215D01*
X121613142Y-70150462D01*
X121550462Y-70213142D01*
X121501215Y-70286845D01*
X121467294Y-70368740D01*
X121450000Y-70455679D01*
X120827297Y-70455679D01*
X120798785Y-70386845D01*
X120749538Y-70313142D01*
X120686858Y-70250462D01*
X120613155Y-70201215D01*
X120531260Y-70167294D01*
X120444321Y-70150000D01*
X120355679Y-70150000D01*
X120268740Y-70167294D01*
X120186845Y-70201215D01*
X120113142Y-70250462D01*
X120050462Y-70313142D01*
X120001215Y-70386845D01*
X119967294Y-70468740D01*
X119950000Y-70555679D01*
X115275000Y-70555679D01*
X115275000Y-69755679D01*
X116850000Y-69755679D01*
X116850000Y-69844321D01*
X116867294Y-69931260D01*
X116901215Y-70013155D01*
X116950462Y-70086858D01*
X117013142Y-70149538D01*
X117086845Y-70198785D01*
X117168740Y-70232706D01*
X117255679Y-70250000D01*
X117344321Y-70250000D01*
X117431260Y-70232706D01*
X117513155Y-70198785D01*
X117586858Y-70149538D01*
X117649538Y-70086858D01*
X117698785Y-70013155D01*
X117732706Y-69931260D01*
X117750000Y-69844321D01*
X117750000Y-69755679D01*
X117732706Y-69668740D01*
X117698785Y-69586845D01*
X117649538Y-69513142D01*
X117586858Y-69450462D01*
X117513155Y-69401215D01*
X117431260Y-69367294D01*
X117344321Y-69350000D01*
X117255679Y-69350000D01*
X117168740Y-69367294D01*
X117086845Y-69401215D01*
X117013142Y-69450462D01*
X116950462Y-69513142D01*
X116901215Y-69586845D01*
X116867294Y-69668740D01*
X116850000Y-69755679D01*
X115275000Y-69755679D01*
X115275000Y-68585679D01*
X127380000Y-68585679D01*
X127380000Y-68674321D01*
X127397294Y-68761260D01*
X127431215Y-68843155D01*
X127480462Y-68916858D01*
X127543142Y-68979538D01*
X127616845Y-69028785D01*
X127698740Y-69062706D01*
X127785679Y-69080000D01*
X127874321Y-69080000D01*
X127961260Y-69062706D01*
X128043155Y-69028785D01*
X128116858Y-68979538D01*
X128179538Y-68916858D01*
X128228785Y-68843155D01*
X128262706Y-68761260D01*
X128280000Y-68674321D01*
X128280000Y-68639555D01*
X135965944Y-68639555D01*
X136124330Y-68821000D01*
X136946000Y-68821000D01*
X136946000Y-67679113D01*
X137304000Y-67679113D01*
X137304000Y-68821000D01*
X138125670Y-68821000D01*
X138284056Y-68639555D01*
X138259747Y-68413635D01*
X138191831Y-68196799D01*
X138152971Y-68125647D01*
X138160462Y-68136858D01*
X138223142Y-68199538D01*
X138296845Y-68248785D01*
X138378740Y-68282706D01*
X138465679Y-68300000D01*
X138554321Y-68300000D01*
X138641260Y-68282706D01*
X138723155Y-68248785D01*
X138796858Y-68199538D01*
X138859538Y-68136858D01*
X138908785Y-68063155D01*
X138942706Y-67981260D01*
X138960000Y-67894321D01*
X138960000Y-67805679D01*
X138959772Y-67804533D01*
X139096000Y-67720887D01*
X139096000Y-66379000D01*
X138142000Y-66379000D01*
X138142000Y-66929000D01*
X138198691Y-67146598D01*
X138296744Y-67348955D01*
X138355663Y-67426852D01*
X138296845Y-67451215D01*
X138223142Y-67500462D01*
X138160462Y-67563142D01*
X138111215Y-67636845D01*
X138077294Y-67718740D01*
X138060000Y-67805679D01*
X138060000Y-67894321D01*
X138077294Y-67981260D01*
X138087277Y-68005363D01*
X138082917Y-67997379D01*
X137937191Y-67823039D01*
X137760253Y-67680478D01*
X137558902Y-67575175D01*
X137476811Y-67573005D01*
X137304000Y-67679113D01*
X136946000Y-67679113D01*
X136773189Y-67573005D01*
X136691098Y-67575175D01*
X136489747Y-67680478D01*
X136312809Y-67823039D01*
X136167083Y-67997379D01*
X136058169Y-68196799D01*
X135990253Y-68413635D01*
X135965944Y-68639555D01*
X128280000Y-68639555D01*
X128280000Y-68585679D01*
X128262706Y-68498740D01*
X128228785Y-68416845D01*
X128179538Y-68343142D01*
X128116858Y-68280462D01*
X128043155Y-68231215D01*
X127961260Y-68197294D01*
X127874321Y-68180000D01*
X127785679Y-68180000D01*
X127698740Y-68197294D01*
X127616845Y-68231215D01*
X127543142Y-68280462D01*
X127480462Y-68343142D01*
X127431215Y-68416845D01*
X127397294Y-68498740D01*
X127380000Y-68585679D01*
X115275000Y-68585679D01*
X115275000Y-67474641D01*
X119586424Y-67474641D01*
X119586424Y-67563283D01*
X119603718Y-67650222D01*
X119637639Y-67732117D01*
X119686886Y-67805820D01*
X119749566Y-67868500D01*
X119823269Y-67917747D01*
X119905164Y-67951668D01*
X119992103Y-67968962D01*
X120080745Y-67968962D01*
X120167684Y-67951668D01*
X120249579Y-67917747D01*
X120323282Y-67868500D01*
X120385962Y-67805820D01*
X120435209Y-67732117D01*
X120469130Y-67650222D01*
X120486424Y-67563283D01*
X120486424Y-67474641D01*
X120469130Y-67387702D01*
X120435209Y-67305807D01*
X120398504Y-67250873D01*
X127650000Y-67250873D01*
X127650000Y-67339515D01*
X127667294Y-67426454D01*
X127701215Y-67508349D01*
X127750462Y-67582052D01*
X127813142Y-67644732D01*
X127886845Y-67693979D01*
X127968740Y-67727900D01*
X128055679Y-67745194D01*
X128144321Y-67745194D01*
X128231260Y-67727900D01*
X128313155Y-67693979D01*
X128386858Y-67644732D01*
X128449538Y-67582052D01*
X128498785Y-67508349D01*
X128532706Y-67426454D01*
X128550000Y-67339515D01*
X128550000Y-67250873D01*
X128532706Y-67163934D01*
X128498785Y-67082039D01*
X128449538Y-67008336D01*
X128386858Y-66945656D01*
X128313155Y-66896409D01*
X128231260Y-66862488D01*
X128144321Y-66845194D01*
X128055679Y-66845194D01*
X127968740Y-66862488D01*
X127886845Y-66896409D01*
X127813142Y-66945656D01*
X127750462Y-67008336D01*
X127701215Y-67082039D01*
X127667294Y-67163934D01*
X127650000Y-67250873D01*
X120398504Y-67250873D01*
X120385962Y-67232104D01*
X120323282Y-67169424D01*
X120249579Y-67120177D01*
X120167684Y-67086256D01*
X120080745Y-67068962D01*
X119992103Y-67068962D01*
X119905164Y-67086256D01*
X119823269Y-67120177D01*
X119749566Y-67169424D01*
X119686886Y-67232104D01*
X119637639Y-67305807D01*
X119603718Y-67387702D01*
X119586424Y-67474641D01*
X115275000Y-67474641D01*
X115275000Y-66455679D01*
X119750000Y-66455679D01*
X119750000Y-66544321D01*
X119767294Y-66631260D01*
X119801215Y-66713155D01*
X119850462Y-66786858D01*
X119913142Y-66849538D01*
X119986845Y-66898785D01*
X120068740Y-66932706D01*
X120155679Y-66950000D01*
X120244321Y-66950000D01*
X120331260Y-66932706D01*
X120413155Y-66898785D01*
X120486858Y-66849538D01*
X120549538Y-66786858D01*
X120598785Y-66713155D01*
X120622591Y-66655679D01*
X121950000Y-66655679D01*
X121950000Y-66744321D01*
X121967294Y-66831260D01*
X122001215Y-66913155D01*
X122050462Y-66986858D01*
X122113142Y-67049538D01*
X122186845Y-67098785D01*
X122268740Y-67132706D01*
X122355679Y-67150000D01*
X122444321Y-67150000D01*
X122531260Y-67132706D01*
X122613155Y-67098785D01*
X122686858Y-67049538D01*
X122749538Y-66986858D01*
X122798785Y-66913155D01*
X122832706Y-66831260D01*
X122850000Y-66744321D01*
X122850000Y-66655679D01*
X122832706Y-66568740D01*
X122798785Y-66486845D01*
X122749538Y-66413142D01*
X122686858Y-66350462D01*
X122613155Y-66301215D01*
X122531260Y-66267294D01*
X122444321Y-66250000D01*
X122355679Y-66250000D01*
X122268740Y-66267294D01*
X122186845Y-66301215D01*
X122113142Y-66350462D01*
X122050462Y-66413142D01*
X122001215Y-66486845D01*
X121967294Y-66568740D01*
X121950000Y-66655679D01*
X120622591Y-66655679D01*
X120632706Y-66631260D01*
X120650000Y-66544321D01*
X120650000Y-66455679D01*
X120632706Y-66368740D01*
X120598785Y-66286845D01*
X120549538Y-66213142D01*
X120486858Y-66150462D01*
X120413155Y-66101215D01*
X120331260Y-66067294D01*
X120244321Y-66050000D01*
X120155679Y-66050000D01*
X120068740Y-66067294D01*
X119986845Y-66101215D01*
X119913142Y-66150462D01*
X119850462Y-66213142D01*
X119801215Y-66286845D01*
X119767294Y-66368740D01*
X119750000Y-66455679D01*
X115275000Y-66455679D01*
X115275000Y-65905679D01*
X116050000Y-65905679D01*
X116050000Y-65994321D01*
X116067294Y-66081260D01*
X116101215Y-66163155D01*
X116150462Y-66236858D01*
X116213142Y-66299538D01*
X116286845Y-66348785D01*
X116368740Y-66382706D01*
X116455679Y-66400000D01*
X116544321Y-66400000D01*
X116631260Y-66382706D01*
X116713155Y-66348785D01*
X116786858Y-66299538D01*
X116849538Y-66236858D01*
X116898785Y-66163155D01*
X116932706Y-66081260D01*
X116950000Y-65994321D01*
X116950000Y-65944321D01*
X116967294Y-66031260D01*
X117001215Y-66113155D01*
X117050462Y-66186858D01*
X117113142Y-66249538D01*
X117186845Y-66298785D01*
X117268740Y-66332706D01*
X117355679Y-66350000D01*
X117444321Y-66350000D01*
X117531260Y-66332706D01*
X117613155Y-66298785D01*
X117686858Y-66249538D01*
X117749538Y-66186858D01*
X117798785Y-66113155D01*
X117832706Y-66031260D01*
X117850000Y-65944321D01*
X117850000Y-65855679D01*
X117832706Y-65768740D01*
X117798785Y-65686845D01*
X117749538Y-65613142D01*
X117686858Y-65550462D01*
X117613155Y-65501215D01*
X117531260Y-65467294D01*
X117444321Y-65450000D01*
X117355679Y-65450000D01*
X117268740Y-65467294D01*
X117186845Y-65501215D01*
X117113142Y-65550462D01*
X117050462Y-65613142D01*
X117001215Y-65686845D01*
X116967294Y-65768740D01*
X116950000Y-65855679D01*
X116950000Y-65905679D01*
X116932706Y-65818740D01*
X116898785Y-65736845D01*
X116849538Y-65663142D01*
X116786858Y-65600462D01*
X116713155Y-65551215D01*
X116631260Y-65517294D01*
X116544321Y-65500000D01*
X116455679Y-65500000D01*
X116368740Y-65517294D01*
X116286845Y-65551215D01*
X116213142Y-65600462D01*
X116150462Y-65663142D01*
X116101215Y-65736845D01*
X116067294Y-65818740D01*
X116050000Y-65905679D01*
X115275000Y-65905679D01*
X115275000Y-64755679D01*
X119650000Y-64755679D01*
X119650000Y-64844321D01*
X119667294Y-64931260D01*
X119701215Y-65013155D01*
X119750462Y-65086858D01*
X119813142Y-65149538D01*
X119886845Y-65198785D01*
X119968740Y-65232706D01*
X120055679Y-65250000D01*
X120144321Y-65250000D01*
X120231260Y-65232706D01*
X120313155Y-65198785D01*
X120386858Y-65149538D01*
X120449538Y-65086858D01*
X120498785Y-65013155D01*
X120510165Y-64985679D01*
X121920000Y-64985679D01*
X121920000Y-65074321D01*
X121937294Y-65161260D01*
X121971215Y-65243155D01*
X122020462Y-65316858D01*
X122083142Y-65379538D01*
X122156845Y-65428785D01*
X122238740Y-65462706D01*
X122325679Y-65480000D01*
X122414321Y-65480000D01*
X122501260Y-65462706D01*
X122518225Y-65455679D01*
X124450000Y-65455679D01*
X124450000Y-65544321D01*
X124467294Y-65631260D01*
X124501215Y-65713155D01*
X124550462Y-65786858D01*
X124613142Y-65849538D01*
X124686845Y-65898785D01*
X124744185Y-65922535D01*
X124701215Y-65986845D01*
X124667294Y-66068740D01*
X124650000Y-66155679D01*
X124650000Y-66244321D01*
X124667294Y-66331260D01*
X124701215Y-66413155D01*
X124750462Y-66486858D01*
X124813142Y-66549538D01*
X124886845Y-66598785D01*
X124968740Y-66632706D01*
X125055679Y-66650000D01*
X125144321Y-66650000D01*
X125231260Y-66632706D01*
X125313155Y-66598785D01*
X125386858Y-66549538D01*
X125449538Y-66486858D01*
X125498785Y-66413155D01*
X125532706Y-66331260D01*
X125550000Y-66244321D01*
X125550000Y-66155679D01*
X125532706Y-66068740D01*
X125498785Y-65986845D01*
X125449538Y-65913142D01*
X125386858Y-65850462D01*
X125313155Y-65801215D01*
X125255815Y-65777465D01*
X125298785Y-65713155D01*
X125332706Y-65631260D01*
X125350000Y-65544321D01*
X125350000Y-65455679D01*
X125332706Y-65368740D01*
X125298785Y-65286845D01*
X125249538Y-65213142D01*
X125212075Y-65175679D01*
X131840618Y-65175679D01*
X131840618Y-65264321D01*
X131857912Y-65351260D01*
X131891833Y-65433155D01*
X131941080Y-65506858D01*
X132003760Y-65569538D01*
X132077463Y-65618785D01*
X132128755Y-65640030D01*
X132113142Y-65650462D01*
X132050462Y-65713142D01*
X132001215Y-65786845D01*
X131967294Y-65868740D01*
X131950000Y-65955679D01*
X131950000Y-66044321D01*
X131967294Y-66131260D01*
X132001215Y-66213155D01*
X132050462Y-66286858D01*
X132113142Y-66349538D01*
X132186845Y-66398785D01*
X132268740Y-66432706D01*
X132355679Y-66450000D01*
X132444321Y-66450000D01*
X132531260Y-66432706D01*
X132613155Y-66398785D01*
X132686858Y-66349538D01*
X132749538Y-66286858D01*
X132774715Y-66249177D01*
X132786346Y-66277258D01*
X132750462Y-66313142D01*
X132701215Y-66386845D01*
X132667294Y-66468740D01*
X132650000Y-66555679D01*
X132650000Y-66644321D01*
X132667294Y-66731260D01*
X132701215Y-66813155D01*
X132750462Y-66886858D01*
X132813142Y-66949538D01*
X132886845Y-66998785D01*
X132968740Y-67032706D01*
X133055679Y-67050000D01*
X133144321Y-67050000D01*
X133231260Y-67032706D01*
X133313155Y-66998785D01*
X133386858Y-66949538D01*
X133449538Y-66886858D01*
X133483729Y-66835688D01*
X133555679Y-66850000D01*
X133644321Y-66850000D01*
X133731260Y-66832706D01*
X133813155Y-66798785D01*
X133886858Y-66749538D01*
X133949538Y-66686858D01*
X133998785Y-66613155D01*
X134032706Y-66531260D01*
X134050000Y-66444321D01*
X134050000Y-66355679D01*
X134032706Y-66268740D01*
X133998785Y-66186845D01*
X133949538Y-66113142D01*
X133886858Y-66050462D01*
X133813155Y-66001215D01*
X133731260Y-65967294D01*
X133644321Y-65950000D01*
X133624944Y-65950000D01*
X133598785Y-65886845D01*
X133549538Y-65813142D01*
X133486858Y-65750462D01*
X133413155Y-65701215D01*
X133331260Y-65667294D01*
X133244321Y-65650000D01*
X133155679Y-65650000D01*
X133068740Y-65667294D01*
X132986845Y-65701215D01*
X132913142Y-65750462D01*
X132850462Y-65813142D01*
X132825285Y-65850823D01*
X132798785Y-65786845D01*
X132749538Y-65713142D01*
X132686858Y-65650462D01*
X132613155Y-65601215D01*
X132561863Y-65579970D01*
X132577476Y-65569538D01*
X132640156Y-65506858D01*
X132664115Y-65471000D01*
X138142000Y-65471000D01*
X138142000Y-66021000D01*
X139096000Y-66021000D01*
X139096000Y-64679113D01*
X138923189Y-64573005D01*
X138794371Y-64608497D01*
X138600419Y-64722275D01*
X138432391Y-64871705D01*
X138296744Y-65051045D01*
X138198691Y-65253402D01*
X138142000Y-65471000D01*
X132664115Y-65471000D01*
X132689403Y-65433155D01*
X132723324Y-65351260D01*
X132740618Y-65264321D01*
X132740618Y-65175679D01*
X132723324Y-65088740D01*
X132689403Y-65006845D01*
X132640156Y-64933142D01*
X132577476Y-64870462D01*
X132503773Y-64821215D01*
X132421878Y-64787294D01*
X132334939Y-64770000D01*
X132246297Y-64770000D01*
X132159358Y-64787294D01*
X132077463Y-64821215D01*
X132003760Y-64870462D01*
X131941080Y-64933142D01*
X131891833Y-65006845D01*
X131857912Y-65088740D01*
X131840618Y-65175679D01*
X125212075Y-65175679D01*
X125186858Y-65150462D01*
X125113155Y-65101215D01*
X125031260Y-65067294D01*
X124944321Y-65050000D01*
X124855679Y-65050000D01*
X124768740Y-65067294D01*
X124686845Y-65101215D01*
X124613142Y-65150462D01*
X124550462Y-65213142D01*
X124501215Y-65286845D01*
X124467294Y-65368740D01*
X124450000Y-65455679D01*
X122518225Y-65455679D01*
X122583155Y-65428785D01*
X122656858Y-65379538D01*
X122719538Y-65316858D01*
X122768785Y-65243155D01*
X122802706Y-65161260D01*
X122820000Y-65074321D01*
X122820000Y-64985679D01*
X122802706Y-64898740D01*
X122768785Y-64816845D01*
X122719538Y-64743142D01*
X122656858Y-64680462D01*
X122583155Y-64631215D01*
X122501260Y-64597294D01*
X122414321Y-64580000D01*
X122325679Y-64580000D01*
X122238740Y-64597294D01*
X122156845Y-64631215D01*
X122083142Y-64680462D01*
X122020462Y-64743142D01*
X121971215Y-64816845D01*
X121937294Y-64898740D01*
X121920000Y-64985679D01*
X120510165Y-64985679D01*
X120532706Y-64931260D01*
X120550000Y-64844321D01*
X120550000Y-64755679D01*
X120532706Y-64668740D01*
X120498785Y-64586845D01*
X120449538Y-64513142D01*
X120386858Y-64450462D01*
X120313155Y-64401215D01*
X120231260Y-64367294D01*
X120144321Y-64350000D01*
X120055679Y-64350000D01*
X119968740Y-64367294D01*
X119886845Y-64401215D01*
X119813142Y-64450462D01*
X119750462Y-64513142D01*
X119701215Y-64586845D01*
X119667294Y-64668740D01*
X119650000Y-64755679D01*
X115275000Y-64755679D01*
X115275000Y-64051814D01*
X127712297Y-64051814D01*
X127712297Y-64140456D01*
X127729591Y-64227395D01*
X127763512Y-64309290D01*
X127812759Y-64382993D01*
X127875439Y-64445673D01*
X127949142Y-64494920D01*
X128031037Y-64528841D01*
X128117976Y-64546135D01*
X128206618Y-64546135D01*
X128293557Y-64528841D01*
X128375452Y-64494920D01*
X128449155Y-64445673D01*
X128511835Y-64382993D01*
X128561082Y-64309290D01*
X128583287Y-64255679D01*
X129250000Y-64255679D01*
X129250000Y-64344321D01*
X129267294Y-64431260D01*
X129301215Y-64513155D01*
X129350462Y-64586858D01*
X129413142Y-64649538D01*
X129486845Y-64698785D01*
X129568740Y-64732706D01*
X129655679Y-64750000D01*
X129744321Y-64750000D01*
X129831260Y-64732706D01*
X129913155Y-64698785D01*
X129986858Y-64649538D01*
X130049538Y-64586858D01*
X130098785Y-64513155D01*
X130132706Y-64431260D01*
X130150000Y-64344321D01*
X130150000Y-64255679D01*
X130144836Y-64229717D01*
X132692400Y-64229717D01*
X132692400Y-64318359D01*
X132709694Y-64405298D01*
X132743615Y-64487193D01*
X132792862Y-64560896D01*
X132855542Y-64623576D01*
X132929245Y-64672823D01*
X133011140Y-64706744D01*
X133098079Y-64724038D01*
X133186721Y-64724038D01*
X133273660Y-64706744D01*
X133355555Y-64672823D01*
X133429258Y-64623576D01*
X133491938Y-64560896D01*
X133541185Y-64487193D01*
X133575106Y-64405298D01*
X133592400Y-64318359D01*
X133592400Y-64229717D01*
X133575106Y-64142778D01*
X133541185Y-64060883D01*
X133537708Y-64055679D01*
X135550000Y-64055679D01*
X135550000Y-64144321D01*
X135567294Y-64231260D01*
X135601215Y-64313155D01*
X135650462Y-64386858D01*
X135713142Y-64449538D01*
X135786845Y-64498785D01*
X135868740Y-64532706D01*
X135955679Y-64550000D01*
X136044321Y-64550000D01*
X136131260Y-64532706D01*
X136213155Y-64498785D01*
X136235169Y-64484076D01*
X136312809Y-64576961D01*
X136489747Y-64719522D01*
X136691098Y-64824825D01*
X136773189Y-64826995D01*
X136946000Y-64720887D01*
X136946000Y-63579000D01*
X137304000Y-63579000D01*
X137304000Y-64720887D01*
X137476811Y-64826995D01*
X137558902Y-64824825D01*
X137760253Y-64719522D01*
X137937191Y-64576961D01*
X138082917Y-64402621D01*
X138191831Y-64203201D01*
X138259747Y-63986365D01*
X138284056Y-63760445D01*
X138125670Y-63579000D01*
X137304000Y-63579000D01*
X136946000Y-63579000D01*
X136124330Y-63579000D01*
X136059685Y-63653056D01*
X136044321Y-63650000D01*
X135955679Y-63650000D01*
X135868740Y-63667294D01*
X135786845Y-63701215D01*
X135713142Y-63750462D01*
X135650462Y-63813142D01*
X135601215Y-63886845D01*
X135567294Y-63968740D01*
X135550000Y-64055679D01*
X133537708Y-64055679D01*
X133491938Y-63987180D01*
X133429258Y-63924500D01*
X133355555Y-63875253D01*
X133273660Y-63841332D01*
X133186721Y-63824038D01*
X133098079Y-63824038D01*
X133011140Y-63841332D01*
X132929245Y-63875253D01*
X132855542Y-63924500D01*
X132792862Y-63987180D01*
X132743615Y-64060883D01*
X132709694Y-64142778D01*
X132692400Y-64229717D01*
X130144836Y-64229717D01*
X130132706Y-64168740D01*
X130098785Y-64086845D01*
X130049538Y-64013142D01*
X129986858Y-63950462D01*
X129913155Y-63901215D01*
X129831260Y-63867294D01*
X129744321Y-63850000D01*
X129655679Y-63850000D01*
X129568740Y-63867294D01*
X129486845Y-63901215D01*
X129413142Y-63950462D01*
X129350462Y-64013142D01*
X129301215Y-64086845D01*
X129267294Y-64168740D01*
X129250000Y-64255679D01*
X128583287Y-64255679D01*
X128595003Y-64227395D01*
X128612297Y-64140456D01*
X128612297Y-64051814D01*
X128595003Y-63964875D01*
X128561082Y-63882980D01*
X128511835Y-63809277D01*
X128449155Y-63746597D01*
X128375452Y-63697350D01*
X128293557Y-63663429D01*
X128206618Y-63646135D01*
X128117976Y-63646135D01*
X128031037Y-63663429D01*
X127949142Y-63697350D01*
X127875439Y-63746597D01*
X127812759Y-63809277D01*
X127763512Y-63882980D01*
X127729591Y-63964875D01*
X127712297Y-64051814D01*
X115275000Y-64051814D01*
X115275000Y-63455679D01*
X119750000Y-63455679D01*
X119750000Y-63544321D01*
X119767294Y-63631260D01*
X119801215Y-63713155D01*
X119850462Y-63786858D01*
X119913142Y-63849538D01*
X119986845Y-63898785D01*
X120068740Y-63932706D01*
X120155679Y-63950000D01*
X120244321Y-63950000D01*
X120331260Y-63932706D01*
X120413155Y-63898785D01*
X120486858Y-63849538D01*
X120549538Y-63786858D01*
X120598785Y-63713155D01*
X120632706Y-63631260D01*
X120650000Y-63544321D01*
X120650000Y-63476451D01*
X124789228Y-63476451D01*
X124789228Y-63565093D01*
X124806522Y-63652032D01*
X124840443Y-63733927D01*
X124889690Y-63807630D01*
X124952370Y-63870310D01*
X125026073Y-63919557D01*
X125107968Y-63953478D01*
X125194907Y-63970772D01*
X125283549Y-63970772D01*
X125370488Y-63953478D01*
X125452383Y-63919557D01*
X125526086Y-63870310D01*
X125588766Y-63807630D01*
X125638013Y-63733927D01*
X125671934Y-63652032D01*
X125689228Y-63565093D01*
X125689228Y-63531451D01*
X126274228Y-63531451D01*
X126274228Y-63620093D01*
X126291522Y-63707032D01*
X126325443Y-63788927D01*
X126374690Y-63862630D01*
X126437370Y-63925310D01*
X126511073Y-63974557D01*
X126592968Y-64008478D01*
X126679907Y-64025772D01*
X126768549Y-64025772D01*
X126855488Y-64008478D01*
X126937383Y-63974557D01*
X127011086Y-63925310D01*
X127073766Y-63862630D01*
X127123013Y-63788927D01*
X127156934Y-63707032D01*
X127174228Y-63620093D01*
X127174228Y-63531451D01*
X127156934Y-63444512D01*
X127123013Y-63362617D01*
X127073766Y-63288914D01*
X127011086Y-63226234D01*
X126937383Y-63176987D01*
X126855488Y-63143066D01*
X126768549Y-63125772D01*
X126679907Y-63125772D01*
X126592968Y-63143066D01*
X126511073Y-63176987D01*
X126437370Y-63226234D01*
X126374690Y-63288914D01*
X126325443Y-63362617D01*
X126291522Y-63444512D01*
X126274228Y-63531451D01*
X125689228Y-63531451D01*
X125689228Y-63476451D01*
X125671934Y-63389512D01*
X125638013Y-63307617D01*
X125588766Y-63233914D01*
X125528172Y-63173320D01*
X125531260Y-63172706D01*
X125613155Y-63138785D01*
X125686858Y-63089538D01*
X125749538Y-63026858D01*
X125798785Y-62953155D01*
X125832706Y-62871260D01*
X125850000Y-62784321D01*
X125850000Y-62695679D01*
X125832706Y-62608740D01*
X125798785Y-62526845D01*
X125749538Y-62453142D01*
X125686858Y-62390462D01*
X125613155Y-62341215D01*
X125531260Y-62307294D01*
X125444321Y-62290000D01*
X125355679Y-62290000D01*
X125268740Y-62307294D01*
X125186845Y-62341215D01*
X125113142Y-62390462D01*
X125050462Y-62453142D01*
X125001215Y-62526845D01*
X124967294Y-62608740D01*
X124950000Y-62695679D01*
X124950000Y-62784321D01*
X124967294Y-62871260D01*
X125001215Y-62953155D01*
X125050462Y-63026858D01*
X125111056Y-63087452D01*
X125107968Y-63088066D01*
X125026073Y-63121987D01*
X124952370Y-63171234D01*
X124889690Y-63233914D01*
X124840443Y-63307617D01*
X124806522Y-63389512D01*
X124789228Y-63476451D01*
X120650000Y-63476451D01*
X120650000Y-63455679D01*
X120632706Y-63368740D01*
X120598785Y-63286845D01*
X120549538Y-63213142D01*
X120486858Y-63150462D01*
X120413155Y-63101215D01*
X120331260Y-63067294D01*
X120244321Y-63050000D01*
X120155679Y-63050000D01*
X120068740Y-63067294D01*
X119986845Y-63101215D01*
X119913142Y-63150462D01*
X119850462Y-63213142D01*
X119801215Y-63286845D01*
X119767294Y-63368740D01*
X119750000Y-63455679D01*
X115275000Y-63455679D01*
X115275000Y-62755679D01*
X123950000Y-62755679D01*
X123950000Y-62844321D01*
X123967294Y-62931260D01*
X124001215Y-63013155D01*
X124050462Y-63086858D01*
X124113142Y-63149538D01*
X124186845Y-63198785D01*
X124268740Y-63232706D01*
X124355679Y-63250000D01*
X124444321Y-63250000D01*
X124531260Y-63232706D01*
X124613155Y-63198785D01*
X124686858Y-63149538D01*
X124749538Y-63086858D01*
X124798785Y-63013155D01*
X124832706Y-62931260D01*
X124850000Y-62844321D01*
X124850000Y-62755679D01*
X124832706Y-62668740D01*
X124798785Y-62586845D01*
X124749538Y-62513142D01*
X124686858Y-62450462D01*
X124613155Y-62401215D01*
X124531260Y-62367294D01*
X124444321Y-62350000D01*
X124355679Y-62350000D01*
X124268740Y-62367294D01*
X124186845Y-62401215D01*
X124113142Y-62450462D01*
X124050462Y-62513142D01*
X124001215Y-62586845D01*
X123967294Y-62668740D01*
X123950000Y-62755679D01*
X115275000Y-62755679D01*
X115275000Y-62275000D01*
X136269376Y-62275000D01*
X136167083Y-62397379D01*
G37*
X136167083Y-62397379D02*
X136058169Y-62596799D01*
X135990253Y-62813635D01*
X135965944Y-63039555D01*
X136124330Y-63221000D01*
X136946000Y-63221000D01*
X136946000Y-63201000D01*
X137304000Y-63201000D01*
X137304000Y-63221000D01*
X138125670Y-63221000D01*
X138284056Y-63039555D01*
X138259747Y-62813635D01*
X138191831Y-62596799D01*
X138082917Y-62397379D01*
X137980624Y-62275000D01*
X139725000Y-62275000D01*
X139725000Y-64600058D01*
X139626811Y-64573005D01*
X139454000Y-64679113D01*
X139454000Y-66021000D01*
X139474000Y-66021000D01*
X139474000Y-66379000D01*
X139454000Y-66379000D01*
X139454000Y-67720887D01*
X139626811Y-67826995D01*
X139725000Y-67799942D01*
X139725000Y-72725000D01*
X115275000Y-72725000D01*
X115275000Y-71955679D01*
X121550000Y-71955679D01*
X121550000Y-72044321D01*
X121567294Y-72131260D01*
X121601215Y-72213155D01*
X121650462Y-72286858D01*
X121713142Y-72349538D01*
X121786845Y-72398785D01*
X121868740Y-72432706D01*
X121955679Y-72450000D01*
X122044321Y-72450000D01*
X122131260Y-72432706D01*
X122213155Y-72398785D01*
X122286858Y-72349538D01*
X122300000Y-72336396D01*
X122313142Y-72349538D01*
X122386845Y-72398785D01*
X122468740Y-72432706D01*
X122555679Y-72450000D01*
X122644321Y-72450000D01*
X122731260Y-72432706D01*
X122813155Y-72398785D01*
X122886858Y-72349538D01*
X122949538Y-72286858D01*
X122998785Y-72213155D01*
X123032706Y-72131260D01*
X123050000Y-72044321D01*
X123050000Y-71955679D01*
X123032706Y-71868740D01*
X122998785Y-71786845D01*
X122949538Y-71713142D01*
X122897833Y-71661437D01*
X124393539Y-71661437D01*
X124393539Y-71750079D01*
X124410833Y-71837018D01*
X124444754Y-71918913D01*
X124494001Y-71992616D01*
X124556681Y-72055296D01*
X124630384Y-72104543D01*
X124712279Y-72138464D01*
X124749796Y-72145927D01*
X124745735Y-72166343D01*
X124745735Y-72254985D01*
X124763029Y-72341924D01*
X124796950Y-72423819D01*
X124846197Y-72497522D01*
X124908877Y-72560202D01*
X124982580Y-72609449D01*
X125064475Y-72643370D01*
X125151414Y-72660664D01*
X125240056Y-72660664D01*
X125326995Y-72643370D01*
X125408890Y-72609449D01*
X125482593Y-72560202D01*
X125545273Y-72497522D01*
X125593164Y-72425849D01*
X125597399Y-72432187D01*
X125660079Y-72494867D01*
X125733782Y-72544114D01*
X125815677Y-72578035D01*
X125902616Y-72595329D01*
X125991258Y-72595329D01*
X126078197Y-72578035D01*
X126160092Y-72544114D01*
X126233795Y-72494867D01*
X126296475Y-72432187D01*
X126345722Y-72358484D01*
X126379643Y-72276589D01*
X126396937Y-72189650D01*
X126396937Y-72155679D01*
X126950000Y-72155679D01*
X126950000Y-72244321D01*
X126967294Y-72331260D01*
X127001215Y-72413155D01*
X127050462Y-72486858D01*
X127113142Y-72549538D01*
X127186845Y-72598785D01*
X127268740Y-72632706D01*
X127355679Y-72650000D01*
X127444321Y-72650000D01*
X127531260Y-72632706D01*
X127613155Y-72598785D01*
X127686858Y-72549538D01*
X127749538Y-72486858D01*
X127798785Y-72413155D01*
X127832706Y-72331260D01*
X127850000Y-72244321D01*
X127850000Y-72155679D01*
X127832706Y-72068740D01*
X127827297Y-72055679D01*
X134150000Y-72055679D01*
X134150000Y-72144321D01*
X134167294Y-72231260D01*
X134201215Y-72313155D01*
X134250462Y-72386858D01*
X134313142Y-72449538D01*
X134386845Y-72498785D01*
X134468740Y-72532706D01*
X134555679Y-72550000D01*
X134644321Y-72550000D01*
X134731260Y-72532706D01*
X134813155Y-72498785D01*
X134886858Y-72449538D01*
X134949538Y-72386858D01*
X134998785Y-72313155D01*
X135032706Y-72231260D01*
X135050000Y-72144321D01*
X135050000Y-72055679D01*
X135032706Y-71968740D01*
X134998785Y-71886845D01*
X134949538Y-71813142D01*
X134886858Y-71750462D01*
X134813155Y-71701215D01*
X134731260Y-71667294D01*
X134644321Y-71650000D01*
X134555679Y-71650000D01*
X134468740Y-71667294D01*
X134386845Y-71701215D01*
X134313142Y-71750462D01*
X134250462Y-71813142D01*
X134201215Y-71886845D01*
X134167294Y-71968740D01*
X134150000Y-72055679D01*
X127827297Y-72055679D01*
X127798785Y-71986845D01*
X127749538Y-71913142D01*
X127686858Y-71850462D01*
X127613155Y-71801215D01*
X127531260Y-71767294D01*
X127444321Y-71750000D01*
X127355679Y-71750000D01*
X127268740Y-71767294D01*
X127186845Y-71801215D01*
X127113142Y-71850462D01*
X127050462Y-71913142D01*
X127001215Y-71986845D01*
X126967294Y-72068740D01*
X126950000Y-72155679D01*
X126396937Y-72155679D01*
X126396937Y-72101008D01*
X126379643Y-72014069D01*
X126345722Y-71932174D01*
X126296475Y-71858471D01*
X126233795Y-71795791D01*
X126160092Y-71746544D01*
X126078197Y-71712623D01*
X125991258Y-71695329D01*
X125902616Y-71695329D01*
X125850000Y-71705795D01*
X125850000Y-71655679D01*
X125832706Y-71568740D01*
X125798785Y-71486845D01*
X125749538Y-71413142D01*
X125686858Y-71350462D01*
X125613155Y-71301215D01*
X125531260Y-71267294D01*
X125444321Y-71250000D01*
X125355679Y-71250000D01*
X125268740Y-71267294D01*
X125186845Y-71301215D01*
X125117461Y-71347576D01*
X125056694Y-71306973D01*
X124974799Y-71273052D01*
X124887860Y-71255758D01*
X124799218Y-71255758D01*
X124712279Y-71273052D01*
X124630384Y-71306973D01*
X124556681Y-71356220D01*
X124494001Y-71418900D01*
X124444754Y-71492603D01*
X124410833Y-71574498D01*
X124393539Y-71661437D01*
X122897833Y-71661437D01*
X122886858Y-71650462D01*
X122813155Y-71601215D01*
X122731260Y-71567294D01*
X122644321Y-71550000D01*
X122555679Y-71550000D01*
X122468740Y-71567294D01*
X122386845Y-71601215D01*
X122313142Y-71650462D01*
X122300000Y-71663604D01*
X122286858Y-71650462D01*
X122213155Y-71601215D01*
X122131260Y-71567294D01*
X122044321Y-71550000D01*
X121955679Y-71550000D01*
X121868740Y-71567294D01*
X121786845Y-71601215D01*
X121713142Y-71650462D01*
X121650462Y-71713142D01*
X121601215Y-71786845D01*
X121567294Y-71868740D01*
X121550000Y-71955679D01*
X115275000Y-71955679D01*
X115275000Y-70555679D01*
X119950000Y-70555679D01*
X119950000Y-70644321D01*
X119967294Y-70731260D01*
X120001215Y-70813155D01*
X120050462Y-70886858D01*
X120113142Y-70949538D01*
X120186845Y-70998785D01*
X120268740Y-71032706D01*
X120355679Y-71050000D01*
X120444321Y-71050000D01*
X120531260Y-71032706D01*
X120613155Y-70998785D01*
X120686858Y-70949538D01*
X120749538Y-70886858D01*
X120798785Y-70813155D01*
X120832706Y-70731260D01*
X120850000Y-70644321D01*
X120850000Y-70555679D01*
X120832706Y-70468740D01*
X120827297Y-70455679D01*
X121450000Y-70455679D01*
X121450000Y-70544321D01*
X121467294Y-70631260D01*
X121501215Y-70713155D01*
X121550462Y-70786858D01*
X121613142Y-70849538D01*
X121686845Y-70898785D01*
X121768740Y-70932706D01*
X121855679Y-70950000D01*
X121944321Y-70950000D01*
X122031260Y-70932706D01*
X122113155Y-70898785D01*
X122186858Y-70849538D01*
X122249538Y-70786858D01*
X122298785Y-70713155D01*
X122332706Y-70631260D01*
X122350000Y-70544321D01*
X122350000Y-70455679D01*
X122332706Y-70368740D01*
X122327297Y-70355679D01*
X124950000Y-70355679D01*
X124950000Y-70444321D01*
X124967294Y-70531260D01*
X125001215Y-70613155D01*
X125050462Y-70686858D01*
X125113142Y-70749538D01*
X125186845Y-70798785D01*
X125268740Y-70832706D01*
X125355679Y-70850000D01*
X125444321Y-70850000D01*
X125531260Y-70832706D01*
X125613155Y-70798785D01*
X125686858Y-70749538D01*
X125749538Y-70686858D01*
X125798785Y-70613155D01*
X125822591Y-70555679D01*
X126650000Y-70555679D01*
X126650000Y-70644321D01*
X126667294Y-70731260D01*
X126701215Y-70813155D01*
X126750462Y-70886858D01*
X126813142Y-70949538D01*
X126886845Y-70998785D01*
X126968740Y-71032706D01*
X127055679Y-71050000D01*
X127144321Y-71050000D01*
X127231260Y-71032706D01*
X127313155Y-70998785D01*
X127386858Y-70949538D01*
X127449538Y-70886858D01*
X127498785Y-70813155D01*
X127532706Y-70731260D01*
X127550000Y-70644321D01*
X127550000Y-70555679D01*
X127532706Y-70468740D01*
X127498785Y-70386845D01*
X127449538Y-70313142D01*
X127386858Y-70250462D01*
X127313155Y-70201215D01*
X127231260Y-70167294D01*
X127144321Y-70150000D01*
X127055679Y-70150000D01*
X126968740Y-70167294D01*
X126886845Y-70201215D01*
X126813142Y-70250462D01*
X126750462Y-70313142D01*
X126701215Y-70386845D01*
X126667294Y-70468740D01*
X126650000Y-70555679D01*
X125822591Y-70555679D01*
X125832706Y-70531260D01*
X125850000Y-70444321D01*
X125850000Y-70355679D01*
X125832706Y-70268740D01*
X125798785Y-70186845D01*
X125749538Y-70113142D01*
X125686858Y-70050462D01*
X125613155Y-70001215D01*
X125531260Y-69967294D01*
X125444321Y-69950000D01*
X125355679Y-69950000D01*
X125268740Y-69967294D01*
X125186845Y-70001215D01*
X125113142Y-70050462D01*
X125050462Y-70113142D01*
X125001215Y-70186845D01*
X124967294Y-70268740D01*
X124950000Y-70355679D01*
X122327297Y-70355679D01*
X122298785Y-70286845D01*
X122249538Y-70213142D01*
X122186858Y-70150462D01*
X122186167Y-70150000D01*
X122244321Y-70150000D01*
X122331260Y-70132706D01*
X122413155Y-70098785D01*
X122486858Y-70049538D01*
X122549538Y-69986858D01*
X122598785Y-69913155D01*
X122632706Y-69831260D01*
X122650000Y-69744321D01*
X122650000Y-69655679D01*
X122632706Y-69568740D01*
X122598785Y-69486845D01*
X122549538Y-69413142D01*
X122496841Y-69360445D01*
X135965944Y-69360445D01*
X135990253Y-69586365D01*
X136058169Y-69803201D01*
X136167083Y-70002621D01*
X136312809Y-70176961D01*
X136489747Y-70319522D01*
X136691098Y-70424825D01*
X136773189Y-70426995D01*
X136946000Y-70320887D01*
X136946000Y-69179000D01*
X137304000Y-69179000D01*
X137304000Y-70320887D01*
X137476811Y-70426995D01*
X137558902Y-70424825D01*
X137760253Y-70319522D01*
X137937191Y-70176961D01*
X138082917Y-70002621D01*
X138191831Y-69803201D01*
X138259747Y-69586365D01*
X138284056Y-69360445D01*
X138125670Y-69179000D01*
X137304000Y-69179000D01*
X136946000Y-69179000D01*
X136124330Y-69179000D01*
X135965944Y-69360445D01*
X122496841Y-69360445D01*
X122486858Y-69350462D01*
X122413155Y-69301215D01*
X122331260Y-69267294D01*
X122244321Y-69250000D01*
X122155679Y-69250000D01*
X122068740Y-69267294D01*
X121986845Y-69301215D01*
X121913142Y-69350462D01*
X121850462Y-69413142D01*
X121801215Y-69486845D01*
X121767294Y-69568740D01*
X121750000Y-69655679D01*
X121750000Y-69744321D01*
X121767294Y-69831260D01*
X121801215Y-69913155D01*
X121850462Y-69986858D01*
X121913142Y-70049538D01*
X121913833Y-70050000D01*
X121855679Y-70050000D01*
X121768740Y-70067294D01*
X121686845Y-70101215D01*
X121613142Y-70150462D01*
X121550462Y-70213142D01*
X121501215Y-70286845D01*
X121467294Y-70368740D01*
X121450000Y-70455679D01*
X120827297Y-70455679D01*
X120798785Y-70386845D01*
X120749538Y-70313142D01*
X120686858Y-70250462D01*
X120613155Y-70201215D01*
X120531260Y-70167294D01*
X120444321Y-70150000D01*
X120355679Y-70150000D01*
X120268740Y-70167294D01*
X120186845Y-70201215D01*
X120113142Y-70250462D01*
X120050462Y-70313142D01*
X120001215Y-70386845D01*
X119967294Y-70468740D01*
X119950000Y-70555679D01*
X115275000Y-70555679D01*
X115275000Y-69755679D01*
X116850000Y-69755679D01*
X116850000Y-69844321D01*
X116867294Y-69931260D01*
X116901215Y-70013155D01*
X116950462Y-70086858D01*
X117013142Y-70149538D01*
X117086845Y-70198785D01*
X117168740Y-70232706D01*
X117255679Y-70250000D01*
X117344321Y-70250000D01*
X117431260Y-70232706D01*
X117513155Y-70198785D01*
X117586858Y-70149538D01*
X117649538Y-70086858D01*
X117698785Y-70013155D01*
X117732706Y-69931260D01*
X117750000Y-69844321D01*
X117750000Y-69755679D01*
X117732706Y-69668740D01*
X117698785Y-69586845D01*
X117649538Y-69513142D01*
X117586858Y-69450462D01*
X117513155Y-69401215D01*
X117431260Y-69367294D01*
X117344321Y-69350000D01*
X117255679Y-69350000D01*
X117168740Y-69367294D01*
X117086845Y-69401215D01*
X117013142Y-69450462D01*
X116950462Y-69513142D01*
X116901215Y-69586845D01*
X116867294Y-69668740D01*
X116850000Y-69755679D01*
X115275000Y-69755679D01*
X115275000Y-68585679D01*
X127380000Y-68585679D01*
X127380000Y-68674321D01*
X127397294Y-68761260D01*
X127431215Y-68843155D01*
X127480462Y-68916858D01*
X127543142Y-68979538D01*
X127616845Y-69028785D01*
X127698740Y-69062706D01*
X127785679Y-69080000D01*
X127874321Y-69080000D01*
X127961260Y-69062706D01*
X128043155Y-69028785D01*
X128116858Y-68979538D01*
X128179538Y-68916858D01*
X128228785Y-68843155D01*
X128262706Y-68761260D01*
X128280000Y-68674321D01*
X128280000Y-68639555D01*
X135965944Y-68639555D01*
X136124330Y-68821000D01*
X136946000Y-68821000D01*
X136946000Y-67679113D01*
X137304000Y-67679113D01*
X137304000Y-68821000D01*
X138125670Y-68821000D01*
X138284056Y-68639555D01*
X138259747Y-68413635D01*
X138191831Y-68196799D01*
X138152971Y-68125647D01*
X138160462Y-68136858D01*
X138223142Y-68199538D01*
X138296845Y-68248785D01*
X138378740Y-68282706D01*
X138465679Y-68300000D01*
X138554321Y-68300000D01*
X138641260Y-68282706D01*
X138723155Y-68248785D01*
X138796858Y-68199538D01*
X138859538Y-68136858D01*
X138908785Y-68063155D01*
X138942706Y-67981260D01*
X138960000Y-67894321D01*
X138960000Y-67805679D01*
X138959772Y-67804533D01*
X139096000Y-67720887D01*
X139096000Y-66379000D01*
X138142000Y-66379000D01*
X138142000Y-66929000D01*
X138198691Y-67146598D01*
X138296744Y-67348955D01*
X138355663Y-67426852D01*
X138296845Y-67451215D01*
X138223142Y-67500462D01*
X138160462Y-67563142D01*
X138111215Y-67636845D01*
X138077294Y-67718740D01*
X138060000Y-67805679D01*
X138060000Y-67894321D01*
X138077294Y-67981260D01*
X138087277Y-68005363D01*
X138082917Y-67997379D01*
X137937191Y-67823039D01*
X137760253Y-67680478D01*
X137558902Y-67575175D01*
X137476811Y-67573005D01*
X137304000Y-67679113D01*
X136946000Y-67679113D01*
X136773189Y-67573005D01*
X136691098Y-67575175D01*
X136489747Y-67680478D01*
X136312809Y-67823039D01*
X136167083Y-67997379D01*
X136058169Y-68196799D01*
X135990253Y-68413635D01*
X135965944Y-68639555D01*
X128280000Y-68639555D01*
X128280000Y-68585679D01*
X128262706Y-68498740D01*
X128228785Y-68416845D01*
X128179538Y-68343142D01*
X128116858Y-68280462D01*
X128043155Y-68231215D01*
X127961260Y-68197294D01*
X127874321Y-68180000D01*
X127785679Y-68180000D01*
X127698740Y-68197294D01*
X127616845Y-68231215D01*
X127543142Y-68280462D01*
X127480462Y-68343142D01*
X127431215Y-68416845D01*
X127397294Y-68498740D01*
X127380000Y-68585679D01*
X115275000Y-68585679D01*
X115275000Y-67474641D01*
X119586424Y-67474641D01*
X119586424Y-67563283D01*
X119603718Y-67650222D01*
X119637639Y-67732117D01*
X119686886Y-67805820D01*
X119749566Y-67868500D01*
X119823269Y-67917747D01*
X119905164Y-67951668D01*
X119992103Y-67968962D01*
X120080745Y-67968962D01*
X120167684Y-67951668D01*
X120249579Y-67917747D01*
X120323282Y-67868500D01*
X120385962Y-67805820D01*
X120435209Y-67732117D01*
X120469130Y-67650222D01*
X120486424Y-67563283D01*
X120486424Y-67474641D01*
X120469130Y-67387702D01*
X120435209Y-67305807D01*
X120398504Y-67250873D01*
X127650000Y-67250873D01*
X127650000Y-67339515D01*
X127667294Y-67426454D01*
X127701215Y-67508349D01*
X127750462Y-67582052D01*
X127813142Y-67644732D01*
X127886845Y-67693979D01*
X127968740Y-67727900D01*
X128055679Y-67745194D01*
X128144321Y-67745194D01*
X128231260Y-67727900D01*
X128313155Y-67693979D01*
X128386858Y-67644732D01*
X128449538Y-67582052D01*
X128498785Y-67508349D01*
X128532706Y-67426454D01*
X128550000Y-67339515D01*
X128550000Y-67250873D01*
X128532706Y-67163934D01*
X128498785Y-67082039D01*
X128449538Y-67008336D01*
X128386858Y-66945656D01*
X128313155Y-66896409D01*
X128231260Y-66862488D01*
X128144321Y-66845194D01*
X128055679Y-66845194D01*
X127968740Y-66862488D01*
X127886845Y-66896409D01*
X127813142Y-66945656D01*
X127750462Y-67008336D01*
X127701215Y-67082039D01*
X127667294Y-67163934D01*
X127650000Y-67250873D01*
X120398504Y-67250873D01*
X120385962Y-67232104D01*
X120323282Y-67169424D01*
X120249579Y-67120177D01*
X120167684Y-67086256D01*
X120080745Y-67068962D01*
X119992103Y-67068962D01*
X119905164Y-67086256D01*
X119823269Y-67120177D01*
X119749566Y-67169424D01*
X119686886Y-67232104D01*
X119637639Y-67305807D01*
X119603718Y-67387702D01*
X119586424Y-67474641D01*
X115275000Y-67474641D01*
X115275000Y-66455679D01*
X119750000Y-66455679D01*
X119750000Y-66544321D01*
X119767294Y-66631260D01*
X119801215Y-66713155D01*
X119850462Y-66786858D01*
X119913142Y-66849538D01*
X119986845Y-66898785D01*
X120068740Y-66932706D01*
X120155679Y-66950000D01*
X120244321Y-66950000D01*
X120331260Y-66932706D01*
X120413155Y-66898785D01*
X120486858Y-66849538D01*
X120549538Y-66786858D01*
X120598785Y-66713155D01*
X120622591Y-66655679D01*
X121950000Y-66655679D01*
X121950000Y-66744321D01*
X121967294Y-66831260D01*
X122001215Y-66913155D01*
X122050462Y-66986858D01*
X122113142Y-67049538D01*
X122186845Y-67098785D01*
X122268740Y-67132706D01*
X122355679Y-67150000D01*
X122444321Y-67150000D01*
X122531260Y-67132706D01*
X122613155Y-67098785D01*
X122686858Y-67049538D01*
X122749538Y-66986858D01*
X122798785Y-66913155D01*
X122832706Y-66831260D01*
X122850000Y-66744321D01*
X122850000Y-66655679D01*
X122832706Y-66568740D01*
X122798785Y-66486845D01*
X122749538Y-66413142D01*
X122686858Y-66350462D01*
X122613155Y-66301215D01*
X122531260Y-66267294D01*
X122444321Y-66250000D01*
X122355679Y-66250000D01*
X122268740Y-66267294D01*
X122186845Y-66301215D01*
X122113142Y-66350462D01*
X122050462Y-66413142D01*
X122001215Y-66486845D01*
X121967294Y-66568740D01*
X121950000Y-66655679D01*
X120622591Y-66655679D01*
X120632706Y-66631260D01*
X120650000Y-66544321D01*
X120650000Y-66455679D01*
X120632706Y-66368740D01*
X120598785Y-66286845D01*
X120549538Y-66213142D01*
X120486858Y-66150462D01*
X120413155Y-66101215D01*
X120331260Y-66067294D01*
X120244321Y-66050000D01*
X120155679Y-66050000D01*
X120068740Y-66067294D01*
X119986845Y-66101215D01*
X119913142Y-66150462D01*
X119850462Y-66213142D01*
X119801215Y-66286845D01*
X119767294Y-66368740D01*
X119750000Y-66455679D01*
X115275000Y-66455679D01*
X115275000Y-65905679D01*
X116050000Y-65905679D01*
X116050000Y-65994321D01*
X116067294Y-66081260D01*
X116101215Y-66163155D01*
X116150462Y-66236858D01*
X116213142Y-66299538D01*
X116286845Y-66348785D01*
X116368740Y-66382706D01*
X116455679Y-66400000D01*
X116544321Y-66400000D01*
X116631260Y-66382706D01*
X116713155Y-66348785D01*
X116786858Y-66299538D01*
X116849538Y-66236858D01*
X116898785Y-66163155D01*
X116932706Y-66081260D01*
X116950000Y-65994321D01*
X116950000Y-65944321D01*
X116967294Y-66031260D01*
X117001215Y-66113155D01*
X117050462Y-66186858D01*
X117113142Y-66249538D01*
X117186845Y-66298785D01*
X117268740Y-66332706D01*
X117355679Y-66350000D01*
X117444321Y-66350000D01*
X117531260Y-66332706D01*
X117613155Y-66298785D01*
X117686858Y-66249538D01*
X117749538Y-66186858D01*
X117798785Y-66113155D01*
X117832706Y-66031260D01*
X117850000Y-65944321D01*
X117850000Y-65855679D01*
X117832706Y-65768740D01*
X117798785Y-65686845D01*
X117749538Y-65613142D01*
X117686858Y-65550462D01*
X117613155Y-65501215D01*
X117531260Y-65467294D01*
X117444321Y-65450000D01*
X117355679Y-65450000D01*
X117268740Y-65467294D01*
X117186845Y-65501215D01*
X117113142Y-65550462D01*
X117050462Y-65613142D01*
X117001215Y-65686845D01*
X116967294Y-65768740D01*
X116950000Y-65855679D01*
X116950000Y-65905679D01*
X116932706Y-65818740D01*
X116898785Y-65736845D01*
X116849538Y-65663142D01*
X116786858Y-65600462D01*
X116713155Y-65551215D01*
X116631260Y-65517294D01*
X116544321Y-65500000D01*
X116455679Y-65500000D01*
X116368740Y-65517294D01*
X116286845Y-65551215D01*
X116213142Y-65600462D01*
X116150462Y-65663142D01*
X116101215Y-65736845D01*
X116067294Y-65818740D01*
X116050000Y-65905679D01*
X115275000Y-65905679D01*
X115275000Y-64755679D01*
X119650000Y-64755679D01*
X119650000Y-64844321D01*
X119667294Y-64931260D01*
X119701215Y-65013155D01*
X119750462Y-65086858D01*
X119813142Y-65149538D01*
X119886845Y-65198785D01*
X119968740Y-65232706D01*
X120055679Y-65250000D01*
X120144321Y-65250000D01*
X120231260Y-65232706D01*
X120313155Y-65198785D01*
X120386858Y-65149538D01*
X120449538Y-65086858D01*
X120498785Y-65013155D01*
X120510165Y-64985679D01*
X121920000Y-64985679D01*
X121920000Y-65074321D01*
X121937294Y-65161260D01*
X121971215Y-65243155D01*
X122020462Y-65316858D01*
X122083142Y-65379538D01*
X122156845Y-65428785D01*
X122238740Y-65462706D01*
X122325679Y-65480000D01*
X122414321Y-65480000D01*
X122501260Y-65462706D01*
X122518225Y-65455679D01*
X124450000Y-65455679D01*
X124450000Y-65544321D01*
X124467294Y-65631260D01*
X124501215Y-65713155D01*
X124550462Y-65786858D01*
X124613142Y-65849538D01*
X124686845Y-65898785D01*
X124744185Y-65922535D01*
X124701215Y-65986845D01*
X124667294Y-66068740D01*
X124650000Y-66155679D01*
X124650000Y-66244321D01*
X124667294Y-66331260D01*
X124701215Y-66413155D01*
X124750462Y-66486858D01*
X124813142Y-66549538D01*
X124886845Y-66598785D01*
X124968740Y-66632706D01*
X125055679Y-66650000D01*
X125144321Y-66650000D01*
X125231260Y-66632706D01*
X125313155Y-66598785D01*
X125386858Y-66549538D01*
X125449538Y-66486858D01*
X125498785Y-66413155D01*
X125532706Y-66331260D01*
X125550000Y-66244321D01*
X125550000Y-66155679D01*
X125532706Y-66068740D01*
X125498785Y-65986845D01*
X125449538Y-65913142D01*
X125386858Y-65850462D01*
X125313155Y-65801215D01*
X125255815Y-65777465D01*
X125298785Y-65713155D01*
X125332706Y-65631260D01*
X125350000Y-65544321D01*
X125350000Y-65455679D01*
X125332706Y-65368740D01*
X125298785Y-65286845D01*
X125249538Y-65213142D01*
X125212075Y-65175679D01*
X131840618Y-65175679D01*
X131840618Y-65264321D01*
X131857912Y-65351260D01*
X131891833Y-65433155D01*
X131941080Y-65506858D01*
X132003760Y-65569538D01*
X132077463Y-65618785D01*
X132128755Y-65640030D01*
X132113142Y-65650462D01*
X132050462Y-65713142D01*
X132001215Y-65786845D01*
X131967294Y-65868740D01*
X131950000Y-65955679D01*
X131950000Y-66044321D01*
X131967294Y-66131260D01*
X132001215Y-66213155D01*
X132050462Y-66286858D01*
X132113142Y-66349538D01*
X132186845Y-66398785D01*
X132268740Y-66432706D01*
X132355679Y-66450000D01*
X132444321Y-66450000D01*
X132531260Y-66432706D01*
X132613155Y-66398785D01*
X132686858Y-66349538D01*
X132749538Y-66286858D01*
X132774715Y-66249177D01*
X132786346Y-66277258D01*
X132750462Y-66313142D01*
X132701215Y-66386845D01*
X132667294Y-66468740D01*
X132650000Y-66555679D01*
X132650000Y-66644321D01*
X132667294Y-66731260D01*
X132701215Y-66813155D01*
X132750462Y-66886858D01*
X132813142Y-66949538D01*
X132886845Y-66998785D01*
X132968740Y-67032706D01*
X133055679Y-67050000D01*
X133144321Y-67050000D01*
X133231260Y-67032706D01*
X133313155Y-66998785D01*
X133386858Y-66949538D01*
X133449538Y-66886858D01*
X133483729Y-66835688D01*
X133555679Y-66850000D01*
X133644321Y-66850000D01*
X133731260Y-66832706D01*
X133813155Y-66798785D01*
X133886858Y-66749538D01*
X133949538Y-66686858D01*
X133998785Y-66613155D01*
X134032706Y-66531260D01*
X134050000Y-66444321D01*
X134050000Y-66355679D01*
X134032706Y-66268740D01*
X133998785Y-66186845D01*
X133949538Y-66113142D01*
X133886858Y-66050462D01*
X133813155Y-66001215D01*
X133731260Y-65967294D01*
X133644321Y-65950000D01*
X133624944Y-65950000D01*
X133598785Y-65886845D01*
X133549538Y-65813142D01*
X133486858Y-65750462D01*
X133413155Y-65701215D01*
X133331260Y-65667294D01*
X133244321Y-65650000D01*
X133155679Y-65650000D01*
X133068740Y-65667294D01*
X132986845Y-65701215D01*
X132913142Y-65750462D01*
X132850462Y-65813142D01*
X132825285Y-65850823D01*
X132798785Y-65786845D01*
X132749538Y-65713142D01*
X132686858Y-65650462D01*
X132613155Y-65601215D01*
X132561863Y-65579970D01*
X132577476Y-65569538D01*
X132640156Y-65506858D01*
X132664115Y-65471000D01*
X138142000Y-65471000D01*
X138142000Y-66021000D01*
X139096000Y-66021000D01*
X139096000Y-64679113D01*
X138923189Y-64573005D01*
X138794371Y-64608497D01*
X138600419Y-64722275D01*
X138432391Y-64871705D01*
X138296744Y-65051045D01*
X138198691Y-65253402D01*
X138142000Y-65471000D01*
X132664115Y-65471000D01*
X132689403Y-65433155D01*
X132723324Y-65351260D01*
X132740618Y-65264321D01*
X132740618Y-65175679D01*
X132723324Y-65088740D01*
X132689403Y-65006845D01*
X132640156Y-64933142D01*
X132577476Y-64870462D01*
X132503773Y-64821215D01*
X132421878Y-64787294D01*
X132334939Y-64770000D01*
X132246297Y-64770000D01*
X132159358Y-64787294D01*
X132077463Y-64821215D01*
X132003760Y-64870462D01*
X131941080Y-64933142D01*
X131891833Y-65006845D01*
X131857912Y-65088740D01*
X131840618Y-65175679D01*
X125212075Y-65175679D01*
X125186858Y-65150462D01*
X125113155Y-65101215D01*
X125031260Y-65067294D01*
X124944321Y-65050000D01*
X124855679Y-65050000D01*
X124768740Y-65067294D01*
X124686845Y-65101215D01*
X124613142Y-65150462D01*
X124550462Y-65213142D01*
X124501215Y-65286845D01*
X124467294Y-65368740D01*
X124450000Y-65455679D01*
X122518225Y-65455679D01*
X122583155Y-65428785D01*
X122656858Y-65379538D01*
X122719538Y-65316858D01*
X122768785Y-65243155D01*
X122802706Y-65161260D01*
X122820000Y-65074321D01*
X122820000Y-64985679D01*
X122802706Y-64898740D01*
X122768785Y-64816845D01*
X122719538Y-64743142D01*
X122656858Y-64680462D01*
X122583155Y-64631215D01*
X122501260Y-64597294D01*
X122414321Y-64580000D01*
X122325679Y-64580000D01*
X122238740Y-64597294D01*
X122156845Y-64631215D01*
X122083142Y-64680462D01*
X122020462Y-64743142D01*
X121971215Y-64816845D01*
X121937294Y-64898740D01*
X121920000Y-64985679D01*
X120510165Y-64985679D01*
X120532706Y-64931260D01*
X120550000Y-64844321D01*
X120550000Y-64755679D01*
X120532706Y-64668740D01*
X120498785Y-64586845D01*
X120449538Y-64513142D01*
X120386858Y-64450462D01*
X120313155Y-64401215D01*
X120231260Y-64367294D01*
X120144321Y-64350000D01*
X120055679Y-64350000D01*
X119968740Y-64367294D01*
X119886845Y-64401215D01*
X119813142Y-64450462D01*
X119750462Y-64513142D01*
X119701215Y-64586845D01*
X119667294Y-64668740D01*
X119650000Y-64755679D01*
X115275000Y-64755679D01*
X115275000Y-64051814D01*
X127712297Y-64051814D01*
X127712297Y-64140456D01*
X127729591Y-64227395D01*
X127763512Y-64309290D01*
X127812759Y-64382993D01*
X127875439Y-64445673D01*
X127949142Y-64494920D01*
X128031037Y-64528841D01*
X128117976Y-64546135D01*
X128206618Y-64546135D01*
X128293557Y-64528841D01*
X128375452Y-64494920D01*
X128449155Y-64445673D01*
X128511835Y-64382993D01*
X128561082Y-64309290D01*
X128583287Y-64255679D01*
X129250000Y-64255679D01*
X129250000Y-64344321D01*
X129267294Y-64431260D01*
X129301215Y-64513155D01*
X129350462Y-64586858D01*
X129413142Y-64649538D01*
X129486845Y-64698785D01*
X129568740Y-64732706D01*
X129655679Y-64750000D01*
X129744321Y-64750000D01*
X129831260Y-64732706D01*
X129913155Y-64698785D01*
X129986858Y-64649538D01*
X130049538Y-64586858D01*
X130098785Y-64513155D01*
X130132706Y-64431260D01*
X130150000Y-64344321D01*
X130150000Y-64255679D01*
X130144836Y-64229717D01*
X132692400Y-64229717D01*
X132692400Y-64318359D01*
X132709694Y-64405298D01*
X132743615Y-64487193D01*
X132792862Y-64560896D01*
X132855542Y-64623576D01*
X132929245Y-64672823D01*
X133011140Y-64706744D01*
X133098079Y-64724038D01*
X133186721Y-64724038D01*
X133273660Y-64706744D01*
X133355555Y-64672823D01*
X133429258Y-64623576D01*
X133491938Y-64560896D01*
X133541185Y-64487193D01*
X133575106Y-64405298D01*
X133592400Y-64318359D01*
X133592400Y-64229717D01*
X133575106Y-64142778D01*
X133541185Y-64060883D01*
X133537708Y-64055679D01*
X135550000Y-64055679D01*
X135550000Y-64144321D01*
X135567294Y-64231260D01*
X135601215Y-64313155D01*
X135650462Y-64386858D01*
X135713142Y-64449538D01*
X135786845Y-64498785D01*
X135868740Y-64532706D01*
X135955679Y-64550000D01*
X136044321Y-64550000D01*
X136131260Y-64532706D01*
X136213155Y-64498785D01*
X136235169Y-64484076D01*
X136312809Y-64576961D01*
X136489747Y-64719522D01*
X136691098Y-64824825D01*
X136773189Y-64826995D01*
X136946000Y-64720887D01*
X136946000Y-63579000D01*
X137304000Y-63579000D01*
X137304000Y-64720887D01*
X137476811Y-64826995D01*
X137558902Y-64824825D01*
X137760253Y-64719522D01*
X137937191Y-64576961D01*
X138082917Y-64402621D01*
X138191831Y-64203201D01*
X138259747Y-63986365D01*
X138284056Y-63760445D01*
X138125670Y-63579000D01*
X137304000Y-63579000D01*
X136946000Y-63579000D01*
X136124330Y-63579000D01*
X136059685Y-63653056D01*
X136044321Y-63650000D01*
X135955679Y-63650000D01*
X135868740Y-63667294D01*
X135786845Y-63701215D01*
X135713142Y-63750462D01*
X135650462Y-63813142D01*
X135601215Y-63886845D01*
X135567294Y-63968740D01*
X135550000Y-64055679D01*
X133537708Y-64055679D01*
X133491938Y-63987180D01*
X133429258Y-63924500D01*
X133355555Y-63875253D01*
X133273660Y-63841332D01*
X133186721Y-63824038D01*
X133098079Y-63824038D01*
X133011140Y-63841332D01*
X132929245Y-63875253D01*
X132855542Y-63924500D01*
X132792862Y-63987180D01*
X132743615Y-64060883D01*
X132709694Y-64142778D01*
X132692400Y-64229717D01*
X130144836Y-64229717D01*
X130132706Y-64168740D01*
X130098785Y-64086845D01*
X130049538Y-64013142D01*
X129986858Y-63950462D01*
X129913155Y-63901215D01*
X129831260Y-63867294D01*
X129744321Y-63850000D01*
X129655679Y-63850000D01*
X129568740Y-63867294D01*
X129486845Y-63901215D01*
X129413142Y-63950462D01*
X129350462Y-64013142D01*
X129301215Y-64086845D01*
X129267294Y-64168740D01*
X129250000Y-64255679D01*
X128583287Y-64255679D01*
X128595003Y-64227395D01*
X128612297Y-64140456D01*
X128612297Y-64051814D01*
X128595003Y-63964875D01*
X128561082Y-63882980D01*
X128511835Y-63809277D01*
X128449155Y-63746597D01*
X128375452Y-63697350D01*
X128293557Y-63663429D01*
X128206618Y-63646135D01*
X128117976Y-63646135D01*
X128031037Y-63663429D01*
X127949142Y-63697350D01*
X127875439Y-63746597D01*
X127812759Y-63809277D01*
X127763512Y-63882980D01*
X127729591Y-63964875D01*
X127712297Y-64051814D01*
X115275000Y-64051814D01*
X115275000Y-63455679D01*
X119750000Y-63455679D01*
X119750000Y-63544321D01*
X119767294Y-63631260D01*
X119801215Y-63713155D01*
X119850462Y-63786858D01*
X119913142Y-63849538D01*
X119986845Y-63898785D01*
X120068740Y-63932706D01*
X120155679Y-63950000D01*
X120244321Y-63950000D01*
X120331260Y-63932706D01*
X120413155Y-63898785D01*
X120486858Y-63849538D01*
X120549538Y-63786858D01*
X120598785Y-63713155D01*
X120632706Y-63631260D01*
X120650000Y-63544321D01*
X120650000Y-63476451D01*
X124789228Y-63476451D01*
X124789228Y-63565093D01*
X124806522Y-63652032D01*
X124840443Y-63733927D01*
X124889690Y-63807630D01*
X124952370Y-63870310D01*
X125026073Y-63919557D01*
X125107968Y-63953478D01*
X125194907Y-63970772D01*
X125283549Y-63970772D01*
X125370488Y-63953478D01*
X125452383Y-63919557D01*
X125526086Y-63870310D01*
X125588766Y-63807630D01*
X125638013Y-63733927D01*
X125671934Y-63652032D01*
X125689228Y-63565093D01*
X125689228Y-63531451D01*
X126274228Y-63531451D01*
X126274228Y-63620093D01*
X126291522Y-63707032D01*
X126325443Y-63788927D01*
X126374690Y-63862630D01*
X126437370Y-63925310D01*
X126511073Y-63974557D01*
X126592968Y-64008478D01*
X126679907Y-64025772D01*
X126768549Y-64025772D01*
X126855488Y-64008478D01*
X126937383Y-63974557D01*
X127011086Y-63925310D01*
X127073766Y-63862630D01*
X127123013Y-63788927D01*
X127156934Y-63707032D01*
X127174228Y-63620093D01*
X127174228Y-63531451D01*
X127156934Y-63444512D01*
X127123013Y-63362617D01*
X127073766Y-63288914D01*
X127011086Y-63226234D01*
X126937383Y-63176987D01*
X126855488Y-63143066D01*
X126768549Y-63125772D01*
X126679907Y-63125772D01*
X126592968Y-63143066D01*
X126511073Y-63176987D01*
X126437370Y-63226234D01*
X126374690Y-63288914D01*
X126325443Y-63362617D01*
X126291522Y-63444512D01*
X126274228Y-63531451D01*
X125689228Y-63531451D01*
X125689228Y-63476451D01*
X125671934Y-63389512D01*
X125638013Y-63307617D01*
X125588766Y-63233914D01*
X125528172Y-63173320D01*
X125531260Y-63172706D01*
X125613155Y-63138785D01*
X125686858Y-63089538D01*
X125749538Y-63026858D01*
X125798785Y-62953155D01*
X125832706Y-62871260D01*
X125850000Y-62784321D01*
X125850000Y-62695679D01*
X125832706Y-62608740D01*
X125798785Y-62526845D01*
X125749538Y-62453142D01*
X125686858Y-62390462D01*
X125613155Y-62341215D01*
X125531260Y-62307294D01*
X125444321Y-62290000D01*
X125355679Y-62290000D01*
X125268740Y-62307294D01*
X125186845Y-62341215D01*
X125113142Y-62390462D01*
X125050462Y-62453142D01*
X125001215Y-62526845D01*
X124967294Y-62608740D01*
X124950000Y-62695679D01*
X124950000Y-62784321D01*
X124967294Y-62871260D01*
X125001215Y-62953155D01*
X125050462Y-63026858D01*
X125111056Y-63087452D01*
X125107968Y-63088066D01*
X125026073Y-63121987D01*
X124952370Y-63171234D01*
X124889690Y-63233914D01*
X124840443Y-63307617D01*
X124806522Y-63389512D01*
X124789228Y-63476451D01*
X120650000Y-63476451D01*
X120650000Y-63455679D01*
X120632706Y-63368740D01*
X120598785Y-63286845D01*
X120549538Y-63213142D01*
X120486858Y-63150462D01*
X120413155Y-63101215D01*
X120331260Y-63067294D01*
X120244321Y-63050000D01*
X120155679Y-63050000D01*
X120068740Y-63067294D01*
X119986845Y-63101215D01*
X119913142Y-63150462D01*
X119850462Y-63213142D01*
X119801215Y-63286845D01*
X119767294Y-63368740D01*
X119750000Y-63455679D01*
X115275000Y-63455679D01*
X115275000Y-62755679D01*
X123950000Y-62755679D01*
X123950000Y-62844321D01*
X123967294Y-62931260D01*
X124001215Y-63013155D01*
X124050462Y-63086858D01*
X124113142Y-63149538D01*
X124186845Y-63198785D01*
X124268740Y-63232706D01*
X124355679Y-63250000D01*
X124444321Y-63250000D01*
X124531260Y-63232706D01*
X124613155Y-63198785D01*
X124686858Y-63149538D01*
X124749538Y-63086858D01*
X124798785Y-63013155D01*
X124832706Y-62931260D01*
X124850000Y-62844321D01*
X124850000Y-62755679D01*
X124832706Y-62668740D01*
X124798785Y-62586845D01*
X124749538Y-62513142D01*
X124686858Y-62450462D01*
X124613155Y-62401215D01*
X124531260Y-62367294D01*
X124444321Y-62350000D01*
X124355679Y-62350000D01*
X124268740Y-62367294D01*
X124186845Y-62401215D01*
X124113142Y-62450462D01*
X124050462Y-62513142D01*
X124001215Y-62586845D01*
X123967294Y-62668740D01*
X123950000Y-62755679D01*
X115275000Y-62755679D01*
X115275000Y-62275000D01*
X136269376Y-62275000D01*
X136167083Y-62397379D01*
M02*
