M48
; DRILL file {KiCad (5.1.5-0-10_14)} date Saturday, 02 May 2020 at 21:38:11
; FORMAT={-:-/ absolute / inch / decimal}
; #@! TF.CreationDate,2020-05-02T21:38:11-07:00
; #@! TF.GenerationSoftware,Kicad,Pcbnew,(5.1.5-0-10_14)
; #@! TF.FileFunction,Plated,1,4,PTH
FMAT,2
INCH
T1C0.0079
T2C0.0197
%
G90
G05
T1
X4.5457Y-2.6079
X4.5642Y-2.7169
X4.5866Y-2.5965
X4.6051Y-2.7701
X4.6102Y-2.5472
X4.6137Y-2.7244
X4.6181Y-2.748
X4.622Y-2.5669
X4.622Y-2.5945
X4.6697Y-2.6244
X4.6709Y-2.6748
X4.6728Y-2.5748
X4.674Y-2.7244
X4.6921Y-2.6244
X4.7047Y-2.6744
X4.7047Y-2.7744
X4.7126Y-2.5748
X4.7181Y-2.4618
X4.724Y-2.5299
X4.7258Y-2.6582
X4.7283Y-2.5512
X4.7323Y-2.5
X4.7323Y-2.6181
X4.7402Y-2.7795
X4.7453Y-2.4598
X4.7559Y-2.8543
X4.774Y-2.8559
X4.78Y-2.7279
X4.7949Y-2.8563
X4.7992Y-2.7756
X4.8031Y-2.8346
X4.8039Y-2.7205
X4.811Y-2.7441
X4.813Y-2.5949
X4.8177Y-2.5602
X4.8189Y-2.626
X4.8228Y-2.6772
X4.8268Y-2.8346
X4.8417Y-2.7744
X4.8417Y-2.7744
X4.8453Y-2.4606
X4.8504Y-2.8307
X4.8638Y-2.4606
X4.8976Y-2.4724
X4.9108Y-2.7741
X4.9151Y-2.8231
X4.9173Y-2.5787
X4.9173Y-2.6457
X4.9193Y-2.5516
X4.9252Y-2.6063
X4.929Y-2.8429
X4.9307Y-2.5008
X4.937Y-2.4701
X4.937Y-2.7717
X4.937Y-2.8228
X4.9524Y-2.5008
X4.9585Y-2.8404
X4.9736Y-2.8559
X4.9891Y-2.503
X5.0Y-2.811
X5.0039Y-2.7795
X5.0157Y-2.8425
X5.0189Y-2.5075
X5.0327Y-2.702
X5.0374Y-2.6193
X5.0378Y-2.5961
X5.0382Y-2.5705
X5.0433Y-2.6494
X5.0433Y-2.6731
X5.0458Y-2.5235
X5.063Y-2.5551
X5.067Y-2.5276
X5.0732Y-2.5823
X5.0819Y-2.6827
X5.089Y-2.6551
X5.0976Y-2.6299
X5.1063Y-2.5315
X5.1063Y-2.6772
X5.1122Y-2.6543
X5.1189Y-2.8563
X5.1272Y-2.7323
X5.1272Y-2.7642
X5.1449Y-2.8563
X5.1512Y-2.5524
X5.1535Y-2.7087
X5.1535Y-2.7638
X5.1575Y-2.6024
X5.1598Y-2.652
X5.1717Y-2.8563
X5.1961Y-2.854
X5.2083Y-2.5677
X5.2126Y-2.5984
X5.2197Y-2.6335
X5.2303Y-2.5783
X5.2386Y-2.6488
X5.2402Y-2.622
X5.2418Y-2.5305
X5.2441Y-2.6024
X5.2441Y-2.8583
X5.248Y-2.5591
X5.2598Y-2.6142
X5.2665Y-2.5882
X5.2717Y-2.5551
X5.2717Y-2.689
X5.2725Y-2.7427
X5.2835Y-2.5157
X5.287Y-2.8583
X5.2913Y-2.4646
X5.2913Y-2.4843
X5.2992Y-2.8386
X5.3346Y-2.8583
X5.3409Y-2.8366
X5.3504Y-2.7953
X5.3508Y-2.4626
X5.3539Y-2.4957
X5.3543Y-2.5236
X5.3582Y-2.5545
X5.3622Y-2.5787
X5.3622Y-2.6496
X5.374Y-2.5394
X5.3906Y-2.7827
X5.4122Y-2.7925
X5.4205Y-2.8531
X5.4378Y-2.5287
X5.4457Y-2.4957
X5.4496Y-2.4594
X5.4528Y-2.5433
X5.4528Y-2.563
X5.4531Y-2.6713
X5.4608Y-2.7992
X5.4843Y-2.7992
X5.4843Y-2.8582
X5.4909Y-2.5331
X5.4921Y-2.4591
X5.4921Y-2.6693
X5.4921Y-2.7248
X5.4921Y-2.7441
X5.4933Y-2.498
T2
G00X5.3986Y-2.5098
M15
G01X5.3986Y-2.4823
M16
G05
G00X5.3986Y-2.7303
M15
G01X5.3986Y-2.7028
M16
G05
G00X5.4833Y-2.628
M15
G01X5.4833Y-2.5846
M16
G05
T0
M30
