G04 #@! TF.GenerationSoftware,KiCad,Pcbnew,(5.1.5-0-10_14)*
G04 #@! TF.CreationDate,2020-08-02T20:19:12-07:00*
G04 #@! TF.ProjectId,Programmer_Board,50726f67-7261-46d6-9d65-725f426f6172,rev?*
G04 #@! TF.SameCoordinates,Original*
G04 #@! TF.FileFunction,Soldermask,Top*
G04 #@! TF.FilePolarity,Negative*
%FSLAX46Y46*%
G04 Gerber Fmt 4.6, Leading zero omitted, Abs format (unit mm)*
G04 Created by KiCad (PCBNEW (5.1.5-0-10_14)) date 2020-08-02 20:19:12*
%MOMM*%
%LPD*%
G04 APERTURE LIST*
%ADD10C,0.100000*%
G04 APERTURE END LIST*
D10*
G36*
X122151000Y-93051000D02*
G01*
X119849000Y-93051000D01*
X119849000Y-91899000D01*
X122151000Y-91899000D01*
X122151000Y-93051000D01*
G37*
G36*
X123051000Y-91551000D02*
G01*
X121949000Y-91551000D01*
X121949000Y-90449000D01*
X123051000Y-90449000D01*
X123051000Y-91551000D01*
G37*
G36*
X120051000Y-91551000D02*
G01*
X118949000Y-91551000D01*
X118949000Y-90449000D01*
X120051000Y-90449000D01*
X120051000Y-91551000D01*
G37*
G36*
X122151000Y-90101000D02*
G01*
X119849000Y-90101000D01*
X119849000Y-88949000D01*
X122151000Y-88949000D01*
X122151000Y-90101000D01*
G37*
G36*
X129151000Y-90051000D02*
G01*
X126849000Y-90051000D01*
X126849000Y-88899000D01*
X129151000Y-88899000D01*
X129151000Y-90051000D01*
G37*
G36*
X136613512Y-87103927D02*
G01*
X136762812Y-87133624D01*
X136926784Y-87201544D01*
X137074354Y-87300147D01*
X137199853Y-87425646D01*
X137298456Y-87573216D01*
X137366376Y-87737188D01*
X137401000Y-87911259D01*
X137401000Y-88088741D01*
X137366376Y-88262812D01*
X137298456Y-88426784D01*
X137199853Y-88574354D01*
X137074354Y-88699853D01*
X136926784Y-88798456D01*
X136762812Y-88866376D01*
X136613512Y-88896073D01*
X136588742Y-88901000D01*
X136411258Y-88901000D01*
X136386488Y-88896073D01*
X136237188Y-88866376D01*
X136073216Y-88798456D01*
X135925646Y-88699853D01*
X135800147Y-88574354D01*
X135701544Y-88426784D01*
X135633624Y-88262812D01*
X135599000Y-88088741D01*
X135599000Y-87911259D01*
X135633624Y-87737188D01*
X135701544Y-87573216D01*
X135800147Y-87425646D01*
X135925646Y-87300147D01*
X136073216Y-87201544D01*
X136237188Y-87133624D01*
X136386488Y-87103927D01*
X136411258Y-87099000D01*
X136588742Y-87099000D01*
X136613512Y-87103927D01*
G37*
G36*
X105613512Y-87103927D02*
G01*
X105762812Y-87133624D01*
X105926784Y-87201544D01*
X106074354Y-87300147D01*
X106199853Y-87425646D01*
X106298456Y-87573216D01*
X106366376Y-87737188D01*
X106401000Y-87911259D01*
X106401000Y-88088741D01*
X106366376Y-88262812D01*
X106298456Y-88426784D01*
X106199853Y-88574354D01*
X106074354Y-88699853D01*
X105926784Y-88798456D01*
X105762812Y-88866376D01*
X105613512Y-88896073D01*
X105588742Y-88901000D01*
X105411258Y-88901000D01*
X105386488Y-88896073D01*
X105237188Y-88866376D01*
X105073216Y-88798456D01*
X104925646Y-88699853D01*
X104800147Y-88574354D01*
X104701544Y-88426784D01*
X104633624Y-88262812D01*
X104599000Y-88088741D01*
X104599000Y-87911259D01*
X104633624Y-87737188D01*
X104701544Y-87573216D01*
X104800147Y-87425646D01*
X104925646Y-87300147D01*
X105073216Y-87201544D01*
X105237188Y-87133624D01*
X105386488Y-87103927D01*
X105411258Y-87099000D01*
X105588742Y-87099000D01*
X105613512Y-87103927D01*
G37*
G36*
X112613512Y-87103927D02*
G01*
X112762812Y-87133624D01*
X112926784Y-87201544D01*
X113074354Y-87300147D01*
X113199853Y-87425646D01*
X113298456Y-87573216D01*
X113366376Y-87737188D01*
X113401000Y-87911259D01*
X113401000Y-88088741D01*
X113366376Y-88262812D01*
X113298456Y-88426784D01*
X113199853Y-88574354D01*
X113074354Y-88699853D01*
X112926784Y-88798456D01*
X112762812Y-88866376D01*
X112613512Y-88896073D01*
X112588742Y-88901000D01*
X112411258Y-88901000D01*
X112386488Y-88896073D01*
X112237188Y-88866376D01*
X112073216Y-88798456D01*
X111925646Y-88699853D01*
X111800147Y-88574354D01*
X111701544Y-88426784D01*
X111633624Y-88262812D01*
X111599000Y-88088741D01*
X111599000Y-87911259D01*
X111633624Y-87737188D01*
X111701544Y-87573216D01*
X111800147Y-87425646D01*
X111925646Y-87300147D01*
X112073216Y-87201544D01*
X112237188Y-87133624D01*
X112386488Y-87103927D01*
X112411258Y-87099000D01*
X112588742Y-87099000D01*
X112613512Y-87103927D01*
G37*
G36*
X143613512Y-87103927D02*
G01*
X143762812Y-87133624D01*
X143926784Y-87201544D01*
X144074354Y-87300147D01*
X144199853Y-87425646D01*
X144298456Y-87573216D01*
X144366376Y-87737188D01*
X144401000Y-87911259D01*
X144401000Y-88088741D01*
X144366376Y-88262812D01*
X144298456Y-88426784D01*
X144199853Y-88574354D01*
X144074354Y-88699853D01*
X143926784Y-88798456D01*
X143762812Y-88866376D01*
X143613512Y-88896073D01*
X143588742Y-88901000D01*
X143411258Y-88901000D01*
X143386488Y-88896073D01*
X143237188Y-88866376D01*
X143073216Y-88798456D01*
X142925646Y-88699853D01*
X142800147Y-88574354D01*
X142701544Y-88426784D01*
X142633624Y-88262812D01*
X142599000Y-88088741D01*
X142599000Y-87911259D01*
X142633624Y-87737188D01*
X142701544Y-87573216D01*
X142800147Y-87425646D01*
X142925646Y-87300147D01*
X143073216Y-87201544D01*
X143237188Y-87133624D01*
X143386488Y-87103927D01*
X143411258Y-87099000D01*
X143588742Y-87099000D01*
X143613512Y-87103927D01*
G37*
G36*
X127051000Y-88551000D02*
G01*
X125949000Y-88551000D01*
X125949000Y-87449000D01*
X127051000Y-87449000D01*
X127051000Y-88551000D01*
G37*
G36*
X130051000Y-88551000D02*
G01*
X128949000Y-88551000D01*
X128949000Y-87449000D01*
X130051000Y-87449000D01*
X130051000Y-88551000D01*
G37*
G36*
X129151000Y-87101000D02*
G01*
X126849000Y-87101000D01*
X126849000Y-85949000D01*
X129151000Y-85949000D01*
X129151000Y-87101000D01*
G37*
G36*
X122151000Y-87051000D02*
G01*
X119849000Y-87051000D01*
X119849000Y-85899000D01*
X122151000Y-85899000D01*
X122151000Y-87051000D01*
G37*
G36*
X123051000Y-85551000D02*
G01*
X121949000Y-85551000D01*
X121949000Y-84449000D01*
X123051000Y-84449000D01*
X123051000Y-85551000D01*
G37*
G36*
X120051000Y-85551000D02*
G01*
X118949000Y-85551000D01*
X118949000Y-84449000D01*
X120051000Y-84449000D01*
X120051000Y-85551000D01*
G37*
G36*
X122151000Y-84101000D02*
G01*
X119849000Y-84101000D01*
X119849000Y-82949000D01*
X122151000Y-82949000D01*
X122151000Y-84101000D01*
G37*
G36*
X142573512Y-79603927D02*
G01*
X142722812Y-79633624D01*
X142886784Y-79701544D01*
X143034354Y-79800147D01*
X143159853Y-79925646D01*
X143258456Y-80073216D01*
X143326376Y-80237188D01*
X143361000Y-80411259D01*
X143361000Y-80588741D01*
X143326376Y-80762812D01*
X143258456Y-80926784D01*
X143159853Y-81074354D01*
X143034354Y-81199853D01*
X142886784Y-81298456D01*
X142722812Y-81366376D01*
X142573512Y-81396073D01*
X142548742Y-81401000D01*
X142371258Y-81401000D01*
X142346488Y-81396073D01*
X142197188Y-81366376D01*
X142033216Y-81298456D01*
X141885646Y-81199853D01*
X141760147Y-81074354D01*
X141661544Y-80926784D01*
X141593624Y-80762812D01*
X141559000Y-80588741D01*
X141559000Y-80411259D01*
X141593624Y-80237188D01*
X141661544Y-80073216D01*
X141760147Y-79925646D01*
X141885646Y-79800147D01*
X142033216Y-79701544D01*
X142197188Y-79633624D01*
X142346488Y-79603927D01*
X142371258Y-79599000D01*
X142548742Y-79599000D01*
X142573512Y-79603927D01*
G37*
G36*
X145901000Y-81401000D02*
G01*
X144099000Y-81401000D01*
X144099000Y-79599000D01*
X145901000Y-79599000D01*
X145901000Y-81401000D01*
G37*
G36*
X104033512Y-79603927D02*
G01*
X104182812Y-79633624D01*
X104346784Y-79701544D01*
X104494354Y-79800147D01*
X104619853Y-79925646D01*
X104718456Y-80073216D01*
X104786376Y-80237188D01*
X104821000Y-80411259D01*
X104821000Y-80588741D01*
X104786376Y-80762812D01*
X104718456Y-80926784D01*
X104619853Y-81074354D01*
X104494354Y-81199853D01*
X104346784Y-81298456D01*
X104182812Y-81366376D01*
X104033512Y-81396073D01*
X104008742Y-81401000D01*
X103831258Y-81401000D01*
X103806488Y-81396073D01*
X103657188Y-81366376D01*
X103493216Y-81298456D01*
X103345646Y-81199853D01*
X103220147Y-81074354D01*
X103121544Y-80926784D01*
X103053624Y-80762812D01*
X103019000Y-80588741D01*
X103019000Y-80411259D01*
X103053624Y-80237188D01*
X103121544Y-80073216D01*
X103220147Y-79925646D01*
X103345646Y-79800147D01*
X103493216Y-79701544D01*
X103657188Y-79633624D01*
X103806488Y-79603927D01*
X103831258Y-79599000D01*
X104008742Y-79599000D01*
X104033512Y-79603927D01*
G37*
G36*
X106573512Y-79603927D02*
G01*
X106722812Y-79633624D01*
X106886784Y-79701544D01*
X107034354Y-79800147D01*
X107159853Y-79925646D01*
X107258456Y-80073216D01*
X107326376Y-80237188D01*
X107361000Y-80411259D01*
X107361000Y-80588741D01*
X107326376Y-80762812D01*
X107258456Y-80926784D01*
X107159853Y-81074354D01*
X107034354Y-81199853D01*
X106886784Y-81298456D01*
X106722812Y-81366376D01*
X106573512Y-81396073D01*
X106548742Y-81401000D01*
X106371258Y-81401000D01*
X106346488Y-81396073D01*
X106197188Y-81366376D01*
X106033216Y-81298456D01*
X105885646Y-81199853D01*
X105760147Y-81074354D01*
X105661544Y-80926784D01*
X105593624Y-80762812D01*
X105559000Y-80588741D01*
X105559000Y-80411259D01*
X105593624Y-80237188D01*
X105661544Y-80073216D01*
X105760147Y-79925646D01*
X105885646Y-79800147D01*
X106033216Y-79701544D01*
X106197188Y-79633624D01*
X106346488Y-79603927D01*
X106371258Y-79599000D01*
X106548742Y-79599000D01*
X106573512Y-79603927D01*
G37*
G36*
X109901000Y-81401000D02*
G01*
X108099000Y-81401000D01*
X108099000Y-79599000D01*
X109901000Y-79599000D01*
X109901000Y-81401000D01*
G37*
G36*
X115308254Y-73447818D02*
G01*
X115681511Y-73602426D01*
X115681513Y-73602427D01*
X116017436Y-73826884D01*
X116303116Y-74112564D01*
X116506916Y-74417571D01*
X116527574Y-74448489D01*
X116682182Y-74821746D01*
X116761000Y-75217993D01*
X116761000Y-75622007D01*
X116682182Y-76018254D01*
X116567491Y-76295143D01*
X116527573Y-76391513D01*
X116303116Y-76727436D01*
X116017436Y-77013116D01*
X115681513Y-77237573D01*
X115681512Y-77237574D01*
X115681511Y-77237574D01*
X115308254Y-77392182D01*
X114912007Y-77471000D01*
X114507993Y-77471000D01*
X114111746Y-77392182D01*
X113738489Y-77237574D01*
X113738488Y-77237574D01*
X113738487Y-77237573D01*
X113402564Y-77013116D01*
X113116884Y-76727436D01*
X112892427Y-76391513D01*
X112852509Y-76295143D01*
X112737818Y-76018254D01*
X112659000Y-75622007D01*
X112659000Y-75217993D01*
X112737818Y-74821746D01*
X112892426Y-74448489D01*
X112913085Y-74417571D01*
X113116884Y-74112564D01*
X113402564Y-73826884D01*
X113738487Y-73602427D01*
X113738489Y-73602426D01*
X114111746Y-73447818D01*
X114507993Y-73369000D01*
X114912007Y-73369000D01*
X115308254Y-73447818D01*
G37*
G36*
X119681771Y-75271122D02*
G01*
X119857571Y-75343941D01*
X119857573Y-75343942D01*
X120015789Y-75449659D01*
X120150341Y-75584211D01*
X120256058Y-75742427D01*
X120256059Y-75742429D01*
X120328878Y-75918229D01*
X120366000Y-76104856D01*
X120366000Y-76295144D01*
X120328878Y-76481771D01*
X120291428Y-76572182D01*
X120256058Y-76657573D01*
X120150341Y-76815789D01*
X120015789Y-76950341D01*
X119857573Y-77056058D01*
X119857572Y-77056059D01*
X119857571Y-77056059D01*
X119681771Y-77128878D01*
X119495144Y-77166000D01*
X119304856Y-77166000D01*
X119118229Y-77128878D01*
X118942429Y-77056059D01*
X118942428Y-77056059D01*
X118942427Y-77056058D01*
X118784211Y-76950341D01*
X118649659Y-76815789D01*
X118543942Y-76657573D01*
X118508572Y-76572182D01*
X118471122Y-76481771D01*
X118434000Y-76295144D01*
X118434000Y-76104856D01*
X118471122Y-75918229D01*
X118543941Y-75742429D01*
X118543942Y-75742427D01*
X118649659Y-75584211D01*
X118784211Y-75449659D01*
X118942427Y-75343942D01*
X118942429Y-75343941D01*
X119118229Y-75271122D01*
X119304856Y-75234000D01*
X119495144Y-75234000D01*
X119681771Y-75271122D01*
G37*
G36*
X130598254Y-72627818D02*
G01*
X130913094Y-72758229D01*
X130971513Y-72782427D01*
X131307436Y-73006884D01*
X131593116Y-73292564D01*
X131800160Y-73602426D01*
X131817574Y-73628489D01*
X131972182Y-74001746D01*
X132051000Y-74397993D01*
X132051000Y-74802007D01*
X131972182Y-75198254D01*
X131817574Y-75571511D01*
X131817573Y-75571513D01*
X131593116Y-75907436D01*
X131307436Y-76193116D01*
X130971513Y-76417573D01*
X130971512Y-76417574D01*
X130971511Y-76417574D01*
X130598254Y-76572182D01*
X130202007Y-76651000D01*
X129797993Y-76651000D01*
X129401746Y-76572182D01*
X129028489Y-76417574D01*
X129028488Y-76417574D01*
X129028487Y-76417573D01*
X128692564Y-76193116D01*
X128406884Y-75907436D01*
X128182427Y-75571513D01*
X128182426Y-75571511D01*
X128027818Y-75198254D01*
X127949000Y-74802007D01*
X127949000Y-74397993D01*
X128027818Y-74001746D01*
X128182426Y-73628489D01*
X128199841Y-73602426D01*
X128406884Y-73292564D01*
X128692564Y-73006884D01*
X129028487Y-72782427D01*
X129086906Y-72758229D01*
X129401746Y-72627818D01*
X129797993Y-72549000D01*
X130202007Y-72549000D01*
X130598254Y-72627818D01*
G37*
G36*
X123901771Y-74211122D02*
G01*
X124077571Y-74283941D01*
X124077573Y-74283942D01*
X124235789Y-74389659D01*
X124370341Y-74524211D01*
X124370342Y-74524213D01*
X124476059Y-74682429D01*
X124548878Y-74858229D01*
X124586000Y-75044856D01*
X124586000Y-75235144D01*
X124548878Y-75421771D01*
X124481593Y-75584211D01*
X124476058Y-75597573D01*
X124370341Y-75755789D01*
X124235789Y-75890341D01*
X124077573Y-75996058D01*
X124077572Y-75996059D01*
X124077571Y-75996059D01*
X123901771Y-76068878D01*
X123715144Y-76106000D01*
X123524856Y-76106000D01*
X123338229Y-76068878D01*
X123162429Y-75996059D01*
X123162428Y-75996059D01*
X123162427Y-75996058D01*
X123004211Y-75890341D01*
X122869659Y-75755789D01*
X122763942Y-75597573D01*
X122758407Y-75584211D01*
X122691122Y-75421771D01*
X122654000Y-75235144D01*
X122654000Y-75044856D01*
X122691122Y-74858229D01*
X122763941Y-74682429D01*
X122869658Y-74524213D01*
X122869659Y-74524211D01*
X123004211Y-74389659D01*
X123162427Y-74283942D01*
X123162429Y-74283941D01*
X123338229Y-74211122D01*
X123524856Y-74174000D01*
X123715144Y-74174000D01*
X123901771Y-74211122D01*
G37*
G36*
X143331606Y-69758562D02*
G01*
X143850455Y-69973476D01*
X144317407Y-70285484D01*
X144714516Y-70682593D01*
X145026524Y-71149545D01*
X145241438Y-71668394D01*
X145277494Y-71849659D01*
X145351000Y-72219200D01*
X145351000Y-72780800D01*
X145330915Y-72881772D01*
X145241438Y-73331606D01*
X145026524Y-73850455D01*
X144785533Y-74211123D01*
X144736878Y-74283941D01*
X144714516Y-74317407D01*
X144317407Y-74714516D01*
X143850455Y-75026524D01*
X143331606Y-75241438D01*
X143182374Y-75271122D01*
X142780800Y-75351000D01*
X142219200Y-75351000D01*
X141817626Y-75271122D01*
X141668394Y-75241438D01*
X141149545Y-75026524D01*
X140682593Y-74714516D01*
X140285484Y-74317407D01*
X140263123Y-74283941D01*
X140214467Y-74211123D01*
X139973476Y-73850455D01*
X139758562Y-73331606D01*
X139669085Y-72881772D01*
X139649000Y-72780800D01*
X139649000Y-72219200D01*
X139722506Y-71849659D01*
X139758562Y-71668394D01*
X139973476Y-71149545D01*
X140285484Y-70682593D01*
X140682593Y-70285484D01*
X141149545Y-69973476D01*
X141668394Y-69758562D01*
X142219200Y-69649000D01*
X142780800Y-69649000D01*
X143331606Y-69758562D01*
G37*
G36*
X107331606Y-69758562D02*
G01*
X107850455Y-69973476D01*
X108317407Y-70285484D01*
X108714516Y-70682593D01*
X109026524Y-71149545D01*
X109241438Y-71668394D01*
X109277494Y-71849659D01*
X109351000Y-72219200D01*
X109351000Y-72780800D01*
X109330915Y-72881772D01*
X109241438Y-73331606D01*
X109026524Y-73850455D01*
X108785533Y-74211123D01*
X108736878Y-74283941D01*
X108714516Y-74317407D01*
X108317407Y-74714516D01*
X107850455Y-75026524D01*
X107331606Y-75241438D01*
X107182374Y-75271122D01*
X106780800Y-75351000D01*
X106219200Y-75351000D01*
X105817626Y-75271122D01*
X105668394Y-75241438D01*
X105149545Y-75026524D01*
X104682593Y-74714516D01*
X104285484Y-74317407D01*
X104263123Y-74283941D01*
X104214467Y-74211123D01*
X103973476Y-73850455D01*
X103758562Y-73331606D01*
X103669085Y-72881772D01*
X103649000Y-72780800D01*
X103649000Y-72219200D01*
X103722506Y-71849659D01*
X103758562Y-71668394D01*
X103973476Y-71149545D01*
X104285484Y-70682593D01*
X104682593Y-70285484D01*
X105149545Y-69973476D01*
X105668394Y-69758562D01*
X106219200Y-69649000D01*
X106780800Y-69649000D01*
X107331606Y-69758562D01*
G37*
G36*
X119931771Y-73031122D02*
G01*
X120107571Y-73103941D01*
X120107573Y-73103942D01*
X120265789Y-73209659D01*
X120400341Y-73344211D01*
X120506058Y-73502427D01*
X120506059Y-73502429D01*
X120578878Y-73678229D01*
X120616000Y-73864856D01*
X120616000Y-74055144D01*
X120578878Y-74241771D01*
X120514168Y-74397994D01*
X120506058Y-74417573D01*
X120400341Y-74575789D01*
X120265789Y-74710341D01*
X120107573Y-74816058D01*
X120107572Y-74816059D01*
X120107571Y-74816059D01*
X119931771Y-74888878D01*
X119745144Y-74926000D01*
X119554856Y-74926000D01*
X119368229Y-74888878D01*
X119192429Y-74816059D01*
X119192428Y-74816059D01*
X119192427Y-74816058D01*
X119034211Y-74710341D01*
X118899659Y-74575789D01*
X118793942Y-74417573D01*
X118785832Y-74397994D01*
X118721122Y-74241771D01*
X118684000Y-74055144D01*
X118684000Y-73864856D01*
X118721122Y-73678229D01*
X118793941Y-73502429D01*
X118793942Y-73502427D01*
X118899659Y-73344211D01*
X119034211Y-73209659D01*
X119192427Y-73103942D01*
X119192429Y-73103941D01*
X119368229Y-73031122D01*
X119554856Y-72994000D01*
X119745144Y-72994000D01*
X119931771Y-73031122D01*
G37*
G36*
X124191771Y-71671122D02*
G01*
X124367571Y-71743941D01*
X124367573Y-71743942D01*
X124525789Y-71849659D01*
X124660341Y-71984211D01*
X124745141Y-72111123D01*
X124766059Y-72142429D01*
X124838878Y-72318229D01*
X124876000Y-72504856D01*
X124876000Y-72695144D01*
X124838878Y-72881771D01*
X124777014Y-73031123D01*
X124766058Y-73057573D01*
X124660341Y-73215789D01*
X124525789Y-73350341D01*
X124367573Y-73456058D01*
X124367572Y-73456059D01*
X124367571Y-73456059D01*
X124191771Y-73528878D01*
X124005144Y-73566000D01*
X123814856Y-73566000D01*
X123628229Y-73528878D01*
X123452429Y-73456059D01*
X123452428Y-73456059D01*
X123452427Y-73456058D01*
X123294211Y-73350341D01*
X123159659Y-73215789D01*
X123155562Y-73209658D01*
X123119484Y-73155664D01*
X123103939Y-73136723D01*
X123084997Y-73121177D01*
X123063386Y-73109627D01*
X123039937Y-73102514D01*
X123015551Y-73100112D01*
X122991165Y-73102514D01*
X122967716Y-73109627D01*
X122946105Y-73121179D01*
X122927164Y-73136724D01*
X122911618Y-73155666D01*
X122900068Y-73177277D01*
X122892955Y-73200725D01*
X122868878Y-73321772D01*
X122816667Y-73447819D01*
X122796058Y-73497573D01*
X122690341Y-73655789D01*
X122555789Y-73790341D01*
X122397573Y-73896058D01*
X122397572Y-73896059D01*
X122397571Y-73896059D01*
X122221771Y-73968878D01*
X122035144Y-74006000D01*
X121844856Y-74006000D01*
X121658229Y-73968878D01*
X121482429Y-73896059D01*
X121482428Y-73896059D01*
X121482427Y-73896058D01*
X121324211Y-73790341D01*
X121189659Y-73655789D01*
X121083942Y-73497573D01*
X121022957Y-73350342D01*
X121011122Y-73321771D01*
X120974000Y-73135144D01*
X120974000Y-72944856D01*
X121011122Y-72758229D01*
X121083941Y-72582429D01*
X121083942Y-72582427D01*
X121189659Y-72424211D01*
X121324211Y-72289659D01*
X121482427Y-72183942D01*
X121482429Y-72183941D01*
X121658229Y-72111122D01*
X121844856Y-72074000D01*
X122035144Y-72074000D01*
X122221771Y-72111122D01*
X122397571Y-72183941D01*
X122397573Y-72183942D01*
X122555789Y-72289659D01*
X122690341Y-72424211D01*
X122690342Y-72424213D01*
X122690343Y-72424214D01*
X122730516Y-72484336D01*
X122746061Y-72503277D01*
X122765003Y-72518823D01*
X122786614Y-72530373D01*
X122810063Y-72537486D01*
X122834449Y-72539888D01*
X122858835Y-72537486D01*
X122882284Y-72530373D01*
X122903895Y-72518821D01*
X122922836Y-72503276D01*
X122938382Y-72484334D01*
X122949932Y-72462723D01*
X122957045Y-72439275D01*
X122981122Y-72318228D01*
X123053941Y-72142429D01*
X123074859Y-72111123D01*
X123159659Y-71984211D01*
X123294211Y-71849659D01*
X123452427Y-71743942D01*
X123452429Y-71743941D01*
X123628229Y-71671122D01*
X123814856Y-71634000D01*
X124005144Y-71634000D01*
X124191771Y-71671122D01*
G37*
G36*
X110306564Y-64989389D02*
G01*
X110497833Y-65068615D01*
X110497835Y-65068616D01*
X110669973Y-65183635D01*
X110816365Y-65330027D01*
X110931385Y-65502167D01*
X111010611Y-65693436D01*
X111051000Y-65896484D01*
X111051000Y-66103516D01*
X111010611Y-66306564D01*
X110931385Y-66497833D01*
X110931384Y-66497835D01*
X110816365Y-66669973D01*
X110669973Y-66816365D01*
X110497835Y-66931384D01*
X110497834Y-66931385D01*
X110497833Y-66931385D01*
X110306564Y-67010611D01*
X110103516Y-67051000D01*
X109896484Y-67051000D01*
X109693436Y-67010611D01*
X109502167Y-66931385D01*
X109502166Y-66931385D01*
X109502165Y-66931384D01*
X109330027Y-66816365D01*
X109183635Y-66669973D01*
X109068616Y-66497835D01*
X109068615Y-66497833D01*
X108989389Y-66306564D01*
X108949000Y-66103516D01*
X108949000Y-65896484D01*
X108989389Y-65693436D01*
X109068615Y-65502167D01*
X109183635Y-65330027D01*
X109330027Y-65183635D01*
X109502165Y-65068616D01*
X109502167Y-65068615D01*
X109693436Y-64989389D01*
X109896484Y-64949000D01*
X110103516Y-64949000D01*
X110306564Y-64989389D01*
G37*
G36*
X145806564Y-64989389D02*
G01*
X145997833Y-65068615D01*
X145997835Y-65068616D01*
X146169973Y-65183635D01*
X146316365Y-65330027D01*
X146431385Y-65502167D01*
X146510611Y-65693436D01*
X146551000Y-65896484D01*
X146551000Y-66103516D01*
X146510611Y-66306564D01*
X146431385Y-66497833D01*
X146431384Y-66497835D01*
X146316365Y-66669973D01*
X146169973Y-66816365D01*
X145997835Y-66931384D01*
X145997834Y-66931385D01*
X145997833Y-66931385D01*
X145806564Y-67010611D01*
X145603516Y-67051000D01*
X145396484Y-67051000D01*
X145193436Y-67010611D01*
X145002167Y-66931385D01*
X145002166Y-66931385D01*
X145002165Y-66931384D01*
X144830027Y-66816365D01*
X144683635Y-66669973D01*
X144568616Y-66497835D01*
X144568615Y-66497833D01*
X144489389Y-66306564D01*
X144449000Y-66103516D01*
X144449000Y-65896484D01*
X144489389Y-65693436D01*
X144568615Y-65502167D01*
X144683635Y-65330027D01*
X144830027Y-65183635D01*
X145002165Y-65068616D01*
X145002167Y-65068615D01*
X145193436Y-64989389D01*
X145396484Y-64949000D01*
X145603516Y-64949000D01*
X145806564Y-64989389D01*
G37*
G36*
X139306564Y-64989389D02*
G01*
X139497833Y-65068615D01*
X139497835Y-65068616D01*
X139669973Y-65183635D01*
X139816365Y-65330027D01*
X139931385Y-65502167D01*
X140010611Y-65693436D01*
X140051000Y-65896484D01*
X140051000Y-66103516D01*
X140010611Y-66306564D01*
X139931385Y-66497833D01*
X139931384Y-66497835D01*
X139816365Y-66669973D01*
X139669973Y-66816365D01*
X139497835Y-66931384D01*
X139497834Y-66931385D01*
X139497833Y-66931385D01*
X139306564Y-67010611D01*
X139103516Y-67051000D01*
X138896484Y-67051000D01*
X138693436Y-67010611D01*
X138502167Y-66931385D01*
X138502166Y-66931385D01*
X138502165Y-66931384D01*
X138330027Y-66816365D01*
X138183635Y-66669973D01*
X138068616Y-66497835D01*
X138068615Y-66497833D01*
X137989389Y-66306564D01*
X137949000Y-66103516D01*
X137949000Y-65896484D01*
X137989389Y-65693436D01*
X138068615Y-65502167D01*
X138183635Y-65330027D01*
X138330027Y-65183635D01*
X138502165Y-65068616D01*
X138502167Y-65068615D01*
X138693436Y-64989389D01*
X138896484Y-64949000D01*
X139103516Y-64949000D01*
X139306564Y-64989389D01*
G37*
G36*
X103806564Y-64989389D02*
G01*
X103997833Y-65068615D01*
X103997835Y-65068616D01*
X104169973Y-65183635D01*
X104316365Y-65330027D01*
X104431385Y-65502167D01*
X104510611Y-65693436D01*
X104551000Y-65896484D01*
X104551000Y-66103516D01*
X104510611Y-66306564D01*
X104431385Y-66497833D01*
X104431384Y-66497835D01*
X104316365Y-66669973D01*
X104169973Y-66816365D01*
X103997835Y-66931384D01*
X103997834Y-66931385D01*
X103997833Y-66931385D01*
X103806564Y-67010611D01*
X103603516Y-67051000D01*
X103396484Y-67051000D01*
X103193436Y-67010611D01*
X103002167Y-66931385D01*
X103002166Y-66931385D01*
X103002165Y-66931384D01*
X102830027Y-66816365D01*
X102683635Y-66669973D01*
X102568616Y-66497835D01*
X102568615Y-66497833D01*
X102489389Y-66306564D01*
X102449000Y-66103516D01*
X102449000Y-65896484D01*
X102489389Y-65693436D01*
X102568615Y-65502167D01*
X102683635Y-65330027D01*
X102830027Y-65183635D01*
X103002165Y-65068616D01*
X103002167Y-65068615D01*
X103193436Y-64989389D01*
X103396484Y-64949000D01*
X103603516Y-64949000D01*
X103806564Y-64989389D01*
G37*
G36*
X131901000Y-65401000D02*
G01*
X130099000Y-65401000D01*
X130099000Y-63599000D01*
X131901000Y-63599000D01*
X131901000Y-65401000D01*
G37*
G36*
X128573512Y-63603927D02*
G01*
X128722812Y-63633624D01*
X128886784Y-63701544D01*
X129034354Y-63800147D01*
X129159853Y-63925646D01*
X129258456Y-64073216D01*
X129326376Y-64237188D01*
X129361000Y-64411259D01*
X129361000Y-64588741D01*
X129326376Y-64762812D01*
X129258456Y-64926784D01*
X129159853Y-65074354D01*
X129034354Y-65199853D01*
X128886784Y-65298456D01*
X128722812Y-65366376D01*
X128573512Y-65396073D01*
X128548742Y-65401000D01*
X128371258Y-65401000D01*
X128346488Y-65396073D01*
X128197188Y-65366376D01*
X128033216Y-65298456D01*
X127885646Y-65199853D01*
X127760147Y-65074354D01*
X127661544Y-64926784D01*
X127593624Y-64762812D01*
X127559000Y-64588741D01*
X127559000Y-64411259D01*
X127593624Y-64237188D01*
X127661544Y-64073216D01*
X127760147Y-63925646D01*
X127885646Y-63800147D01*
X128033216Y-63701544D01*
X128197188Y-63633624D01*
X128346488Y-63603927D01*
X128371258Y-63599000D01*
X128548742Y-63599000D01*
X128573512Y-63603927D01*
G37*
G36*
X126033512Y-63603927D02*
G01*
X126182812Y-63633624D01*
X126346784Y-63701544D01*
X126494354Y-63800147D01*
X126619853Y-63925646D01*
X126718456Y-64073216D01*
X126786376Y-64237188D01*
X126821000Y-64411259D01*
X126821000Y-64588741D01*
X126786376Y-64762812D01*
X126718456Y-64926784D01*
X126619853Y-65074354D01*
X126494354Y-65199853D01*
X126346784Y-65298456D01*
X126182812Y-65366376D01*
X126033512Y-65396073D01*
X126008742Y-65401000D01*
X125831258Y-65401000D01*
X125806488Y-65396073D01*
X125657188Y-65366376D01*
X125493216Y-65298456D01*
X125345646Y-65199853D01*
X125220147Y-65074354D01*
X125121544Y-64926784D01*
X125053624Y-64762812D01*
X125019000Y-64588741D01*
X125019000Y-64411259D01*
X125053624Y-64237188D01*
X125121544Y-64073216D01*
X125220147Y-63925646D01*
X125345646Y-63800147D01*
X125493216Y-63701544D01*
X125657188Y-63633624D01*
X125806488Y-63603927D01*
X125831258Y-63599000D01*
X126008742Y-63599000D01*
X126033512Y-63603927D01*
G37*
G36*
X123493512Y-63603927D02*
G01*
X123642812Y-63633624D01*
X123806784Y-63701544D01*
X123954354Y-63800147D01*
X124079853Y-63925646D01*
X124178456Y-64073216D01*
X124246376Y-64237188D01*
X124281000Y-64411259D01*
X124281000Y-64588741D01*
X124246376Y-64762812D01*
X124178456Y-64926784D01*
X124079853Y-65074354D01*
X123954354Y-65199853D01*
X123806784Y-65298456D01*
X123642812Y-65366376D01*
X123493512Y-65396073D01*
X123468742Y-65401000D01*
X123291258Y-65401000D01*
X123266488Y-65396073D01*
X123117188Y-65366376D01*
X122953216Y-65298456D01*
X122805646Y-65199853D01*
X122680147Y-65074354D01*
X122581544Y-64926784D01*
X122513624Y-64762812D01*
X122479000Y-64588741D01*
X122479000Y-64411259D01*
X122513624Y-64237188D01*
X122581544Y-64073216D01*
X122680147Y-63925646D01*
X122805646Y-63800147D01*
X122953216Y-63701544D01*
X123117188Y-63633624D01*
X123266488Y-63603927D01*
X123291258Y-63599000D01*
X123468742Y-63599000D01*
X123493512Y-63603927D01*
G37*
G36*
X120953512Y-63603927D02*
G01*
X121102812Y-63633624D01*
X121266784Y-63701544D01*
X121414354Y-63800147D01*
X121539853Y-63925646D01*
X121638456Y-64073216D01*
X121706376Y-64237188D01*
X121741000Y-64411259D01*
X121741000Y-64588741D01*
X121706376Y-64762812D01*
X121638456Y-64926784D01*
X121539853Y-65074354D01*
X121414354Y-65199853D01*
X121266784Y-65298456D01*
X121102812Y-65366376D01*
X120953512Y-65396073D01*
X120928742Y-65401000D01*
X120751258Y-65401000D01*
X120726488Y-65396073D01*
X120577188Y-65366376D01*
X120413216Y-65298456D01*
X120265646Y-65199853D01*
X120140147Y-65074354D01*
X120041544Y-64926784D01*
X119973624Y-64762812D01*
X119939000Y-64588741D01*
X119939000Y-64411259D01*
X119973624Y-64237188D01*
X120041544Y-64073216D01*
X120140147Y-63925646D01*
X120265646Y-63800147D01*
X120413216Y-63701544D01*
X120577188Y-63633624D01*
X120726488Y-63603927D01*
X120751258Y-63599000D01*
X120928742Y-63599000D01*
X120953512Y-63603927D01*
G37*
G36*
X118413512Y-63603927D02*
G01*
X118562812Y-63633624D01*
X118726784Y-63701544D01*
X118874354Y-63800147D01*
X118999853Y-63925646D01*
X119098456Y-64073216D01*
X119166376Y-64237188D01*
X119201000Y-64411259D01*
X119201000Y-64588741D01*
X119166376Y-64762812D01*
X119098456Y-64926784D01*
X118999853Y-65074354D01*
X118874354Y-65199853D01*
X118726784Y-65298456D01*
X118562812Y-65366376D01*
X118413512Y-65396073D01*
X118388742Y-65401000D01*
X118211258Y-65401000D01*
X118186488Y-65396073D01*
X118037188Y-65366376D01*
X117873216Y-65298456D01*
X117725646Y-65199853D01*
X117600147Y-65074354D01*
X117501544Y-64926784D01*
X117433624Y-64762812D01*
X117399000Y-64588741D01*
X117399000Y-64411259D01*
X117433624Y-64237188D01*
X117501544Y-64073216D01*
X117600147Y-63925646D01*
X117725646Y-63800147D01*
X117873216Y-63701544D01*
X118037188Y-63633624D01*
X118186488Y-63603927D01*
X118211258Y-63599000D01*
X118388742Y-63599000D01*
X118413512Y-63603927D01*
G37*
G36*
X131113512Y-61063927D02*
G01*
X131262812Y-61093624D01*
X131426784Y-61161544D01*
X131574354Y-61260147D01*
X131699853Y-61385646D01*
X131798456Y-61533216D01*
X131866376Y-61697188D01*
X131901000Y-61871259D01*
X131901000Y-62048741D01*
X131866376Y-62222812D01*
X131798456Y-62386784D01*
X131699853Y-62534354D01*
X131574354Y-62659853D01*
X131426784Y-62758456D01*
X131262812Y-62826376D01*
X131113512Y-62856073D01*
X131088742Y-62861000D01*
X130911258Y-62861000D01*
X130886488Y-62856073D01*
X130737188Y-62826376D01*
X130573216Y-62758456D01*
X130425646Y-62659853D01*
X130300147Y-62534354D01*
X130201544Y-62386784D01*
X130133624Y-62222812D01*
X130099000Y-62048741D01*
X130099000Y-61871259D01*
X130133624Y-61697188D01*
X130201544Y-61533216D01*
X130300147Y-61385646D01*
X130425646Y-61260147D01*
X130573216Y-61161544D01*
X130737188Y-61093624D01*
X130886488Y-61063927D01*
X130911258Y-61059000D01*
X131088742Y-61059000D01*
X131113512Y-61063927D01*
G37*
G36*
X128573512Y-61063927D02*
G01*
X128722812Y-61093624D01*
X128886784Y-61161544D01*
X129034354Y-61260147D01*
X129159853Y-61385646D01*
X129258456Y-61533216D01*
X129326376Y-61697188D01*
X129361000Y-61871259D01*
X129361000Y-62048741D01*
X129326376Y-62222812D01*
X129258456Y-62386784D01*
X129159853Y-62534354D01*
X129034354Y-62659853D01*
X128886784Y-62758456D01*
X128722812Y-62826376D01*
X128573512Y-62856073D01*
X128548742Y-62861000D01*
X128371258Y-62861000D01*
X128346488Y-62856073D01*
X128197188Y-62826376D01*
X128033216Y-62758456D01*
X127885646Y-62659853D01*
X127760147Y-62534354D01*
X127661544Y-62386784D01*
X127593624Y-62222812D01*
X127559000Y-62048741D01*
X127559000Y-61871259D01*
X127593624Y-61697188D01*
X127661544Y-61533216D01*
X127760147Y-61385646D01*
X127885646Y-61260147D01*
X128033216Y-61161544D01*
X128197188Y-61093624D01*
X128346488Y-61063927D01*
X128371258Y-61059000D01*
X128548742Y-61059000D01*
X128573512Y-61063927D01*
G37*
G36*
X126033512Y-61063927D02*
G01*
X126182812Y-61093624D01*
X126346784Y-61161544D01*
X126494354Y-61260147D01*
X126619853Y-61385646D01*
X126718456Y-61533216D01*
X126786376Y-61697188D01*
X126821000Y-61871259D01*
X126821000Y-62048741D01*
X126786376Y-62222812D01*
X126718456Y-62386784D01*
X126619853Y-62534354D01*
X126494354Y-62659853D01*
X126346784Y-62758456D01*
X126182812Y-62826376D01*
X126033512Y-62856073D01*
X126008742Y-62861000D01*
X125831258Y-62861000D01*
X125806488Y-62856073D01*
X125657188Y-62826376D01*
X125493216Y-62758456D01*
X125345646Y-62659853D01*
X125220147Y-62534354D01*
X125121544Y-62386784D01*
X125053624Y-62222812D01*
X125019000Y-62048741D01*
X125019000Y-61871259D01*
X125053624Y-61697188D01*
X125121544Y-61533216D01*
X125220147Y-61385646D01*
X125345646Y-61260147D01*
X125493216Y-61161544D01*
X125657188Y-61093624D01*
X125806488Y-61063927D01*
X125831258Y-61059000D01*
X126008742Y-61059000D01*
X126033512Y-61063927D01*
G37*
G36*
X123493512Y-61063927D02*
G01*
X123642812Y-61093624D01*
X123806784Y-61161544D01*
X123954354Y-61260147D01*
X124079853Y-61385646D01*
X124178456Y-61533216D01*
X124246376Y-61697188D01*
X124281000Y-61871259D01*
X124281000Y-62048741D01*
X124246376Y-62222812D01*
X124178456Y-62386784D01*
X124079853Y-62534354D01*
X123954354Y-62659853D01*
X123806784Y-62758456D01*
X123642812Y-62826376D01*
X123493512Y-62856073D01*
X123468742Y-62861000D01*
X123291258Y-62861000D01*
X123266488Y-62856073D01*
X123117188Y-62826376D01*
X122953216Y-62758456D01*
X122805646Y-62659853D01*
X122680147Y-62534354D01*
X122581544Y-62386784D01*
X122513624Y-62222812D01*
X122479000Y-62048741D01*
X122479000Y-61871259D01*
X122513624Y-61697188D01*
X122581544Y-61533216D01*
X122680147Y-61385646D01*
X122805646Y-61260147D01*
X122953216Y-61161544D01*
X123117188Y-61093624D01*
X123266488Y-61063927D01*
X123291258Y-61059000D01*
X123468742Y-61059000D01*
X123493512Y-61063927D01*
G37*
G36*
X120953512Y-61063927D02*
G01*
X121102812Y-61093624D01*
X121266784Y-61161544D01*
X121414354Y-61260147D01*
X121539853Y-61385646D01*
X121638456Y-61533216D01*
X121706376Y-61697188D01*
X121741000Y-61871259D01*
X121741000Y-62048741D01*
X121706376Y-62222812D01*
X121638456Y-62386784D01*
X121539853Y-62534354D01*
X121414354Y-62659853D01*
X121266784Y-62758456D01*
X121102812Y-62826376D01*
X120953512Y-62856073D01*
X120928742Y-62861000D01*
X120751258Y-62861000D01*
X120726488Y-62856073D01*
X120577188Y-62826376D01*
X120413216Y-62758456D01*
X120265646Y-62659853D01*
X120140147Y-62534354D01*
X120041544Y-62386784D01*
X119973624Y-62222812D01*
X119939000Y-62048741D01*
X119939000Y-61871259D01*
X119973624Y-61697188D01*
X120041544Y-61533216D01*
X120140147Y-61385646D01*
X120265646Y-61260147D01*
X120413216Y-61161544D01*
X120577188Y-61093624D01*
X120726488Y-61063927D01*
X120751258Y-61059000D01*
X120928742Y-61059000D01*
X120953512Y-61063927D01*
G37*
G36*
X118413512Y-61063927D02*
G01*
X118562812Y-61093624D01*
X118726784Y-61161544D01*
X118874354Y-61260147D01*
X118999853Y-61385646D01*
X119098456Y-61533216D01*
X119166376Y-61697188D01*
X119201000Y-61871259D01*
X119201000Y-62048741D01*
X119166376Y-62222812D01*
X119098456Y-62386784D01*
X118999853Y-62534354D01*
X118874354Y-62659853D01*
X118726784Y-62758456D01*
X118562812Y-62826376D01*
X118413512Y-62856073D01*
X118388742Y-62861000D01*
X118211258Y-62861000D01*
X118186488Y-62856073D01*
X118037188Y-62826376D01*
X117873216Y-62758456D01*
X117725646Y-62659853D01*
X117600147Y-62534354D01*
X117501544Y-62386784D01*
X117433624Y-62222812D01*
X117399000Y-62048741D01*
X117399000Y-61871259D01*
X117433624Y-61697188D01*
X117501544Y-61533216D01*
X117600147Y-61385646D01*
X117725646Y-61260147D01*
X117873216Y-61161544D01*
X118037188Y-61093624D01*
X118186488Y-61063927D01*
X118211258Y-61059000D01*
X118388742Y-61059000D01*
X118413512Y-61063927D01*
G37*
G36*
X145806564Y-60489389D02*
G01*
X145997833Y-60568615D01*
X145997835Y-60568616D01*
X146169973Y-60683635D01*
X146316365Y-60830027D01*
X146431385Y-61002167D01*
X146510611Y-61193436D01*
X146551000Y-61396484D01*
X146551000Y-61603516D01*
X146510611Y-61806564D01*
X146431385Y-61997833D01*
X146431384Y-61997835D01*
X146316365Y-62169973D01*
X146169973Y-62316365D01*
X145997835Y-62431384D01*
X145997834Y-62431385D01*
X145997833Y-62431385D01*
X145806564Y-62510611D01*
X145603516Y-62551000D01*
X145396484Y-62551000D01*
X145193436Y-62510611D01*
X145002167Y-62431385D01*
X145002166Y-62431385D01*
X145002165Y-62431384D01*
X144830027Y-62316365D01*
X144683635Y-62169973D01*
X144568616Y-61997835D01*
X144568615Y-61997833D01*
X144489389Y-61806564D01*
X144449000Y-61603516D01*
X144449000Y-61396484D01*
X144489389Y-61193436D01*
X144568615Y-61002167D01*
X144683635Y-60830027D01*
X144830027Y-60683635D01*
X145002165Y-60568616D01*
X145002167Y-60568615D01*
X145193436Y-60489389D01*
X145396484Y-60449000D01*
X145603516Y-60449000D01*
X145806564Y-60489389D01*
G37*
G36*
X139306564Y-60489389D02*
G01*
X139497833Y-60568615D01*
X139497835Y-60568616D01*
X139669973Y-60683635D01*
X139816365Y-60830027D01*
X139931385Y-61002167D01*
X140010611Y-61193436D01*
X140051000Y-61396484D01*
X140051000Y-61603516D01*
X140010611Y-61806564D01*
X139931385Y-61997833D01*
X139931384Y-61997835D01*
X139816365Y-62169973D01*
X139669973Y-62316365D01*
X139497835Y-62431384D01*
X139497834Y-62431385D01*
X139497833Y-62431385D01*
X139306564Y-62510611D01*
X139103516Y-62551000D01*
X138896484Y-62551000D01*
X138693436Y-62510611D01*
X138502167Y-62431385D01*
X138502166Y-62431385D01*
X138502165Y-62431384D01*
X138330027Y-62316365D01*
X138183635Y-62169973D01*
X138068616Y-61997835D01*
X138068615Y-61997833D01*
X137989389Y-61806564D01*
X137949000Y-61603516D01*
X137949000Y-61396484D01*
X137989389Y-61193436D01*
X138068615Y-61002167D01*
X138183635Y-60830027D01*
X138330027Y-60683635D01*
X138502165Y-60568616D01*
X138502167Y-60568615D01*
X138693436Y-60489389D01*
X138896484Y-60449000D01*
X139103516Y-60449000D01*
X139306564Y-60489389D01*
G37*
G36*
X110306564Y-60489389D02*
G01*
X110497833Y-60568615D01*
X110497835Y-60568616D01*
X110669973Y-60683635D01*
X110816365Y-60830027D01*
X110931385Y-61002167D01*
X111010611Y-61193436D01*
X111051000Y-61396484D01*
X111051000Y-61603516D01*
X111010611Y-61806564D01*
X110931385Y-61997833D01*
X110931384Y-61997835D01*
X110816365Y-62169973D01*
X110669973Y-62316365D01*
X110497835Y-62431384D01*
X110497834Y-62431385D01*
X110497833Y-62431385D01*
X110306564Y-62510611D01*
X110103516Y-62551000D01*
X109896484Y-62551000D01*
X109693436Y-62510611D01*
X109502167Y-62431385D01*
X109502166Y-62431385D01*
X109502165Y-62431384D01*
X109330027Y-62316365D01*
X109183635Y-62169973D01*
X109068616Y-61997835D01*
X109068615Y-61997833D01*
X108989389Y-61806564D01*
X108949000Y-61603516D01*
X108949000Y-61396484D01*
X108989389Y-61193436D01*
X109068615Y-61002167D01*
X109183635Y-60830027D01*
X109330027Y-60683635D01*
X109502165Y-60568616D01*
X109502167Y-60568615D01*
X109693436Y-60489389D01*
X109896484Y-60449000D01*
X110103516Y-60449000D01*
X110306564Y-60489389D01*
G37*
G36*
X103806564Y-60489389D02*
G01*
X103997833Y-60568615D01*
X103997835Y-60568616D01*
X104169973Y-60683635D01*
X104316365Y-60830027D01*
X104431385Y-61002167D01*
X104510611Y-61193436D01*
X104551000Y-61396484D01*
X104551000Y-61603516D01*
X104510611Y-61806564D01*
X104431385Y-61997833D01*
X104431384Y-61997835D01*
X104316365Y-62169973D01*
X104169973Y-62316365D01*
X103997835Y-62431384D01*
X103997834Y-62431385D01*
X103997833Y-62431385D01*
X103806564Y-62510611D01*
X103603516Y-62551000D01*
X103396484Y-62551000D01*
X103193436Y-62510611D01*
X103002167Y-62431385D01*
X103002166Y-62431385D01*
X103002165Y-62431384D01*
X102830027Y-62316365D01*
X102683635Y-62169973D01*
X102568616Y-61997835D01*
X102568615Y-61997833D01*
X102489389Y-61806564D01*
X102449000Y-61603516D01*
X102449000Y-61396484D01*
X102489389Y-61193436D01*
X102568615Y-61002167D01*
X102683635Y-60830027D01*
X102830027Y-60683635D01*
X103002165Y-60568616D01*
X103002167Y-60568615D01*
X103193436Y-60489389D01*
X103396484Y-60449000D01*
X103603516Y-60449000D01*
X103806564Y-60489389D01*
G37*
M02*
