G04 #@! TF.GenerationSoftware,KiCad,Pcbnew,(5.1.5-0-10_14)*
G04 #@! TF.CreationDate,2020-08-02T20:19:12-07:00*
G04 #@! TF.ProjectId,Programmer_Board,50726f67-7261-46d6-9d65-725f426f6172,rev?*
G04 #@! TF.SameCoordinates,Original*
G04 #@! TF.FileFunction,Legend,Top*
G04 #@! TF.FilePolarity,Positive*
%FSLAX46Y46*%
G04 Gerber Fmt 4.6, Leading zero omitted, Abs format (unit mm)*
G04 Created by KiCad (PCBNEW (5.1.5-0-10_14)) date 2020-08-02 20:19:12*
%MOMM*%
%LPD*%
G04 APERTURE LIST*
%ADD10C,0.300000*%
%ADD11C,0.050000*%
%ADD12C,0.120000*%
G04 APERTURE END LIST*
D10*
X124678571Y-92178571D02*
X124678571Y-90678571D01*
X125035714Y-90678571D01*
X125250000Y-90750000D01*
X125392857Y-90892857D01*
X125464285Y-91035714D01*
X125535714Y-91321428D01*
X125535714Y-91535714D01*
X125464285Y-91821428D01*
X125392857Y-91964285D01*
X125250000Y-92107142D01*
X125035714Y-92178571D01*
X124678571Y-92178571D01*
X127035714Y-92178571D02*
X126535714Y-91464285D01*
X126178571Y-92178571D02*
X126178571Y-90678571D01*
X126750000Y-90678571D01*
X126892857Y-90750000D01*
X126964285Y-90821428D01*
X127035714Y-90964285D01*
X127035714Y-91178571D01*
X126964285Y-91321428D01*
X126892857Y-91392857D01*
X126750000Y-91464285D01*
X126178571Y-91464285D01*
X127678571Y-92178571D02*
X127678571Y-90678571D01*
X128178571Y-90678571D02*
X128678571Y-92178571D01*
X129178571Y-90678571D01*
X129678571Y-91392857D02*
X130178571Y-91392857D01*
X130392857Y-92178571D02*
X129678571Y-92178571D01*
X129678571Y-90678571D01*
X130392857Y-90678571D01*
X116928571Y-95107142D02*
X118071428Y-95107142D01*
X118714285Y-95607142D02*
X118928571Y-95678571D01*
X119285714Y-95678571D01*
X119428571Y-95607142D01*
X119500000Y-95535714D01*
X119571428Y-95392857D01*
X119571428Y-95250000D01*
X119500000Y-95107142D01*
X119428571Y-95035714D01*
X119285714Y-94964285D01*
X119000000Y-94892857D01*
X118857142Y-94821428D01*
X118785714Y-94750000D01*
X118714285Y-94607142D01*
X118714285Y-94464285D01*
X118785714Y-94321428D01*
X118857142Y-94250000D01*
X119000000Y-94178571D01*
X119357142Y-94178571D01*
X119571428Y-94250000D01*
X120214285Y-95678571D02*
X120214285Y-94678571D01*
X120214285Y-94178571D02*
X120142857Y-94250000D01*
X120214285Y-94321428D01*
X120285714Y-94250000D01*
X120214285Y-94178571D01*
X120214285Y-94321428D01*
X121571428Y-94678571D02*
X121571428Y-95892857D01*
X121500000Y-96035714D01*
X121428571Y-96107142D01*
X121285714Y-96178571D01*
X121071428Y-96178571D01*
X120928571Y-96107142D01*
X121571428Y-95607142D02*
X121428571Y-95678571D01*
X121142857Y-95678571D01*
X121000000Y-95607142D01*
X120928571Y-95535714D01*
X120857142Y-95392857D01*
X120857142Y-94964285D01*
X120928571Y-94821428D01*
X121000000Y-94750000D01*
X121142857Y-94678571D01*
X121428571Y-94678571D01*
X121571428Y-94750000D01*
X122285714Y-94678571D02*
X122285714Y-95678571D01*
X122285714Y-94821428D02*
X122357142Y-94750000D01*
X122500000Y-94678571D01*
X122714285Y-94678571D01*
X122857142Y-94750000D01*
X122928571Y-94892857D01*
X122928571Y-95678571D01*
X124285714Y-95678571D02*
X124285714Y-94892857D01*
X124214285Y-94750000D01*
X124071428Y-94678571D01*
X123785714Y-94678571D01*
X123642857Y-94750000D01*
X124285714Y-95607142D02*
X124142857Y-95678571D01*
X123785714Y-95678571D01*
X123642857Y-95607142D01*
X123571428Y-95464285D01*
X123571428Y-95321428D01*
X123642857Y-95178571D01*
X123785714Y-95107142D01*
X124142857Y-95107142D01*
X124285714Y-95035714D01*
X125214285Y-95678571D02*
X125071428Y-95607142D01*
X125000000Y-95464285D01*
X125000000Y-94178571D01*
X116928571Y-81107142D02*
X118071428Y-81107142D01*
X117500000Y-81678571D02*
X117500000Y-80535714D01*
X118714285Y-81607142D02*
X118928571Y-81678571D01*
X119285714Y-81678571D01*
X119428571Y-81607142D01*
X119500000Y-81535714D01*
X119571428Y-81392857D01*
X119571428Y-81250000D01*
X119500000Y-81107142D01*
X119428571Y-81035714D01*
X119285714Y-80964285D01*
X119000000Y-80892857D01*
X118857142Y-80821428D01*
X118785714Y-80750000D01*
X118714285Y-80607142D01*
X118714285Y-80464285D01*
X118785714Y-80321428D01*
X118857142Y-80250000D01*
X119000000Y-80178571D01*
X119357142Y-80178571D01*
X119571428Y-80250000D01*
X120214285Y-81678571D02*
X120214285Y-80678571D01*
X120214285Y-80178571D02*
X120142857Y-80250000D01*
X120214285Y-80321428D01*
X120285714Y-80250000D01*
X120214285Y-80178571D01*
X120214285Y-80321428D01*
X121571428Y-80678571D02*
X121571428Y-81892857D01*
X121500000Y-82035714D01*
X121428571Y-82107142D01*
X121285714Y-82178571D01*
X121071428Y-82178571D01*
X120928571Y-82107142D01*
X121571428Y-81607142D02*
X121428571Y-81678571D01*
X121142857Y-81678571D01*
X121000000Y-81607142D01*
X120928571Y-81535714D01*
X120857142Y-81392857D01*
X120857142Y-80964285D01*
X120928571Y-80821428D01*
X121000000Y-80750000D01*
X121142857Y-80678571D01*
X121428571Y-80678571D01*
X121571428Y-80750000D01*
X122285714Y-80678571D02*
X122285714Y-81678571D01*
X122285714Y-80821428D02*
X122357142Y-80750000D01*
X122500000Y-80678571D01*
X122714285Y-80678571D01*
X122857142Y-80750000D01*
X122928571Y-80892857D01*
X122928571Y-81678571D01*
X124285714Y-81678571D02*
X124285714Y-80892857D01*
X124214285Y-80750000D01*
X124071428Y-80678571D01*
X123785714Y-80678571D01*
X123642857Y-80750000D01*
X124285714Y-81607142D02*
X124142857Y-81678571D01*
X123785714Y-81678571D01*
X123642857Y-81607142D01*
X123571428Y-81464285D01*
X123571428Y-81321428D01*
X123642857Y-81178571D01*
X123785714Y-81107142D01*
X124142857Y-81107142D01*
X124285714Y-81035714D01*
X125214285Y-81678571D02*
X125071428Y-81607142D01*
X125000000Y-81464285D01*
X125000000Y-80178571D01*
D11*
X137000000Y-67000000D02*
X112000000Y-67000000D01*
X137000000Y-78000000D02*
X137000000Y-67000000D01*
X112000000Y-78000000D02*
X137000000Y-78000000D01*
X112000000Y-67000000D02*
X112000000Y-78000000D01*
D12*
X119500000Y-85700000D02*
X119000000Y-85700000D01*
X119500000Y-84300000D02*
X119000000Y-84300000D01*
X119500000Y-84300000D02*
X119500000Y-83700000D01*
X119500000Y-83700000D02*
X119700000Y-83500000D01*
X119700000Y-86500000D02*
X119500000Y-86500000D01*
X119500000Y-86500000D02*
X119500000Y-85700000D01*
X122500000Y-85700000D02*
X122500000Y-86500000D01*
X122500000Y-86500000D02*
X122300000Y-86500000D01*
X122300000Y-83500000D02*
X122500000Y-83500000D01*
X122500000Y-83500000D02*
X122500000Y-84300000D01*
X122500000Y-89500000D02*
X122500000Y-90300000D01*
X122300000Y-89500000D02*
X122500000Y-89500000D01*
X122500000Y-92500000D02*
X122300000Y-92500000D01*
X122500000Y-91700000D02*
X122500000Y-92500000D01*
X119500000Y-92500000D02*
X119500000Y-91700000D01*
X119700000Y-92500000D02*
X119500000Y-92500000D01*
X119500000Y-89700000D02*
X119700000Y-89500000D01*
X119500000Y-90300000D02*
X119500000Y-89700000D01*
X119500000Y-90300000D02*
X119000000Y-90300000D01*
X119500000Y-91700000D02*
X119000000Y-91700000D01*
X129500000Y-87300000D02*
X130000000Y-87300000D01*
X129500000Y-88700000D02*
X130000000Y-88700000D01*
X129500000Y-88700000D02*
X129500000Y-89300000D01*
X129500000Y-89300000D02*
X129300000Y-89500000D01*
X129300000Y-86500000D02*
X129500000Y-86500000D01*
X129500000Y-86500000D02*
X129500000Y-87300000D01*
X126500000Y-87300000D02*
X126500000Y-86500000D01*
X126500000Y-86500000D02*
X126700000Y-86500000D01*
X126700000Y-89500000D02*
X126500000Y-89500000D01*
X126500000Y-89500000D02*
X126500000Y-88700000D01*
M02*
