M48
; DRILL file {KiCad (5.1.5-0-10_14)} date Sunday, 02 August 2020 at 20:19:14
; FORMAT={-:-/ absolute / inch / decimal}
; #@! TF.CreationDate,2020-08-02T20:19:14-07:00
; #@! TF.GenerationSoftware,Kicad,Pcbnew,(5.1.5-0-10_14)
; #@! TF.FileFunction,Plated,1,2,PTH
FMAT,2
INCH
T1C0.0118
T2C0.0394
T3C0.0433
T4C0.0669
T5C0.1260
%
G90
G05
T1
X4.2854Y-3.6201
X4.5984Y-3.3307
X4.6496Y-2.7638
X4.6732Y-2.8386
X4.7559Y-2.622
X4.7874Y-2.9803
X4.8504Y-2.6496
X4.9331Y-2.7795
X5.0315Y-2.6654
X5.2283Y-3.5492
T2
X4.0913Y-3.1693
X4.1913Y-3.1693
X4.2913Y-3.1693
X4.6575Y-2.4394
X4.6575Y-2.5394
X4.7575Y-2.4394
X4.7575Y-2.5394
X4.8575Y-2.4394
X4.8575Y-2.5394
X4.9575Y-2.4394
X4.9575Y-2.5394
X5.0575Y-2.4394
X5.0575Y-2.5394
X5.1575Y-2.4394
X5.1575Y-2.5394
X5.6087Y-3.1693
X5.7087Y-3.1693
T3
X5.4724Y-2.4213
X5.4724Y-2.5984
X5.7283Y-2.4213
X5.7283Y-2.5984
X4.0748Y-2.4213
X4.0748Y-2.5984
X4.3307Y-2.4213
X4.3307Y-2.5984
T4
X5.1181Y-2.937
X4.5161Y-2.9693
T5
X5.6102Y-2.8543
X4.1929Y-2.8543
T0
M30
