G04 #@! TF.GenerationSoftware,KiCad,Pcbnew,(5.1.5-0-10_14)*
G04 #@! TF.CreationDate,2020-08-02T20:19:12-07:00*
G04 #@! TF.ProjectId,Programmer_Board,50726f67-7261-46d6-9d65-725f426f6172,rev?*
G04 #@! TF.SameCoordinates,Original*
G04 #@! TF.FileFunction,Copper,L1,Top*
G04 #@! TF.FilePolarity,Positive*
%FSLAX46Y46*%
G04 Gerber Fmt 4.6, Leading zero omitted, Abs format (unit mm)*
G04 Created by KiCad (PCBNEW (5.1.5-0-10_14)) date 2020-08-02 20:19:12*
%MOMM*%
%LPD*%
G04 APERTURE LIST*
%ADD10C,1.830000*%
%ADD11C,4.000000*%
%ADD12C,5.600000*%
%ADD13O,1.700000X1.700000*%
%ADD14R,1.700000X1.700000*%
%ADD15C,2.000000*%
%ADD16R,2.200000X1.050000*%
%ADD17R,1.000000X1.000000*%
%ADD18C,0.650000*%
%ADD19C,0.152400*%
%ADD20C,0.254000*%
G04 APERTURE END LIST*
D10*
X121940000Y-73040000D03*
X119650000Y-73960000D03*
X119400000Y-76200000D03*
D11*
X114710000Y-75420000D03*
X130000000Y-74600000D03*
D12*
X106500000Y-72500000D03*
X142500000Y-72500000D03*
D13*
X118300000Y-61960000D03*
X118300000Y-64500000D03*
X120840000Y-61960000D03*
X120840000Y-64500000D03*
X123380000Y-61960000D03*
X123380000Y-64500000D03*
X125920000Y-61960000D03*
X125920000Y-64500000D03*
X128460000Y-61960000D03*
X128460000Y-64500000D03*
X131000000Y-61960000D03*
D14*
X131000000Y-64500000D03*
D15*
X145500000Y-66000000D03*
X145500000Y-61500000D03*
X139000000Y-66000000D03*
X139000000Y-61500000D03*
X110000000Y-66000000D03*
X110000000Y-61500000D03*
X103500000Y-66000000D03*
X103500000Y-61500000D03*
D10*
X123620000Y-75140000D03*
X123910000Y-72600000D03*
D16*
X121000000Y-83525000D03*
X121000000Y-86475000D03*
D17*
X122500000Y-85000000D03*
X119500000Y-85000000D03*
X119500000Y-91000000D03*
X122500000Y-91000000D03*
D16*
X121000000Y-92475000D03*
X121000000Y-89525000D03*
X128000000Y-89475000D03*
X128000000Y-86525000D03*
D17*
X126500000Y-88000000D03*
X129500000Y-88000000D03*
D14*
X109000000Y-80500000D03*
D13*
X106460000Y-80500000D03*
X103920000Y-80500000D03*
D14*
X145000000Y-80500000D03*
D13*
X142460000Y-80500000D03*
D18*
X120800000Y-66600000D03*
X118100000Y-70200000D03*
X118700000Y-72100000D03*
X125300000Y-70600000D03*
X127800000Y-67700000D03*
X123200000Y-67300000D03*
X121600000Y-75700000D03*
X132800000Y-90150000D03*
X108850000Y-91950000D03*
X116800000Y-84600000D03*
D19*
X123620000Y-76434005D02*
X121954005Y-78100000D01*
X123620000Y-75140000D02*
X123620000Y-76434005D01*
X121954005Y-78100000D02*
X118300000Y-78100000D01*
X118300000Y-78100000D02*
X117300000Y-77100000D01*
X117300000Y-68040000D02*
X120840000Y-64500000D01*
X117300000Y-77100000D02*
X117300000Y-68040000D01*
X121940000Y-71020000D02*
X128460000Y-64500000D01*
X121940000Y-73040000D02*
X121940000Y-71020000D01*
X131000000Y-65502400D02*
X131000000Y-64500000D01*
X125204005Y-72600000D02*
X131000000Y-66804005D01*
X131000000Y-66804005D02*
X131000000Y-65502400D01*
X123910000Y-72600000D02*
X125204005Y-72600000D01*
X125920000Y-65780000D02*
X125920000Y-64500000D01*
X119650000Y-72050000D02*
X125920000Y-65780000D01*
X119650000Y-73960000D02*
X119650000Y-72050000D01*
X123380000Y-65920000D02*
X123380000Y-64500000D01*
X118100000Y-71200000D02*
X123380000Y-65920000D01*
X118100000Y-74900000D02*
X118100000Y-71200000D01*
X119400000Y-76200000D02*
X118100000Y-74900000D01*
X130650000Y-88000000D02*
X132800000Y-90150000D01*
X129500000Y-88000000D02*
X130650000Y-88000000D01*
X109800000Y-91000000D02*
X108850000Y-91950000D01*
X119500000Y-91000000D02*
X109800000Y-91000000D01*
X117200000Y-85000000D02*
X116800000Y-84600000D01*
X119500000Y-85000000D02*
X117200000Y-85000000D01*
D20*
G36*
X146873000Y-65130244D02*
G01*
X146635413Y-65044192D01*
X145679605Y-66000000D01*
X146635413Y-66955808D01*
X146873000Y-66869756D01*
X146873000Y-95873000D01*
X102127000Y-95873000D01*
X102127000Y-93000000D01*
X119261928Y-93000000D01*
X119274188Y-93124482D01*
X119310498Y-93244180D01*
X119369463Y-93354494D01*
X119448815Y-93451185D01*
X119545506Y-93530537D01*
X119655820Y-93589502D01*
X119775518Y-93625812D01*
X119900000Y-93638072D01*
X120714250Y-93635000D01*
X120873000Y-93476250D01*
X120873000Y-92602000D01*
X121127000Y-92602000D01*
X121127000Y-93476250D01*
X121285750Y-93635000D01*
X122100000Y-93638072D01*
X122224482Y-93625812D01*
X122344180Y-93589502D01*
X122454494Y-93530537D01*
X122551185Y-93451185D01*
X122630537Y-93354494D01*
X122689502Y-93244180D01*
X122725812Y-93124482D01*
X122738072Y-93000000D01*
X122735000Y-92760750D01*
X122576250Y-92602000D01*
X121127000Y-92602000D01*
X120873000Y-92602000D01*
X119423750Y-92602000D01*
X119265000Y-92760750D01*
X119261928Y-93000000D01*
X102127000Y-93000000D01*
X102127000Y-91890472D01*
X108245600Y-91890472D01*
X108245600Y-92009528D01*
X108268827Y-92126297D01*
X108314388Y-92236291D01*
X108380532Y-92335282D01*
X108464718Y-92419468D01*
X108563709Y-92485612D01*
X108673703Y-92531173D01*
X108790472Y-92554400D01*
X108909528Y-92554400D01*
X109026297Y-92531173D01*
X109136291Y-92485612D01*
X109235282Y-92419468D01*
X109319468Y-92335282D01*
X109385612Y-92236291D01*
X109431173Y-92126297D01*
X109454400Y-92009528D01*
X109454400Y-91890472D01*
X109447435Y-91855458D01*
X109947294Y-91355600D01*
X118719249Y-91355600D01*
X118719249Y-91500000D01*
X118724644Y-91554772D01*
X118740620Y-91607439D01*
X118766564Y-91655977D01*
X118801479Y-91698521D01*
X118844023Y-91733436D01*
X118892561Y-91759380D01*
X118945228Y-91775356D01*
X119000000Y-91780751D01*
X119287768Y-91780751D01*
X119274188Y-91825518D01*
X119261928Y-91950000D01*
X119265000Y-92189250D01*
X119423750Y-92348000D01*
X120873000Y-92348000D01*
X120873000Y-91473750D01*
X121127000Y-91473750D01*
X121127000Y-92348000D01*
X122576250Y-92348000D01*
X122735000Y-92189250D01*
X122736331Y-92085581D01*
X122785750Y-92135000D01*
X123000000Y-92138072D01*
X123124482Y-92125812D01*
X123244180Y-92089502D01*
X123354494Y-92030537D01*
X123451185Y-91951185D01*
X123530537Y-91854494D01*
X123589502Y-91744180D01*
X123625812Y-91624482D01*
X123638072Y-91500000D01*
X123635000Y-91285750D01*
X123476250Y-91127000D01*
X122627000Y-91127000D01*
X122627000Y-91147000D01*
X122373000Y-91147000D01*
X122373000Y-91127000D01*
X121523750Y-91127000D01*
X121365000Y-91285750D01*
X121364585Y-91314703D01*
X121285750Y-91315000D01*
X121127000Y-91473750D01*
X120873000Y-91473750D01*
X120714250Y-91315000D01*
X120280751Y-91313364D01*
X120280751Y-90686636D01*
X120714250Y-90685000D01*
X120873000Y-90526250D01*
X120873000Y-89652000D01*
X121127000Y-89652000D01*
X121127000Y-90526250D01*
X121285750Y-90685000D01*
X121364585Y-90685297D01*
X121365000Y-90714250D01*
X121523750Y-90873000D01*
X122373000Y-90873000D01*
X122373000Y-90853000D01*
X122627000Y-90853000D01*
X122627000Y-90873000D01*
X123476250Y-90873000D01*
X123635000Y-90714250D01*
X123638072Y-90500000D01*
X123625812Y-90375518D01*
X123589502Y-90255820D01*
X123530537Y-90145506D01*
X123451185Y-90048815D01*
X123391704Y-90000000D01*
X126261928Y-90000000D01*
X126274188Y-90124482D01*
X126310498Y-90244180D01*
X126369463Y-90354494D01*
X126448815Y-90451185D01*
X126545506Y-90530537D01*
X126655820Y-90589502D01*
X126775518Y-90625812D01*
X126900000Y-90638072D01*
X127714250Y-90635000D01*
X127873000Y-90476250D01*
X127873000Y-89602000D01*
X128127000Y-89602000D01*
X128127000Y-90476250D01*
X128285750Y-90635000D01*
X129100000Y-90638072D01*
X129224482Y-90625812D01*
X129344180Y-90589502D01*
X129454494Y-90530537D01*
X129551185Y-90451185D01*
X129630537Y-90354494D01*
X129689502Y-90244180D01*
X129725812Y-90124482D01*
X129738072Y-90000000D01*
X129735000Y-89760750D01*
X129576250Y-89602000D01*
X128127000Y-89602000D01*
X127873000Y-89602000D01*
X126423750Y-89602000D01*
X126265000Y-89760750D01*
X126261928Y-90000000D01*
X123391704Y-90000000D01*
X123354494Y-89969463D01*
X123244180Y-89910498D01*
X123124482Y-89874188D01*
X123000000Y-89861928D01*
X122785750Y-89865000D01*
X122736331Y-89914419D01*
X122735000Y-89810750D01*
X122576250Y-89652000D01*
X121127000Y-89652000D01*
X120873000Y-89652000D01*
X119423750Y-89652000D01*
X119265000Y-89810750D01*
X119261928Y-90050000D01*
X119274188Y-90174482D01*
X119287768Y-90219249D01*
X119000000Y-90219249D01*
X118945228Y-90224644D01*
X118892561Y-90240620D01*
X118844023Y-90266564D01*
X118801479Y-90301479D01*
X118766564Y-90344023D01*
X118740620Y-90392561D01*
X118724644Y-90445228D01*
X118719249Y-90500000D01*
X118719249Y-90644400D01*
X109817455Y-90644400D01*
X109800000Y-90642681D01*
X109782544Y-90644400D01*
X109782537Y-90644400D01*
X109736566Y-90648928D01*
X109730289Y-90649546D01*
X109709956Y-90655714D01*
X109663260Y-90669879D01*
X109601484Y-90702899D01*
X109547337Y-90747337D01*
X109536206Y-90760900D01*
X108944542Y-91352565D01*
X108909528Y-91345600D01*
X108790472Y-91345600D01*
X108673703Y-91368827D01*
X108563709Y-91414388D01*
X108464718Y-91480532D01*
X108380532Y-91564718D01*
X108314388Y-91663709D01*
X108268827Y-91773703D01*
X108245600Y-91890472D01*
X102127000Y-91890472D01*
X102127000Y-87888764D01*
X104370600Y-87888764D01*
X104370600Y-88111236D01*
X104414002Y-88329434D01*
X104499138Y-88534972D01*
X104622737Y-88719951D01*
X104780049Y-88877263D01*
X104965028Y-89000862D01*
X105170566Y-89085998D01*
X105388764Y-89129400D01*
X105611236Y-89129400D01*
X105829434Y-89085998D01*
X106034972Y-89000862D01*
X106219951Y-88877263D01*
X106377263Y-88719951D01*
X106500862Y-88534972D01*
X106585998Y-88329434D01*
X106629400Y-88111236D01*
X106629400Y-87888764D01*
X111370600Y-87888764D01*
X111370600Y-88111236D01*
X111414002Y-88329434D01*
X111499138Y-88534972D01*
X111622737Y-88719951D01*
X111780049Y-88877263D01*
X111965028Y-89000862D01*
X112170566Y-89085998D01*
X112388764Y-89129400D01*
X112611236Y-89129400D01*
X112829434Y-89085998D01*
X113034972Y-89000862D01*
X113036262Y-89000000D01*
X119261928Y-89000000D01*
X119265000Y-89239250D01*
X119423750Y-89398000D01*
X120873000Y-89398000D01*
X120873000Y-88523750D01*
X121127000Y-88523750D01*
X121127000Y-89398000D01*
X122576250Y-89398000D01*
X122735000Y-89239250D01*
X122738072Y-89000000D01*
X122725812Y-88875518D01*
X122689502Y-88755820D01*
X122630537Y-88645506D01*
X122551185Y-88548815D01*
X122491704Y-88500000D01*
X125361928Y-88500000D01*
X125374188Y-88624482D01*
X125410498Y-88744180D01*
X125469463Y-88854494D01*
X125548815Y-88951185D01*
X125645506Y-89030537D01*
X125755820Y-89089502D01*
X125875518Y-89125812D01*
X126000000Y-89138072D01*
X126214250Y-89135000D01*
X126263669Y-89085581D01*
X126265000Y-89189250D01*
X126423750Y-89348000D01*
X127873000Y-89348000D01*
X127873000Y-88473750D01*
X127714250Y-88315000D01*
X127635415Y-88314703D01*
X127635000Y-88285750D01*
X127476250Y-88127000D01*
X126627000Y-88127000D01*
X126627000Y-88147000D01*
X126373000Y-88147000D01*
X126373000Y-88127000D01*
X125523750Y-88127000D01*
X125365000Y-88285750D01*
X125361928Y-88500000D01*
X122491704Y-88500000D01*
X122454494Y-88469463D01*
X122344180Y-88410498D01*
X122224482Y-88374188D01*
X122100000Y-88361928D01*
X121285750Y-88365000D01*
X121127000Y-88523750D01*
X120873000Y-88523750D01*
X120714250Y-88365000D01*
X119900000Y-88361928D01*
X119775518Y-88374188D01*
X119655820Y-88410498D01*
X119545506Y-88469463D01*
X119448815Y-88548815D01*
X119369463Y-88645506D01*
X119310498Y-88755820D01*
X119274188Y-88875518D01*
X119261928Y-89000000D01*
X113036262Y-89000000D01*
X113219951Y-88877263D01*
X113377263Y-88719951D01*
X113500862Y-88534972D01*
X113585998Y-88329434D01*
X113629400Y-88111236D01*
X113629400Y-87888764D01*
X113585998Y-87670566D01*
X113500862Y-87465028D01*
X113377263Y-87280049D01*
X113219951Y-87122737D01*
X113036263Y-87000000D01*
X119261928Y-87000000D01*
X119274188Y-87124482D01*
X119310498Y-87244180D01*
X119369463Y-87354494D01*
X119448815Y-87451185D01*
X119545506Y-87530537D01*
X119655820Y-87589502D01*
X119775518Y-87625812D01*
X119900000Y-87638072D01*
X120714250Y-87635000D01*
X120873000Y-87476250D01*
X120873000Y-86602000D01*
X121127000Y-86602000D01*
X121127000Y-87476250D01*
X121285750Y-87635000D01*
X122100000Y-87638072D01*
X122224482Y-87625812D01*
X122344180Y-87589502D01*
X122454494Y-87530537D01*
X122491703Y-87500000D01*
X125361928Y-87500000D01*
X125365000Y-87714250D01*
X125523750Y-87873000D01*
X126373000Y-87873000D01*
X126373000Y-87853000D01*
X126627000Y-87853000D01*
X126627000Y-87873000D01*
X127476250Y-87873000D01*
X127635000Y-87714250D01*
X127635415Y-87685297D01*
X127714250Y-87685000D01*
X127873000Y-87526250D01*
X127873000Y-86652000D01*
X128127000Y-86652000D01*
X128127000Y-87526250D01*
X128285750Y-87685000D01*
X128719249Y-87686636D01*
X128719249Y-88313364D01*
X128285750Y-88315000D01*
X128127000Y-88473750D01*
X128127000Y-89348000D01*
X129576250Y-89348000D01*
X129735000Y-89189250D01*
X129738072Y-88950000D01*
X129725812Y-88825518D01*
X129712232Y-88780751D01*
X130000000Y-88780751D01*
X130054772Y-88775356D01*
X130107439Y-88759380D01*
X130155977Y-88733436D01*
X130198521Y-88698521D01*
X130233436Y-88655977D01*
X130259380Y-88607439D01*
X130275356Y-88554772D01*
X130280751Y-88500000D01*
X130280751Y-88355600D01*
X130502707Y-88355600D01*
X132202565Y-90055459D01*
X132195600Y-90090472D01*
X132195600Y-90209528D01*
X132218827Y-90326297D01*
X132264388Y-90436291D01*
X132330532Y-90535282D01*
X132414718Y-90619468D01*
X132513709Y-90685612D01*
X132623703Y-90731173D01*
X132740472Y-90754400D01*
X132859528Y-90754400D01*
X132976297Y-90731173D01*
X133086291Y-90685612D01*
X133185282Y-90619468D01*
X133269468Y-90535282D01*
X133335612Y-90436291D01*
X133381173Y-90326297D01*
X133404400Y-90209528D01*
X133404400Y-90090472D01*
X133381173Y-89973703D01*
X133335612Y-89863709D01*
X133269468Y-89764718D01*
X133185282Y-89680532D01*
X133086291Y-89614388D01*
X132976297Y-89568827D01*
X132859528Y-89545600D01*
X132740472Y-89545600D01*
X132705459Y-89552565D01*
X131041658Y-87888764D01*
X135370600Y-87888764D01*
X135370600Y-88111236D01*
X135414002Y-88329434D01*
X135499138Y-88534972D01*
X135622737Y-88719951D01*
X135780049Y-88877263D01*
X135965028Y-89000862D01*
X136170566Y-89085998D01*
X136388764Y-89129400D01*
X136611236Y-89129400D01*
X136829434Y-89085998D01*
X137034972Y-89000862D01*
X137219951Y-88877263D01*
X137377263Y-88719951D01*
X137500862Y-88534972D01*
X137585998Y-88329434D01*
X137629400Y-88111236D01*
X137629400Y-87888764D01*
X142370600Y-87888764D01*
X142370600Y-88111236D01*
X142414002Y-88329434D01*
X142499138Y-88534972D01*
X142622737Y-88719951D01*
X142780049Y-88877263D01*
X142965028Y-89000862D01*
X143170566Y-89085998D01*
X143388764Y-89129400D01*
X143611236Y-89129400D01*
X143829434Y-89085998D01*
X144034972Y-89000862D01*
X144219951Y-88877263D01*
X144377263Y-88719951D01*
X144500862Y-88534972D01*
X144585998Y-88329434D01*
X144629400Y-88111236D01*
X144629400Y-87888764D01*
X144585998Y-87670566D01*
X144500862Y-87465028D01*
X144377263Y-87280049D01*
X144219951Y-87122737D01*
X144034972Y-86999138D01*
X143829434Y-86914002D01*
X143611236Y-86870600D01*
X143388764Y-86870600D01*
X143170566Y-86914002D01*
X142965028Y-86999138D01*
X142780049Y-87122737D01*
X142622737Y-87280049D01*
X142499138Y-87465028D01*
X142414002Y-87670566D01*
X142370600Y-87888764D01*
X137629400Y-87888764D01*
X137585998Y-87670566D01*
X137500862Y-87465028D01*
X137377263Y-87280049D01*
X137219951Y-87122737D01*
X137034972Y-86999138D01*
X136829434Y-86914002D01*
X136611236Y-86870600D01*
X136388764Y-86870600D01*
X136170566Y-86914002D01*
X135965028Y-86999138D01*
X135780049Y-87122737D01*
X135622737Y-87280049D01*
X135499138Y-87465028D01*
X135414002Y-87670566D01*
X135370600Y-87888764D01*
X131041658Y-87888764D01*
X130913799Y-87760906D01*
X130902663Y-87747337D01*
X130848516Y-87702899D01*
X130786740Y-87669879D01*
X130719710Y-87649546D01*
X130667463Y-87644400D01*
X130667455Y-87644400D01*
X130650000Y-87642681D01*
X130632545Y-87644400D01*
X130280751Y-87644400D01*
X130280751Y-87500000D01*
X130275356Y-87445228D01*
X130259380Y-87392561D01*
X130233436Y-87344023D01*
X130198521Y-87301479D01*
X130155977Y-87266564D01*
X130107439Y-87240620D01*
X130054772Y-87224644D01*
X130000000Y-87219249D01*
X129712232Y-87219249D01*
X129725812Y-87174482D01*
X129738072Y-87050000D01*
X129735000Y-86810750D01*
X129576250Y-86652000D01*
X128127000Y-86652000D01*
X127873000Y-86652000D01*
X126423750Y-86652000D01*
X126265000Y-86810750D01*
X126263669Y-86914419D01*
X126214250Y-86865000D01*
X126000000Y-86861928D01*
X125875518Y-86874188D01*
X125755820Y-86910498D01*
X125645506Y-86969463D01*
X125548815Y-87048815D01*
X125469463Y-87145506D01*
X125410498Y-87255820D01*
X125374188Y-87375518D01*
X125361928Y-87500000D01*
X122491703Y-87500000D01*
X122551185Y-87451185D01*
X122630537Y-87354494D01*
X122689502Y-87244180D01*
X122725812Y-87124482D01*
X122738072Y-87000000D01*
X122735000Y-86760750D01*
X122576250Y-86602000D01*
X121127000Y-86602000D01*
X120873000Y-86602000D01*
X119423750Y-86602000D01*
X119265000Y-86760750D01*
X119261928Y-87000000D01*
X113036263Y-87000000D01*
X113034972Y-86999138D01*
X112829434Y-86914002D01*
X112611236Y-86870600D01*
X112388764Y-86870600D01*
X112170566Y-86914002D01*
X111965028Y-86999138D01*
X111780049Y-87122737D01*
X111622737Y-87280049D01*
X111499138Y-87465028D01*
X111414002Y-87670566D01*
X111370600Y-87888764D01*
X106629400Y-87888764D01*
X106585998Y-87670566D01*
X106500862Y-87465028D01*
X106377263Y-87280049D01*
X106219951Y-87122737D01*
X106034972Y-86999138D01*
X105829434Y-86914002D01*
X105611236Y-86870600D01*
X105388764Y-86870600D01*
X105170566Y-86914002D01*
X104965028Y-86999138D01*
X104780049Y-87122737D01*
X104622737Y-87280049D01*
X104499138Y-87465028D01*
X104414002Y-87670566D01*
X104370600Y-87888764D01*
X102127000Y-87888764D01*
X102127000Y-84540472D01*
X116195600Y-84540472D01*
X116195600Y-84659528D01*
X116218827Y-84776297D01*
X116264388Y-84886291D01*
X116330532Y-84985282D01*
X116414718Y-85069468D01*
X116513709Y-85135612D01*
X116623703Y-85181173D01*
X116740472Y-85204400D01*
X116859528Y-85204400D01*
X116894541Y-85197435D01*
X116936210Y-85239105D01*
X116947337Y-85252663D01*
X116960895Y-85263790D01*
X116960900Y-85263795D01*
X116987653Y-85285750D01*
X117001484Y-85297101D01*
X117063260Y-85330121D01*
X117130290Y-85350454D01*
X117182537Y-85355600D01*
X117182546Y-85355600D01*
X117199999Y-85357319D01*
X117217452Y-85355600D01*
X118719249Y-85355600D01*
X118719249Y-85500000D01*
X118724644Y-85554772D01*
X118740620Y-85607439D01*
X118766564Y-85655977D01*
X118801479Y-85698521D01*
X118844023Y-85733436D01*
X118892561Y-85759380D01*
X118945228Y-85775356D01*
X119000000Y-85780751D01*
X119287768Y-85780751D01*
X119274188Y-85825518D01*
X119261928Y-85950000D01*
X119265000Y-86189250D01*
X119423750Y-86348000D01*
X120873000Y-86348000D01*
X120873000Y-85473750D01*
X121127000Y-85473750D01*
X121127000Y-86348000D01*
X122576250Y-86348000D01*
X122735000Y-86189250D01*
X122736331Y-86085581D01*
X122785750Y-86135000D01*
X123000000Y-86138072D01*
X123124482Y-86125812D01*
X123244180Y-86089502D01*
X123354494Y-86030537D01*
X123391703Y-86000000D01*
X126261928Y-86000000D01*
X126265000Y-86239250D01*
X126423750Y-86398000D01*
X127873000Y-86398000D01*
X127873000Y-85523750D01*
X128127000Y-85523750D01*
X128127000Y-86398000D01*
X129576250Y-86398000D01*
X129735000Y-86239250D01*
X129738072Y-86000000D01*
X129725812Y-85875518D01*
X129689502Y-85755820D01*
X129630537Y-85645506D01*
X129551185Y-85548815D01*
X129454494Y-85469463D01*
X129344180Y-85410498D01*
X129224482Y-85374188D01*
X129100000Y-85361928D01*
X128285750Y-85365000D01*
X128127000Y-85523750D01*
X127873000Y-85523750D01*
X127714250Y-85365000D01*
X126900000Y-85361928D01*
X126775518Y-85374188D01*
X126655820Y-85410498D01*
X126545506Y-85469463D01*
X126448815Y-85548815D01*
X126369463Y-85645506D01*
X126310498Y-85755820D01*
X126274188Y-85875518D01*
X126261928Y-86000000D01*
X123391703Y-86000000D01*
X123451185Y-85951185D01*
X123530537Y-85854494D01*
X123589502Y-85744180D01*
X123625812Y-85624482D01*
X123638072Y-85500000D01*
X123635000Y-85285750D01*
X123476250Y-85127000D01*
X122627000Y-85127000D01*
X122627000Y-85147000D01*
X122373000Y-85147000D01*
X122373000Y-85127000D01*
X121523750Y-85127000D01*
X121365000Y-85285750D01*
X121364585Y-85314703D01*
X121285750Y-85315000D01*
X121127000Y-85473750D01*
X120873000Y-85473750D01*
X120714250Y-85315000D01*
X120280751Y-85313364D01*
X120280751Y-84686636D01*
X120714250Y-84685000D01*
X120873000Y-84526250D01*
X120873000Y-83652000D01*
X121127000Y-83652000D01*
X121127000Y-84526250D01*
X121285750Y-84685000D01*
X121364585Y-84685297D01*
X121365000Y-84714250D01*
X121523750Y-84873000D01*
X122373000Y-84873000D01*
X122373000Y-84853000D01*
X122627000Y-84853000D01*
X122627000Y-84873000D01*
X123476250Y-84873000D01*
X123635000Y-84714250D01*
X123638072Y-84500000D01*
X123625812Y-84375518D01*
X123589502Y-84255820D01*
X123530537Y-84145506D01*
X123451185Y-84048815D01*
X123354494Y-83969463D01*
X123244180Y-83910498D01*
X123124482Y-83874188D01*
X123000000Y-83861928D01*
X122785750Y-83865000D01*
X122736331Y-83914419D01*
X122735000Y-83810750D01*
X122576250Y-83652000D01*
X121127000Y-83652000D01*
X120873000Y-83652000D01*
X119423750Y-83652000D01*
X119265000Y-83810750D01*
X119261928Y-84050000D01*
X119274188Y-84174482D01*
X119287768Y-84219249D01*
X119000000Y-84219249D01*
X118945228Y-84224644D01*
X118892561Y-84240620D01*
X118844023Y-84266564D01*
X118801479Y-84301479D01*
X118766564Y-84344023D01*
X118740620Y-84392561D01*
X118724644Y-84445228D01*
X118719249Y-84500000D01*
X118719249Y-84644400D01*
X117404400Y-84644400D01*
X117404400Y-84540472D01*
X117381173Y-84423703D01*
X117335612Y-84313709D01*
X117269468Y-84214718D01*
X117185282Y-84130532D01*
X117086291Y-84064388D01*
X116976297Y-84018827D01*
X116859528Y-83995600D01*
X116740472Y-83995600D01*
X116623703Y-84018827D01*
X116513709Y-84064388D01*
X116414718Y-84130532D01*
X116330532Y-84214718D01*
X116264388Y-84313709D01*
X116218827Y-84423703D01*
X116195600Y-84540472D01*
X102127000Y-84540472D01*
X102127000Y-83000000D01*
X119261928Y-83000000D01*
X119265000Y-83239250D01*
X119423750Y-83398000D01*
X120873000Y-83398000D01*
X120873000Y-82523750D01*
X121127000Y-82523750D01*
X121127000Y-83398000D01*
X122576250Y-83398000D01*
X122735000Y-83239250D01*
X122738072Y-83000000D01*
X122725812Y-82875518D01*
X122689502Y-82755820D01*
X122630537Y-82645506D01*
X122551185Y-82548815D01*
X122454494Y-82469463D01*
X122344180Y-82410498D01*
X122224482Y-82374188D01*
X122100000Y-82361928D01*
X121285750Y-82365000D01*
X121127000Y-82523750D01*
X120873000Y-82523750D01*
X120714250Y-82365000D01*
X119900000Y-82361928D01*
X119775518Y-82374188D01*
X119655820Y-82410498D01*
X119545506Y-82469463D01*
X119448815Y-82548815D01*
X119369463Y-82645506D01*
X119310498Y-82755820D01*
X119274188Y-82875518D01*
X119261928Y-83000000D01*
X102127000Y-83000000D01*
X102127000Y-80388764D01*
X102790600Y-80388764D01*
X102790600Y-80611236D01*
X102834002Y-80829434D01*
X102919138Y-81034972D01*
X103042737Y-81219951D01*
X103200049Y-81377263D01*
X103385028Y-81500862D01*
X103590566Y-81585998D01*
X103808764Y-81629400D01*
X104031236Y-81629400D01*
X104249434Y-81585998D01*
X104454972Y-81500862D01*
X104639951Y-81377263D01*
X104797263Y-81219951D01*
X104920862Y-81034972D01*
X105005998Y-80829434D01*
X105049400Y-80611236D01*
X105049400Y-80388764D01*
X105330600Y-80388764D01*
X105330600Y-80611236D01*
X105374002Y-80829434D01*
X105459138Y-81034972D01*
X105582737Y-81219951D01*
X105740049Y-81377263D01*
X105925028Y-81500862D01*
X106130566Y-81585998D01*
X106348764Y-81629400D01*
X106571236Y-81629400D01*
X106789434Y-81585998D01*
X106994972Y-81500862D01*
X107179951Y-81377263D01*
X107337263Y-81219951D01*
X107460862Y-81034972D01*
X107514346Y-80905849D01*
X107511928Y-81350000D01*
X107524188Y-81474482D01*
X107560498Y-81594180D01*
X107619463Y-81704494D01*
X107698815Y-81801185D01*
X107795506Y-81880537D01*
X107905820Y-81939502D01*
X108025518Y-81975812D01*
X108150000Y-81988072D01*
X108714250Y-81985000D01*
X108873000Y-81826250D01*
X108873000Y-80627000D01*
X109127000Y-80627000D01*
X109127000Y-81826250D01*
X109285750Y-81985000D01*
X109850000Y-81988072D01*
X109974482Y-81975812D01*
X110094180Y-81939502D01*
X110204494Y-81880537D01*
X110301185Y-81801185D01*
X110380537Y-81704494D01*
X110439502Y-81594180D01*
X110475812Y-81474482D01*
X110488072Y-81350000D01*
X110485000Y-80785750D01*
X110326250Y-80627000D01*
X109127000Y-80627000D01*
X108873000Y-80627000D01*
X108853000Y-80627000D01*
X108853000Y-80388764D01*
X141330600Y-80388764D01*
X141330600Y-80611236D01*
X141374002Y-80829434D01*
X141459138Y-81034972D01*
X141582737Y-81219951D01*
X141740049Y-81377263D01*
X141925028Y-81500862D01*
X142130566Y-81585998D01*
X142348764Y-81629400D01*
X142571236Y-81629400D01*
X142789434Y-81585998D01*
X142994972Y-81500862D01*
X143179951Y-81377263D01*
X143337263Y-81219951D01*
X143460862Y-81034972D01*
X143514346Y-80905849D01*
X143511928Y-81350000D01*
X143524188Y-81474482D01*
X143560498Y-81594180D01*
X143619463Y-81704494D01*
X143698815Y-81801185D01*
X143795506Y-81880537D01*
X143905820Y-81939502D01*
X144025518Y-81975812D01*
X144150000Y-81988072D01*
X144714250Y-81985000D01*
X144873000Y-81826250D01*
X144873000Y-80627000D01*
X145127000Y-80627000D01*
X145127000Y-81826250D01*
X145285750Y-81985000D01*
X145850000Y-81988072D01*
X145974482Y-81975812D01*
X146094180Y-81939502D01*
X146204494Y-81880537D01*
X146301185Y-81801185D01*
X146380537Y-81704494D01*
X146439502Y-81594180D01*
X146475812Y-81474482D01*
X146488072Y-81350000D01*
X146485000Y-80785750D01*
X146326250Y-80627000D01*
X145127000Y-80627000D01*
X144873000Y-80627000D01*
X144853000Y-80627000D01*
X144853000Y-80373000D01*
X144873000Y-80373000D01*
X144873000Y-79173750D01*
X145127000Y-79173750D01*
X145127000Y-80373000D01*
X146326250Y-80373000D01*
X146485000Y-80214250D01*
X146488072Y-79650000D01*
X146475812Y-79525518D01*
X146439502Y-79405820D01*
X146380537Y-79295506D01*
X146301185Y-79198815D01*
X146204494Y-79119463D01*
X146094180Y-79060498D01*
X145974482Y-79024188D01*
X145850000Y-79011928D01*
X145285750Y-79015000D01*
X145127000Y-79173750D01*
X144873000Y-79173750D01*
X144714250Y-79015000D01*
X144150000Y-79011928D01*
X144025518Y-79024188D01*
X143905820Y-79060498D01*
X143795506Y-79119463D01*
X143698815Y-79198815D01*
X143619463Y-79295506D01*
X143560498Y-79405820D01*
X143524188Y-79525518D01*
X143511928Y-79650000D01*
X143514346Y-80094151D01*
X143460862Y-79965028D01*
X143337263Y-79780049D01*
X143179951Y-79622737D01*
X142994972Y-79499138D01*
X142789434Y-79414002D01*
X142571236Y-79370600D01*
X142348764Y-79370600D01*
X142130566Y-79414002D01*
X141925028Y-79499138D01*
X141740049Y-79622737D01*
X141582737Y-79780049D01*
X141459138Y-79965028D01*
X141374002Y-80170566D01*
X141330600Y-80388764D01*
X108853000Y-80388764D01*
X108853000Y-80373000D01*
X108873000Y-80373000D01*
X108873000Y-79173750D01*
X109127000Y-79173750D01*
X109127000Y-80373000D01*
X110326250Y-80373000D01*
X110485000Y-80214250D01*
X110488072Y-79650000D01*
X110475812Y-79525518D01*
X110439502Y-79405820D01*
X110380537Y-79295506D01*
X110301185Y-79198815D01*
X110204494Y-79119463D01*
X110094180Y-79060498D01*
X109974482Y-79024188D01*
X109850000Y-79011928D01*
X109285750Y-79015000D01*
X109127000Y-79173750D01*
X108873000Y-79173750D01*
X108714250Y-79015000D01*
X108150000Y-79011928D01*
X108025518Y-79024188D01*
X107905820Y-79060498D01*
X107795506Y-79119463D01*
X107698815Y-79198815D01*
X107619463Y-79295506D01*
X107560498Y-79405820D01*
X107524188Y-79525518D01*
X107511928Y-79650000D01*
X107514346Y-80094151D01*
X107460862Y-79965028D01*
X107337263Y-79780049D01*
X107179951Y-79622737D01*
X106994972Y-79499138D01*
X106789434Y-79414002D01*
X106571236Y-79370600D01*
X106348764Y-79370600D01*
X106130566Y-79414002D01*
X105925028Y-79499138D01*
X105740049Y-79622737D01*
X105582737Y-79780049D01*
X105459138Y-79965028D01*
X105374002Y-80170566D01*
X105330600Y-80388764D01*
X105049400Y-80388764D01*
X105005998Y-80170566D01*
X104920862Y-79965028D01*
X104797263Y-79780049D01*
X104639951Y-79622737D01*
X104454972Y-79499138D01*
X104249434Y-79414002D01*
X104031236Y-79370600D01*
X103808764Y-79370600D01*
X103590566Y-79414002D01*
X103385028Y-79499138D01*
X103200049Y-79622737D01*
X103042737Y-79780049D01*
X102919138Y-79965028D01*
X102834002Y-80170566D01*
X102790600Y-80388764D01*
X102127000Y-80388764D01*
X102127000Y-77267499D01*
X113042106Y-77267499D01*
X113258228Y-77634258D01*
X113718105Y-77874938D01*
X114216098Y-78021275D01*
X114733071Y-78067648D01*
X115249159Y-78012273D01*
X115744526Y-77857279D01*
X116161772Y-77634258D01*
X116377894Y-77267499D01*
X114710000Y-75599605D01*
X113042106Y-77267499D01*
X102127000Y-77267499D01*
X102127000Y-74916481D01*
X104263124Y-74916481D01*
X104575308Y-75365177D01*
X105171259Y-75685612D01*
X105818273Y-75883626D01*
X106491484Y-75951610D01*
X107165023Y-75886949D01*
X107813006Y-75692130D01*
X108281739Y-75443071D01*
X112062352Y-75443071D01*
X112117727Y-75959159D01*
X112272721Y-76454526D01*
X112495742Y-76871772D01*
X112862501Y-77087894D01*
X114530395Y-75420000D01*
X114889605Y-75420000D01*
X116557499Y-77087894D01*
X116924258Y-76871772D01*
X116944400Y-76833286D01*
X116944400Y-77082545D01*
X116942681Y-77100000D01*
X116944400Y-77117455D01*
X116944400Y-77117462D01*
X116949546Y-77169709D01*
X116969879Y-77236739D01*
X117002899Y-77298515D01*
X117047337Y-77352662D01*
X117060902Y-77363795D01*
X118036206Y-78339100D01*
X118047337Y-78352663D01*
X118101484Y-78397101D01*
X118163260Y-78430121D01*
X118230290Y-78450454D01*
X118282537Y-78455600D01*
X118282545Y-78455600D01*
X118300000Y-78457319D01*
X118317455Y-78455600D01*
X121936550Y-78455600D01*
X121954005Y-78457319D01*
X121971460Y-78455600D01*
X121971468Y-78455600D01*
X122023715Y-78450454D01*
X122090745Y-78430121D01*
X122152521Y-78397101D01*
X122206668Y-78352663D01*
X122217804Y-78339094D01*
X123859100Y-76697799D01*
X123872663Y-76686668D01*
X123917101Y-76632521D01*
X123950121Y-76570745D01*
X123970454Y-76503715D01*
X123975600Y-76451468D01*
X123975600Y-76451460D01*
X123975990Y-76447499D01*
X128332106Y-76447499D01*
X128548228Y-76814258D01*
X129008105Y-77054938D01*
X129506098Y-77201275D01*
X130023071Y-77247648D01*
X130539159Y-77192273D01*
X131034526Y-77037279D01*
X131451772Y-76814258D01*
X131667894Y-76447499D01*
X130000000Y-74779605D01*
X128332106Y-76447499D01*
X123975990Y-76447499D01*
X123977319Y-76434005D01*
X123975600Y-76416550D01*
X123975600Y-76285515D01*
X124185760Y-76198463D01*
X124381385Y-76067751D01*
X124547751Y-75901385D01*
X124678463Y-75705760D01*
X124768500Y-75488394D01*
X124814400Y-75257638D01*
X124814400Y-75022362D01*
X124768500Y-74791606D01*
X124698690Y-74623071D01*
X127352352Y-74623071D01*
X127407727Y-75139159D01*
X127562721Y-75634526D01*
X127785742Y-76051772D01*
X128152501Y-76267894D01*
X129820395Y-74600000D01*
X130179605Y-74600000D01*
X131847499Y-76267894D01*
X132214258Y-76051772D01*
X132246000Y-75991121D01*
X132246000Y-78487531D01*
X132244772Y-78500000D01*
X132249676Y-78549793D01*
X132264200Y-78597672D01*
X132287786Y-78641797D01*
X132319527Y-78680473D01*
X132358203Y-78712214D01*
X132402328Y-78735800D01*
X132450207Y-78750324D01*
X132500000Y-78755228D01*
X132512468Y-78754000D01*
X137487532Y-78754000D01*
X137500000Y-78755228D01*
X137549793Y-78750324D01*
X137597672Y-78735800D01*
X137641797Y-78712214D01*
X137680473Y-78680473D01*
X137712214Y-78641797D01*
X137735800Y-78597672D01*
X137750324Y-78549793D01*
X137754000Y-78512469D01*
X137754000Y-78512468D01*
X137755228Y-78500000D01*
X137754000Y-78487531D01*
X137754000Y-74916481D01*
X140263124Y-74916481D01*
X140575308Y-75365177D01*
X141171259Y-75685612D01*
X141818273Y-75883626D01*
X142491484Y-75951610D01*
X143165023Y-75886949D01*
X143813006Y-75692130D01*
X144410530Y-75374639D01*
X144424692Y-75365177D01*
X144736876Y-74916481D01*
X142500000Y-72679605D01*
X140263124Y-74916481D01*
X137754000Y-74916481D01*
X137754000Y-72491484D01*
X139048390Y-72491484D01*
X139113051Y-73165023D01*
X139307870Y-73813006D01*
X139625361Y-74410530D01*
X139634823Y-74424692D01*
X140083519Y-74736876D01*
X142320395Y-72500000D01*
X142679605Y-72500000D01*
X144916481Y-74736876D01*
X145365177Y-74424692D01*
X145685612Y-73828741D01*
X145883626Y-73181727D01*
X145951610Y-72508516D01*
X145886949Y-71834977D01*
X145692130Y-71186994D01*
X145374639Y-70589470D01*
X145365177Y-70575308D01*
X144916481Y-70263124D01*
X142679605Y-72500000D01*
X142320395Y-72500000D01*
X140083519Y-70263124D01*
X139634823Y-70575308D01*
X139314388Y-71171259D01*
X139116374Y-71818273D01*
X139048390Y-72491484D01*
X137754000Y-72491484D01*
X137754000Y-70083519D01*
X140263124Y-70083519D01*
X142500000Y-72320395D01*
X144736876Y-70083519D01*
X144424692Y-69634823D01*
X143828741Y-69314388D01*
X143181727Y-69116374D01*
X142508516Y-69048390D01*
X141834977Y-69113051D01*
X141186994Y-69307870D01*
X140589470Y-69625361D01*
X140575308Y-69634823D01*
X140263124Y-70083519D01*
X137754000Y-70083519D01*
X137754000Y-67135413D01*
X138044192Y-67135413D01*
X138139956Y-67399814D01*
X138429571Y-67540704D01*
X138741108Y-67622384D01*
X139062595Y-67641718D01*
X139381675Y-67597961D01*
X139686088Y-67492795D01*
X139860044Y-67399814D01*
X139955808Y-67135413D01*
X144544192Y-67135413D01*
X144639956Y-67399814D01*
X144929571Y-67540704D01*
X145241108Y-67622384D01*
X145562595Y-67641718D01*
X145881675Y-67597961D01*
X146186088Y-67492795D01*
X146360044Y-67399814D01*
X146455808Y-67135413D01*
X145500000Y-66179605D01*
X144544192Y-67135413D01*
X139955808Y-67135413D01*
X139000000Y-66179605D01*
X138044192Y-67135413D01*
X137754000Y-67135413D01*
X137754000Y-66915754D01*
X137864587Y-66955808D01*
X138820395Y-66000000D01*
X139179605Y-66000000D01*
X140135413Y-66955808D01*
X140399814Y-66860044D01*
X140540704Y-66570429D01*
X140622384Y-66258892D01*
X140634189Y-66062595D01*
X143858282Y-66062595D01*
X143902039Y-66381675D01*
X144007205Y-66686088D01*
X144100186Y-66860044D01*
X144364587Y-66955808D01*
X145320395Y-66000000D01*
X144364587Y-65044192D01*
X144100186Y-65139956D01*
X143959296Y-65429571D01*
X143877616Y-65741108D01*
X143858282Y-66062595D01*
X140634189Y-66062595D01*
X140641718Y-65937405D01*
X140597961Y-65618325D01*
X140492795Y-65313912D01*
X140399814Y-65139956D01*
X140135413Y-65044192D01*
X139179605Y-66000000D01*
X138820395Y-66000000D01*
X137864587Y-65044192D01*
X137600186Y-65139956D01*
X137459296Y-65429571D01*
X137377616Y-65741108D01*
X137358282Y-66062595D01*
X137383433Y-66246000D01*
X132512469Y-66246000D01*
X132500000Y-66244772D01*
X132487532Y-66246000D01*
X132487531Y-66246000D01*
X132450207Y-66249676D01*
X132402328Y-66264200D01*
X132358203Y-66287786D01*
X132319527Y-66319527D01*
X132287786Y-66358203D01*
X132264200Y-66402328D01*
X132249676Y-66450207D01*
X132244772Y-66500000D01*
X132246001Y-66512479D01*
X132246000Y-73207614D01*
X132214258Y-73148228D01*
X131847499Y-72932106D01*
X130179605Y-74600000D01*
X129820395Y-74600000D01*
X128152501Y-72932106D01*
X127785742Y-73148228D01*
X127545062Y-73608105D01*
X127398725Y-74106098D01*
X127352352Y-74623071D01*
X124698690Y-74623071D01*
X124678463Y-74574240D01*
X124547751Y-74378615D01*
X124381385Y-74212249D01*
X124185760Y-74081537D01*
X123968394Y-73991500D01*
X123737638Y-73945600D01*
X123502362Y-73945600D01*
X123271606Y-73991500D01*
X123054240Y-74081537D01*
X122858615Y-74212249D01*
X122692249Y-74378615D01*
X122561537Y-74574240D01*
X122471500Y-74791606D01*
X122425600Y-75022362D01*
X122425600Y-75257638D01*
X122471500Y-75488394D01*
X122561537Y-75705760D01*
X122692249Y-75901385D01*
X122858615Y-76067751D01*
X123054240Y-76198463D01*
X123264401Y-76285516D01*
X123264401Y-76286710D01*
X121806712Y-77744400D01*
X118447294Y-77744400D01*
X117655600Y-76952707D01*
X117655600Y-68187293D01*
X120331194Y-65511700D01*
X120510566Y-65585998D01*
X120728764Y-65629400D01*
X120951236Y-65629400D01*
X121169434Y-65585998D01*
X121374972Y-65500862D01*
X121559951Y-65377263D01*
X121717263Y-65219951D01*
X121840862Y-65034972D01*
X121925998Y-64829434D01*
X121969400Y-64611236D01*
X121969400Y-64388764D01*
X121925998Y-64170566D01*
X121840862Y-63965028D01*
X121717263Y-63780049D01*
X121559951Y-63622737D01*
X121374972Y-63499138D01*
X121169434Y-63414002D01*
X120967002Y-63373736D01*
X120967002Y-63280156D01*
X121196890Y-63401476D01*
X121344099Y-63356825D01*
X121606920Y-63231641D01*
X121840269Y-63057588D01*
X122035178Y-62841355D01*
X122110000Y-62715745D01*
X122184822Y-62841355D01*
X122379731Y-63057588D01*
X122613080Y-63231641D01*
X122875901Y-63356825D01*
X123023110Y-63401476D01*
X123252998Y-63280156D01*
X123252998Y-63373736D01*
X123050566Y-63414002D01*
X122845028Y-63499138D01*
X122660049Y-63622737D01*
X122502737Y-63780049D01*
X122379138Y-63965028D01*
X122294002Y-64170566D01*
X122250600Y-64388764D01*
X122250600Y-64611236D01*
X122294002Y-64829434D01*
X122379138Y-65034972D01*
X122502737Y-65219951D01*
X122660049Y-65377263D01*
X122845028Y-65500862D01*
X123024400Y-65575160D01*
X123024400Y-65772706D01*
X117860901Y-70936206D01*
X117847338Y-70947337D01*
X117802900Y-71001484D01*
X117793003Y-71020000D01*
X117769880Y-71063259D01*
X117749546Y-71130290D01*
X117742681Y-71200000D01*
X117744401Y-71217465D01*
X117744400Y-74882544D01*
X117742681Y-74900000D01*
X117744400Y-74917455D01*
X117744400Y-74917462D01*
X117749546Y-74969709D01*
X117769879Y-75036739D01*
X117802899Y-75098515D01*
X117847337Y-75152662D01*
X117860902Y-75163795D01*
X118338552Y-75641446D01*
X118251500Y-75851606D01*
X118205600Y-76082362D01*
X118205600Y-76317638D01*
X118251500Y-76548394D01*
X118341537Y-76765760D01*
X118472249Y-76961385D01*
X118638615Y-77127751D01*
X118834240Y-77258463D01*
X119051606Y-77348500D01*
X119282362Y-77394400D01*
X119517638Y-77394400D01*
X119748394Y-77348500D01*
X119965760Y-77258463D01*
X120161385Y-77127751D01*
X120327751Y-76961385D01*
X120458463Y-76765760D01*
X120548500Y-76548394D01*
X120594400Y-76317638D01*
X120594400Y-76082362D01*
X120548500Y-75851606D01*
X120458463Y-75634240D01*
X120327751Y-75438615D01*
X120161385Y-75272249D01*
X119965760Y-75141537D01*
X119922465Y-75123603D01*
X119998394Y-75108500D01*
X120215760Y-75018463D01*
X120411385Y-74887751D01*
X120577751Y-74721385D01*
X120708463Y-74525760D01*
X120798500Y-74308394D01*
X120844400Y-74077638D01*
X120844400Y-73842362D01*
X120798500Y-73611606D01*
X120708463Y-73394240D01*
X120577751Y-73198615D01*
X120411385Y-73032249D01*
X120215760Y-72901537D01*
X120005600Y-72814485D01*
X120005600Y-72197293D01*
X126159104Y-66043790D01*
X126172662Y-66032663D01*
X126183790Y-66019104D01*
X126183795Y-66019099D01*
X126217100Y-65978517D01*
X126217102Y-65978515D01*
X126245856Y-65924719D01*
X126250120Y-65916742D01*
X126270454Y-65849711D01*
X126275399Y-65799501D01*
X126275600Y-65797463D01*
X126275600Y-65797456D01*
X126277319Y-65780001D01*
X126275600Y-65762545D01*
X126275600Y-65575160D01*
X126454972Y-65500862D01*
X126639951Y-65377263D01*
X126797263Y-65219951D01*
X126920862Y-65034972D01*
X127005998Y-64829434D01*
X127049400Y-64611236D01*
X127049400Y-64388764D01*
X127005998Y-64170566D01*
X126920862Y-63965028D01*
X126797263Y-63780049D01*
X126639951Y-63622737D01*
X126454972Y-63499138D01*
X126249434Y-63414002D01*
X126047002Y-63373736D01*
X126047002Y-63280156D01*
X126276890Y-63401476D01*
X126424099Y-63356825D01*
X126686920Y-63231641D01*
X126920269Y-63057588D01*
X127115178Y-62841355D01*
X127190000Y-62715745D01*
X127264822Y-62841355D01*
X127459731Y-63057588D01*
X127693080Y-63231641D01*
X127955901Y-63356825D01*
X128103110Y-63401476D01*
X128332998Y-63280156D01*
X128332998Y-63373736D01*
X128130566Y-63414002D01*
X127925028Y-63499138D01*
X127740049Y-63622737D01*
X127582737Y-63780049D01*
X127459138Y-63965028D01*
X127374002Y-64170566D01*
X127330600Y-64388764D01*
X127330600Y-64611236D01*
X127374002Y-64829434D01*
X127448300Y-65008806D01*
X121700901Y-70756206D01*
X121687338Y-70767337D01*
X121642900Y-70821484D01*
X121627901Y-70849546D01*
X121609880Y-70883259D01*
X121589546Y-70950290D01*
X121582681Y-71020000D01*
X121584401Y-71037465D01*
X121584401Y-71894485D01*
X121374240Y-71981537D01*
X121178615Y-72112249D01*
X121012249Y-72278615D01*
X120881537Y-72474240D01*
X120791500Y-72691606D01*
X120745600Y-72922362D01*
X120745600Y-73157638D01*
X120791500Y-73388394D01*
X120881537Y-73605760D01*
X121012249Y-73801385D01*
X121178615Y-73967751D01*
X121374240Y-74098463D01*
X121591606Y-74188500D01*
X121822362Y-74234400D01*
X122057638Y-74234400D01*
X122288394Y-74188500D01*
X122505760Y-74098463D01*
X122701385Y-73967751D01*
X122867751Y-73801385D01*
X122998463Y-73605760D01*
X123065290Y-73444426D01*
X123148615Y-73527751D01*
X123344240Y-73658463D01*
X123561606Y-73748500D01*
X123792362Y-73794400D01*
X124027638Y-73794400D01*
X124258394Y-73748500D01*
X124475760Y-73658463D01*
X124671385Y-73527751D01*
X124837751Y-73361385D01*
X124968463Y-73165760D01*
X125055515Y-72955600D01*
X125186550Y-72955600D01*
X125204005Y-72957319D01*
X125221460Y-72955600D01*
X125221468Y-72955600D01*
X125273715Y-72950454D01*
X125340745Y-72930121D01*
X125402521Y-72897101D01*
X125456668Y-72852663D01*
X125467804Y-72839094D01*
X125554397Y-72752501D01*
X128332106Y-72752501D01*
X130000000Y-74420395D01*
X131667894Y-72752501D01*
X131451772Y-72385742D01*
X130991895Y-72145062D01*
X130493902Y-71998725D01*
X129976929Y-71952352D01*
X129460841Y-72007727D01*
X128965474Y-72162721D01*
X128548228Y-72385742D01*
X128332106Y-72752501D01*
X125554397Y-72752501D01*
X131239104Y-67067795D01*
X131252662Y-67056668D01*
X131263790Y-67043109D01*
X131263795Y-67043104D01*
X131279438Y-67024043D01*
X131297101Y-67002521D01*
X131330121Y-66940745D01*
X131350454Y-66873715D01*
X131355600Y-66821468D01*
X131355600Y-66821460D01*
X131357319Y-66804005D01*
X131355600Y-66786550D01*
X131355600Y-65630751D01*
X131850000Y-65630751D01*
X131904772Y-65625356D01*
X131957439Y-65609380D01*
X132005977Y-65583436D01*
X132048521Y-65548521D01*
X132083436Y-65505977D01*
X132109380Y-65457439D01*
X132125356Y-65404772D01*
X132130751Y-65350000D01*
X132130751Y-64864587D01*
X138044192Y-64864587D01*
X139000000Y-65820395D01*
X139955808Y-64864587D01*
X144544192Y-64864587D01*
X145500000Y-65820395D01*
X146455808Y-64864587D01*
X146360044Y-64600186D01*
X146070429Y-64459296D01*
X145758892Y-64377616D01*
X145437405Y-64358282D01*
X145118325Y-64402039D01*
X144813912Y-64507205D01*
X144639956Y-64600186D01*
X144544192Y-64864587D01*
X139955808Y-64864587D01*
X139860044Y-64600186D01*
X139570429Y-64459296D01*
X139258892Y-64377616D01*
X138937405Y-64358282D01*
X138618325Y-64402039D01*
X138313912Y-64507205D01*
X138139956Y-64600186D01*
X138044192Y-64864587D01*
X132130751Y-64864587D01*
X132130751Y-63650000D01*
X132125356Y-63595228D01*
X132109380Y-63542561D01*
X132083436Y-63494023D01*
X132048521Y-63451479D01*
X132005977Y-63416564D01*
X131957439Y-63390620D01*
X131904772Y-63374644D01*
X131850000Y-63369249D01*
X131463139Y-63369249D01*
X131504099Y-63356825D01*
X131766920Y-63231641D01*
X132000269Y-63057588D01*
X132195178Y-62841355D01*
X132344157Y-62591252D01*
X132441481Y-62316891D01*
X132320814Y-62087000D01*
X131127000Y-62087000D01*
X131127000Y-62107000D01*
X130873000Y-62107000D01*
X130873000Y-62087000D01*
X128587000Y-62087000D01*
X128587000Y-62107000D01*
X128333000Y-62107000D01*
X128333000Y-62087000D01*
X126047000Y-62087000D01*
X126047000Y-62107000D01*
X125793000Y-62107000D01*
X125793000Y-62087000D01*
X123507000Y-62087000D01*
X123507000Y-62107000D01*
X123253000Y-62107000D01*
X123253000Y-62087000D01*
X120967000Y-62087000D01*
X120967000Y-62107000D01*
X120713000Y-62107000D01*
X120713000Y-62087000D01*
X118427000Y-62087000D01*
X118427000Y-64373000D01*
X118447000Y-64373000D01*
X118447000Y-64627000D01*
X118427000Y-64627000D01*
X118427000Y-65820155D01*
X118656890Y-65941476D01*
X118804099Y-65896825D01*
X119064142Y-65772964D01*
X117060901Y-67776206D01*
X117047338Y-67787337D01*
X117002900Y-67841484D01*
X116986390Y-67872372D01*
X116969880Y-67903259D01*
X116949546Y-67970290D01*
X116942681Y-68040000D01*
X116944401Y-68057466D01*
X116944400Y-74005912D01*
X116924258Y-73968228D01*
X116557499Y-73752106D01*
X114889605Y-75420000D01*
X114530395Y-75420000D01*
X112862501Y-73752106D01*
X112495742Y-73968228D01*
X112255062Y-74428105D01*
X112108725Y-74926098D01*
X112062352Y-75443071D01*
X108281739Y-75443071D01*
X108410530Y-75374639D01*
X108424692Y-75365177D01*
X108736876Y-74916481D01*
X106500000Y-72679605D01*
X104263124Y-74916481D01*
X102127000Y-74916481D01*
X102127000Y-72491484D01*
X103048390Y-72491484D01*
X103113051Y-73165023D01*
X103307870Y-73813006D01*
X103625361Y-74410530D01*
X103634823Y-74424692D01*
X104083519Y-74736876D01*
X106320395Y-72500000D01*
X106679605Y-72500000D01*
X108916481Y-74736876D01*
X109365177Y-74424692D01*
X109685612Y-73828741D01*
X109764032Y-73572501D01*
X113042106Y-73572501D01*
X114710000Y-75240395D01*
X116377894Y-73572501D01*
X116161772Y-73205742D01*
X115701895Y-72965062D01*
X115203902Y-72818725D01*
X114686929Y-72772352D01*
X114170841Y-72827727D01*
X113675474Y-72982721D01*
X113258228Y-73205742D01*
X113042106Y-73572501D01*
X109764032Y-73572501D01*
X109883626Y-73181727D01*
X109951610Y-72508516D01*
X109886949Y-71834977D01*
X109692130Y-71186994D01*
X109374639Y-70589470D01*
X109365177Y-70575308D01*
X108916481Y-70263124D01*
X106679605Y-72500000D01*
X106320395Y-72500000D01*
X104083519Y-70263124D01*
X103634823Y-70575308D01*
X103314388Y-71171259D01*
X103116374Y-71818273D01*
X103048390Y-72491484D01*
X102127000Y-72491484D01*
X102127000Y-70083519D01*
X104263124Y-70083519D01*
X106500000Y-72320395D01*
X108736876Y-70083519D01*
X108424692Y-69634823D01*
X107828741Y-69314388D01*
X107181727Y-69116374D01*
X106508516Y-69048390D01*
X105834977Y-69113051D01*
X105186994Y-69307870D01*
X104589470Y-69625361D01*
X104575308Y-69634823D01*
X104263124Y-70083519D01*
X102127000Y-70083519D01*
X102127000Y-65873990D01*
X102220600Y-65873990D01*
X102220600Y-66126010D01*
X102269767Y-66373187D01*
X102366211Y-66606023D01*
X102506225Y-66815570D01*
X102684430Y-66993775D01*
X102893977Y-67133789D01*
X103126813Y-67230233D01*
X103373990Y-67279400D01*
X103626010Y-67279400D01*
X103873187Y-67230233D01*
X104106023Y-67133789D01*
X104315570Y-66993775D01*
X104493775Y-66815570D01*
X104633789Y-66606023D01*
X104730233Y-66373187D01*
X104779400Y-66126010D01*
X104779400Y-65873990D01*
X108720600Y-65873990D01*
X108720600Y-66126010D01*
X108769767Y-66373187D01*
X108866211Y-66606023D01*
X109006225Y-66815570D01*
X109184430Y-66993775D01*
X109393977Y-67133789D01*
X109626813Y-67230233D01*
X109873990Y-67279400D01*
X110126010Y-67279400D01*
X110373187Y-67230233D01*
X110606023Y-67133789D01*
X110815570Y-66993775D01*
X110993775Y-66815570D01*
X111133789Y-66606023D01*
X111230233Y-66373187D01*
X111279400Y-66126010D01*
X111279400Y-65873990D01*
X111230233Y-65626813D01*
X111133789Y-65393977D01*
X110993775Y-65184430D01*
X110815570Y-65006225D01*
X110606023Y-64866211D01*
X110583523Y-64856891D01*
X116858519Y-64856891D01*
X116955843Y-65131252D01*
X117104822Y-65381355D01*
X117299731Y-65597588D01*
X117533080Y-65771641D01*
X117795901Y-65896825D01*
X117943110Y-65941476D01*
X118173000Y-65820155D01*
X118173000Y-64627000D01*
X116979186Y-64627000D01*
X116858519Y-64856891D01*
X110583523Y-64856891D01*
X110373187Y-64769767D01*
X110126010Y-64720600D01*
X109873990Y-64720600D01*
X109626813Y-64769767D01*
X109393977Y-64866211D01*
X109184430Y-65006225D01*
X109006225Y-65184430D01*
X108866211Y-65393977D01*
X108769767Y-65626813D01*
X108720600Y-65873990D01*
X104779400Y-65873990D01*
X104730233Y-65626813D01*
X104633789Y-65393977D01*
X104493775Y-65184430D01*
X104315570Y-65006225D01*
X104106023Y-64866211D01*
X103873187Y-64769767D01*
X103626010Y-64720600D01*
X103373990Y-64720600D01*
X103126813Y-64769767D01*
X102893977Y-64866211D01*
X102684430Y-65006225D01*
X102506225Y-65184430D01*
X102366211Y-65393977D01*
X102269767Y-65626813D01*
X102220600Y-65873990D01*
X102127000Y-65873990D01*
X102127000Y-61373990D01*
X102220600Y-61373990D01*
X102220600Y-61626010D01*
X102269767Y-61873187D01*
X102366211Y-62106023D01*
X102506225Y-62315570D01*
X102684430Y-62493775D01*
X102893977Y-62633789D01*
X103126813Y-62730233D01*
X103373990Y-62779400D01*
X103626010Y-62779400D01*
X103873187Y-62730233D01*
X104106023Y-62633789D01*
X104315570Y-62493775D01*
X104493775Y-62315570D01*
X104633789Y-62106023D01*
X104730233Y-61873187D01*
X104779400Y-61626010D01*
X104779400Y-61373990D01*
X108720600Y-61373990D01*
X108720600Y-61626010D01*
X108769767Y-61873187D01*
X108866211Y-62106023D01*
X109006225Y-62315570D01*
X109184430Y-62493775D01*
X109393977Y-62633789D01*
X109626813Y-62730233D01*
X109873990Y-62779400D01*
X110126010Y-62779400D01*
X110373187Y-62730233D01*
X110606023Y-62633789D01*
X110815570Y-62493775D01*
X110992454Y-62316891D01*
X116858519Y-62316891D01*
X116955843Y-62591252D01*
X117104822Y-62841355D01*
X117299731Y-63057588D01*
X117530880Y-63230000D01*
X117299731Y-63402412D01*
X117104822Y-63618645D01*
X116955843Y-63868748D01*
X116858519Y-64143109D01*
X116979186Y-64373000D01*
X118173000Y-64373000D01*
X118173000Y-62087000D01*
X116979186Y-62087000D01*
X116858519Y-62316891D01*
X110992454Y-62316891D01*
X110993775Y-62315570D01*
X111133789Y-62106023D01*
X111230233Y-61873187D01*
X111279400Y-61626010D01*
X111279400Y-61603109D01*
X116858519Y-61603109D01*
X116979186Y-61833000D01*
X118173000Y-61833000D01*
X118173000Y-60639845D01*
X118427000Y-60639845D01*
X118427000Y-61833000D01*
X120713000Y-61833000D01*
X120713000Y-60639845D01*
X120967000Y-60639845D01*
X120967000Y-61833000D01*
X123253000Y-61833000D01*
X123253000Y-60639845D01*
X123507000Y-60639845D01*
X123507000Y-61833000D01*
X125793000Y-61833000D01*
X125793000Y-60639845D01*
X126047000Y-60639845D01*
X126047000Y-61833000D01*
X128333000Y-61833000D01*
X128333000Y-60639845D01*
X128587000Y-60639845D01*
X128587000Y-61833000D01*
X130873000Y-61833000D01*
X130873000Y-60639845D01*
X131127000Y-60639845D01*
X131127000Y-61833000D01*
X132320814Y-61833000D01*
X132441481Y-61603109D01*
X132360206Y-61373990D01*
X137720600Y-61373990D01*
X137720600Y-61626010D01*
X137769767Y-61873187D01*
X137866211Y-62106023D01*
X138006225Y-62315570D01*
X138184430Y-62493775D01*
X138393977Y-62633789D01*
X138626813Y-62730233D01*
X138873990Y-62779400D01*
X139126010Y-62779400D01*
X139373187Y-62730233D01*
X139606023Y-62633789D01*
X139815570Y-62493775D01*
X139993775Y-62315570D01*
X140133789Y-62106023D01*
X140230233Y-61873187D01*
X140279400Y-61626010D01*
X140279400Y-61373990D01*
X144220600Y-61373990D01*
X144220600Y-61626010D01*
X144269767Y-61873187D01*
X144366211Y-62106023D01*
X144506225Y-62315570D01*
X144684430Y-62493775D01*
X144893977Y-62633789D01*
X145126813Y-62730233D01*
X145373990Y-62779400D01*
X145626010Y-62779400D01*
X145873187Y-62730233D01*
X146106023Y-62633789D01*
X146315570Y-62493775D01*
X146493775Y-62315570D01*
X146633789Y-62106023D01*
X146730233Y-61873187D01*
X146779400Y-61626010D01*
X146779400Y-61373990D01*
X146730233Y-61126813D01*
X146633789Y-60893977D01*
X146493775Y-60684430D01*
X146315570Y-60506225D01*
X146106023Y-60366211D01*
X145873187Y-60269767D01*
X145626010Y-60220600D01*
X145373990Y-60220600D01*
X145126813Y-60269767D01*
X144893977Y-60366211D01*
X144684430Y-60506225D01*
X144506225Y-60684430D01*
X144366211Y-60893977D01*
X144269767Y-61126813D01*
X144220600Y-61373990D01*
X140279400Y-61373990D01*
X140230233Y-61126813D01*
X140133789Y-60893977D01*
X139993775Y-60684430D01*
X139815570Y-60506225D01*
X139606023Y-60366211D01*
X139373187Y-60269767D01*
X139126010Y-60220600D01*
X138873990Y-60220600D01*
X138626813Y-60269767D01*
X138393977Y-60366211D01*
X138184430Y-60506225D01*
X138006225Y-60684430D01*
X137866211Y-60893977D01*
X137769767Y-61126813D01*
X137720600Y-61373990D01*
X132360206Y-61373990D01*
X132344157Y-61328748D01*
X132195178Y-61078645D01*
X132000269Y-60862412D01*
X131766920Y-60688359D01*
X131504099Y-60563175D01*
X131356890Y-60518524D01*
X131127000Y-60639845D01*
X130873000Y-60639845D01*
X130643110Y-60518524D01*
X130495901Y-60563175D01*
X130233080Y-60688359D01*
X129999731Y-60862412D01*
X129804822Y-61078645D01*
X129730000Y-61204255D01*
X129655178Y-61078645D01*
X129460269Y-60862412D01*
X129226920Y-60688359D01*
X128964099Y-60563175D01*
X128816890Y-60518524D01*
X128587000Y-60639845D01*
X128333000Y-60639845D01*
X128103110Y-60518524D01*
X127955901Y-60563175D01*
X127693080Y-60688359D01*
X127459731Y-60862412D01*
X127264822Y-61078645D01*
X127190000Y-61204255D01*
X127115178Y-61078645D01*
X126920269Y-60862412D01*
X126686920Y-60688359D01*
X126424099Y-60563175D01*
X126276890Y-60518524D01*
X126047000Y-60639845D01*
X125793000Y-60639845D01*
X125563110Y-60518524D01*
X125415901Y-60563175D01*
X125153080Y-60688359D01*
X124919731Y-60862412D01*
X124724822Y-61078645D01*
X124650000Y-61204255D01*
X124575178Y-61078645D01*
X124380269Y-60862412D01*
X124146920Y-60688359D01*
X123884099Y-60563175D01*
X123736890Y-60518524D01*
X123507000Y-60639845D01*
X123253000Y-60639845D01*
X123023110Y-60518524D01*
X122875901Y-60563175D01*
X122613080Y-60688359D01*
X122379731Y-60862412D01*
X122184822Y-61078645D01*
X122110000Y-61204255D01*
X122035178Y-61078645D01*
X121840269Y-60862412D01*
X121606920Y-60688359D01*
X121344099Y-60563175D01*
X121196890Y-60518524D01*
X120967000Y-60639845D01*
X120713000Y-60639845D01*
X120483110Y-60518524D01*
X120335901Y-60563175D01*
X120073080Y-60688359D01*
X119839731Y-60862412D01*
X119644822Y-61078645D01*
X119570000Y-61204255D01*
X119495178Y-61078645D01*
X119300269Y-60862412D01*
X119066920Y-60688359D01*
X118804099Y-60563175D01*
X118656890Y-60518524D01*
X118427000Y-60639845D01*
X118173000Y-60639845D01*
X117943110Y-60518524D01*
X117795901Y-60563175D01*
X117533080Y-60688359D01*
X117299731Y-60862412D01*
X117104822Y-61078645D01*
X116955843Y-61328748D01*
X116858519Y-61603109D01*
X111279400Y-61603109D01*
X111279400Y-61373990D01*
X111230233Y-61126813D01*
X111133789Y-60893977D01*
X110993775Y-60684430D01*
X110815570Y-60506225D01*
X110606023Y-60366211D01*
X110373187Y-60269767D01*
X110126010Y-60220600D01*
X109873990Y-60220600D01*
X109626813Y-60269767D01*
X109393977Y-60366211D01*
X109184430Y-60506225D01*
X109006225Y-60684430D01*
X108866211Y-60893977D01*
X108769767Y-61126813D01*
X108720600Y-61373990D01*
X104779400Y-61373990D01*
X104730233Y-61126813D01*
X104633789Y-60893977D01*
X104493775Y-60684430D01*
X104315570Y-60506225D01*
X104106023Y-60366211D01*
X103873187Y-60269767D01*
X103626010Y-60220600D01*
X103373990Y-60220600D01*
X103126813Y-60269767D01*
X102893977Y-60366211D01*
X102684430Y-60506225D01*
X102506225Y-60684430D01*
X102366211Y-60893977D01*
X102269767Y-61126813D01*
X102220600Y-61373990D01*
X102127000Y-61373990D01*
X102127000Y-60127000D01*
X146873000Y-60127000D01*
X146873000Y-65130244D01*
G37*
X146873000Y-65130244D02*
X146635413Y-65044192D01*
X145679605Y-66000000D01*
X146635413Y-66955808D01*
X146873000Y-66869756D01*
X146873000Y-95873000D01*
X102127000Y-95873000D01*
X102127000Y-93000000D01*
X119261928Y-93000000D01*
X119274188Y-93124482D01*
X119310498Y-93244180D01*
X119369463Y-93354494D01*
X119448815Y-93451185D01*
X119545506Y-93530537D01*
X119655820Y-93589502D01*
X119775518Y-93625812D01*
X119900000Y-93638072D01*
X120714250Y-93635000D01*
X120873000Y-93476250D01*
X120873000Y-92602000D01*
X121127000Y-92602000D01*
X121127000Y-93476250D01*
X121285750Y-93635000D01*
X122100000Y-93638072D01*
X122224482Y-93625812D01*
X122344180Y-93589502D01*
X122454494Y-93530537D01*
X122551185Y-93451185D01*
X122630537Y-93354494D01*
X122689502Y-93244180D01*
X122725812Y-93124482D01*
X122738072Y-93000000D01*
X122735000Y-92760750D01*
X122576250Y-92602000D01*
X121127000Y-92602000D01*
X120873000Y-92602000D01*
X119423750Y-92602000D01*
X119265000Y-92760750D01*
X119261928Y-93000000D01*
X102127000Y-93000000D01*
X102127000Y-91890472D01*
X108245600Y-91890472D01*
X108245600Y-92009528D01*
X108268827Y-92126297D01*
X108314388Y-92236291D01*
X108380532Y-92335282D01*
X108464718Y-92419468D01*
X108563709Y-92485612D01*
X108673703Y-92531173D01*
X108790472Y-92554400D01*
X108909528Y-92554400D01*
X109026297Y-92531173D01*
X109136291Y-92485612D01*
X109235282Y-92419468D01*
X109319468Y-92335282D01*
X109385612Y-92236291D01*
X109431173Y-92126297D01*
X109454400Y-92009528D01*
X109454400Y-91890472D01*
X109447435Y-91855458D01*
X109947294Y-91355600D01*
X118719249Y-91355600D01*
X118719249Y-91500000D01*
X118724644Y-91554772D01*
X118740620Y-91607439D01*
X118766564Y-91655977D01*
X118801479Y-91698521D01*
X118844023Y-91733436D01*
X118892561Y-91759380D01*
X118945228Y-91775356D01*
X119000000Y-91780751D01*
X119287768Y-91780751D01*
X119274188Y-91825518D01*
X119261928Y-91950000D01*
X119265000Y-92189250D01*
X119423750Y-92348000D01*
X120873000Y-92348000D01*
X120873000Y-91473750D01*
X121127000Y-91473750D01*
X121127000Y-92348000D01*
X122576250Y-92348000D01*
X122735000Y-92189250D01*
X122736331Y-92085581D01*
X122785750Y-92135000D01*
X123000000Y-92138072D01*
X123124482Y-92125812D01*
X123244180Y-92089502D01*
X123354494Y-92030537D01*
X123451185Y-91951185D01*
X123530537Y-91854494D01*
X123589502Y-91744180D01*
X123625812Y-91624482D01*
X123638072Y-91500000D01*
X123635000Y-91285750D01*
X123476250Y-91127000D01*
X122627000Y-91127000D01*
X122627000Y-91147000D01*
X122373000Y-91147000D01*
X122373000Y-91127000D01*
X121523750Y-91127000D01*
X121365000Y-91285750D01*
X121364585Y-91314703D01*
X121285750Y-91315000D01*
X121127000Y-91473750D01*
X120873000Y-91473750D01*
X120714250Y-91315000D01*
X120280751Y-91313364D01*
X120280751Y-90686636D01*
X120714250Y-90685000D01*
X120873000Y-90526250D01*
X120873000Y-89652000D01*
X121127000Y-89652000D01*
X121127000Y-90526250D01*
X121285750Y-90685000D01*
X121364585Y-90685297D01*
X121365000Y-90714250D01*
X121523750Y-90873000D01*
X122373000Y-90873000D01*
X122373000Y-90853000D01*
X122627000Y-90853000D01*
X122627000Y-90873000D01*
X123476250Y-90873000D01*
X123635000Y-90714250D01*
X123638072Y-90500000D01*
X123625812Y-90375518D01*
X123589502Y-90255820D01*
X123530537Y-90145506D01*
X123451185Y-90048815D01*
X123391704Y-90000000D01*
X126261928Y-90000000D01*
X126274188Y-90124482D01*
X126310498Y-90244180D01*
X126369463Y-90354494D01*
X126448815Y-90451185D01*
X126545506Y-90530537D01*
X126655820Y-90589502D01*
X126775518Y-90625812D01*
X126900000Y-90638072D01*
X127714250Y-90635000D01*
X127873000Y-90476250D01*
X127873000Y-89602000D01*
X128127000Y-89602000D01*
X128127000Y-90476250D01*
X128285750Y-90635000D01*
X129100000Y-90638072D01*
X129224482Y-90625812D01*
X129344180Y-90589502D01*
X129454494Y-90530537D01*
X129551185Y-90451185D01*
X129630537Y-90354494D01*
X129689502Y-90244180D01*
X129725812Y-90124482D01*
X129738072Y-90000000D01*
X129735000Y-89760750D01*
X129576250Y-89602000D01*
X128127000Y-89602000D01*
X127873000Y-89602000D01*
X126423750Y-89602000D01*
X126265000Y-89760750D01*
X126261928Y-90000000D01*
X123391704Y-90000000D01*
X123354494Y-89969463D01*
X123244180Y-89910498D01*
X123124482Y-89874188D01*
X123000000Y-89861928D01*
X122785750Y-89865000D01*
X122736331Y-89914419D01*
X122735000Y-89810750D01*
X122576250Y-89652000D01*
X121127000Y-89652000D01*
X120873000Y-89652000D01*
X119423750Y-89652000D01*
X119265000Y-89810750D01*
X119261928Y-90050000D01*
X119274188Y-90174482D01*
X119287768Y-90219249D01*
X119000000Y-90219249D01*
X118945228Y-90224644D01*
X118892561Y-90240620D01*
X118844023Y-90266564D01*
X118801479Y-90301479D01*
X118766564Y-90344023D01*
X118740620Y-90392561D01*
X118724644Y-90445228D01*
X118719249Y-90500000D01*
X118719249Y-90644400D01*
X109817455Y-90644400D01*
X109800000Y-90642681D01*
X109782544Y-90644400D01*
X109782537Y-90644400D01*
X109736566Y-90648928D01*
X109730289Y-90649546D01*
X109709956Y-90655714D01*
X109663260Y-90669879D01*
X109601484Y-90702899D01*
X109547337Y-90747337D01*
X109536206Y-90760900D01*
X108944542Y-91352565D01*
X108909528Y-91345600D01*
X108790472Y-91345600D01*
X108673703Y-91368827D01*
X108563709Y-91414388D01*
X108464718Y-91480532D01*
X108380532Y-91564718D01*
X108314388Y-91663709D01*
X108268827Y-91773703D01*
X108245600Y-91890472D01*
X102127000Y-91890472D01*
X102127000Y-87888764D01*
X104370600Y-87888764D01*
X104370600Y-88111236D01*
X104414002Y-88329434D01*
X104499138Y-88534972D01*
X104622737Y-88719951D01*
X104780049Y-88877263D01*
X104965028Y-89000862D01*
X105170566Y-89085998D01*
X105388764Y-89129400D01*
X105611236Y-89129400D01*
X105829434Y-89085998D01*
X106034972Y-89000862D01*
X106219951Y-88877263D01*
X106377263Y-88719951D01*
X106500862Y-88534972D01*
X106585998Y-88329434D01*
X106629400Y-88111236D01*
X106629400Y-87888764D01*
X111370600Y-87888764D01*
X111370600Y-88111236D01*
X111414002Y-88329434D01*
X111499138Y-88534972D01*
X111622737Y-88719951D01*
X111780049Y-88877263D01*
X111965028Y-89000862D01*
X112170566Y-89085998D01*
X112388764Y-89129400D01*
X112611236Y-89129400D01*
X112829434Y-89085998D01*
X113034972Y-89000862D01*
X113036262Y-89000000D01*
X119261928Y-89000000D01*
X119265000Y-89239250D01*
X119423750Y-89398000D01*
X120873000Y-89398000D01*
X120873000Y-88523750D01*
X121127000Y-88523750D01*
X121127000Y-89398000D01*
X122576250Y-89398000D01*
X122735000Y-89239250D01*
X122738072Y-89000000D01*
X122725812Y-88875518D01*
X122689502Y-88755820D01*
X122630537Y-88645506D01*
X122551185Y-88548815D01*
X122491704Y-88500000D01*
X125361928Y-88500000D01*
X125374188Y-88624482D01*
X125410498Y-88744180D01*
X125469463Y-88854494D01*
X125548815Y-88951185D01*
X125645506Y-89030537D01*
X125755820Y-89089502D01*
X125875518Y-89125812D01*
X126000000Y-89138072D01*
X126214250Y-89135000D01*
X126263669Y-89085581D01*
X126265000Y-89189250D01*
X126423750Y-89348000D01*
X127873000Y-89348000D01*
X127873000Y-88473750D01*
X127714250Y-88315000D01*
X127635415Y-88314703D01*
X127635000Y-88285750D01*
X127476250Y-88127000D01*
X126627000Y-88127000D01*
X126627000Y-88147000D01*
X126373000Y-88147000D01*
X126373000Y-88127000D01*
X125523750Y-88127000D01*
X125365000Y-88285750D01*
X125361928Y-88500000D01*
X122491704Y-88500000D01*
X122454494Y-88469463D01*
X122344180Y-88410498D01*
X122224482Y-88374188D01*
X122100000Y-88361928D01*
X121285750Y-88365000D01*
X121127000Y-88523750D01*
X120873000Y-88523750D01*
X120714250Y-88365000D01*
X119900000Y-88361928D01*
X119775518Y-88374188D01*
X119655820Y-88410498D01*
X119545506Y-88469463D01*
X119448815Y-88548815D01*
X119369463Y-88645506D01*
X119310498Y-88755820D01*
X119274188Y-88875518D01*
X119261928Y-89000000D01*
X113036262Y-89000000D01*
X113219951Y-88877263D01*
X113377263Y-88719951D01*
X113500862Y-88534972D01*
X113585998Y-88329434D01*
X113629400Y-88111236D01*
X113629400Y-87888764D01*
X113585998Y-87670566D01*
X113500862Y-87465028D01*
X113377263Y-87280049D01*
X113219951Y-87122737D01*
X113036263Y-87000000D01*
X119261928Y-87000000D01*
X119274188Y-87124482D01*
X119310498Y-87244180D01*
X119369463Y-87354494D01*
X119448815Y-87451185D01*
X119545506Y-87530537D01*
X119655820Y-87589502D01*
X119775518Y-87625812D01*
X119900000Y-87638072D01*
X120714250Y-87635000D01*
X120873000Y-87476250D01*
X120873000Y-86602000D01*
X121127000Y-86602000D01*
X121127000Y-87476250D01*
X121285750Y-87635000D01*
X122100000Y-87638072D01*
X122224482Y-87625812D01*
X122344180Y-87589502D01*
X122454494Y-87530537D01*
X122491703Y-87500000D01*
X125361928Y-87500000D01*
X125365000Y-87714250D01*
X125523750Y-87873000D01*
X126373000Y-87873000D01*
X126373000Y-87853000D01*
X126627000Y-87853000D01*
X126627000Y-87873000D01*
X127476250Y-87873000D01*
X127635000Y-87714250D01*
X127635415Y-87685297D01*
X127714250Y-87685000D01*
X127873000Y-87526250D01*
X127873000Y-86652000D01*
X128127000Y-86652000D01*
X128127000Y-87526250D01*
X128285750Y-87685000D01*
X128719249Y-87686636D01*
X128719249Y-88313364D01*
X128285750Y-88315000D01*
X128127000Y-88473750D01*
X128127000Y-89348000D01*
X129576250Y-89348000D01*
X129735000Y-89189250D01*
X129738072Y-88950000D01*
X129725812Y-88825518D01*
X129712232Y-88780751D01*
X130000000Y-88780751D01*
X130054772Y-88775356D01*
X130107439Y-88759380D01*
X130155977Y-88733436D01*
X130198521Y-88698521D01*
X130233436Y-88655977D01*
X130259380Y-88607439D01*
X130275356Y-88554772D01*
X130280751Y-88500000D01*
X130280751Y-88355600D01*
X130502707Y-88355600D01*
X132202565Y-90055459D01*
X132195600Y-90090472D01*
X132195600Y-90209528D01*
X132218827Y-90326297D01*
X132264388Y-90436291D01*
X132330532Y-90535282D01*
X132414718Y-90619468D01*
X132513709Y-90685612D01*
X132623703Y-90731173D01*
X132740472Y-90754400D01*
X132859528Y-90754400D01*
X132976297Y-90731173D01*
X133086291Y-90685612D01*
X133185282Y-90619468D01*
X133269468Y-90535282D01*
X133335612Y-90436291D01*
X133381173Y-90326297D01*
X133404400Y-90209528D01*
X133404400Y-90090472D01*
X133381173Y-89973703D01*
X133335612Y-89863709D01*
X133269468Y-89764718D01*
X133185282Y-89680532D01*
X133086291Y-89614388D01*
X132976297Y-89568827D01*
X132859528Y-89545600D01*
X132740472Y-89545600D01*
X132705459Y-89552565D01*
X131041658Y-87888764D01*
X135370600Y-87888764D01*
X135370600Y-88111236D01*
X135414002Y-88329434D01*
X135499138Y-88534972D01*
X135622737Y-88719951D01*
X135780049Y-88877263D01*
X135965028Y-89000862D01*
X136170566Y-89085998D01*
X136388764Y-89129400D01*
X136611236Y-89129400D01*
X136829434Y-89085998D01*
X137034972Y-89000862D01*
X137219951Y-88877263D01*
X137377263Y-88719951D01*
X137500862Y-88534972D01*
X137585998Y-88329434D01*
X137629400Y-88111236D01*
X137629400Y-87888764D01*
X142370600Y-87888764D01*
X142370600Y-88111236D01*
X142414002Y-88329434D01*
X142499138Y-88534972D01*
X142622737Y-88719951D01*
X142780049Y-88877263D01*
X142965028Y-89000862D01*
X143170566Y-89085998D01*
X143388764Y-89129400D01*
X143611236Y-89129400D01*
X143829434Y-89085998D01*
X144034972Y-89000862D01*
X144219951Y-88877263D01*
X144377263Y-88719951D01*
X144500862Y-88534972D01*
X144585998Y-88329434D01*
X144629400Y-88111236D01*
X144629400Y-87888764D01*
X144585998Y-87670566D01*
X144500862Y-87465028D01*
X144377263Y-87280049D01*
X144219951Y-87122737D01*
X144034972Y-86999138D01*
X143829434Y-86914002D01*
X143611236Y-86870600D01*
X143388764Y-86870600D01*
X143170566Y-86914002D01*
X142965028Y-86999138D01*
X142780049Y-87122737D01*
X142622737Y-87280049D01*
X142499138Y-87465028D01*
X142414002Y-87670566D01*
X142370600Y-87888764D01*
X137629400Y-87888764D01*
X137585998Y-87670566D01*
X137500862Y-87465028D01*
X137377263Y-87280049D01*
X137219951Y-87122737D01*
X137034972Y-86999138D01*
X136829434Y-86914002D01*
X136611236Y-86870600D01*
X136388764Y-86870600D01*
X136170566Y-86914002D01*
X135965028Y-86999138D01*
X135780049Y-87122737D01*
X135622737Y-87280049D01*
X135499138Y-87465028D01*
X135414002Y-87670566D01*
X135370600Y-87888764D01*
X131041658Y-87888764D01*
X130913799Y-87760906D01*
X130902663Y-87747337D01*
X130848516Y-87702899D01*
X130786740Y-87669879D01*
X130719710Y-87649546D01*
X130667463Y-87644400D01*
X130667455Y-87644400D01*
X130650000Y-87642681D01*
X130632545Y-87644400D01*
X130280751Y-87644400D01*
X130280751Y-87500000D01*
X130275356Y-87445228D01*
X130259380Y-87392561D01*
X130233436Y-87344023D01*
X130198521Y-87301479D01*
X130155977Y-87266564D01*
X130107439Y-87240620D01*
X130054772Y-87224644D01*
X130000000Y-87219249D01*
X129712232Y-87219249D01*
X129725812Y-87174482D01*
X129738072Y-87050000D01*
X129735000Y-86810750D01*
X129576250Y-86652000D01*
X128127000Y-86652000D01*
X127873000Y-86652000D01*
X126423750Y-86652000D01*
X126265000Y-86810750D01*
X126263669Y-86914419D01*
X126214250Y-86865000D01*
X126000000Y-86861928D01*
X125875518Y-86874188D01*
X125755820Y-86910498D01*
X125645506Y-86969463D01*
X125548815Y-87048815D01*
X125469463Y-87145506D01*
X125410498Y-87255820D01*
X125374188Y-87375518D01*
X125361928Y-87500000D01*
X122491703Y-87500000D01*
X122551185Y-87451185D01*
X122630537Y-87354494D01*
X122689502Y-87244180D01*
X122725812Y-87124482D01*
X122738072Y-87000000D01*
X122735000Y-86760750D01*
X122576250Y-86602000D01*
X121127000Y-86602000D01*
X120873000Y-86602000D01*
X119423750Y-86602000D01*
X119265000Y-86760750D01*
X119261928Y-87000000D01*
X113036263Y-87000000D01*
X113034972Y-86999138D01*
X112829434Y-86914002D01*
X112611236Y-86870600D01*
X112388764Y-86870600D01*
X112170566Y-86914002D01*
X111965028Y-86999138D01*
X111780049Y-87122737D01*
X111622737Y-87280049D01*
X111499138Y-87465028D01*
X111414002Y-87670566D01*
X111370600Y-87888764D01*
X106629400Y-87888764D01*
X106585998Y-87670566D01*
X106500862Y-87465028D01*
X106377263Y-87280049D01*
X106219951Y-87122737D01*
X106034972Y-86999138D01*
X105829434Y-86914002D01*
X105611236Y-86870600D01*
X105388764Y-86870600D01*
X105170566Y-86914002D01*
X104965028Y-86999138D01*
X104780049Y-87122737D01*
X104622737Y-87280049D01*
X104499138Y-87465028D01*
X104414002Y-87670566D01*
X104370600Y-87888764D01*
X102127000Y-87888764D01*
X102127000Y-84540472D01*
X116195600Y-84540472D01*
X116195600Y-84659528D01*
X116218827Y-84776297D01*
X116264388Y-84886291D01*
X116330532Y-84985282D01*
X116414718Y-85069468D01*
X116513709Y-85135612D01*
X116623703Y-85181173D01*
X116740472Y-85204400D01*
X116859528Y-85204400D01*
X116894541Y-85197435D01*
X116936210Y-85239105D01*
X116947337Y-85252663D01*
X116960895Y-85263790D01*
X116960900Y-85263795D01*
X116987653Y-85285750D01*
X117001484Y-85297101D01*
X117063260Y-85330121D01*
X117130290Y-85350454D01*
X117182537Y-85355600D01*
X117182546Y-85355600D01*
X117199999Y-85357319D01*
X117217452Y-85355600D01*
X118719249Y-85355600D01*
X118719249Y-85500000D01*
X118724644Y-85554772D01*
X118740620Y-85607439D01*
X118766564Y-85655977D01*
X118801479Y-85698521D01*
X118844023Y-85733436D01*
X118892561Y-85759380D01*
X118945228Y-85775356D01*
X119000000Y-85780751D01*
X119287768Y-85780751D01*
X119274188Y-85825518D01*
X119261928Y-85950000D01*
X119265000Y-86189250D01*
X119423750Y-86348000D01*
X120873000Y-86348000D01*
X120873000Y-85473750D01*
X121127000Y-85473750D01*
X121127000Y-86348000D01*
X122576250Y-86348000D01*
X122735000Y-86189250D01*
X122736331Y-86085581D01*
X122785750Y-86135000D01*
X123000000Y-86138072D01*
X123124482Y-86125812D01*
X123244180Y-86089502D01*
X123354494Y-86030537D01*
X123391703Y-86000000D01*
X126261928Y-86000000D01*
X126265000Y-86239250D01*
X126423750Y-86398000D01*
X127873000Y-86398000D01*
X127873000Y-85523750D01*
X128127000Y-85523750D01*
X128127000Y-86398000D01*
X129576250Y-86398000D01*
X129735000Y-86239250D01*
X129738072Y-86000000D01*
X129725812Y-85875518D01*
X129689502Y-85755820D01*
X129630537Y-85645506D01*
X129551185Y-85548815D01*
X129454494Y-85469463D01*
X129344180Y-85410498D01*
X129224482Y-85374188D01*
X129100000Y-85361928D01*
X128285750Y-85365000D01*
X128127000Y-85523750D01*
X127873000Y-85523750D01*
X127714250Y-85365000D01*
X126900000Y-85361928D01*
X126775518Y-85374188D01*
X126655820Y-85410498D01*
X126545506Y-85469463D01*
X126448815Y-85548815D01*
X126369463Y-85645506D01*
X126310498Y-85755820D01*
X126274188Y-85875518D01*
X126261928Y-86000000D01*
X123391703Y-86000000D01*
X123451185Y-85951185D01*
X123530537Y-85854494D01*
X123589502Y-85744180D01*
X123625812Y-85624482D01*
X123638072Y-85500000D01*
X123635000Y-85285750D01*
X123476250Y-85127000D01*
X122627000Y-85127000D01*
X122627000Y-85147000D01*
X122373000Y-85147000D01*
X122373000Y-85127000D01*
X121523750Y-85127000D01*
X121365000Y-85285750D01*
X121364585Y-85314703D01*
X121285750Y-85315000D01*
X121127000Y-85473750D01*
X120873000Y-85473750D01*
X120714250Y-85315000D01*
X120280751Y-85313364D01*
X120280751Y-84686636D01*
X120714250Y-84685000D01*
X120873000Y-84526250D01*
X120873000Y-83652000D01*
X121127000Y-83652000D01*
X121127000Y-84526250D01*
X121285750Y-84685000D01*
X121364585Y-84685297D01*
X121365000Y-84714250D01*
X121523750Y-84873000D01*
X122373000Y-84873000D01*
X122373000Y-84853000D01*
X122627000Y-84853000D01*
X122627000Y-84873000D01*
X123476250Y-84873000D01*
X123635000Y-84714250D01*
X123638072Y-84500000D01*
X123625812Y-84375518D01*
X123589502Y-84255820D01*
X123530537Y-84145506D01*
X123451185Y-84048815D01*
X123354494Y-83969463D01*
X123244180Y-83910498D01*
X123124482Y-83874188D01*
X123000000Y-83861928D01*
X122785750Y-83865000D01*
X122736331Y-83914419D01*
X122735000Y-83810750D01*
X122576250Y-83652000D01*
X121127000Y-83652000D01*
X120873000Y-83652000D01*
X119423750Y-83652000D01*
X119265000Y-83810750D01*
X119261928Y-84050000D01*
X119274188Y-84174482D01*
X119287768Y-84219249D01*
X119000000Y-84219249D01*
X118945228Y-84224644D01*
X118892561Y-84240620D01*
X118844023Y-84266564D01*
X118801479Y-84301479D01*
X118766564Y-84344023D01*
X118740620Y-84392561D01*
X118724644Y-84445228D01*
X118719249Y-84500000D01*
X118719249Y-84644400D01*
X117404400Y-84644400D01*
X117404400Y-84540472D01*
X117381173Y-84423703D01*
X117335612Y-84313709D01*
X117269468Y-84214718D01*
X117185282Y-84130532D01*
X117086291Y-84064388D01*
X116976297Y-84018827D01*
X116859528Y-83995600D01*
X116740472Y-83995600D01*
X116623703Y-84018827D01*
X116513709Y-84064388D01*
X116414718Y-84130532D01*
X116330532Y-84214718D01*
X116264388Y-84313709D01*
X116218827Y-84423703D01*
X116195600Y-84540472D01*
X102127000Y-84540472D01*
X102127000Y-83000000D01*
X119261928Y-83000000D01*
X119265000Y-83239250D01*
X119423750Y-83398000D01*
X120873000Y-83398000D01*
X120873000Y-82523750D01*
X121127000Y-82523750D01*
X121127000Y-83398000D01*
X122576250Y-83398000D01*
X122735000Y-83239250D01*
X122738072Y-83000000D01*
X122725812Y-82875518D01*
X122689502Y-82755820D01*
X122630537Y-82645506D01*
X122551185Y-82548815D01*
X122454494Y-82469463D01*
X122344180Y-82410498D01*
X122224482Y-82374188D01*
X122100000Y-82361928D01*
X121285750Y-82365000D01*
X121127000Y-82523750D01*
X120873000Y-82523750D01*
X120714250Y-82365000D01*
X119900000Y-82361928D01*
X119775518Y-82374188D01*
X119655820Y-82410498D01*
X119545506Y-82469463D01*
X119448815Y-82548815D01*
X119369463Y-82645506D01*
X119310498Y-82755820D01*
X119274188Y-82875518D01*
X119261928Y-83000000D01*
X102127000Y-83000000D01*
X102127000Y-80388764D01*
X102790600Y-80388764D01*
X102790600Y-80611236D01*
X102834002Y-80829434D01*
X102919138Y-81034972D01*
X103042737Y-81219951D01*
X103200049Y-81377263D01*
X103385028Y-81500862D01*
X103590566Y-81585998D01*
X103808764Y-81629400D01*
X104031236Y-81629400D01*
X104249434Y-81585998D01*
X104454972Y-81500862D01*
X104639951Y-81377263D01*
X104797263Y-81219951D01*
X104920862Y-81034972D01*
X105005998Y-80829434D01*
X105049400Y-80611236D01*
X105049400Y-80388764D01*
X105330600Y-80388764D01*
X105330600Y-80611236D01*
X105374002Y-80829434D01*
X105459138Y-81034972D01*
X105582737Y-81219951D01*
X105740049Y-81377263D01*
X105925028Y-81500862D01*
X106130566Y-81585998D01*
X106348764Y-81629400D01*
X106571236Y-81629400D01*
X106789434Y-81585998D01*
X106994972Y-81500862D01*
X107179951Y-81377263D01*
X107337263Y-81219951D01*
X107460862Y-81034972D01*
X107514346Y-80905849D01*
X107511928Y-81350000D01*
X107524188Y-81474482D01*
X107560498Y-81594180D01*
X107619463Y-81704494D01*
X107698815Y-81801185D01*
X107795506Y-81880537D01*
X107905820Y-81939502D01*
X108025518Y-81975812D01*
X108150000Y-81988072D01*
X108714250Y-81985000D01*
X108873000Y-81826250D01*
X108873000Y-80627000D01*
X109127000Y-80627000D01*
X109127000Y-81826250D01*
X109285750Y-81985000D01*
X109850000Y-81988072D01*
X109974482Y-81975812D01*
X110094180Y-81939502D01*
X110204494Y-81880537D01*
X110301185Y-81801185D01*
X110380537Y-81704494D01*
X110439502Y-81594180D01*
X110475812Y-81474482D01*
X110488072Y-81350000D01*
X110485000Y-80785750D01*
X110326250Y-80627000D01*
X109127000Y-80627000D01*
X108873000Y-80627000D01*
X108853000Y-80627000D01*
X108853000Y-80388764D01*
X141330600Y-80388764D01*
X141330600Y-80611236D01*
X141374002Y-80829434D01*
X141459138Y-81034972D01*
X141582737Y-81219951D01*
X141740049Y-81377263D01*
X141925028Y-81500862D01*
X142130566Y-81585998D01*
X142348764Y-81629400D01*
X142571236Y-81629400D01*
X142789434Y-81585998D01*
X142994972Y-81500862D01*
X143179951Y-81377263D01*
X143337263Y-81219951D01*
X143460862Y-81034972D01*
X143514346Y-80905849D01*
X143511928Y-81350000D01*
X143524188Y-81474482D01*
X143560498Y-81594180D01*
X143619463Y-81704494D01*
X143698815Y-81801185D01*
X143795506Y-81880537D01*
X143905820Y-81939502D01*
X144025518Y-81975812D01*
X144150000Y-81988072D01*
X144714250Y-81985000D01*
X144873000Y-81826250D01*
X144873000Y-80627000D01*
X145127000Y-80627000D01*
X145127000Y-81826250D01*
X145285750Y-81985000D01*
X145850000Y-81988072D01*
X145974482Y-81975812D01*
X146094180Y-81939502D01*
X146204494Y-81880537D01*
X146301185Y-81801185D01*
X146380537Y-81704494D01*
X146439502Y-81594180D01*
X146475812Y-81474482D01*
X146488072Y-81350000D01*
X146485000Y-80785750D01*
X146326250Y-80627000D01*
X145127000Y-80627000D01*
X144873000Y-80627000D01*
X144853000Y-80627000D01*
X144853000Y-80373000D01*
X144873000Y-80373000D01*
X144873000Y-79173750D01*
X145127000Y-79173750D01*
X145127000Y-80373000D01*
X146326250Y-80373000D01*
X146485000Y-80214250D01*
X146488072Y-79650000D01*
X146475812Y-79525518D01*
X146439502Y-79405820D01*
X146380537Y-79295506D01*
X146301185Y-79198815D01*
X146204494Y-79119463D01*
X146094180Y-79060498D01*
X145974482Y-79024188D01*
X145850000Y-79011928D01*
X145285750Y-79015000D01*
X145127000Y-79173750D01*
X144873000Y-79173750D01*
X144714250Y-79015000D01*
X144150000Y-79011928D01*
X144025518Y-79024188D01*
X143905820Y-79060498D01*
X143795506Y-79119463D01*
X143698815Y-79198815D01*
X143619463Y-79295506D01*
X143560498Y-79405820D01*
X143524188Y-79525518D01*
X143511928Y-79650000D01*
X143514346Y-80094151D01*
X143460862Y-79965028D01*
X143337263Y-79780049D01*
X143179951Y-79622737D01*
X142994972Y-79499138D01*
X142789434Y-79414002D01*
X142571236Y-79370600D01*
X142348764Y-79370600D01*
X142130566Y-79414002D01*
X141925028Y-79499138D01*
X141740049Y-79622737D01*
X141582737Y-79780049D01*
X141459138Y-79965028D01*
X141374002Y-80170566D01*
X141330600Y-80388764D01*
X108853000Y-80388764D01*
X108853000Y-80373000D01*
X108873000Y-80373000D01*
X108873000Y-79173750D01*
X109127000Y-79173750D01*
X109127000Y-80373000D01*
X110326250Y-80373000D01*
X110485000Y-80214250D01*
X110488072Y-79650000D01*
X110475812Y-79525518D01*
X110439502Y-79405820D01*
X110380537Y-79295506D01*
X110301185Y-79198815D01*
X110204494Y-79119463D01*
X110094180Y-79060498D01*
X109974482Y-79024188D01*
X109850000Y-79011928D01*
X109285750Y-79015000D01*
X109127000Y-79173750D01*
X108873000Y-79173750D01*
X108714250Y-79015000D01*
X108150000Y-79011928D01*
X108025518Y-79024188D01*
X107905820Y-79060498D01*
X107795506Y-79119463D01*
X107698815Y-79198815D01*
X107619463Y-79295506D01*
X107560498Y-79405820D01*
X107524188Y-79525518D01*
X107511928Y-79650000D01*
X107514346Y-80094151D01*
X107460862Y-79965028D01*
X107337263Y-79780049D01*
X107179951Y-79622737D01*
X106994972Y-79499138D01*
X106789434Y-79414002D01*
X106571236Y-79370600D01*
X106348764Y-79370600D01*
X106130566Y-79414002D01*
X105925028Y-79499138D01*
X105740049Y-79622737D01*
X105582737Y-79780049D01*
X105459138Y-79965028D01*
X105374002Y-80170566D01*
X105330600Y-80388764D01*
X105049400Y-80388764D01*
X105005998Y-80170566D01*
X104920862Y-79965028D01*
X104797263Y-79780049D01*
X104639951Y-79622737D01*
X104454972Y-79499138D01*
X104249434Y-79414002D01*
X104031236Y-79370600D01*
X103808764Y-79370600D01*
X103590566Y-79414002D01*
X103385028Y-79499138D01*
X103200049Y-79622737D01*
X103042737Y-79780049D01*
X102919138Y-79965028D01*
X102834002Y-80170566D01*
X102790600Y-80388764D01*
X102127000Y-80388764D01*
X102127000Y-77267499D01*
X113042106Y-77267499D01*
X113258228Y-77634258D01*
X113718105Y-77874938D01*
X114216098Y-78021275D01*
X114733071Y-78067648D01*
X115249159Y-78012273D01*
X115744526Y-77857279D01*
X116161772Y-77634258D01*
X116377894Y-77267499D01*
X114710000Y-75599605D01*
X113042106Y-77267499D01*
X102127000Y-77267499D01*
X102127000Y-74916481D01*
X104263124Y-74916481D01*
X104575308Y-75365177D01*
X105171259Y-75685612D01*
X105818273Y-75883626D01*
X106491484Y-75951610D01*
X107165023Y-75886949D01*
X107813006Y-75692130D01*
X108281739Y-75443071D01*
X112062352Y-75443071D01*
X112117727Y-75959159D01*
X112272721Y-76454526D01*
X112495742Y-76871772D01*
X112862501Y-77087894D01*
X114530395Y-75420000D01*
X114889605Y-75420000D01*
X116557499Y-77087894D01*
X116924258Y-76871772D01*
X116944400Y-76833286D01*
X116944400Y-77082545D01*
X116942681Y-77100000D01*
X116944400Y-77117455D01*
X116944400Y-77117462D01*
X116949546Y-77169709D01*
X116969879Y-77236739D01*
X117002899Y-77298515D01*
X117047337Y-77352662D01*
X117060902Y-77363795D01*
X118036206Y-78339100D01*
X118047337Y-78352663D01*
X118101484Y-78397101D01*
X118163260Y-78430121D01*
X118230290Y-78450454D01*
X118282537Y-78455600D01*
X118282545Y-78455600D01*
X118300000Y-78457319D01*
X118317455Y-78455600D01*
X121936550Y-78455600D01*
X121954005Y-78457319D01*
X121971460Y-78455600D01*
X121971468Y-78455600D01*
X122023715Y-78450454D01*
X122090745Y-78430121D01*
X122152521Y-78397101D01*
X122206668Y-78352663D01*
X122217804Y-78339094D01*
X123859100Y-76697799D01*
X123872663Y-76686668D01*
X123917101Y-76632521D01*
X123950121Y-76570745D01*
X123970454Y-76503715D01*
X123975600Y-76451468D01*
X123975600Y-76451460D01*
X123975990Y-76447499D01*
X128332106Y-76447499D01*
X128548228Y-76814258D01*
X129008105Y-77054938D01*
X129506098Y-77201275D01*
X130023071Y-77247648D01*
X130539159Y-77192273D01*
X131034526Y-77037279D01*
X131451772Y-76814258D01*
X131667894Y-76447499D01*
X130000000Y-74779605D01*
X128332106Y-76447499D01*
X123975990Y-76447499D01*
X123977319Y-76434005D01*
X123975600Y-76416550D01*
X123975600Y-76285515D01*
X124185760Y-76198463D01*
X124381385Y-76067751D01*
X124547751Y-75901385D01*
X124678463Y-75705760D01*
X124768500Y-75488394D01*
X124814400Y-75257638D01*
X124814400Y-75022362D01*
X124768500Y-74791606D01*
X124698690Y-74623071D01*
X127352352Y-74623071D01*
X127407727Y-75139159D01*
X127562721Y-75634526D01*
X127785742Y-76051772D01*
X128152501Y-76267894D01*
X129820395Y-74600000D01*
X130179605Y-74600000D01*
X131847499Y-76267894D01*
X132214258Y-76051772D01*
X132246000Y-75991121D01*
X132246000Y-78487531D01*
X132244772Y-78500000D01*
X132249676Y-78549793D01*
X132264200Y-78597672D01*
X132287786Y-78641797D01*
X132319527Y-78680473D01*
X132358203Y-78712214D01*
X132402328Y-78735800D01*
X132450207Y-78750324D01*
X132500000Y-78755228D01*
X132512468Y-78754000D01*
X137487532Y-78754000D01*
X137500000Y-78755228D01*
X137549793Y-78750324D01*
X137597672Y-78735800D01*
X137641797Y-78712214D01*
X137680473Y-78680473D01*
X137712214Y-78641797D01*
X137735800Y-78597672D01*
X137750324Y-78549793D01*
X137754000Y-78512469D01*
X137754000Y-78512468D01*
X137755228Y-78500000D01*
X137754000Y-78487531D01*
X137754000Y-74916481D01*
X140263124Y-74916481D01*
X140575308Y-75365177D01*
X141171259Y-75685612D01*
X141818273Y-75883626D01*
X142491484Y-75951610D01*
X143165023Y-75886949D01*
X143813006Y-75692130D01*
X144410530Y-75374639D01*
X144424692Y-75365177D01*
X144736876Y-74916481D01*
X142500000Y-72679605D01*
X140263124Y-74916481D01*
X137754000Y-74916481D01*
X137754000Y-72491484D01*
X139048390Y-72491484D01*
X139113051Y-73165023D01*
X139307870Y-73813006D01*
X139625361Y-74410530D01*
X139634823Y-74424692D01*
X140083519Y-74736876D01*
X142320395Y-72500000D01*
X142679605Y-72500000D01*
X144916481Y-74736876D01*
X145365177Y-74424692D01*
X145685612Y-73828741D01*
X145883626Y-73181727D01*
X145951610Y-72508516D01*
X145886949Y-71834977D01*
X145692130Y-71186994D01*
X145374639Y-70589470D01*
X145365177Y-70575308D01*
X144916481Y-70263124D01*
X142679605Y-72500000D01*
X142320395Y-72500000D01*
X140083519Y-70263124D01*
X139634823Y-70575308D01*
X139314388Y-71171259D01*
X139116374Y-71818273D01*
X139048390Y-72491484D01*
X137754000Y-72491484D01*
X137754000Y-70083519D01*
X140263124Y-70083519D01*
X142500000Y-72320395D01*
X144736876Y-70083519D01*
X144424692Y-69634823D01*
X143828741Y-69314388D01*
X143181727Y-69116374D01*
X142508516Y-69048390D01*
X141834977Y-69113051D01*
X141186994Y-69307870D01*
X140589470Y-69625361D01*
X140575308Y-69634823D01*
X140263124Y-70083519D01*
X137754000Y-70083519D01*
X137754000Y-67135413D01*
X138044192Y-67135413D01*
X138139956Y-67399814D01*
X138429571Y-67540704D01*
X138741108Y-67622384D01*
X139062595Y-67641718D01*
X139381675Y-67597961D01*
X139686088Y-67492795D01*
X139860044Y-67399814D01*
X139955808Y-67135413D01*
X144544192Y-67135413D01*
X144639956Y-67399814D01*
X144929571Y-67540704D01*
X145241108Y-67622384D01*
X145562595Y-67641718D01*
X145881675Y-67597961D01*
X146186088Y-67492795D01*
X146360044Y-67399814D01*
X146455808Y-67135413D01*
X145500000Y-66179605D01*
X144544192Y-67135413D01*
X139955808Y-67135413D01*
X139000000Y-66179605D01*
X138044192Y-67135413D01*
X137754000Y-67135413D01*
X137754000Y-66915754D01*
X137864587Y-66955808D01*
X138820395Y-66000000D01*
X139179605Y-66000000D01*
X140135413Y-66955808D01*
X140399814Y-66860044D01*
X140540704Y-66570429D01*
X140622384Y-66258892D01*
X140634189Y-66062595D01*
X143858282Y-66062595D01*
X143902039Y-66381675D01*
X144007205Y-66686088D01*
X144100186Y-66860044D01*
X144364587Y-66955808D01*
X145320395Y-66000000D01*
X144364587Y-65044192D01*
X144100186Y-65139956D01*
X143959296Y-65429571D01*
X143877616Y-65741108D01*
X143858282Y-66062595D01*
X140634189Y-66062595D01*
X140641718Y-65937405D01*
X140597961Y-65618325D01*
X140492795Y-65313912D01*
X140399814Y-65139956D01*
X140135413Y-65044192D01*
X139179605Y-66000000D01*
X138820395Y-66000000D01*
X137864587Y-65044192D01*
X137600186Y-65139956D01*
X137459296Y-65429571D01*
X137377616Y-65741108D01*
X137358282Y-66062595D01*
X137383433Y-66246000D01*
X132512469Y-66246000D01*
X132500000Y-66244772D01*
X132487532Y-66246000D01*
X132487531Y-66246000D01*
X132450207Y-66249676D01*
X132402328Y-66264200D01*
X132358203Y-66287786D01*
X132319527Y-66319527D01*
X132287786Y-66358203D01*
X132264200Y-66402328D01*
X132249676Y-66450207D01*
X132244772Y-66500000D01*
X132246001Y-66512479D01*
X132246000Y-73207614D01*
X132214258Y-73148228D01*
X131847499Y-72932106D01*
X130179605Y-74600000D01*
X129820395Y-74600000D01*
X128152501Y-72932106D01*
X127785742Y-73148228D01*
X127545062Y-73608105D01*
X127398725Y-74106098D01*
X127352352Y-74623071D01*
X124698690Y-74623071D01*
X124678463Y-74574240D01*
X124547751Y-74378615D01*
X124381385Y-74212249D01*
X124185760Y-74081537D01*
X123968394Y-73991500D01*
X123737638Y-73945600D01*
X123502362Y-73945600D01*
X123271606Y-73991500D01*
X123054240Y-74081537D01*
X122858615Y-74212249D01*
X122692249Y-74378615D01*
X122561537Y-74574240D01*
X122471500Y-74791606D01*
X122425600Y-75022362D01*
X122425600Y-75257638D01*
X122471500Y-75488394D01*
X122561537Y-75705760D01*
X122692249Y-75901385D01*
X122858615Y-76067751D01*
X123054240Y-76198463D01*
X123264401Y-76285516D01*
X123264401Y-76286710D01*
X121806712Y-77744400D01*
X118447294Y-77744400D01*
X117655600Y-76952707D01*
X117655600Y-68187293D01*
X120331194Y-65511700D01*
X120510566Y-65585998D01*
X120728764Y-65629400D01*
X120951236Y-65629400D01*
X121169434Y-65585998D01*
X121374972Y-65500862D01*
X121559951Y-65377263D01*
X121717263Y-65219951D01*
X121840862Y-65034972D01*
X121925998Y-64829434D01*
X121969400Y-64611236D01*
X121969400Y-64388764D01*
X121925998Y-64170566D01*
X121840862Y-63965028D01*
X121717263Y-63780049D01*
X121559951Y-63622737D01*
X121374972Y-63499138D01*
X121169434Y-63414002D01*
X120967002Y-63373736D01*
X120967002Y-63280156D01*
X121196890Y-63401476D01*
X121344099Y-63356825D01*
X121606920Y-63231641D01*
X121840269Y-63057588D01*
X122035178Y-62841355D01*
X122110000Y-62715745D01*
X122184822Y-62841355D01*
X122379731Y-63057588D01*
X122613080Y-63231641D01*
X122875901Y-63356825D01*
X123023110Y-63401476D01*
X123252998Y-63280156D01*
X123252998Y-63373736D01*
X123050566Y-63414002D01*
X122845028Y-63499138D01*
X122660049Y-63622737D01*
X122502737Y-63780049D01*
X122379138Y-63965028D01*
X122294002Y-64170566D01*
X122250600Y-64388764D01*
X122250600Y-64611236D01*
X122294002Y-64829434D01*
X122379138Y-65034972D01*
X122502737Y-65219951D01*
X122660049Y-65377263D01*
X122845028Y-65500862D01*
X123024400Y-65575160D01*
X123024400Y-65772706D01*
X117860901Y-70936206D01*
X117847338Y-70947337D01*
X117802900Y-71001484D01*
X117793003Y-71020000D01*
X117769880Y-71063259D01*
X117749546Y-71130290D01*
X117742681Y-71200000D01*
X117744401Y-71217465D01*
X117744400Y-74882544D01*
X117742681Y-74900000D01*
X117744400Y-74917455D01*
X117744400Y-74917462D01*
X117749546Y-74969709D01*
X117769879Y-75036739D01*
X117802899Y-75098515D01*
X117847337Y-75152662D01*
X117860902Y-75163795D01*
X118338552Y-75641446D01*
X118251500Y-75851606D01*
X118205600Y-76082362D01*
X118205600Y-76317638D01*
X118251500Y-76548394D01*
X118341537Y-76765760D01*
X118472249Y-76961385D01*
X118638615Y-77127751D01*
X118834240Y-77258463D01*
X119051606Y-77348500D01*
X119282362Y-77394400D01*
X119517638Y-77394400D01*
X119748394Y-77348500D01*
X119965760Y-77258463D01*
X120161385Y-77127751D01*
X120327751Y-76961385D01*
X120458463Y-76765760D01*
X120548500Y-76548394D01*
X120594400Y-76317638D01*
X120594400Y-76082362D01*
X120548500Y-75851606D01*
X120458463Y-75634240D01*
X120327751Y-75438615D01*
X120161385Y-75272249D01*
X119965760Y-75141537D01*
X119922465Y-75123603D01*
X119998394Y-75108500D01*
X120215760Y-75018463D01*
X120411385Y-74887751D01*
X120577751Y-74721385D01*
X120708463Y-74525760D01*
X120798500Y-74308394D01*
X120844400Y-74077638D01*
X120844400Y-73842362D01*
X120798500Y-73611606D01*
X120708463Y-73394240D01*
X120577751Y-73198615D01*
X120411385Y-73032249D01*
X120215760Y-72901537D01*
X120005600Y-72814485D01*
X120005600Y-72197293D01*
X126159104Y-66043790D01*
X126172662Y-66032663D01*
X126183790Y-66019104D01*
X126183795Y-66019099D01*
X126217100Y-65978517D01*
X126217102Y-65978515D01*
X126245856Y-65924719D01*
X126250120Y-65916742D01*
X126270454Y-65849711D01*
X126275399Y-65799501D01*
X126275600Y-65797463D01*
X126275600Y-65797456D01*
X126277319Y-65780001D01*
X126275600Y-65762545D01*
X126275600Y-65575160D01*
X126454972Y-65500862D01*
X126639951Y-65377263D01*
X126797263Y-65219951D01*
X126920862Y-65034972D01*
X127005998Y-64829434D01*
X127049400Y-64611236D01*
X127049400Y-64388764D01*
X127005998Y-64170566D01*
X126920862Y-63965028D01*
X126797263Y-63780049D01*
X126639951Y-63622737D01*
X126454972Y-63499138D01*
X126249434Y-63414002D01*
X126047002Y-63373736D01*
X126047002Y-63280156D01*
X126276890Y-63401476D01*
X126424099Y-63356825D01*
X126686920Y-63231641D01*
X126920269Y-63057588D01*
X127115178Y-62841355D01*
X127190000Y-62715745D01*
X127264822Y-62841355D01*
X127459731Y-63057588D01*
X127693080Y-63231641D01*
X127955901Y-63356825D01*
X128103110Y-63401476D01*
X128332998Y-63280156D01*
X128332998Y-63373736D01*
X128130566Y-63414002D01*
X127925028Y-63499138D01*
X127740049Y-63622737D01*
X127582737Y-63780049D01*
X127459138Y-63965028D01*
X127374002Y-64170566D01*
X127330600Y-64388764D01*
X127330600Y-64611236D01*
X127374002Y-64829434D01*
X127448300Y-65008806D01*
X121700901Y-70756206D01*
X121687338Y-70767337D01*
X121642900Y-70821484D01*
X121627901Y-70849546D01*
X121609880Y-70883259D01*
X121589546Y-70950290D01*
X121582681Y-71020000D01*
X121584401Y-71037465D01*
X121584401Y-71894485D01*
X121374240Y-71981537D01*
X121178615Y-72112249D01*
X121012249Y-72278615D01*
X120881537Y-72474240D01*
X120791500Y-72691606D01*
X120745600Y-72922362D01*
X120745600Y-73157638D01*
X120791500Y-73388394D01*
X120881537Y-73605760D01*
X121012249Y-73801385D01*
X121178615Y-73967751D01*
X121374240Y-74098463D01*
X121591606Y-74188500D01*
X121822362Y-74234400D01*
X122057638Y-74234400D01*
X122288394Y-74188500D01*
X122505760Y-74098463D01*
X122701385Y-73967751D01*
X122867751Y-73801385D01*
X122998463Y-73605760D01*
X123065290Y-73444426D01*
X123148615Y-73527751D01*
X123344240Y-73658463D01*
X123561606Y-73748500D01*
X123792362Y-73794400D01*
X124027638Y-73794400D01*
X124258394Y-73748500D01*
X124475760Y-73658463D01*
X124671385Y-73527751D01*
X124837751Y-73361385D01*
X124968463Y-73165760D01*
X125055515Y-72955600D01*
X125186550Y-72955600D01*
X125204005Y-72957319D01*
X125221460Y-72955600D01*
X125221468Y-72955600D01*
X125273715Y-72950454D01*
X125340745Y-72930121D01*
X125402521Y-72897101D01*
X125456668Y-72852663D01*
X125467804Y-72839094D01*
X125554397Y-72752501D01*
X128332106Y-72752501D01*
X130000000Y-74420395D01*
X131667894Y-72752501D01*
X131451772Y-72385742D01*
X130991895Y-72145062D01*
X130493902Y-71998725D01*
X129976929Y-71952352D01*
X129460841Y-72007727D01*
X128965474Y-72162721D01*
X128548228Y-72385742D01*
X128332106Y-72752501D01*
X125554397Y-72752501D01*
X131239104Y-67067795D01*
X131252662Y-67056668D01*
X131263790Y-67043109D01*
X131263795Y-67043104D01*
X131279438Y-67024043D01*
X131297101Y-67002521D01*
X131330121Y-66940745D01*
X131350454Y-66873715D01*
X131355600Y-66821468D01*
X131355600Y-66821460D01*
X131357319Y-66804005D01*
X131355600Y-66786550D01*
X131355600Y-65630751D01*
X131850000Y-65630751D01*
X131904772Y-65625356D01*
X131957439Y-65609380D01*
X132005977Y-65583436D01*
X132048521Y-65548521D01*
X132083436Y-65505977D01*
X132109380Y-65457439D01*
X132125356Y-65404772D01*
X132130751Y-65350000D01*
X132130751Y-64864587D01*
X138044192Y-64864587D01*
X139000000Y-65820395D01*
X139955808Y-64864587D01*
X144544192Y-64864587D01*
X145500000Y-65820395D01*
X146455808Y-64864587D01*
X146360044Y-64600186D01*
X146070429Y-64459296D01*
X145758892Y-64377616D01*
X145437405Y-64358282D01*
X145118325Y-64402039D01*
X144813912Y-64507205D01*
X144639956Y-64600186D01*
X144544192Y-64864587D01*
X139955808Y-64864587D01*
X139860044Y-64600186D01*
X139570429Y-64459296D01*
X139258892Y-64377616D01*
X138937405Y-64358282D01*
X138618325Y-64402039D01*
X138313912Y-64507205D01*
X138139956Y-64600186D01*
X138044192Y-64864587D01*
X132130751Y-64864587D01*
X132130751Y-63650000D01*
X132125356Y-63595228D01*
X132109380Y-63542561D01*
X132083436Y-63494023D01*
X132048521Y-63451479D01*
X132005977Y-63416564D01*
X131957439Y-63390620D01*
X131904772Y-63374644D01*
X131850000Y-63369249D01*
X131463139Y-63369249D01*
X131504099Y-63356825D01*
X131766920Y-63231641D01*
X132000269Y-63057588D01*
X132195178Y-62841355D01*
X132344157Y-62591252D01*
X132441481Y-62316891D01*
X132320814Y-62087000D01*
X131127000Y-62087000D01*
X131127000Y-62107000D01*
X130873000Y-62107000D01*
X130873000Y-62087000D01*
X128587000Y-62087000D01*
X128587000Y-62107000D01*
X128333000Y-62107000D01*
X128333000Y-62087000D01*
X126047000Y-62087000D01*
X126047000Y-62107000D01*
X125793000Y-62107000D01*
X125793000Y-62087000D01*
X123507000Y-62087000D01*
X123507000Y-62107000D01*
X123253000Y-62107000D01*
X123253000Y-62087000D01*
X120967000Y-62087000D01*
X120967000Y-62107000D01*
X120713000Y-62107000D01*
X120713000Y-62087000D01*
X118427000Y-62087000D01*
X118427000Y-64373000D01*
X118447000Y-64373000D01*
X118447000Y-64627000D01*
X118427000Y-64627000D01*
X118427000Y-65820155D01*
X118656890Y-65941476D01*
X118804099Y-65896825D01*
X119064142Y-65772964D01*
X117060901Y-67776206D01*
X117047338Y-67787337D01*
X117002900Y-67841484D01*
X116986390Y-67872372D01*
X116969880Y-67903259D01*
X116949546Y-67970290D01*
X116942681Y-68040000D01*
X116944401Y-68057466D01*
X116944400Y-74005912D01*
X116924258Y-73968228D01*
X116557499Y-73752106D01*
X114889605Y-75420000D01*
X114530395Y-75420000D01*
X112862501Y-73752106D01*
X112495742Y-73968228D01*
X112255062Y-74428105D01*
X112108725Y-74926098D01*
X112062352Y-75443071D01*
X108281739Y-75443071D01*
X108410530Y-75374639D01*
X108424692Y-75365177D01*
X108736876Y-74916481D01*
X106500000Y-72679605D01*
X104263124Y-74916481D01*
X102127000Y-74916481D01*
X102127000Y-72491484D01*
X103048390Y-72491484D01*
X103113051Y-73165023D01*
X103307870Y-73813006D01*
X103625361Y-74410530D01*
X103634823Y-74424692D01*
X104083519Y-74736876D01*
X106320395Y-72500000D01*
X106679605Y-72500000D01*
X108916481Y-74736876D01*
X109365177Y-74424692D01*
X109685612Y-73828741D01*
X109764032Y-73572501D01*
X113042106Y-73572501D01*
X114710000Y-75240395D01*
X116377894Y-73572501D01*
X116161772Y-73205742D01*
X115701895Y-72965062D01*
X115203902Y-72818725D01*
X114686929Y-72772352D01*
X114170841Y-72827727D01*
X113675474Y-72982721D01*
X113258228Y-73205742D01*
X113042106Y-73572501D01*
X109764032Y-73572501D01*
X109883626Y-73181727D01*
X109951610Y-72508516D01*
X109886949Y-71834977D01*
X109692130Y-71186994D01*
X109374639Y-70589470D01*
X109365177Y-70575308D01*
X108916481Y-70263124D01*
X106679605Y-72500000D01*
X106320395Y-72500000D01*
X104083519Y-70263124D01*
X103634823Y-70575308D01*
X103314388Y-71171259D01*
X103116374Y-71818273D01*
X103048390Y-72491484D01*
X102127000Y-72491484D01*
X102127000Y-70083519D01*
X104263124Y-70083519D01*
X106500000Y-72320395D01*
X108736876Y-70083519D01*
X108424692Y-69634823D01*
X107828741Y-69314388D01*
X107181727Y-69116374D01*
X106508516Y-69048390D01*
X105834977Y-69113051D01*
X105186994Y-69307870D01*
X104589470Y-69625361D01*
X104575308Y-69634823D01*
X104263124Y-70083519D01*
X102127000Y-70083519D01*
X102127000Y-65873990D01*
X102220600Y-65873990D01*
X102220600Y-66126010D01*
X102269767Y-66373187D01*
X102366211Y-66606023D01*
X102506225Y-66815570D01*
X102684430Y-66993775D01*
X102893977Y-67133789D01*
X103126813Y-67230233D01*
X103373990Y-67279400D01*
X103626010Y-67279400D01*
X103873187Y-67230233D01*
X104106023Y-67133789D01*
X104315570Y-66993775D01*
X104493775Y-66815570D01*
X104633789Y-66606023D01*
X104730233Y-66373187D01*
X104779400Y-66126010D01*
X104779400Y-65873990D01*
X108720600Y-65873990D01*
X108720600Y-66126010D01*
X108769767Y-66373187D01*
X108866211Y-66606023D01*
X109006225Y-66815570D01*
X109184430Y-66993775D01*
X109393977Y-67133789D01*
X109626813Y-67230233D01*
X109873990Y-67279400D01*
X110126010Y-67279400D01*
X110373187Y-67230233D01*
X110606023Y-67133789D01*
X110815570Y-66993775D01*
X110993775Y-66815570D01*
X111133789Y-66606023D01*
X111230233Y-66373187D01*
X111279400Y-66126010D01*
X111279400Y-65873990D01*
X111230233Y-65626813D01*
X111133789Y-65393977D01*
X110993775Y-65184430D01*
X110815570Y-65006225D01*
X110606023Y-64866211D01*
X110583523Y-64856891D01*
X116858519Y-64856891D01*
X116955843Y-65131252D01*
X117104822Y-65381355D01*
X117299731Y-65597588D01*
X117533080Y-65771641D01*
X117795901Y-65896825D01*
X117943110Y-65941476D01*
X118173000Y-65820155D01*
X118173000Y-64627000D01*
X116979186Y-64627000D01*
X116858519Y-64856891D01*
X110583523Y-64856891D01*
X110373187Y-64769767D01*
X110126010Y-64720600D01*
X109873990Y-64720600D01*
X109626813Y-64769767D01*
X109393977Y-64866211D01*
X109184430Y-65006225D01*
X109006225Y-65184430D01*
X108866211Y-65393977D01*
X108769767Y-65626813D01*
X108720600Y-65873990D01*
X104779400Y-65873990D01*
X104730233Y-65626813D01*
X104633789Y-65393977D01*
X104493775Y-65184430D01*
X104315570Y-65006225D01*
X104106023Y-64866211D01*
X103873187Y-64769767D01*
X103626010Y-64720600D01*
X103373990Y-64720600D01*
X103126813Y-64769767D01*
X102893977Y-64866211D01*
X102684430Y-65006225D01*
X102506225Y-65184430D01*
X102366211Y-65393977D01*
X102269767Y-65626813D01*
X102220600Y-65873990D01*
X102127000Y-65873990D01*
X102127000Y-61373990D01*
X102220600Y-61373990D01*
X102220600Y-61626010D01*
X102269767Y-61873187D01*
X102366211Y-62106023D01*
X102506225Y-62315570D01*
X102684430Y-62493775D01*
X102893977Y-62633789D01*
X103126813Y-62730233D01*
X103373990Y-62779400D01*
X103626010Y-62779400D01*
X103873187Y-62730233D01*
X104106023Y-62633789D01*
X104315570Y-62493775D01*
X104493775Y-62315570D01*
X104633789Y-62106023D01*
X104730233Y-61873187D01*
X104779400Y-61626010D01*
X104779400Y-61373990D01*
X108720600Y-61373990D01*
X108720600Y-61626010D01*
X108769767Y-61873187D01*
X108866211Y-62106023D01*
X109006225Y-62315570D01*
X109184430Y-62493775D01*
X109393977Y-62633789D01*
X109626813Y-62730233D01*
X109873990Y-62779400D01*
X110126010Y-62779400D01*
X110373187Y-62730233D01*
X110606023Y-62633789D01*
X110815570Y-62493775D01*
X110992454Y-62316891D01*
X116858519Y-62316891D01*
X116955843Y-62591252D01*
X117104822Y-62841355D01*
X117299731Y-63057588D01*
X117530880Y-63230000D01*
X117299731Y-63402412D01*
X117104822Y-63618645D01*
X116955843Y-63868748D01*
X116858519Y-64143109D01*
X116979186Y-64373000D01*
X118173000Y-64373000D01*
X118173000Y-62087000D01*
X116979186Y-62087000D01*
X116858519Y-62316891D01*
X110992454Y-62316891D01*
X110993775Y-62315570D01*
X111133789Y-62106023D01*
X111230233Y-61873187D01*
X111279400Y-61626010D01*
X111279400Y-61603109D01*
X116858519Y-61603109D01*
X116979186Y-61833000D01*
X118173000Y-61833000D01*
X118173000Y-60639845D01*
X118427000Y-60639845D01*
X118427000Y-61833000D01*
X120713000Y-61833000D01*
X120713000Y-60639845D01*
X120967000Y-60639845D01*
X120967000Y-61833000D01*
X123253000Y-61833000D01*
X123253000Y-60639845D01*
X123507000Y-60639845D01*
X123507000Y-61833000D01*
X125793000Y-61833000D01*
X125793000Y-60639845D01*
X126047000Y-60639845D01*
X126047000Y-61833000D01*
X128333000Y-61833000D01*
X128333000Y-60639845D01*
X128587000Y-60639845D01*
X128587000Y-61833000D01*
X130873000Y-61833000D01*
X130873000Y-60639845D01*
X131127000Y-60639845D01*
X131127000Y-61833000D01*
X132320814Y-61833000D01*
X132441481Y-61603109D01*
X132360206Y-61373990D01*
X137720600Y-61373990D01*
X137720600Y-61626010D01*
X137769767Y-61873187D01*
X137866211Y-62106023D01*
X138006225Y-62315570D01*
X138184430Y-62493775D01*
X138393977Y-62633789D01*
X138626813Y-62730233D01*
X138873990Y-62779400D01*
X139126010Y-62779400D01*
X139373187Y-62730233D01*
X139606023Y-62633789D01*
X139815570Y-62493775D01*
X139993775Y-62315570D01*
X140133789Y-62106023D01*
X140230233Y-61873187D01*
X140279400Y-61626010D01*
X140279400Y-61373990D01*
X144220600Y-61373990D01*
X144220600Y-61626010D01*
X144269767Y-61873187D01*
X144366211Y-62106023D01*
X144506225Y-62315570D01*
X144684430Y-62493775D01*
X144893977Y-62633789D01*
X145126813Y-62730233D01*
X145373990Y-62779400D01*
X145626010Y-62779400D01*
X145873187Y-62730233D01*
X146106023Y-62633789D01*
X146315570Y-62493775D01*
X146493775Y-62315570D01*
X146633789Y-62106023D01*
X146730233Y-61873187D01*
X146779400Y-61626010D01*
X146779400Y-61373990D01*
X146730233Y-61126813D01*
X146633789Y-60893977D01*
X146493775Y-60684430D01*
X146315570Y-60506225D01*
X146106023Y-60366211D01*
X145873187Y-60269767D01*
X145626010Y-60220600D01*
X145373990Y-60220600D01*
X145126813Y-60269767D01*
X144893977Y-60366211D01*
X144684430Y-60506225D01*
X144506225Y-60684430D01*
X144366211Y-60893977D01*
X144269767Y-61126813D01*
X144220600Y-61373990D01*
X140279400Y-61373990D01*
X140230233Y-61126813D01*
X140133789Y-60893977D01*
X139993775Y-60684430D01*
X139815570Y-60506225D01*
X139606023Y-60366211D01*
X139373187Y-60269767D01*
X139126010Y-60220600D01*
X138873990Y-60220600D01*
X138626813Y-60269767D01*
X138393977Y-60366211D01*
X138184430Y-60506225D01*
X138006225Y-60684430D01*
X137866211Y-60893977D01*
X137769767Y-61126813D01*
X137720600Y-61373990D01*
X132360206Y-61373990D01*
X132344157Y-61328748D01*
X132195178Y-61078645D01*
X132000269Y-60862412D01*
X131766920Y-60688359D01*
X131504099Y-60563175D01*
X131356890Y-60518524D01*
X131127000Y-60639845D01*
X130873000Y-60639845D01*
X130643110Y-60518524D01*
X130495901Y-60563175D01*
X130233080Y-60688359D01*
X129999731Y-60862412D01*
X129804822Y-61078645D01*
X129730000Y-61204255D01*
X129655178Y-61078645D01*
X129460269Y-60862412D01*
X129226920Y-60688359D01*
X128964099Y-60563175D01*
X128816890Y-60518524D01*
X128587000Y-60639845D01*
X128333000Y-60639845D01*
X128103110Y-60518524D01*
X127955901Y-60563175D01*
X127693080Y-60688359D01*
X127459731Y-60862412D01*
X127264822Y-61078645D01*
X127190000Y-61204255D01*
X127115178Y-61078645D01*
X126920269Y-60862412D01*
X126686920Y-60688359D01*
X126424099Y-60563175D01*
X126276890Y-60518524D01*
X126047000Y-60639845D01*
X125793000Y-60639845D01*
X125563110Y-60518524D01*
X125415901Y-60563175D01*
X125153080Y-60688359D01*
X124919731Y-60862412D01*
X124724822Y-61078645D01*
X124650000Y-61204255D01*
X124575178Y-61078645D01*
X124380269Y-60862412D01*
X124146920Y-60688359D01*
X123884099Y-60563175D01*
X123736890Y-60518524D01*
X123507000Y-60639845D01*
X123253000Y-60639845D01*
X123023110Y-60518524D01*
X122875901Y-60563175D01*
X122613080Y-60688359D01*
X122379731Y-60862412D01*
X122184822Y-61078645D01*
X122110000Y-61204255D01*
X122035178Y-61078645D01*
X121840269Y-60862412D01*
X121606920Y-60688359D01*
X121344099Y-60563175D01*
X121196890Y-60518524D01*
X120967000Y-60639845D01*
X120713000Y-60639845D01*
X120483110Y-60518524D01*
X120335901Y-60563175D01*
X120073080Y-60688359D01*
X119839731Y-60862412D01*
X119644822Y-61078645D01*
X119570000Y-61204255D01*
X119495178Y-61078645D01*
X119300269Y-60862412D01*
X119066920Y-60688359D01*
X118804099Y-60563175D01*
X118656890Y-60518524D01*
X118427000Y-60639845D01*
X118173000Y-60639845D01*
X117943110Y-60518524D01*
X117795901Y-60563175D01*
X117533080Y-60688359D01*
X117299731Y-60862412D01*
X117104822Y-61078645D01*
X116955843Y-61328748D01*
X116858519Y-61603109D01*
X111279400Y-61603109D01*
X111279400Y-61373990D01*
X111230233Y-61126813D01*
X111133789Y-60893977D01*
X110993775Y-60684430D01*
X110815570Y-60506225D01*
X110606023Y-60366211D01*
X110373187Y-60269767D01*
X110126010Y-60220600D01*
X109873990Y-60220600D01*
X109626813Y-60269767D01*
X109393977Y-60366211D01*
X109184430Y-60506225D01*
X109006225Y-60684430D01*
X108866211Y-60893977D01*
X108769767Y-61126813D01*
X108720600Y-61373990D01*
X104779400Y-61373990D01*
X104730233Y-61126813D01*
X104633789Y-60893977D01*
X104493775Y-60684430D01*
X104315570Y-60506225D01*
X104106023Y-60366211D01*
X103873187Y-60269767D01*
X103626010Y-60220600D01*
X103373990Y-60220600D01*
X103126813Y-60269767D01*
X102893977Y-60366211D01*
X102684430Y-60506225D01*
X102506225Y-60684430D01*
X102366211Y-60893977D01*
X102269767Y-61126813D01*
X102220600Y-61373990D01*
X102127000Y-61373990D01*
X102127000Y-60127000D01*
X146873000Y-60127000D01*
X146873000Y-65130244D01*
G36*
X124724822Y-62841355D02*
G01*
X124919731Y-63057588D01*
X125153080Y-63231641D01*
X125415901Y-63356825D01*
X125563110Y-63401476D01*
X125792998Y-63280156D01*
X125792998Y-63373736D01*
X125590566Y-63414002D01*
X125385028Y-63499138D01*
X125200049Y-63622737D01*
X125042737Y-63780049D01*
X124919138Y-63965028D01*
X124834002Y-64170566D01*
X124790600Y-64388764D01*
X124790600Y-64611236D01*
X124834002Y-64829434D01*
X124919138Y-65034972D01*
X125042737Y-65219951D01*
X125200049Y-65377263D01*
X125385028Y-65500862D01*
X125564400Y-65575160D01*
X125564400Y-65632706D01*
X119410901Y-71786206D01*
X119397338Y-71797337D01*
X119352900Y-71851484D01*
X119336390Y-71882372D01*
X119319880Y-71913259D01*
X119299546Y-71980290D01*
X119292681Y-72050000D01*
X119294401Y-72067465D01*
X119294401Y-72814485D01*
X119084240Y-72901537D01*
X118888615Y-73032249D01*
X118722249Y-73198615D01*
X118591537Y-73394240D01*
X118501500Y-73611606D01*
X118455600Y-73842362D01*
X118455600Y-71347293D01*
X123619104Y-66183790D01*
X123632662Y-66172663D01*
X123643790Y-66159104D01*
X123643795Y-66159099D01*
X123677101Y-66118516D01*
X123681588Y-66110121D01*
X123710121Y-66056740D01*
X123730454Y-65989710D01*
X123735600Y-65937463D01*
X123735600Y-65937455D01*
X123737319Y-65920000D01*
X123735600Y-65902545D01*
X123735600Y-65575160D01*
X123914972Y-65500862D01*
X124099951Y-65377263D01*
X124257263Y-65219951D01*
X124380862Y-65034972D01*
X124465998Y-64829434D01*
X124509400Y-64611236D01*
X124509400Y-64388764D01*
X124465998Y-64170566D01*
X124380862Y-63965028D01*
X124257263Y-63780049D01*
X124099951Y-63622737D01*
X123914972Y-63499138D01*
X123709434Y-63414002D01*
X123507002Y-63373736D01*
X123507002Y-63280156D01*
X123736890Y-63401476D01*
X123884099Y-63356825D01*
X124146920Y-63231641D01*
X124380269Y-63057588D01*
X124575178Y-62841355D01*
X124650000Y-62715745D01*
X124724822Y-62841355D01*
G37*
X124724822Y-62841355D02*
X124919731Y-63057588D01*
X125153080Y-63231641D01*
X125415901Y-63356825D01*
X125563110Y-63401476D01*
X125792998Y-63280156D01*
X125792998Y-63373736D01*
X125590566Y-63414002D01*
X125385028Y-63499138D01*
X125200049Y-63622737D01*
X125042737Y-63780049D01*
X124919138Y-63965028D01*
X124834002Y-64170566D01*
X124790600Y-64388764D01*
X124790600Y-64611236D01*
X124834002Y-64829434D01*
X124919138Y-65034972D01*
X125042737Y-65219951D01*
X125200049Y-65377263D01*
X125385028Y-65500862D01*
X125564400Y-65575160D01*
X125564400Y-65632706D01*
X119410901Y-71786206D01*
X119397338Y-71797337D01*
X119352900Y-71851484D01*
X119336390Y-71882372D01*
X119319880Y-71913259D01*
X119299546Y-71980290D01*
X119292681Y-72050000D01*
X119294401Y-72067465D01*
X119294401Y-72814485D01*
X119084240Y-72901537D01*
X118888615Y-73032249D01*
X118722249Y-73198615D01*
X118591537Y-73394240D01*
X118501500Y-73611606D01*
X118455600Y-73842362D01*
X118455600Y-71347293D01*
X123619104Y-66183790D01*
X123632662Y-66172663D01*
X123643790Y-66159104D01*
X123643795Y-66159099D01*
X123677101Y-66118516D01*
X123681588Y-66110121D01*
X123710121Y-66056740D01*
X123730454Y-65989710D01*
X123735600Y-65937463D01*
X123735600Y-65937455D01*
X123737319Y-65920000D01*
X123735600Y-65902545D01*
X123735600Y-65575160D01*
X123914972Y-65500862D01*
X124099951Y-65377263D01*
X124257263Y-65219951D01*
X124380862Y-65034972D01*
X124465998Y-64829434D01*
X124509400Y-64611236D01*
X124509400Y-64388764D01*
X124465998Y-64170566D01*
X124380862Y-63965028D01*
X124257263Y-63780049D01*
X124099951Y-63622737D01*
X123914972Y-63499138D01*
X123709434Y-63414002D01*
X123507002Y-63373736D01*
X123507002Y-63280156D01*
X123736890Y-63401476D01*
X123884099Y-63356825D01*
X124146920Y-63231641D01*
X124380269Y-63057588D01*
X124575178Y-62841355D01*
X124650000Y-62715745D01*
X124724822Y-62841355D01*
G36*
X129804822Y-62841355D02*
G01*
X129999731Y-63057588D01*
X130233080Y-63231641D01*
X130495901Y-63356825D01*
X130536861Y-63369249D01*
X130150000Y-63369249D01*
X130095228Y-63374644D01*
X130042561Y-63390620D01*
X129994023Y-63416564D01*
X129951479Y-63451479D01*
X129916564Y-63494023D01*
X129890620Y-63542561D01*
X129874644Y-63595228D01*
X129869249Y-63650000D01*
X129869249Y-65350000D01*
X129874644Y-65404772D01*
X129890620Y-65457439D01*
X129916564Y-65505977D01*
X129951479Y-65548521D01*
X129994023Y-65583436D01*
X130042561Y-65609380D01*
X130095228Y-65625356D01*
X130150000Y-65630751D01*
X130644401Y-65630751D01*
X130644400Y-66656711D01*
X125056712Y-72244400D01*
X125055515Y-72244400D01*
X124968463Y-72034240D01*
X124837751Y-71838615D01*
X124671385Y-71672249D01*
X124475760Y-71541537D01*
X124258394Y-71451500D01*
X124027638Y-71405600D01*
X123792362Y-71405600D01*
X123561606Y-71451500D01*
X123344240Y-71541537D01*
X123148615Y-71672249D01*
X122982249Y-71838615D01*
X122851537Y-72034240D01*
X122784710Y-72195574D01*
X122701385Y-72112249D01*
X122505760Y-71981537D01*
X122295600Y-71894485D01*
X122295600Y-71167293D01*
X127951194Y-65511700D01*
X128130566Y-65585998D01*
X128348764Y-65629400D01*
X128571236Y-65629400D01*
X128789434Y-65585998D01*
X128994972Y-65500862D01*
X129179951Y-65377263D01*
X129337263Y-65219951D01*
X129460862Y-65034972D01*
X129545998Y-64829434D01*
X129589400Y-64611236D01*
X129589400Y-64388764D01*
X129545998Y-64170566D01*
X129460862Y-63965028D01*
X129337263Y-63780049D01*
X129179951Y-63622737D01*
X128994972Y-63499138D01*
X128789434Y-63414002D01*
X128587002Y-63373736D01*
X128587002Y-63280156D01*
X128816890Y-63401476D01*
X128964099Y-63356825D01*
X129226920Y-63231641D01*
X129460269Y-63057588D01*
X129655178Y-62841355D01*
X129730000Y-62715745D01*
X129804822Y-62841355D01*
G37*
X129804822Y-62841355D02*
X129999731Y-63057588D01*
X130233080Y-63231641D01*
X130495901Y-63356825D01*
X130536861Y-63369249D01*
X130150000Y-63369249D01*
X130095228Y-63374644D01*
X130042561Y-63390620D01*
X129994023Y-63416564D01*
X129951479Y-63451479D01*
X129916564Y-63494023D01*
X129890620Y-63542561D01*
X129874644Y-63595228D01*
X129869249Y-63650000D01*
X129869249Y-65350000D01*
X129874644Y-65404772D01*
X129890620Y-65457439D01*
X129916564Y-65505977D01*
X129951479Y-65548521D01*
X129994023Y-65583436D01*
X130042561Y-65609380D01*
X130095228Y-65625356D01*
X130150000Y-65630751D01*
X130644401Y-65630751D01*
X130644400Y-66656711D01*
X125056712Y-72244400D01*
X125055515Y-72244400D01*
X124968463Y-72034240D01*
X124837751Y-71838615D01*
X124671385Y-71672249D01*
X124475760Y-71541537D01*
X124258394Y-71451500D01*
X124027638Y-71405600D01*
X123792362Y-71405600D01*
X123561606Y-71451500D01*
X123344240Y-71541537D01*
X123148615Y-71672249D01*
X122982249Y-71838615D01*
X122851537Y-72034240D01*
X122784710Y-72195574D01*
X122701385Y-72112249D01*
X122505760Y-71981537D01*
X122295600Y-71894485D01*
X122295600Y-71167293D01*
X127951194Y-65511700D01*
X128130566Y-65585998D01*
X128348764Y-65629400D01*
X128571236Y-65629400D01*
X128789434Y-65585998D01*
X128994972Y-65500862D01*
X129179951Y-65377263D01*
X129337263Y-65219951D01*
X129460862Y-65034972D01*
X129545998Y-64829434D01*
X129589400Y-64611236D01*
X129589400Y-64388764D01*
X129545998Y-64170566D01*
X129460862Y-63965028D01*
X129337263Y-63780049D01*
X129179951Y-63622737D01*
X128994972Y-63499138D01*
X128789434Y-63414002D01*
X128587002Y-63373736D01*
X128587002Y-63280156D01*
X128816890Y-63401476D01*
X128964099Y-63356825D01*
X129226920Y-63231641D01*
X129460269Y-63057588D01*
X129655178Y-62841355D01*
X129730000Y-62715745D01*
X129804822Y-62841355D01*
M02*
