M48
; DRILL file {KiCad (5.1.5-0-10_14)} date Friday, 13 March 2020 at 23:13:15
; FORMAT={-:-/ absolute / inch / decimal}
; #@! TF.CreationDate,2020-03-13T23:13:15-07:00
; #@! TF.GenerationSoftware,Kicad,Pcbnew,(5.1.5-0-10_14)
; #@! TF.FileFunction,Plated,1,2,PTH
FMAT,2
INCH
T1C0.0350
T2C0.0394
T3C0.0709
T4C0.0791
T5C0.0866
%
G90
G05
T1
X3.73Y-2.64
X3.83Y-2.64
T2
X2.88Y-3.39
X3.0276Y-3.39
X3.1753Y-3.39
X3.68Y-3.39
X3.8276Y-3.39
X3.9753Y-3.39
X4.4824Y-3.39
X4.63Y-3.39
X4.7776Y-3.39
X2.93Y-2.46
X3.03Y-2.46
X3.13Y-2.46
T4
X3.63Y-2.44
X4.03Y-2.44
T5
X3.83Y-4.01
X3.03Y-4.01
X4.63Y-4.01
T3
G00X2.8229Y-3.0426
M15
G01X2.8229Y-3.0819
M16
G05
G00X3.2324Y-3.0426
M15
G01X3.2324Y-3.0819
M16
G05
G00X3.6229Y-3.0426
M15
G01X3.6229Y-3.0819
M16
G05
G00X4.0324Y-3.0426
M15
G01X4.0324Y-3.0819
M16
G05
G00X4.4253Y-3.0426
M15
G01X4.4253Y-3.0819
M16
G05
G00X4.8347Y-3.0426
M15
G01X4.8347Y-3.0819
M16
G05
T0
M30
