G04 #@! TF.GenerationSoftware,KiCad,Pcbnew,(5.1.5-0-10_14)*
G04 #@! TF.CreationDate,2020-03-13T23:12:58-07:00*
G04 #@! TF.ProjectId,SigGenAdapter,53696747-656e-4416-9461-707465722e6b,rev?*
G04 #@! TF.SameCoordinates,Original*
G04 #@! TF.FileFunction,Paste,Top*
G04 #@! TF.FilePolarity,Positive*
%FSLAX46Y46*%
G04 Gerber Fmt 4.6, Leading zero omitted, Abs format (unit mm)*
G04 Created by KiCad (PCBNEW (5.1.5-0-10_14)) date 2020-03-13 23:12:58*
%MOMM*%
%LPD*%
G04 APERTURE LIST*
%ADD10C,0.100000*%
G04 APERTURE END LIST*
D10*
G36*
X77735691Y-88680053D02*
G01*
X77756926Y-88683203D01*
X77777750Y-88688419D01*
X77797962Y-88695651D01*
X77817368Y-88704830D01*
X77835781Y-88715866D01*
X77853024Y-88728654D01*
X77868930Y-88743070D01*
X77883346Y-88758976D01*
X77896134Y-88776219D01*
X77907170Y-88794632D01*
X77916349Y-88814038D01*
X77923581Y-88834250D01*
X77928797Y-88855074D01*
X77931947Y-88876309D01*
X77933000Y-88897750D01*
X77933000Y-89410250D01*
X77931947Y-89431691D01*
X77928797Y-89452926D01*
X77923581Y-89473750D01*
X77916349Y-89493962D01*
X77907170Y-89513368D01*
X77896134Y-89531781D01*
X77883346Y-89549024D01*
X77868930Y-89564930D01*
X77853024Y-89579346D01*
X77835781Y-89592134D01*
X77817368Y-89603170D01*
X77797962Y-89612349D01*
X77777750Y-89619581D01*
X77756926Y-89624797D01*
X77735691Y-89627947D01*
X77714250Y-89629000D01*
X77276750Y-89629000D01*
X77255309Y-89627947D01*
X77234074Y-89624797D01*
X77213250Y-89619581D01*
X77193038Y-89612349D01*
X77173632Y-89603170D01*
X77155219Y-89592134D01*
X77137976Y-89579346D01*
X77122070Y-89564930D01*
X77107654Y-89549024D01*
X77094866Y-89531781D01*
X77083830Y-89513368D01*
X77074651Y-89493962D01*
X77067419Y-89473750D01*
X77062203Y-89452926D01*
X77059053Y-89431691D01*
X77058000Y-89410250D01*
X77058000Y-88897750D01*
X77059053Y-88876309D01*
X77062203Y-88855074D01*
X77067419Y-88834250D01*
X77074651Y-88814038D01*
X77083830Y-88794632D01*
X77094866Y-88776219D01*
X77107654Y-88758976D01*
X77122070Y-88743070D01*
X77137976Y-88728654D01*
X77155219Y-88715866D01*
X77173632Y-88704830D01*
X77193038Y-88695651D01*
X77213250Y-88688419D01*
X77234074Y-88683203D01*
X77255309Y-88680053D01*
X77276750Y-88679000D01*
X77714250Y-88679000D01*
X77735691Y-88680053D01*
G37*
G36*
X76160691Y-88680053D02*
G01*
X76181926Y-88683203D01*
X76202750Y-88688419D01*
X76222962Y-88695651D01*
X76242368Y-88704830D01*
X76260781Y-88715866D01*
X76278024Y-88728654D01*
X76293930Y-88743070D01*
X76308346Y-88758976D01*
X76321134Y-88776219D01*
X76332170Y-88794632D01*
X76341349Y-88814038D01*
X76348581Y-88834250D01*
X76353797Y-88855074D01*
X76356947Y-88876309D01*
X76358000Y-88897750D01*
X76358000Y-89410250D01*
X76356947Y-89431691D01*
X76353797Y-89452926D01*
X76348581Y-89473750D01*
X76341349Y-89493962D01*
X76332170Y-89513368D01*
X76321134Y-89531781D01*
X76308346Y-89549024D01*
X76293930Y-89564930D01*
X76278024Y-89579346D01*
X76260781Y-89592134D01*
X76242368Y-89603170D01*
X76222962Y-89612349D01*
X76202750Y-89619581D01*
X76181926Y-89624797D01*
X76160691Y-89627947D01*
X76139250Y-89629000D01*
X75701750Y-89629000D01*
X75680309Y-89627947D01*
X75659074Y-89624797D01*
X75638250Y-89619581D01*
X75618038Y-89612349D01*
X75598632Y-89603170D01*
X75580219Y-89592134D01*
X75562976Y-89579346D01*
X75547070Y-89564930D01*
X75532654Y-89549024D01*
X75519866Y-89531781D01*
X75508830Y-89513368D01*
X75499651Y-89493962D01*
X75492419Y-89473750D01*
X75487203Y-89452926D01*
X75484053Y-89431691D01*
X75483000Y-89410250D01*
X75483000Y-88897750D01*
X75484053Y-88876309D01*
X75487203Y-88855074D01*
X75492419Y-88834250D01*
X75499651Y-88814038D01*
X75508830Y-88794632D01*
X75519866Y-88776219D01*
X75532654Y-88758976D01*
X75547070Y-88743070D01*
X75562976Y-88728654D01*
X75580219Y-88715866D01*
X75598632Y-88704830D01*
X75618038Y-88695651D01*
X75638250Y-88688419D01*
X75659074Y-88683203D01*
X75680309Y-88680053D01*
X75701750Y-88679000D01*
X76139250Y-88679000D01*
X76160691Y-88680053D01*
G37*
G36*
X117054691Y-88680053D02*
G01*
X117075926Y-88683203D01*
X117096750Y-88688419D01*
X117116962Y-88695651D01*
X117136368Y-88704830D01*
X117154781Y-88715866D01*
X117172024Y-88728654D01*
X117187930Y-88743070D01*
X117202346Y-88758976D01*
X117215134Y-88776219D01*
X117226170Y-88794632D01*
X117235349Y-88814038D01*
X117242581Y-88834250D01*
X117247797Y-88855074D01*
X117250947Y-88876309D01*
X117252000Y-88897750D01*
X117252000Y-89410250D01*
X117250947Y-89431691D01*
X117247797Y-89452926D01*
X117242581Y-89473750D01*
X117235349Y-89493962D01*
X117226170Y-89513368D01*
X117215134Y-89531781D01*
X117202346Y-89549024D01*
X117187930Y-89564930D01*
X117172024Y-89579346D01*
X117154781Y-89592134D01*
X117136368Y-89603170D01*
X117116962Y-89612349D01*
X117096750Y-89619581D01*
X117075926Y-89624797D01*
X117054691Y-89627947D01*
X117033250Y-89629000D01*
X116595750Y-89629000D01*
X116574309Y-89627947D01*
X116553074Y-89624797D01*
X116532250Y-89619581D01*
X116512038Y-89612349D01*
X116492632Y-89603170D01*
X116474219Y-89592134D01*
X116456976Y-89579346D01*
X116441070Y-89564930D01*
X116426654Y-89549024D01*
X116413866Y-89531781D01*
X116402830Y-89513368D01*
X116393651Y-89493962D01*
X116386419Y-89473750D01*
X116381203Y-89452926D01*
X116378053Y-89431691D01*
X116377000Y-89410250D01*
X116377000Y-88897750D01*
X116378053Y-88876309D01*
X116381203Y-88855074D01*
X116386419Y-88834250D01*
X116393651Y-88814038D01*
X116402830Y-88794632D01*
X116413866Y-88776219D01*
X116426654Y-88758976D01*
X116441070Y-88743070D01*
X116456976Y-88728654D01*
X116474219Y-88715866D01*
X116492632Y-88704830D01*
X116512038Y-88695651D01*
X116532250Y-88688419D01*
X116553074Y-88683203D01*
X116574309Y-88680053D01*
X116595750Y-88679000D01*
X117033250Y-88679000D01*
X117054691Y-88680053D01*
G37*
G36*
X118629691Y-88680053D02*
G01*
X118650926Y-88683203D01*
X118671750Y-88688419D01*
X118691962Y-88695651D01*
X118711368Y-88704830D01*
X118729781Y-88715866D01*
X118747024Y-88728654D01*
X118762930Y-88743070D01*
X118777346Y-88758976D01*
X118790134Y-88776219D01*
X118801170Y-88794632D01*
X118810349Y-88814038D01*
X118817581Y-88834250D01*
X118822797Y-88855074D01*
X118825947Y-88876309D01*
X118827000Y-88897750D01*
X118827000Y-89410250D01*
X118825947Y-89431691D01*
X118822797Y-89452926D01*
X118817581Y-89473750D01*
X118810349Y-89493962D01*
X118801170Y-89513368D01*
X118790134Y-89531781D01*
X118777346Y-89549024D01*
X118762930Y-89564930D01*
X118747024Y-89579346D01*
X118729781Y-89592134D01*
X118711368Y-89603170D01*
X118691962Y-89612349D01*
X118671750Y-89619581D01*
X118650926Y-89624797D01*
X118629691Y-89627947D01*
X118608250Y-89629000D01*
X118170750Y-89629000D01*
X118149309Y-89627947D01*
X118128074Y-89624797D01*
X118107250Y-89619581D01*
X118087038Y-89612349D01*
X118067632Y-89603170D01*
X118049219Y-89592134D01*
X118031976Y-89579346D01*
X118016070Y-89564930D01*
X118001654Y-89549024D01*
X117988866Y-89531781D01*
X117977830Y-89513368D01*
X117968651Y-89493962D01*
X117961419Y-89473750D01*
X117956203Y-89452926D01*
X117953053Y-89431691D01*
X117952000Y-89410250D01*
X117952000Y-88897750D01*
X117953053Y-88876309D01*
X117956203Y-88855074D01*
X117961419Y-88834250D01*
X117968651Y-88814038D01*
X117977830Y-88794632D01*
X117988866Y-88776219D01*
X118001654Y-88758976D01*
X118016070Y-88743070D01*
X118031976Y-88728654D01*
X118049219Y-88715866D01*
X118067632Y-88704830D01*
X118087038Y-88695651D01*
X118107250Y-88688419D01*
X118128074Y-88683203D01*
X118149309Y-88680053D01*
X118170750Y-88679000D01*
X118608250Y-88679000D01*
X118629691Y-88680053D01*
G37*
G36*
X88149691Y-88680053D02*
G01*
X88170926Y-88683203D01*
X88191750Y-88688419D01*
X88211962Y-88695651D01*
X88231368Y-88704830D01*
X88249781Y-88715866D01*
X88267024Y-88728654D01*
X88282930Y-88743070D01*
X88297346Y-88758976D01*
X88310134Y-88776219D01*
X88321170Y-88794632D01*
X88330349Y-88814038D01*
X88337581Y-88834250D01*
X88342797Y-88855074D01*
X88345947Y-88876309D01*
X88347000Y-88897750D01*
X88347000Y-89410250D01*
X88345947Y-89431691D01*
X88342797Y-89452926D01*
X88337581Y-89473750D01*
X88330349Y-89493962D01*
X88321170Y-89513368D01*
X88310134Y-89531781D01*
X88297346Y-89549024D01*
X88282930Y-89564930D01*
X88267024Y-89579346D01*
X88249781Y-89592134D01*
X88231368Y-89603170D01*
X88211962Y-89612349D01*
X88191750Y-89619581D01*
X88170926Y-89624797D01*
X88149691Y-89627947D01*
X88128250Y-89629000D01*
X87690750Y-89629000D01*
X87669309Y-89627947D01*
X87648074Y-89624797D01*
X87627250Y-89619581D01*
X87607038Y-89612349D01*
X87587632Y-89603170D01*
X87569219Y-89592134D01*
X87551976Y-89579346D01*
X87536070Y-89564930D01*
X87521654Y-89549024D01*
X87508866Y-89531781D01*
X87497830Y-89513368D01*
X87488651Y-89493962D01*
X87481419Y-89473750D01*
X87476203Y-89452926D01*
X87473053Y-89431691D01*
X87472000Y-89410250D01*
X87472000Y-88897750D01*
X87473053Y-88876309D01*
X87476203Y-88855074D01*
X87481419Y-88834250D01*
X87488651Y-88814038D01*
X87497830Y-88794632D01*
X87508866Y-88776219D01*
X87521654Y-88758976D01*
X87536070Y-88743070D01*
X87551976Y-88728654D01*
X87569219Y-88715866D01*
X87587632Y-88704830D01*
X87607038Y-88695651D01*
X87627250Y-88688419D01*
X87648074Y-88683203D01*
X87669309Y-88680053D01*
X87690750Y-88679000D01*
X88128250Y-88679000D01*
X88149691Y-88680053D01*
G37*
G36*
X86574691Y-88680053D02*
G01*
X86595926Y-88683203D01*
X86616750Y-88688419D01*
X86636962Y-88695651D01*
X86656368Y-88704830D01*
X86674781Y-88715866D01*
X86692024Y-88728654D01*
X86707930Y-88743070D01*
X86722346Y-88758976D01*
X86735134Y-88776219D01*
X86746170Y-88794632D01*
X86755349Y-88814038D01*
X86762581Y-88834250D01*
X86767797Y-88855074D01*
X86770947Y-88876309D01*
X86772000Y-88897750D01*
X86772000Y-89410250D01*
X86770947Y-89431691D01*
X86767797Y-89452926D01*
X86762581Y-89473750D01*
X86755349Y-89493962D01*
X86746170Y-89513368D01*
X86735134Y-89531781D01*
X86722346Y-89549024D01*
X86707930Y-89564930D01*
X86692024Y-89579346D01*
X86674781Y-89592134D01*
X86656368Y-89603170D01*
X86636962Y-89612349D01*
X86616750Y-89619581D01*
X86595926Y-89624797D01*
X86574691Y-89627947D01*
X86553250Y-89629000D01*
X86115750Y-89629000D01*
X86094309Y-89627947D01*
X86073074Y-89624797D01*
X86052250Y-89619581D01*
X86032038Y-89612349D01*
X86012632Y-89603170D01*
X85994219Y-89592134D01*
X85976976Y-89579346D01*
X85961070Y-89564930D01*
X85946654Y-89549024D01*
X85933866Y-89531781D01*
X85922830Y-89513368D01*
X85913651Y-89493962D01*
X85906419Y-89473750D01*
X85901203Y-89452926D01*
X85898053Y-89431691D01*
X85897000Y-89410250D01*
X85897000Y-88897750D01*
X85898053Y-88876309D01*
X85901203Y-88855074D01*
X85906419Y-88834250D01*
X85913651Y-88814038D01*
X85922830Y-88794632D01*
X85933866Y-88776219D01*
X85946654Y-88758976D01*
X85961070Y-88743070D01*
X85976976Y-88728654D01*
X85994219Y-88715866D01*
X86012632Y-88704830D01*
X86032038Y-88695651D01*
X86052250Y-88688419D01*
X86073074Y-88683203D01*
X86094309Y-88680053D01*
X86115750Y-88679000D01*
X86553250Y-88679000D01*
X86574691Y-88680053D01*
G37*
G36*
X106894691Y-88680053D02*
G01*
X106915926Y-88683203D01*
X106936750Y-88688419D01*
X106956962Y-88695651D01*
X106976368Y-88704830D01*
X106994781Y-88715866D01*
X107012024Y-88728654D01*
X107027930Y-88743070D01*
X107042346Y-88758976D01*
X107055134Y-88776219D01*
X107066170Y-88794632D01*
X107075349Y-88814038D01*
X107082581Y-88834250D01*
X107087797Y-88855074D01*
X107090947Y-88876309D01*
X107092000Y-88897750D01*
X107092000Y-89410250D01*
X107090947Y-89431691D01*
X107087797Y-89452926D01*
X107082581Y-89473750D01*
X107075349Y-89493962D01*
X107066170Y-89513368D01*
X107055134Y-89531781D01*
X107042346Y-89549024D01*
X107027930Y-89564930D01*
X107012024Y-89579346D01*
X106994781Y-89592134D01*
X106976368Y-89603170D01*
X106956962Y-89612349D01*
X106936750Y-89619581D01*
X106915926Y-89624797D01*
X106894691Y-89627947D01*
X106873250Y-89629000D01*
X106435750Y-89629000D01*
X106414309Y-89627947D01*
X106393074Y-89624797D01*
X106372250Y-89619581D01*
X106352038Y-89612349D01*
X106332632Y-89603170D01*
X106314219Y-89592134D01*
X106296976Y-89579346D01*
X106281070Y-89564930D01*
X106266654Y-89549024D01*
X106253866Y-89531781D01*
X106242830Y-89513368D01*
X106233651Y-89493962D01*
X106226419Y-89473750D01*
X106221203Y-89452926D01*
X106218053Y-89431691D01*
X106217000Y-89410250D01*
X106217000Y-88897750D01*
X106218053Y-88876309D01*
X106221203Y-88855074D01*
X106226419Y-88834250D01*
X106233651Y-88814038D01*
X106242830Y-88794632D01*
X106253866Y-88776219D01*
X106266654Y-88758976D01*
X106281070Y-88743070D01*
X106296976Y-88728654D01*
X106314219Y-88715866D01*
X106332632Y-88704830D01*
X106352038Y-88695651D01*
X106372250Y-88688419D01*
X106393074Y-88683203D01*
X106414309Y-88680053D01*
X106435750Y-88679000D01*
X106873250Y-88679000D01*
X106894691Y-88680053D01*
G37*
G36*
X108469691Y-88680053D02*
G01*
X108490926Y-88683203D01*
X108511750Y-88688419D01*
X108531962Y-88695651D01*
X108551368Y-88704830D01*
X108569781Y-88715866D01*
X108587024Y-88728654D01*
X108602930Y-88743070D01*
X108617346Y-88758976D01*
X108630134Y-88776219D01*
X108641170Y-88794632D01*
X108650349Y-88814038D01*
X108657581Y-88834250D01*
X108662797Y-88855074D01*
X108665947Y-88876309D01*
X108667000Y-88897750D01*
X108667000Y-89410250D01*
X108665947Y-89431691D01*
X108662797Y-89452926D01*
X108657581Y-89473750D01*
X108650349Y-89493962D01*
X108641170Y-89513368D01*
X108630134Y-89531781D01*
X108617346Y-89549024D01*
X108602930Y-89564930D01*
X108587024Y-89579346D01*
X108569781Y-89592134D01*
X108551368Y-89603170D01*
X108531962Y-89612349D01*
X108511750Y-89619581D01*
X108490926Y-89624797D01*
X108469691Y-89627947D01*
X108448250Y-89629000D01*
X108010750Y-89629000D01*
X107989309Y-89627947D01*
X107968074Y-89624797D01*
X107947250Y-89619581D01*
X107927038Y-89612349D01*
X107907632Y-89603170D01*
X107889219Y-89592134D01*
X107871976Y-89579346D01*
X107856070Y-89564930D01*
X107841654Y-89549024D01*
X107828866Y-89531781D01*
X107817830Y-89513368D01*
X107808651Y-89493962D01*
X107801419Y-89473750D01*
X107796203Y-89452926D01*
X107793053Y-89431691D01*
X107792000Y-89410250D01*
X107792000Y-88897750D01*
X107793053Y-88876309D01*
X107796203Y-88855074D01*
X107801419Y-88834250D01*
X107808651Y-88814038D01*
X107817830Y-88794632D01*
X107828866Y-88776219D01*
X107841654Y-88758976D01*
X107856070Y-88743070D01*
X107871976Y-88728654D01*
X107889219Y-88715866D01*
X107907632Y-88704830D01*
X107927038Y-88695651D01*
X107947250Y-88688419D01*
X107968074Y-88683203D01*
X107989309Y-88680053D01*
X108010750Y-88679000D01*
X108448250Y-88679000D01*
X108469691Y-88680053D01*
G37*
G36*
X98309691Y-88680053D02*
G01*
X98330926Y-88683203D01*
X98351750Y-88688419D01*
X98371962Y-88695651D01*
X98391368Y-88704830D01*
X98409781Y-88715866D01*
X98427024Y-88728654D01*
X98442930Y-88743070D01*
X98457346Y-88758976D01*
X98470134Y-88776219D01*
X98481170Y-88794632D01*
X98490349Y-88814038D01*
X98497581Y-88834250D01*
X98502797Y-88855074D01*
X98505947Y-88876309D01*
X98507000Y-88897750D01*
X98507000Y-89410250D01*
X98505947Y-89431691D01*
X98502797Y-89452926D01*
X98497581Y-89473750D01*
X98490349Y-89493962D01*
X98481170Y-89513368D01*
X98470134Y-89531781D01*
X98457346Y-89549024D01*
X98442930Y-89564930D01*
X98427024Y-89579346D01*
X98409781Y-89592134D01*
X98391368Y-89603170D01*
X98371962Y-89612349D01*
X98351750Y-89619581D01*
X98330926Y-89624797D01*
X98309691Y-89627947D01*
X98288250Y-89629000D01*
X97850750Y-89629000D01*
X97829309Y-89627947D01*
X97808074Y-89624797D01*
X97787250Y-89619581D01*
X97767038Y-89612349D01*
X97747632Y-89603170D01*
X97729219Y-89592134D01*
X97711976Y-89579346D01*
X97696070Y-89564930D01*
X97681654Y-89549024D01*
X97668866Y-89531781D01*
X97657830Y-89513368D01*
X97648651Y-89493962D01*
X97641419Y-89473750D01*
X97636203Y-89452926D01*
X97633053Y-89431691D01*
X97632000Y-89410250D01*
X97632000Y-88897750D01*
X97633053Y-88876309D01*
X97636203Y-88855074D01*
X97641419Y-88834250D01*
X97648651Y-88814038D01*
X97657830Y-88794632D01*
X97668866Y-88776219D01*
X97681654Y-88758976D01*
X97696070Y-88743070D01*
X97711976Y-88728654D01*
X97729219Y-88715866D01*
X97747632Y-88704830D01*
X97767038Y-88695651D01*
X97787250Y-88688419D01*
X97808074Y-88683203D01*
X97829309Y-88680053D01*
X97850750Y-88679000D01*
X98288250Y-88679000D01*
X98309691Y-88680053D01*
G37*
G36*
X96734691Y-88680053D02*
G01*
X96755926Y-88683203D01*
X96776750Y-88688419D01*
X96796962Y-88695651D01*
X96816368Y-88704830D01*
X96834781Y-88715866D01*
X96852024Y-88728654D01*
X96867930Y-88743070D01*
X96882346Y-88758976D01*
X96895134Y-88776219D01*
X96906170Y-88794632D01*
X96915349Y-88814038D01*
X96922581Y-88834250D01*
X96927797Y-88855074D01*
X96930947Y-88876309D01*
X96932000Y-88897750D01*
X96932000Y-89410250D01*
X96930947Y-89431691D01*
X96927797Y-89452926D01*
X96922581Y-89473750D01*
X96915349Y-89493962D01*
X96906170Y-89513368D01*
X96895134Y-89531781D01*
X96882346Y-89549024D01*
X96867930Y-89564930D01*
X96852024Y-89579346D01*
X96834781Y-89592134D01*
X96816368Y-89603170D01*
X96796962Y-89612349D01*
X96776750Y-89619581D01*
X96755926Y-89624797D01*
X96734691Y-89627947D01*
X96713250Y-89629000D01*
X96275750Y-89629000D01*
X96254309Y-89627947D01*
X96233074Y-89624797D01*
X96212250Y-89619581D01*
X96192038Y-89612349D01*
X96172632Y-89603170D01*
X96154219Y-89592134D01*
X96136976Y-89579346D01*
X96121070Y-89564930D01*
X96106654Y-89549024D01*
X96093866Y-89531781D01*
X96082830Y-89513368D01*
X96073651Y-89493962D01*
X96066419Y-89473750D01*
X96061203Y-89452926D01*
X96058053Y-89431691D01*
X96057000Y-89410250D01*
X96057000Y-88897750D01*
X96058053Y-88876309D01*
X96061203Y-88855074D01*
X96066419Y-88834250D01*
X96073651Y-88814038D01*
X96082830Y-88794632D01*
X96093866Y-88776219D01*
X96106654Y-88758976D01*
X96121070Y-88743070D01*
X96136976Y-88728654D01*
X96154219Y-88715866D01*
X96172632Y-88704830D01*
X96192038Y-88695651D01*
X96212250Y-88688419D01*
X96233074Y-88683203D01*
X96254309Y-88680053D01*
X96275750Y-88679000D01*
X96713250Y-88679000D01*
X96734691Y-88680053D01*
G37*
M02*
