G04 #@! TF.GenerationSoftware,KiCad,Pcbnew,(5.1.5-0-10_14)*
G04 #@! TF.CreationDate,2020-03-13T23:12:58-07:00*
G04 #@! TF.ProjectId,SigGenAdapter,53696747-656e-4416-9461-707465722e6b,rev?*
G04 #@! TF.SameCoordinates,Original*
G04 #@! TF.FileFunction,Soldermask,Top*
G04 #@! TF.FilePolarity,Negative*
%FSLAX46Y46*%
G04 Gerber Fmt 4.6, Leading zero omitted, Abs format (unit mm)*
G04 Created by KiCad (PCBNEW (5.1.5-0-10_14)) date 2020-03-13 23:12:58*
%MOMM*%
%LPD*%
G04 APERTURE LIST*
%ADD10C,0.100000*%
G04 APERTURE END LIST*
D10*
G36*
X125089256Y-111802298D02*
G01*
X125195579Y-111823447D01*
X125496042Y-111947903D01*
X125766451Y-112128585D01*
X125996415Y-112358549D01*
X126177097Y-112628958D01*
X126301553Y-112929421D01*
X126365000Y-113248391D01*
X126365000Y-113573609D01*
X126301553Y-113892579D01*
X126177097Y-114193042D01*
X125996415Y-114463451D01*
X125766451Y-114693415D01*
X125496042Y-114874097D01*
X125195579Y-114998553D01*
X125089256Y-115019702D01*
X124876611Y-115062000D01*
X124551389Y-115062000D01*
X124338744Y-115019702D01*
X124232421Y-114998553D01*
X123931958Y-114874097D01*
X123661549Y-114693415D01*
X123431585Y-114463451D01*
X123250903Y-114193042D01*
X123126447Y-113892579D01*
X123063000Y-113573609D01*
X123063000Y-113248391D01*
X123126447Y-112929421D01*
X123250903Y-112628958D01*
X123431585Y-112358549D01*
X123661549Y-112128585D01*
X123931958Y-111947903D01*
X124232421Y-111823447D01*
X124338744Y-111802298D01*
X124551389Y-111760000D01*
X124876611Y-111760000D01*
X125089256Y-111802298D01*
G37*
G36*
X70225256Y-111802298D02*
G01*
X70331579Y-111823447D01*
X70632042Y-111947903D01*
X70902451Y-112128585D01*
X71132415Y-112358549D01*
X71313097Y-112628958D01*
X71437553Y-112929421D01*
X71501000Y-113248391D01*
X71501000Y-113573609D01*
X71437553Y-113892579D01*
X71313097Y-114193042D01*
X71132415Y-114463451D01*
X70902451Y-114693415D01*
X70632042Y-114874097D01*
X70331579Y-114998553D01*
X70225256Y-115019702D01*
X70012611Y-115062000D01*
X69687389Y-115062000D01*
X69474744Y-115019702D01*
X69368421Y-114998553D01*
X69067958Y-114874097D01*
X68797549Y-114693415D01*
X68567585Y-114463451D01*
X68386903Y-114193042D01*
X68262447Y-113892579D01*
X68199000Y-113573609D01*
X68199000Y-113248391D01*
X68262447Y-112929421D01*
X68386903Y-112628958D01*
X68567585Y-112358549D01*
X68797549Y-112128585D01*
X69067958Y-111947903D01*
X69368421Y-111823447D01*
X69474744Y-111802298D01*
X69687389Y-111760000D01*
X70012611Y-111760000D01*
X70225256Y-111802298D01*
G37*
G36*
X118491943Y-98920248D02*
G01*
X119047189Y-99150238D01*
X119047190Y-99150239D01*
X119546899Y-99484134D01*
X119971866Y-99909101D01*
X119971867Y-99909103D01*
X120305762Y-100408811D01*
X120535752Y-100964057D01*
X120653000Y-101553501D01*
X120653000Y-102154499D01*
X120535752Y-102743943D01*
X120305762Y-103299189D01*
X120305761Y-103299190D01*
X119971866Y-103798899D01*
X119546899Y-104223866D01*
X119295347Y-104391948D01*
X119047189Y-104557762D01*
X118491943Y-104787752D01*
X117902499Y-104905000D01*
X117301501Y-104905000D01*
X116712057Y-104787752D01*
X116156811Y-104557762D01*
X115908653Y-104391948D01*
X115657101Y-104223866D01*
X115232134Y-103798899D01*
X114898239Y-103299190D01*
X114898238Y-103299189D01*
X114668248Y-102743943D01*
X114551000Y-102154499D01*
X114551000Y-101553501D01*
X114668248Y-100964057D01*
X114898238Y-100408811D01*
X115232133Y-99909103D01*
X115232134Y-99909101D01*
X115657101Y-99484134D01*
X116156810Y-99150239D01*
X116156811Y-99150238D01*
X116712057Y-98920248D01*
X117301501Y-98803000D01*
X117902499Y-98803000D01*
X118491943Y-98920248D01*
G37*
G36*
X98171943Y-98920248D02*
G01*
X98727189Y-99150238D01*
X98727190Y-99150239D01*
X99226899Y-99484134D01*
X99651866Y-99909101D01*
X99651867Y-99909103D01*
X99985762Y-100408811D01*
X100215752Y-100964057D01*
X100333000Y-101553501D01*
X100333000Y-102154499D01*
X100215752Y-102743943D01*
X99985762Y-103299189D01*
X99985761Y-103299190D01*
X99651866Y-103798899D01*
X99226899Y-104223866D01*
X98975347Y-104391948D01*
X98727189Y-104557762D01*
X98171943Y-104787752D01*
X97582499Y-104905000D01*
X96981501Y-104905000D01*
X96392057Y-104787752D01*
X95836811Y-104557762D01*
X95588653Y-104391948D01*
X95337101Y-104223866D01*
X94912134Y-103798899D01*
X94578239Y-103299190D01*
X94578238Y-103299189D01*
X94348248Y-102743943D01*
X94231000Y-102154499D01*
X94231000Y-101553501D01*
X94348248Y-100964057D01*
X94578238Y-100408811D01*
X94912133Y-99909103D01*
X94912134Y-99909101D01*
X95337101Y-99484134D01*
X95836810Y-99150239D01*
X95836811Y-99150238D01*
X96392057Y-98920248D01*
X96981501Y-98803000D01*
X97582499Y-98803000D01*
X98171943Y-98920248D01*
G37*
G36*
X77851943Y-98920248D02*
G01*
X78407189Y-99150238D01*
X78407190Y-99150239D01*
X78906899Y-99484134D01*
X79331866Y-99909101D01*
X79331867Y-99909103D01*
X79665762Y-100408811D01*
X79895752Y-100964057D01*
X80013000Y-101553501D01*
X80013000Y-102154499D01*
X79895752Y-102743943D01*
X79665762Y-103299189D01*
X79665761Y-103299190D01*
X79331866Y-103798899D01*
X78906899Y-104223866D01*
X78655347Y-104391948D01*
X78407189Y-104557762D01*
X77851943Y-104787752D01*
X77262499Y-104905000D01*
X76661501Y-104905000D01*
X76072057Y-104787752D01*
X75516811Y-104557762D01*
X75268653Y-104391948D01*
X75017101Y-104223866D01*
X74592134Y-103798899D01*
X74258239Y-103299190D01*
X74258238Y-103299189D01*
X74028248Y-102743943D01*
X73911000Y-102154499D01*
X73911000Y-101553501D01*
X74028248Y-100964057D01*
X74258238Y-100408811D01*
X74592133Y-99909103D01*
X74592134Y-99909101D01*
X75017101Y-99484134D01*
X75516810Y-99150239D01*
X75516811Y-99150238D01*
X76072057Y-98920248D01*
X76661501Y-98803000D01*
X77262499Y-98803000D01*
X77851943Y-98920248D01*
G37*
G36*
X121963000Y-89705000D02*
G01*
X120861000Y-89705000D01*
X120861000Y-88603000D01*
X121963000Y-88603000D01*
X121963000Y-89705000D01*
G37*
G36*
X114597000Y-89705000D02*
G01*
X113495000Y-89705000D01*
X113495000Y-88603000D01*
X114597000Y-88603000D01*
X114597000Y-89705000D01*
G37*
G36*
X101643000Y-89705000D02*
G01*
X100541000Y-89705000D01*
X100541000Y-88603000D01*
X101643000Y-88603000D01*
X101643000Y-89705000D01*
G37*
G36*
X94023000Y-89705000D02*
G01*
X92921000Y-89705000D01*
X92921000Y-88603000D01*
X94023000Y-88603000D01*
X94023000Y-89705000D01*
G37*
G36*
X81069000Y-89705000D02*
G01*
X79967000Y-89705000D01*
X79967000Y-88603000D01*
X81069000Y-88603000D01*
X81069000Y-89705000D01*
G37*
G36*
X73703000Y-89705000D02*
G01*
X72601000Y-89705000D01*
X72601000Y-88603000D01*
X73703000Y-88603000D01*
X73703000Y-89705000D01*
G37*
G36*
X96836591Y-88632085D02*
G01*
X96870569Y-88642393D01*
X96901890Y-88659134D01*
X96929339Y-88681661D01*
X96951866Y-88709110D01*
X96968607Y-88740431D01*
X96978915Y-88774409D01*
X96983000Y-88815890D01*
X96983000Y-89492110D01*
X96978915Y-89533591D01*
X96968607Y-89567569D01*
X96951866Y-89598890D01*
X96929339Y-89626339D01*
X96901890Y-89648866D01*
X96870569Y-89665607D01*
X96836591Y-89675915D01*
X96795110Y-89680000D01*
X96193890Y-89680000D01*
X96152409Y-89675915D01*
X96118431Y-89665607D01*
X96087110Y-89648866D01*
X96059661Y-89626339D01*
X96037134Y-89598890D01*
X96020393Y-89567569D01*
X96010085Y-89533591D01*
X96006000Y-89492110D01*
X96006000Y-88815890D01*
X96010085Y-88774409D01*
X96020393Y-88740431D01*
X96037134Y-88709110D01*
X96059661Y-88681661D01*
X96087110Y-88659134D01*
X96118431Y-88642393D01*
X96152409Y-88632085D01*
X96193890Y-88628000D01*
X96795110Y-88628000D01*
X96836591Y-88632085D01*
G37*
G36*
X76262591Y-88632085D02*
G01*
X76296569Y-88642393D01*
X76327890Y-88659134D01*
X76355339Y-88681661D01*
X76377866Y-88709110D01*
X76394607Y-88740431D01*
X76404915Y-88774409D01*
X76409000Y-88815890D01*
X76409000Y-89492110D01*
X76404915Y-89533591D01*
X76394607Y-89567569D01*
X76377866Y-89598890D01*
X76355339Y-89626339D01*
X76327890Y-89648866D01*
X76296569Y-89665607D01*
X76262591Y-89675915D01*
X76221110Y-89680000D01*
X75619890Y-89680000D01*
X75578409Y-89675915D01*
X75544431Y-89665607D01*
X75513110Y-89648866D01*
X75485661Y-89626339D01*
X75463134Y-89598890D01*
X75446393Y-89567569D01*
X75436085Y-89533591D01*
X75432000Y-89492110D01*
X75432000Y-88815890D01*
X75436085Y-88774409D01*
X75446393Y-88740431D01*
X75463134Y-88709110D01*
X75485661Y-88681661D01*
X75513110Y-88659134D01*
X75544431Y-88642393D01*
X75578409Y-88632085D01*
X75619890Y-88628000D01*
X76221110Y-88628000D01*
X76262591Y-88632085D01*
G37*
G36*
X98411591Y-88632085D02*
G01*
X98445569Y-88642393D01*
X98476890Y-88659134D01*
X98504339Y-88681661D01*
X98526866Y-88709110D01*
X98543607Y-88740431D01*
X98553915Y-88774409D01*
X98558000Y-88815890D01*
X98558000Y-89492110D01*
X98553915Y-89533591D01*
X98543607Y-89567569D01*
X98526866Y-89598890D01*
X98504339Y-89626339D01*
X98476890Y-89648866D01*
X98445569Y-89665607D01*
X98411591Y-89675915D01*
X98370110Y-89680000D01*
X97768890Y-89680000D01*
X97727409Y-89675915D01*
X97693431Y-89665607D01*
X97662110Y-89648866D01*
X97634661Y-89626339D01*
X97612134Y-89598890D01*
X97595393Y-89567569D01*
X97585085Y-89533591D01*
X97581000Y-89492110D01*
X97581000Y-88815890D01*
X97585085Y-88774409D01*
X97595393Y-88740431D01*
X97612134Y-88709110D01*
X97634661Y-88681661D01*
X97662110Y-88659134D01*
X97693431Y-88642393D01*
X97727409Y-88632085D01*
X97768890Y-88628000D01*
X98370110Y-88628000D01*
X98411591Y-88632085D01*
G37*
G36*
X118731591Y-88632085D02*
G01*
X118765569Y-88642393D01*
X118796890Y-88659134D01*
X118824339Y-88681661D01*
X118846866Y-88709110D01*
X118863607Y-88740431D01*
X118873915Y-88774409D01*
X118878000Y-88815890D01*
X118878000Y-89492110D01*
X118873915Y-89533591D01*
X118863607Y-89567569D01*
X118846866Y-89598890D01*
X118824339Y-89626339D01*
X118796890Y-89648866D01*
X118765569Y-89665607D01*
X118731591Y-89675915D01*
X118690110Y-89680000D01*
X118088890Y-89680000D01*
X118047409Y-89675915D01*
X118013431Y-89665607D01*
X117982110Y-89648866D01*
X117954661Y-89626339D01*
X117932134Y-89598890D01*
X117915393Y-89567569D01*
X117905085Y-89533591D01*
X117901000Y-89492110D01*
X117901000Y-88815890D01*
X117905085Y-88774409D01*
X117915393Y-88740431D01*
X117932134Y-88709110D01*
X117954661Y-88681661D01*
X117982110Y-88659134D01*
X118013431Y-88642393D01*
X118047409Y-88632085D01*
X118088890Y-88628000D01*
X118690110Y-88628000D01*
X118731591Y-88632085D01*
G37*
G36*
X117156591Y-88632085D02*
G01*
X117190569Y-88642393D01*
X117221890Y-88659134D01*
X117249339Y-88681661D01*
X117271866Y-88709110D01*
X117288607Y-88740431D01*
X117298915Y-88774409D01*
X117303000Y-88815890D01*
X117303000Y-89492110D01*
X117298915Y-89533591D01*
X117288607Y-89567569D01*
X117271866Y-89598890D01*
X117249339Y-89626339D01*
X117221890Y-89648866D01*
X117190569Y-89665607D01*
X117156591Y-89675915D01*
X117115110Y-89680000D01*
X116513890Y-89680000D01*
X116472409Y-89675915D01*
X116438431Y-89665607D01*
X116407110Y-89648866D01*
X116379661Y-89626339D01*
X116357134Y-89598890D01*
X116340393Y-89567569D01*
X116330085Y-89533591D01*
X116326000Y-89492110D01*
X116326000Y-88815890D01*
X116330085Y-88774409D01*
X116340393Y-88740431D01*
X116357134Y-88709110D01*
X116379661Y-88681661D01*
X116407110Y-88659134D01*
X116438431Y-88642393D01*
X116472409Y-88632085D01*
X116513890Y-88628000D01*
X117115110Y-88628000D01*
X117156591Y-88632085D01*
G37*
G36*
X108571591Y-88632085D02*
G01*
X108605569Y-88642393D01*
X108636890Y-88659134D01*
X108664339Y-88681661D01*
X108686866Y-88709110D01*
X108703607Y-88740431D01*
X108713915Y-88774409D01*
X108718000Y-88815890D01*
X108718000Y-89492110D01*
X108713915Y-89533591D01*
X108703607Y-89567569D01*
X108686866Y-89598890D01*
X108664339Y-89626339D01*
X108636890Y-89648866D01*
X108605569Y-89665607D01*
X108571591Y-89675915D01*
X108530110Y-89680000D01*
X107928890Y-89680000D01*
X107887409Y-89675915D01*
X107853431Y-89665607D01*
X107822110Y-89648866D01*
X107794661Y-89626339D01*
X107772134Y-89598890D01*
X107755393Y-89567569D01*
X107745085Y-89533591D01*
X107741000Y-89492110D01*
X107741000Y-88815890D01*
X107745085Y-88774409D01*
X107755393Y-88740431D01*
X107772134Y-88709110D01*
X107794661Y-88681661D01*
X107822110Y-88659134D01*
X107853431Y-88642393D01*
X107887409Y-88632085D01*
X107928890Y-88628000D01*
X108530110Y-88628000D01*
X108571591Y-88632085D01*
G37*
G36*
X106996591Y-88632085D02*
G01*
X107030569Y-88642393D01*
X107061890Y-88659134D01*
X107089339Y-88681661D01*
X107111866Y-88709110D01*
X107128607Y-88740431D01*
X107138915Y-88774409D01*
X107143000Y-88815890D01*
X107143000Y-89492110D01*
X107138915Y-89533591D01*
X107128607Y-89567569D01*
X107111866Y-89598890D01*
X107089339Y-89626339D01*
X107061890Y-89648866D01*
X107030569Y-89665607D01*
X106996591Y-89675915D01*
X106955110Y-89680000D01*
X106353890Y-89680000D01*
X106312409Y-89675915D01*
X106278431Y-89665607D01*
X106247110Y-89648866D01*
X106219661Y-89626339D01*
X106197134Y-89598890D01*
X106180393Y-89567569D01*
X106170085Y-89533591D01*
X106166000Y-89492110D01*
X106166000Y-88815890D01*
X106170085Y-88774409D01*
X106180393Y-88740431D01*
X106197134Y-88709110D01*
X106219661Y-88681661D01*
X106247110Y-88659134D01*
X106278431Y-88642393D01*
X106312409Y-88632085D01*
X106353890Y-88628000D01*
X106955110Y-88628000D01*
X106996591Y-88632085D01*
G37*
G36*
X86676591Y-88632085D02*
G01*
X86710569Y-88642393D01*
X86741890Y-88659134D01*
X86769339Y-88681661D01*
X86791866Y-88709110D01*
X86808607Y-88740431D01*
X86818915Y-88774409D01*
X86823000Y-88815890D01*
X86823000Y-89492110D01*
X86818915Y-89533591D01*
X86808607Y-89567569D01*
X86791866Y-89598890D01*
X86769339Y-89626339D01*
X86741890Y-89648866D01*
X86710569Y-89665607D01*
X86676591Y-89675915D01*
X86635110Y-89680000D01*
X86033890Y-89680000D01*
X85992409Y-89675915D01*
X85958431Y-89665607D01*
X85927110Y-89648866D01*
X85899661Y-89626339D01*
X85877134Y-89598890D01*
X85860393Y-89567569D01*
X85850085Y-89533591D01*
X85846000Y-89492110D01*
X85846000Y-88815890D01*
X85850085Y-88774409D01*
X85860393Y-88740431D01*
X85877134Y-88709110D01*
X85899661Y-88681661D01*
X85927110Y-88659134D01*
X85958431Y-88642393D01*
X85992409Y-88632085D01*
X86033890Y-88628000D01*
X86635110Y-88628000D01*
X86676591Y-88632085D01*
G37*
G36*
X88251591Y-88632085D02*
G01*
X88285569Y-88642393D01*
X88316890Y-88659134D01*
X88344339Y-88681661D01*
X88366866Y-88709110D01*
X88383607Y-88740431D01*
X88393915Y-88774409D01*
X88398000Y-88815890D01*
X88398000Y-89492110D01*
X88393915Y-89533591D01*
X88383607Y-89567569D01*
X88366866Y-89598890D01*
X88344339Y-89626339D01*
X88316890Y-89648866D01*
X88285569Y-89665607D01*
X88251591Y-89675915D01*
X88210110Y-89680000D01*
X87608890Y-89680000D01*
X87567409Y-89675915D01*
X87533431Y-89665607D01*
X87502110Y-89648866D01*
X87474661Y-89626339D01*
X87452134Y-89598890D01*
X87435393Y-89567569D01*
X87425085Y-89533591D01*
X87421000Y-89492110D01*
X87421000Y-88815890D01*
X87425085Y-88774409D01*
X87435393Y-88740431D01*
X87452134Y-88709110D01*
X87474661Y-88681661D01*
X87502110Y-88659134D01*
X87533431Y-88642393D01*
X87567409Y-88632085D01*
X87608890Y-88628000D01*
X88210110Y-88628000D01*
X88251591Y-88632085D01*
G37*
G36*
X77837591Y-88632085D02*
G01*
X77871569Y-88642393D01*
X77902890Y-88659134D01*
X77930339Y-88681661D01*
X77952866Y-88709110D01*
X77969607Y-88740431D01*
X77979915Y-88774409D01*
X77984000Y-88815890D01*
X77984000Y-89492110D01*
X77979915Y-89533591D01*
X77969607Y-89567569D01*
X77952866Y-89598890D01*
X77930339Y-89626339D01*
X77902890Y-89648866D01*
X77871569Y-89665607D01*
X77837591Y-89675915D01*
X77796110Y-89680000D01*
X77194890Y-89680000D01*
X77153409Y-89675915D01*
X77119431Y-89665607D01*
X77088110Y-89648866D01*
X77060661Y-89626339D01*
X77038134Y-89598890D01*
X77021393Y-89567569D01*
X77011085Y-89533591D01*
X77007000Y-89492110D01*
X77007000Y-88815890D01*
X77011085Y-88774409D01*
X77021393Y-88740431D01*
X77038134Y-88709110D01*
X77060661Y-88681661D01*
X77088110Y-88659134D01*
X77119431Y-88642393D01*
X77153409Y-88632085D01*
X77194890Y-88628000D01*
X77796110Y-88628000D01*
X77837591Y-88632085D01*
G37*
G36*
X114903000Y-87157000D02*
G01*
X112801000Y-87157000D01*
X112801000Y-85055000D01*
X114903000Y-85055000D01*
X114903000Y-87157000D01*
G37*
G36*
X80958564Y-85095389D02*
G01*
X81149833Y-85174615D01*
X81149835Y-85174616D01*
X81321973Y-85289635D01*
X81468365Y-85436027D01*
X81583385Y-85608167D01*
X81662611Y-85799436D01*
X81703000Y-86002484D01*
X81703000Y-86209516D01*
X81662611Y-86412564D01*
X81583385Y-86603833D01*
X81583384Y-86603835D01*
X81468365Y-86775973D01*
X81321973Y-86922365D01*
X81149835Y-87037384D01*
X81149834Y-87037385D01*
X81149833Y-87037385D01*
X80958564Y-87116611D01*
X80755516Y-87157000D01*
X80548484Y-87157000D01*
X80345436Y-87116611D01*
X80154167Y-87037385D01*
X80154166Y-87037385D01*
X80154165Y-87037384D01*
X79982027Y-86922365D01*
X79835635Y-86775973D01*
X79720616Y-86603835D01*
X79720615Y-86603833D01*
X79641389Y-86412564D01*
X79601000Y-86209516D01*
X79601000Y-86002484D01*
X79641389Y-85799436D01*
X79720615Y-85608167D01*
X79835635Y-85436027D01*
X79982027Y-85289635D01*
X80154165Y-85174616D01*
X80154167Y-85174615D01*
X80345436Y-85095389D01*
X80548484Y-85055000D01*
X80755516Y-85055000D01*
X80958564Y-85095389D01*
G37*
G36*
X101278564Y-85095389D02*
G01*
X101469833Y-85174615D01*
X101469835Y-85174616D01*
X101641973Y-85289635D01*
X101788365Y-85436027D01*
X101903385Y-85608167D01*
X101982611Y-85799436D01*
X102023000Y-86002484D01*
X102023000Y-86209516D01*
X101982611Y-86412564D01*
X101903385Y-86603833D01*
X101903384Y-86603835D01*
X101788365Y-86775973D01*
X101641973Y-86922365D01*
X101469835Y-87037384D01*
X101469834Y-87037385D01*
X101469833Y-87037385D01*
X101278564Y-87116611D01*
X101075516Y-87157000D01*
X100868484Y-87157000D01*
X100665436Y-87116611D01*
X100474167Y-87037385D01*
X100474166Y-87037385D01*
X100474165Y-87037384D01*
X100302027Y-86922365D01*
X100155635Y-86775973D01*
X100040616Y-86603835D01*
X100040615Y-86603833D01*
X99961389Y-86412564D01*
X99921000Y-86209516D01*
X99921000Y-86002484D01*
X99961389Y-85799436D01*
X100040615Y-85608167D01*
X100155635Y-85436027D01*
X100302027Y-85289635D01*
X100474165Y-85174616D01*
X100474167Y-85174615D01*
X100665436Y-85095389D01*
X100868484Y-85055000D01*
X101075516Y-85055000D01*
X101278564Y-85095389D01*
G37*
G36*
X117908564Y-85095389D02*
G01*
X118099833Y-85174615D01*
X118099835Y-85174616D01*
X118271973Y-85289635D01*
X118418365Y-85436027D01*
X118533385Y-85608167D01*
X118612611Y-85799436D01*
X118653000Y-86002484D01*
X118653000Y-86209516D01*
X118612611Y-86412564D01*
X118533385Y-86603833D01*
X118533384Y-86603835D01*
X118418365Y-86775973D01*
X118271973Y-86922365D01*
X118099835Y-87037384D01*
X118099834Y-87037385D01*
X118099833Y-87037385D01*
X117908564Y-87116611D01*
X117705516Y-87157000D01*
X117498484Y-87157000D01*
X117295436Y-87116611D01*
X117104167Y-87037385D01*
X117104166Y-87037385D01*
X117104165Y-87037384D01*
X116932027Y-86922365D01*
X116785635Y-86775973D01*
X116670616Y-86603835D01*
X116670615Y-86603833D01*
X116591389Y-86412564D01*
X116551000Y-86209516D01*
X116551000Y-86002484D01*
X116591389Y-85799436D01*
X116670615Y-85608167D01*
X116785635Y-85436027D01*
X116932027Y-85289635D01*
X117104165Y-85174616D01*
X117104167Y-85174615D01*
X117295436Y-85095389D01*
X117498484Y-85055000D01*
X117705516Y-85055000D01*
X117908564Y-85095389D01*
G37*
G36*
X121658564Y-85095389D02*
G01*
X121849833Y-85174615D01*
X121849835Y-85174616D01*
X122021973Y-85289635D01*
X122168365Y-85436027D01*
X122283385Y-85608167D01*
X122362611Y-85799436D01*
X122403000Y-86002484D01*
X122403000Y-86209516D01*
X122362611Y-86412564D01*
X122283385Y-86603833D01*
X122283384Y-86603835D01*
X122168365Y-86775973D01*
X122021973Y-86922365D01*
X121849835Y-87037384D01*
X121849834Y-87037385D01*
X121849833Y-87037385D01*
X121658564Y-87116611D01*
X121455516Y-87157000D01*
X121248484Y-87157000D01*
X121045436Y-87116611D01*
X120854167Y-87037385D01*
X120854166Y-87037385D01*
X120854165Y-87037384D01*
X120682027Y-86922365D01*
X120535635Y-86775973D01*
X120420616Y-86603835D01*
X120420615Y-86603833D01*
X120341389Y-86412564D01*
X120301000Y-86209516D01*
X120301000Y-86002484D01*
X120341389Y-85799436D01*
X120420615Y-85608167D01*
X120535635Y-85436027D01*
X120682027Y-85289635D01*
X120854165Y-85174616D01*
X120854167Y-85174615D01*
X121045436Y-85095389D01*
X121248484Y-85055000D01*
X121455516Y-85055000D01*
X121658564Y-85095389D01*
G37*
G36*
X97528564Y-85095389D02*
G01*
X97719833Y-85174615D01*
X97719835Y-85174616D01*
X97891973Y-85289635D01*
X98038365Y-85436027D01*
X98153385Y-85608167D01*
X98232611Y-85799436D01*
X98273000Y-86002484D01*
X98273000Y-86209516D01*
X98232611Y-86412564D01*
X98153385Y-86603833D01*
X98153384Y-86603835D01*
X98038365Y-86775973D01*
X97891973Y-86922365D01*
X97719835Y-87037384D01*
X97719834Y-87037385D01*
X97719833Y-87037385D01*
X97528564Y-87116611D01*
X97325516Y-87157000D01*
X97118484Y-87157000D01*
X96915436Y-87116611D01*
X96724167Y-87037385D01*
X96724166Y-87037385D01*
X96724165Y-87037384D01*
X96552027Y-86922365D01*
X96405635Y-86775973D01*
X96290616Y-86603835D01*
X96290615Y-86603833D01*
X96211389Y-86412564D01*
X96171000Y-86209516D01*
X96171000Y-86002484D01*
X96211389Y-85799436D01*
X96290615Y-85608167D01*
X96405635Y-85436027D01*
X96552027Y-85289635D01*
X96724165Y-85174616D01*
X96724167Y-85174615D01*
X96915436Y-85095389D01*
X97118484Y-85055000D01*
X97325516Y-85055000D01*
X97528564Y-85095389D01*
G37*
G36*
X94523000Y-87157000D02*
G01*
X92421000Y-87157000D01*
X92421000Y-85055000D01*
X94523000Y-85055000D01*
X94523000Y-87157000D01*
G37*
G36*
X77208564Y-85095389D02*
G01*
X77399833Y-85174615D01*
X77399835Y-85174616D01*
X77571973Y-85289635D01*
X77718365Y-85436027D01*
X77833385Y-85608167D01*
X77912611Y-85799436D01*
X77953000Y-86002484D01*
X77953000Y-86209516D01*
X77912611Y-86412564D01*
X77833385Y-86603833D01*
X77833384Y-86603835D01*
X77718365Y-86775973D01*
X77571973Y-86922365D01*
X77399835Y-87037384D01*
X77399834Y-87037385D01*
X77399833Y-87037385D01*
X77208564Y-87116611D01*
X77005516Y-87157000D01*
X76798484Y-87157000D01*
X76595436Y-87116611D01*
X76404167Y-87037385D01*
X76404166Y-87037385D01*
X76404165Y-87037384D01*
X76232027Y-86922365D01*
X76085635Y-86775973D01*
X75970616Y-86603835D01*
X75970615Y-86603833D01*
X75891389Y-86412564D01*
X75851000Y-86209516D01*
X75851000Y-86002484D01*
X75891389Y-85799436D01*
X75970615Y-85608167D01*
X76085635Y-85436027D01*
X76232027Y-85289635D01*
X76404165Y-85174616D01*
X76404167Y-85174615D01*
X76595436Y-85095389D01*
X76798484Y-85055000D01*
X77005516Y-85055000D01*
X77208564Y-85095389D01*
G37*
G36*
X74203000Y-87157000D02*
G01*
X72101000Y-87157000D01*
X72101000Y-85055000D01*
X74203000Y-85055000D01*
X74203000Y-87157000D01*
G37*
G36*
X93473000Y-79732000D02*
G01*
X90571000Y-79732000D01*
X90571000Y-75830000D01*
X93473000Y-75830000D01*
X93473000Y-79732000D01*
G37*
G36*
X103873000Y-79732000D02*
G01*
X100971000Y-79732000D01*
X100971000Y-75830000D01*
X103873000Y-75830000D01*
X103873000Y-79732000D01*
G37*
G36*
X113853000Y-79732000D02*
G01*
X110951000Y-79732000D01*
X110951000Y-75830000D01*
X113853000Y-75830000D01*
X113853000Y-79732000D01*
G37*
G36*
X124253000Y-79732000D02*
G01*
X121351000Y-79732000D01*
X121351000Y-75830000D01*
X124253000Y-75830000D01*
X124253000Y-79732000D01*
G37*
G36*
X83553000Y-79732000D02*
G01*
X80651000Y-79732000D01*
X80651000Y-75830000D01*
X83553000Y-75830000D01*
X83553000Y-79732000D01*
G37*
G36*
X73153000Y-79732000D02*
G01*
X70251000Y-79732000D01*
X70251000Y-75830000D01*
X73153000Y-75830000D01*
X73153000Y-79732000D01*
G37*
G36*
X97448822Y-65767313D02*
G01*
X97609241Y-65815976D01*
X97757077Y-65894995D01*
X97886659Y-66001341D01*
X97993004Y-66130922D01*
X97993005Y-66130924D01*
X98072024Y-66278758D01*
X98120687Y-66439177D01*
X98133000Y-66564196D01*
X98133000Y-67547803D01*
X98120687Y-67672823D01*
X98072024Y-67833242D01*
X98001114Y-67965906D01*
X97993004Y-67981078D01*
X97886659Y-68110659D01*
X97757078Y-68217004D01*
X97757076Y-68217005D01*
X97609242Y-68296024D01*
X97448823Y-68344687D01*
X97282000Y-68361117D01*
X97115178Y-68344687D01*
X96954759Y-68296024D01*
X96806925Y-68217005D01*
X96806923Y-68217004D01*
X96677342Y-68110659D01*
X96570997Y-67981078D01*
X96562887Y-67965906D01*
X96491977Y-67833242D01*
X96443314Y-67672823D01*
X96431000Y-67547803D01*
X96431000Y-66564197D01*
X96443313Y-66439178D01*
X96491976Y-66278759D01*
X96570995Y-66130923D01*
X96677341Y-66001341D01*
X96806922Y-65894996D01*
X96822094Y-65886886D01*
X96954758Y-65815976D01*
X97115177Y-65767313D01*
X97282000Y-65750883D01*
X97448822Y-65767313D01*
G37*
G36*
X94908822Y-65767313D02*
G01*
X95069241Y-65815976D01*
X95217077Y-65894995D01*
X95346659Y-66001341D01*
X95453004Y-66130922D01*
X95453005Y-66130924D01*
X95532024Y-66278758D01*
X95580687Y-66439177D01*
X95593000Y-66564196D01*
X95593000Y-67547803D01*
X95580687Y-67672823D01*
X95532024Y-67833242D01*
X95461114Y-67965906D01*
X95453004Y-67981078D01*
X95346659Y-68110659D01*
X95217078Y-68217004D01*
X95217076Y-68217005D01*
X95069242Y-68296024D01*
X94908823Y-68344687D01*
X94742000Y-68361117D01*
X94575178Y-68344687D01*
X94414759Y-68296024D01*
X94266925Y-68217005D01*
X94266923Y-68217004D01*
X94137342Y-68110659D01*
X94030997Y-67981078D01*
X94022887Y-67965906D01*
X93951977Y-67833242D01*
X93903314Y-67672823D01*
X93891000Y-67547803D01*
X93891000Y-66564197D01*
X93903313Y-66439178D01*
X93951976Y-66278759D01*
X94030995Y-66130923D01*
X94137341Y-66001341D01*
X94266922Y-65894996D01*
X94282094Y-65886886D01*
X94414758Y-65815976D01*
X94575177Y-65767313D01*
X94742000Y-65750883D01*
X94908822Y-65767313D01*
G37*
G36*
X92555057Y-58451059D02*
G01*
X92894547Y-58554042D01*
X92894549Y-58554043D01*
X93207423Y-58721277D01*
X93481661Y-58946339D01*
X93685252Y-59194415D01*
X93706722Y-59220577D01*
X93873958Y-59533452D01*
X93976941Y-59872942D01*
X94003000Y-60137525D01*
X94003000Y-63814475D01*
X93976941Y-64079058D01*
X93873958Y-64418548D01*
X93873957Y-64418550D01*
X93706723Y-64731422D01*
X93481661Y-65005661D01*
X93207422Y-65230723D01*
X92894550Y-65397957D01*
X92894548Y-65397958D01*
X92555058Y-65500941D01*
X92202000Y-65535714D01*
X91848943Y-65500941D01*
X91509453Y-65397958D01*
X91509451Y-65397957D01*
X91196579Y-65230723D01*
X90922340Y-65005661D01*
X90697278Y-64731422D01*
X90530044Y-64418550D01*
X90530043Y-64418548D01*
X90427060Y-64079058D01*
X90401001Y-63814475D01*
X90401000Y-60137526D01*
X90427059Y-59872943D01*
X90530042Y-59533453D01*
X90548162Y-59499553D01*
X90697277Y-59220577D01*
X90922339Y-58946339D01*
X91196578Y-58721277D01*
X91509450Y-58554043D01*
X91509452Y-58554042D01*
X91848942Y-58451059D01*
X92202000Y-58416286D01*
X92555057Y-58451059D01*
G37*
G36*
X102715057Y-58451059D02*
G01*
X103054547Y-58554042D01*
X103054549Y-58554043D01*
X103367423Y-58721277D01*
X103641661Y-58946339D01*
X103845252Y-59194415D01*
X103866722Y-59220577D01*
X104033958Y-59533452D01*
X104136941Y-59872942D01*
X104163000Y-60137525D01*
X104163000Y-63814475D01*
X104136941Y-64079058D01*
X104033958Y-64418548D01*
X104033957Y-64418550D01*
X103866723Y-64731422D01*
X103641661Y-65005661D01*
X103367422Y-65230723D01*
X103054550Y-65397957D01*
X103054548Y-65397958D01*
X102715058Y-65500941D01*
X102362000Y-65535714D01*
X102008943Y-65500941D01*
X101669453Y-65397958D01*
X101669451Y-65397957D01*
X101356579Y-65230723D01*
X101082340Y-65005661D01*
X100857278Y-64731422D01*
X100690044Y-64418550D01*
X100690043Y-64418548D01*
X100587060Y-64079058D01*
X100561001Y-63814475D01*
X100561000Y-60137526D01*
X100587059Y-59872943D01*
X100690042Y-59533453D01*
X100708162Y-59499553D01*
X100857277Y-59220577D01*
X101082339Y-58946339D01*
X101356578Y-58721277D01*
X101669450Y-58554043D01*
X101669452Y-58554042D01*
X102008942Y-58451059D01*
X102362000Y-58416286D01*
X102715057Y-58451059D01*
G37*
G36*
X75323000Y-63385000D02*
G01*
X73521000Y-63385000D01*
X73521000Y-61583000D01*
X75323000Y-61583000D01*
X75323000Y-63385000D01*
G37*
G36*
X79615512Y-61587927D02*
G01*
X79764812Y-61617624D01*
X79928784Y-61685544D01*
X80076354Y-61784147D01*
X80201853Y-61909646D01*
X80300456Y-62057216D01*
X80368376Y-62221188D01*
X80403000Y-62395259D01*
X80403000Y-62572741D01*
X80368376Y-62746812D01*
X80300456Y-62910784D01*
X80201853Y-63058354D01*
X80076354Y-63183853D01*
X79928784Y-63282456D01*
X79764812Y-63350376D01*
X79615512Y-63380073D01*
X79590742Y-63385000D01*
X79413258Y-63385000D01*
X79388488Y-63380073D01*
X79239188Y-63350376D01*
X79075216Y-63282456D01*
X78927646Y-63183853D01*
X78802147Y-63058354D01*
X78703544Y-62910784D01*
X78635624Y-62746812D01*
X78601000Y-62572741D01*
X78601000Y-62395259D01*
X78635624Y-62221188D01*
X78703544Y-62057216D01*
X78802147Y-61909646D01*
X78927646Y-61784147D01*
X79075216Y-61685544D01*
X79239188Y-61617624D01*
X79388488Y-61587927D01*
X79413258Y-61583000D01*
X79590742Y-61583000D01*
X79615512Y-61587927D01*
G37*
G36*
X77075512Y-61587927D02*
G01*
X77224812Y-61617624D01*
X77388784Y-61685544D01*
X77536354Y-61784147D01*
X77661853Y-61909646D01*
X77760456Y-62057216D01*
X77828376Y-62221188D01*
X77863000Y-62395259D01*
X77863000Y-62572741D01*
X77828376Y-62746812D01*
X77760456Y-62910784D01*
X77661853Y-63058354D01*
X77536354Y-63183853D01*
X77388784Y-63282456D01*
X77224812Y-63350376D01*
X77075512Y-63380073D01*
X77050742Y-63385000D01*
X76873258Y-63385000D01*
X76848488Y-63380073D01*
X76699188Y-63350376D01*
X76535216Y-63282456D01*
X76387646Y-63183853D01*
X76262147Y-63058354D01*
X76163544Y-62910784D01*
X76095624Y-62746812D01*
X76061000Y-62572741D01*
X76061000Y-62395259D01*
X76095624Y-62221188D01*
X76163544Y-62057216D01*
X76262147Y-61909646D01*
X76387646Y-61784147D01*
X76535216Y-61685544D01*
X76699188Y-61617624D01*
X76848488Y-61587927D01*
X76873258Y-61583000D01*
X77050742Y-61583000D01*
X77075512Y-61587927D01*
G37*
G36*
X125089256Y-56303298D02*
G01*
X125195579Y-56324447D01*
X125496042Y-56448903D01*
X125766451Y-56629585D01*
X125996415Y-56859549D01*
X126177097Y-57129958D01*
X126301553Y-57430421D01*
X126365000Y-57749391D01*
X126365000Y-58074609D01*
X126301553Y-58393579D01*
X126177097Y-58694042D01*
X125996415Y-58964451D01*
X125766451Y-59194415D01*
X125496042Y-59375097D01*
X125195579Y-59499553D01*
X125089256Y-59520702D01*
X124876611Y-59563000D01*
X124551389Y-59563000D01*
X124338744Y-59520702D01*
X124232421Y-59499553D01*
X123931958Y-59375097D01*
X123661549Y-59194415D01*
X123431585Y-58964451D01*
X123250903Y-58694042D01*
X123126447Y-58393579D01*
X123063000Y-58074609D01*
X123063000Y-57749391D01*
X123126447Y-57430421D01*
X123250903Y-57129958D01*
X123431585Y-56859549D01*
X123661549Y-56629585D01*
X123931958Y-56448903D01*
X124232421Y-56324447D01*
X124338744Y-56303298D01*
X124551389Y-56261000D01*
X124876611Y-56261000D01*
X125089256Y-56303298D01*
G37*
G36*
X70225256Y-56303298D02*
G01*
X70331579Y-56324447D01*
X70632042Y-56448903D01*
X70902451Y-56629585D01*
X71132415Y-56859549D01*
X71313097Y-57129958D01*
X71437553Y-57430421D01*
X71501000Y-57749391D01*
X71501000Y-58074609D01*
X71437553Y-58393579D01*
X71313097Y-58694042D01*
X71132415Y-58964451D01*
X70902451Y-59194415D01*
X70632042Y-59375097D01*
X70331579Y-59499553D01*
X70225256Y-59520702D01*
X70012611Y-59563000D01*
X69687389Y-59563000D01*
X69474744Y-59520702D01*
X69368421Y-59499553D01*
X69067958Y-59375097D01*
X68797549Y-59194415D01*
X68567585Y-58964451D01*
X68386903Y-58694042D01*
X68262447Y-58393579D01*
X68199000Y-58074609D01*
X68199000Y-57749391D01*
X68262447Y-57430421D01*
X68386903Y-57129958D01*
X68567585Y-56859549D01*
X68797549Y-56629585D01*
X69067958Y-56448903D01*
X69368421Y-56324447D01*
X69474744Y-56303298D01*
X69687389Y-56261000D01*
X70012611Y-56261000D01*
X70225256Y-56303298D01*
G37*
M02*
