G04 #@! TF.GenerationSoftware,KiCad,Pcbnew,(5.1.5-0-10_14)*
G04 #@! TF.CreationDate,2020-03-13T23:12:58-07:00*
G04 #@! TF.ProjectId,SigGenAdapter,53696747-656e-4416-9461-707465722e6b,rev?*
G04 #@! TF.SameCoordinates,Original*
G04 #@! TF.FileFunction,Legend,Top*
G04 #@! TF.FilePolarity,Positive*
%FSLAX46Y46*%
G04 Gerber Fmt 4.6, Leading zero omitted, Abs format (unit mm)*
G04 Created by KiCad (PCBNEW (5.1.5-0-10_14)) date 2020-03-13 23:12:58*
%MOMM*%
%LPD*%
G04 APERTURE LIST*
%ADD10C,0.150000*%
%ADD11C,0.120000*%
%ADD12C,0.100000*%
G04 APERTURE END LIST*
D10*
X92282000Y-113102380D02*
X92282000Y-112102380D01*
X92615333Y-112816666D01*
X92948666Y-112102380D01*
X92948666Y-113102380D01*
X93853428Y-113102380D02*
X93853428Y-112578571D01*
X93805809Y-112483333D01*
X93710571Y-112435714D01*
X93520095Y-112435714D01*
X93424857Y-112483333D01*
X93853428Y-113054761D02*
X93758190Y-113102380D01*
X93520095Y-113102380D01*
X93424857Y-113054761D01*
X93377238Y-112959523D01*
X93377238Y-112864285D01*
X93424857Y-112769047D01*
X93520095Y-112721428D01*
X93758190Y-112721428D01*
X93853428Y-112673809D01*
X94186761Y-112435714D02*
X94567714Y-112435714D01*
X94329619Y-112102380D02*
X94329619Y-112959523D01*
X94377238Y-113054761D01*
X94472476Y-113102380D01*
X94567714Y-113102380D01*
X94758190Y-112435714D02*
X95139142Y-112435714D01*
X94901047Y-112102380D02*
X94901047Y-112959523D01*
X94948666Y-113054761D01*
X95043904Y-113102380D01*
X95139142Y-113102380D01*
X96234380Y-113102380D02*
X96234380Y-112102380D01*
X96234380Y-112578571D02*
X96805809Y-112578571D01*
X96805809Y-113102380D02*
X96805809Y-112102380D01*
X97424857Y-113102380D02*
X97329619Y-113054761D01*
X97282000Y-113007142D01*
X97234380Y-112911904D01*
X97234380Y-112626190D01*
X97282000Y-112530952D01*
X97329619Y-112483333D01*
X97424857Y-112435714D01*
X97567714Y-112435714D01*
X97662952Y-112483333D01*
X97710571Y-112530952D01*
X97758190Y-112626190D01*
X97758190Y-112911904D01*
X97710571Y-113007142D01*
X97662952Y-113054761D01*
X97567714Y-113102380D01*
X97424857Y-113102380D01*
X98329619Y-113102380D02*
X98234380Y-113054761D01*
X98186761Y-112959523D01*
X98186761Y-112102380D01*
X98853428Y-113102380D02*
X98758190Y-113054761D01*
X98710571Y-112959523D01*
X98710571Y-112102380D01*
X99662952Y-113102380D02*
X99662952Y-112578571D01*
X99615333Y-112483333D01*
X99520095Y-112435714D01*
X99329619Y-112435714D01*
X99234380Y-112483333D01*
X99662952Y-113054761D02*
X99567714Y-113102380D01*
X99329619Y-113102380D01*
X99234380Y-113054761D01*
X99186761Y-112959523D01*
X99186761Y-112864285D01*
X99234380Y-112769047D01*
X99329619Y-112721428D01*
X99567714Y-112721428D01*
X99662952Y-112673809D01*
X100139142Y-112435714D02*
X100139142Y-113102380D01*
X100139142Y-112530952D02*
X100186761Y-112483333D01*
X100282000Y-112435714D01*
X100424857Y-112435714D01*
X100520095Y-112483333D01*
X100567714Y-112578571D01*
X100567714Y-113102380D01*
X101472476Y-113102380D02*
X101472476Y-112102380D01*
X101472476Y-113054761D02*
X101377238Y-113102380D01*
X101186761Y-113102380D01*
X101091523Y-113054761D01*
X101043904Y-113007142D01*
X100996285Y-112911904D01*
X100996285Y-112626190D01*
X101043904Y-112530952D01*
X101091523Y-112483333D01*
X101186761Y-112435714D01*
X101377238Y-112435714D01*
X101472476Y-112483333D01*
X101901047Y-113054761D02*
X101996285Y-113102380D01*
X102186761Y-113102380D01*
X102282000Y-113054761D01*
X102329619Y-112959523D01*
X102329619Y-112911904D01*
X102282000Y-112816666D01*
X102186761Y-112769047D01*
X102043904Y-112769047D01*
X101948666Y-112721428D01*
X101901047Y-112626190D01*
X101901047Y-112578571D01*
X101948666Y-112483333D01*
X102043904Y-112435714D01*
X102186761Y-112435714D01*
X102282000Y-112483333D01*
X87615333Y-114085714D02*
X87615333Y-115085714D01*
X87615333Y-114133333D02*
X87710571Y-114085714D01*
X87901047Y-114085714D01*
X87996285Y-114133333D01*
X88043904Y-114180952D01*
X88091523Y-114276190D01*
X88091523Y-114561904D01*
X88043904Y-114657142D01*
X87996285Y-114704761D01*
X87901047Y-114752380D01*
X87710571Y-114752380D01*
X87615333Y-114704761D01*
X88520095Y-114752380D02*
X88520095Y-114085714D01*
X88520095Y-114276190D02*
X88567714Y-114180952D01*
X88615333Y-114133333D01*
X88710571Y-114085714D01*
X88805809Y-114085714D01*
X89282000Y-114752380D02*
X89186761Y-114704761D01*
X89139142Y-114657142D01*
X89091523Y-114561904D01*
X89091523Y-114276190D01*
X89139142Y-114180952D01*
X89186761Y-114133333D01*
X89282000Y-114085714D01*
X89424857Y-114085714D01*
X89520095Y-114133333D01*
X89567714Y-114180952D01*
X89615333Y-114276190D01*
X89615333Y-114561904D01*
X89567714Y-114657142D01*
X89520095Y-114704761D01*
X89424857Y-114752380D01*
X89282000Y-114752380D01*
X90043904Y-114085714D02*
X90043904Y-114942857D01*
X89996285Y-115038095D01*
X89901047Y-115085714D01*
X89853428Y-115085714D01*
X90043904Y-113752380D02*
X89996285Y-113800000D01*
X90043904Y-113847619D01*
X90091523Y-113800000D01*
X90043904Y-113752380D01*
X90043904Y-113847619D01*
X90901047Y-114704761D02*
X90805809Y-114752380D01*
X90615333Y-114752380D01*
X90520095Y-114704761D01*
X90472476Y-114609523D01*
X90472476Y-114228571D01*
X90520095Y-114133333D01*
X90615333Y-114085714D01*
X90805809Y-114085714D01*
X90901047Y-114133333D01*
X90948666Y-114228571D01*
X90948666Y-114323809D01*
X90472476Y-114419047D01*
X91805809Y-114704761D02*
X91710571Y-114752380D01*
X91520095Y-114752380D01*
X91424857Y-114704761D01*
X91377238Y-114657142D01*
X91329619Y-114561904D01*
X91329619Y-114276190D01*
X91377238Y-114180952D01*
X91424857Y-114133333D01*
X91520095Y-114085714D01*
X91710571Y-114085714D01*
X91805809Y-114133333D01*
X92091523Y-114085714D02*
X92472476Y-114085714D01*
X92234380Y-113752380D02*
X92234380Y-114609523D01*
X92282000Y-114704761D01*
X92377238Y-114752380D01*
X92472476Y-114752380D01*
X92758190Y-114704761D02*
X92853428Y-114752380D01*
X93043904Y-114752380D01*
X93139142Y-114704761D01*
X93186761Y-114609523D01*
X93186761Y-114561904D01*
X93139142Y-114466666D01*
X93043904Y-114419047D01*
X92901047Y-114419047D01*
X92805809Y-114371428D01*
X92758190Y-114276190D01*
X92758190Y-114228571D01*
X92805809Y-114133333D01*
X92901047Y-114085714D01*
X93043904Y-114085714D01*
X93139142Y-114133333D01*
X93615333Y-114657142D02*
X93662952Y-114704761D01*
X93615333Y-114752380D01*
X93567714Y-114704761D01*
X93615333Y-114657142D01*
X93615333Y-114752380D01*
X94091523Y-114752380D02*
X94091523Y-114085714D01*
X94091523Y-114180952D02*
X94139142Y-114133333D01*
X94234380Y-114085714D01*
X94377238Y-114085714D01*
X94472476Y-114133333D01*
X94520095Y-114228571D01*
X94520095Y-114752380D01*
X94520095Y-114228571D02*
X94567714Y-114133333D01*
X94662952Y-114085714D01*
X94805809Y-114085714D01*
X94901047Y-114133333D01*
X94948666Y-114228571D01*
X94948666Y-114752380D01*
X95853428Y-114752380D02*
X95853428Y-114228571D01*
X95805809Y-114133333D01*
X95710571Y-114085714D01*
X95520095Y-114085714D01*
X95424857Y-114133333D01*
X95853428Y-114704761D02*
X95758190Y-114752380D01*
X95520095Y-114752380D01*
X95424857Y-114704761D01*
X95377238Y-114609523D01*
X95377238Y-114514285D01*
X95424857Y-114419047D01*
X95520095Y-114371428D01*
X95758190Y-114371428D01*
X95853428Y-114323809D01*
X96186761Y-114085714D02*
X96567714Y-114085714D01*
X96329619Y-113752380D02*
X96329619Y-114609523D01*
X96377238Y-114704761D01*
X96472476Y-114752380D01*
X96567714Y-114752380D01*
X96758190Y-114085714D02*
X97139142Y-114085714D01*
X96901047Y-113752380D02*
X96901047Y-114609523D01*
X96948666Y-114704761D01*
X97043904Y-114752380D01*
X97139142Y-114752380D01*
X97472476Y-114752380D02*
X97472476Y-113752380D01*
X97901047Y-114752380D02*
X97901047Y-114228571D01*
X97853428Y-114133333D01*
X97758190Y-114085714D01*
X97615333Y-114085714D01*
X97520095Y-114133333D01*
X97472476Y-114180952D01*
X98520095Y-114752380D02*
X98424857Y-114704761D01*
X98377238Y-114657142D01*
X98329619Y-114561904D01*
X98329619Y-114276190D01*
X98377238Y-114180952D01*
X98424857Y-114133333D01*
X98520095Y-114085714D01*
X98662952Y-114085714D01*
X98758190Y-114133333D01*
X98805809Y-114180952D01*
X98853428Y-114276190D01*
X98853428Y-114561904D01*
X98805809Y-114657142D01*
X98758190Y-114704761D01*
X98662952Y-114752380D01*
X98520095Y-114752380D01*
X99424857Y-114752380D02*
X99329619Y-114704761D01*
X99282000Y-114609523D01*
X99282000Y-113752380D01*
X99948666Y-114752380D02*
X99853428Y-114704761D01*
X99805809Y-114609523D01*
X99805809Y-113752380D01*
X100758190Y-114752380D02*
X100758190Y-114228571D01*
X100710571Y-114133333D01*
X100615333Y-114085714D01*
X100424857Y-114085714D01*
X100329619Y-114133333D01*
X100758190Y-114704761D02*
X100662952Y-114752380D01*
X100424857Y-114752380D01*
X100329619Y-114704761D01*
X100282000Y-114609523D01*
X100282000Y-114514285D01*
X100329619Y-114419047D01*
X100424857Y-114371428D01*
X100662952Y-114371428D01*
X100758190Y-114323809D01*
X101234380Y-114085714D02*
X101234380Y-114752380D01*
X101234380Y-114180952D02*
X101282000Y-114133333D01*
X101377238Y-114085714D01*
X101520095Y-114085714D01*
X101615333Y-114133333D01*
X101662952Y-114228571D01*
X101662952Y-114752380D01*
X102567714Y-114752380D02*
X102567714Y-113752380D01*
X102567714Y-114704761D02*
X102472476Y-114752380D01*
X102282000Y-114752380D01*
X102186761Y-114704761D01*
X102139142Y-114657142D01*
X102091523Y-114561904D01*
X102091523Y-114276190D01*
X102139142Y-114180952D01*
X102186761Y-114133333D01*
X102282000Y-114085714D01*
X102472476Y-114085714D01*
X102567714Y-114133333D01*
X102996285Y-114704761D02*
X103091523Y-114752380D01*
X103282000Y-114752380D01*
X103377238Y-114704761D01*
X103424857Y-114609523D01*
X103424857Y-114561904D01*
X103377238Y-114466666D01*
X103282000Y-114419047D01*
X103139142Y-114419047D01*
X103043904Y-114371428D01*
X102996285Y-114276190D01*
X102996285Y-114228571D01*
X103043904Y-114133333D01*
X103139142Y-114085714D01*
X103282000Y-114085714D01*
X103377238Y-114133333D01*
X103853428Y-114657142D02*
X103901047Y-114704761D01*
X103853428Y-114752380D01*
X103805809Y-114704761D01*
X103853428Y-114657142D01*
X103853428Y-114752380D01*
X104758190Y-114704761D02*
X104662952Y-114752380D01*
X104472476Y-114752380D01*
X104377238Y-114704761D01*
X104329619Y-114657142D01*
X104282000Y-114561904D01*
X104282000Y-114276190D01*
X104329619Y-114180952D01*
X104377238Y-114133333D01*
X104472476Y-114085714D01*
X104662952Y-114085714D01*
X104758190Y-114133333D01*
X105329619Y-114752380D02*
X105234380Y-114704761D01*
X105186761Y-114657142D01*
X105139142Y-114561904D01*
X105139142Y-114276190D01*
X105186761Y-114180952D01*
X105234380Y-114133333D01*
X105329619Y-114085714D01*
X105472476Y-114085714D01*
X105567714Y-114133333D01*
X105615333Y-114180952D01*
X105662952Y-114276190D01*
X105662952Y-114561904D01*
X105615333Y-114657142D01*
X105567714Y-114704761D01*
X105472476Y-114752380D01*
X105329619Y-114752380D01*
X106091523Y-114752380D02*
X106091523Y-114085714D01*
X106091523Y-114180952D02*
X106139142Y-114133333D01*
X106234380Y-114085714D01*
X106377238Y-114085714D01*
X106472476Y-114133333D01*
X106520095Y-114228571D01*
X106520095Y-114752380D01*
X106520095Y-114228571D02*
X106567714Y-114133333D01*
X106662952Y-114085714D01*
X106805809Y-114085714D01*
X106901047Y-114133333D01*
X106948666Y-114228571D01*
X106948666Y-114752380D01*
X95567714Y-115497619D02*
X95615333Y-115450000D01*
X95710571Y-115402380D01*
X95948666Y-115402380D01*
X96043904Y-115450000D01*
X96091523Y-115497619D01*
X96139142Y-115592857D01*
X96139142Y-115688095D01*
X96091523Y-115830952D01*
X95520095Y-116402380D01*
X96139142Y-116402380D01*
X96758190Y-115402380D02*
X96853428Y-115402380D01*
X96948666Y-115450000D01*
X96996285Y-115497619D01*
X97043904Y-115592857D01*
X97091523Y-115783333D01*
X97091523Y-116021428D01*
X97043904Y-116211904D01*
X96996285Y-116307142D01*
X96948666Y-116354761D01*
X96853428Y-116402380D01*
X96758190Y-116402380D01*
X96662952Y-116354761D01*
X96615333Y-116307142D01*
X96567714Y-116211904D01*
X96520095Y-116021428D01*
X96520095Y-115783333D01*
X96567714Y-115592857D01*
X96615333Y-115497619D01*
X96662952Y-115450000D01*
X96758190Y-115402380D01*
X97472476Y-115497619D02*
X97520095Y-115450000D01*
X97615333Y-115402380D01*
X97853428Y-115402380D01*
X97948666Y-115450000D01*
X97996285Y-115497619D01*
X98043904Y-115592857D01*
X98043904Y-115688095D01*
X97996285Y-115830952D01*
X97424857Y-116402380D01*
X98043904Y-116402380D01*
X98662952Y-115402380D02*
X98758190Y-115402380D01*
X98853428Y-115450000D01*
X98901047Y-115497619D01*
X98948666Y-115592857D01*
X98996285Y-115783333D01*
X98996285Y-116021428D01*
X98948666Y-116211904D01*
X98901047Y-116307142D01*
X98853428Y-116354761D01*
X98758190Y-116402380D01*
X98662952Y-116402380D01*
X98567714Y-116354761D01*
X98520095Y-116307142D01*
X98472476Y-116211904D01*
X98424857Y-116021428D01*
X98424857Y-115783333D01*
X98472476Y-115592857D01*
X98520095Y-115497619D01*
X98567714Y-115450000D01*
X98662952Y-115402380D01*
X79121047Y-65349428D02*
X79882952Y-65349428D01*
X74041047Y-65349428D02*
X74802952Y-65349428D01*
X74422000Y-65730380D02*
X74422000Y-64968476D01*
X115697238Y-108434142D02*
X119506761Y-108434142D01*
X74930238Y-108434142D02*
X78739761Y-108434142D01*
X76835000Y-110338904D02*
X76835000Y-106529380D01*
D11*
X127602000Y-101854000D02*
G75*
G03X127602000Y-101854000I-10000000J0D01*
G01*
X107282000Y-101854000D02*
G75*
G03X107282000Y-101854000I-10000000J0D01*
G01*
X86962000Y-101854000D02*
G75*
G03X86962000Y-101854000I-10000000J0D01*
G01*
X75692000Y-63814000D02*
X75692000Y-61154000D01*
X75692000Y-63814000D02*
X80832000Y-63814000D01*
X80832000Y-63814000D02*
X80832000Y-61154000D01*
X75692000Y-61154000D02*
X80832000Y-61154000D01*
X73092000Y-61154000D02*
X74422000Y-61154000D01*
X73092000Y-62484000D02*
X73092000Y-61154000D01*
X76870779Y-89664000D02*
X76545221Y-89664000D01*
X76870779Y-88644000D02*
X76545221Y-88644000D01*
X117764779Y-88644000D02*
X117439221Y-88644000D01*
X117764779Y-89664000D02*
X117439221Y-89664000D01*
X87284779Y-89664000D02*
X86959221Y-89664000D01*
X87284779Y-88644000D02*
X86959221Y-88644000D01*
X107604779Y-88644000D02*
X107279221Y-88644000D01*
X107604779Y-89664000D02*
X107279221Y-89664000D01*
X92772000Y-88454000D02*
X94172000Y-88454000D01*
X94172000Y-88454000D02*
X94172000Y-89854000D01*
X94172000Y-89854000D02*
X92772000Y-89854000D01*
X92772000Y-89854000D02*
X92772000Y-88454000D01*
X100392000Y-89854000D02*
X100392000Y-88454000D01*
X101792000Y-89854000D02*
X100392000Y-89854000D01*
X101792000Y-88454000D02*
X101792000Y-89854000D01*
X100392000Y-88454000D02*
X101792000Y-88454000D01*
X72452000Y-89854000D02*
X72452000Y-88454000D01*
X73852000Y-89854000D02*
X72452000Y-89854000D01*
X73852000Y-88454000D02*
X73852000Y-89854000D01*
X72452000Y-88454000D02*
X73852000Y-88454000D01*
X113346000Y-88454000D02*
X114746000Y-88454000D01*
X114746000Y-88454000D02*
X114746000Y-89854000D01*
X114746000Y-89854000D02*
X113346000Y-89854000D01*
X113346000Y-89854000D02*
X113346000Y-88454000D01*
X79818000Y-89854000D02*
X79818000Y-88454000D01*
X81218000Y-89854000D02*
X79818000Y-89854000D01*
X81218000Y-88454000D02*
X81218000Y-89854000D01*
X79818000Y-88454000D02*
X81218000Y-88454000D01*
X120712000Y-88454000D02*
X122112000Y-88454000D01*
X122112000Y-88454000D02*
X122112000Y-89854000D01*
X122112000Y-89854000D02*
X120712000Y-89854000D01*
X120712000Y-89854000D02*
X120712000Y-88454000D01*
D12*
X70277000Y-86681000D02*
X70277000Y-87456000D01*
X70277000Y-87456000D02*
X70702000Y-87906000D01*
X70702000Y-87906000D02*
X72002000Y-87906000D01*
X71352000Y-71456000D02*
X70277000Y-71456000D01*
X70277000Y-71456000D02*
X70277000Y-72356000D01*
X83527000Y-87131000D02*
X83527000Y-87906000D01*
X83527000Y-87906000D02*
X82777000Y-87906000D01*
X82677000Y-71456000D02*
X83527000Y-71456000D01*
X83527000Y-71456000D02*
X83527000Y-72106000D01*
X124227000Y-71456000D02*
X124227000Y-72106000D01*
X123377000Y-71456000D02*
X124227000Y-71456000D01*
X124227000Y-87906000D02*
X123477000Y-87906000D01*
X124227000Y-87131000D02*
X124227000Y-87906000D01*
X110977000Y-71456000D02*
X110977000Y-72356000D01*
X112052000Y-71456000D02*
X110977000Y-71456000D01*
X111402000Y-87906000D02*
X112702000Y-87906000D01*
X110977000Y-87456000D02*
X111402000Y-87906000D01*
X110977000Y-86681000D02*
X110977000Y-87456000D01*
X90597000Y-86681000D02*
X90597000Y-87456000D01*
X90597000Y-87456000D02*
X91022000Y-87906000D01*
X91022000Y-87906000D02*
X92322000Y-87906000D01*
X91672000Y-71456000D02*
X90597000Y-71456000D01*
X90597000Y-71456000D02*
X90597000Y-72356000D01*
X103847000Y-87131000D02*
X103847000Y-87906000D01*
X103847000Y-87906000D02*
X103097000Y-87906000D01*
X102997000Y-71456000D02*
X103847000Y-71456000D01*
X103847000Y-71456000D02*
X103847000Y-72106000D01*
D11*
X89782000Y-54356000D02*
X104782000Y-54356000D01*
X104782000Y-54356000D02*
X104782000Y-69356000D01*
X104782000Y-69356000D02*
X89782000Y-69356000D01*
X89782000Y-69356000D02*
X89782000Y-54356000D01*
X97282000Y-54556000D02*
X96282000Y-55556000D01*
X97282000Y-54556000D02*
X98282000Y-55556000D01*
X97444779Y-89664000D02*
X97119221Y-89664000D01*
X97444779Y-88644000D02*
X97119221Y-88644000D01*
M02*
