M48
; DRILL file {KiCad (5.1.5-0-10_14)} date Sunday, 02 August 2020 at 20:02:42
; FORMAT={-:-/ absolute / inch / decimal}
; #@! TF.CreationDate,2020-08-02T20:02:42-07:00
; #@! TF.GenerationSoftware,Kicad,Pcbnew,(5.1.5-0-10_14)
; #@! TF.FileFunction,Plated,1,4,PTH
FMAT,2
INCH
T1C0.0079
T2C0.0197
%
G90
G05
T1
X4.4255Y-2.9718
X4.4291Y-2.8071
X4.437Y-2.9098
X4.4441Y-2.9469
X4.4457Y-2.6787
X4.4465Y-3.0327
X4.4465Y-2.8387
X4.4587Y-2.9685
X4.4646Y-2.8307
X4.4661Y-2.9476
X4.4753Y-2.682
X4.4823Y-2.7071
X4.4824Y-2.7379
X4.4846Y-2.8343
X4.4854Y-2.9457
X4.4933Y-2.9134
X4.4947Y-2.7225
X4.4984Y-2.9646
X4.5Y-3.0551
X4.5138Y-2.8287
X4.5165Y-3.0303
X4.5169Y-2.8791
X4.5169Y-2.8976
X4.5205Y-2.9823
X4.5394Y-2.6827
X4.5433Y-2.8268
X4.5646Y-2.6535
X4.5669Y-2.9921
X4.5669Y-2.6748
X4.5877Y-2.8996
X4.5926Y-2.6826
X4.5998Y-2.8562
X4.6015Y-3.0001
X4.6043Y-2.813
X4.6051Y-2.837
X4.6075Y-2.778
X4.6083Y-2.874
X4.6088Y-2.7582
X4.6126Y-3.0463
X4.6142Y-2.9488
X4.6142Y-2.9686
X4.6299Y-2.8189
X4.63Y-2.9931
X4.6339Y-2.9488
X4.6346Y-2.9693
X4.6355Y-3.029
X4.6422Y-2.7026
X4.6429Y-2.8382
X4.6507Y-2.8178
X4.652Y-2.6535
X4.652Y-2.6728
X4.6598Y-3.0086
X4.6638Y-2.837
X4.6678Y-2.9904
X4.6843Y-2.8307
X4.6984Y-2.9419
X4.7087Y-2.8268
X4.7137Y-2.7439
X4.728Y-2.9514
X4.728Y-2.9701
X4.7304Y-2.7212
X4.7307Y-2.8269
X4.7406Y-2.8937
X4.748Y-3.0551
X4.7598Y-2.9094
X4.7638Y-2.9734
X4.7764Y-2.7678
X4.7764Y-2.8177
X4.7795Y-2.911
X4.7874Y-2.9291
X4.7913Y-3.0315
X4.8035Y-2.6535
X4.8087Y-2.7185
X4.8191Y-2.9094
X4.8298Y-2.7193
X4.8346Y-2.9681
X4.8352Y-3.0551
X4.8358Y-2.9476
X4.8398Y-2.9232
X4.8425Y-2.8622
X4.855Y-3.0551
X4.8551Y-2.7795
X4.8632Y-2.9213
X4.8819Y-2.7713
X4.8894Y-2.6535
X4.8899Y-2.8251
X4.8921Y-2.939
X4.8953Y-2.6713
X4.8957Y-2.7161
X4.8961Y-2.6949
X4.9018Y-2.9935
X4.9047Y-2.7665
X4.9055Y-2.9537
X4.9091Y-2.887
X4.9106Y-2.8673
X4.9114Y-2.9083
X4.9158Y-2.9369
X4.9173Y-2.9724
X4.9214Y-2.9961
X4.9261Y-2.8242
X4.9329Y-2.7816
X4.9409Y-2.9985
X4.9421Y-2.8126
X4.9606Y-2.9921
X4.9854Y-2.778
X4.9882Y-2.6693
X4.9949Y-2.7591
X4.9957Y-2.7004
X4.9968Y-2.8665
X5.0Y-2.8898
X5.0024Y-2.8433
X5.0025Y-2.9448
X5.0034Y-2.9642
X5.006Y-2.9253
X5.0118Y-3.0118
X5.0315Y-3.0197
X5.0433Y-2.8354
X5.0433Y-3.0387
X5.0445Y-2.7586
X5.0445Y-2.8146
X5.0551Y-2.6693
X5.0626Y-2.7678
X5.0702Y-2.7963
X5.0728Y-2.9764
X5.0748Y-2.8681
X5.0748Y-2.9213
X5.1124Y-3.0454
X5.1299Y-2.8681
X5.1299Y-2.9213
X5.1299Y-2.9764
X5.1322Y-3.0454
X5.1579Y-3.0496
X5.185Y-2.8681
X5.185Y-2.9213
X5.187Y-2.9783
X5.1949Y-2.6535
X5.1956Y-2.6856
X5.1969Y-2.7815
X5.2017Y-2.7045
X5.2155Y-2.7881
X5.2158Y-2.828
X5.2165Y-3.0157
X5.2213Y-2.702
X5.2351Y-2.8322
X5.2362Y-3.0079
X5.2402Y-2.7874
X5.2409Y-2.7083
X5.252Y-3.0276
X5.2544Y-2.9386
X5.2559Y-3.002
X5.2563Y-2.6937
X5.2638Y-3.0512
X5.2717Y-2.7205
X5.2747Y-2.7009
X5.2795Y-2.9543
X5.2913Y-3.0512
X5.2953Y-2.7028
X5.3071Y-2.8396
X5.3071Y-3.0354
X5.311Y-3.0551
X5.3129Y-2.887
X5.3189Y-2.7205
X5.3268Y-2.7598
X5.3307Y-2.9429
X5.3311Y-2.9606
X5.3346Y-3.0236
X5.337Y-2.8102
X5.3465Y-2.7189
X5.3748Y-2.672
X5.3756Y-2.698
T2
G00X5.2793Y-2.9047
M15
G01X5.2793Y-2.8614
M16
G05
G00X5.364Y-2.7866
M15
G01X5.364Y-2.7591
M16
G05
G00X5.364Y-3.0071
M15
G01X5.364Y-2.9795
M16
G05
T0
M30
