G04 #@! TF.GenerationSoftware,KiCad,Pcbnew,(5.1.5-0-10_14)*
G04 #@! TF.CreationDate,2020-08-02T20:02:39-07:00*
G04 #@! TF.ProjectId,EOGlass2,454f476c-6173-4733-922e-6b696361645f,rev?*
G04 #@! TF.SameCoordinates,Original*
G04 #@! TF.FileFunction,Legend,Bot*
G04 #@! TF.FilePolarity,Positive*
%FSLAX46Y46*%
G04 Gerber Fmt 4.6, Leading zero omitted, Abs format (unit mm)*
G04 Created by KiCad (PCBNEW (5.1.5-0-10_14)) date 2020-08-02 20:02:39*
%MOMM*%
%LPD*%
G04 APERTURE LIST*
%ADD10C,0.120000*%
G04 APERTURE END LIST*
D10*
X120100000Y-76200000D02*
G75*
G03X120100000Y-76200000I-700000J0D01*
G01*
X136245000Y-74930000D02*
X136995000Y-74930000D01*
X136995000Y-74930000D02*
X136995000Y-74330000D01*
X136995000Y-75230000D02*
X136995000Y-77380000D01*
X136995000Y-69080000D02*
X133445000Y-69080000D01*
X133445000Y-77380000D02*
X133445000Y-74480000D01*
X136995000Y-77380000D02*
X133445000Y-77380000D01*
X133445000Y-69080000D02*
X133445000Y-71980000D01*
X136995000Y-71230000D02*
X136995000Y-69080000D01*
X132040000Y-71000000D02*
X132040000Y-70200000D01*
X131840000Y-71000000D02*
X132040000Y-71000000D01*
X132040000Y-68000000D02*
X131840000Y-68000000D01*
X132040000Y-68800000D02*
X132040000Y-68000000D01*
X129040000Y-68000000D02*
X129040000Y-68800000D01*
X129240000Y-68000000D02*
X129040000Y-68000000D01*
X129040000Y-70800000D02*
X129240000Y-71000000D01*
X129040000Y-70200000D02*
X129040000Y-70800000D01*
X129040000Y-70200000D02*
X128540000Y-70200000D01*
X129040000Y-68800000D02*
X128540000Y-68800000D01*
X121020000Y-70200000D02*
X121520000Y-70200000D01*
X121020000Y-68800000D02*
X121520000Y-68800000D01*
X121020000Y-68800000D02*
X121020000Y-68200000D01*
X121020000Y-68200000D02*
X120820000Y-68000000D01*
X120820000Y-71000000D02*
X121020000Y-71000000D01*
X121020000Y-71000000D02*
X121020000Y-70200000D01*
X118020000Y-70200000D02*
X118020000Y-71000000D01*
X118020000Y-71000000D02*
X118220000Y-71000000D01*
X118220000Y-68000000D02*
X118020000Y-68000000D01*
X118020000Y-68000000D02*
X118020000Y-68800000D01*
X113800000Y-71000000D02*
X113800000Y-71500000D01*
X115200000Y-71000000D02*
X115200000Y-71500000D01*
X115200000Y-71000000D02*
X115800000Y-71000000D01*
X115800000Y-71000000D02*
X116000000Y-70800000D01*
X113000000Y-70800000D02*
X113000000Y-71000000D01*
X113000000Y-71000000D02*
X113800000Y-71000000D01*
X113800000Y-68000000D02*
X113000000Y-68000000D01*
X113000000Y-68000000D02*
X113000000Y-68200000D01*
X116000000Y-68200000D02*
X116000000Y-68000000D01*
X116000000Y-68000000D02*
X115200000Y-68000000D01*
X116960000Y-75420000D02*
G75*
G03X116960000Y-75420000I-2250000J0D01*
G01*
X132250000Y-74600000D02*
G75*
G03X132250000Y-74600000I-2250000J0D01*
G01*
X124610000Y-72600000D02*
G75*
G03X124610000Y-72600000I-700000J0D01*
G01*
X120350000Y-73960000D02*
G75*
G03X120350000Y-73960000I-700000J0D01*
G01*
X122640000Y-73040000D02*
G75*
G03X122640000Y-73040000I-700000J0D01*
G01*
X124320000Y-75140000D02*
G75*
G03X124320000Y-75140000I-700000J0D01*
G01*
M02*
