G04 #@! TF.GenerationSoftware,KiCad,Pcbnew,(5.1.5-0-10_14)*
G04 #@! TF.CreationDate,2020-08-02T20:02:39-07:00*
G04 #@! TF.ProjectId,EOGlass2,454f476c-6173-4733-922e-6b696361645f,rev?*
G04 #@! TF.SameCoordinates,Original*
G04 #@! TF.FileFunction,Legend,Top*
G04 #@! TF.FilePolarity,Positive*
%FSLAX46Y46*%
G04 Gerber Fmt 4.6, Leading zero omitted, Abs format (unit mm)*
G04 Created by KiCad (PCBNEW (5.1.5-0-10_14)) date 2020-08-02 20:02:39*
%MOMM*%
%LPD*%
G04 APERTURE LIST*
%ADD10C,0.120000*%
G04 APERTURE END LIST*
D10*
X117740000Y-75600000D02*
X117740000Y-77500000D01*
X120060000Y-77000000D02*
X120060000Y-75600000D01*
X127600000Y-67190000D02*
X126100000Y-67190000D01*
X127600000Y-67190000D02*
X129100000Y-67190000D01*
X127600000Y-70410000D02*
X126100000Y-70410000D01*
X127600000Y-70410000D02*
X130525000Y-70410000D01*
X120540000Y-73660000D02*
X120540000Y-76660000D01*
X122740000Y-73660000D02*
X122740000Y-75860000D01*
X131970000Y-67990000D02*
X131970000Y-70440000D01*
X135190000Y-69790000D02*
X135190000Y-67990000D01*
X125700000Y-72890000D02*
X123900000Y-72890000D01*
X123900000Y-76110000D02*
X126350000Y-76110000D01*
X132435000Y-71590000D02*
X132910000Y-71590000D01*
X132910000Y-71590000D02*
X132910000Y-72065000D01*
X128165000Y-76810000D02*
X127690000Y-76810000D01*
X127690000Y-76810000D02*
X127690000Y-76335000D01*
X132435000Y-76810000D02*
X132910000Y-76810000D01*
X132910000Y-76810000D02*
X132910000Y-76335000D01*
X128165000Y-71590000D02*
X127690000Y-71590000D01*
X112990000Y-71400000D02*
X114790000Y-71400000D01*
X114790000Y-68180000D02*
X112340000Y-68180000D01*
X120200000Y-72700000D02*
X120200000Y-70900000D01*
X116980000Y-70900000D02*
X116980000Y-73350000D01*
X123310000Y-67220000D02*
X120860000Y-67220000D01*
X121510000Y-70440000D02*
X123310000Y-70440000D01*
X112210000Y-73660000D02*
X112210000Y-76660000D01*
X114410000Y-73660000D02*
X114410000Y-75860000D01*
X117160000Y-77000000D02*
X117160000Y-75600000D01*
X114840000Y-75600000D02*
X114840000Y-77500000D01*
M02*
