G04 #@! TF.GenerationSoftware,KiCad,Pcbnew,(5.1.5-0-10_14)*
G04 #@! TF.CreationDate,2020-11-28T18:57:39-08:00*
G04 #@! TF.ProjectId,UFL_Coax_Adapter,55464c5f-436f-4617-985f-416461707465,rev?*
G04 #@! TF.SameCoordinates,Original*
G04 #@! TF.FileFunction,Copper,L2,Bot*
G04 #@! TF.FilePolarity,Positive*
%FSLAX46Y46*%
G04 Gerber Fmt 4.6, Leading zero omitted, Abs format (unit mm)*
G04 Created by KiCad (PCBNEW (5.1.5-0-10_14)) date 2020-11-28 18:57:39*
%MOMM*%
%LPD*%
G04 APERTURE LIST*
%ADD10R,2.000000X2.000000*%
%ADD11C,0.800000*%
%ADD12C,0.200000*%
G04 APERTURE END LIST*
D10*
X144000000Y-63000000D03*
D11*
X144000000Y-63000000D03*
D12*
G36*
X146675000Y-65675000D02*
G01*
X141325000Y-65675000D01*
X141325000Y-64000000D01*
X142698548Y-64000000D01*
X142704340Y-64058810D01*
X142721495Y-64115361D01*
X142749352Y-64167478D01*
X142786841Y-64213159D01*
X142832522Y-64250648D01*
X142884639Y-64278505D01*
X142941190Y-64295660D01*
X143000000Y-64301452D01*
X143924500Y-64300000D01*
X143999500Y-64225000D01*
X143999500Y-63000500D01*
X144000500Y-63000500D01*
X144000500Y-64225000D01*
X144075500Y-64300000D01*
X145000000Y-64301452D01*
X145058810Y-64295660D01*
X145115361Y-64278505D01*
X145167478Y-64250648D01*
X145213159Y-64213159D01*
X145250648Y-64167478D01*
X145278505Y-64115361D01*
X145295660Y-64058810D01*
X145301452Y-64000000D01*
X145300000Y-63075500D01*
X145225000Y-63000500D01*
X144000500Y-63000500D01*
X143999500Y-63000500D01*
X142775000Y-63000500D01*
X142700000Y-63075500D01*
X142698548Y-64000000D01*
X141325000Y-64000000D01*
X141325000Y-62000000D01*
X142698548Y-62000000D01*
X142700000Y-62924500D01*
X142775000Y-62999500D01*
X143999500Y-62999500D01*
X143999500Y-61775000D01*
X144000500Y-61775000D01*
X144000500Y-62999500D01*
X145225000Y-62999500D01*
X145300000Y-62924500D01*
X145301452Y-62000000D01*
X145295660Y-61941190D01*
X145278505Y-61884639D01*
X145250648Y-61832522D01*
X145213159Y-61786841D01*
X145167478Y-61749352D01*
X145115361Y-61721495D01*
X145058810Y-61704340D01*
X145000000Y-61698548D01*
X144075500Y-61700000D01*
X144000500Y-61775000D01*
X143999500Y-61775000D01*
X143924500Y-61700000D01*
X143000000Y-61698548D01*
X142941190Y-61704340D01*
X142884639Y-61721495D01*
X142832522Y-61749352D01*
X142786841Y-61786841D01*
X142749352Y-61832522D01*
X142721495Y-61884639D01*
X142704340Y-61941190D01*
X142698548Y-62000000D01*
X141325000Y-62000000D01*
X141325000Y-60325000D01*
X146675001Y-60325000D01*
X146675000Y-65675000D01*
G37*
X146675000Y-65675000D02*
X141325000Y-65675000D01*
X141325000Y-64000000D01*
X142698548Y-64000000D01*
X142704340Y-64058810D01*
X142721495Y-64115361D01*
X142749352Y-64167478D01*
X142786841Y-64213159D01*
X142832522Y-64250648D01*
X142884639Y-64278505D01*
X142941190Y-64295660D01*
X143000000Y-64301452D01*
X143924500Y-64300000D01*
X143999500Y-64225000D01*
X143999500Y-63000500D01*
X144000500Y-63000500D01*
X144000500Y-64225000D01*
X144075500Y-64300000D01*
X145000000Y-64301452D01*
X145058810Y-64295660D01*
X145115361Y-64278505D01*
X145167478Y-64250648D01*
X145213159Y-64213159D01*
X145250648Y-64167478D01*
X145278505Y-64115361D01*
X145295660Y-64058810D01*
X145301452Y-64000000D01*
X145300000Y-63075500D01*
X145225000Y-63000500D01*
X144000500Y-63000500D01*
X143999500Y-63000500D01*
X142775000Y-63000500D01*
X142700000Y-63075500D01*
X142698548Y-64000000D01*
X141325000Y-64000000D01*
X141325000Y-62000000D01*
X142698548Y-62000000D01*
X142700000Y-62924500D01*
X142775000Y-62999500D01*
X143999500Y-62999500D01*
X143999500Y-61775000D01*
X144000500Y-61775000D01*
X144000500Y-62999500D01*
X145225000Y-62999500D01*
X145300000Y-62924500D01*
X145301452Y-62000000D01*
X145295660Y-61941190D01*
X145278505Y-61884639D01*
X145250648Y-61832522D01*
X145213159Y-61786841D01*
X145167478Y-61749352D01*
X145115361Y-61721495D01*
X145058810Y-61704340D01*
X145000000Y-61698548D01*
X144075500Y-61700000D01*
X144000500Y-61775000D01*
X143999500Y-61775000D01*
X143924500Y-61700000D01*
X143000000Y-61698548D01*
X142941190Y-61704340D01*
X142884639Y-61721495D01*
X142832522Y-61749352D01*
X142786841Y-61786841D01*
X142749352Y-61832522D01*
X142721495Y-61884639D01*
X142704340Y-61941190D01*
X142698548Y-62000000D01*
X141325000Y-62000000D01*
X141325000Y-60325000D01*
X146675001Y-60325000D01*
X146675000Y-65675000D01*
M02*
