G04 #@! TF.GenerationSoftware,KiCad,Pcbnew,(5.1.2-1)-1*
G04 #@! TF.CreationDate,2019-10-09T20:55:45-07:00*
G04 #@! TF.ProjectId,EOGee,454f4765-652e-46b6-9963-61645f706362,rev?*
G04 #@! TF.SameCoordinates,Original*
G04 #@! TF.FileFunction,Legend,Bot*
G04 #@! TF.FilePolarity,Positive*
%FSLAX46Y46*%
G04 Gerber Fmt 4.6, Leading zero omitted, Abs format (unit mm)*
G04 Created by KiCad (PCBNEW (5.1.2-1)-1) date 2019-10-09 20:55:45*
%MOMM*%
%LPD*%
G04 APERTURE LIST*
%ADD10C,0.300000*%
G04 APERTURE END LIST*
D10*
X129728571Y-111878571D02*
X129728571Y-110378571D01*
X129228571Y-111450000D01*
X128728571Y-110378571D01*
X128728571Y-111878571D01*
X127371428Y-111878571D02*
X127371428Y-111092857D01*
X127442857Y-110950000D01*
X127585714Y-110878571D01*
X127871428Y-110878571D01*
X128014285Y-110950000D01*
X127371428Y-111807142D02*
X127514285Y-111878571D01*
X127871428Y-111878571D01*
X128014285Y-111807142D01*
X128085714Y-111664285D01*
X128085714Y-111521428D01*
X128014285Y-111378571D01*
X127871428Y-111307142D01*
X127514285Y-111307142D01*
X127371428Y-111235714D01*
X126871428Y-110878571D02*
X126300000Y-110878571D01*
X126657142Y-110378571D02*
X126657142Y-111664285D01*
X126585714Y-111807142D01*
X126442857Y-111878571D01*
X126300000Y-111878571D01*
X126014285Y-110878571D02*
X125442857Y-110878571D01*
X125800000Y-110378571D02*
X125800000Y-111664285D01*
X125728571Y-111807142D01*
X125585714Y-111878571D01*
X125442857Y-111878571D01*
X123800000Y-111878571D02*
X123800000Y-110378571D01*
X123800000Y-111092857D02*
X122942857Y-111092857D01*
X122942857Y-111878571D02*
X122942857Y-110378571D01*
X122014285Y-111878571D02*
X122157142Y-111807142D01*
X122228571Y-111735714D01*
X122300000Y-111592857D01*
X122300000Y-111164285D01*
X122228571Y-111021428D01*
X122157142Y-110950000D01*
X122014285Y-110878571D01*
X121800000Y-110878571D01*
X121657142Y-110950000D01*
X121585714Y-111021428D01*
X121514285Y-111164285D01*
X121514285Y-111592857D01*
X121585714Y-111735714D01*
X121657142Y-111807142D01*
X121800000Y-111878571D01*
X122014285Y-111878571D01*
X120657142Y-111878571D02*
X120800000Y-111807142D01*
X120871428Y-111664285D01*
X120871428Y-110378571D01*
X119871428Y-111878571D02*
X120014285Y-111807142D01*
X120085714Y-111664285D01*
X120085714Y-110378571D01*
X118657142Y-111878571D02*
X118657142Y-111092857D01*
X118728571Y-110950000D01*
X118871428Y-110878571D01*
X119157142Y-110878571D01*
X119300000Y-110950000D01*
X118657142Y-111807142D02*
X118800000Y-111878571D01*
X119157142Y-111878571D01*
X119300000Y-111807142D01*
X119371428Y-111664285D01*
X119371428Y-111521428D01*
X119300000Y-111378571D01*
X119157142Y-111307142D01*
X118800000Y-111307142D01*
X118657142Y-111235714D01*
X117942857Y-110878571D02*
X117942857Y-111878571D01*
X117942857Y-111021428D02*
X117871428Y-110950000D01*
X117728571Y-110878571D01*
X117514285Y-110878571D01*
X117371428Y-110950000D01*
X117300000Y-111092857D01*
X117300000Y-111878571D01*
X115942857Y-111878571D02*
X115942857Y-110378571D01*
X115942857Y-111807142D02*
X116085714Y-111878571D01*
X116371428Y-111878571D01*
X116514285Y-111807142D01*
X116585714Y-111735714D01*
X116657142Y-111592857D01*
X116657142Y-111164285D01*
X116585714Y-111021428D01*
X116514285Y-110950000D01*
X116371428Y-110878571D01*
X116085714Y-110878571D01*
X115942857Y-110950000D01*
X115300000Y-111807142D02*
X115157142Y-111878571D01*
X114871428Y-111878571D01*
X114728571Y-111807142D01*
X114657142Y-111664285D01*
X114657142Y-111592857D01*
X114728571Y-111450000D01*
X114871428Y-111378571D01*
X115085714Y-111378571D01*
X115228571Y-111307142D01*
X115300000Y-111164285D01*
X115300000Y-111092857D01*
X115228571Y-110950000D01*
X115085714Y-110878571D01*
X114871428Y-110878571D01*
X114728571Y-110950000D01*
X112942857Y-110521428D02*
X112871428Y-110450000D01*
X112728571Y-110378571D01*
X112371428Y-110378571D01*
X112228571Y-110450000D01*
X112157142Y-110521428D01*
X112085714Y-110664285D01*
X112085714Y-110807142D01*
X112157142Y-111021428D01*
X113014285Y-111878571D01*
X112085714Y-111878571D01*
X111157142Y-110378571D02*
X111014285Y-110378571D01*
X110871428Y-110450000D01*
X110800000Y-110521428D01*
X110728571Y-110664285D01*
X110657142Y-110950000D01*
X110657142Y-111307142D01*
X110728571Y-111592857D01*
X110800000Y-111735714D01*
X110871428Y-111807142D01*
X111014285Y-111878571D01*
X111157142Y-111878571D01*
X111300000Y-111807142D01*
X111371428Y-111735714D01*
X111442857Y-111592857D01*
X111514285Y-111307142D01*
X111514285Y-110950000D01*
X111442857Y-110664285D01*
X111371428Y-110521428D01*
X111300000Y-110450000D01*
X111157142Y-110378571D01*
X109228571Y-111878571D02*
X110085714Y-111878571D01*
X109657142Y-111878571D02*
X109657142Y-110378571D01*
X109800000Y-110592857D01*
X109942857Y-110735714D01*
X110085714Y-110807142D01*
X108514285Y-111878571D02*
X108228571Y-111878571D01*
X108085714Y-111807142D01*
X108014285Y-111735714D01*
X107871428Y-111521428D01*
X107800000Y-111235714D01*
X107800000Y-110664285D01*
X107871428Y-110521428D01*
X107942857Y-110450000D01*
X108085714Y-110378571D01*
X108371428Y-110378571D01*
X108514285Y-110450000D01*
X108585714Y-110521428D01*
X108657142Y-110664285D01*
X108657142Y-111021428D01*
X108585714Y-111164285D01*
X108514285Y-111235714D01*
X108371428Y-111307142D01*
X108085714Y-111307142D01*
X107942857Y-111235714D01*
X107871428Y-111164285D01*
X107800000Y-111021428D01*
X132700000Y-108678571D02*
X132700000Y-110178571D01*
X132700000Y-108750000D02*
X132557142Y-108678571D01*
X132271428Y-108678571D01*
X132128571Y-108750000D01*
X132057142Y-108821428D01*
X131985714Y-108964285D01*
X131985714Y-109392857D01*
X132057142Y-109535714D01*
X132128571Y-109607142D01*
X132271428Y-109678571D01*
X132557142Y-109678571D01*
X132700000Y-109607142D01*
X131342857Y-109678571D02*
X131342857Y-108678571D01*
X131342857Y-108964285D02*
X131271428Y-108821428D01*
X131200000Y-108750000D01*
X131057142Y-108678571D01*
X130914285Y-108678571D01*
X130200000Y-109678571D02*
X130342857Y-109607142D01*
X130414285Y-109535714D01*
X130485714Y-109392857D01*
X130485714Y-108964285D01*
X130414285Y-108821428D01*
X130342857Y-108750000D01*
X130200000Y-108678571D01*
X129985714Y-108678571D01*
X129842857Y-108750000D01*
X129771428Y-108821428D01*
X129700000Y-108964285D01*
X129700000Y-109392857D01*
X129771428Y-109535714D01*
X129842857Y-109607142D01*
X129985714Y-109678571D01*
X130200000Y-109678571D01*
X129057142Y-108678571D02*
X129057142Y-109964285D01*
X129128571Y-110107142D01*
X129271428Y-110178571D01*
X129342857Y-110178571D01*
X129057142Y-108178571D02*
X129128571Y-108250000D01*
X129057142Y-108321428D01*
X128985714Y-108250000D01*
X129057142Y-108178571D01*
X129057142Y-108321428D01*
X127771428Y-109607142D02*
X127914285Y-109678571D01*
X128200000Y-109678571D01*
X128342857Y-109607142D01*
X128414285Y-109464285D01*
X128414285Y-108892857D01*
X128342857Y-108750000D01*
X128200000Y-108678571D01*
X127914285Y-108678571D01*
X127771428Y-108750000D01*
X127700000Y-108892857D01*
X127700000Y-109035714D01*
X128414285Y-109178571D01*
X126414285Y-109607142D02*
X126557142Y-109678571D01*
X126842857Y-109678571D01*
X126985714Y-109607142D01*
X127057142Y-109535714D01*
X127128571Y-109392857D01*
X127128571Y-108964285D01*
X127057142Y-108821428D01*
X126985714Y-108750000D01*
X126842857Y-108678571D01*
X126557142Y-108678571D01*
X126414285Y-108750000D01*
X125985714Y-108678571D02*
X125414285Y-108678571D01*
X125771428Y-108178571D02*
X125771428Y-109464285D01*
X125700000Y-109607142D01*
X125557142Y-109678571D01*
X125414285Y-109678571D01*
X124985714Y-109607142D02*
X124842857Y-109678571D01*
X124557142Y-109678571D01*
X124414285Y-109607142D01*
X124342857Y-109464285D01*
X124342857Y-109392857D01*
X124414285Y-109250000D01*
X124557142Y-109178571D01*
X124771428Y-109178571D01*
X124914285Y-109107142D01*
X124985714Y-108964285D01*
X124985714Y-108892857D01*
X124914285Y-108750000D01*
X124771428Y-108678571D01*
X124557142Y-108678571D01*
X124414285Y-108750000D01*
X123700000Y-109535714D02*
X123628571Y-109607142D01*
X123700000Y-109678571D01*
X123771428Y-109607142D01*
X123700000Y-109535714D01*
X123700000Y-109678571D01*
X122985714Y-109678571D02*
X122985714Y-108678571D01*
X122985714Y-108821428D02*
X122914285Y-108750000D01*
X122771428Y-108678571D01*
X122557142Y-108678571D01*
X122414285Y-108750000D01*
X122342857Y-108892857D01*
X122342857Y-109678571D01*
X122342857Y-108892857D02*
X122271428Y-108750000D01*
X122128571Y-108678571D01*
X121914285Y-108678571D01*
X121771428Y-108750000D01*
X121700000Y-108892857D01*
X121700000Y-109678571D01*
X120342857Y-109678571D02*
X120342857Y-108892857D01*
X120414285Y-108750000D01*
X120557142Y-108678571D01*
X120842857Y-108678571D01*
X120985714Y-108750000D01*
X120342857Y-109607142D02*
X120485714Y-109678571D01*
X120842857Y-109678571D01*
X120985714Y-109607142D01*
X121057142Y-109464285D01*
X121057142Y-109321428D01*
X120985714Y-109178571D01*
X120842857Y-109107142D01*
X120485714Y-109107142D01*
X120342857Y-109035714D01*
X119842857Y-108678571D02*
X119271428Y-108678571D01*
X119628571Y-108178571D02*
X119628571Y-109464285D01*
X119557142Y-109607142D01*
X119414285Y-109678571D01*
X119271428Y-109678571D01*
X118985714Y-108678571D02*
X118414285Y-108678571D01*
X118771428Y-108178571D02*
X118771428Y-109464285D01*
X118700000Y-109607142D01*
X118557142Y-109678571D01*
X118414285Y-109678571D01*
X117914285Y-109678571D02*
X117914285Y-108178571D01*
X117271428Y-109678571D02*
X117271428Y-108892857D01*
X117342857Y-108750000D01*
X117485714Y-108678571D01*
X117700000Y-108678571D01*
X117842857Y-108750000D01*
X117914285Y-108821428D01*
X116342857Y-109678571D02*
X116485714Y-109607142D01*
X116557142Y-109535714D01*
X116628571Y-109392857D01*
X116628571Y-108964285D01*
X116557142Y-108821428D01*
X116485714Y-108750000D01*
X116342857Y-108678571D01*
X116128571Y-108678571D01*
X115985714Y-108750000D01*
X115914285Y-108821428D01*
X115842857Y-108964285D01*
X115842857Y-109392857D01*
X115914285Y-109535714D01*
X115985714Y-109607142D01*
X116128571Y-109678571D01*
X116342857Y-109678571D01*
X114985714Y-109678571D02*
X115128571Y-109607142D01*
X115200000Y-109464285D01*
X115200000Y-108178571D01*
X114200000Y-109678571D02*
X114342857Y-109607142D01*
X114414285Y-109464285D01*
X114414285Y-108178571D01*
X112985714Y-109678571D02*
X112985714Y-108892857D01*
X113057142Y-108750000D01*
X113200000Y-108678571D01*
X113485714Y-108678571D01*
X113628571Y-108750000D01*
X112985714Y-109607142D02*
X113128571Y-109678571D01*
X113485714Y-109678571D01*
X113628571Y-109607142D01*
X113700000Y-109464285D01*
X113700000Y-109321428D01*
X113628571Y-109178571D01*
X113485714Y-109107142D01*
X113128571Y-109107142D01*
X112985714Y-109035714D01*
X112271428Y-108678571D02*
X112271428Y-109678571D01*
X112271428Y-108821428D02*
X112200000Y-108750000D01*
X112057142Y-108678571D01*
X111842857Y-108678571D01*
X111700000Y-108750000D01*
X111628571Y-108892857D01*
X111628571Y-109678571D01*
X110271428Y-109678571D02*
X110271428Y-108178571D01*
X110271428Y-109607142D02*
X110414285Y-109678571D01*
X110700000Y-109678571D01*
X110842857Y-109607142D01*
X110914285Y-109535714D01*
X110985714Y-109392857D01*
X110985714Y-108964285D01*
X110914285Y-108821428D01*
X110842857Y-108750000D01*
X110700000Y-108678571D01*
X110414285Y-108678571D01*
X110271428Y-108750000D01*
X109628571Y-109607142D02*
X109485714Y-109678571D01*
X109200000Y-109678571D01*
X109057142Y-109607142D01*
X108985714Y-109464285D01*
X108985714Y-109392857D01*
X109057142Y-109250000D01*
X109200000Y-109178571D01*
X109414285Y-109178571D01*
X109557142Y-109107142D01*
X109628571Y-108964285D01*
X109628571Y-108892857D01*
X109557142Y-108750000D01*
X109414285Y-108678571D01*
X109200000Y-108678571D01*
X109057142Y-108750000D01*
X108342857Y-109535714D02*
X108271428Y-109607142D01*
X108342857Y-109678571D01*
X108414285Y-109607142D01*
X108342857Y-109535714D01*
X108342857Y-109678571D01*
X106985714Y-109607142D02*
X107128571Y-109678571D01*
X107414285Y-109678571D01*
X107557142Y-109607142D01*
X107628571Y-109535714D01*
X107700000Y-109392857D01*
X107700000Y-108964285D01*
X107628571Y-108821428D01*
X107557142Y-108750000D01*
X107414285Y-108678571D01*
X107128571Y-108678571D01*
X106985714Y-108750000D01*
X106128571Y-109678571D02*
X106271428Y-109607142D01*
X106342857Y-109535714D01*
X106414285Y-109392857D01*
X106414285Y-108964285D01*
X106342857Y-108821428D01*
X106271428Y-108750000D01*
X106128571Y-108678571D01*
X105914285Y-108678571D01*
X105771428Y-108750000D01*
X105700000Y-108821428D01*
X105628571Y-108964285D01*
X105628571Y-109392857D01*
X105700000Y-109535714D01*
X105771428Y-109607142D01*
X105914285Y-109678571D01*
X106128571Y-109678571D01*
X104985714Y-109678571D02*
X104985714Y-108678571D01*
X104985714Y-108821428D02*
X104914285Y-108750000D01*
X104771428Y-108678571D01*
X104557142Y-108678571D01*
X104414285Y-108750000D01*
X104342857Y-108892857D01*
X104342857Y-109678571D01*
X104342857Y-108892857D02*
X104271428Y-108750000D01*
X104128571Y-108678571D01*
X103914285Y-108678571D01*
X103771428Y-108750000D01*
X103700000Y-108892857D01*
X103700000Y-109678571D01*
M02*
