M48
; DRILL file {KiCad (5.1.2-1)-1} date Wednesday, 09 October 2019 at 20:55:41
; FORMAT={-:-/ absolute / inch / decimal}
; #@! TF.CreationDate,2019-10-09T20:55:41-07:00
; #@! TF.GenerationSoftware,Kicad,Pcbnew,(5.1.2-1)-1
; #@! TF.FileFunction,Plated,1,2,PTH
FMAT,2
INCH
T1C0.0157
T2C0.0236
T3C0.0315
T4C0.0335
%
G90
G05
T1
X3.8386Y-4.3307
X3.8386Y-4.4291
X3.8681Y-4.2421
X3.9764Y-4.5768
X4.065Y-4.4291
X4.065Y-4.5768
X4.0846Y-4.2421
X4.1437Y-4.5768
X4.1929Y-4.2421
X4.3012Y-4.2421
X4.3406Y-4.4291
X4.3602Y-4.5472
X4.4193Y-4.2421
X4.4587Y-4.5669
X4.498Y-4.2421
X4.5177Y-4.4193
X4.5472Y-4.4521
X4.5472Y-4.4521
X4.6265Y-4.468
X4.6358Y-4.6161
X4.6555Y-4.3406
X4.6575Y-4.2421
X4.6949Y-4.439
X4.7343Y-4.2421
X4.7638Y-4.5571
X4.7835Y-4.4488
X4.8031Y-4.2421
X4.9409Y-4.2421
X4.9449Y-4.4754
X5.0315Y-4.4488
X5.128Y-4.3898
X5.1339Y-4.4567
X5.1865Y-4.4483
X5.2067Y-4.3898
X5.2264Y-4.626
X5.2461Y-4.5768
X5.2756Y-4.4331
X5.3386Y-4.4331
X5.3742Y-4.5379
X5.4016Y-4.4331
X5.4346Y-4.2906
X5.4646Y-4.3937
X5.4941Y-4.2539
X5.5079Y-4.4518
X5.5433Y-4.4882
X5.5646Y-4.4424
X5.6299Y-4.5157
X5.6594Y-4.626
X5.685Y-4.5748
X5.6988Y-4.3406
X5.6988Y-4.4193
X5.6988Y-4.4882
X5.7185Y-4.2539
X5.7598Y-4.4783
X5.7874Y-4.378
X5.874Y-4.6063
X5.8957Y-4.5571
X5.9606Y-4.4417
X6.0591Y-4.313
X6.0591Y-4.3622
X6.1024Y-4.2835
X6.1063Y-4.3248
X6.122Y-4.4094
X6.1299Y-4.4469
X6.1715Y-4.4978
X6.1772Y-4.2776
X6.2362Y-4.6063
X6.2402Y-4.5276
X6.2441Y-4.3937
X6.252Y-4.4409
X6.2756Y-4.5906
X6.2795Y-4.5472
X6.3858Y-4.4094
X6.3858Y-4.4469
X6.4016Y-4.3701
X6.4154Y-4.622
X6.5059Y-4.5276
X6.5118Y-4.6142
X6.5157Y-4.2421
X6.5256Y-4.5768
X6.5453Y-4.2717
X6.565Y-4.626
X6.5945Y-4.2717
X6.5945Y-4.5866
X6.7028Y-4.2352
X6.7028Y-4.626
T3
X5.4646Y-4.4945
X5.4646Y-4.5945
X4.713Y-4.6063
X4.813Y-4.6063
X4.7146Y-4.5079
X4.8146Y-4.5079
T4
X6.5645Y-4.3327
X6.5645Y-4.5295
T2
G00X6.657Y-4.2933
M15
G01X6.6845Y-4.2933
M16
G05
G00X6.6845Y-4.5689
M15
G01X6.657Y-4.5689
M16
G05
T0
M30
