G04 #@! TF.GenerationSoftware,KiCad,Pcbnew,(5.1.2-1)-1*
G04 #@! TF.CreationDate,2019-10-09T20:55:45-07:00*
G04 #@! TF.ProjectId,EOGee,454f4765-652e-46b6-9963-61645f706362,rev?*
G04 #@! TF.SameCoordinates,Original*
G04 #@! TF.FileFunction,Soldermask,Bot*
G04 #@! TF.FilePolarity,Negative*
%FSLAX46Y46*%
G04 Gerber Fmt 4.6, Leading zero omitted, Abs format (unit mm)*
G04 Created by KiCad (PCBNEW (5.1.2-1)-1) date 2019-10-09 20:55:45*
%MOMM*%
%LPD*%
G04 APERTURE LIST*
%ADD10C,0.100000*%
G04 APERTURE END LIST*
D10*
G36*
X122469059Y-116277860D02*
G01*
X122605732Y-116334472D01*
X122728735Y-116416660D01*
X122833340Y-116521265D01*
X122915528Y-116644268D01*
X122915529Y-116644270D01*
X122972140Y-116780941D01*
X123001000Y-116926032D01*
X123001000Y-117073968D01*
X122972140Y-117219059D01*
X122945514Y-117283341D01*
X122915528Y-117355732D01*
X122833340Y-117478735D01*
X122728735Y-117583340D01*
X122605732Y-117665528D01*
X122605731Y-117665529D01*
X122605730Y-117665529D01*
X122469059Y-117722140D01*
X122323968Y-117751000D01*
X122176032Y-117751000D01*
X122030941Y-117722140D01*
X121894270Y-117665529D01*
X121894269Y-117665529D01*
X121894268Y-117665528D01*
X121771265Y-117583340D01*
X121666660Y-117478735D01*
X121584472Y-117355732D01*
X121554487Y-117283341D01*
X121527860Y-117219059D01*
X121499000Y-117073968D01*
X121499000Y-116926032D01*
X121527860Y-116780941D01*
X121584471Y-116644270D01*
X121584472Y-116644268D01*
X121666660Y-116521265D01*
X121771265Y-116416660D01*
X121894268Y-116334472D01*
X122030941Y-116277860D01*
X122176032Y-116249000D01*
X122323968Y-116249000D01*
X122469059Y-116277860D01*
X122469059Y-116277860D01*
G37*
G36*
X119929059Y-116277860D02*
G01*
X120065732Y-116334472D01*
X120188735Y-116416660D01*
X120293340Y-116521265D01*
X120375528Y-116644268D01*
X120375529Y-116644270D01*
X120432140Y-116780941D01*
X120461000Y-116926032D01*
X120461000Y-117073968D01*
X120432140Y-117219059D01*
X120405514Y-117283341D01*
X120375528Y-117355732D01*
X120293340Y-117478735D01*
X120188735Y-117583340D01*
X120065732Y-117665528D01*
X120065731Y-117665529D01*
X120065730Y-117665529D01*
X119929059Y-117722140D01*
X119783968Y-117751000D01*
X119636032Y-117751000D01*
X119490941Y-117722140D01*
X119354270Y-117665529D01*
X119354269Y-117665529D01*
X119354268Y-117665528D01*
X119231265Y-117583340D01*
X119126660Y-117478735D01*
X119044472Y-117355732D01*
X119014487Y-117283341D01*
X118987860Y-117219059D01*
X118959000Y-117073968D01*
X118959000Y-116926032D01*
X118987860Y-116780941D01*
X119044471Y-116644270D01*
X119044472Y-116644268D01*
X119126660Y-116521265D01*
X119231265Y-116416660D01*
X119354268Y-116334472D01*
X119490941Y-116277860D01*
X119636032Y-116249000D01*
X119783968Y-116249000D01*
X119929059Y-116277860D01*
X119929059Y-116277860D01*
G37*
G36*
X139019059Y-115977860D02*
G01*
X139155732Y-116034472D01*
X139278735Y-116116660D01*
X139383340Y-116221265D01*
X139465528Y-116344268D01*
X139465529Y-116344270D01*
X139522140Y-116480941D01*
X139544610Y-116593905D01*
X139551000Y-116626033D01*
X139551000Y-116773967D01*
X139522140Y-116919059D01*
X139465528Y-117055732D01*
X139383340Y-117178735D01*
X139278735Y-117283340D01*
X139155732Y-117365528D01*
X139155731Y-117365529D01*
X139155730Y-117365529D01*
X139019059Y-117422140D01*
X138873968Y-117451000D01*
X138726032Y-117451000D01*
X138580941Y-117422140D01*
X138444270Y-117365529D01*
X138444269Y-117365529D01*
X138444268Y-117365528D01*
X138321265Y-117283340D01*
X138216660Y-117178735D01*
X138134472Y-117055732D01*
X138077860Y-116919059D01*
X138049000Y-116773967D01*
X138049000Y-116626033D01*
X138055391Y-116593905D01*
X138077860Y-116480941D01*
X138134471Y-116344270D01*
X138134472Y-116344268D01*
X138216660Y-116221265D01*
X138321265Y-116116660D01*
X138444268Y-116034472D01*
X138580941Y-115977860D01*
X138726032Y-115949000D01*
X138873968Y-115949000D01*
X139019059Y-115977860D01*
X139019059Y-115977860D01*
G37*
G36*
X169851355Y-115402140D02*
G01*
X169915118Y-115408420D01*
X170005904Y-115435960D01*
X170037836Y-115445646D01*
X170150925Y-115506094D01*
X170250054Y-115587446D01*
X170331406Y-115686575D01*
X170391854Y-115799664D01*
X170391855Y-115799668D01*
X170429080Y-115922382D01*
X170441649Y-116050000D01*
X170429080Y-116177618D01*
X170415839Y-116221267D01*
X170391854Y-116300336D01*
X170331406Y-116413425D01*
X170250054Y-116512554D01*
X170150925Y-116593906D01*
X170037836Y-116654354D01*
X170005904Y-116664040D01*
X169915118Y-116691580D01*
X169851355Y-116697860D01*
X169819474Y-116701000D01*
X169055526Y-116701000D01*
X169023645Y-116697860D01*
X168959882Y-116691580D01*
X168869096Y-116664040D01*
X168837164Y-116654354D01*
X168724075Y-116593906D01*
X168624946Y-116512554D01*
X168543594Y-116413425D01*
X168483146Y-116300336D01*
X168459161Y-116221267D01*
X168445920Y-116177618D01*
X168433351Y-116050000D01*
X168445920Y-115922382D01*
X168483145Y-115799668D01*
X168483146Y-115799664D01*
X168543594Y-115686575D01*
X168624946Y-115587446D01*
X168724075Y-115506094D01*
X168837164Y-115445646D01*
X168869096Y-115435960D01*
X168959882Y-115408420D01*
X169023645Y-115402140D01*
X169055526Y-115399000D01*
X169819474Y-115399000D01*
X169851355Y-115402140D01*
X169851355Y-115402140D01*
G37*
G36*
X166963848Y-114303820D02*
G01*
X166963850Y-114303821D01*
X166963851Y-114303821D01*
X167105074Y-114362317D01*
X167105077Y-114362319D01*
X167232169Y-114447239D01*
X167340261Y-114555331D01*
X167425181Y-114682423D01*
X167425183Y-114682426D01*
X167483679Y-114823649D01*
X167483680Y-114823652D01*
X167513500Y-114973569D01*
X167513500Y-115126431D01*
X167494463Y-115222140D01*
X167483679Y-115276351D01*
X167425183Y-115417574D01*
X167425181Y-115417577D01*
X167340261Y-115544669D01*
X167232169Y-115652761D01*
X167105077Y-115737681D01*
X167105074Y-115737683D01*
X166963851Y-115796179D01*
X166963850Y-115796179D01*
X166963848Y-115796180D01*
X166813931Y-115826000D01*
X166661069Y-115826000D01*
X166511152Y-115796180D01*
X166511150Y-115796179D01*
X166511149Y-115796179D01*
X166369926Y-115737683D01*
X166369923Y-115737681D01*
X166242831Y-115652761D01*
X166134739Y-115544669D01*
X166049819Y-115417577D01*
X166049817Y-115417574D01*
X165991321Y-115276351D01*
X165980538Y-115222140D01*
X165961500Y-115126431D01*
X165961500Y-114973569D01*
X165991320Y-114823652D01*
X165991321Y-114823649D01*
X166049817Y-114682426D01*
X166049819Y-114682423D01*
X166134739Y-114555331D01*
X166242831Y-114447239D01*
X166369923Y-114362319D01*
X166369926Y-114362317D01*
X166511149Y-114303821D01*
X166511150Y-114303821D01*
X166511152Y-114303820D01*
X166661069Y-114274000D01*
X166813931Y-114274000D01*
X166963848Y-114303820D01*
X166963848Y-114303820D01*
G37*
G36*
X122509059Y-113777860D02*
G01*
X122572814Y-113804268D01*
X122645732Y-113834472D01*
X122768735Y-113916660D01*
X122873340Y-114021265D01*
X122955528Y-114144268D01*
X122955529Y-114144270D01*
X123012140Y-114280941D01*
X123031657Y-114379059D01*
X123041000Y-114426033D01*
X123041000Y-114573967D01*
X123012140Y-114719059D01*
X122955528Y-114855732D01*
X122873340Y-114978735D01*
X122768735Y-115083340D01*
X122645732Y-115165528D01*
X122645731Y-115165529D01*
X122645730Y-115165529D01*
X122509059Y-115222140D01*
X122363968Y-115251000D01*
X122216032Y-115251000D01*
X122070941Y-115222140D01*
X121934270Y-115165529D01*
X121934269Y-115165529D01*
X121934268Y-115165528D01*
X121811265Y-115083340D01*
X121706660Y-114978735D01*
X121624472Y-114855732D01*
X121567860Y-114719059D01*
X121539000Y-114573967D01*
X121539000Y-114426033D01*
X121548344Y-114379059D01*
X121567860Y-114280941D01*
X121624471Y-114144270D01*
X121624472Y-114144268D01*
X121706660Y-114021265D01*
X121811265Y-113916660D01*
X121934268Y-113834472D01*
X122007187Y-113804268D01*
X122070941Y-113777860D01*
X122216032Y-113749000D01*
X122363968Y-113749000D01*
X122509059Y-113777860D01*
X122509059Y-113777860D01*
G37*
G36*
X119969059Y-113777860D02*
G01*
X120032814Y-113804268D01*
X120105732Y-113834472D01*
X120228735Y-113916660D01*
X120333340Y-114021265D01*
X120415528Y-114144268D01*
X120415529Y-114144270D01*
X120472140Y-114280941D01*
X120491657Y-114379059D01*
X120501000Y-114426033D01*
X120501000Y-114573967D01*
X120472140Y-114719059D01*
X120415528Y-114855732D01*
X120333340Y-114978735D01*
X120228735Y-115083340D01*
X120105732Y-115165528D01*
X120105731Y-115165529D01*
X120105730Y-115165529D01*
X119969059Y-115222140D01*
X119823968Y-115251000D01*
X119676032Y-115251000D01*
X119530941Y-115222140D01*
X119394270Y-115165529D01*
X119394269Y-115165529D01*
X119394268Y-115165528D01*
X119271265Y-115083340D01*
X119166660Y-114978735D01*
X119084472Y-114855732D01*
X119027860Y-114719059D01*
X118999000Y-114573967D01*
X118999000Y-114426033D01*
X119008344Y-114379059D01*
X119027860Y-114280941D01*
X119084471Y-114144270D01*
X119084472Y-114144268D01*
X119166660Y-114021265D01*
X119271265Y-113916660D01*
X119394268Y-113834472D01*
X119467187Y-113804268D01*
X119530941Y-113777860D01*
X119676032Y-113749000D01*
X119823968Y-113749000D01*
X119969059Y-113777860D01*
X119969059Y-113777860D01*
G37*
G36*
X139019059Y-113437860D02*
G01*
X139155732Y-113494472D01*
X139278735Y-113576660D01*
X139383340Y-113681265D01*
X139465528Y-113804268D01*
X139465529Y-113804270D01*
X139522140Y-113940941D01*
X139551000Y-114086032D01*
X139551000Y-114233968D01*
X139525470Y-114362317D01*
X139522140Y-114379059D01*
X139465528Y-114515732D01*
X139383340Y-114638735D01*
X139278735Y-114743340D01*
X139155732Y-114825528D01*
X139155731Y-114825529D01*
X139155730Y-114825529D01*
X139019059Y-114882140D01*
X138873968Y-114911000D01*
X138726032Y-114911000D01*
X138580941Y-114882140D01*
X138444270Y-114825529D01*
X138444269Y-114825529D01*
X138444268Y-114825528D01*
X138321265Y-114743340D01*
X138216660Y-114638735D01*
X138134472Y-114515732D01*
X138077860Y-114379059D01*
X138074530Y-114362317D01*
X138049000Y-114233968D01*
X138049000Y-114086032D01*
X138077860Y-113940941D01*
X138134471Y-113804270D01*
X138134472Y-113804268D01*
X138216660Y-113681265D01*
X138321265Y-113576660D01*
X138444268Y-113494472D01*
X138580941Y-113437860D01*
X138726032Y-113409000D01*
X138873968Y-113409000D01*
X139019059Y-113437860D01*
X139019059Y-113437860D01*
G37*
G36*
X107313512Y-111643927D02*
G01*
X107462812Y-111673624D01*
X107626784Y-111741544D01*
X107774354Y-111840147D01*
X107899853Y-111965646D01*
X107998456Y-112113216D01*
X108066376Y-112277188D01*
X108101000Y-112451259D01*
X108101000Y-112628741D01*
X108066376Y-112802812D01*
X107998456Y-112966784D01*
X107899853Y-113114354D01*
X107774354Y-113239853D01*
X107626784Y-113338456D01*
X107462812Y-113406376D01*
X107313512Y-113436073D01*
X107288742Y-113441000D01*
X107111258Y-113441000D01*
X107086488Y-113436073D01*
X106937188Y-113406376D01*
X106773216Y-113338456D01*
X106625646Y-113239853D01*
X106500147Y-113114354D01*
X106401544Y-112966784D01*
X106333624Y-112802812D01*
X106299000Y-112628741D01*
X106299000Y-112451259D01*
X106333624Y-112277188D01*
X106401544Y-112113216D01*
X106500147Y-111965646D01*
X106625646Y-111840147D01*
X106773216Y-111741544D01*
X106937188Y-111673624D01*
X107086488Y-111643927D01*
X107111258Y-111639000D01*
X107288742Y-111639000D01*
X107313512Y-111643927D01*
X107313512Y-111643927D01*
G37*
G36*
X100313512Y-111643927D02*
G01*
X100462812Y-111673624D01*
X100626784Y-111741544D01*
X100774354Y-111840147D01*
X100899853Y-111965646D01*
X100998456Y-112113216D01*
X101066376Y-112277188D01*
X101101000Y-112451259D01*
X101101000Y-112628741D01*
X101066376Y-112802812D01*
X100998456Y-112966784D01*
X100899853Y-113114354D01*
X100774354Y-113239853D01*
X100626784Y-113338456D01*
X100462812Y-113406376D01*
X100313512Y-113436073D01*
X100288742Y-113441000D01*
X100111258Y-113441000D01*
X100086488Y-113436073D01*
X99937188Y-113406376D01*
X99773216Y-113338456D01*
X99625646Y-113239853D01*
X99500147Y-113114354D01*
X99401544Y-112966784D01*
X99333624Y-112802812D01*
X99299000Y-112628741D01*
X99299000Y-112451259D01*
X99333624Y-112277188D01*
X99401544Y-112113216D01*
X99500147Y-111965646D01*
X99625646Y-111840147D01*
X99773216Y-111741544D01*
X99937188Y-111673624D01*
X100086488Y-111643927D01*
X100111258Y-111639000D01*
X100288742Y-111639000D01*
X100313512Y-111643927D01*
X100313512Y-111643927D01*
G37*
G36*
X166963848Y-109303820D02*
G01*
X166963850Y-109303821D01*
X166963851Y-109303821D01*
X167105074Y-109362317D01*
X167105077Y-109362319D01*
X167232169Y-109447239D01*
X167340261Y-109555331D01*
X167425181Y-109682423D01*
X167425183Y-109682426D01*
X167483679Y-109823649D01*
X167513500Y-109973571D01*
X167513500Y-110126429D01*
X167483679Y-110276351D01*
X167425183Y-110417574D01*
X167425181Y-110417577D01*
X167340261Y-110544669D01*
X167232169Y-110652761D01*
X167105077Y-110737681D01*
X167105074Y-110737683D01*
X166963851Y-110796179D01*
X166963850Y-110796179D01*
X166963848Y-110796180D01*
X166813931Y-110826000D01*
X166661069Y-110826000D01*
X166511152Y-110796180D01*
X166511150Y-110796179D01*
X166511149Y-110796179D01*
X166369926Y-110737683D01*
X166369923Y-110737681D01*
X166242831Y-110652761D01*
X166134739Y-110544669D01*
X166049819Y-110417577D01*
X166049817Y-110417574D01*
X165991321Y-110276351D01*
X165961500Y-110126429D01*
X165961500Y-109973571D01*
X165991321Y-109823649D01*
X166049817Y-109682426D01*
X166049819Y-109682423D01*
X166134739Y-109555331D01*
X166242831Y-109447239D01*
X166369923Y-109362319D01*
X166369926Y-109362317D01*
X166511149Y-109303821D01*
X166511150Y-109303821D01*
X166511152Y-109303820D01*
X166661069Y-109274000D01*
X166813931Y-109274000D01*
X166963848Y-109303820D01*
X166963848Y-109303820D01*
G37*
G36*
X169851355Y-108402140D02*
G01*
X169915118Y-108408420D01*
X170005904Y-108435960D01*
X170037836Y-108445646D01*
X170150925Y-108506094D01*
X170250054Y-108587446D01*
X170331406Y-108686575D01*
X170391854Y-108799664D01*
X170391855Y-108799668D01*
X170429080Y-108922382D01*
X170441649Y-109050000D01*
X170429080Y-109177618D01*
X170401540Y-109268404D01*
X170391854Y-109300336D01*
X170331406Y-109413425D01*
X170250054Y-109512554D01*
X170150925Y-109593906D01*
X170037836Y-109654354D01*
X170005904Y-109664040D01*
X169915118Y-109691580D01*
X169851355Y-109697860D01*
X169819474Y-109701000D01*
X169055526Y-109701000D01*
X169023645Y-109697860D01*
X168959882Y-109691580D01*
X168869096Y-109664040D01*
X168837164Y-109654354D01*
X168724075Y-109593906D01*
X168624946Y-109512554D01*
X168543594Y-109413425D01*
X168483146Y-109300336D01*
X168473460Y-109268404D01*
X168445920Y-109177618D01*
X168433351Y-109050000D01*
X168445920Y-108922382D01*
X168483145Y-108799668D01*
X168483146Y-108799664D01*
X168543594Y-108686575D01*
X168624946Y-108587446D01*
X168724075Y-108506094D01*
X168837164Y-108445646D01*
X168869096Y-108435960D01*
X168959882Y-108408420D01*
X169023645Y-108402140D01*
X169055526Y-108399000D01*
X169819474Y-108399000D01*
X169851355Y-108402140D01*
X169851355Y-108402140D01*
G37*
M02*
