G04 #@! TF.GenerationSoftware,KiCad,Pcbnew,(5.1.2-1)-1*
G04 #@! TF.CreationDate,2019-10-09T20:55:45-07:00*
G04 #@! TF.ProjectId,EOGee,454f4765-652e-46b6-9963-61645f706362,rev?*
G04 #@! TF.SameCoordinates,Original*
G04 #@! TF.FileFunction,Legend,Top*
G04 #@! TF.FilePolarity,Positive*
%FSLAX46Y46*%
G04 Gerber Fmt 4.6, Leading zero omitted, Abs format (unit mm)*
G04 Created by KiCad (PCBNEW (5.1.2-1)-1) date 2019-10-09 20:55:45*
%MOMM*%
%LPD*%
G04 APERTURE LIST*
%ADD10C,0.120000*%
%ADD11C,0.150000*%
G04 APERTURE END LIST*
D10*
X163490000Y-116237221D02*
X163490000Y-116562779D01*
X164510000Y-116237221D02*
X164510000Y-116562779D01*
X136110000Y-110437221D02*
X136110000Y-110762779D01*
X135090000Y-110437221D02*
X135090000Y-110762779D01*
X161690000Y-115637221D02*
X161690000Y-115962779D01*
X162710000Y-115637221D02*
X162710000Y-115962779D01*
X121162779Y-112260000D02*
X120837221Y-112260000D01*
X121162779Y-111240000D02*
X120837221Y-111240000D01*
X153215000Y-115450000D02*
X153215000Y-117735000D01*
X153215000Y-117735000D02*
X154685000Y-117735000D01*
X154685000Y-117735000D02*
X154685000Y-115450000D01*
X156185000Y-117735000D02*
X156185000Y-115450000D01*
X154715000Y-117735000D02*
X156185000Y-117735000D01*
X154715000Y-115450000D02*
X154715000Y-117735000D01*
X156215000Y-115450000D02*
X156215000Y-117735000D01*
X156215000Y-117735000D02*
X157685000Y-117735000D01*
X157685000Y-117735000D02*
X157685000Y-115450000D01*
X116500000Y-117930000D02*
X115500000Y-117930000D01*
X115500000Y-116570000D02*
X116500000Y-116570000D01*
X113750000Y-117930000D02*
X112750000Y-117930000D01*
X112750000Y-116570000D02*
X113750000Y-116570000D01*
X113750000Y-110180000D02*
X112750000Y-110180000D01*
X112750000Y-108820000D02*
X113750000Y-108820000D01*
X127180000Y-109000000D02*
X127180000Y-110000000D01*
X125820000Y-110000000D02*
X125820000Y-109000000D01*
X127180000Y-111750000D02*
X127180000Y-112750000D01*
X125820000Y-112750000D02*
X125820000Y-111750000D01*
X134510000Y-110437221D02*
X134510000Y-110762779D01*
X133490000Y-110437221D02*
X133490000Y-110762779D01*
X137710000Y-110437221D02*
X137710000Y-110762779D01*
X136690000Y-110437221D02*
X136690000Y-110762779D01*
X123890000Y-109337221D02*
X123890000Y-109662779D01*
X124910000Y-109337221D02*
X124910000Y-109662779D01*
X123890000Y-112587221D02*
X123890000Y-112912779D01*
X124910000Y-112587221D02*
X124910000Y-112912779D01*
X160090000Y-115637221D02*
X160090000Y-115962779D01*
X161110000Y-115637221D02*
X161110000Y-115962779D01*
X164310000Y-109837221D02*
X164310000Y-110162779D01*
X163290000Y-109837221D02*
X163290000Y-110162779D01*
X156440000Y-111787221D02*
X156440000Y-112112779D01*
X157460000Y-111787221D02*
X157460000Y-112112779D01*
X126510000Y-116087221D02*
X126510000Y-116412779D01*
X125490000Y-116087221D02*
X125490000Y-116412779D01*
X139812779Y-109890000D02*
X139487221Y-109890000D01*
X139812779Y-110910000D02*
X139487221Y-110910000D01*
X139812779Y-109310000D02*
X139487221Y-109310000D01*
X139812779Y-108290000D02*
X139487221Y-108290000D01*
X151737221Y-110760000D02*
X152062779Y-110760000D01*
X151737221Y-109740000D02*
X152062779Y-109740000D01*
X140290000Y-116162779D02*
X140290000Y-115837221D01*
X141310000Y-116162779D02*
X141310000Y-115837221D01*
X151737221Y-108240000D02*
X152062779Y-108240000D01*
X151737221Y-109260000D02*
X152062779Y-109260000D01*
X166437500Y-116450000D02*
X166437500Y-116000000D01*
X168287500Y-116450000D02*
X166437500Y-116450000D01*
X170837500Y-108650000D02*
X170587500Y-108650000D01*
X170837500Y-116450000D02*
X170587500Y-116450000D01*
X168287500Y-108650000D02*
X166437500Y-108650000D01*
X166437500Y-108650000D02*
X166437500Y-109100000D01*
X165887500Y-114250000D02*
X165887500Y-113800000D01*
X165887500Y-114250000D02*
X166337500Y-114250000D01*
X97800000Y-115640000D02*
X96600000Y-115640000D01*
X96600000Y-115640000D02*
X96600000Y-115140000D01*
X96600000Y-115140000D02*
X94100000Y-115140000D01*
X94100000Y-115140000D02*
X94100000Y-109940000D01*
X94100000Y-109940000D02*
X96600000Y-109940000D01*
X96600000Y-109940000D02*
X96600000Y-109440000D01*
X96600000Y-109440000D02*
X99800000Y-109440000D01*
X102400000Y-109440000D02*
X111300000Y-109440000D01*
X111300000Y-109440000D02*
X111300000Y-115640000D01*
X111300000Y-115640000D02*
X110100000Y-115640000D01*
X106900000Y-115640000D02*
X100400000Y-115640000D01*
X97800000Y-115640000D02*
X97800000Y-117640000D01*
X100400000Y-115640000D02*
X100400000Y-117640000D01*
X136562779Y-107690000D02*
X136237221Y-107690000D01*
X136562779Y-108710000D02*
X136237221Y-108710000D01*
X163490000Y-113362779D02*
X163490000Y-113037221D01*
X164510000Y-113362779D02*
X164510000Y-113037221D01*
X121500000Y-110680000D02*
X120500000Y-110680000D01*
X120500000Y-109320000D02*
X121500000Y-109320000D01*
X123820000Y-116750000D02*
X123820000Y-115750000D01*
X125180000Y-115750000D02*
X125180000Y-116750000D01*
X131000000Y-118030000D02*
X130000000Y-118030000D01*
X130000000Y-116670000D02*
X131000000Y-116670000D01*
X152910000Y-116037221D02*
X152910000Y-116362779D01*
X151890000Y-116037221D02*
X151890000Y-116362779D01*
X151900000Y-114280000D02*
X150900000Y-114280000D01*
X150900000Y-112920000D02*
X151900000Y-112920000D01*
X150900000Y-111320000D02*
X151900000Y-111320000D01*
X151900000Y-112680000D02*
X150900000Y-112680000D01*
X153320000Y-113300000D02*
X153320000Y-112300000D01*
X154680000Y-112300000D02*
X154680000Y-113300000D01*
X135300000Y-117500000D02*
X135700000Y-117500000D01*
X133900000Y-116400000D02*
X133900000Y-113500000D01*
X133900000Y-113500000D02*
X134500000Y-113500000D01*
X137100000Y-116400000D02*
X137100000Y-113500000D01*
X137100000Y-113500000D02*
X136500000Y-113500000D01*
X133700000Y-117300000D02*
X133700000Y-118000000D01*
X133700000Y-118000000D02*
X134400000Y-118000000D01*
X147550000Y-117600000D02*
X147550000Y-117300000D01*
X150850000Y-117600000D02*
X147550000Y-117600000D01*
X150850000Y-117300000D02*
X150850000Y-117600000D01*
X147550000Y-114800000D02*
X147550000Y-115100000D01*
X150850000Y-114800000D02*
X147550000Y-114800000D01*
X150850000Y-115100000D02*
X150850000Y-114800000D01*
X145850000Y-115100000D02*
X145850000Y-114800000D01*
X145850000Y-114800000D02*
X142550000Y-114800000D01*
X142550000Y-114800000D02*
X142550000Y-115100000D01*
X145850000Y-117300000D02*
X145850000Y-117600000D01*
X145850000Y-117600000D02*
X142550000Y-117600000D01*
X142550000Y-117600000D02*
X142550000Y-117300000D01*
D11*
X118720000Y-114100000D02*
X119220000Y-113600000D01*
X118720000Y-114900000D02*
X118720000Y-114100000D01*
X119220000Y-115400000D02*
X118720000Y-114900000D01*
X122820000Y-115400000D02*
X119220000Y-115400000D01*
X123320000Y-114900000D02*
X122820000Y-115400000D01*
X123320000Y-114100000D02*
X123320000Y-114900000D01*
X122820000Y-113600000D02*
X123320000Y-114100000D01*
X119220000Y-113600000D02*
X122820000Y-113600000D01*
X122780000Y-117900000D02*
X119180000Y-117900000D01*
X119180000Y-117900000D02*
X118680000Y-117400000D01*
X118680000Y-117400000D02*
X118680000Y-116600000D01*
X118680000Y-116600000D02*
X119180000Y-116100000D01*
X119180000Y-116100000D02*
X122780000Y-116100000D01*
X122780000Y-116100000D02*
X123280000Y-116600000D01*
X123280000Y-116600000D02*
X123280000Y-117400000D01*
X123280000Y-117400000D02*
X122780000Y-117900000D01*
X137900000Y-117230000D02*
X137900000Y-113630000D01*
X137900000Y-113630000D02*
X138400000Y-113130000D01*
X138400000Y-113130000D02*
X139200000Y-113130000D01*
X139200000Y-113130000D02*
X139700000Y-113630000D01*
X139700000Y-113630000D02*
X139700000Y-117230000D01*
X139700000Y-117230000D02*
X139200000Y-117730000D01*
X139200000Y-117730000D02*
X138400000Y-117730000D01*
X138400000Y-117730000D02*
X137900000Y-117230000D01*
X132750000Y-110175000D02*
X132750000Y-108825000D01*
X127625000Y-110175000D02*
X127625000Y-114825000D01*
X132875000Y-110175000D02*
X132875000Y-114825000D01*
X127625000Y-110175000D02*
X127850000Y-110175000D01*
X127625000Y-114825000D02*
X127850000Y-114825000D01*
X132875000Y-114825000D02*
X132650000Y-114825000D01*
X132875000Y-110175000D02*
X132750000Y-110175000D01*
D10*
X162850000Y-112730000D02*
X161650000Y-112730000D01*
X162850000Y-108730000D02*
X162850000Y-112730000D01*
X158050000Y-112730000D02*
X158050000Y-110030000D01*
X159250000Y-112730000D02*
X158050000Y-112730000D01*
D11*
X143425000Y-114250000D02*
X147875000Y-114250000D01*
X141900000Y-107350000D02*
X147875000Y-107350000D01*
D10*
X114990000Y-108662779D02*
X114990000Y-108337221D01*
X116010000Y-108662779D02*
X116010000Y-108337221D01*
X117510000Y-108662779D02*
X117510000Y-108337221D01*
X116490000Y-108662779D02*
X116490000Y-108337221D01*
D11*
X114825000Y-114925000D02*
X115000000Y-114925000D01*
X114825000Y-111575000D02*
X115075000Y-111575000D01*
X118175000Y-111575000D02*
X117925000Y-111575000D01*
X118175000Y-114925000D02*
X117925000Y-114925000D01*
X114825000Y-114925000D02*
X114825000Y-111575000D01*
X118175000Y-114925000D02*
X118175000Y-111575000D01*
X115000000Y-114925000D02*
X115000000Y-116175000D01*
M02*
