M48
; DRILL file {KiCad (5.1.5-0-10_14)} date Wednesday, 25 March 2020 at 22:17:52
; FORMAT={-:-/ absolute / inch / decimal}
; #@! TF.CreationDate,2020-03-25T22:17:52-07:00
; #@! TF.GenerationSoftware,Kicad,Pcbnew,(5.1.5-0-10_14)
; #@! TF.FileFunction,Plated,1,2,PTH
FMAT,2
INCH
T1C0.0157
T2C0.0236
T3C0.0315
T4C0.0335
T5C0.0394
T6C0.1260
%
G90
G05
T1
X3.07Y-2.55
X3.28Y-2.76
X3.36Y-1.6
X3.36Y-2.4
X3.89Y-1.75
X3.94Y-1.93
X4.04Y-1.835
X4.09Y-1.78
X4.09Y-2.35
X4.1Y-1.84
X4.105Y-2.455
X4.135Y-2.035
X4.15Y-2.5
X4.16Y-1.8
X4.205Y-2.225
X4.29Y-2.4
X4.325Y-2.6675
X4.365Y-2.57
X4.4175Y-1.4675
X4.45Y-1.5975
X4.455Y-1.94
X4.48Y-1.7415
X4.486Y-1.551
X4.505Y-1.21
X4.51Y-1.155
X4.525Y-1.105
X4.5525Y-1.4075
X4.555Y-1.815
X4.555Y-2.0425
X4.605Y-1.755
X4.68Y-1.76
X4.745Y-1.475
X4.7675Y-1.6075
X4.8925Y-1.7
X4.9575Y-1.8325
X5.0025Y-2.1425
X5.025Y-1.8306
X5.03Y-1.66
X5.17Y-2.14
X5.185Y-1.935
X5.24Y-1.49
X5.26Y-1.22
X5.2685Y-1.6
X5.31Y-1.625
X5.31Y-2.19
X5.3497Y-1.5964
X5.38Y-2.0
X5.4Y-1.13
X5.4798Y-1.6929
X5.4822Y-1.6536
X5.53Y-1.81
X5.58Y-2.07
X5.7Y-1.7183
X5.7Y-1.7576
T3
X4.1975Y-1.9
X4.1975Y-2.0
X4.9325Y-1.9375
X4.9325Y-2.0375
X4.76Y-1.755
X4.76Y-1.855
X3.885Y-2.4
X3.885Y-2.5
T4
X5.7524Y-1.6366
X5.7524Y-1.8334
T5
X3.49Y-1.26
X3.59Y-1.26
X5.0325Y-2.3925
X5.1325Y-2.3925
X3.49Y-2.15
X3.59Y-2.15
X3.6725Y-1.6875
X3.6725Y-1.7875
X3.6725Y-1.8875
X4.01Y-2.65
X4.11Y-2.65
X4.21Y-2.65
X4.3325Y-1.355
X4.3325Y-1.455
X3.82Y-1.6875
X3.82Y-1.7875
X3.82Y-1.8875
T6
X2.94Y-3.1
X2.94Y-0.97
X5.79Y-0.97
X5.79Y-3.1
T2
G00X5.8449Y-1.5972
M15
G01X5.8725Y-1.5972
M16
G05
G00X5.8725Y-1.8728
M15
G01X5.8449Y-1.8728
M16
G05
T0
M30
