G04 #@! TF.GenerationSoftware,KiCad,Pcbnew,(5.1.5-0-10_14)*
G04 #@! TF.CreationDate,2020-03-25T22:17:50-07:00*
G04 #@! TF.ProjectId,EOGee,454f4765-652e-46b6-9963-61645f706362,rev?*
G04 #@! TF.SameCoordinates,Original*
G04 #@! TF.FileFunction,Soldermask,Bot*
G04 #@! TF.FilePolarity,Negative*
%FSLAX46Y46*%
G04 Gerber Fmt 4.6, Leading zero omitted, Abs format (unit mm)*
G04 Created by KiCad (PCBNEW (5.1.5-0-10_14)) date 2020-03-25 22:17:50*
%MOMM*%
%LPD*%
G04 APERTURE LIST*
%ADD10O,1.800000X1.800000*%
%ADD11R,1.800000X1.800000*%
%ADD12C,1.550000*%
%ADD13O,2.000000X1.300000*%
%ADD14C,1.800000*%
%ADD15C,1.500000*%
%ADD16C,5.700000*%
G04 APERTURE END LIST*
D10*
X127825500Y-60769500D03*
D11*
X130365500Y-60769500D03*
D12*
X146111500Y-46569000D03*
X146111500Y-41569000D03*
D13*
X148811500Y-47569000D03*
X148811500Y-40569000D03*
D14*
X75097000Y-68834000D03*
X82097000Y-68834000D03*
D15*
X106616500Y-50800000D03*
X106616500Y-48260000D03*
X120904000Y-44577000D03*
X120904000Y-47117000D03*
X125285500Y-49212500D03*
X125285500Y-51752500D03*
D14*
X82097000Y-34544000D03*
X75097000Y-34544000D03*
X75097000Y-57404000D03*
X82097000Y-57404000D03*
X75097000Y-45974000D03*
X82097000Y-45974000D03*
D10*
X91186000Y-32004000D03*
D11*
X88646000Y-32004000D03*
X88646000Y-54610000D03*
D10*
X91186000Y-54610000D03*
D11*
X110045500Y-34417000D03*
D10*
X110045500Y-36957000D03*
D15*
X98679000Y-60960000D03*
X98679000Y-63500000D03*
D11*
X97028000Y-47942500D03*
D10*
X97028000Y-45402500D03*
X97028000Y-42862500D03*
X93281500Y-47942500D03*
X93281500Y-45402500D03*
D11*
X93281500Y-42862500D03*
X101854000Y-67310000D03*
D10*
X104394000Y-67310000D03*
X106934000Y-67310000D03*
D16*
X74676000Y-24638000D03*
X147066000Y-24638000D03*
X74676000Y-78740000D03*
X147066000Y-78740000D03*
M02*
