G04 #@! TF.GenerationSoftware,KiCad,Pcbnew,(5.1.5-0-10_14)*
G04 #@! TF.CreationDate,2020-03-25T22:17:50-07:00*
G04 #@! TF.ProjectId,EOGee,454f4765-652e-46b6-9963-61645f706362,rev?*
G04 #@! TF.SameCoordinates,Original*
G04 #@! TF.FileFunction,Copper,L2,Bot*
G04 #@! TF.FilePolarity,Positive*
%FSLAX46Y46*%
G04 Gerber Fmt 4.6, Leading zero omitted, Abs format (unit mm)*
G04 Created by KiCad (PCBNEW (5.1.5-0-10_14)) date 2020-03-25 22:17:50*
%MOMM*%
%LPD*%
G04 APERTURE LIST*
%ADD10O,1.700000X1.700000*%
%ADD11R,1.700000X1.700000*%
%ADD12C,1.450000*%
%ADD13O,1.900000X1.200000*%
%ADD14C,1.400000*%
%ADD15C,5.600000*%
%ADD16C,0.800000*%
%ADD17C,1.000000*%
%ADD18C,0.250000*%
%ADD19C,0.254000*%
G04 APERTURE END LIST*
D10*
X127825500Y-60769500D03*
D11*
X130365500Y-60769500D03*
D12*
X146111500Y-46569000D03*
X146111500Y-41569000D03*
D13*
X148811500Y-47569000D03*
X148811500Y-40569000D03*
D14*
X106616500Y-50800000D03*
X106616500Y-48260000D03*
X120904000Y-44577000D03*
X120904000Y-47117000D03*
X125285500Y-49212500D03*
X125285500Y-51752500D03*
D10*
X91186000Y-32004000D03*
D11*
X88646000Y-32004000D03*
X88646000Y-54610000D03*
D10*
X91186000Y-54610000D03*
D11*
X110045500Y-34417000D03*
D10*
X110045500Y-36957000D03*
D14*
X98679000Y-60960000D03*
X98679000Y-63500000D03*
D11*
X97028000Y-47942500D03*
D10*
X97028000Y-45402500D03*
X97028000Y-42862500D03*
X93281500Y-47942500D03*
X93281500Y-45402500D03*
D11*
X93281500Y-42862500D03*
X101854000Y-67310000D03*
D10*
X104394000Y-67310000D03*
X106934000Y-67310000D03*
D15*
X74676000Y-24638000D03*
X147066000Y-24638000D03*
X74676000Y-78740000D03*
X147066000Y-78740000D03*
D16*
X110871000Y-65278000D03*
X127063500Y-54419500D03*
X125920500Y-46545500D03*
X113792000Y-44233000D03*
X106807000Y-56515000D03*
X105029000Y-51689000D03*
X134874000Y-55626000D03*
X136652000Y-50800000D03*
X131318000Y-54356000D03*
X120523000Y-37465000D03*
X139187491Y-43000303D03*
X144780000Y-44644000D03*
X139248075Y-42002138D03*
X144780000Y-43643997D03*
X116967000Y-44577000D03*
X115697000Y-46101000D03*
X108966000Y-60960000D03*
X115697000Y-51879500D03*
X140462000Y-45974000D03*
X141732000Y-52578000D03*
X118872000Y-44704000D03*
X113157000Y-49276000D03*
X127762000Y-42164000D03*
X137160000Y-28702000D03*
X105664000Y-45720000D03*
X104140000Y-46736000D03*
X133604000Y-30988000D03*
X133096000Y-37846000D03*
X124269500Y-43180000D03*
X127635000Y-46496798D03*
X77978000Y-64770000D03*
X85344000Y-60960000D03*
X83312000Y-70104000D03*
X85344000Y-40640000D03*
X98806000Y-44450000D03*
X104267000Y-62357000D03*
X131699000Y-49149000D03*
X115633500Y-35750500D03*
X112204500Y-37274500D03*
X113030000Y-40576500D03*
X113943990Y-39394990D03*
X121094500Y-40830500D03*
X102616000Y-46609000D03*
X103886000Y-59690000D03*
X135881987Y-40549505D03*
X114935000Y-28067000D03*
X114554000Y-29337000D03*
X134874000Y-41275000D03*
X133820924Y-40640001D03*
X114427000Y-30734000D03*
X100076000Y-49022000D03*
X103886000Y-45212000D03*
X105410000Y-63500000D03*
X109855000Y-67754500D03*
D17*
X127063500Y-54419500D02*
X122745500Y-54419500D01*
X122745500Y-54419500D02*
X120529002Y-52203002D01*
X120529002Y-52203002D02*
X119062500Y-50736500D01*
X127063500Y-47688500D02*
X127063500Y-54419500D01*
X125920500Y-46545500D02*
X127063500Y-47688500D01*
X112056999Y-46533686D02*
X112056999Y-49804001D01*
X112056999Y-49804001D02*
X112989498Y-50736500D01*
X113792000Y-44798685D02*
X112056999Y-46533686D01*
X112989498Y-50736500D02*
X119062500Y-50736500D01*
X113792000Y-44233000D02*
X113792000Y-44798685D01*
X127825500Y-55181500D02*
X127063500Y-54419500D01*
X127825500Y-60769500D02*
X127825500Y-55181500D01*
X110471001Y-64878001D02*
X110871000Y-65278000D01*
X107865999Y-62272999D02*
X110471001Y-64878001D01*
X110275760Y-50736500D02*
X107865999Y-53146261D01*
X119062500Y-50736500D02*
X110275760Y-50736500D01*
X107865999Y-53146261D02*
X105851261Y-53146261D01*
X105851261Y-53146261D02*
X105219500Y-52514500D01*
X106807000Y-56515000D02*
X107823000Y-56515000D01*
X107823000Y-56515000D02*
X107865999Y-62272999D01*
X107865999Y-53146261D02*
X107823000Y-56515000D01*
X105219500Y-51879500D02*
X105029000Y-51689000D01*
X105219500Y-52514500D02*
X105219500Y-51879500D01*
X133604000Y-54356000D02*
X134874000Y-55626000D01*
X131318000Y-54356000D02*
X133604000Y-54356000D01*
X134874000Y-52578000D02*
X134874000Y-53086000D01*
X134493000Y-53975000D02*
X134239000Y-54229000D01*
X134874000Y-53975000D02*
X134493000Y-53975000D01*
X134874000Y-53975000D02*
X134874000Y-52578000D01*
X134239000Y-54229000D02*
X133604000Y-54356000D01*
X134874000Y-53086000D02*
X134239000Y-54229000D01*
X134874000Y-55626000D02*
X134874000Y-53975000D01*
X127233999Y-43264001D02*
X121539000Y-37569002D01*
X135763000Y-51689000D02*
X135763000Y-51584998D01*
X127442003Y-43264001D02*
X127233999Y-43264001D01*
X134874000Y-52578000D02*
X135763000Y-51689000D01*
X135763000Y-51584998D02*
X127442003Y-43264001D01*
X135763000Y-51689000D02*
X136652000Y-50800000D01*
X120627002Y-37569002D02*
X120523000Y-37465000D01*
X121539000Y-37569002D02*
X120627002Y-37569002D01*
D18*
X144212000Y-44644000D02*
X144780000Y-44644000D01*
X143960010Y-44392010D02*
X144212000Y-44644000D01*
X140579198Y-44392010D02*
X143960010Y-44392010D01*
X139187491Y-43000303D02*
X140579198Y-44392010D01*
X139248075Y-42002138D02*
X141187937Y-43942000D01*
X143916312Y-43942000D02*
X141187937Y-43942000D01*
X144214315Y-43643997D02*
X143916312Y-43942000D01*
X144780000Y-43643997D02*
X144214315Y-43643997D01*
X116967000Y-44831000D02*
X115697000Y-46101000D01*
X116967000Y-44577000D02*
X116967000Y-44831000D01*
X108966000Y-60960000D02*
X108966000Y-53213000D01*
X108966000Y-53213000D02*
X110299500Y-51879500D01*
X115697000Y-51879500D02*
X110299500Y-51879500D01*
D17*
X140462000Y-45974000D02*
X140462000Y-46609000D01*
X141732000Y-47879000D02*
X141732000Y-52578000D01*
X140462000Y-46609000D02*
X141732000Y-47879000D01*
D18*
X114300000Y-49276000D02*
X113157000Y-49276000D01*
X118872000Y-44704000D02*
X114300000Y-49276000D01*
X120777000Y-44704000D02*
X120904000Y-44577000D01*
X118872000Y-44704000D02*
X120777000Y-44704000D01*
X127762000Y-42164000D02*
X132080000Y-37846000D01*
X132080000Y-31438998D02*
X135070998Y-28448000D01*
X132080000Y-37846000D02*
X132080000Y-31438998D01*
X136906000Y-28448000D02*
X137160000Y-28702000D01*
X135070998Y-28448000D02*
X136906000Y-28448000D01*
X106616500Y-46672500D02*
X105664000Y-45720000D01*
X106616500Y-48260000D02*
X106616500Y-46672500D01*
X105156000Y-45720000D02*
X104140000Y-46736000D01*
X105664000Y-45720000D02*
X105156000Y-45720000D01*
X133096000Y-37280315D02*
X132530010Y-36714325D01*
X133096000Y-37846000D02*
X133096000Y-37280315D01*
X132530010Y-32061990D02*
X133604000Y-30988000D01*
X132530010Y-36714325D02*
X132530010Y-32061990D01*
X127586298Y-46496798D02*
X127635000Y-46496798D01*
X124269500Y-43180000D02*
X127586298Y-46496798D01*
X94483581Y-47942500D02*
X97028000Y-47942500D01*
X93281500Y-47942500D02*
X94483581Y-47942500D01*
X86614000Y-64770000D02*
X90424000Y-60960000D01*
X77978000Y-64770000D02*
X86614000Y-64770000D01*
X93281500Y-58102500D02*
X93281500Y-47942500D01*
X85344000Y-60960000D02*
X90424000Y-60960000D01*
X90424000Y-60960000D02*
X93281500Y-58102500D01*
X94381500Y-42862500D02*
X97028000Y-42862500D01*
X93281500Y-42862500D02*
X94381500Y-42862500D01*
X87566500Y-42862500D02*
X86106000Y-41402000D01*
X93281500Y-42862500D02*
X87566500Y-42862500D01*
X86106000Y-41402000D02*
X85344000Y-40640000D01*
X76073000Y-67310000D02*
X78867000Y-70104000D01*
X73921999Y-66428999D02*
X74803000Y-67310000D01*
X78867000Y-70104000D02*
X83312000Y-70104000D01*
X73921999Y-63746001D02*
X73921999Y-66428999D01*
X79756000Y-46228000D02*
X79756000Y-60706000D01*
X74676000Y-62992000D02*
X73921999Y-63746001D01*
X77470000Y-62992000D02*
X74676000Y-62992000D01*
X74803000Y-67310000D02*
X76073000Y-67310000D01*
X79756000Y-60706000D02*
X77470000Y-62992000D01*
X85344000Y-40640000D02*
X79756000Y-46228000D01*
X94483581Y-45402500D02*
X95690081Y-44196000D01*
X93281500Y-45402500D02*
X94483581Y-45402500D01*
X98552000Y-44196000D02*
X98806000Y-44450000D01*
X95690081Y-44196000D02*
X98552000Y-44196000D01*
X104394000Y-62484000D02*
X104267000Y-62357000D01*
X104394000Y-67310000D02*
X104394000Y-62484000D01*
X101854000Y-68410000D02*
X101854000Y-67310000D01*
X102849010Y-69405010D02*
X101854000Y-68410000D01*
X119697500Y-69405500D02*
X102849010Y-69405010D01*
X120928502Y-69405500D02*
X119697500Y-69405500D01*
X129190499Y-61143503D02*
X120928502Y-69405500D01*
X129190499Y-51784501D02*
X129190499Y-61143503D01*
X130175000Y-50800000D02*
X129190499Y-51784501D01*
X131699000Y-49149000D02*
X130175000Y-50800000D01*
X114300000Y-34417000D02*
X115633500Y-35750500D01*
X110045500Y-34417000D02*
X114300000Y-34417000D01*
X111887000Y-36957000D02*
X112204500Y-37274500D01*
X110045500Y-36957000D02*
X111887000Y-36957000D01*
X119658990Y-39394990D02*
X121094500Y-40830500D01*
X113943990Y-39394990D02*
X119658990Y-39394990D01*
X121094500Y-40830500D02*
X121094500Y-41783000D01*
X121094500Y-41783000D02*
X123126500Y-43815000D01*
X123126500Y-47053500D02*
X125285500Y-49212500D01*
X123126500Y-43815000D02*
X123126500Y-47053500D01*
X103886000Y-47879000D02*
X103886000Y-59690000D01*
X102616000Y-46609000D02*
X103886000Y-47879000D01*
X115760500Y-27241500D02*
X114935000Y-28067000D01*
X140271500Y-24066500D02*
X118935500Y-24066500D01*
X142430500Y-33303244D02*
X142430500Y-26225500D01*
X136281986Y-39451758D02*
X142430500Y-33303244D01*
X142430500Y-26225500D02*
X140271500Y-24066500D01*
X118935500Y-24066500D02*
X115760500Y-27241500D01*
X136281986Y-40149506D02*
X136281986Y-39451758D01*
X135881987Y-40549505D02*
X136281986Y-40149506D01*
X119892575Y-24564110D02*
X120840500Y-24564110D01*
X114554000Y-29337000D02*
X115119685Y-29337000D01*
X115119685Y-29337000D02*
X119281842Y-25174842D01*
X119281842Y-25174842D02*
X119892575Y-24564110D01*
X119892574Y-24564110D02*
X119281842Y-25174842D01*
X140065383Y-24564110D02*
X119892574Y-24564110D01*
X141932890Y-26431617D02*
X140065383Y-24564110D01*
X141932890Y-33097127D02*
X141932890Y-26431617D01*
X134874000Y-40156016D02*
X141932890Y-33097127D01*
X134874000Y-41275000D02*
X134874000Y-40156016D01*
X115887500Y-29146500D02*
X114427000Y-30734000D01*
X116014500Y-29146500D02*
X115887500Y-29146500D01*
X120194480Y-24966520D02*
X116014500Y-29146500D01*
X141530480Y-26598300D02*
X139898700Y-24966520D01*
X134545924Y-39915000D02*
X141530480Y-32930444D01*
X139898700Y-24966520D02*
X120194480Y-24966520D01*
X141530480Y-32930444D02*
X141530480Y-26598300D01*
X133820924Y-40640001D02*
X134545924Y-39915000D01*
X100076000Y-49022000D02*
X101346000Y-47752000D01*
X101346000Y-47752000D02*
X101346000Y-45974000D01*
X102108000Y-45212000D02*
X103886000Y-45212000D01*
X101346000Y-45974000D02*
X102108000Y-45212000D01*
X106934000Y-65024000D02*
X105410000Y-63500000D01*
X106934000Y-67310000D02*
X106934000Y-65024000D01*
X109410500Y-67310000D02*
X106934000Y-67310000D01*
X109855000Y-67754500D02*
X109410500Y-67310000D01*
D19*
G36*
X145155470Y-21763361D02*
G01*
X145141308Y-21772823D01*
X144829124Y-22221519D01*
X147066000Y-24458395D01*
X147080143Y-24444253D01*
X147259748Y-24623858D01*
X147245605Y-24638000D01*
X149482481Y-26874876D01*
X149931177Y-26562692D01*
X149987000Y-26458872D01*
X149987000Y-39646760D01*
X149953225Y-39612693D01*
X149751446Y-39476610D01*
X149526996Y-39382507D01*
X149288500Y-39334000D01*
X148938500Y-39334000D01*
X148938500Y-40442000D01*
X148958500Y-40442000D01*
X148958500Y-40696000D01*
X148938500Y-40696000D01*
X148938500Y-41804000D01*
X149288500Y-41804000D01*
X149526996Y-41755493D01*
X149751446Y-41661390D01*
X149953225Y-41525307D01*
X149987000Y-41491240D01*
X149987000Y-46646760D01*
X149953225Y-46612693D01*
X149751446Y-46476610D01*
X149526996Y-46382507D01*
X149288500Y-46334000D01*
X148938500Y-46334000D01*
X148938500Y-47442000D01*
X148958500Y-47442000D01*
X148958500Y-47696000D01*
X148938500Y-47696000D01*
X148938500Y-48804000D01*
X149288500Y-48804000D01*
X149526996Y-48755493D01*
X149751446Y-48661390D01*
X149953225Y-48525307D01*
X149987000Y-48491240D01*
X149987000Y-76916722D01*
X149940639Y-76829470D01*
X149931177Y-76815308D01*
X149482481Y-76503124D01*
X147245605Y-78740000D01*
X147259748Y-78754143D01*
X147080143Y-78933748D01*
X147066000Y-78919605D01*
X144829124Y-81156481D01*
X145141308Y-81605177D01*
X145245128Y-81661000D01*
X76499278Y-81661000D01*
X76586530Y-81614639D01*
X76600692Y-81605177D01*
X76912876Y-81156481D01*
X74676000Y-78919605D01*
X74661858Y-78933748D01*
X74482253Y-78754143D01*
X74496395Y-78740000D01*
X74855605Y-78740000D01*
X77092481Y-80976876D01*
X77541177Y-80664692D01*
X77861612Y-80068741D01*
X78059626Y-79421727D01*
X78127610Y-78748516D01*
X78125975Y-78731484D01*
X143614390Y-78731484D01*
X143679051Y-79405023D01*
X143873870Y-80053006D01*
X144191361Y-80650530D01*
X144200823Y-80664692D01*
X144649519Y-80976876D01*
X146886395Y-78740000D01*
X144649519Y-76503124D01*
X144200823Y-76815308D01*
X143880388Y-77411259D01*
X143682374Y-78058273D01*
X143614390Y-78731484D01*
X78125975Y-78731484D01*
X78062949Y-78074977D01*
X77868130Y-77426994D01*
X77550639Y-76829470D01*
X77541177Y-76815308D01*
X77092481Y-76503124D01*
X74855605Y-78740000D01*
X74496395Y-78740000D01*
X72259519Y-76503124D01*
X71810823Y-76815308D01*
X71755000Y-76919128D01*
X71755000Y-76323519D01*
X72439124Y-76323519D01*
X74676000Y-78560395D01*
X76912876Y-76323519D01*
X144829124Y-76323519D01*
X147066000Y-78560395D01*
X149302876Y-76323519D01*
X148990692Y-75874823D01*
X148394741Y-75554388D01*
X147747727Y-75356374D01*
X147074516Y-75288390D01*
X146400977Y-75353051D01*
X145752994Y-75547870D01*
X145155470Y-75865361D01*
X145141308Y-75874823D01*
X144829124Y-76323519D01*
X76912876Y-76323519D01*
X76600692Y-75874823D01*
X76004741Y-75554388D01*
X75357727Y-75356374D01*
X74684516Y-75288390D01*
X74010977Y-75353051D01*
X73362994Y-75547870D01*
X72765470Y-75865361D01*
X72751308Y-75874823D01*
X72439124Y-76323519D01*
X71755000Y-76323519D01*
X71755000Y-63746001D01*
X73467812Y-63746001D01*
X73469999Y-63768206D01*
X73470000Y-66406784D01*
X73467812Y-66428999D01*
X73476539Y-66517606D01*
X73502385Y-66602808D01*
X73502386Y-66602809D01*
X73544357Y-66681332D01*
X73600841Y-66750158D01*
X73618095Y-66764318D01*
X74467681Y-67613905D01*
X74481841Y-67631159D01*
X74550667Y-67687643D01*
X74629190Y-67729614D01*
X74662892Y-67739837D01*
X74539481Y-67790956D01*
X74346706Y-67919764D01*
X74182764Y-68083706D01*
X74053956Y-68276481D01*
X73965231Y-68490682D01*
X73920000Y-68718076D01*
X73920000Y-68949924D01*
X73965231Y-69177318D01*
X74053956Y-69391519D01*
X74182764Y-69584294D01*
X74346706Y-69748236D01*
X74539481Y-69877044D01*
X74753682Y-69965769D01*
X74981076Y-70011000D01*
X75212924Y-70011000D01*
X75440318Y-69965769D01*
X75654519Y-69877044D01*
X75847294Y-69748236D01*
X76011236Y-69584294D01*
X76140044Y-69391519D01*
X76228769Y-69177318D01*
X76274000Y-68949924D01*
X76274000Y-68718076D01*
X76228769Y-68490682D01*
X76140044Y-68276481D01*
X76011236Y-68083706D01*
X75847294Y-67919764D01*
X75654519Y-67790956D01*
X75584613Y-67762000D01*
X75885777Y-67762000D01*
X78531681Y-70407905D01*
X78545841Y-70425159D01*
X78614667Y-70481643D01*
X78693190Y-70523614D01*
X78778392Y-70549460D01*
X78867000Y-70558187D01*
X78889205Y-70556000D01*
X82739661Y-70556000D01*
X82747302Y-70567436D01*
X82848564Y-70668698D01*
X82967636Y-70748259D01*
X83099942Y-70803062D01*
X83240397Y-70831000D01*
X83383603Y-70831000D01*
X83524058Y-70803062D01*
X83656364Y-70748259D01*
X83775436Y-70668698D01*
X83876698Y-70567436D01*
X83956259Y-70448364D01*
X84011062Y-70316058D01*
X84039000Y-70175603D01*
X84039000Y-70032397D01*
X84011062Y-69891942D01*
X83956259Y-69759636D01*
X83876698Y-69640564D01*
X83775436Y-69539302D01*
X83656364Y-69459741D01*
X83524058Y-69404938D01*
X83383603Y-69377000D01*
X83240397Y-69377000D01*
X83135850Y-69397795D01*
X83140044Y-69391519D01*
X83228769Y-69177318D01*
X83274000Y-68949924D01*
X83274000Y-68718076D01*
X83228769Y-68490682D01*
X83140044Y-68276481D01*
X83011236Y-68083706D01*
X82847294Y-67919764D01*
X82654519Y-67790956D01*
X82440318Y-67702231D01*
X82212924Y-67657000D01*
X81981076Y-67657000D01*
X81753682Y-67702231D01*
X81539481Y-67790956D01*
X81346706Y-67919764D01*
X81182764Y-68083706D01*
X81053956Y-68276481D01*
X80965231Y-68490682D01*
X80920000Y-68718076D01*
X80920000Y-68949924D01*
X80965231Y-69177318D01*
X81053956Y-69391519D01*
X81182764Y-69584294D01*
X81250470Y-69652000D01*
X79054224Y-69652000D01*
X76408323Y-67006100D01*
X76394159Y-66988841D01*
X76325333Y-66932357D01*
X76246810Y-66890386D01*
X76161607Y-66864540D01*
X76095205Y-66858000D01*
X76073000Y-66855813D01*
X76050795Y-66858000D01*
X74990224Y-66858000D01*
X74592224Y-66460000D01*
X100675418Y-66460000D01*
X100675418Y-68160000D01*
X100681732Y-68224103D01*
X100700430Y-68285743D01*
X100730794Y-68342550D01*
X100771657Y-68392343D01*
X100821450Y-68433206D01*
X100878257Y-68463570D01*
X100939897Y-68482268D01*
X101004000Y-68488582D01*
X101407553Y-68488582D01*
X101408540Y-68498606D01*
X101434386Y-68583809D01*
X101476357Y-68662332D01*
X101532841Y-68731159D01*
X101550100Y-68745323D01*
X102513690Y-69708914D01*
X102527842Y-69726159D01*
X102545094Y-69740318D01*
X102545099Y-69740323D01*
X102566388Y-69757795D01*
X102596667Y-69782645D01*
X102596671Y-69782647D01*
X102596677Y-69782652D01*
X102659468Y-69816215D01*
X102675188Y-69824618D01*
X102675200Y-69824624D01*
X102749748Y-69847238D01*
X102760391Y-69850467D01*
X102760393Y-69850467D01*
X102760402Y-69850470D01*
X102819121Y-69856253D01*
X102826792Y-69857009D01*
X102826795Y-69857009D01*
X102849010Y-69859197D01*
X102871212Y-69857010D01*
X119675282Y-69857499D01*
X119675295Y-69857500D01*
X120906297Y-69857500D01*
X120928502Y-69859687D01*
X120950707Y-69857500D01*
X121017109Y-69850960D01*
X121102312Y-69825114D01*
X121180835Y-69783143D01*
X121249661Y-69726659D01*
X121263825Y-69709400D01*
X128991395Y-61981832D01*
X129064315Y-62070685D01*
X129161006Y-62150037D01*
X129271320Y-62209002D01*
X129391018Y-62245312D01*
X129515500Y-62257572D01*
X130079750Y-62254500D01*
X130238500Y-62095750D01*
X130238500Y-60896500D01*
X130492500Y-60896500D01*
X130492500Y-62095750D01*
X130651250Y-62254500D01*
X131215500Y-62257572D01*
X131339982Y-62245312D01*
X131459680Y-62209002D01*
X131569994Y-62150037D01*
X131666685Y-62070685D01*
X131746037Y-61973994D01*
X131805002Y-61863680D01*
X131841312Y-61743982D01*
X131853572Y-61619500D01*
X131850500Y-61055250D01*
X131691750Y-60896500D01*
X130492500Y-60896500D01*
X130238500Y-60896500D01*
X130218500Y-60896500D01*
X130218500Y-60642500D01*
X130238500Y-60642500D01*
X130238500Y-59443250D01*
X130492500Y-59443250D01*
X130492500Y-60642500D01*
X131691750Y-60642500D01*
X131850500Y-60483750D01*
X131853572Y-59919500D01*
X131841312Y-59795018D01*
X131805002Y-59675320D01*
X131746037Y-59565006D01*
X131666685Y-59468315D01*
X131569994Y-59388963D01*
X131459680Y-59329998D01*
X131339982Y-59293688D01*
X131215500Y-59281428D01*
X130651250Y-59284500D01*
X130492500Y-59443250D01*
X130238500Y-59443250D01*
X130079750Y-59284500D01*
X129642499Y-59282119D01*
X129642499Y-51971724D01*
X130485319Y-51128905D01*
X130492069Y-51122898D01*
X130500985Y-51113239D01*
X130510313Y-51103911D01*
X130516064Y-51096904D01*
X131643053Y-49876000D01*
X131770603Y-49876000D01*
X131911058Y-49848062D01*
X132043364Y-49793259D01*
X132162436Y-49713698D01*
X132263698Y-49612436D01*
X132343259Y-49493364D01*
X132389698Y-49381250D01*
X134645447Y-51636999D01*
X134317952Y-51964495D01*
X134286394Y-51990394D01*
X134260498Y-52021949D01*
X134183048Y-52116321D01*
X134147188Y-52183411D01*
X134106255Y-52259991D01*
X134058966Y-52415881D01*
X134047000Y-52537377D01*
X134047000Y-52537386D01*
X134043000Y-52578000D01*
X134047000Y-52618614D01*
X134047000Y-52871704D01*
X133701802Y-53493062D01*
X133522112Y-53529000D01*
X131277376Y-53529000D01*
X131155880Y-53540966D01*
X130999990Y-53588255D01*
X130856321Y-53665048D01*
X130730394Y-53768394D01*
X130627048Y-53894321D01*
X130550255Y-54037990D01*
X130502966Y-54193880D01*
X130486999Y-54356000D01*
X130502966Y-54518120D01*
X130550255Y-54674010D01*
X130627048Y-54817679D01*
X130730394Y-54943606D01*
X130856321Y-55046952D01*
X130999990Y-55123745D01*
X131155880Y-55171034D01*
X131277376Y-55183000D01*
X133261447Y-55183000D01*
X134260500Y-56182054D01*
X134286394Y-56213606D01*
X134317947Y-56239501D01*
X134317948Y-56239502D01*
X134412319Y-56316952D01*
X134494646Y-56360956D01*
X134555990Y-56393745D01*
X134711880Y-56441034D01*
X134874000Y-56457001D01*
X135036119Y-56441034D01*
X135192009Y-56393745D01*
X135268462Y-56352880D01*
X135335679Y-56316952D01*
X135461606Y-56213606D01*
X135564952Y-56087679D01*
X135605136Y-56012500D01*
X135641745Y-55944010D01*
X135689034Y-55788120D01*
X135701000Y-55666624D01*
X135701000Y-55666613D01*
X135705000Y-55625999D01*
X135701000Y-55585385D01*
X135701000Y-54015623D01*
X135705001Y-53975000D01*
X135701000Y-53934376D01*
X135701000Y-53092636D01*
X135702211Y-53017976D01*
X135701000Y-53011326D01*
X135701000Y-52920553D01*
X136319054Y-52302500D01*
X136350606Y-52276606D01*
X136376505Y-52245048D01*
X137265502Y-51356052D01*
X137342952Y-51261680D01*
X137419744Y-51118011D01*
X137467033Y-50962121D01*
X137483000Y-50800000D01*
X137467033Y-50637880D01*
X137419744Y-50481990D01*
X137342952Y-50338320D01*
X137239606Y-50212394D01*
X137113680Y-50109048D01*
X136970010Y-50032256D01*
X136814120Y-49984967D01*
X136652000Y-49969000D01*
X136489879Y-49984967D01*
X136333989Y-50032256D01*
X136190320Y-50109048D01*
X136095948Y-50186498D01*
X135815001Y-50467445D01*
X131956556Y-46609000D01*
X139631000Y-46609000D01*
X139635000Y-46649614D01*
X139635000Y-46649624D01*
X139646966Y-46771120D01*
X139688274Y-46907291D01*
X139694256Y-46927010D01*
X139771048Y-47070679D01*
X139848498Y-47165051D01*
X139874395Y-47196606D01*
X139905948Y-47222501D01*
X140905000Y-48221554D01*
X140905001Y-52618624D01*
X140916967Y-52740120D01*
X140964256Y-52896010D01*
X141041049Y-53039679D01*
X141144395Y-53165606D01*
X141270322Y-53268952D01*
X141413991Y-53345745D01*
X141569881Y-53393034D01*
X141732000Y-53409001D01*
X141894120Y-53393034D01*
X142050010Y-53345745D01*
X142193679Y-53268952D01*
X142319606Y-53165606D01*
X142422952Y-53039679D01*
X142499745Y-52896010D01*
X142547034Y-52740120D01*
X142559000Y-52618624D01*
X142559000Y-47919613D01*
X142563000Y-47878999D01*
X142559000Y-47838385D01*
X142559000Y-47838376D01*
X142547034Y-47716880D01*
X142499745Y-47560990D01*
X142471493Y-47508133D01*
X145351972Y-47508133D01*
X145414465Y-47744450D01*
X145657178Y-47857850D01*
X145917349Y-47921719D01*
X146184982Y-47933604D01*
X146449791Y-47893048D01*
X146467523Y-47886609D01*
X147268038Y-47886609D01*
X147271909Y-47924282D01*
X147364079Y-48149533D01*
X147498422Y-48352474D01*
X147669775Y-48525307D01*
X147871554Y-48661390D01*
X148096004Y-48755493D01*
X148334500Y-48804000D01*
X148684500Y-48804000D01*
X148684500Y-47696000D01*
X147392769Y-47696000D01*
X147268038Y-47886609D01*
X146467523Y-47886609D01*
X146701600Y-47801609D01*
X146808535Y-47744450D01*
X146871028Y-47508133D01*
X146111500Y-46748605D01*
X145351972Y-47508133D01*
X142471493Y-47508133D01*
X142471254Y-47507687D01*
X142422952Y-47417319D01*
X142345502Y-47322948D01*
X142345501Y-47322947D01*
X142319606Y-47291394D01*
X142288054Y-47265500D01*
X141665036Y-46642482D01*
X144746896Y-46642482D01*
X144787452Y-46907291D01*
X144878891Y-47159100D01*
X144936050Y-47266035D01*
X145172367Y-47328528D01*
X145931895Y-46569000D01*
X146291105Y-46569000D01*
X147050633Y-47328528D01*
X147278997Y-47268138D01*
X147392769Y-47442000D01*
X148684500Y-47442000D01*
X148684500Y-46334000D01*
X148334500Y-46334000D01*
X148096004Y-46382507D01*
X147871554Y-46476610D01*
X147669775Y-46612693D01*
X147498422Y-46785526D01*
X147435329Y-46880836D01*
X147464219Y-46763151D01*
X147476104Y-46495518D01*
X147435548Y-46230709D01*
X147344109Y-45978900D01*
X147286950Y-45871965D01*
X147050633Y-45809472D01*
X146291105Y-46569000D01*
X145931895Y-46569000D01*
X145172367Y-45809472D01*
X144936050Y-45871965D01*
X144822650Y-46114678D01*
X144758781Y-46374849D01*
X144746896Y-46642482D01*
X141665036Y-46642482D01*
X141289000Y-46266447D01*
X141289000Y-45933376D01*
X141277034Y-45811880D01*
X141229745Y-45655990D01*
X141215782Y-45629867D01*
X145351972Y-45629867D01*
X146111500Y-46389395D01*
X146871028Y-45629867D01*
X146808535Y-45393550D01*
X146565822Y-45280150D01*
X146305651Y-45216281D01*
X146038018Y-45204396D01*
X145773209Y-45244952D01*
X145521400Y-45336391D01*
X145414465Y-45393550D01*
X145351972Y-45629867D01*
X141215782Y-45629867D01*
X141152952Y-45512321D01*
X141049606Y-45386394D01*
X140923678Y-45283048D01*
X140780009Y-45206255D01*
X140624119Y-45158966D01*
X140462000Y-45142999D01*
X140299880Y-45158966D01*
X140143990Y-45206255D01*
X140000321Y-45283048D01*
X139874394Y-45386394D01*
X139771048Y-45512322D01*
X139694255Y-45655991D01*
X139646966Y-45811881D01*
X139635000Y-45933377D01*
X139635000Y-46568386D01*
X139631000Y-46609000D01*
X131956556Y-46609000D01*
X128276256Y-42928700D01*
X138460491Y-42928700D01*
X138460491Y-43071906D01*
X138488429Y-43212361D01*
X138543232Y-43344667D01*
X138622793Y-43463739D01*
X138724055Y-43565001D01*
X138843127Y-43644562D01*
X138975433Y-43699365D01*
X139115888Y-43727303D01*
X139259094Y-43727303D01*
X139272584Y-43724620D01*
X140243879Y-44695915D01*
X140258039Y-44713169D01*
X140326865Y-44769653D01*
X140378028Y-44797000D01*
X140405388Y-44811624D01*
X140490590Y-44837470D01*
X140579198Y-44846197D01*
X140601403Y-44844010D01*
X143772787Y-44844010D01*
X143876677Y-44947900D01*
X143890841Y-44965159D01*
X143959667Y-45021643D01*
X144030987Y-45059764D01*
X144038190Y-45063614D01*
X144123392Y-45089460D01*
X144208919Y-45097884D01*
X144215302Y-45107436D01*
X144316564Y-45208698D01*
X144435636Y-45288259D01*
X144567942Y-45343062D01*
X144708397Y-45371000D01*
X144851603Y-45371000D01*
X144992058Y-45343062D01*
X145124364Y-45288259D01*
X145243436Y-45208698D01*
X145344698Y-45107436D01*
X145424259Y-44988364D01*
X145479062Y-44856058D01*
X145507000Y-44715603D01*
X145507000Y-44572397D01*
X145479062Y-44431942D01*
X145424259Y-44299636D01*
X145344698Y-44180564D01*
X145308133Y-44143999D01*
X145344698Y-44107433D01*
X145424259Y-43988361D01*
X145479062Y-43856055D01*
X145507000Y-43715600D01*
X145507000Y-43572394D01*
X145479062Y-43431939D01*
X145424259Y-43299633D01*
X145344698Y-43180561D01*
X145243436Y-43079299D01*
X145124364Y-42999738D01*
X144992058Y-42944935D01*
X144851603Y-42916997D01*
X144708397Y-42916997D01*
X144567942Y-42944935D01*
X144435636Y-42999738D01*
X144316564Y-43079299D01*
X144215302Y-43180561D01*
X144208756Y-43190357D01*
X144125707Y-43198537D01*
X144080136Y-43212361D01*
X144040505Y-43224383D01*
X143961982Y-43266354D01*
X143893156Y-43322838D01*
X143878992Y-43340097D01*
X143729089Y-43490000D01*
X141375162Y-43490000D01*
X140393295Y-42508133D01*
X145351972Y-42508133D01*
X145414465Y-42744450D01*
X145657178Y-42857850D01*
X145917349Y-42921719D01*
X146184982Y-42933604D01*
X146449791Y-42893048D01*
X146701600Y-42801609D01*
X146808535Y-42744450D01*
X146871028Y-42508133D01*
X146111500Y-41748605D01*
X145351972Y-42508133D01*
X140393295Y-42508133D01*
X139972392Y-42087231D01*
X139975075Y-42073741D01*
X139975075Y-41930535D01*
X139947137Y-41790080D01*
X139892334Y-41657774D01*
X139882117Y-41642482D01*
X144746896Y-41642482D01*
X144787452Y-41907291D01*
X144878891Y-42159100D01*
X144936050Y-42266035D01*
X145172367Y-42328528D01*
X145931895Y-41569000D01*
X146291105Y-41569000D01*
X147050633Y-42328528D01*
X147286950Y-42266035D01*
X147400350Y-42023322D01*
X147464219Y-41763151D01*
X147476104Y-41495518D01*
X147440885Y-41265558D01*
X147498422Y-41352474D01*
X147669775Y-41525307D01*
X147871554Y-41661390D01*
X148096004Y-41755493D01*
X148334500Y-41804000D01*
X148684500Y-41804000D01*
X148684500Y-40696000D01*
X147392769Y-40696000D01*
X147278997Y-40869862D01*
X147050633Y-40809472D01*
X146291105Y-41569000D01*
X145931895Y-41569000D01*
X145172367Y-40809472D01*
X144936050Y-40871965D01*
X144822650Y-41114678D01*
X144758781Y-41374849D01*
X144746896Y-41642482D01*
X139882117Y-41642482D01*
X139812773Y-41538702D01*
X139711511Y-41437440D01*
X139592439Y-41357879D01*
X139460133Y-41303076D01*
X139319678Y-41275138D01*
X139176472Y-41275138D01*
X139036017Y-41303076D01*
X138903711Y-41357879D01*
X138784639Y-41437440D01*
X138683377Y-41538702D01*
X138603816Y-41657774D01*
X138549013Y-41790080D01*
X138521075Y-41930535D01*
X138521075Y-42073741D01*
X138549013Y-42214196D01*
X138603816Y-42346502D01*
X138683377Y-42465574D01*
X138688732Y-42470929D01*
X138622793Y-42536867D01*
X138543232Y-42655939D01*
X138488429Y-42788245D01*
X138460491Y-42928700D01*
X128276256Y-42928700D01*
X128136007Y-42788452D01*
X128225436Y-42728698D01*
X128326698Y-42627436D01*
X128406259Y-42508364D01*
X128461062Y-42376058D01*
X128489000Y-42235603D01*
X128489000Y-42092397D01*
X128486317Y-42078907D01*
X132383912Y-38181313D01*
X132401159Y-38167159D01*
X132428387Y-38133982D01*
X132451741Y-38190364D01*
X132531302Y-38309436D01*
X132632564Y-38410698D01*
X132751636Y-38490259D01*
X132883942Y-38545062D01*
X133024397Y-38573000D01*
X133167603Y-38573000D01*
X133308058Y-38545062D01*
X133440364Y-38490259D01*
X133559436Y-38410698D01*
X133660698Y-38309436D01*
X133740259Y-38190364D01*
X133795062Y-38058058D01*
X133823000Y-37917603D01*
X133823000Y-37774397D01*
X133795062Y-37633942D01*
X133740259Y-37501636D01*
X133660698Y-37382564D01*
X133559436Y-37281302D01*
X133549640Y-37274756D01*
X133541460Y-37191707D01*
X133515614Y-37106505D01*
X133507844Y-37091968D01*
X133473643Y-37027982D01*
X133417159Y-36959156D01*
X133399905Y-36944996D01*
X132982010Y-36527102D01*
X132982010Y-32249213D01*
X133518907Y-31712317D01*
X133532397Y-31715000D01*
X133675603Y-31715000D01*
X133816058Y-31687062D01*
X133948364Y-31632259D01*
X134067436Y-31552698D01*
X134168698Y-31451436D01*
X134248259Y-31332364D01*
X134303062Y-31200058D01*
X134331000Y-31059603D01*
X134331000Y-30916397D01*
X134303062Y-30775942D01*
X134248259Y-30643636D01*
X134168698Y-30524564D01*
X134067436Y-30423302D01*
X133948364Y-30343741D01*
X133853694Y-30304527D01*
X135258222Y-28900000D01*
X136458142Y-28900000D01*
X136460938Y-28914058D01*
X136515741Y-29046364D01*
X136595302Y-29165436D01*
X136696564Y-29266698D01*
X136815636Y-29346259D01*
X136947942Y-29401062D01*
X137088397Y-29429000D01*
X137231603Y-29429000D01*
X137372058Y-29401062D01*
X137504364Y-29346259D01*
X137623436Y-29266698D01*
X137724698Y-29165436D01*
X137804259Y-29046364D01*
X137859062Y-28914058D01*
X137887000Y-28773603D01*
X137887000Y-28630397D01*
X137859062Y-28489942D01*
X137804259Y-28357636D01*
X137724698Y-28238564D01*
X137623436Y-28137302D01*
X137504364Y-28057741D01*
X137372058Y-28002938D01*
X137231603Y-27975000D01*
X137088397Y-27975000D01*
X136964734Y-27999598D01*
X136928205Y-27996000D01*
X136906000Y-27993813D01*
X136883795Y-27996000D01*
X135093203Y-27996000D01*
X135070998Y-27993813D01*
X134982390Y-28002540D01*
X134919473Y-28021626D01*
X134897188Y-28028386D01*
X134818665Y-28070357D01*
X134749839Y-28126841D01*
X134735679Y-28144095D01*
X131776096Y-31103679D01*
X131758842Y-31117839D01*
X131723843Y-31160486D01*
X131702358Y-31186665D01*
X131660386Y-31265189D01*
X131634540Y-31350391D01*
X131625813Y-31438998D01*
X131628001Y-31461213D01*
X131628000Y-37658775D01*
X127847093Y-41439683D01*
X127833603Y-41437000D01*
X127690397Y-41437000D01*
X127549942Y-41464938D01*
X127417636Y-41519741D01*
X127298564Y-41599302D01*
X127197302Y-41700564D01*
X127117741Y-41819636D01*
X127071302Y-41931750D01*
X122152505Y-37012954D01*
X122126606Y-36981396D01*
X122000679Y-36878050D01*
X121857010Y-36801257D01*
X121701120Y-36753968D01*
X121579624Y-36742002D01*
X121579614Y-36742002D01*
X121539000Y-36738002D01*
X121498386Y-36742002D01*
X120924725Y-36742002D01*
X120841010Y-36697256D01*
X120685120Y-36649967D01*
X120523000Y-36634000D01*
X120360880Y-36649967D01*
X120204990Y-36697256D01*
X120061321Y-36774048D01*
X119935394Y-36877394D01*
X119832048Y-37003321D01*
X119755256Y-37146990D01*
X119707967Y-37302880D01*
X119692000Y-37465000D01*
X119707967Y-37627120D01*
X119755256Y-37783010D01*
X119832048Y-37926679D01*
X119909498Y-38021051D01*
X120013497Y-38125050D01*
X120039396Y-38156608D01*
X120165323Y-38259954D01*
X120308992Y-38336747D01*
X120464882Y-38384036D01*
X120586378Y-38396002D01*
X120586387Y-38396002D01*
X120627001Y-38400002D01*
X120667615Y-38396002D01*
X121196447Y-38396002D01*
X126620496Y-43820052D01*
X126646393Y-43851607D01*
X126677946Y-43877502D01*
X126677947Y-43877503D01*
X126772319Y-43954953D01*
X126831460Y-43986564D01*
X126915989Y-44031746D01*
X127071879Y-44079035D01*
X127089189Y-44080740D01*
X131466750Y-48458302D01*
X131354636Y-48504741D01*
X131235564Y-48584302D01*
X131134302Y-48685564D01*
X131054741Y-48804636D01*
X130999938Y-48936942D01*
X130972000Y-49077397D01*
X130972000Y-49220603D01*
X130980115Y-49261401D01*
X129849000Y-50486776D01*
X128886599Y-51449178D01*
X128869340Y-51463342D01*
X128812856Y-51532169D01*
X128791088Y-51572895D01*
X128770885Y-51610692D01*
X128745039Y-51695894D01*
X128736312Y-51784501D01*
X128738499Y-51806706D01*
X128738500Y-60017970D01*
X128652500Y-59931970D01*
X128652500Y-55222114D01*
X128656500Y-55181500D01*
X128652500Y-55140886D01*
X128652500Y-55140876D01*
X128640534Y-55019380D01*
X128593245Y-54863490D01*
X128539994Y-54763864D01*
X128516452Y-54719820D01*
X128439003Y-54625448D01*
X128438996Y-54625441D01*
X128413106Y-54593894D01*
X128381558Y-54568003D01*
X127890500Y-54076946D01*
X127890500Y-47729113D01*
X127894500Y-47688499D01*
X127890500Y-47647885D01*
X127890500Y-47647876D01*
X127878534Y-47526380D01*
X127831245Y-47370490D01*
X127793940Y-47300698D01*
X127754452Y-47226820D01*
X127745605Y-47216040D01*
X127847058Y-47195860D01*
X127979364Y-47141057D01*
X128098436Y-47061496D01*
X128199698Y-46960234D01*
X128279259Y-46841162D01*
X128334062Y-46708856D01*
X128362000Y-46568401D01*
X128362000Y-46425195D01*
X128334062Y-46284740D01*
X128279259Y-46152434D01*
X128199698Y-46033362D01*
X128098436Y-45932100D01*
X127979364Y-45852539D01*
X127847058Y-45797736D01*
X127706603Y-45769798D01*
X127563397Y-45769798D01*
X127509285Y-45780561D01*
X124993817Y-43265093D01*
X124996500Y-43251603D01*
X124996500Y-43108397D01*
X124968562Y-42967942D01*
X124913759Y-42835636D01*
X124834198Y-42716564D01*
X124732936Y-42615302D01*
X124613864Y-42535741D01*
X124481558Y-42480938D01*
X124341103Y-42453000D01*
X124197897Y-42453000D01*
X124057442Y-42480938D01*
X123925136Y-42535741D01*
X123806064Y-42615302D01*
X123704802Y-42716564D01*
X123625241Y-42835636D01*
X123570438Y-42967942D01*
X123542500Y-43108397D01*
X123542500Y-43251603D01*
X123570438Y-43392058D01*
X123625241Y-43524364D01*
X123704802Y-43643436D01*
X123806064Y-43744698D01*
X123925136Y-43824259D01*
X124057442Y-43879062D01*
X124197897Y-43907000D01*
X124341103Y-43907000D01*
X124354593Y-43904317D01*
X126223470Y-45773194D01*
X126082620Y-45730467D01*
X125920500Y-45714500D01*
X125758380Y-45730467D01*
X125602490Y-45777756D01*
X125458821Y-45854548D01*
X125332894Y-45957894D01*
X125229548Y-46083821D01*
X125152756Y-46227490D01*
X125105467Y-46383380D01*
X125089500Y-46545500D01*
X125105467Y-46707620D01*
X125152756Y-46863510D01*
X125229548Y-47007179D01*
X125306998Y-47101551D01*
X126236500Y-48031054D01*
X126236500Y-48824738D01*
X126195615Y-48726033D01*
X126083223Y-48557826D01*
X125940174Y-48414777D01*
X125771967Y-48302385D01*
X125585065Y-48224967D01*
X125386651Y-48185500D01*
X125184349Y-48185500D01*
X124985935Y-48224967D01*
X124951468Y-48239244D01*
X123578500Y-46866277D01*
X123578500Y-43837205D01*
X123580687Y-43815000D01*
X123571960Y-43726392D01*
X123546114Y-43641190D01*
X123530936Y-43612794D01*
X123504143Y-43562667D01*
X123447659Y-43493841D01*
X123430406Y-43479682D01*
X121546500Y-41595777D01*
X121546500Y-41402839D01*
X121557936Y-41395198D01*
X121659198Y-41293936D01*
X121738759Y-41174864D01*
X121793562Y-41042558D01*
X121821500Y-40902103D01*
X121821500Y-40758897D01*
X121793562Y-40618442D01*
X121738759Y-40486136D01*
X121659198Y-40367064D01*
X121557936Y-40265802D01*
X121438864Y-40186241D01*
X121306558Y-40131438D01*
X121166103Y-40103500D01*
X121022897Y-40103500D01*
X121009407Y-40106183D01*
X119994313Y-39091090D01*
X119980149Y-39073831D01*
X119911323Y-39017347D01*
X119832800Y-38975376D01*
X119747597Y-38949530D01*
X119681195Y-38942990D01*
X119658990Y-38940803D01*
X119636785Y-38942990D01*
X114516329Y-38942990D01*
X114508688Y-38931554D01*
X114407426Y-38830292D01*
X114288354Y-38750731D01*
X114156048Y-38695928D01*
X114015593Y-38667990D01*
X113872387Y-38667990D01*
X113731932Y-38695928D01*
X113599626Y-38750731D01*
X113480554Y-38830292D01*
X113379292Y-38931554D01*
X113299731Y-39050626D01*
X113244928Y-39182932D01*
X113216990Y-39323387D01*
X113216990Y-39466593D01*
X113244928Y-39607048D01*
X113299731Y-39739354D01*
X113379292Y-39858426D01*
X113480554Y-39959688D01*
X113599626Y-40039249D01*
X113731932Y-40094052D01*
X113872387Y-40121990D01*
X114015593Y-40121990D01*
X114156048Y-40094052D01*
X114288354Y-40039249D01*
X114407426Y-39959688D01*
X114508688Y-39858426D01*
X114516329Y-39846990D01*
X119471767Y-39846990D01*
X120370183Y-40745407D01*
X120367500Y-40758897D01*
X120367500Y-40902103D01*
X120395438Y-41042558D01*
X120450241Y-41174864D01*
X120529802Y-41293936D01*
X120631064Y-41395198D01*
X120642501Y-41402840D01*
X120642501Y-41760785D01*
X120640313Y-41783000D01*
X120649040Y-41871607D01*
X120674886Y-41956809D01*
X120710438Y-42023322D01*
X120716858Y-42035333D01*
X120773342Y-42104159D01*
X120790596Y-42118319D01*
X122674500Y-44002224D01*
X122674501Y-47031285D01*
X122672313Y-47053500D01*
X122681040Y-47142107D01*
X122706886Y-47227309D01*
X122731041Y-47272500D01*
X122748858Y-47305833D01*
X122805342Y-47374659D01*
X122822596Y-47388819D01*
X124312244Y-48878468D01*
X124297967Y-48912935D01*
X124258500Y-49111349D01*
X124258500Y-49313651D01*
X124297967Y-49512065D01*
X124375385Y-49698967D01*
X124487777Y-49867174D01*
X124630826Y-50010223D01*
X124799033Y-50122615D01*
X124985935Y-50200033D01*
X125184349Y-50239500D01*
X125386651Y-50239500D01*
X125585065Y-50200033D01*
X125771967Y-50122615D01*
X125940174Y-50010223D01*
X126083223Y-49867174D01*
X126195615Y-49698967D01*
X126236500Y-49600262D01*
X126236500Y-51018398D01*
X126206769Y-51010836D01*
X125465105Y-51752500D01*
X126206769Y-52494164D01*
X126236501Y-52486601D01*
X126236501Y-53592500D01*
X123088055Y-53592500D01*
X122169324Y-52673769D01*
X124543836Y-52673769D01*
X124603297Y-52907537D01*
X124841742Y-53018434D01*
X125097240Y-53080683D01*
X125359973Y-53091890D01*
X125619844Y-53051625D01*
X125866866Y-52961435D01*
X125967703Y-52907537D01*
X126027164Y-52673769D01*
X125285500Y-51932105D01*
X124543836Y-52673769D01*
X122169324Y-52673769D01*
X121322527Y-51826973D01*
X123946110Y-51826973D01*
X123986375Y-52086844D01*
X124076565Y-52333866D01*
X124130463Y-52434703D01*
X124364231Y-52494164D01*
X125105895Y-51752500D01*
X124364231Y-51010836D01*
X124130463Y-51070297D01*
X124019566Y-51308742D01*
X123957317Y-51564240D01*
X123946110Y-51826973D01*
X121322527Y-51826973D01*
X121142508Y-51646955D01*
X121142504Y-51646950D01*
X120326785Y-50831231D01*
X124543836Y-50831231D01*
X125285500Y-51572895D01*
X126027164Y-50831231D01*
X125967703Y-50597463D01*
X125729258Y-50486566D01*
X125473760Y-50424317D01*
X125211027Y-50413110D01*
X124951156Y-50453375D01*
X124704134Y-50543565D01*
X124603297Y-50597463D01*
X124543836Y-50831231D01*
X120326785Y-50831231D01*
X119676005Y-50180452D01*
X119650106Y-50148894D01*
X119524179Y-50045548D01*
X119380510Y-49968755D01*
X119224620Y-49921466D01*
X119103124Y-49909500D01*
X119103114Y-49909500D01*
X119062500Y-49905500D01*
X119021886Y-49909500D01*
X113517466Y-49909500D01*
X113620436Y-49840698D01*
X113721698Y-49739436D01*
X113729339Y-49728000D01*
X114277795Y-49728000D01*
X114300000Y-49730187D01*
X114322205Y-49728000D01*
X114388607Y-49721460D01*
X114473810Y-49695614D01*
X114552333Y-49653643D01*
X114621159Y-49597159D01*
X114635323Y-49579900D01*
X116176954Y-48038269D01*
X120162336Y-48038269D01*
X120221797Y-48272037D01*
X120460242Y-48382934D01*
X120715740Y-48445183D01*
X120978473Y-48456390D01*
X121238344Y-48416125D01*
X121485366Y-48325935D01*
X121586203Y-48272037D01*
X121645664Y-48038269D01*
X120904000Y-47296605D01*
X120162336Y-48038269D01*
X116176954Y-48038269D01*
X117023751Y-47191473D01*
X119564610Y-47191473D01*
X119604875Y-47451344D01*
X119695065Y-47698366D01*
X119748963Y-47799203D01*
X119982731Y-47858664D01*
X120724395Y-47117000D01*
X121083605Y-47117000D01*
X121825269Y-47858664D01*
X122059037Y-47799203D01*
X122169934Y-47560758D01*
X122232183Y-47305260D01*
X122243390Y-47042527D01*
X122203125Y-46782656D01*
X122112935Y-46535634D01*
X122059037Y-46434797D01*
X121825269Y-46375336D01*
X121083605Y-47117000D01*
X120724395Y-47117000D01*
X119982731Y-46375336D01*
X119748963Y-46434797D01*
X119638066Y-46673242D01*
X119575817Y-46928740D01*
X119564610Y-47191473D01*
X117023751Y-47191473D01*
X118019493Y-46195731D01*
X120162336Y-46195731D01*
X120904000Y-46937395D01*
X121645664Y-46195731D01*
X121586203Y-45961963D01*
X121347758Y-45851066D01*
X121092260Y-45788817D01*
X120829527Y-45777610D01*
X120569656Y-45817875D01*
X120322634Y-45908065D01*
X120221797Y-45961963D01*
X120162336Y-46195731D01*
X118019493Y-46195731D01*
X118786908Y-45428317D01*
X118800397Y-45431000D01*
X118943603Y-45431000D01*
X119084058Y-45403062D01*
X119216364Y-45348259D01*
X119335436Y-45268698D01*
X119436698Y-45167436D01*
X119444339Y-45156000D01*
X120055713Y-45156000D01*
X120106277Y-45231674D01*
X120249326Y-45374723D01*
X120417533Y-45487115D01*
X120604435Y-45564533D01*
X120802849Y-45604000D01*
X121005151Y-45604000D01*
X121203565Y-45564533D01*
X121390467Y-45487115D01*
X121558674Y-45374723D01*
X121701723Y-45231674D01*
X121814115Y-45063467D01*
X121891533Y-44876565D01*
X121931000Y-44678151D01*
X121931000Y-44475849D01*
X121891533Y-44277435D01*
X121814115Y-44090533D01*
X121701723Y-43922326D01*
X121558674Y-43779277D01*
X121390467Y-43666885D01*
X121203565Y-43589467D01*
X121005151Y-43550000D01*
X120802849Y-43550000D01*
X120604435Y-43589467D01*
X120417533Y-43666885D01*
X120249326Y-43779277D01*
X120106277Y-43922326D01*
X119993885Y-44090533D01*
X119927003Y-44252000D01*
X119444339Y-44252000D01*
X119436698Y-44240564D01*
X119335436Y-44139302D01*
X119216364Y-44059741D01*
X119084058Y-44004938D01*
X118943603Y-43977000D01*
X118800397Y-43977000D01*
X118659942Y-44004938D01*
X118527636Y-44059741D01*
X118408564Y-44139302D01*
X118307302Y-44240564D01*
X118227741Y-44359636D01*
X118172938Y-44491942D01*
X118145000Y-44632397D01*
X118145000Y-44775603D01*
X118147683Y-44789092D01*
X114112777Y-48824000D01*
X113729339Y-48824000D01*
X113721698Y-48812564D01*
X113620436Y-48711302D01*
X113501364Y-48631741D01*
X113369058Y-48576938D01*
X113228603Y-48549000D01*
X113085397Y-48549000D01*
X112944942Y-48576938D01*
X112883999Y-48602181D01*
X112883999Y-46876239D01*
X113730841Y-46029397D01*
X114970000Y-46029397D01*
X114970000Y-46172603D01*
X114997938Y-46313058D01*
X115052741Y-46445364D01*
X115132302Y-46564436D01*
X115233564Y-46665698D01*
X115352636Y-46745259D01*
X115484942Y-46800062D01*
X115625397Y-46828000D01*
X115768603Y-46828000D01*
X115909058Y-46800062D01*
X116041364Y-46745259D01*
X116160436Y-46665698D01*
X116261698Y-46564436D01*
X116341259Y-46445364D01*
X116396062Y-46313058D01*
X116424000Y-46172603D01*
X116424000Y-46029397D01*
X116421317Y-46015907D01*
X117156719Y-45280505D01*
X117179058Y-45276062D01*
X117311364Y-45221259D01*
X117430436Y-45141698D01*
X117531698Y-45040436D01*
X117611259Y-44921364D01*
X117666062Y-44789058D01*
X117694000Y-44648603D01*
X117694000Y-44505397D01*
X117666062Y-44364942D01*
X117611259Y-44232636D01*
X117531698Y-44113564D01*
X117430436Y-44012302D01*
X117311364Y-43932741D01*
X117179058Y-43877938D01*
X117038603Y-43850000D01*
X116895397Y-43850000D01*
X116754942Y-43877938D01*
X116622636Y-43932741D01*
X116503564Y-44012302D01*
X116402302Y-44113564D01*
X116322741Y-44232636D01*
X116267938Y-44364942D01*
X116240000Y-44505397D01*
X116240000Y-44648603D01*
X116267938Y-44789058D01*
X116297749Y-44861027D01*
X115782093Y-45376683D01*
X115768603Y-45374000D01*
X115625397Y-45374000D01*
X115484942Y-45401938D01*
X115352636Y-45456741D01*
X115233564Y-45536302D01*
X115132302Y-45637564D01*
X115052741Y-45756636D01*
X114997938Y-45888942D01*
X114970000Y-46029397D01*
X113730841Y-46029397D01*
X114348053Y-45412186D01*
X114379606Y-45386291D01*
X114410818Y-45348259D01*
X114482952Y-45260365D01*
X114532623Y-45167436D01*
X114559745Y-45116695D01*
X114607034Y-44960805D01*
X114619000Y-44839309D01*
X114619000Y-44839299D01*
X114623000Y-44798685D01*
X114619000Y-44758071D01*
X114619000Y-44192376D01*
X114607034Y-44070880D01*
X114559745Y-43914990D01*
X114482952Y-43771321D01*
X114379606Y-43645394D01*
X114253678Y-43542048D01*
X114110009Y-43465255D01*
X113954119Y-43417966D01*
X113792000Y-43401999D01*
X113629880Y-43417966D01*
X113473990Y-43465255D01*
X113330321Y-43542048D01*
X113204394Y-43645394D01*
X113101048Y-43771322D01*
X113024255Y-43914991D01*
X112976966Y-44070881D01*
X112965000Y-44192377D01*
X112965000Y-44456131D01*
X111500951Y-45920181D01*
X111469393Y-45946080D01*
X111440898Y-45980802D01*
X111366047Y-46072007D01*
X111350550Y-46101000D01*
X111289254Y-46215677D01*
X111241965Y-46371567D01*
X111229999Y-46493063D01*
X111229999Y-46493072D01*
X111225999Y-46533686D01*
X111229999Y-46574300D01*
X111230000Y-49763377D01*
X111225999Y-49804001D01*
X111236389Y-49909500D01*
X110316374Y-49909500D01*
X110275760Y-49905500D01*
X110235146Y-49909500D01*
X110235136Y-49909500D01*
X110113640Y-49921466D01*
X109957750Y-49968755D01*
X109927420Y-49984967D01*
X109814080Y-50045548D01*
X109719708Y-50122997D01*
X109719701Y-50123004D01*
X109688154Y-50148894D01*
X109662264Y-50180442D01*
X107523446Y-52319261D01*
X106193815Y-52319261D01*
X106046500Y-52171947D01*
X106046500Y-52007221D01*
X106172742Y-52065934D01*
X106428240Y-52128183D01*
X106690973Y-52139390D01*
X106950844Y-52099125D01*
X107197866Y-52008935D01*
X107298703Y-51955037D01*
X107358164Y-51721269D01*
X106616500Y-50979605D01*
X106602358Y-50993748D01*
X106422753Y-50814143D01*
X106436895Y-50800000D01*
X106796105Y-50800000D01*
X107537769Y-51541664D01*
X107771537Y-51482203D01*
X107882434Y-51243758D01*
X107944683Y-50988260D01*
X107955890Y-50725527D01*
X107915625Y-50465656D01*
X107825435Y-50218634D01*
X107771537Y-50117797D01*
X107537769Y-50058336D01*
X106796105Y-50800000D01*
X106436895Y-50800000D01*
X105695231Y-50058336D01*
X105461463Y-50117797D01*
X105350566Y-50356242D01*
X105288317Y-50611740D01*
X105277110Y-50874473D01*
X105281269Y-50901313D01*
X105191120Y-50873967D01*
X105029000Y-50858000D01*
X104866880Y-50873967D01*
X104710990Y-50921256D01*
X104567321Y-50998048D01*
X104441394Y-51101394D01*
X104338048Y-51227321D01*
X104338000Y-51227411D01*
X104338000Y-49878731D01*
X105874836Y-49878731D01*
X106616500Y-50620395D01*
X107358164Y-49878731D01*
X107298703Y-49644963D01*
X107060258Y-49534066D01*
X106804760Y-49471817D01*
X106542027Y-49460610D01*
X106282156Y-49500875D01*
X106035134Y-49591065D01*
X105934297Y-49644963D01*
X105874836Y-49878731D01*
X104338000Y-49878731D01*
X104338000Y-47901204D01*
X104340187Y-47878999D01*
X104331460Y-47790392D01*
X104309160Y-47716881D01*
X104305614Y-47705190D01*
X104263643Y-47626667D01*
X104207159Y-47557841D01*
X104189912Y-47543687D01*
X104109225Y-47463000D01*
X104211603Y-47463000D01*
X104352058Y-47435062D01*
X104484364Y-47380259D01*
X104603436Y-47300698D01*
X104704698Y-47199436D01*
X104784259Y-47080364D01*
X104839062Y-46948058D01*
X104867000Y-46807603D01*
X104867000Y-46664397D01*
X104864317Y-46650907D01*
X105218525Y-46296699D01*
X105319636Y-46364259D01*
X105451942Y-46419062D01*
X105592397Y-46447000D01*
X105735603Y-46447000D01*
X105749093Y-46444317D01*
X106164501Y-46859726D01*
X106164501Y-47335608D01*
X106130033Y-47349885D01*
X105961826Y-47462277D01*
X105818777Y-47605326D01*
X105706385Y-47773533D01*
X105628967Y-47960435D01*
X105589500Y-48158849D01*
X105589500Y-48361151D01*
X105628967Y-48559565D01*
X105706385Y-48746467D01*
X105818777Y-48914674D01*
X105961826Y-49057723D01*
X106130033Y-49170115D01*
X106316935Y-49247533D01*
X106515349Y-49287000D01*
X106717651Y-49287000D01*
X106916065Y-49247533D01*
X107102967Y-49170115D01*
X107271174Y-49057723D01*
X107414223Y-48914674D01*
X107526615Y-48746467D01*
X107604033Y-48559565D01*
X107643500Y-48361151D01*
X107643500Y-48158849D01*
X107604033Y-47960435D01*
X107526615Y-47773533D01*
X107414223Y-47605326D01*
X107271174Y-47462277D01*
X107102967Y-47349885D01*
X107068500Y-47335608D01*
X107068500Y-46694704D01*
X107070687Y-46672499D01*
X107061960Y-46583892D01*
X107050605Y-46546460D01*
X107036114Y-46498690D01*
X106994143Y-46420167D01*
X106937659Y-46351341D01*
X106920410Y-46337185D01*
X106388317Y-45805093D01*
X106391000Y-45791603D01*
X106391000Y-45648397D01*
X106363062Y-45507942D01*
X106308259Y-45375636D01*
X106228698Y-45256564D01*
X106127436Y-45155302D01*
X106008364Y-45075741D01*
X105876058Y-45020938D01*
X105735603Y-44993000D01*
X105592397Y-44993000D01*
X105451942Y-45020938D01*
X105319636Y-45075741D01*
X105200564Y-45155302D01*
X105099302Y-45256564D01*
X105088693Y-45272442D01*
X105067392Y-45274540D01*
X105022167Y-45288259D01*
X104982190Y-45300386D01*
X104903667Y-45342357D01*
X104834841Y-45398841D01*
X104820681Y-45416095D01*
X104225093Y-46011683D01*
X104211603Y-46009000D01*
X104068397Y-46009000D01*
X103927942Y-46036938D01*
X103795636Y-46091741D01*
X103676564Y-46171302D01*
X103575302Y-46272564D01*
X103495741Y-46391636D01*
X103440938Y-46523942D01*
X103413000Y-46664397D01*
X103413000Y-46766776D01*
X103340317Y-46694093D01*
X103343000Y-46680603D01*
X103343000Y-46537397D01*
X103315062Y-46396942D01*
X103260259Y-46264636D01*
X103180698Y-46145564D01*
X103079436Y-46044302D01*
X102960364Y-45964741D01*
X102828058Y-45909938D01*
X102687603Y-45882000D01*
X102544397Y-45882000D01*
X102403942Y-45909938D01*
X102271636Y-45964741D01*
X102152564Y-46044302D01*
X102051302Y-46145564D01*
X101971741Y-46264636D01*
X101916938Y-46396942D01*
X101889000Y-46537397D01*
X101889000Y-46680603D01*
X101916938Y-46821058D01*
X101971741Y-46953364D01*
X102051302Y-47072436D01*
X102152564Y-47173698D01*
X102271636Y-47253259D01*
X102403942Y-47308062D01*
X102544397Y-47336000D01*
X102687603Y-47336000D01*
X102701093Y-47333317D01*
X103434000Y-48066225D01*
X103434001Y-59117660D01*
X103422564Y-59125302D01*
X103321302Y-59226564D01*
X103241741Y-59345636D01*
X103186938Y-59477942D01*
X103159000Y-59618397D01*
X103159000Y-59761603D01*
X103186938Y-59902058D01*
X103241741Y-60034364D01*
X103321302Y-60153436D01*
X103422564Y-60254698D01*
X103541636Y-60334259D01*
X103673942Y-60389062D01*
X103814397Y-60417000D01*
X103957603Y-60417000D01*
X104098058Y-60389062D01*
X104230364Y-60334259D01*
X104349436Y-60254698D01*
X104450698Y-60153436D01*
X104530259Y-60034364D01*
X104585062Y-59902058D01*
X104613000Y-59761603D01*
X104613000Y-59618397D01*
X104585062Y-59477942D01*
X104530259Y-59345636D01*
X104450698Y-59226564D01*
X104349436Y-59125302D01*
X104338000Y-59117661D01*
X104338000Y-52150589D01*
X104338048Y-52150679D01*
X104392500Y-52217028D01*
X104392500Y-52473886D01*
X104388500Y-52514500D01*
X104392500Y-52555114D01*
X104392500Y-52555123D01*
X104404466Y-52676619D01*
X104451755Y-52832509D01*
X104465224Y-52857707D01*
X104528548Y-52976179D01*
X104562899Y-53018035D01*
X104631894Y-53102106D01*
X104663452Y-53128005D01*
X105237760Y-53702314D01*
X105263655Y-53733867D01*
X105295208Y-53759762D01*
X105295209Y-53759763D01*
X105389581Y-53837213D01*
X105438664Y-53863448D01*
X105533251Y-53914006D01*
X105689141Y-53961295D01*
X105810637Y-53973261D01*
X105810647Y-53973261D01*
X105851261Y-53977261D01*
X105891875Y-53973261D01*
X107028376Y-53973261D01*
X107006489Y-55688000D01*
X106766376Y-55688000D01*
X106644880Y-55699966D01*
X106488990Y-55747255D01*
X106345321Y-55824048D01*
X106219394Y-55927394D01*
X106116048Y-56053321D01*
X106039255Y-56196990D01*
X105991966Y-56352880D01*
X105975999Y-56515000D01*
X105991966Y-56677120D01*
X106039255Y-56833010D01*
X106116048Y-56976679D01*
X106219394Y-57102606D01*
X106345321Y-57205952D01*
X106488990Y-57282745D01*
X106644880Y-57330034D01*
X106766376Y-57342000D01*
X107002153Y-57342000D01*
X107038696Y-62235460D01*
X107034999Y-62272999D01*
X107039303Y-62316698D01*
X107039326Y-62319797D01*
X107043290Y-62357180D01*
X107050966Y-62435119D01*
X107051870Y-62438100D01*
X107052199Y-62441201D01*
X107075517Y-62516052D01*
X107098255Y-62591009D01*
X107099724Y-62593757D01*
X107100651Y-62596733D01*
X107138104Y-62665562D01*
X107175047Y-62734678D01*
X107177024Y-62737087D01*
X107178514Y-62739825D01*
X107228699Y-62800052D01*
X107252497Y-62829050D01*
X107254683Y-62831236D01*
X107282798Y-62864977D01*
X107312139Y-62888692D01*
X109914949Y-65491503D01*
X109914955Y-65491508D01*
X110314949Y-65891502D01*
X110409321Y-65968952D01*
X110552989Y-66045744D01*
X110708879Y-66093033D01*
X110870999Y-66109000D01*
X111033120Y-66093033D01*
X111189010Y-66045744D01*
X111332679Y-65968952D01*
X111458606Y-65865606D01*
X111561952Y-65739679D01*
X111638744Y-65596010D01*
X111686033Y-65440120D01*
X111702000Y-65277999D01*
X111686033Y-65115879D01*
X111638744Y-64959989D01*
X111561952Y-64816321D01*
X111484502Y-64721949D01*
X111084508Y-64321955D01*
X111084503Y-64321949D01*
X108690445Y-61927891D01*
X108688234Y-61631845D01*
X108753942Y-61659062D01*
X108894397Y-61687000D01*
X109037603Y-61687000D01*
X109178058Y-61659062D01*
X109310364Y-61604259D01*
X109429436Y-61524698D01*
X109530698Y-61423436D01*
X109610259Y-61304364D01*
X109665062Y-61172058D01*
X109693000Y-61031603D01*
X109693000Y-60888397D01*
X109665062Y-60747942D01*
X109610259Y-60615636D01*
X109530698Y-60496564D01*
X109429436Y-60395302D01*
X109418000Y-60387661D01*
X109418000Y-53400223D01*
X110486724Y-52331500D01*
X115124661Y-52331500D01*
X115132302Y-52342936D01*
X115233564Y-52444198D01*
X115352636Y-52523759D01*
X115484942Y-52578562D01*
X115625397Y-52606500D01*
X115768603Y-52606500D01*
X115909058Y-52578562D01*
X116041364Y-52523759D01*
X116160436Y-52444198D01*
X116261698Y-52342936D01*
X116341259Y-52223864D01*
X116396062Y-52091558D01*
X116424000Y-51951103D01*
X116424000Y-51807897D01*
X116396062Y-51667442D01*
X116353008Y-51563500D01*
X118719947Y-51563500D01*
X119972950Y-52816504D01*
X119972955Y-52816508D01*
X122132003Y-54975558D01*
X122157894Y-55007106D01*
X122189441Y-55032996D01*
X122189448Y-55033003D01*
X122283820Y-55110452D01*
X122427489Y-55187245D01*
X122474778Y-55201590D01*
X122583380Y-55234534D01*
X122704876Y-55246500D01*
X122704886Y-55246500D01*
X122745500Y-55250500D01*
X122786114Y-55246500D01*
X126720946Y-55246500D01*
X126998501Y-55524055D01*
X126998500Y-59931970D01*
X126911264Y-60019206D01*
X126782456Y-60211981D01*
X126693731Y-60426182D01*
X126648500Y-60653576D01*
X126648500Y-60885424D01*
X126693731Y-61112818D01*
X126782456Y-61327019D01*
X126911264Y-61519794D01*
X127075206Y-61683736D01*
X127267981Y-61812544D01*
X127482182Y-61901269D01*
X127709576Y-61946500D01*
X127748277Y-61946500D01*
X120741279Y-68953500D01*
X119685313Y-68953500D01*
X103036240Y-68953016D01*
X102571805Y-68488582D01*
X102704000Y-68488582D01*
X102768103Y-68482268D01*
X102829743Y-68463570D01*
X102886550Y-68433206D01*
X102936343Y-68392343D01*
X102977206Y-68342550D01*
X103007570Y-68285743D01*
X103026268Y-68224103D01*
X103032582Y-68160000D01*
X103032582Y-67194076D01*
X103217000Y-67194076D01*
X103217000Y-67425924D01*
X103262231Y-67653318D01*
X103350956Y-67867519D01*
X103479764Y-68060294D01*
X103643706Y-68224236D01*
X103836481Y-68353044D01*
X104050682Y-68441769D01*
X104278076Y-68487000D01*
X104509924Y-68487000D01*
X104737318Y-68441769D01*
X104951519Y-68353044D01*
X105144294Y-68224236D01*
X105308236Y-68060294D01*
X105437044Y-67867519D01*
X105525769Y-67653318D01*
X105571000Y-67425924D01*
X105571000Y-67194076D01*
X105525769Y-66966682D01*
X105437044Y-66752481D01*
X105308236Y-66559706D01*
X105144294Y-66395764D01*
X104951519Y-66266956D01*
X104846000Y-66223249D01*
X104846000Y-63964134D01*
X104946564Y-64064698D01*
X105065636Y-64144259D01*
X105197942Y-64199062D01*
X105338397Y-64227000D01*
X105481603Y-64227000D01*
X105495093Y-64224317D01*
X106482001Y-65211226D01*
X106482000Y-66223248D01*
X106376481Y-66266956D01*
X106183706Y-66395764D01*
X106019764Y-66559706D01*
X105890956Y-66752481D01*
X105802231Y-66966682D01*
X105757000Y-67194076D01*
X105757000Y-67425924D01*
X105802231Y-67653318D01*
X105890956Y-67867519D01*
X106019764Y-68060294D01*
X106183706Y-68224236D01*
X106376481Y-68353044D01*
X106590682Y-68441769D01*
X106818076Y-68487000D01*
X107049924Y-68487000D01*
X107277318Y-68441769D01*
X107491519Y-68353044D01*
X107684294Y-68224236D01*
X107848236Y-68060294D01*
X107977044Y-67867519D01*
X108020751Y-67762000D01*
X109128000Y-67762000D01*
X109128000Y-67826103D01*
X109155938Y-67966558D01*
X109210741Y-68098864D01*
X109290302Y-68217936D01*
X109391564Y-68319198D01*
X109510636Y-68398759D01*
X109642942Y-68453562D01*
X109783397Y-68481500D01*
X109926603Y-68481500D01*
X110067058Y-68453562D01*
X110199364Y-68398759D01*
X110318436Y-68319198D01*
X110419698Y-68217936D01*
X110499259Y-68098864D01*
X110554062Y-67966558D01*
X110582000Y-67826103D01*
X110582000Y-67682897D01*
X110554062Y-67542442D01*
X110499259Y-67410136D01*
X110419698Y-67291064D01*
X110318436Y-67189802D01*
X110199364Y-67110241D01*
X110067058Y-67055438D01*
X109926603Y-67027500D01*
X109783397Y-67027500D01*
X109769907Y-67030183D01*
X109745823Y-67006100D01*
X109731659Y-66988841D01*
X109662833Y-66932357D01*
X109584310Y-66890386D01*
X109499107Y-66864540D01*
X109432705Y-66858000D01*
X109410500Y-66855813D01*
X109388295Y-66858000D01*
X108020751Y-66858000D01*
X107977044Y-66752481D01*
X107848236Y-66559706D01*
X107684294Y-66395764D01*
X107491519Y-66266956D01*
X107386000Y-66223249D01*
X107386000Y-65046202D01*
X107388187Y-65023999D01*
X107381882Y-64959989D01*
X107379460Y-64935393D01*
X107353614Y-64850190D01*
X107311643Y-64771667D01*
X107255159Y-64702841D01*
X107237910Y-64688685D01*
X106134317Y-63585093D01*
X106137000Y-63571603D01*
X106137000Y-63428397D01*
X106109062Y-63287942D01*
X106054259Y-63155636D01*
X105974698Y-63036564D01*
X105873436Y-62935302D01*
X105754364Y-62855741D01*
X105622058Y-62800938D01*
X105481603Y-62773000D01*
X105338397Y-62773000D01*
X105197942Y-62800938D01*
X105065636Y-62855741D01*
X104946564Y-62935302D01*
X104846000Y-63035866D01*
X104846000Y-62799031D01*
X104911259Y-62701364D01*
X104966062Y-62569058D01*
X104994000Y-62428603D01*
X104994000Y-62285397D01*
X104966062Y-62144942D01*
X104911259Y-62012636D01*
X104831698Y-61893564D01*
X104730436Y-61792302D01*
X104611364Y-61712741D01*
X104479058Y-61657938D01*
X104338603Y-61630000D01*
X104195397Y-61630000D01*
X104054942Y-61657938D01*
X103922636Y-61712741D01*
X103803564Y-61792302D01*
X103702302Y-61893564D01*
X103622741Y-62012636D01*
X103567938Y-62144942D01*
X103540000Y-62285397D01*
X103540000Y-62428603D01*
X103567938Y-62569058D01*
X103622741Y-62701364D01*
X103702302Y-62820436D01*
X103803564Y-62921698D01*
X103922636Y-63001259D01*
X103942001Y-63009280D01*
X103942000Y-66223248D01*
X103836481Y-66266956D01*
X103643706Y-66395764D01*
X103479764Y-66559706D01*
X103350956Y-66752481D01*
X103262231Y-66966682D01*
X103217000Y-67194076D01*
X103032582Y-67194076D01*
X103032582Y-66460000D01*
X103026268Y-66395897D01*
X103007570Y-66334257D01*
X102977206Y-66277450D01*
X102936343Y-66227657D01*
X102886550Y-66186794D01*
X102829743Y-66156430D01*
X102768103Y-66137732D01*
X102704000Y-66131418D01*
X101004000Y-66131418D01*
X100939897Y-66137732D01*
X100878257Y-66156430D01*
X100821450Y-66186794D01*
X100771657Y-66227657D01*
X100730794Y-66277450D01*
X100700430Y-66334257D01*
X100681732Y-66395897D01*
X100675418Y-66460000D01*
X74592224Y-66460000D01*
X74373999Y-66241776D01*
X74373999Y-64698397D01*
X77251000Y-64698397D01*
X77251000Y-64841603D01*
X77278938Y-64982058D01*
X77333741Y-65114364D01*
X77413302Y-65233436D01*
X77514564Y-65334698D01*
X77633636Y-65414259D01*
X77765942Y-65469062D01*
X77906397Y-65497000D01*
X78049603Y-65497000D01*
X78190058Y-65469062D01*
X78322364Y-65414259D01*
X78441436Y-65334698D01*
X78542698Y-65233436D01*
X78550339Y-65222000D01*
X86591795Y-65222000D01*
X86614000Y-65224187D01*
X86636205Y-65222000D01*
X86702607Y-65215460D01*
X86787810Y-65189614D01*
X86866333Y-65147643D01*
X86935159Y-65091159D01*
X86949323Y-65073900D01*
X87601954Y-64421269D01*
X97937336Y-64421269D01*
X97996797Y-64655037D01*
X98235242Y-64765934D01*
X98490740Y-64828183D01*
X98753473Y-64839390D01*
X99013344Y-64799125D01*
X99260366Y-64708935D01*
X99361203Y-64655037D01*
X99420664Y-64421269D01*
X98679000Y-63679605D01*
X97937336Y-64421269D01*
X87601954Y-64421269D01*
X88448750Y-63574473D01*
X97339610Y-63574473D01*
X97379875Y-63834344D01*
X97470065Y-64081366D01*
X97523963Y-64182203D01*
X97757731Y-64241664D01*
X98499395Y-63500000D01*
X98858605Y-63500000D01*
X99600269Y-64241664D01*
X99834037Y-64182203D01*
X99944934Y-63943758D01*
X100007183Y-63688260D01*
X100018390Y-63425527D01*
X99978125Y-63165656D01*
X99887935Y-62918634D01*
X99834037Y-62817797D01*
X99600269Y-62758336D01*
X98858605Y-63500000D01*
X98499395Y-63500000D01*
X97757731Y-62758336D01*
X97523963Y-62817797D01*
X97413066Y-63056242D01*
X97350817Y-63311740D01*
X97339610Y-63574473D01*
X88448750Y-63574473D01*
X89444492Y-62578731D01*
X97937336Y-62578731D01*
X98679000Y-63320395D01*
X99420664Y-62578731D01*
X99361203Y-62344963D01*
X99122758Y-62234066D01*
X98867260Y-62171817D01*
X98604527Y-62160610D01*
X98344656Y-62200875D01*
X98097634Y-62291065D01*
X97996797Y-62344963D01*
X97937336Y-62578731D01*
X89444492Y-62578731D01*
X90727905Y-61295319D01*
X90745159Y-61281159D01*
X90759323Y-61263900D01*
X91164374Y-60858849D01*
X97652000Y-60858849D01*
X97652000Y-61061151D01*
X97691467Y-61259565D01*
X97768885Y-61446467D01*
X97881277Y-61614674D01*
X98024326Y-61757723D01*
X98192533Y-61870115D01*
X98379435Y-61947533D01*
X98577849Y-61987000D01*
X98780151Y-61987000D01*
X98978565Y-61947533D01*
X99165467Y-61870115D01*
X99333674Y-61757723D01*
X99476723Y-61614674D01*
X99589115Y-61446467D01*
X99666533Y-61259565D01*
X99706000Y-61061151D01*
X99706000Y-60858849D01*
X99666533Y-60660435D01*
X99589115Y-60473533D01*
X99476723Y-60305326D01*
X99333674Y-60162277D01*
X99165467Y-60049885D01*
X98978565Y-59972467D01*
X98780151Y-59933000D01*
X98577849Y-59933000D01*
X98379435Y-59972467D01*
X98192533Y-60049885D01*
X98024326Y-60162277D01*
X97881277Y-60305326D01*
X97768885Y-60473533D01*
X97691467Y-60660435D01*
X97652000Y-60858849D01*
X91164374Y-60858849D01*
X93585412Y-58437813D01*
X93602659Y-58423659D01*
X93659143Y-58354833D01*
X93701114Y-58276310D01*
X93726960Y-58191107D01*
X93733500Y-58124705D01*
X93733500Y-58124704D01*
X93735687Y-58102501D01*
X93733500Y-58080296D01*
X93733500Y-49029251D01*
X93839019Y-48985544D01*
X94031794Y-48856736D01*
X94195736Y-48692794D01*
X94324544Y-48500019D01*
X94368251Y-48394500D01*
X95849418Y-48394500D01*
X95849418Y-48792500D01*
X95855732Y-48856603D01*
X95874430Y-48918243D01*
X95904794Y-48975050D01*
X95945657Y-49024843D01*
X95995450Y-49065706D01*
X96052257Y-49096070D01*
X96113897Y-49114768D01*
X96178000Y-49121082D01*
X97878000Y-49121082D01*
X97942103Y-49114768D01*
X98003743Y-49096070D01*
X98060550Y-49065706D01*
X98110343Y-49024843D01*
X98151206Y-48975050D01*
X98164383Y-48950397D01*
X99349000Y-48950397D01*
X99349000Y-49093603D01*
X99376938Y-49234058D01*
X99431741Y-49366364D01*
X99511302Y-49485436D01*
X99612564Y-49586698D01*
X99731636Y-49666259D01*
X99863942Y-49721062D01*
X100004397Y-49749000D01*
X100147603Y-49749000D01*
X100288058Y-49721062D01*
X100420364Y-49666259D01*
X100539436Y-49586698D01*
X100640698Y-49485436D01*
X100720259Y-49366364D01*
X100775062Y-49234058D01*
X100803000Y-49093603D01*
X100803000Y-48950397D01*
X100800317Y-48936907D01*
X101649912Y-48087313D01*
X101667159Y-48073159D01*
X101723643Y-48004333D01*
X101765614Y-47925810D01*
X101785444Y-47860438D01*
X101791460Y-47840608D01*
X101800187Y-47752001D01*
X101798000Y-47729796D01*
X101798000Y-46161223D01*
X102295224Y-45664000D01*
X103313661Y-45664000D01*
X103321302Y-45675436D01*
X103422564Y-45776698D01*
X103541636Y-45856259D01*
X103673942Y-45911062D01*
X103814397Y-45939000D01*
X103957603Y-45939000D01*
X104098058Y-45911062D01*
X104230364Y-45856259D01*
X104349436Y-45776698D01*
X104450698Y-45675436D01*
X104530259Y-45556364D01*
X104585062Y-45424058D01*
X104613000Y-45283603D01*
X104613000Y-45140397D01*
X104585062Y-44999942D01*
X104530259Y-44867636D01*
X104450698Y-44748564D01*
X104349436Y-44647302D01*
X104230364Y-44567741D01*
X104098058Y-44512938D01*
X103957603Y-44485000D01*
X103814397Y-44485000D01*
X103673942Y-44512938D01*
X103541636Y-44567741D01*
X103422564Y-44647302D01*
X103321302Y-44748564D01*
X103313661Y-44760000D01*
X102130205Y-44760000D01*
X102108000Y-44757813D01*
X102019392Y-44766540D01*
X101945161Y-44789058D01*
X101934190Y-44792386D01*
X101855667Y-44834357D01*
X101786841Y-44890841D01*
X101772681Y-44908095D01*
X101042096Y-45638681D01*
X101024842Y-45652841D01*
X100983936Y-45702685D01*
X100968358Y-45721667D01*
X100926386Y-45800191D01*
X100900540Y-45885393D01*
X100891813Y-45974000D01*
X100894001Y-45996215D01*
X100894000Y-47564775D01*
X100161093Y-48297683D01*
X100147603Y-48295000D01*
X100004397Y-48295000D01*
X99863942Y-48322938D01*
X99731636Y-48377741D01*
X99612564Y-48457302D01*
X99511302Y-48558564D01*
X99431741Y-48677636D01*
X99376938Y-48809942D01*
X99349000Y-48950397D01*
X98164383Y-48950397D01*
X98181570Y-48918243D01*
X98200268Y-48856603D01*
X98206582Y-48792500D01*
X98206582Y-47092500D01*
X98200268Y-47028397D01*
X98181570Y-46966757D01*
X98151206Y-46909950D01*
X98110343Y-46860157D01*
X98060550Y-46819294D01*
X98003743Y-46788930D01*
X97942103Y-46770232D01*
X97878000Y-46763918D01*
X96178000Y-46763918D01*
X96113897Y-46770232D01*
X96052257Y-46788930D01*
X95995450Y-46819294D01*
X95945657Y-46860157D01*
X95904794Y-46909950D01*
X95874430Y-46966757D01*
X95855732Y-47028397D01*
X95849418Y-47092500D01*
X95849418Y-47490500D01*
X94368251Y-47490500D01*
X94324544Y-47384981D01*
X94195736Y-47192206D01*
X94031794Y-47028264D01*
X93839019Y-46899456D01*
X93624818Y-46810731D01*
X93397424Y-46765500D01*
X93165576Y-46765500D01*
X92938182Y-46810731D01*
X92723981Y-46899456D01*
X92531206Y-47028264D01*
X92367264Y-47192206D01*
X92238456Y-47384981D01*
X92149731Y-47599182D01*
X92104500Y-47826576D01*
X92104500Y-48058424D01*
X92149731Y-48285818D01*
X92238456Y-48500019D01*
X92367264Y-48692794D01*
X92531206Y-48856736D01*
X92723981Y-48985544D01*
X92829501Y-49029252D01*
X92829500Y-57915275D01*
X90236777Y-60508000D01*
X85916339Y-60508000D01*
X85908698Y-60496564D01*
X85807436Y-60395302D01*
X85688364Y-60315741D01*
X85556058Y-60260938D01*
X85415603Y-60233000D01*
X85272397Y-60233000D01*
X85131942Y-60260938D01*
X84999636Y-60315741D01*
X84880564Y-60395302D01*
X84779302Y-60496564D01*
X84699741Y-60615636D01*
X84644938Y-60747942D01*
X84617000Y-60888397D01*
X84617000Y-61031603D01*
X84644938Y-61172058D01*
X84699741Y-61304364D01*
X84779302Y-61423436D01*
X84880564Y-61524698D01*
X84999636Y-61604259D01*
X85131942Y-61659062D01*
X85272397Y-61687000D01*
X85415603Y-61687000D01*
X85556058Y-61659062D01*
X85688364Y-61604259D01*
X85807436Y-61524698D01*
X85908698Y-61423436D01*
X85916339Y-61412000D01*
X89332776Y-61412000D01*
X86426777Y-64318000D01*
X78550339Y-64318000D01*
X78542698Y-64306564D01*
X78441436Y-64205302D01*
X78322364Y-64125741D01*
X78190058Y-64070938D01*
X78049603Y-64043000D01*
X77906397Y-64043000D01*
X77765942Y-64070938D01*
X77633636Y-64125741D01*
X77514564Y-64205302D01*
X77413302Y-64306564D01*
X77333741Y-64425636D01*
X77278938Y-64557942D01*
X77251000Y-64698397D01*
X74373999Y-64698397D01*
X74373999Y-63933224D01*
X74863225Y-63444000D01*
X77447795Y-63444000D01*
X77470000Y-63446187D01*
X77492205Y-63444000D01*
X77511588Y-63442091D01*
X77558607Y-63437460D01*
X77643810Y-63411614D01*
X77722333Y-63369643D01*
X77791159Y-63313159D01*
X77805323Y-63295900D01*
X80059911Y-61041314D01*
X80077159Y-61027159D01*
X80133643Y-60958333D01*
X80175614Y-60879810D01*
X80201460Y-60794607D01*
X80208000Y-60728205D01*
X80210187Y-60706001D01*
X80208000Y-60683796D01*
X80208000Y-57288076D01*
X80920000Y-57288076D01*
X80920000Y-57519924D01*
X80965231Y-57747318D01*
X81053956Y-57961519D01*
X81182764Y-58154294D01*
X81346706Y-58318236D01*
X81539481Y-58447044D01*
X81753682Y-58535769D01*
X81981076Y-58581000D01*
X82212924Y-58581000D01*
X82440318Y-58535769D01*
X82654519Y-58447044D01*
X82847294Y-58318236D01*
X83011236Y-58154294D01*
X83140044Y-57961519D01*
X83228769Y-57747318D01*
X83274000Y-57519924D01*
X83274000Y-57288076D01*
X83228769Y-57060682D01*
X83140044Y-56846481D01*
X83011236Y-56653706D01*
X82847294Y-56489764D01*
X82654519Y-56360956D01*
X82440318Y-56272231D01*
X82212924Y-56227000D01*
X81981076Y-56227000D01*
X81753682Y-56272231D01*
X81539481Y-56360956D01*
X81346706Y-56489764D01*
X81182764Y-56653706D01*
X81053956Y-56846481D01*
X80965231Y-57060682D01*
X80920000Y-57288076D01*
X80208000Y-57288076D01*
X80208000Y-53760000D01*
X87467418Y-53760000D01*
X87467418Y-55460000D01*
X87473732Y-55524103D01*
X87492430Y-55585743D01*
X87522794Y-55642550D01*
X87563657Y-55692343D01*
X87613450Y-55733206D01*
X87670257Y-55763570D01*
X87731897Y-55782268D01*
X87796000Y-55788582D01*
X89496000Y-55788582D01*
X89560103Y-55782268D01*
X89621743Y-55763570D01*
X89678550Y-55733206D01*
X89728343Y-55692343D01*
X89769206Y-55642550D01*
X89799570Y-55585743D01*
X89818268Y-55524103D01*
X89824582Y-55460000D01*
X89824582Y-55192592D01*
X89841843Y-55241252D01*
X89990822Y-55491355D01*
X90185731Y-55707588D01*
X90419080Y-55881641D01*
X90681901Y-56006825D01*
X90829110Y-56051476D01*
X91059000Y-55930155D01*
X91059000Y-54737000D01*
X91313000Y-54737000D01*
X91313000Y-55930155D01*
X91542890Y-56051476D01*
X91690099Y-56006825D01*
X91952920Y-55881641D01*
X92186269Y-55707588D01*
X92381178Y-55491355D01*
X92530157Y-55241252D01*
X92627481Y-54966891D01*
X92506814Y-54737000D01*
X91313000Y-54737000D01*
X91059000Y-54737000D01*
X91039000Y-54737000D01*
X91039000Y-54483000D01*
X91059000Y-54483000D01*
X91059000Y-53289845D01*
X91313000Y-53289845D01*
X91313000Y-54483000D01*
X92506814Y-54483000D01*
X92627481Y-54253109D01*
X92530157Y-53978748D01*
X92381178Y-53728645D01*
X92186269Y-53512412D01*
X91952920Y-53338359D01*
X91690099Y-53213175D01*
X91542890Y-53168524D01*
X91313000Y-53289845D01*
X91059000Y-53289845D01*
X90829110Y-53168524D01*
X90681901Y-53213175D01*
X90419080Y-53338359D01*
X90185731Y-53512412D01*
X89990822Y-53728645D01*
X89841843Y-53978748D01*
X89824582Y-54027408D01*
X89824582Y-53760000D01*
X89818268Y-53695897D01*
X89799570Y-53634257D01*
X89769206Y-53577450D01*
X89728343Y-53527657D01*
X89678550Y-53486794D01*
X89621743Y-53456430D01*
X89560103Y-53437732D01*
X89496000Y-53431418D01*
X87796000Y-53431418D01*
X87731897Y-53437732D01*
X87670257Y-53456430D01*
X87613450Y-53486794D01*
X87563657Y-53527657D01*
X87522794Y-53577450D01*
X87492430Y-53634257D01*
X87473732Y-53695897D01*
X87467418Y-53760000D01*
X80208000Y-53760000D01*
X80208000Y-46415223D01*
X80958450Y-45664773D01*
X80920000Y-45858076D01*
X80920000Y-46089924D01*
X80965231Y-46317318D01*
X81053956Y-46531519D01*
X81182764Y-46724294D01*
X81346706Y-46888236D01*
X81539481Y-47017044D01*
X81753682Y-47105769D01*
X81981076Y-47151000D01*
X82212924Y-47151000D01*
X82440318Y-47105769D01*
X82654519Y-47017044D01*
X82847294Y-46888236D01*
X83011236Y-46724294D01*
X83140044Y-46531519D01*
X83228769Y-46317318D01*
X83274000Y-46089924D01*
X83274000Y-45858076D01*
X83228769Y-45630682D01*
X83140044Y-45416481D01*
X83011236Y-45223706D01*
X82847294Y-45059764D01*
X82654519Y-44930956D01*
X82440318Y-44842231D01*
X82212924Y-44797000D01*
X81981076Y-44797000D01*
X81787774Y-44835450D01*
X85258908Y-41364317D01*
X85272397Y-41367000D01*
X85415603Y-41367000D01*
X85429093Y-41364317D01*
X85802089Y-41737313D01*
X85802094Y-41737317D01*
X87231181Y-43166405D01*
X87245341Y-43183659D01*
X87314167Y-43240143D01*
X87358803Y-43264001D01*
X87392690Y-43282114D01*
X87477892Y-43307960D01*
X87566500Y-43316687D01*
X87588705Y-43314500D01*
X92102918Y-43314500D01*
X92102918Y-43712500D01*
X92109232Y-43776603D01*
X92127930Y-43838243D01*
X92158294Y-43895050D01*
X92199157Y-43944843D01*
X92248950Y-43985706D01*
X92305757Y-44016070D01*
X92367397Y-44034768D01*
X92431500Y-44041082D01*
X94131500Y-44041082D01*
X94195603Y-44034768D01*
X94257243Y-44016070D01*
X94314050Y-43985706D01*
X94363843Y-43944843D01*
X94404706Y-43895050D01*
X94435070Y-43838243D01*
X94453768Y-43776603D01*
X94460082Y-43712500D01*
X94460082Y-43314500D01*
X95941249Y-43314500D01*
X95984956Y-43420019D01*
X96113764Y-43612794D01*
X96244970Y-43744000D01*
X95712286Y-43744000D01*
X95690081Y-43741813D01*
X95601473Y-43750540D01*
X95543286Y-43768191D01*
X95516271Y-43776386D01*
X95437748Y-43818357D01*
X95368922Y-43874841D01*
X95354762Y-43892095D01*
X94347194Y-44899664D01*
X94324544Y-44844981D01*
X94195736Y-44652206D01*
X94031794Y-44488264D01*
X93839019Y-44359456D01*
X93624818Y-44270731D01*
X93397424Y-44225500D01*
X93165576Y-44225500D01*
X92938182Y-44270731D01*
X92723981Y-44359456D01*
X92531206Y-44488264D01*
X92367264Y-44652206D01*
X92238456Y-44844981D01*
X92149731Y-45059182D01*
X92104500Y-45286576D01*
X92104500Y-45518424D01*
X92149731Y-45745818D01*
X92238456Y-45960019D01*
X92367264Y-46152794D01*
X92531206Y-46316736D01*
X92723981Y-46445544D01*
X92938182Y-46534269D01*
X93165576Y-46579500D01*
X93397424Y-46579500D01*
X93624818Y-46534269D01*
X93839019Y-46445544D01*
X94031794Y-46316736D01*
X94195736Y-46152794D01*
X94324544Y-45960019D01*
X94368251Y-45854500D01*
X94461376Y-45854500D01*
X94483581Y-45856687D01*
X94505786Y-45854500D01*
X94572188Y-45847960D01*
X94657391Y-45822114D01*
X94735914Y-45780143D01*
X94804740Y-45723659D01*
X94818904Y-45706400D01*
X95877305Y-44648000D01*
X96117970Y-44648000D01*
X96113764Y-44652206D01*
X95984956Y-44844981D01*
X95896231Y-45059182D01*
X95851000Y-45286576D01*
X95851000Y-45518424D01*
X95896231Y-45745818D01*
X95984956Y-45960019D01*
X96113764Y-46152794D01*
X96277706Y-46316736D01*
X96470481Y-46445544D01*
X96684682Y-46534269D01*
X96912076Y-46579500D01*
X97143924Y-46579500D01*
X97371318Y-46534269D01*
X97585519Y-46445544D01*
X97778294Y-46316736D01*
X97942236Y-46152794D01*
X98071044Y-45960019D01*
X98159769Y-45745818D01*
X98205000Y-45518424D01*
X98205000Y-45286576D01*
X98159769Y-45059182D01*
X98071044Y-44844981D01*
X97942236Y-44652206D01*
X97938030Y-44648000D01*
X98104142Y-44648000D01*
X98106938Y-44662058D01*
X98161741Y-44794364D01*
X98241302Y-44913436D01*
X98342564Y-45014698D01*
X98461636Y-45094259D01*
X98593942Y-45149062D01*
X98734397Y-45177000D01*
X98877603Y-45177000D01*
X99018058Y-45149062D01*
X99150364Y-45094259D01*
X99269436Y-45014698D01*
X99370698Y-44913436D01*
X99450259Y-44794364D01*
X99505062Y-44662058D01*
X99533000Y-44521603D01*
X99533000Y-44378397D01*
X99505062Y-44237942D01*
X99450259Y-44105636D01*
X99370698Y-43986564D01*
X99269436Y-43885302D01*
X99150364Y-43805741D01*
X99018058Y-43750938D01*
X98877603Y-43723000D01*
X98734397Y-43723000D01*
X98610734Y-43747598D01*
X98574205Y-43744000D01*
X98552000Y-43741813D01*
X98529795Y-43744000D01*
X97811030Y-43744000D01*
X97942236Y-43612794D01*
X98071044Y-43420019D01*
X98159769Y-43205818D01*
X98205000Y-42978424D01*
X98205000Y-42746576D01*
X98159769Y-42519182D01*
X98071044Y-42304981D01*
X97942236Y-42112206D01*
X97778294Y-41948264D01*
X97585519Y-41819456D01*
X97371318Y-41730731D01*
X97143924Y-41685500D01*
X96912076Y-41685500D01*
X96684682Y-41730731D01*
X96470481Y-41819456D01*
X96277706Y-41948264D01*
X96113764Y-42112206D01*
X95984956Y-42304981D01*
X95941249Y-42410500D01*
X94460082Y-42410500D01*
X94460082Y-42012500D01*
X94453768Y-41948397D01*
X94435070Y-41886757D01*
X94404706Y-41829950D01*
X94363843Y-41780157D01*
X94314050Y-41739294D01*
X94257243Y-41708930D01*
X94195603Y-41690232D01*
X94131500Y-41683918D01*
X92431500Y-41683918D01*
X92367397Y-41690232D01*
X92305757Y-41708930D01*
X92248950Y-41739294D01*
X92199157Y-41780157D01*
X92158294Y-41829950D01*
X92127930Y-41886757D01*
X92109232Y-41948397D01*
X92102918Y-42012500D01*
X92102918Y-42410500D01*
X87753724Y-42410500D01*
X86441317Y-41098094D01*
X86441313Y-41098089D01*
X86068317Y-40725093D01*
X86071000Y-40711603D01*
X86071000Y-40568397D01*
X86058370Y-40504897D01*
X112303000Y-40504897D01*
X112303000Y-40648103D01*
X112330938Y-40788558D01*
X112385741Y-40920864D01*
X112465302Y-41039936D01*
X112566564Y-41141198D01*
X112685636Y-41220759D01*
X112817942Y-41275562D01*
X112958397Y-41303500D01*
X113101603Y-41303500D01*
X113242058Y-41275562D01*
X113374364Y-41220759D01*
X113493436Y-41141198D01*
X113594698Y-41039936D01*
X113674259Y-40920864D01*
X113729062Y-40788558D01*
X113757000Y-40648103D01*
X113757000Y-40504897D01*
X113729062Y-40364442D01*
X113674259Y-40232136D01*
X113594698Y-40113064D01*
X113493436Y-40011802D01*
X113374364Y-39932241D01*
X113242058Y-39877438D01*
X113101603Y-39849500D01*
X112958397Y-39849500D01*
X112817942Y-39877438D01*
X112685636Y-39932241D01*
X112566564Y-40011802D01*
X112465302Y-40113064D01*
X112385741Y-40232136D01*
X112330938Y-40364442D01*
X112303000Y-40504897D01*
X86058370Y-40504897D01*
X86043062Y-40427942D01*
X85988259Y-40295636D01*
X85908698Y-40176564D01*
X85807436Y-40075302D01*
X85688364Y-39995741D01*
X85556058Y-39940938D01*
X85415603Y-39913000D01*
X85272397Y-39913000D01*
X85131942Y-39940938D01*
X84999636Y-39995741D01*
X84880564Y-40075302D01*
X84779302Y-40176564D01*
X84699741Y-40295636D01*
X84644938Y-40427942D01*
X84617000Y-40568397D01*
X84617000Y-40711603D01*
X84619683Y-40725092D01*
X79452100Y-45892677D01*
X79434841Y-45906841D01*
X79378357Y-45975668D01*
X79352571Y-46023911D01*
X79336386Y-46054191D01*
X79310540Y-46139393D01*
X79301813Y-46228000D01*
X79304000Y-46250205D01*
X79304001Y-60518774D01*
X77282777Y-62540000D01*
X74698202Y-62540000D01*
X74675999Y-62537813D01*
X74653796Y-62540000D01*
X74653795Y-62540000D01*
X74587393Y-62546540D01*
X74502190Y-62572386D01*
X74423667Y-62614357D01*
X74354841Y-62670841D01*
X74340685Y-62688090D01*
X73618099Y-63410678D01*
X73600840Y-63424842D01*
X73544357Y-63493668D01*
X73502385Y-63572192D01*
X73476539Y-63657394D01*
X73467812Y-63746001D01*
X71755000Y-63746001D01*
X71755000Y-57288076D01*
X73920000Y-57288076D01*
X73920000Y-57519924D01*
X73965231Y-57747318D01*
X74053956Y-57961519D01*
X74182764Y-58154294D01*
X74346706Y-58318236D01*
X74539481Y-58447044D01*
X74753682Y-58535769D01*
X74981076Y-58581000D01*
X75212924Y-58581000D01*
X75440318Y-58535769D01*
X75654519Y-58447044D01*
X75847294Y-58318236D01*
X76011236Y-58154294D01*
X76140044Y-57961519D01*
X76228769Y-57747318D01*
X76274000Y-57519924D01*
X76274000Y-57288076D01*
X76228769Y-57060682D01*
X76140044Y-56846481D01*
X76011236Y-56653706D01*
X75847294Y-56489764D01*
X75654519Y-56360956D01*
X75440318Y-56272231D01*
X75212924Y-56227000D01*
X74981076Y-56227000D01*
X74753682Y-56272231D01*
X74539481Y-56360956D01*
X74346706Y-56489764D01*
X74182764Y-56653706D01*
X74053956Y-56846481D01*
X73965231Y-57060682D01*
X73920000Y-57288076D01*
X71755000Y-57288076D01*
X71755000Y-45858076D01*
X73920000Y-45858076D01*
X73920000Y-46089924D01*
X73965231Y-46317318D01*
X74053956Y-46531519D01*
X74182764Y-46724294D01*
X74346706Y-46888236D01*
X74539481Y-47017044D01*
X74753682Y-47105769D01*
X74981076Y-47151000D01*
X75212924Y-47151000D01*
X75440318Y-47105769D01*
X75654519Y-47017044D01*
X75847294Y-46888236D01*
X76011236Y-46724294D01*
X76140044Y-46531519D01*
X76228769Y-46317318D01*
X76274000Y-46089924D01*
X76274000Y-45858076D01*
X76228769Y-45630682D01*
X76140044Y-45416481D01*
X76011236Y-45223706D01*
X75847294Y-45059764D01*
X75654519Y-44930956D01*
X75440318Y-44842231D01*
X75212924Y-44797000D01*
X74981076Y-44797000D01*
X74753682Y-44842231D01*
X74539481Y-44930956D01*
X74346706Y-45059764D01*
X74182764Y-45223706D01*
X74053956Y-45416481D01*
X73965231Y-45630682D01*
X73920000Y-45858076D01*
X71755000Y-45858076D01*
X71755000Y-36841076D01*
X108868500Y-36841076D01*
X108868500Y-37072924D01*
X108913731Y-37300318D01*
X109002456Y-37514519D01*
X109131264Y-37707294D01*
X109295206Y-37871236D01*
X109487981Y-38000044D01*
X109702182Y-38088769D01*
X109929576Y-38134000D01*
X110161424Y-38134000D01*
X110388818Y-38088769D01*
X110603019Y-38000044D01*
X110795794Y-37871236D01*
X110959736Y-37707294D01*
X111088544Y-37514519D01*
X111132251Y-37409000D01*
X111490011Y-37409000D01*
X111505438Y-37486558D01*
X111560241Y-37618864D01*
X111639802Y-37737936D01*
X111741064Y-37839198D01*
X111860136Y-37918759D01*
X111992442Y-37973562D01*
X112132897Y-38001500D01*
X112276103Y-38001500D01*
X112416558Y-37973562D01*
X112548864Y-37918759D01*
X112667936Y-37839198D01*
X112769198Y-37737936D01*
X112848759Y-37618864D01*
X112903562Y-37486558D01*
X112931500Y-37346103D01*
X112931500Y-37202897D01*
X112903562Y-37062442D01*
X112848759Y-36930136D01*
X112769198Y-36811064D01*
X112667936Y-36709802D01*
X112548864Y-36630241D01*
X112416558Y-36575438D01*
X112276103Y-36547500D01*
X112132897Y-36547500D01*
X112094151Y-36555207D01*
X112060810Y-36537386D01*
X111975607Y-36511540D01*
X111909205Y-36505000D01*
X111887000Y-36502813D01*
X111864795Y-36505000D01*
X111132251Y-36505000D01*
X111088544Y-36399481D01*
X110959736Y-36206706D01*
X110795794Y-36042764D01*
X110603019Y-35913956D01*
X110388818Y-35825231D01*
X110161424Y-35780000D01*
X109929576Y-35780000D01*
X109702182Y-35825231D01*
X109487981Y-35913956D01*
X109295206Y-36042764D01*
X109131264Y-36206706D01*
X109002456Y-36399481D01*
X108913731Y-36613682D01*
X108868500Y-36841076D01*
X71755000Y-36841076D01*
X71755000Y-34428076D01*
X73920000Y-34428076D01*
X73920000Y-34659924D01*
X73965231Y-34887318D01*
X74053956Y-35101519D01*
X74182764Y-35294294D01*
X74346706Y-35458236D01*
X74539481Y-35587044D01*
X74753682Y-35675769D01*
X74981076Y-35721000D01*
X75212924Y-35721000D01*
X75440318Y-35675769D01*
X75654519Y-35587044D01*
X75847294Y-35458236D01*
X76011236Y-35294294D01*
X76140044Y-35101519D01*
X76228769Y-34887318D01*
X76274000Y-34659924D01*
X76274000Y-34428076D01*
X80920000Y-34428076D01*
X80920000Y-34659924D01*
X80965231Y-34887318D01*
X81053956Y-35101519D01*
X81182764Y-35294294D01*
X81346706Y-35458236D01*
X81539481Y-35587044D01*
X81753682Y-35675769D01*
X81981076Y-35721000D01*
X82212924Y-35721000D01*
X82440318Y-35675769D01*
X82654519Y-35587044D01*
X82847294Y-35458236D01*
X83011236Y-35294294D01*
X83140044Y-35101519D01*
X83228769Y-34887318D01*
X83274000Y-34659924D01*
X83274000Y-34428076D01*
X83228769Y-34200682D01*
X83140044Y-33986481D01*
X83011236Y-33793706D01*
X82847294Y-33629764D01*
X82753361Y-33567000D01*
X108866918Y-33567000D01*
X108866918Y-35267000D01*
X108873232Y-35331103D01*
X108891930Y-35392743D01*
X108922294Y-35449550D01*
X108963157Y-35499343D01*
X109012950Y-35540206D01*
X109069757Y-35570570D01*
X109131397Y-35589268D01*
X109195500Y-35595582D01*
X110895500Y-35595582D01*
X110959603Y-35589268D01*
X111021243Y-35570570D01*
X111078050Y-35540206D01*
X111127843Y-35499343D01*
X111168706Y-35449550D01*
X111199070Y-35392743D01*
X111217768Y-35331103D01*
X111224082Y-35267000D01*
X111224082Y-34869000D01*
X114112777Y-34869000D01*
X114909183Y-35665407D01*
X114906500Y-35678897D01*
X114906500Y-35822103D01*
X114934438Y-35962558D01*
X114989241Y-36094864D01*
X115068802Y-36213936D01*
X115170064Y-36315198D01*
X115289136Y-36394759D01*
X115421442Y-36449562D01*
X115561897Y-36477500D01*
X115705103Y-36477500D01*
X115845558Y-36449562D01*
X115977864Y-36394759D01*
X116096936Y-36315198D01*
X116198198Y-36213936D01*
X116277759Y-36094864D01*
X116332562Y-35962558D01*
X116360500Y-35822103D01*
X116360500Y-35678897D01*
X116332562Y-35538442D01*
X116277759Y-35406136D01*
X116198198Y-35287064D01*
X116096936Y-35185802D01*
X115977864Y-35106241D01*
X115845558Y-35051438D01*
X115705103Y-35023500D01*
X115561897Y-35023500D01*
X115548407Y-35026183D01*
X114635323Y-34113100D01*
X114621159Y-34095841D01*
X114552333Y-34039357D01*
X114473810Y-33997386D01*
X114388607Y-33971540D01*
X114322205Y-33965000D01*
X114300000Y-33962813D01*
X114277795Y-33965000D01*
X111224082Y-33965000D01*
X111224082Y-33567000D01*
X111217768Y-33502897D01*
X111199070Y-33441257D01*
X111168706Y-33384450D01*
X111127843Y-33334657D01*
X111078050Y-33293794D01*
X111021243Y-33263430D01*
X110959603Y-33244732D01*
X110895500Y-33238418D01*
X109195500Y-33238418D01*
X109131397Y-33244732D01*
X109069757Y-33263430D01*
X109012950Y-33293794D01*
X108963157Y-33334657D01*
X108922294Y-33384450D01*
X108891930Y-33441257D01*
X108873232Y-33502897D01*
X108866918Y-33567000D01*
X82753361Y-33567000D01*
X82654519Y-33500956D01*
X82440318Y-33412231D01*
X82212924Y-33367000D01*
X81981076Y-33367000D01*
X81753682Y-33412231D01*
X81539481Y-33500956D01*
X81346706Y-33629764D01*
X81182764Y-33793706D01*
X81053956Y-33986481D01*
X80965231Y-34200682D01*
X80920000Y-34428076D01*
X76274000Y-34428076D01*
X76228769Y-34200682D01*
X76140044Y-33986481D01*
X76011236Y-33793706D01*
X75847294Y-33629764D01*
X75654519Y-33500956D01*
X75440318Y-33412231D01*
X75212924Y-33367000D01*
X74981076Y-33367000D01*
X74753682Y-33412231D01*
X74539481Y-33500956D01*
X74346706Y-33629764D01*
X74182764Y-33793706D01*
X74053956Y-33986481D01*
X73965231Y-34200682D01*
X73920000Y-34428076D01*
X71755000Y-34428076D01*
X71755000Y-31154000D01*
X87467418Y-31154000D01*
X87467418Y-32854000D01*
X87473732Y-32918103D01*
X87492430Y-32979743D01*
X87522794Y-33036550D01*
X87563657Y-33086343D01*
X87613450Y-33127206D01*
X87670257Y-33157570D01*
X87731897Y-33176268D01*
X87796000Y-33182582D01*
X89496000Y-33182582D01*
X89560103Y-33176268D01*
X89621743Y-33157570D01*
X89678550Y-33127206D01*
X89728343Y-33086343D01*
X89769206Y-33036550D01*
X89799570Y-32979743D01*
X89818268Y-32918103D01*
X89824582Y-32854000D01*
X89824582Y-32586592D01*
X89841843Y-32635252D01*
X89990822Y-32885355D01*
X90185731Y-33101588D01*
X90419080Y-33275641D01*
X90681901Y-33400825D01*
X90829110Y-33445476D01*
X91059000Y-33324155D01*
X91059000Y-32131000D01*
X91313000Y-32131000D01*
X91313000Y-33324155D01*
X91542890Y-33445476D01*
X91690099Y-33400825D01*
X91952920Y-33275641D01*
X92186269Y-33101588D01*
X92381178Y-32885355D01*
X92530157Y-32635252D01*
X92627481Y-32360891D01*
X92506814Y-32131000D01*
X91313000Y-32131000D01*
X91059000Y-32131000D01*
X91039000Y-32131000D01*
X91039000Y-31877000D01*
X91059000Y-31877000D01*
X91059000Y-30683845D01*
X91313000Y-30683845D01*
X91313000Y-31877000D01*
X92506814Y-31877000D01*
X92627481Y-31647109D01*
X92530157Y-31372748D01*
X92381178Y-31122645D01*
X92186269Y-30906412D01*
X91952920Y-30732359D01*
X91806037Y-30662397D01*
X113700000Y-30662397D01*
X113700000Y-30805603D01*
X113727938Y-30946058D01*
X113782741Y-31078364D01*
X113862302Y-31197436D01*
X113963564Y-31298698D01*
X114082636Y-31378259D01*
X114214942Y-31433062D01*
X114355397Y-31461000D01*
X114498603Y-31461000D01*
X114639058Y-31433062D01*
X114771364Y-31378259D01*
X114890436Y-31298698D01*
X114991698Y-31197436D01*
X115071259Y-31078364D01*
X115126062Y-30946058D01*
X115154000Y-30805603D01*
X115154000Y-30662397D01*
X115145656Y-30620447D01*
X116090744Y-29593178D01*
X116103107Y-29591960D01*
X116188310Y-29566114D01*
X116266833Y-29524143D01*
X116335659Y-29467659D01*
X116349823Y-29450400D01*
X120381705Y-25418520D01*
X139711477Y-25418520D01*
X141078481Y-26785526D01*
X141078480Y-32743220D01*
X134242019Y-39579682D01*
X134242013Y-39579687D01*
X133906017Y-39915684D01*
X133892527Y-39913001D01*
X133749321Y-39913001D01*
X133608866Y-39940939D01*
X133476560Y-39995742D01*
X133357488Y-40075303D01*
X133256226Y-40176565D01*
X133176665Y-40295637D01*
X133121862Y-40427943D01*
X133093924Y-40568398D01*
X133093924Y-40711604D01*
X133121862Y-40852059D01*
X133176665Y-40984365D01*
X133256226Y-41103437D01*
X133357488Y-41204699D01*
X133476560Y-41284260D01*
X133608866Y-41339063D01*
X133749321Y-41367001D01*
X133892527Y-41367001D01*
X134032982Y-41339063D01*
X134147000Y-41291835D01*
X134147000Y-41346603D01*
X134174938Y-41487058D01*
X134229741Y-41619364D01*
X134309302Y-41738436D01*
X134410564Y-41839698D01*
X134529636Y-41919259D01*
X134661942Y-41974062D01*
X134802397Y-42002000D01*
X134945603Y-42002000D01*
X135086058Y-41974062D01*
X135218364Y-41919259D01*
X135337436Y-41839698D01*
X135438698Y-41738436D01*
X135518259Y-41619364D01*
X135573062Y-41487058D01*
X135601000Y-41346603D01*
X135601000Y-41220016D01*
X135669929Y-41248567D01*
X135810384Y-41276505D01*
X135953590Y-41276505D01*
X136094045Y-41248567D01*
X136226351Y-41193764D01*
X136345423Y-41114203D01*
X136446685Y-41012941D01*
X136526246Y-40893869D01*
X136581049Y-40761563D01*
X136607244Y-40629867D01*
X145351972Y-40629867D01*
X146111500Y-41389395D01*
X146871028Y-40629867D01*
X146808535Y-40393550D01*
X146565822Y-40280150D01*
X146448672Y-40251391D01*
X147268038Y-40251391D01*
X147392769Y-40442000D01*
X148684500Y-40442000D01*
X148684500Y-39334000D01*
X148334500Y-39334000D01*
X148096004Y-39382507D01*
X147871554Y-39476610D01*
X147669775Y-39612693D01*
X147498422Y-39785526D01*
X147364079Y-39988467D01*
X147271909Y-40213718D01*
X147268038Y-40251391D01*
X146448672Y-40251391D01*
X146305651Y-40216281D01*
X146038018Y-40204396D01*
X145773209Y-40244952D01*
X145521400Y-40336391D01*
X145414465Y-40393550D01*
X145351972Y-40629867D01*
X136607244Y-40629867D01*
X136608987Y-40621108D01*
X136608987Y-40477902D01*
X136606689Y-40466347D01*
X136659629Y-40401839D01*
X136701600Y-40323316D01*
X136719047Y-40265802D01*
X136727446Y-40238114D01*
X136736173Y-40149507D01*
X136733986Y-40127302D01*
X136733986Y-39638981D01*
X142734406Y-33638562D01*
X142751659Y-33624403D01*
X142808143Y-33555577D01*
X142850114Y-33477054D01*
X142875960Y-33391851D01*
X142882500Y-33325449D01*
X142882500Y-33325448D01*
X142884687Y-33303244D01*
X142882500Y-33281039D01*
X142882500Y-27054481D01*
X144829124Y-27054481D01*
X145141308Y-27503177D01*
X145737259Y-27823612D01*
X146384273Y-28021626D01*
X147057484Y-28089610D01*
X147731023Y-28024949D01*
X148379006Y-27830130D01*
X148976530Y-27512639D01*
X148990692Y-27503177D01*
X149302876Y-27054481D01*
X147066000Y-24817605D01*
X144829124Y-27054481D01*
X142882500Y-27054481D01*
X142882500Y-26247704D01*
X142884687Y-26225499D01*
X142875960Y-26136892D01*
X142850114Y-26051690D01*
X142815086Y-25986157D01*
X142808143Y-25973167D01*
X142751659Y-25904341D01*
X142734411Y-25890186D01*
X141473708Y-24629484D01*
X143614390Y-24629484D01*
X143679051Y-25303023D01*
X143873870Y-25951006D01*
X144191361Y-26548530D01*
X144200823Y-26562692D01*
X144649519Y-26874876D01*
X146886395Y-24638000D01*
X144649519Y-22401124D01*
X144200823Y-22713308D01*
X143880388Y-23309259D01*
X143682374Y-23956273D01*
X143614390Y-24629484D01*
X141473708Y-24629484D01*
X140606823Y-23762600D01*
X140592659Y-23745341D01*
X140523833Y-23688857D01*
X140445310Y-23646886D01*
X140360107Y-23621040D01*
X140293705Y-23614500D01*
X140271500Y-23612313D01*
X140249295Y-23614500D01*
X118957704Y-23614500D01*
X118935499Y-23612313D01*
X118846892Y-23621040D01*
X118764327Y-23646086D01*
X118761690Y-23646886D01*
X118683167Y-23688857D01*
X118614341Y-23745341D01*
X118600186Y-23762589D01*
X115456599Y-26906178D01*
X115456588Y-26906187D01*
X115020093Y-27342683D01*
X115006603Y-27340000D01*
X114863397Y-27340000D01*
X114722942Y-27367938D01*
X114590636Y-27422741D01*
X114471564Y-27502302D01*
X114370302Y-27603564D01*
X114290741Y-27722636D01*
X114235938Y-27854942D01*
X114208000Y-27995397D01*
X114208000Y-28138603D01*
X114235938Y-28279058D01*
X114290741Y-28411364D01*
X114370302Y-28530436D01*
X114455263Y-28615397D01*
X114341942Y-28637938D01*
X114209636Y-28692741D01*
X114090564Y-28772302D01*
X113989302Y-28873564D01*
X113909741Y-28992636D01*
X113854938Y-29124942D01*
X113827000Y-29265397D01*
X113827000Y-29408603D01*
X113854938Y-29549058D01*
X113909741Y-29681364D01*
X113989302Y-29800436D01*
X114090564Y-29901698D01*
X114209636Y-29981259D01*
X114298907Y-30018236D01*
X114214942Y-30034938D01*
X114082636Y-30089741D01*
X113963564Y-30169302D01*
X113862302Y-30270564D01*
X113782741Y-30389636D01*
X113727938Y-30521942D01*
X113700000Y-30662397D01*
X91806037Y-30662397D01*
X91690099Y-30607175D01*
X91542890Y-30562524D01*
X91313000Y-30683845D01*
X91059000Y-30683845D01*
X90829110Y-30562524D01*
X90681901Y-30607175D01*
X90419080Y-30732359D01*
X90185731Y-30906412D01*
X89990822Y-31122645D01*
X89841843Y-31372748D01*
X89824582Y-31421408D01*
X89824582Y-31154000D01*
X89818268Y-31089897D01*
X89799570Y-31028257D01*
X89769206Y-30971450D01*
X89728343Y-30921657D01*
X89678550Y-30880794D01*
X89621743Y-30850430D01*
X89560103Y-30831732D01*
X89496000Y-30825418D01*
X87796000Y-30825418D01*
X87731897Y-30831732D01*
X87670257Y-30850430D01*
X87613450Y-30880794D01*
X87563657Y-30921657D01*
X87522794Y-30971450D01*
X87492430Y-31028257D01*
X87473732Y-31089897D01*
X87467418Y-31154000D01*
X71755000Y-31154000D01*
X71755000Y-27054481D01*
X72439124Y-27054481D01*
X72751308Y-27503177D01*
X73347259Y-27823612D01*
X73994273Y-28021626D01*
X74667484Y-28089610D01*
X75341023Y-28024949D01*
X75989006Y-27830130D01*
X76586530Y-27512639D01*
X76600692Y-27503177D01*
X76912876Y-27054481D01*
X74676000Y-24817605D01*
X72439124Y-27054481D01*
X71755000Y-27054481D01*
X71755000Y-26461278D01*
X71801361Y-26548530D01*
X71810823Y-26562692D01*
X72259519Y-26874876D01*
X74496395Y-24638000D01*
X74855605Y-24638000D01*
X77092481Y-26874876D01*
X77541177Y-26562692D01*
X77861612Y-25966741D01*
X78059626Y-25319727D01*
X78127610Y-24646516D01*
X78062949Y-23972977D01*
X77868130Y-23324994D01*
X77550639Y-22727470D01*
X77541177Y-22713308D01*
X77092481Y-22401124D01*
X74855605Y-24638000D01*
X74496395Y-24638000D01*
X74482253Y-24623858D01*
X74661858Y-24444253D01*
X74676000Y-24458395D01*
X76912876Y-22221519D01*
X76600692Y-21772823D01*
X76496872Y-21717000D01*
X145242722Y-21717000D01*
X145155470Y-21763361D01*
G37*
X145155470Y-21763361D02*
X145141308Y-21772823D01*
X144829124Y-22221519D01*
X147066000Y-24458395D01*
X147080143Y-24444253D01*
X147259748Y-24623858D01*
X147245605Y-24638000D01*
X149482481Y-26874876D01*
X149931177Y-26562692D01*
X149987000Y-26458872D01*
X149987000Y-39646760D01*
X149953225Y-39612693D01*
X149751446Y-39476610D01*
X149526996Y-39382507D01*
X149288500Y-39334000D01*
X148938500Y-39334000D01*
X148938500Y-40442000D01*
X148958500Y-40442000D01*
X148958500Y-40696000D01*
X148938500Y-40696000D01*
X148938500Y-41804000D01*
X149288500Y-41804000D01*
X149526996Y-41755493D01*
X149751446Y-41661390D01*
X149953225Y-41525307D01*
X149987000Y-41491240D01*
X149987000Y-46646760D01*
X149953225Y-46612693D01*
X149751446Y-46476610D01*
X149526996Y-46382507D01*
X149288500Y-46334000D01*
X148938500Y-46334000D01*
X148938500Y-47442000D01*
X148958500Y-47442000D01*
X148958500Y-47696000D01*
X148938500Y-47696000D01*
X148938500Y-48804000D01*
X149288500Y-48804000D01*
X149526996Y-48755493D01*
X149751446Y-48661390D01*
X149953225Y-48525307D01*
X149987000Y-48491240D01*
X149987000Y-76916722D01*
X149940639Y-76829470D01*
X149931177Y-76815308D01*
X149482481Y-76503124D01*
X147245605Y-78740000D01*
X147259748Y-78754143D01*
X147080143Y-78933748D01*
X147066000Y-78919605D01*
X144829124Y-81156481D01*
X145141308Y-81605177D01*
X145245128Y-81661000D01*
X76499278Y-81661000D01*
X76586530Y-81614639D01*
X76600692Y-81605177D01*
X76912876Y-81156481D01*
X74676000Y-78919605D01*
X74661858Y-78933748D01*
X74482253Y-78754143D01*
X74496395Y-78740000D01*
X74855605Y-78740000D01*
X77092481Y-80976876D01*
X77541177Y-80664692D01*
X77861612Y-80068741D01*
X78059626Y-79421727D01*
X78127610Y-78748516D01*
X78125975Y-78731484D01*
X143614390Y-78731484D01*
X143679051Y-79405023D01*
X143873870Y-80053006D01*
X144191361Y-80650530D01*
X144200823Y-80664692D01*
X144649519Y-80976876D01*
X146886395Y-78740000D01*
X144649519Y-76503124D01*
X144200823Y-76815308D01*
X143880388Y-77411259D01*
X143682374Y-78058273D01*
X143614390Y-78731484D01*
X78125975Y-78731484D01*
X78062949Y-78074977D01*
X77868130Y-77426994D01*
X77550639Y-76829470D01*
X77541177Y-76815308D01*
X77092481Y-76503124D01*
X74855605Y-78740000D01*
X74496395Y-78740000D01*
X72259519Y-76503124D01*
X71810823Y-76815308D01*
X71755000Y-76919128D01*
X71755000Y-76323519D01*
X72439124Y-76323519D01*
X74676000Y-78560395D01*
X76912876Y-76323519D01*
X144829124Y-76323519D01*
X147066000Y-78560395D01*
X149302876Y-76323519D01*
X148990692Y-75874823D01*
X148394741Y-75554388D01*
X147747727Y-75356374D01*
X147074516Y-75288390D01*
X146400977Y-75353051D01*
X145752994Y-75547870D01*
X145155470Y-75865361D01*
X145141308Y-75874823D01*
X144829124Y-76323519D01*
X76912876Y-76323519D01*
X76600692Y-75874823D01*
X76004741Y-75554388D01*
X75357727Y-75356374D01*
X74684516Y-75288390D01*
X74010977Y-75353051D01*
X73362994Y-75547870D01*
X72765470Y-75865361D01*
X72751308Y-75874823D01*
X72439124Y-76323519D01*
X71755000Y-76323519D01*
X71755000Y-63746001D01*
X73467812Y-63746001D01*
X73469999Y-63768206D01*
X73470000Y-66406784D01*
X73467812Y-66428999D01*
X73476539Y-66517606D01*
X73502385Y-66602808D01*
X73502386Y-66602809D01*
X73544357Y-66681332D01*
X73600841Y-66750158D01*
X73618095Y-66764318D01*
X74467681Y-67613905D01*
X74481841Y-67631159D01*
X74550667Y-67687643D01*
X74629190Y-67729614D01*
X74662892Y-67739837D01*
X74539481Y-67790956D01*
X74346706Y-67919764D01*
X74182764Y-68083706D01*
X74053956Y-68276481D01*
X73965231Y-68490682D01*
X73920000Y-68718076D01*
X73920000Y-68949924D01*
X73965231Y-69177318D01*
X74053956Y-69391519D01*
X74182764Y-69584294D01*
X74346706Y-69748236D01*
X74539481Y-69877044D01*
X74753682Y-69965769D01*
X74981076Y-70011000D01*
X75212924Y-70011000D01*
X75440318Y-69965769D01*
X75654519Y-69877044D01*
X75847294Y-69748236D01*
X76011236Y-69584294D01*
X76140044Y-69391519D01*
X76228769Y-69177318D01*
X76274000Y-68949924D01*
X76274000Y-68718076D01*
X76228769Y-68490682D01*
X76140044Y-68276481D01*
X76011236Y-68083706D01*
X75847294Y-67919764D01*
X75654519Y-67790956D01*
X75584613Y-67762000D01*
X75885777Y-67762000D01*
X78531681Y-70407905D01*
X78545841Y-70425159D01*
X78614667Y-70481643D01*
X78693190Y-70523614D01*
X78778392Y-70549460D01*
X78867000Y-70558187D01*
X78889205Y-70556000D01*
X82739661Y-70556000D01*
X82747302Y-70567436D01*
X82848564Y-70668698D01*
X82967636Y-70748259D01*
X83099942Y-70803062D01*
X83240397Y-70831000D01*
X83383603Y-70831000D01*
X83524058Y-70803062D01*
X83656364Y-70748259D01*
X83775436Y-70668698D01*
X83876698Y-70567436D01*
X83956259Y-70448364D01*
X84011062Y-70316058D01*
X84039000Y-70175603D01*
X84039000Y-70032397D01*
X84011062Y-69891942D01*
X83956259Y-69759636D01*
X83876698Y-69640564D01*
X83775436Y-69539302D01*
X83656364Y-69459741D01*
X83524058Y-69404938D01*
X83383603Y-69377000D01*
X83240397Y-69377000D01*
X83135850Y-69397795D01*
X83140044Y-69391519D01*
X83228769Y-69177318D01*
X83274000Y-68949924D01*
X83274000Y-68718076D01*
X83228769Y-68490682D01*
X83140044Y-68276481D01*
X83011236Y-68083706D01*
X82847294Y-67919764D01*
X82654519Y-67790956D01*
X82440318Y-67702231D01*
X82212924Y-67657000D01*
X81981076Y-67657000D01*
X81753682Y-67702231D01*
X81539481Y-67790956D01*
X81346706Y-67919764D01*
X81182764Y-68083706D01*
X81053956Y-68276481D01*
X80965231Y-68490682D01*
X80920000Y-68718076D01*
X80920000Y-68949924D01*
X80965231Y-69177318D01*
X81053956Y-69391519D01*
X81182764Y-69584294D01*
X81250470Y-69652000D01*
X79054224Y-69652000D01*
X76408323Y-67006100D01*
X76394159Y-66988841D01*
X76325333Y-66932357D01*
X76246810Y-66890386D01*
X76161607Y-66864540D01*
X76095205Y-66858000D01*
X76073000Y-66855813D01*
X76050795Y-66858000D01*
X74990224Y-66858000D01*
X74592224Y-66460000D01*
X100675418Y-66460000D01*
X100675418Y-68160000D01*
X100681732Y-68224103D01*
X100700430Y-68285743D01*
X100730794Y-68342550D01*
X100771657Y-68392343D01*
X100821450Y-68433206D01*
X100878257Y-68463570D01*
X100939897Y-68482268D01*
X101004000Y-68488582D01*
X101407553Y-68488582D01*
X101408540Y-68498606D01*
X101434386Y-68583809D01*
X101476357Y-68662332D01*
X101532841Y-68731159D01*
X101550100Y-68745323D01*
X102513690Y-69708914D01*
X102527842Y-69726159D01*
X102545094Y-69740318D01*
X102545099Y-69740323D01*
X102566388Y-69757795D01*
X102596667Y-69782645D01*
X102596671Y-69782647D01*
X102596677Y-69782652D01*
X102659468Y-69816215D01*
X102675188Y-69824618D01*
X102675200Y-69824624D01*
X102749748Y-69847238D01*
X102760391Y-69850467D01*
X102760393Y-69850467D01*
X102760402Y-69850470D01*
X102819121Y-69856253D01*
X102826792Y-69857009D01*
X102826795Y-69857009D01*
X102849010Y-69859197D01*
X102871212Y-69857010D01*
X119675282Y-69857499D01*
X119675295Y-69857500D01*
X120906297Y-69857500D01*
X120928502Y-69859687D01*
X120950707Y-69857500D01*
X121017109Y-69850960D01*
X121102312Y-69825114D01*
X121180835Y-69783143D01*
X121249661Y-69726659D01*
X121263825Y-69709400D01*
X128991395Y-61981832D01*
X129064315Y-62070685D01*
X129161006Y-62150037D01*
X129271320Y-62209002D01*
X129391018Y-62245312D01*
X129515500Y-62257572D01*
X130079750Y-62254500D01*
X130238500Y-62095750D01*
X130238500Y-60896500D01*
X130492500Y-60896500D01*
X130492500Y-62095750D01*
X130651250Y-62254500D01*
X131215500Y-62257572D01*
X131339982Y-62245312D01*
X131459680Y-62209002D01*
X131569994Y-62150037D01*
X131666685Y-62070685D01*
X131746037Y-61973994D01*
X131805002Y-61863680D01*
X131841312Y-61743982D01*
X131853572Y-61619500D01*
X131850500Y-61055250D01*
X131691750Y-60896500D01*
X130492500Y-60896500D01*
X130238500Y-60896500D01*
X130218500Y-60896500D01*
X130218500Y-60642500D01*
X130238500Y-60642500D01*
X130238500Y-59443250D01*
X130492500Y-59443250D01*
X130492500Y-60642500D01*
X131691750Y-60642500D01*
X131850500Y-60483750D01*
X131853572Y-59919500D01*
X131841312Y-59795018D01*
X131805002Y-59675320D01*
X131746037Y-59565006D01*
X131666685Y-59468315D01*
X131569994Y-59388963D01*
X131459680Y-59329998D01*
X131339982Y-59293688D01*
X131215500Y-59281428D01*
X130651250Y-59284500D01*
X130492500Y-59443250D01*
X130238500Y-59443250D01*
X130079750Y-59284500D01*
X129642499Y-59282119D01*
X129642499Y-51971724D01*
X130485319Y-51128905D01*
X130492069Y-51122898D01*
X130500985Y-51113239D01*
X130510313Y-51103911D01*
X130516064Y-51096904D01*
X131643053Y-49876000D01*
X131770603Y-49876000D01*
X131911058Y-49848062D01*
X132043364Y-49793259D01*
X132162436Y-49713698D01*
X132263698Y-49612436D01*
X132343259Y-49493364D01*
X132389698Y-49381250D01*
X134645447Y-51636999D01*
X134317952Y-51964495D01*
X134286394Y-51990394D01*
X134260498Y-52021949D01*
X134183048Y-52116321D01*
X134147188Y-52183411D01*
X134106255Y-52259991D01*
X134058966Y-52415881D01*
X134047000Y-52537377D01*
X134047000Y-52537386D01*
X134043000Y-52578000D01*
X134047000Y-52618614D01*
X134047000Y-52871704D01*
X133701802Y-53493062D01*
X133522112Y-53529000D01*
X131277376Y-53529000D01*
X131155880Y-53540966D01*
X130999990Y-53588255D01*
X130856321Y-53665048D01*
X130730394Y-53768394D01*
X130627048Y-53894321D01*
X130550255Y-54037990D01*
X130502966Y-54193880D01*
X130486999Y-54356000D01*
X130502966Y-54518120D01*
X130550255Y-54674010D01*
X130627048Y-54817679D01*
X130730394Y-54943606D01*
X130856321Y-55046952D01*
X130999990Y-55123745D01*
X131155880Y-55171034D01*
X131277376Y-55183000D01*
X133261447Y-55183000D01*
X134260500Y-56182054D01*
X134286394Y-56213606D01*
X134317947Y-56239501D01*
X134317948Y-56239502D01*
X134412319Y-56316952D01*
X134494646Y-56360956D01*
X134555990Y-56393745D01*
X134711880Y-56441034D01*
X134874000Y-56457001D01*
X135036119Y-56441034D01*
X135192009Y-56393745D01*
X135268462Y-56352880D01*
X135335679Y-56316952D01*
X135461606Y-56213606D01*
X135564952Y-56087679D01*
X135605136Y-56012500D01*
X135641745Y-55944010D01*
X135689034Y-55788120D01*
X135701000Y-55666624D01*
X135701000Y-55666613D01*
X135705000Y-55625999D01*
X135701000Y-55585385D01*
X135701000Y-54015623D01*
X135705001Y-53975000D01*
X135701000Y-53934376D01*
X135701000Y-53092636D01*
X135702211Y-53017976D01*
X135701000Y-53011326D01*
X135701000Y-52920553D01*
X136319054Y-52302500D01*
X136350606Y-52276606D01*
X136376505Y-52245048D01*
X137265502Y-51356052D01*
X137342952Y-51261680D01*
X137419744Y-51118011D01*
X137467033Y-50962121D01*
X137483000Y-50800000D01*
X137467033Y-50637880D01*
X137419744Y-50481990D01*
X137342952Y-50338320D01*
X137239606Y-50212394D01*
X137113680Y-50109048D01*
X136970010Y-50032256D01*
X136814120Y-49984967D01*
X136652000Y-49969000D01*
X136489879Y-49984967D01*
X136333989Y-50032256D01*
X136190320Y-50109048D01*
X136095948Y-50186498D01*
X135815001Y-50467445D01*
X131956556Y-46609000D01*
X139631000Y-46609000D01*
X139635000Y-46649614D01*
X139635000Y-46649624D01*
X139646966Y-46771120D01*
X139688274Y-46907291D01*
X139694256Y-46927010D01*
X139771048Y-47070679D01*
X139848498Y-47165051D01*
X139874395Y-47196606D01*
X139905948Y-47222501D01*
X140905000Y-48221554D01*
X140905001Y-52618624D01*
X140916967Y-52740120D01*
X140964256Y-52896010D01*
X141041049Y-53039679D01*
X141144395Y-53165606D01*
X141270322Y-53268952D01*
X141413991Y-53345745D01*
X141569881Y-53393034D01*
X141732000Y-53409001D01*
X141894120Y-53393034D01*
X142050010Y-53345745D01*
X142193679Y-53268952D01*
X142319606Y-53165606D01*
X142422952Y-53039679D01*
X142499745Y-52896010D01*
X142547034Y-52740120D01*
X142559000Y-52618624D01*
X142559000Y-47919613D01*
X142563000Y-47878999D01*
X142559000Y-47838385D01*
X142559000Y-47838376D01*
X142547034Y-47716880D01*
X142499745Y-47560990D01*
X142471493Y-47508133D01*
X145351972Y-47508133D01*
X145414465Y-47744450D01*
X145657178Y-47857850D01*
X145917349Y-47921719D01*
X146184982Y-47933604D01*
X146449791Y-47893048D01*
X146467523Y-47886609D01*
X147268038Y-47886609D01*
X147271909Y-47924282D01*
X147364079Y-48149533D01*
X147498422Y-48352474D01*
X147669775Y-48525307D01*
X147871554Y-48661390D01*
X148096004Y-48755493D01*
X148334500Y-48804000D01*
X148684500Y-48804000D01*
X148684500Y-47696000D01*
X147392769Y-47696000D01*
X147268038Y-47886609D01*
X146467523Y-47886609D01*
X146701600Y-47801609D01*
X146808535Y-47744450D01*
X146871028Y-47508133D01*
X146111500Y-46748605D01*
X145351972Y-47508133D01*
X142471493Y-47508133D01*
X142471254Y-47507687D01*
X142422952Y-47417319D01*
X142345502Y-47322948D01*
X142345501Y-47322947D01*
X142319606Y-47291394D01*
X142288054Y-47265500D01*
X141665036Y-46642482D01*
X144746896Y-46642482D01*
X144787452Y-46907291D01*
X144878891Y-47159100D01*
X144936050Y-47266035D01*
X145172367Y-47328528D01*
X145931895Y-46569000D01*
X146291105Y-46569000D01*
X147050633Y-47328528D01*
X147278997Y-47268138D01*
X147392769Y-47442000D01*
X148684500Y-47442000D01*
X148684500Y-46334000D01*
X148334500Y-46334000D01*
X148096004Y-46382507D01*
X147871554Y-46476610D01*
X147669775Y-46612693D01*
X147498422Y-46785526D01*
X147435329Y-46880836D01*
X147464219Y-46763151D01*
X147476104Y-46495518D01*
X147435548Y-46230709D01*
X147344109Y-45978900D01*
X147286950Y-45871965D01*
X147050633Y-45809472D01*
X146291105Y-46569000D01*
X145931895Y-46569000D01*
X145172367Y-45809472D01*
X144936050Y-45871965D01*
X144822650Y-46114678D01*
X144758781Y-46374849D01*
X144746896Y-46642482D01*
X141665036Y-46642482D01*
X141289000Y-46266447D01*
X141289000Y-45933376D01*
X141277034Y-45811880D01*
X141229745Y-45655990D01*
X141215782Y-45629867D01*
X145351972Y-45629867D01*
X146111500Y-46389395D01*
X146871028Y-45629867D01*
X146808535Y-45393550D01*
X146565822Y-45280150D01*
X146305651Y-45216281D01*
X146038018Y-45204396D01*
X145773209Y-45244952D01*
X145521400Y-45336391D01*
X145414465Y-45393550D01*
X145351972Y-45629867D01*
X141215782Y-45629867D01*
X141152952Y-45512321D01*
X141049606Y-45386394D01*
X140923678Y-45283048D01*
X140780009Y-45206255D01*
X140624119Y-45158966D01*
X140462000Y-45142999D01*
X140299880Y-45158966D01*
X140143990Y-45206255D01*
X140000321Y-45283048D01*
X139874394Y-45386394D01*
X139771048Y-45512322D01*
X139694255Y-45655991D01*
X139646966Y-45811881D01*
X139635000Y-45933377D01*
X139635000Y-46568386D01*
X139631000Y-46609000D01*
X131956556Y-46609000D01*
X128276256Y-42928700D01*
X138460491Y-42928700D01*
X138460491Y-43071906D01*
X138488429Y-43212361D01*
X138543232Y-43344667D01*
X138622793Y-43463739D01*
X138724055Y-43565001D01*
X138843127Y-43644562D01*
X138975433Y-43699365D01*
X139115888Y-43727303D01*
X139259094Y-43727303D01*
X139272584Y-43724620D01*
X140243879Y-44695915D01*
X140258039Y-44713169D01*
X140326865Y-44769653D01*
X140378028Y-44797000D01*
X140405388Y-44811624D01*
X140490590Y-44837470D01*
X140579198Y-44846197D01*
X140601403Y-44844010D01*
X143772787Y-44844010D01*
X143876677Y-44947900D01*
X143890841Y-44965159D01*
X143959667Y-45021643D01*
X144030987Y-45059764D01*
X144038190Y-45063614D01*
X144123392Y-45089460D01*
X144208919Y-45097884D01*
X144215302Y-45107436D01*
X144316564Y-45208698D01*
X144435636Y-45288259D01*
X144567942Y-45343062D01*
X144708397Y-45371000D01*
X144851603Y-45371000D01*
X144992058Y-45343062D01*
X145124364Y-45288259D01*
X145243436Y-45208698D01*
X145344698Y-45107436D01*
X145424259Y-44988364D01*
X145479062Y-44856058D01*
X145507000Y-44715603D01*
X145507000Y-44572397D01*
X145479062Y-44431942D01*
X145424259Y-44299636D01*
X145344698Y-44180564D01*
X145308133Y-44143999D01*
X145344698Y-44107433D01*
X145424259Y-43988361D01*
X145479062Y-43856055D01*
X145507000Y-43715600D01*
X145507000Y-43572394D01*
X145479062Y-43431939D01*
X145424259Y-43299633D01*
X145344698Y-43180561D01*
X145243436Y-43079299D01*
X145124364Y-42999738D01*
X144992058Y-42944935D01*
X144851603Y-42916997D01*
X144708397Y-42916997D01*
X144567942Y-42944935D01*
X144435636Y-42999738D01*
X144316564Y-43079299D01*
X144215302Y-43180561D01*
X144208756Y-43190357D01*
X144125707Y-43198537D01*
X144080136Y-43212361D01*
X144040505Y-43224383D01*
X143961982Y-43266354D01*
X143893156Y-43322838D01*
X143878992Y-43340097D01*
X143729089Y-43490000D01*
X141375162Y-43490000D01*
X140393295Y-42508133D01*
X145351972Y-42508133D01*
X145414465Y-42744450D01*
X145657178Y-42857850D01*
X145917349Y-42921719D01*
X146184982Y-42933604D01*
X146449791Y-42893048D01*
X146701600Y-42801609D01*
X146808535Y-42744450D01*
X146871028Y-42508133D01*
X146111500Y-41748605D01*
X145351972Y-42508133D01*
X140393295Y-42508133D01*
X139972392Y-42087231D01*
X139975075Y-42073741D01*
X139975075Y-41930535D01*
X139947137Y-41790080D01*
X139892334Y-41657774D01*
X139882117Y-41642482D01*
X144746896Y-41642482D01*
X144787452Y-41907291D01*
X144878891Y-42159100D01*
X144936050Y-42266035D01*
X145172367Y-42328528D01*
X145931895Y-41569000D01*
X146291105Y-41569000D01*
X147050633Y-42328528D01*
X147286950Y-42266035D01*
X147400350Y-42023322D01*
X147464219Y-41763151D01*
X147476104Y-41495518D01*
X147440885Y-41265558D01*
X147498422Y-41352474D01*
X147669775Y-41525307D01*
X147871554Y-41661390D01*
X148096004Y-41755493D01*
X148334500Y-41804000D01*
X148684500Y-41804000D01*
X148684500Y-40696000D01*
X147392769Y-40696000D01*
X147278997Y-40869862D01*
X147050633Y-40809472D01*
X146291105Y-41569000D01*
X145931895Y-41569000D01*
X145172367Y-40809472D01*
X144936050Y-40871965D01*
X144822650Y-41114678D01*
X144758781Y-41374849D01*
X144746896Y-41642482D01*
X139882117Y-41642482D01*
X139812773Y-41538702D01*
X139711511Y-41437440D01*
X139592439Y-41357879D01*
X139460133Y-41303076D01*
X139319678Y-41275138D01*
X139176472Y-41275138D01*
X139036017Y-41303076D01*
X138903711Y-41357879D01*
X138784639Y-41437440D01*
X138683377Y-41538702D01*
X138603816Y-41657774D01*
X138549013Y-41790080D01*
X138521075Y-41930535D01*
X138521075Y-42073741D01*
X138549013Y-42214196D01*
X138603816Y-42346502D01*
X138683377Y-42465574D01*
X138688732Y-42470929D01*
X138622793Y-42536867D01*
X138543232Y-42655939D01*
X138488429Y-42788245D01*
X138460491Y-42928700D01*
X128276256Y-42928700D01*
X128136007Y-42788452D01*
X128225436Y-42728698D01*
X128326698Y-42627436D01*
X128406259Y-42508364D01*
X128461062Y-42376058D01*
X128489000Y-42235603D01*
X128489000Y-42092397D01*
X128486317Y-42078907D01*
X132383912Y-38181313D01*
X132401159Y-38167159D01*
X132428387Y-38133982D01*
X132451741Y-38190364D01*
X132531302Y-38309436D01*
X132632564Y-38410698D01*
X132751636Y-38490259D01*
X132883942Y-38545062D01*
X133024397Y-38573000D01*
X133167603Y-38573000D01*
X133308058Y-38545062D01*
X133440364Y-38490259D01*
X133559436Y-38410698D01*
X133660698Y-38309436D01*
X133740259Y-38190364D01*
X133795062Y-38058058D01*
X133823000Y-37917603D01*
X133823000Y-37774397D01*
X133795062Y-37633942D01*
X133740259Y-37501636D01*
X133660698Y-37382564D01*
X133559436Y-37281302D01*
X133549640Y-37274756D01*
X133541460Y-37191707D01*
X133515614Y-37106505D01*
X133507844Y-37091968D01*
X133473643Y-37027982D01*
X133417159Y-36959156D01*
X133399905Y-36944996D01*
X132982010Y-36527102D01*
X132982010Y-32249213D01*
X133518907Y-31712317D01*
X133532397Y-31715000D01*
X133675603Y-31715000D01*
X133816058Y-31687062D01*
X133948364Y-31632259D01*
X134067436Y-31552698D01*
X134168698Y-31451436D01*
X134248259Y-31332364D01*
X134303062Y-31200058D01*
X134331000Y-31059603D01*
X134331000Y-30916397D01*
X134303062Y-30775942D01*
X134248259Y-30643636D01*
X134168698Y-30524564D01*
X134067436Y-30423302D01*
X133948364Y-30343741D01*
X133853694Y-30304527D01*
X135258222Y-28900000D01*
X136458142Y-28900000D01*
X136460938Y-28914058D01*
X136515741Y-29046364D01*
X136595302Y-29165436D01*
X136696564Y-29266698D01*
X136815636Y-29346259D01*
X136947942Y-29401062D01*
X137088397Y-29429000D01*
X137231603Y-29429000D01*
X137372058Y-29401062D01*
X137504364Y-29346259D01*
X137623436Y-29266698D01*
X137724698Y-29165436D01*
X137804259Y-29046364D01*
X137859062Y-28914058D01*
X137887000Y-28773603D01*
X137887000Y-28630397D01*
X137859062Y-28489942D01*
X137804259Y-28357636D01*
X137724698Y-28238564D01*
X137623436Y-28137302D01*
X137504364Y-28057741D01*
X137372058Y-28002938D01*
X137231603Y-27975000D01*
X137088397Y-27975000D01*
X136964734Y-27999598D01*
X136928205Y-27996000D01*
X136906000Y-27993813D01*
X136883795Y-27996000D01*
X135093203Y-27996000D01*
X135070998Y-27993813D01*
X134982390Y-28002540D01*
X134919473Y-28021626D01*
X134897188Y-28028386D01*
X134818665Y-28070357D01*
X134749839Y-28126841D01*
X134735679Y-28144095D01*
X131776096Y-31103679D01*
X131758842Y-31117839D01*
X131723843Y-31160486D01*
X131702358Y-31186665D01*
X131660386Y-31265189D01*
X131634540Y-31350391D01*
X131625813Y-31438998D01*
X131628001Y-31461213D01*
X131628000Y-37658775D01*
X127847093Y-41439683D01*
X127833603Y-41437000D01*
X127690397Y-41437000D01*
X127549942Y-41464938D01*
X127417636Y-41519741D01*
X127298564Y-41599302D01*
X127197302Y-41700564D01*
X127117741Y-41819636D01*
X127071302Y-41931750D01*
X122152505Y-37012954D01*
X122126606Y-36981396D01*
X122000679Y-36878050D01*
X121857010Y-36801257D01*
X121701120Y-36753968D01*
X121579624Y-36742002D01*
X121579614Y-36742002D01*
X121539000Y-36738002D01*
X121498386Y-36742002D01*
X120924725Y-36742002D01*
X120841010Y-36697256D01*
X120685120Y-36649967D01*
X120523000Y-36634000D01*
X120360880Y-36649967D01*
X120204990Y-36697256D01*
X120061321Y-36774048D01*
X119935394Y-36877394D01*
X119832048Y-37003321D01*
X119755256Y-37146990D01*
X119707967Y-37302880D01*
X119692000Y-37465000D01*
X119707967Y-37627120D01*
X119755256Y-37783010D01*
X119832048Y-37926679D01*
X119909498Y-38021051D01*
X120013497Y-38125050D01*
X120039396Y-38156608D01*
X120165323Y-38259954D01*
X120308992Y-38336747D01*
X120464882Y-38384036D01*
X120586378Y-38396002D01*
X120586387Y-38396002D01*
X120627001Y-38400002D01*
X120667615Y-38396002D01*
X121196447Y-38396002D01*
X126620496Y-43820052D01*
X126646393Y-43851607D01*
X126677946Y-43877502D01*
X126677947Y-43877503D01*
X126772319Y-43954953D01*
X126831460Y-43986564D01*
X126915989Y-44031746D01*
X127071879Y-44079035D01*
X127089189Y-44080740D01*
X131466750Y-48458302D01*
X131354636Y-48504741D01*
X131235564Y-48584302D01*
X131134302Y-48685564D01*
X131054741Y-48804636D01*
X130999938Y-48936942D01*
X130972000Y-49077397D01*
X130972000Y-49220603D01*
X130980115Y-49261401D01*
X129849000Y-50486776D01*
X128886599Y-51449178D01*
X128869340Y-51463342D01*
X128812856Y-51532169D01*
X128791088Y-51572895D01*
X128770885Y-51610692D01*
X128745039Y-51695894D01*
X128736312Y-51784501D01*
X128738499Y-51806706D01*
X128738500Y-60017970D01*
X128652500Y-59931970D01*
X128652500Y-55222114D01*
X128656500Y-55181500D01*
X128652500Y-55140886D01*
X128652500Y-55140876D01*
X128640534Y-55019380D01*
X128593245Y-54863490D01*
X128539994Y-54763864D01*
X128516452Y-54719820D01*
X128439003Y-54625448D01*
X128438996Y-54625441D01*
X128413106Y-54593894D01*
X128381558Y-54568003D01*
X127890500Y-54076946D01*
X127890500Y-47729113D01*
X127894500Y-47688499D01*
X127890500Y-47647885D01*
X127890500Y-47647876D01*
X127878534Y-47526380D01*
X127831245Y-47370490D01*
X127793940Y-47300698D01*
X127754452Y-47226820D01*
X127745605Y-47216040D01*
X127847058Y-47195860D01*
X127979364Y-47141057D01*
X128098436Y-47061496D01*
X128199698Y-46960234D01*
X128279259Y-46841162D01*
X128334062Y-46708856D01*
X128362000Y-46568401D01*
X128362000Y-46425195D01*
X128334062Y-46284740D01*
X128279259Y-46152434D01*
X128199698Y-46033362D01*
X128098436Y-45932100D01*
X127979364Y-45852539D01*
X127847058Y-45797736D01*
X127706603Y-45769798D01*
X127563397Y-45769798D01*
X127509285Y-45780561D01*
X124993817Y-43265093D01*
X124996500Y-43251603D01*
X124996500Y-43108397D01*
X124968562Y-42967942D01*
X124913759Y-42835636D01*
X124834198Y-42716564D01*
X124732936Y-42615302D01*
X124613864Y-42535741D01*
X124481558Y-42480938D01*
X124341103Y-42453000D01*
X124197897Y-42453000D01*
X124057442Y-42480938D01*
X123925136Y-42535741D01*
X123806064Y-42615302D01*
X123704802Y-42716564D01*
X123625241Y-42835636D01*
X123570438Y-42967942D01*
X123542500Y-43108397D01*
X123542500Y-43251603D01*
X123570438Y-43392058D01*
X123625241Y-43524364D01*
X123704802Y-43643436D01*
X123806064Y-43744698D01*
X123925136Y-43824259D01*
X124057442Y-43879062D01*
X124197897Y-43907000D01*
X124341103Y-43907000D01*
X124354593Y-43904317D01*
X126223470Y-45773194D01*
X126082620Y-45730467D01*
X125920500Y-45714500D01*
X125758380Y-45730467D01*
X125602490Y-45777756D01*
X125458821Y-45854548D01*
X125332894Y-45957894D01*
X125229548Y-46083821D01*
X125152756Y-46227490D01*
X125105467Y-46383380D01*
X125089500Y-46545500D01*
X125105467Y-46707620D01*
X125152756Y-46863510D01*
X125229548Y-47007179D01*
X125306998Y-47101551D01*
X126236500Y-48031054D01*
X126236500Y-48824738D01*
X126195615Y-48726033D01*
X126083223Y-48557826D01*
X125940174Y-48414777D01*
X125771967Y-48302385D01*
X125585065Y-48224967D01*
X125386651Y-48185500D01*
X125184349Y-48185500D01*
X124985935Y-48224967D01*
X124951468Y-48239244D01*
X123578500Y-46866277D01*
X123578500Y-43837205D01*
X123580687Y-43815000D01*
X123571960Y-43726392D01*
X123546114Y-43641190D01*
X123530936Y-43612794D01*
X123504143Y-43562667D01*
X123447659Y-43493841D01*
X123430406Y-43479682D01*
X121546500Y-41595777D01*
X121546500Y-41402839D01*
X121557936Y-41395198D01*
X121659198Y-41293936D01*
X121738759Y-41174864D01*
X121793562Y-41042558D01*
X121821500Y-40902103D01*
X121821500Y-40758897D01*
X121793562Y-40618442D01*
X121738759Y-40486136D01*
X121659198Y-40367064D01*
X121557936Y-40265802D01*
X121438864Y-40186241D01*
X121306558Y-40131438D01*
X121166103Y-40103500D01*
X121022897Y-40103500D01*
X121009407Y-40106183D01*
X119994313Y-39091090D01*
X119980149Y-39073831D01*
X119911323Y-39017347D01*
X119832800Y-38975376D01*
X119747597Y-38949530D01*
X119681195Y-38942990D01*
X119658990Y-38940803D01*
X119636785Y-38942990D01*
X114516329Y-38942990D01*
X114508688Y-38931554D01*
X114407426Y-38830292D01*
X114288354Y-38750731D01*
X114156048Y-38695928D01*
X114015593Y-38667990D01*
X113872387Y-38667990D01*
X113731932Y-38695928D01*
X113599626Y-38750731D01*
X113480554Y-38830292D01*
X113379292Y-38931554D01*
X113299731Y-39050626D01*
X113244928Y-39182932D01*
X113216990Y-39323387D01*
X113216990Y-39466593D01*
X113244928Y-39607048D01*
X113299731Y-39739354D01*
X113379292Y-39858426D01*
X113480554Y-39959688D01*
X113599626Y-40039249D01*
X113731932Y-40094052D01*
X113872387Y-40121990D01*
X114015593Y-40121990D01*
X114156048Y-40094052D01*
X114288354Y-40039249D01*
X114407426Y-39959688D01*
X114508688Y-39858426D01*
X114516329Y-39846990D01*
X119471767Y-39846990D01*
X120370183Y-40745407D01*
X120367500Y-40758897D01*
X120367500Y-40902103D01*
X120395438Y-41042558D01*
X120450241Y-41174864D01*
X120529802Y-41293936D01*
X120631064Y-41395198D01*
X120642501Y-41402840D01*
X120642501Y-41760785D01*
X120640313Y-41783000D01*
X120649040Y-41871607D01*
X120674886Y-41956809D01*
X120710438Y-42023322D01*
X120716858Y-42035333D01*
X120773342Y-42104159D01*
X120790596Y-42118319D01*
X122674500Y-44002224D01*
X122674501Y-47031285D01*
X122672313Y-47053500D01*
X122681040Y-47142107D01*
X122706886Y-47227309D01*
X122731041Y-47272500D01*
X122748858Y-47305833D01*
X122805342Y-47374659D01*
X122822596Y-47388819D01*
X124312244Y-48878468D01*
X124297967Y-48912935D01*
X124258500Y-49111349D01*
X124258500Y-49313651D01*
X124297967Y-49512065D01*
X124375385Y-49698967D01*
X124487777Y-49867174D01*
X124630826Y-50010223D01*
X124799033Y-50122615D01*
X124985935Y-50200033D01*
X125184349Y-50239500D01*
X125386651Y-50239500D01*
X125585065Y-50200033D01*
X125771967Y-50122615D01*
X125940174Y-50010223D01*
X126083223Y-49867174D01*
X126195615Y-49698967D01*
X126236500Y-49600262D01*
X126236500Y-51018398D01*
X126206769Y-51010836D01*
X125465105Y-51752500D01*
X126206769Y-52494164D01*
X126236501Y-52486601D01*
X126236501Y-53592500D01*
X123088055Y-53592500D01*
X122169324Y-52673769D01*
X124543836Y-52673769D01*
X124603297Y-52907537D01*
X124841742Y-53018434D01*
X125097240Y-53080683D01*
X125359973Y-53091890D01*
X125619844Y-53051625D01*
X125866866Y-52961435D01*
X125967703Y-52907537D01*
X126027164Y-52673769D01*
X125285500Y-51932105D01*
X124543836Y-52673769D01*
X122169324Y-52673769D01*
X121322527Y-51826973D01*
X123946110Y-51826973D01*
X123986375Y-52086844D01*
X124076565Y-52333866D01*
X124130463Y-52434703D01*
X124364231Y-52494164D01*
X125105895Y-51752500D01*
X124364231Y-51010836D01*
X124130463Y-51070297D01*
X124019566Y-51308742D01*
X123957317Y-51564240D01*
X123946110Y-51826973D01*
X121322527Y-51826973D01*
X121142508Y-51646955D01*
X121142504Y-51646950D01*
X120326785Y-50831231D01*
X124543836Y-50831231D01*
X125285500Y-51572895D01*
X126027164Y-50831231D01*
X125967703Y-50597463D01*
X125729258Y-50486566D01*
X125473760Y-50424317D01*
X125211027Y-50413110D01*
X124951156Y-50453375D01*
X124704134Y-50543565D01*
X124603297Y-50597463D01*
X124543836Y-50831231D01*
X120326785Y-50831231D01*
X119676005Y-50180452D01*
X119650106Y-50148894D01*
X119524179Y-50045548D01*
X119380510Y-49968755D01*
X119224620Y-49921466D01*
X119103124Y-49909500D01*
X119103114Y-49909500D01*
X119062500Y-49905500D01*
X119021886Y-49909500D01*
X113517466Y-49909500D01*
X113620436Y-49840698D01*
X113721698Y-49739436D01*
X113729339Y-49728000D01*
X114277795Y-49728000D01*
X114300000Y-49730187D01*
X114322205Y-49728000D01*
X114388607Y-49721460D01*
X114473810Y-49695614D01*
X114552333Y-49653643D01*
X114621159Y-49597159D01*
X114635323Y-49579900D01*
X116176954Y-48038269D01*
X120162336Y-48038269D01*
X120221797Y-48272037D01*
X120460242Y-48382934D01*
X120715740Y-48445183D01*
X120978473Y-48456390D01*
X121238344Y-48416125D01*
X121485366Y-48325935D01*
X121586203Y-48272037D01*
X121645664Y-48038269D01*
X120904000Y-47296605D01*
X120162336Y-48038269D01*
X116176954Y-48038269D01*
X117023751Y-47191473D01*
X119564610Y-47191473D01*
X119604875Y-47451344D01*
X119695065Y-47698366D01*
X119748963Y-47799203D01*
X119982731Y-47858664D01*
X120724395Y-47117000D01*
X121083605Y-47117000D01*
X121825269Y-47858664D01*
X122059037Y-47799203D01*
X122169934Y-47560758D01*
X122232183Y-47305260D01*
X122243390Y-47042527D01*
X122203125Y-46782656D01*
X122112935Y-46535634D01*
X122059037Y-46434797D01*
X121825269Y-46375336D01*
X121083605Y-47117000D01*
X120724395Y-47117000D01*
X119982731Y-46375336D01*
X119748963Y-46434797D01*
X119638066Y-46673242D01*
X119575817Y-46928740D01*
X119564610Y-47191473D01*
X117023751Y-47191473D01*
X118019493Y-46195731D01*
X120162336Y-46195731D01*
X120904000Y-46937395D01*
X121645664Y-46195731D01*
X121586203Y-45961963D01*
X121347758Y-45851066D01*
X121092260Y-45788817D01*
X120829527Y-45777610D01*
X120569656Y-45817875D01*
X120322634Y-45908065D01*
X120221797Y-45961963D01*
X120162336Y-46195731D01*
X118019493Y-46195731D01*
X118786908Y-45428317D01*
X118800397Y-45431000D01*
X118943603Y-45431000D01*
X119084058Y-45403062D01*
X119216364Y-45348259D01*
X119335436Y-45268698D01*
X119436698Y-45167436D01*
X119444339Y-45156000D01*
X120055713Y-45156000D01*
X120106277Y-45231674D01*
X120249326Y-45374723D01*
X120417533Y-45487115D01*
X120604435Y-45564533D01*
X120802849Y-45604000D01*
X121005151Y-45604000D01*
X121203565Y-45564533D01*
X121390467Y-45487115D01*
X121558674Y-45374723D01*
X121701723Y-45231674D01*
X121814115Y-45063467D01*
X121891533Y-44876565D01*
X121931000Y-44678151D01*
X121931000Y-44475849D01*
X121891533Y-44277435D01*
X121814115Y-44090533D01*
X121701723Y-43922326D01*
X121558674Y-43779277D01*
X121390467Y-43666885D01*
X121203565Y-43589467D01*
X121005151Y-43550000D01*
X120802849Y-43550000D01*
X120604435Y-43589467D01*
X120417533Y-43666885D01*
X120249326Y-43779277D01*
X120106277Y-43922326D01*
X119993885Y-44090533D01*
X119927003Y-44252000D01*
X119444339Y-44252000D01*
X119436698Y-44240564D01*
X119335436Y-44139302D01*
X119216364Y-44059741D01*
X119084058Y-44004938D01*
X118943603Y-43977000D01*
X118800397Y-43977000D01*
X118659942Y-44004938D01*
X118527636Y-44059741D01*
X118408564Y-44139302D01*
X118307302Y-44240564D01*
X118227741Y-44359636D01*
X118172938Y-44491942D01*
X118145000Y-44632397D01*
X118145000Y-44775603D01*
X118147683Y-44789092D01*
X114112777Y-48824000D01*
X113729339Y-48824000D01*
X113721698Y-48812564D01*
X113620436Y-48711302D01*
X113501364Y-48631741D01*
X113369058Y-48576938D01*
X113228603Y-48549000D01*
X113085397Y-48549000D01*
X112944942Y-48576938D01*
X112883999Y-48602181D01*
X112883999Y-46876239D01*
X113730841Y-46029397D01*
X114970000Y-46029397D01*
X114970000Y-46172603D01*
X114997938Y-46313058D01*
X115052741Y-46445364D01*
X115132302Y-46564436D01*
X115233564Y-46665698D01*
X115352636Y-46745259D01*
X115484942Y-46800062D01*
X115625397Y-46828000D01*
X115768603Y-46828000D01*
X115909058Y-46800062D01*
X116041364Y-46745259D01*
X116160436Y-46665698D01*
X116261698Y-46564436D01*
X116341259Y-46445364D01*
X116396062Y-46313058D01*
X116424000Y-46172603D01*
X116424000Y-46029397D01*
X116421317Y-46015907D01*
X117156719Y-45280505D01*
X117179058Y-45276062D01*
X117311364Y-45221259D01*
X117430436Y-45141698D01*
X117531698Y-45040436D01*
X117611259Y-44921364D01*
X117666062Y-44789058D01*
X117694000Y-44648603D01*
X117694000Y-44505397D01*
X117666062Y-44364942D01*
X117611259Y-44232636D01*
X117531698Y-44113564D01*
X117430436Y-44012302D01*
X117311364Y-43932741D01*
X117179058Y-43877938D01*
X117038603Y-43850000D01*
X116895397Y-43850000D01*
X116754942Y-43877938D01*
X116622636Y-43932741D01*
X116503564Y-44012302D01*
X116402302Y-44113564D01*
X116322741Y-44232636D01*
X116267938Y-44364942D01*
X116240000Y-44505397D01*
X116240000Y-44648603D01*
X116267938Y-44789058D01*
X116297749Y-44861027D01*
X115782093Y-45376683D01*
X115768603Y-45374000D01*
X115625397Y-45374000D01*
X115484942Y-45401938D01*
X115352636Y-45456741D01*
X115233564Y-45536302D01*
X115132302Y-45637564D01*
X115052741Y-45756636D01*
X114997938Y-45888942D01*
X114970000Y-46029397D01*
X113730841Y-46029397D01*
X114348053Y-45412186D01*
X114379606Y-45386291D01*
X114410818Y-45348259D01*
X114482952Y-45260365D01*
X114532623Y-45167436D01*
X114559745Y-45116695D01*
X114607034Y-44960805D01*
X114619000Y-44839309D01*
X114619000Y-44839299D01*
X114623000Y-44798685D01*
X114619000Y-44758071D01*
X114619000Y-44192376D01*
X114607034Y-44070880D01*
X114559745Y-43914990D01*
X114482952Y-43771321D01*
X114379606Y-43645394D01*
X114253678Y-43542048D01*
X114110009Y-43465255D01*
X113954119Y-43417966D01*
X113792000Y-43401999D01*
X113629880Y-43417966D01*
X113473990Y-43465255D01*
X113330321Y-43542048D01*
X113204394Y-43645394D01*
X113101048Y-43771322D01*
X113024255Y-43914991D01*
X112976966Y-44070881D01*
X112965000Y-44192377D01*
X112965000Y-44456131D01*
X111500951Y-45920181D01*
X111469393Y-45946080D01*
X111440898Y-45980802D01*
X111366047Y-46072007D01*
X111350550Y-46101000D01*
X111289254Y-46215677D01*
X111241965Y-46371567D01*
X111229999Y-46493063D01*
X111229999Y-46493072D01*
X111225999Y-46533686D01*
X111229999Y-46574300D01*
X111230000Y-49763377D01*
X111225999Y-49804001D01*
X111236389Y-49909500D01*
X110316374Y-49909500D01*
X110275760Y-49905500D01*
X110235146Y-49909500D01*
X110235136Y-49909500D01*
X110113640Y-49921466D01*
X109957750Y-49968755D01*
X109927420Y-49984967D01*
X109814080Y-50045548D01*
X109719708Y-50122997D01*
X109719701Y-50123004D01*
X109688154Y-50148894D01*
X109662264Y-50180442D01*
X107523446Y-52319261D01*
X106193815Y-52319261D01*
X106046500Y-52171947D01*
X106046500Y-52007221D01*
X106172742Y-52065934D01*
X106428240Y-52128183D01*
X106690973Y-52139390D01*
X106950844Y-52099125D01*
X107197866Y-52008935D01*
X107298703Y-51955037D01*
X107358164Y-51721269D01*
X106616500Y-50979605D01*
X106602358Y-50993748D01*
X106422753Y-50814143D01*
X106436895Y-50800000D01*
X106796105Y-50800000D01*
X107537769Y-51541664D01*
X107771537Y-51482203D01*
X107882434Y-51243758D01*
X107944683Y-50988260D01*
X107955890Y-50725527D01*
X107915625Y-50465656D01*
X107825435Y-50218634D01*
X107771537Y-50117797D01*
X107537769Y-50058336D01*
X106796105Y-50800000D01*
X106436895Y-50800000D01*
X105695231Y-50058336D01*
X105461463Y-50117797D01*
X105350566Y-50356242D01*
X105288317Y-50611740D01*
X105277110Y-50874473D01*
X105281269Y-50901313D01*
X105191120Y-50873967D01*
X105029000Y-50858000D01*
X104866880Y-50873967D01*
X104710990Y-50921256D01*
X104567321Y-50998048D01*
X104441394Y-51101394D01*
X104338048Y-51227321D01*
X104338000Y-51227411D01*
X104338000Y-49878731D01*
X105874836Y-49878731D01*
X106616500Y-50620395D01*
X107358164Y-49878731D01*
X107298703Y-49644963D01*
X107060258Y-49534066D01*
X106804760Y-49471817D01*
X106542027Y-49460610D01*
X106282156Y-49500875D01*
X106035134Y-49591065D01*
X105934297Y-49644963D01*
X105874836Y-49878731D01*
X104338000Y-49878731D01*
X104338000Y-47901204D01*
X104340187Y-47878999D01*
X104331460Y-47790392D01*
X104309160Y-47716881D01*
X104305614Y-47705190D01*
X104263643Y-47626667D01*
X104207159Y-47557841D01*
X104189912Y-47543687D01*
X104109225Y-47463000D01*
X104211603Y-47463000D01*
X104352058Y-47435062D01*
X104484364Y-47380259D01*
X104603436Y-47300698D01*
X104704698Y-47199436D01*
X104784259Y-47080364D01*
X104839062Y-46948058D01*
X104867000Y-46807603D01*
X104867000Y-46664397D01*
X104864317Y-46650907D01*
X105218525Y-46296699D01*
X105319636Y-46364259D01*
X105451942Y-46419062D01*
X105592397Y-46447000D01*
X105735603Y-46447000D01*
X105749093Y-46444317D01*
X106164501Y-46859726D01*
X106164501Y-47335608D01*
X106130033Y-47349885D01*
X105961826Y-47462277D01*
X105818777Y-47605326D01*
X105706385Y-47773533D01*
X105628967Y-47960435D01*
X105589500Y-48158849D01*
X105589500Y-48361151D01*
X105628967Y-48559565D01*
X105706385Y-48746467D01*
X105818777Y-48914674D01*
X105961826Y-49057723D01*
X106130033Y-49170115D01*
X106316935Y-49247533D01*
X106515349Y-49287000D01*
X106717651Y-49287000D01*
X106916065Y-49247533D01*
X107102967Y-49170115D01*
X107271174Y-49057723D01*
X107414223Y-48914674D01*
X107526615Y-48746467D01*
X107604033Y-48559565D01*
X107643500Y-48361151D01*
X107643500Y-48158849D01*
X107604033Y-47960435D01*
X107526615Y-47773533D01*
X107414223Y-47605326D01*
X107271174Y-47462277D01*
X107102967Y-47349885D01*
X107068500Y-47335608D01*
X107068500Y-46694704D01*
X107070687Y-46672499D01*
X107061960Y-46583892D01*
X107050605Y-46546460D01*
X107036114Y-46498690D01*
X106994143Y-46420167D01*
X106937659Y-46351341D01*
X106920410Y-46337185D01*
X106388317Y-45805093D01*
X106391000Y-45791603D01*
X106391000Y-45648397D01*
X106363062Y-45507942D01*
X106308259Y-45375636D01*
X106228698Y-45256564D01*
X106127436Y-45155302D01*
X106008364Y-45075741D01*
X105876058Y-45020938D01*
X105735603Y-44993000D01*
X105592397Y-44993000D01*
X105451942Y-45020938D01*
X105319636Y-45075741D01*
X105200564Y-45155302D01*
X105099302Y-45256564D01*
X105088693Y-45272442D01*
X105067392Y-45274540D01*
X105022167Y-45288259D01*
X104982190Y-45300386D01*
X104903667Y-45342357D01*
X104834841Y-45398841D01*
X104820681Y-45416095D01*
X104225093Y-46011683D01*
X104211603Y-46009000D01*
X104068397Y-46009000D01*
X103927942Y-46036938D01*
X103795636Y-46091741D01*
X103676564Y-46171302D01*
X103575302Y-46272564D01*
X103495741Y-46391636D01*
X103440938Y-46523942D01*
X103413000Y-46664397D01*
X103413000Y-46766776D01*
X103340317Y-46694093D01*
X103343000Y-46680603D01*
X103343000Y-46537397D01*
X103315062Y-46396942D01*
X103260259Y-46264636D01*
X103180698Y-46145564D01*
X103079436Y-46044302D01*
X102960364Y-45964741D01*
X102828058Y-45909938D01*
X102687603Y-45882000D01*
X102544397Y-45882000D01*
X102403942Y-45909938D01*
X102271636Y-45964741D01*
X102152564Y-46044302D01*
X102051302Y-46145564D01*
X101971741Y-46264636D01*
X101916938Y-46396942D01*
X101889000Y-46537397D01*
X101889000Y-46680603D01*
X101916938Y-46821058D01*
X101971741Y-46953364D01*
X102051302Y-47072436D01*
X102152564Y-47173698D01*
X102271636Y-47253259D01*
X102403942Y-47308062D01*
X102544397Y-47336000D01*
X102687603Y-47336000D01*
X102701093Y-47333317D01*
X103434000Y-48066225D01*
X103434001Y-59117660D01*
X103422564Y-59125302D01*
X103321302Y-59226564D01*
X103241741Y-59345636D01*
X103186938Y-59477942D01*
X103159000Y-59618397D01*
X103159000Y-59761603D01*
X103186938Y-59902058D01*
X103241741Y-60034364D01*
X103321302Y-60153436D01*
X103422564Y-60254698D01*
X103541636Y-60334259D01*
X103673942Y-60389062D01*
X103814397Y-60417000D01*
X103957603Y-60417000D01*
X104098058Y-60389062D01*
X104230364Y-60334259D01*
X104349436Y-60254698D01*
X104450698Y-60153436D01*
X104530259Y-60034364D01*
X104585062Y-59902058D01*
X104613000Y-59761603D01*
X104613000Y-59618397D01*
X104585062Y-59477942D01*
X104530259Y-59345636D01*
X104450698Y-59226564D01*
X104349436Y-59125302D01*
X104338000Y-59117661D01*
X104338000Y-52150589D01*
X104338048Y-52150679D01*
X104392500Y-52217028D01*
X104392500Y-52473886D01*
X104388500Y-52514500D01*
X104392500Y-52555114D01*
X104392500Y-52555123D01*
X104404466Y-52676619D01*
X104451755Y-52832509D01*
X104465224Y-52857707D01*
X104528548Y-52976179D01*
X104562899Y-53018035D01*
X104631894Y-53102106D01*
X104663452Y-53128005D01*
X105237760Y-53702314D01*
X105263655Y-53733867D01*
X105295208Y-53759762D01*
X105295209Y-53759763D01*
X105389581Y-53837213D01*
X105438664Y-53863448D01*
X105533251Y-53914006D01*
X105689141Y-53961295D01*
X105810637Y-53973261D01*
X105810647Y-53973261D01*
X105851261Y-53977261D01*
X105891875Y-53973261D01*
X107028376Y-53973261D01*
X107006489Y-55688000D01*
X106766376Y-55688000D01*
X106644880Y-55699966D01*
X106488990Y-55747255D01*
X106345321Y-55824048D01*
X106219394Y-55927394D01*
X106116048Y-56053321D01*
X106039255Y-56196990D01*
X105991966Y-56352880D01*
X105975999Y-56515000D01*
X105991966Y-56677120D01*
X106039255Y-56833010D01*
X106116048Y-56976679D01*
X106219394Y-57102606D01*
X106345321Y-57205952D01*
X106488990Y-57282745D01*
X106644880Y-57330034D01*
X106766376Y-57342000D01*
X107002153Y-57342000D01*
X107038696Y-62235460D01*
X107034999Y-62272999D01*
X107039303Y-62316698D01*
X107039326Y-62319797D01*
X107043290Y-62357180D01*
X107050966Y-62435119D01*
X107051870Y-62438100D01*
X107052199Y-62441201D01*
X107075517Y-62516052D01*
X107098255Y-62591009D01*
X107099724Y-62593757D01*
X107100651Y-62596733D01*
X107138104Y-62665562D01*
X107175047Y-62734678D01*
X107177024Y-62737087D01*
X107178514Y-62739825D01*
X107228699Y-62800052D01*
X107252497Y-62829050D01*
X107254683Y-62831236D01*
X107282798Y-62864977D01*
X107312139Y-62888692D01*
X109914949Y-65491503D01*
X109914955Y-65491508D01*
X110314949Y-65891502D01*
X110409321Y-65968952D01*
X110552989Y-66045744D01*
X110708879Y-66093033D01*
X110870999Y-66109000D01*
X111033120Y-66093033D01*
X111189010Y-66045744D01*
X111332679Y-65968952D01*
X111458606Y-65865606D01*
X111561952Y-65739679D01*
X111638744Y-65596010D01*
X111686033Y-65440120D01*
X111702000Y-65277999D01*
X111686033Y-65115879D01*
X111638744Y-64959989D01*
X111561952Y-64816321D01*
X111484502Y-64721949D01*
X111084508Y-64321955D01*
X111084503Y-64321949D01*
X108690445Y-61927891D01*
X108688234Y-61631845D01*
X108753942Y-61659062D01*
X108894397Y-61687000D01*
X109037603Y-61687000D01*
X109178058Y-61659062D01*
X109310364Y-61604259D01*
X109429436Y-61524698D01*
X109530698Y-61423436D01*
X109610259Y-61304364D01*
X109665062Y-61172058D01*
X109693000Y-61031603D01*
X109693000Y-60888397D01*
X109665062Y-60747942D01*
X109610259Y-60615636D01*
X109530698Y-60496564D01*
X109429436Y-60395302D01*
X109418000Y-60387661D01*
X109418000Y-53400223D01*
X110486724Y-52331500D01*
X115124661Y-52331500D01*
X115132302Y-52342936D01*
X115233564Y-52444198D01*
X115352636Y-52523759D01*
X115484942Y-52578562D01*
X115625397Y-52606500D01*
X115768603Y-52606500D01*
X115909058Y-52578562D01*
X116041364Y-52523759D01*
X116160436Y-52444198D01*
X116261698Y-52342936D01*
X116341259Y-52223864D01*
X116396062Y-52091558D01*
X116424000Y-51951103D01*
X116424000Y-51807897D01*
X116396062Y-51667442D01*
X116353008Y-51563500D01*
X118719947Y-51563500D01*
X119972950Y-52816504D01*
X119972955Y-52816508D01*
X122132003Y-54975558D01*
X122157894Y-55007106D01*
X122189441Y-55032996D01*
X122189448Y-55033003D01*
X122283820Y-55110452D01*
X122427489Y-55187245D01*
X122474778Y-55201590D01*
X122583380Y-55234534D01*
X122704876Y-55246500D01*
X122704886Y-55246500D01*
X122745500Y-55250500D01*
X122786114Y-55246500D01*
X126720946Y-55246500D01*
X126998501Y-55524055D01*
X126998500Y-59931970D01*
X126911264Y-60019206D01*
X126782456Y-60211981D01*
X126693731Y-60426182D01*
X126648500Y-60653576D01*
X126648500Y-60885424D01*
X126693731Y-61112818D01*
X126782456Y-61327019D01*
X126911264Y-61519794D01*
X127075206Y-61683736D01*
X127267981Y-61812544D01*
X127482182Y-61901269D01*
X127709576Y-61946500D01*
X127748277Y-61946500D01*
X120741279Y-68953500D01*
X119685313Y-68953500D01*
X103036240Y-68953016D01*
X102571805Y-68488582D01*
X102704000Y-68488582D01*
X102768103Y-68482268D01*
X102829743Y-68463570D01*
X102886550Y-68433206D01*
X102936343Y-68392343D01*
X102977206Y-68342550D01*
X103007570Y-68285743D01*
X103026268Y-68224103D01*
X103032582Y-68160000D01*
X103032582Y-67194076D01*
X103217000Y-67194076D01*
X103217000Y-67425924D01*
X103262231Y-67653318D01*
X103350956Y-67867519D01*
X103479764Y-68060294D01*
X103643706Y-68224236D01*
X103836481Y-68353044D01*
X104050682Y-68441769D01*
X104278076Y-68487000D01*
X104509924Y-68487000D01*
X104737318Y-68441769D01*
X104951519Y-68353044D01*
X105144294Y-68224236D01*
X105308236Y-68060294D01*
X105437044Y-67867519D01*
X105525769Y-67653318D01*
X105571000Y-67425924D01*
X105571000Y-67194076D01*
X105525769Y-66966682D01*
X105437044Y-66752481D01*
X105308236Y-66559706D01*
X105144294Y-66395764D01*
X104951519Y-66266956D01*
X104846000Y-66223249D01*
X104846000Y-63964134D01*
X104946564Y-64064698D01*
X105065636Y-64144259D01*
X105197942Y-64199062D01*
X105338397Y-64227000D01*
X105481603Y-64227000D01*
X105495093Y-64224317D01*
X106482001Y-65211226D01*
X106482000Y-66223248D01*
X106376481Y-66266956D01*
X106183706Y-66395764D01*
X106019764Y-66559706D01*
X105890956Y-66752481D01*
X105802231Y-66966682D01*
X105757000Y-67194076D01*
X105757000Y-67425924D01*
X105802231Y-67653318D01*
X105890956Y-67867519D01*
X106019764Y-68060294D01*
X106183706Y-68224236D01*
X106376481Y-68353044D01*
X106590682Y-68441769D01*
X106818076Y-68487000D01*
X107049924Y-68487000D01*
X107277318Y-68441769D01*
X107491519Y-68353044D01*
X107684294Y-68224236D01*
X107848236Y-68060294D01*
X107977044Y-67867519D01*
X108020751Y-67762000D01*
X109128000Y-67762000D01*
X109128000Y-67826103D01*
X109155938Y-67966558D01*
X109210741Y-68098864D01*
X109290302Y-68217936D01*
X109391564Y-68319198D01*
X109510636Y-68398759D01*
X109642942Y-68453562D01*
X109783397Y-68481500D01*
X109926603Y-68481500D01*
X110067058Y-68453562D01*
X110199364Y-68398759D01*
X110318436Y-68319198D01*
X110419698Y-68217936D01*
X110499259Y-68098864D01*
X110554062Y-67966558D01*
X110582000Y-67826103D01*
X110582000Y-67682897D01*
X110554062Y-67542442D01*
X110499259Y-67410136D01*
X110419698Y-67291064D01*
X110318436Y-67189802D01*
X110199364Y-67110241D01*
X110067058Y-67055438D01*
X109926603Y-67027500D01*
X109783397Y-67027500D01*
X109769907Y-67030183D01*
X109745823Y-67006100D01*
X109731659Y-66988841D01*
X109662833Y-66932357D01*
X109584310Y-66890386D01*
X109499107Y-66864540D01*
X109432705Y-66858000D01*
X109410500Y-66855813D01*
X109388295Y-66858000D01*
X108020751Y-66858000D01*
X107977044Y-66752481D01*
X107848236Y-66559706D01*
X107684294Y-66395764D01*
X107491519Y-66266956D01*
X107386000Y-66223249D01*
X107386000Y-65046202D01*
X107388187Y-65023999D01*
X107381882Y-64959989D01*
X107379460Y-64935393D01*
X107353614Y-64850190D01*
X107311643Y-64771667D01*
X107255159Y-64702841D01*
X107237910Y-64688685D01*
X106134317Y-63585093D01*
X106137000Y-63571603D01*
X106137000Y-63428397D01*
X106109062Y-63287942D01*
X106054259Y-63155636D01*
X105974698Y-63036564D01*
X105873436Y-62935302D01*
X105754364Y-62855741D01*
X105622058Y-62800938D01*
X105481603Y-62773000D01*
X105338397Y-62773000D01*
X105197942Y-62800938D01*
X105065636Y-62855741D01*
X104946564Y-62935302D01*
X104846000Y-63035866D01*
X104846000Y-62799031D01*
X104911259Y-62701364D01*
X104966062Y-62569058D01*
X104994000Y-62428603D01*
X104994000Y-62285397D01*
X104966062Y-62144942D01*
X104911259Y-62012636D01*
X104831698Y-61893564D01*
X104730436Y-61792302D01*
X104611364Y-61712741D01*
X104479058Y-61657938D01*
X104338603Y-61630000D01*
X104195397Y-61630000D01*
X104054942Y-61657938D01*
X103922636Y-61712741D01*
X103803564Y-61792302D01*
X103702302Y-61893564D01*
X103622741Y-62012636D01*
X103567938Y-62144942D01*
X103540000Y-62285397D01*
X103540000Y-62428603D01*
X103567938Y-62569058D01*
X103622741Y-62701364D01*
X103702302Y-62820436D01*
X103803564Y-62921698D01*
X103922636Y-63001259D01*
X103942001Y-63009280D01*
X103942000Y-66223248D01*
X103836481Y-66266956D01*
X103643706Y-66395764D01*
X103479764Y-66559706D01*
X103350956Y-66752481D01*
X103262231Y-66966682D01*
X103217000Y-67194076D01*
X103032582Y-67194076D01*
X103032582Y-66460000D01*
X103026268Y-66395897D01*
X103007570Y-66334257D01*
X102977206Y-66277450D01*
X102936343Y-66227657D01*
X102886550Y-66186794D01*
X102829743Y-66156430D01*
X102768103Y-66137732D01*
X102704000Y-66131418D01*
X101004000Y-66131418D01*
X100939897Y-66137732D01*
X100878257Y-66156430D01*
X100821450Y-66186794D01*
X100771657Y-66227657D01*
X100730794Y-66277450D01*
X100700430Y-66334257D01*
X100681732Y-66395897D01*
X100675418Y-66460000D01*
X74592224Y-66460000D01*
X74373999Y-66241776D01*
X74373999Y-64698397D01*
X77251000Y-64698397D01*
X77251000Y-64841603D01*
X77278938Y-64982058D01*
X77333741Y-65114364D01*
X77413302Y-65233436D01*
X77514564Y-65334698D01*
X77633636Y-65414259D01*
X77765942Y-65469062D01*
X77906397Y-65497000D01*
X78049603Y-65497000D01*
X78190058Y-65469062D01*
X78322364Y-65414259D01*
X78441436Y-65334698D01*
X78542698Y-65233436D01*
X78550339Y-65222000D01*
X86591795Y-65222000D01*
X86614000Y-65224187D01*
X86636205Y-65222000D01*
X86702607Y-65215460D01*
X86787810Y-65189614D01*
X86866333Y-65147643D01*
X86935159Y-65091159D01*
X86949323Y-65073900D01*
X87601954Y-64421269D01*
X97937336Y-64421269D01*
X97996797Y-64655037D01*
X98235242Y-64765934D01*
X98490740Y-64828183D01*
X98753473Y-64839390D01*
X99013344Y-64799125D01*
X99260366Y-64708935D01*
X99361203Y-64655037D01*
X99420664Y-64421269D01*
X98679000Y-63679605D01*
X97937336Y-64421269D01*
X87601954Y-64421269D01*
X88448750Y-63574473D01*
X97339610Y-63574473D01*
X97379875Y-63834344D01*
X97470065Y-64081366D01*
X97523963Y-64182203D01*
X97757731Y-64241664D01*
X98499395Y-63500000D01*
X98858605Y-63500000D01*
X99600269Y-64241664D01*
X99834037Y-64182203D01*
X99944934Y-63943758D01*
X100007183Y-63688260D01*
X100018390Y-63425527D01*
X99978125Y-63165656D01*
X99887935Y-62918634D01*
X99834037Y-62817797D01*
X99600269Y-62758336D01*
X98858605Y-63500000D01*
X98499395Y-63500000D01*
X97757731Y-62758336D01*
X97523963Y-62817797D01*
X97413066Y-63056242D01*
X97350817Y-63311740D01*
X97339610Y-63574473D01*
X88448750Y-63574473D01*
X89444492Y-62578731D01*
X97937336Y-62578731D01*
X98679000Y-63320395D01*
X99420664Y-62578731D01*
X99361203Y-62344963D01*
X99122758Y-62234066D01*
X98867260Y-62171817D01*
X98604527Y-62160610D01*
X98344656Y-62200875D01*
X98097634Y-62291065D01*
X97996797Y-62344963D01*
X97937336Y-62578731D01*
X89444492Y-62578731D01*
X90727905Y-61295319D01*
X90745159Y-61281159D01*
X90759323Y-61263900D01*
X91164374Y-60858849D01*
X97652000Y-60858849D01*
X97652000Y-61061151D01*
X97691467Y-61259565D01*
X97768885Y-61446467D01*
X97881277Y-61614674D01*
X98024326Y-61757723D01*
X98192533Y-61870115D01*
X98379435Y-61947533D01*
X98577849Y-61987000D01*
X98780151Y-61987000D01*
X98978565Y-61947533D01*
X99165467Y-61870115D01*
X99333674Y-61757723D01*
X99476723Y-61614674D01*
X99589115Y-61446467D01*
X99666533Y-61259565D01*
X99706000Y-61061151D01*
X99706000Y-60858849D01*
X99666533Y-60660435D01*
X99589115Y-60473533D01*
X99476723Y-60305326D01*
X99333674Y-60162277D01*
X99165467Y-60049885D01*
X98978565Y-59972467D01*
X98780151Y-59933000D01*
X98577849Y-59933000D01*
X98379435Y-59972467D01*
X98192533Y-60049885D01*
X98024326Y-60162277D01*
X97881277Y-60305326D01*
X97768885Y-60473533D01*
X97691467Y-60660435D01*
X97652000Y-60858849D01*
X91164374Y-60858849D01*
X93585412Y-58437813D01*
X93602659Y-58423659D01*
X93659143Y-58354833D01*
X93701114Y-58276310D01*
X93726960Y-58191107D01*
X93733500Y-58124705D01*
X93733500Y-58124704D01*
X93735687Y-58102501D01*
X93733500Y-58080296D01*
X93733500Y-49029251D01*
X93839019Y-48985544D01*
X94031794Y-48856736D01*
X94195736Y-48692794D01*
X94324544Y-48500019D01*
X94368251Y-48394500D01*
X95849418Y-48394500D01*
X95849418Y-48792500D01*
X95855732Y-48856603D01*
X95874430Y-48918243D01*
X95904794Y-48975050D01*
X95945657Y-49024843D01*
X95995450Y-49065706D01*
X96052257Y-49096070D01*
X96113897Y-49114768D01*
X96178000Y-49121082D01*
X97878000Y-49121082D01*
X97942103Y-49114768D01*
X98003743Y-49096070D01*
X98060550Y-49065706D01*
X98110343Y-49024843D01*
X98151206Y-48975050D01*
X98164383Y-48950397D01*
X99349000Y-48950397D01*
X99349000Y-49093603D01*
X99376938Y-49234058D01*
X99431741Y-49366364D01*
X99511302Y-49485436D01*
X99612564Y-49586698D01*
X99731636Y-49666259D01*
X99863942Y-49721062D01*
X100004397Y-49749000D01*
X100147603Y-49749000D01*
X100288058Y-49721062D01*
X100420364Y-49666259D01*
X100539436Y-49586698D01*
X100640698Y-49485436D01*
X100720259Y-49366364D01*
X100775062Y-49234058D01*
X100803000Y-49093603D01*
X100803000Y-48950397D01*
X100800317Y-48936907D01*
X101649912Y-48087313D01*
X101667159Y-48073159D01*
X101723643Y-48004333D01*
X101765614Y-47925810D01*
X101785444Y-47860438D01*
X101791460Y-47840608D01*
X101800187Y-47752001D01*
X101798000Y-47729796D01*
X101798000Y-46161223D01*
X102295224Y-45664000D01*
X103313661Y-45664000D01*
X103321302Y-45675436D01*
X103422564Y-45776698D01*
X103541636Y-45856259D01*
X103673942Y-45911062D01*
X103814397Y-45939000D01*
X103957603Y-45939000D01*
X104098058Y-45911062D01*
X104230364Y-45856259D01*
X104349436Y-45776698D01*
X104450698Y-45675436D01*
X104530259Y-45556364D01*
X104585062Y-45424058D01*
X104613000Y-45283603D01*
X104613000Y-45140397D01*
X104585062Y-44999942D01*
X104530259Y-44867636D01*
X104450698Y-44748564D01*
X104349436Y-44647302D01*
X104230364Y-44567741D01*
X104098058Y-44512938D01*
X103957603Y-44485000D01*
X103814397Y-44485000D01*
X103673942Y-44512938D01*
X103541636Y-44567741D01*
X103422564Y-44647302D01*
X103321302Y-44748564D01*
X103313661Y-44760000D01*
X102130205Y-44760000D01*
X102108000Y-44757813D01*
X102019392Y-44766540D01*
X101945161Y-44789058D01*
X101934190Y-44792386D01*
X101855667Y-44834357D01*
X101786841Y-44890841D01*
X101772681Y-44908095D01*
X101042096Y-45638681D01*
X101024842Y-45652841D01*
X100983936Y-45702685D01*
X100968358Y-45721667D01*
X100926386Y-45800191D01*
X100900540Y-45885393D01*
X100891813Y-45974000D01*
X100894001Y-45996215D01*
X100894000Y-47564775D01*
X100161093Y-48297683D01*
X100147603Y-48295000D01*
X100004397Y-48295000D01*
X99863942Y-48322938D01*
X99731636Y-48377741D01*
X99612564Y-48457302D01*
X99511302Y-48558564D01*
X99431741Y-48677636D01*
X99376938Y-48809942D01*
X99349000Y-48950397D01*
X98164383Y-48950397D01*
X98181570Y-48918243D01*
X98200268Y-48856603D01*
X98206582Y-48792500D01*
X98206582Y-47092500D01*
X98200268Y-47028397D01*
X98181570Y-46966757D01*
X98151206Y-46909950D01*
X98110343Y-46860157D01*
X98060550Y-46819294D01*
X98003743Y-46788930D01*
X97942103Y-46770232D01*
X97878000Y-46763918D01*
X96178000Y-46763918D01*
X96113897Y-46770232D01*
X96052257Y-46788930D01*
X95995450Y-46819294D01*
X95945657Y-46860157D01*
X95904794Y-46909950D01*
X95874430Y-46966757D01*
X95855732Y-47028397D01*
X95849418Y-47092500D01*
X95849418Y-47490500D01*
X94368251Y-47490500D01*
X94324544Y-47384981D01*
X94195736Y-47192206D01*
X94031794Y-47028264D01*
X93839019Y-46899456D01*
X93624818Y-46810731D01*
X93397424Y-46765500D01*
X93165576Y-46765500D01*
X92938182Y-46810731D01*
X92723981Y-46899456D01*
X92531206Y-47028264D01*
X92367264Y-47192206D01*
X92238456Y-47384981D01*
X92149731Y-47599182D01*
X92104500Y-47826576D01*
X92104500Y-48058424D01*
X92149731Y-48285818D01*
X92238456Y-48500019D01*
X92367264Y-48692794D01*
X92531206Y-48856736D01*
X92723981Y-48985544D01*
X92829501Y-49029252D01*
X92829500Y-57915275D01*
X90236777Y-60508000D01*
X85916339Y-60508000D01*
X85908698Y-60496564D01*
X85807436Y-60395302D01*
X85688364Y-60315741D01*
X85556058Y-60260938D01*
X85415603Y-60233000D01*
X85272397Y-60233000D01*
X85131942Y-60260938D01*
X84999636Y-60315741D01*
X84880564Y-60395302D01*
X84779302Y-60496564D01*
X84699741Y-60615636D01*
X84644938Y-60747942D01*
X84617000Y-60888397D01*
X84617000Y-61031603D01*
X84644938Y-61172058D01*
X84699741Y-61304364D01*
X84779302Y-61423436D01*
X84880564Y-61524698D01*
X84999636Y-61604259D01*
X85131942Y-61659062D01*
X85272397Y-61687000D01*
X85415603Y-61687000D01*
X85556058Y-61659062D01*
X85688364Y-61604259D01*
X85807436Y-61524698D01*
X85908698Y-61423436D01*
X85916339Y-61412000D01*
X89332776Y-61412000D01*
X86426777Y-64318000D01*
X78550339Y-64318000D01*
X78542698Y-64306564D01*
X78441436Y-64205302D01*
X78322364Y-64125741D01*
X78190058Y-64070938D01*
X78049603Y-64043000D01*
X77906397Y-64043000D01*
X77765942Y-64070938D01*
X77633636Y-64125741D01*
X77514564Y-64205302D01*
X77413302Y-64306564D01*
X77333741Y-64425636D01*
X77278938Y-64557942D01*
X77251000Y-64698397D01*
X74373999Y-64698397D01*
X74373999Y-63933224D01*
X74863225Y-63444000D01*
X77447795Y-63444000D01*
X77470000Y-63446187D01*
X77492205Y-63444000D01*
X77511588Y-63442091D01*
X77558607Y-63437460D01*
X77643810Y-63411614D01*
X77722333Y-63369643D01*
X77791159Y-63313159D01*
X77805323Y-63295900D01*
X80059911Y-61041314D01*
X80077159Y-61027159D01*
X80133643Y-60958333D01*
X80175614Y-60879810D01*
X80201460Y-60794607D01*
X80208000Y-60728205D01*
X80210187Y-60706001D01*
X80208000Y-60683796D01*
X80208000Y-57288076D01*
X80920000Y-57288076D01*
X80920000Y-57519924D01*
X80965231Y-57747318D01*
X81053956Y-57961519D01*
X81182764Y-58154294D01*
X81346706Y-58318236D01*
X81539481Y-58447044D01*
X81753682Y-58535769D01*
X81981076Y-58581000D01*
X82212924Y-58581000D01*
X82440318Y-58535769D01*
X82654519Y-58447044D01*
X82847294Y-58318236D01*
X83011236Y-58154294D01*
X83140044Y-57961519D01*
X83228769Y-57747318D01*
X83274000Y-57519924D01*
X83274000Y-57288076D01*
X83228769Y-57060682D01*
X83140044Y-56846481D01*
X83011236Y-56653706D01*
X82847294Y-56489764D01*
X82654519Y-56360956D01*
X82440318Y-56272231D01*
X82212924Y-56227000D01*
X81981076Y-56227000D01*
X81753682Y-56272231D01*
X81539481Y-56360956D01*
X81346706Y-56489764D01*
X81182764Y-56653706D01*
X81053956Y-56846481D01*
X80965231Y-57060682D01*
X80920000Y-57288076D01*
X80208000Y-57288076D01*
X80208000Y-53760000D01*
X87467418Y-53760000D01*
X87467418Y-55460000D01*
X87473732Y-55524103D01*
X87492430Y-55585743D01*
X87522794Y-55642550D01*
X87563657Y-55692343D01*
X87613450Y-55733206D01*
X87670257Y-55763570D01*
X87731897Y-55782268D01*
X87796000Y-55788582D01*
X89496000Y-55788582D01*
X89560103Y-55782268D01*
X89621743Y-55763570D01*
X89678550Y-55733206D01*
X89728343Y-55692343D01*
X89769206Y-55642550D01*
X89799570Y-55585743D01*
X89818268Y-55524103D01*
X89824582Y-55460000D01*
X89824582Y-55192592D01*
X89841843Y-55241252D01*
X89990822Y-55491355D01*
X90185731Y-55707588D01*
X90419080Y-55881641D01*
X90681901Y-56006825D01*
X90829110Y-56051476D01*
X91059000Y-55930155D01*
X91059000Y-54737000D01*
X91313000Y-54737000D01*
X91313000Y-55930155D01*
X91542890Y-56051476D01*
X91690099Y-56006825D01*
X91952920Y-55881641D01*
X92186269Y-55707588D01*
X92381178Y-55491355D01*
X92530157Y-55241252D01*
X92627481Y-54966891D01*
X92506814Y-54737000D01*
X91313000Y-54737000D01*
X91059000Y-54737000D01*
X91039000Y-54737000D01*
X91039000Y-54483000D01*
X91059000Y-54483000D01*
X91059000Y-53289845D01*
X91313000Y-53289845D01*
X91313000Y-54483000D01*
X92506814Y-54483000D01*
X92627481Y-54253109D01*
X92530157Y-53978748D01*
X92381178Y-53728645D01*
X92186269Y-53512412D01*
X91952920Y-53338359D01*
X91690099Y-53213175D01*
X91542890Y-53168524D01*
X91313000Y-53289845D01*
X91059000Y-53289845D01*
X90829110Y-53168524D01*
X90681901Y-53213175D01*
X90419080Y-53338359D01*
X90185731Y-53512412D01*
X89990822Y-53728645D01*
X89841843Y-53978748D01*
X89824582Y-54027408D01*
X89824582Y-53760000D01*
X89818268Y-53695897D01*
X89799570Y-53634257D01*
X89769206Y-53577450D01*
X89728343Y-53527657D01*
X89678550Y-53486794D01*
X89621743Y-53456430D01*
X89560103Y-53437732D01*
X89496000Y-53431418D01*
X87796000Y-53431418D01*
X87731897Y-53437732D01*
X87670257Y-53456430D01*
X87613450Y-53486794D01*
X87563657Y-53527657D01*
X87522794Y-53577450D01*
X87492430Y-53634257D01*
X87473732Y-53695897D01*
X87467418Y-53760000D01*
X80208000Y-53760000D01*
X80208000Y-46415223D01*
X80958450Y-45664773D01*
X80920000Y-45858076D01*
X80920000Y-46089924D01*
X80965231Y-46317318D01*
X81053956Y-46531519D01*
X81182764Y-46724294D01*
X81346706Y-46888236D01*
X81539481Y-47017044D01*
X81753682Y-47105769D01*
X81981076Y-47151000D01*
X82212924Y-47151000D01*
X82440318Y-47105769D01*
X82654519Y-47017044D01*
X82847294Y-46888236D01*
X83011236Y-46724294D01*
X83140044Y-46531519D01*
X83228769Y-46317318D01*
X83274000Y-46089924D01*
X83274000Y-45858076D01*
X83228769Y-45630682D01*
X83140044Y-45416481D01*
X83011236Y-45223706D01*
X82847294Y-45059764D01*
X82654519Y-44930956D01*
X82440318Y-44842231D01*
X82212924Y-44797000D01*
X81981076Y-44797000D01*
X81787774Y-44835450D01*
X85258908Y-41364317D01*
X85272397Y-41367000D01*
X85415603Y-41367000D01*
X85429093Y-41364317D01*
X85802089Y-41737313D01*
X85802094Y-41737317D01*
X87231181Y-43166405D01*
X87245341Y-43183659D01*
X87314167Y-43240143D01*
X87358803Y-43264001D01*
X87392690Y-43282114D01*
X87477892Y-43307960D01*
X87566500Y-43316687D01*
X87588705Y-43314500D01*
X92102918Y-43314500D01*
X92102918Y-43712500D01*
X92109232Y-43776603D01*
X92127930Y-43838243D01*
X92158294Y-43895050D01*
X92199157Y-43944843D01*
X92248950Y-43985706D01*
X92305757Y-44016070D01*
X92367397Y-44034768D01*
X92431500Y-44041082D01*
X94131500Y-44041082D01*
X94195603Y-44034768D01*
X94257243Y-44016070D01*
X94314050Y-43985706D01*
X94363843Y-43944843D01*
X94404706Y-43895050D01*
X94435070Y-43838243D01*
X94453768Y-43776603D01*
X94460082Y-43712500D01*
X94460082Y-43314500D01*
X95941249Y-43314500D01*
X95984956Y-43420019D01*
X96113764Y-43612794D01*
X96244970Y-43744000D01*
X95712286Y-43744000D01*
X95690081Y-43741813D01*
X95601473Y-43750540D01*
X95543286Y-43768191D01*
X95516271Y-43776386D01*
X95437748Y-43818357D01*
X95368922Y-43874841D01*
X95354762Y-43892095D01*
X94347194Y-44899664D01*
X94324544Y-44844981D01*
X94195736Y-44652206D01*
X94031794Y-44488264D01*
X93839019Y-44359456D01*
X93624818Y-44270731D01*
X93397424Y-44225500D01*
X93165576Y-44225500D01*
X92938182Y-44270731D01*
X92723981Y-44359456D01*
X92531206Y-44488264D01*
X92367264Y-44652206D01*
X92238456Y-44844981D01*
X92149731Y-45059182D01*
X92104500Y-45286576D01*
X92104500Y-45518424D01*
X92149731Y-45745818D01*
X92238456Y-45960019D01*
X92367264Y-46152794D01*
X92531206Y-46316736D01*
X92723981Y-46445544D01*
X92938182Y-46534269D01*
X93165576Y-46579500D01*
X93397424Y-46579500D01*
X93624818Y-46534269D01*
X93839019Y-46445544D01*
X94031794Y-46316736D01*
X94195736Y-46152794D01*
X94324544Y-45960019D01*
X94368251Y-45854500D01*
X94461376Y-45854500D01*
X94483581Y-45856687D01*
X94505786Y-45854500D01*
X94572188Y-45847960D01*
X94657391Y-45822114D01*
X94735914Y-45780143D01*
X94804740Y-45723659D01*
X94818904Y-45706400D01*
X95877305Y-44648000D01*
X96117970Y-44648000D01*
X96113764Y-44652206D01*
X95984956Y-44844981D01*
X95896231Y-45059182D01*
X95851000Y-45286576D01*
X95851000Y-45518424D01*
X95896231Y-45745818D01*
X95984956Y-45960019D01*
X96113764Y-46152794D01*
X96277706Y-46316736D01*
X96470481Y-46445544D01*
X96684682Y-46534269D01*
X96912076Y-46579500D01*
X97143924Y-46579500D01*
X97371318Y-46534269D01*
X97585519Y-46445544D01*
X97778294Y-46316736D01*
X97942236Y-46152794D01*
X98071044Y-45960019D01*
X98159769Y-45745818D01*
X98205000Y-45518424D01*
X98205000Y-45286576D01*
X98159769Y-45059182D01*
X98071044Y-44844981D01*
X97942236Y-44652206D01*
X97938030Y-44648000D01*
X98104142Y-44648000D01*
X98106938Y-44662058D01*
X98161741Y-44794364D01*
X98241302Y-44913436D01*
X98342564Y-45014698D01*
X98461636Y-45094259D01*
X98593942Y-45149062D01*
X98734397Y-45177000D01*
X98877603Y-45177000D01*
X99018058Y-45149062D01*
X99150364Y-45094259D01*
X99269436Y-45014698D01*
X99370698Y-44913436D01*
X99450259Y-44794364D01*
X99505062Y-44662058D01*
X99533000Y-44521603D01*
X99533000Y-44378397D01*
X99505062Y-44237942D01*
X99450259Y-44105636D01*
X99370698Y-43986564D01*
X99269436Y-43885302D01*
X99150364Y-43805741D01*
X99018058Y-43750938D01*
X98877603Y-43723000D01*
X98734397Y-43723000D01*
X98610734Y-43747598D01*
X98574205Y-43744000D01*
X98552000Y-43741813D01*
X98529795Y-43744000D01*
X97811030Y-43744000D01*
X97942236Y-43612794D01*
X98071044Y-43420019D01*
X98159769Y-43205818D01*
X98205000Y-42978424D01*
X98205000Y-42746576D01*
X98159769Y-42519182D01*
X98071044Y-42304981D01*
X97942236Y-42112206D01*
X97778294Y-41948264D01*
X97585519Y-41819456D01*
X97371318Y-41730731D01*
X97143924Y-41685500D01*
X96912076Y-41685500D01*
X96684682Y-41730731D01*
X96470481Y-41819456D01*
X96277706Y-41948264D01*
X96113764Y-42112206D01*
X95984956Y-42304981D01*
X95941249Y-42410500D01*
X94460082Y-42410500D01*
X94460082Y-42012500D01*
X94453768Y-41948397D01*
X94435070Y-41886757D01*
X94404706Y-41829950D01*
X94363843Y-41780157D01*
X94314050Y-41739294D01*
X94257243Y-41708930D01*
X94195603Y-41690232D01*
X94131500Y-41683918D01*
X92431500Y-41683918D01*
X92367397Y-41690232D01*
X92305757Y-41708930D01*
X92248950Y-41739294D01*
X92199157Y-41780157D01*
X92158294Y-41829950D01*
X92127930Y-41886757D01*
X92109232Y-41948397D01*
X92102918Y-42012500D01*
X92102918Y-42410500D01*
X87753724Y-42410500D01*
X86441317Y-41098094D01*
X86441313Y-41098089D01*
X86068317Y-40725093D01*
X86071000Y-40711603D01*
X86071000Y-40568397D01*
X86058370Y-40504897D01*
X112303000Y-40504897D01*
X112303000Y-40648103D01*
X112330938Y-40788558D01*
X112385741Y-40920864D01*
X112465302Y-41039936D01*
X112566564Y-41141198D01*
X112685636Y-41220759D01*
X112817942Y-41275562D01*
X112958397Y-41303500D01*
X113101603Y-41303500D01*
X113242058Y-41275562D01*
X113374364Y-41220759D01*
X113493436Y-41141198D01*
X113594698Y-41039936D01*
X113674259Y-40920864D01*
X113729062Y-40788558D01*
X113757000Y-40648103D01*
X113757000Y-40504897D01*
X113729062Y-40364442D01*
X113674259Y-40232136D01*
X113594698Y-40113064D01*
X113493436Y-40011802D01*
X113374364Y-39932241D01*
X113242058Y-39877438D01*
X113101603Y-39849500D01*
X112958397Y-39849500D01*
X112817942Y-39877438D01*
X112685636Y-39932241D01*
X112566564Y-40011802D01*
X112465302Y-40113064D01*
X112385741Y-40232136D01*
X112330938Y-40364442D01*
X112303000Y-40504897D01*
X86058370Y-40504897D01*
X86043062Y-40427942D01*
X85988259Y-40295636D01*
X85908698Y-40176564D01*
X85807436Y-40075302D01*
X85688364Y-39995741D01*
X85556058Y-39940938D01*
X85415603Y-39913000D01*
X85272397Y-39913000D01*
X85131942Y-39940938D01*
X84999636Y-39995741D01*
X84880564Y-40075302D01*
X84779302Y-40176564D01*
X84699741Y-40295636D01*
X84644938Y-40427942D01*
X84617000Y-40568397D01*
X84617000Y-40711603D01*
X84619683Y-40725092D01*
X79452100Y-45892677D01*
X79434841Y-45906841D01*
X79378357Y-45975668D01*
X79352571Y-46023911D01*
X79336386Y-46054191D01*
X79310540Y-46139393D01*
X79301813Y-46228000D01*
X79304000Y-46250205D01*
X79304001Y-60518774D01*
X77282777Y-62540000D01*
X74698202Y-62540000D01*
X74675999Y-62537813D01*
X74653796Y-62540000D01*
X74653795Y-62540000D01*
X74587393Y-62546540D01*
X74502190Y-62572386D01*
X74423667Y-62614357D01*
X74354841Y-62670841D01*
X74340685Y-62688090D01*
X73618099Y-63410678D01*
X73600840Y-63424842D01*
X73544357Y-63493668D01*
X73502385Y-63572192D01*
X73476539Y-63657394D01*
X73467812Y-63746001D01*
X71755000Y-63746001D01*
X71755000Y-57288076D01*
X73920000Y-57288076D01*
X73920000Y-57519924D01*
X73965231Y-57747318D01*
X74053956Y-57961519D01*
X74182764Y-58154294D01*
X74346706Y-58318236D01*
X74539481Y-58447044D01*
X74753682Y-58535769D01*
X74981076Y-58581000D01*
X75212924Y-58581000D01*
X75440318Y-58535769D01*
X75654519Y-58447044D01*
X75847294Y-58318236D01*
X76011236Y-58154294D01*
X76140044Y-57961519D01*
X76228769Y-57747318D01*
X76274000Y-57519924D01*
X76274000Y-57288076D01*
X76228769Y-57060682D01*
X76140044Y-56846481D01*
X76011236Y-56653706D01*
X75847294Y-56489764D01*
X75654519Y-56360956D01*
X75440318Y-56272231D01*
X75212924Y-56227000D01*
X74981076Y-56227000D01*
X74753682Y-56272231D01*
X74539481Y-56360956D01*
X74346706Y-56489764D01*
X74182764Y-56653706D01*
X74053956Y-56846481D01*
X73965231Y-57060682D01*
X73920000Y-57288076D01*
X71755000Y-57288076D01*
X71755000Y-45858076D01*
X73920000Y-45858076D01*
X73920000Y-46089924D01*
X73965231Y-46317318D01*
X74053956Y-46531519D01*
X74182764Y-46724294D01*
X74346706Y-46888236D01*
X74539481Y-47017044D01*
X74753682Y-47105769D01*
X74981076Y-47151000D01*
X75212924Y-47151000D01*
X75440318Y-47105769D01*
X75654519Y-47017044D01*
X75847294Y-46888236D01*
X76011236Y-46724294D01*
X76140044Y-46531519D01*
X76228769Y-46317318D01*
X76274000Y-46089924D01*
X76274000Y-45858076D01*
X76228769Y-45630682D01*
X76140044Y-45416481D01*
X76011236Y-45223706D01*
X75847294Y-45059764D01*
X75654519Y-44930956D01*
X75440318Y-44842231D01*
X75212924Y-44797000D01*
X74981076Y-44797000D01*
X74753682Y-44842231D01*
X74539481Y-44930956D01*
X74346706Y-45059764D01*
X74182764Y-45223706D01*
X74053956Y-45416481D01*
X73965231Y-45630682D01*
X73920000Y-45858076D01*
X71755000Y-45858076D01*
X71755000Y-36841076D01*
X108868500Y-36841076D01*
X108868500Y-37072924D01*
X108913731Y-37300318D01*
X109002456Y-37514519D01*
X109131264Y-37707294D01*
X109295206Y-37871236D01*
X109487981Y-38000044D01*
X109702182Y-38088769D01*
X109929576Y-38134000D01*
X110161424Y-38134000D01*
X110388818Y-38088769D01*
X110603019Y-38000044D01*
X110795794Y-37871236D01*
X110959736Y-37707294D01*
X111088544Y-37514519D01*
X111132251Y-37409000D01*
X111490011Y-37409000D01*
X111505438Y-37486558D01*
X111560241Y-37618864D01*
X111639802Y-37737936D01*
X111741064Y-37839198D01*
X111860136Y-37918759D01*
X111992442Y-37973562D01*
X112132897Y-38001500D01*
X112276103Y-38001500D01*
X112416558Y-37973562D01*
X112548864Y-37918759D01*
X112667936Y-37839198D01*
X112769198Y-37737936D01*
X112848759Y-37618864D01*
X112903562Y-37486558D01*
X112931500Y-37346103D01*
X112931500Y-37202897D01*
X112903562Y-37062442D01*
X112848759Y-36930136D01*
X112769198Y-36811064D01*
X112667936Y-36709802D01*
X112548864Y-36630241D01*
X112416558Y-36575438D01*
X112276103Y-36547500D01*
X112132897Y-36547500D01*
X112094151Y-36555207D01*
X112060810Y-36537386D01*
X111975607Y-36511540D01*
X111909205Y-36505000D01*
X111887000Y-36502813D01*
X111864795Y-36505000D01*
X111132251Y-36505000D01*
X111088544Y-36399481D01*
X110959736Y-36206706D01*
X110795794Y-36042764D01*
X110603019Y-35913956D01*
X110388818Y-35825231D01*
X110161424Y-35780000D01*
X109929576Y-35780000D01*
X109702182Y-35825231D01*
X109487981Y-35913956D01*
X109295206Y-36042764D01*
X109131264Y-36206706D01*
X109002456Y-36399481D01*
X108913731Y-36613682D01*
X108868500Y-36841076D01*
X71755000Y-36841076D01*
X71755000Y-34428076D01*
X73920000Y-34428076D01*
X73920000Y-34659924D01*
X73965231Y-34887318D01*
X74053956Y-35101519D01*
X74182764Y-35294294D01*
X74346706Y-35458236D01*
X74539481Y-35587044D01*
X74753682Y-35675769D01*
X74981076Y-35721000D01*
X75212924Y-35721000D01*
X75440318Y-35675769D01*
X75654519Y-35587044D01*
X75847294Y-35458236D01*
X76011236Y-35294294D01*
X76140044Y-35101519D01*
X76228769Y-34887318D01*
X76274000Y-34659924D01*
X76274000Y-34428076D01*
X80920000Y-34428076D01*
X80920000Y-34659924D01*
X80965231Y-34887318D01*
X81053956Y-35101519D01*
X81182764Y-35294294D01*
X81346706Y-35458236D01*
X81539481Y-35587044D01*
X81753682Y-35675769D01*
X81981076Y-35721000D01*
X82212924Y-35721000D01*
X82440318Y-35675769D01*
X82654519Y-35587044D01*
X82847294Y-35458236D01*
X83011236Y-35294294D01*
X83140044Y-35101519D01*
X83228769Y-34887318D01*
X83274000Y-34659924D01*
X83274000Y-34428076D01*
X83228769Y-34200682D01*
X83140044Y-33986481D01*
X83011236Y-33793706D01*
X82847294Y-33629764D01*
X82753361Y-33567000D01*
X108866918Y-33567000D01*
X108866918Y-35267000D01*
X108873232Y-35331103D01*
X108891930Y-35392743D01*
X108922294Y-35449550D01*
X108963157Y-35499343D01*
X109012950Y-35540206D01*
X109069757Y-35570570D01*
X109131397Y-35589268D01*
X109195500Y-35595582D01*
X110895500Y-35595582D01*
X110959603Y-35589268D01*
X111021243Y-35570570D01*
X111078050Y-35540206D01*
X111127843Y-35499343D01*
X111168706Y-35449550D01*
X111199070Y-35392743D01*
X111217768Y-35331103D01*
X111224082Y-35267000D01*
X111224082Y-34869000D01*
X114112777Y-34869000D01*
X114909183Y-35665407D01*
X114906500Y-35678897D01*
X114906500Y-35822103D01*
X114934438Y-35962558D01*
X114989241Y-36094864D01*
X115068802Y-36213936D01*
X115170064Y-36315198D01*
X115289136Y-36394759D01*
X115421442Y-36449562D01*
X115561897Y-36477500D01*
X115705103Y-36477500D01*
X115845558Y-36449562D01*
X115977864Y-36394759D01*
X116096936Y-36315198D01*
X116198198Y-36213936D01*
X116277759Y-36094864D01*
X116332562Y-35962558D01*
X116360500Y-35822103D01*
X116360500Y-35678897D01*
X116332562Y-35538442D01*
X116277759Y-35406136D01*
X116198198Y-35287064D01*
X116096936Y-35185802D01*
X115977864Y-35106241D01*
X115845558Y-35051438D01*
X115705103Y-35023500D01*
X115561897Y-35023500D01*
X115548407Y-35026183D01*
X114635323Y-34113100D01*
X114621159Y-34095841D01*
X114552333Y-34039357D01*
X114473810Y-33997386D01*
X114388607Y-33971540D01*
X114322205Y-33965000D01*
X114300000Y-33962813D01*
X114277795Y-33965000D01*
X111224082Y-33965000D01*
X111224082Y-33567000D01*
X111217768Y-33502897D01*
X111199070Y-33441257D01*
X111168706Y-33384450D01*
X111127843Y-33334657D01*
X111078050Y-33293794D01*
X111021243Y-33263430D01*
X110959603Y-33244732D01*
X110895500Y-33238418D01*
X109195500Y-33238418D01*
X109131397Y-33244732D01*
X109069757Y-33263430D01*
X109012950Y-33293794D01*
X108963157Y-33334657D01*
X108922294Y-33384450D01*
X108891930Y-33441257D01*
X108873232Y-33502897D01*
X108866918Y-33567000D01*
X82753361Y-33567000D01*
X82654519Y-33500956D01*
X82440318Y-33412231D01*
X82212924Y-33367000D01*
X81981076Y-33367000D01*
X81753682Y-33412231D01*
X81539481Y-33500956D01*
X81346706Y-33629764D01*
X81182764Y-33793706D01*
X81053956Y-33986481D01*
X80965231Y-34200682D01*
X80920000Y-34428076D01*
X76274000Y-34428076D01*
X76228769Y-34200682D01*
X76140044Y-33986481D01*
X76011236Y-33793706D01*
X75847294Y-33629764D01*
X75654519Y-33500956D01*
X75440318Y-33412231D01*
X75212924Y-33367000D01*
X74981076Y-33367000D01*
X74753682Y-33412231D01*
X74539481Y-33500956D01*
X74346706Y-33629764D01*
X74182764Y-33793706D01*
X74053956Y-33986481D01*
X73965231Y-34200682D01*
X73920000Y-34428076D01*
X71755000Y-34428076D01*
X71755000Y-31154000D01*
X87467418Y-31154000D01*
X87467418Y-32854000D01*
X87473732Y-32918103D01*
X87492430Y-32979743D01*
X87522794Y-33036550D01*
X87563657Y-33086343D01*
X87613450Y-33127206D01*
X87670257Y-33157570D01*
X87731897Y-33176268D01*
X87796000Y-33182582D01*
X89496000Y-33182582D01*
X89560103Y-33176268D01*
X89621743Y-33157570D01*
X89678550Y-33127206D01*
X89728343Y-33086343D01*
X89769206Y-33036550D01*
X89799570Y-32979743D01*
X89818268Y-32918103D01*
X89824582Y-32854000D01*
X89824582Y-32586592D01*
X89841843Y-32635252D01*
X89990822Y-32885355D01*
X90185731Y-33101588D01*
X90419080Y-33275641D01*
X90681901Y-33400825D01*
X90829110Y-33445476D01*
X91059000Y-33324155D01*
X91059000Y-32131000D01*
X91313000Y-32131000D01*
X91313000Y-33324155D01*
X91542890Y-33445476D01*
X91690099Y-33400825D01*
X91952920Y-33275641D01*
X92186269Y-33101588D01*
X92381178Y-32885355D01*
X92530157Y-32635252D01*
X92627481Y-32360891D01*
X92506814Y-32131000D01*
X91313000Y-32131000D01*
X91059000Y-32131000D01*
X91039000Y-32131000D01*
X91039000Y-31877000D01*
X91059000Y-31877000D01*
X91059000Y-30683845D01*
X91313000Y-30683845D01*
X91313000Y-31877000D01*
X92506814Y-31877000D01*
X92627481Y-31647109D01*
X92530157Y-31372748D01*
X92381178Y-31122645D01*
X92186269Y-30906412D01*
X91952920Y-30732359D01*
X91806037Y-30662397D01*
X113700000Y-30662397D01*
X113700000Y-30805603D01*
X113727938Y-30946058D01*
X113782741Y-31078364D01*
X113862302Y-31197436D01*
X113963564Y-31298698D01*
X114082636Y-31378259D01*
X114214942Y-31433062D01*
X114355397Y-31461000D01*
X114498603Y-31461000D01*
X114639058Y-31433062D01*
X114771364Y-31378259D01*
X114890436Y-31298698D01*
X114991698Y-31197436D01*
X115071259Y-31078364D01*
X115126062Y-30946058D01*
X115154000Y-30805603D01*
X115154000Y-30662397D01*
X115145656Y-30620447D01*
X116090744Y-29593178D01*
X116103107Y-29591960D01*
X116188310Y-29566114D01*
X116266833Y-29524143D01*
X116335659Y-29467659D01*
X116349823Y-29450400D01*
X120381705Y-25418520D01*
X139711477Y-25418520D01*
X141078481Y-26785526D01*
X141078480Y-32743220D01*
X134242019Y-39579682D01*
X134242013Y-39579687D01*
X133906017Y-39915684D01*
X133892527Y-39913001D01*
X133749321Y-39913001D01*
X133608866Y-39940939D01*
X133476560Y-39995742D01*
X133357488Y-40075303D01*
X133256226Y-40176565D01*
X133176665Y-40295637D01*
X133121862Y-40427943D01*
X133093924Y-40568398D01*
X133093924Y-40711604D01*
X133121862Y-40852059D01*
X133176665Y-40984365D01*
X133256226Y-41103437D01*
X133357488Y-41204699D01*
X133476560Y-41284260D01*
X133608866Y-41339063D01*
X133749321Y-41367001D01*
X133892527Y-41367001D01*
X134032982Y-41339063D01*
X134147000Y-41291835D01*
X134147000Y-41346603D01*
X134174938Y-41487058D01*
X134229741Y-41619364D01*
X134309302Y-41738436D01*
X134410564Y-41839698D01*
X134529636Y-41919259D01*
X134661942Y-41974062D01*
X134802397Y-42002000D01*
X134945603Y-42002000D01*
X135086058Y-41974062D01*
X135218364Y-41919259D01*
X135337436Y-41839698D01*
X135438698Y-41738436D01*
X135518259Y-41619364D01*
X135573062Y-41487058D01*
X135601000Y-41346603D01*
X135601000Y-41220016D01*
X135669929Y-41248567D01*
X135810384Y-41276505D01*
X135953590Y-41276505D01*
X136094045Y-41248567D01*
X136226351Y-41193764D01*
X136345423Y-41114203D01*
X136446685Y-41012941D01*
X136526246Y-40893869D01*
X136581049Y-40761563D01*
X136607244Y-40629867D01*
X145351972Y-40629867D01*
X146111500Y-41389395D01*
X146871028Y-40629867D01*
X146808535Y-40393550D01*
X146565822Y-40280150D01*
X146448672Y-40251391D01*
X147268038Y-40251391D01*
X147392769Y-40442000D01*
X148684500Y-40442000D01*
X148684500Y-39334000D01*
X148334500Y-39334000D01*
X148096004Y-39382507D01*
X147871554Y-39476610D01*
X147669775Y-39612693D01*
X147498422Y-39785526D01*
X147364079Y-39988467D01*
X147271909Y-40213718D01*
X147268038Y-40251391D01*
X146448672Y-40251391D01*
X146305651Y-40216281D01*
X146038018Y-40204396D01*
X145773209Y-40244952D01*
X145521400Y-40336391D01*
X145414465Y-40393550D01*
X145351972Y-40629867D01*
X136607244Y-40629867D01*
X136608987Y-40621108D01*
X136608987Y-40477902D01*
X136606689Y-40466347D01*
X136659629Y-40401839D01*
X136701600Y-40323316D01*
X136719047Y-40265802D01*
X136727446Y-40238114D01*
X136736173Y-40149507D01*
X136733986Y-40127302D01*
X136733986Y-39638981D01*
X142734406Y-33638562D01*
X142751659Y-33624403D01*
X142808143Y-33555577D01*
X142850114Y-33477054D01*
X142875960Y-33391851D01*
X142882500Y-33325449D01*
X142882500Y-33325448D01*
X142884687Y-33303244D01*
X142882500Y-33281039D01*
X142882500Y-27054481D01*
X144829124Y-27054481D01*
X145141308Y-27503177D01*
X145737259Y-27823612D01*
X146384273Y-28021626D01*
X147057484Y-28089610D01*
X147731023Y-28024949D01*
X148379006Y-27830130D01*
X148976530Y-27512639D01*
X148990692Y-27503177D01*
X149302876Y-27054481D01*
X147066000Y-24817605D01*
X144829124Y-27054481D01*
X142882500Y-27054481D01*
X142882500Y-26247704D01*
X142884687Y-26225499D01*
X142875960Y-26136892D01*
X142850114Y-26051690D01*
X142815086Y-25986157D01*
X142808143Y-25973167D01*
X142751659Y-25904341D01*
X142734411Y-25890186D01*
X141473708Y-24629484D01*
X143614390Y-24629484D01*
X143679051Y-25303023D01*
X143873870Y-25951006D01*
X144191361Y-26548530D01*
X144200823Y-26562692D01*
X144649519Y-26874876D01*
X146886395Y-24638000D01*
X144649519Y-22401124D01*
X144200823Y-22713308D01*
X143880388Y-23309259D01*
X143682374Y-23956273D01*
X143614390Y-24629484D01*
X141473708Y-24629484D01*
X140606823Y-23762600D01*
X140592659Y-23745341D01*
X140523833Y-23688857D01*
X140445310Y-23646886D01*
X140360107Y-23621040D01*
X140293705Y-23614500D01*
X140271500Y-23612313D01*
X140249295Y-23614500D01*
X118957704Y-23614500D01*
X118935499Y-23612313D01*
X118846892Y-23621040D01*
X118764327Y-23646086D01*
X118761690Y-23646886D01*
X118683167Y-23688857D01*
X118614341Y-23745341D01*
X118600186Y-23762589D01*
X115456599Y-26906178D01*
X115456588Y-26906187D01*
X115020093Y-27342683D01*
X115006603Y-27340000D01*
X114863397Y-27340000D01*
X114722942Y-27367938D01*
X114590636Y-27422741D01*
X114471564Y-27502302D01*
X114370302Y-27603564D01*
X114290741Y-27722636D01*
X114235938Y-27854942D01*
X114208000Y-27995397D01*
X114208000Y-28138603D01*
X114235938Y-28279058D01*
X114290741Y-28411364D01*
X114370302Y-28530436D01*
X114455263Y-28615397D01*
X114341942Y-28637938D01*
X114209636Y-28692741D01*
X114090564Y-28772302D01*
X113989302Y-28873564D01*
X113909741Y-28992636D01*
X113854938Y-29124942D01*
X113827000Y-29265397D01*
X113827000Y-29408603D01*
X113854938Y-29549058D01*
X113909741Y-29681364D01*
X113989302Y-29800436D01*
X114090564Y-29901698D01*
X114209636Y-29981259D01*
X114298907Y-30018236D01*
X114214942Y-30034938D01*
X114082636Y-30089741D01*
X113963564Y-30169302D01*
X113862302Y-30270564D01*
X113782741Y-30389636D01*
X113727938Y-30521942D01*
X113700000Y-30662397D01*
X91806037Y-30662397D01*
X91690099Y-30607175D01*
X91542890Y-30562524D01*
X91313000Y-30683845D01*
X91059000Y-30683845D01*
X90829110Y-30562524D01*
X90681901Y-30607175D01*
X90419080Y-30732359D01*
X90185731Y-30906412D01*
X89990822Y-31122645D01*
X89841843Y-31372748D01*
X89824582Y-31421408D01*
X89824582Y-31154000D01*
X89818268Y-31089897D01*
X89799570Y-31028257D01*
X89769206Y-30971450D01*
X89728343Y-30921657D01*
X89678550Y-30880794D01*
X89621743Y-30850430D01*
X89560103Y-30831732D01*
X89496000Y-30825418D01*
X87796000Y-30825418D01*
X87731897Y-30831732D01*
X87670257Y-30850430D01*
X87613450Y-30880794D01*
X87563657Y-30921657D01*
X87522794Y-30971450D01*
X87492430Y-31028257D01*
X87473732Y-31089897D01*
X87467418Y-31154000D01*
X71755000Y-31154000D01*
X71755000Y-27054481D01*
X72439124Y-27054481D01*
X72751308Y-27503177D01*
X73347259Y-27823612D01*
X73994273Y-28021626D01*
X74667484Y-28089610D01*
X75341023Y-28024949D01*
X75989006Y-27830130D01*
X76586530Y-27512639D01*
X76600692Y-27503177D01*
X76912876Y-27054481D01*
X74676000Y-24817605D01*
X72439124Y-27054481D01*
X71755000Y-27054481D01*
X71755000Y-26461278D01*
X71801361Y-26548530D01*
X71810823Y-26562692D01*
X72259519Y-26874876D01*
X74496395Y-24638000D01*
X74855605Y-24638000D01*
X77092481Y-26874876D01*
X77541177Y-26562692D01*
X77861612Y-25966741D01*
X78059626Y-25319727D01*
X78127610Y-24646516D01*
X78062949Y-23972977D01*
X77868130Y-23324994D01*
X77550639Y-22727470D01*
X77541177Y-22713308D01*
X77092481Y-22401124D01*
X74855605Y-24638000D01*
X74496395Y-24638000D01*
X74482253Y-24623858D01*
X74661858Y-24444253D01*
X74676000Y-24458395D01*
X76912876Y-22221519D01*
X76600692Y-21772823D01*
X76496872Y-21717000D01*
X145242722Y-21717000D01*
X145155470Y-21763361D01*
M02*
