G04 #@! TF.GenerationSoftware,KiCad,Pcbnew,(5.1.5-0-10_14)*
G04 #@! TF.CreationDate,2020-03-25T22:17:50-07:00*
G04 #@! TF.ProjectId,EOGee,454f4765-652e-46b6-9963-61645f706362,rev?*
G04 #@! TF.SameCoordinates,Original*
G04 #@! TF.FileFunction,Legend,Top*
G04 #@! TF.FilePolarity,Positive*
%FSLAX46Y46*%
G04 Gerber Fmt 4.6, Leading zero omitted, Abs format (unit mm)*
G04 Created by KiCad (PCBNEW (5.1.5-0-10_14)) date 2020-03-25 22:17:50*
%MOMM*%
%LPD*%
G04 APERTURE LIST*
%ADD10C,0.125000*%
%ADD11C,0.160000*%
%ADD12C,0.120000*%
%ADD13C,0.300000*%
%ADD14C,0.150000*%
G04 APERTURE END LIST*
D10*
X136231428Y-25231285D02*
X135981428Y-24874142D01*
X135802857Y-25231285D02*
X135802857Y-24481285D01*
X136088571Y-24481285D01*
X136160000Y-24517000D01*
X136195714Y-24552714D01*
X136231428Y-24624142D01*
X136231428Y-24731285D01*
X136195714Y-24802714D01*
X136160000Y-24838428D01*
X136088571Y-24874142D01*
X135802857Y-24874142D01*
X136838571Y-25195571D02*
X136767142Y-25231285D01*
X136624285Y-25231285D01*
X136552857Y-25195571D01*
X136517142Y-25124142D01*
X136517142Y-24838428D01*
X136552857Y-24767000D01*
X136624285Y-24731285D01*
X136767142Y-24731285D01*
X136838571Y-24767000D01*
X136874285Y-24838428D01*
X136874285Y-24909857D01*
X136517142Y-24981285D01*
X137160000Y-25195571D02*
X137231428Y-25231285D01*
X137374285Y-25231285D01*
X137445714Y-25195571D01*
X137481428Y-25124142D01*
X137481428Y-25088428D01*
X137445714Y-25017000D01*
X137374285Y-24981285D01*
X137267142Y-24981285D01*
X137195714Y-24945571D01*
X137160000Y-24874142D01*
X137160000Y-24838428D01*
X137195714Y-24767000D01*
X137267142Y-24731285D01*
X137374285Y-24731285D01*
X137445714Y-24767000D01*
X138088571Y-25195571D02*
X138017142Y-25231285D01*
X137874285Y-25231285D01*
X137802857Y-25195571D01*
X137767142Y-25124142D01*
X137767142Y-24838428D01*
X137802857Y-24767000D01*
X137874285Y-24731285D01*
X138017142Y-24731285D01*
X138088571Y-24767000D01*
X138124285Y-24838428D01*
X138124285Y-24909857D01*
X137767142Y-24981285D01*
X138338571Y-24731285D02*
X138624285Y-24731285D01*
X138445714Y-24481285D02*
X138445714Y-25124142D01*
X138481428Y-25195571D01*
X138552857Y-25231285D01*
X138624285Y-25231285D01*
X132764714Y-24838428D02*
X132871857Y-24874142D01*
X132907571Y-24909857D01*
X132943285Y-24981285D01*
X132943285Y-25088428D01*
X132907571Y-25159857D01*
X132871857Y-25195571D01*
X132800428Y-25231285D01*
X132514714Y-25231285D01*
X132514714Y-24481285D01*
X132764714Y-24481285D01*
X132836142Y-24517000D01*
X132871857Y-24552714D01*
X132907571Y-24624142D01*
X132907571Y-24695571D01*
X132871857Y-24767000D01*
X132836142Y-24802714D01*
X132764714Y-24838428D01*
X132514714Y-24838428D01*
X133371857Y-25231285D02*
X133300428Y-25195571D01*
X133264714Y-25159857D01*
X133229000Y-25088428D01*
X133229000Y-24874142D01*
X133264714Y-24802714D01*
X133300428Y-24767000D01*
X133371857Y-24731285D01*
X133479000Y-24731285D01*
X133550428Y-24767000D01*
X133586142Y-24802714D01*
X133621857Y-24874142D01*
X133621857Y-25088428D01*
X133586142Y-25159857D01*
X133550428Y-25195571D01*
X133479000Y-25231285D01*
X133371857Y-25231285D01*
X134050428Y-25231285D02*
X133979000Y-25195571D01*
X133943285Y-25159857D01*
X133907571Y-25088428D01*
X133907571Y-24874142D01*
X133943285Y-24802714D01*
X133979000Y-24767000D01*
X134050428Y-24731285D01*
X134157571Y-24731285D01*
X134229000Y-24767000D01*
X134264714Y-24802714D01*
X134300428Y-24874142D01*
X134300428Y-25088428D01*
X134264714Y-25159857D01*
X134229000Y-25195571D01*
X134157571Y-25231285D01*
X134050428Y-25231285D01*
X134514714Y-24731285D02*
X134800428Y-24731285D01*
X134621857Y-24481285D02*
X134621857Y-25124142D01*
X134657571Y-25195571D01*
X134729000Y-25231285D01*
X134800428Y-25231285D01*
D11*
X125713285Y-58492714D02*
X125756142Y-58364142D01*
X125756142Y-58149857D01*
X125713285Y-58064142D01*
X125670428Y-58021285D01*
X125584714Y-57978428D01*
X125499000Y-57978428D01*
X125413285Y-58021285D01*
X125370428Y-58064142D01*
X125327571Y-58149857D01*
X125284714Y-58321285D01*
X125241857Y-58407000D01*
X125199000Y-58449857D01*
X125113285Y-58492714D01*
X125027571Y-58492714D01*
X124941857Y-58449857D01*
X124899000Y-58407000D01*
X124856142Y-58321285D01*
X124856142Y-58107000D01*
X124899000Y-57978428D01*
X125156142Y-57721285D02*
X125156142Y-57378428D01*
X124856142Y-57592714D02*
X125627571Y-57592714D01*
X125713285Y-57549857D01*
X125756142Y-57464142D01*
X125756142Y-57378428D01*
X125756142Y-56692714D02*
X125284714Y-56692714D01*
X125199000Y-56735571D01*
X125156142Y-56821285D01*
X125156142Y-56992714D01*
X125199000Y-57078428D01*
X125713285Y-56692714D02*
X125756142Y-56778428D01*
X125756142Y-56992714D01*
X125713285Y-57078428D01*
X125627571Y-57121285D01*
X125541857Y-57121285D01*
X125456142Y-57078428D01*
X125413285Y-56992714D01*
X125413285Y-56778428D01*
X125370428Y-56692714D01*
X125156142Y-55878428D02*
X125884714Y-55878428D01*
X125970428Y-55921285D01*
X126013285Y-55964142D01*
X126056142Y-56049857D01*
X126056142Y-56178428D01*
X126013285Y-56264142D01*
X125713285Y-55878428D02*
X125756142Y-55964142D01*
X125756142Y-56135571D01*
X125713285Y-56221285D01*
X125670428Y-56264142D01*
X125584714Y-56307000D01*
X125327571Y-56307000D01*
X125241857Y-56264142D01*
X125199000Y-56221285D01*
X125156142Y-56135571D01*
X125156142Y-55964142D01*
X125199000Y-55878428D01*
X125713285Y-55107000D02*
X125756142Y-55192714D01*
X125756142Y-55364142D01*
X125713285Y-55449857D01*
X125627571Y-55492714D01*
X125284714Y-55492714D01*
X125199000Y-55449857D01*
X125156142Y-55364142D01*
X125156142Y-55192714D01*
X125199000Y-55107000D01*
X125284714Y-55064142D01*
X125370428Y-55064142D01*
X125456142Y-55492714D01*
X124856142Y-54078428D02*
X124856142Y-53521285D01*
X125199000Y-53821285D01*
X125199000Y-53692714D01*
X125241857Y-53607000D01*
X125284714Y-53564142D01*
X125370428Y-53521285D01*
X125584714Y-53521285D01*
X125670428Y-53564142D01*
X125713285Y-53607000D01*
X125756142Y-53692714D01*
X125756142Y-53949857D01*
X125713285Y-54035571D01*
X125670428Y-54078428D01*
X93203071Y-60982142D02*
X93503071Y-61882142D01*
X93803071Y-60982142D01*
X94103071Y-61882142D02*
X94103071Y-61282142D01*
X94103071Y-61453571D02*
X94145928Y-61367857D01*
X94188785Y-61325000D01*
X94274500Y-61282142D01*
X94360214Y-61282142D01*
X95003071Y-61839285D02*
X94917357Y-61882142D01*
X94745928Y-61882142D01*
X94660214Y-61839285D01*
X94617357Y-61753571D01*
X94617357Y-61410714D01*
X94660214Y-61325000D01*
X94745928Y-61282142D01*
X94917357Y-61282142D01*
X95003071Y-61325000D01*
X95045928Y-61410714D01*
X95045928Y-61496428D01*
X94617357Y-61582142D01*
X95303071Y-61282142D02*
X95645928Y-61282142D01*
X95431642Y-61882142D02*
X95431642Y-61110714D01*
X95474500Y-61025000D01*
X95560214Y-60982142D01*
X95645928Y-60982142D01*
X91853071Y-63392142D02*
X91853071Y-62492142D01*
X91853071Y-62835000D02*
X91938785Y-62792142D01*
X92110214Y-62792142D01*
X92195928Y-62835000D01*
X92238785Y-62877857D01*
X92281642Y-62963571D01*
X92281642Y-63220714D01*
X92238785Y-63306428D01*
X92195928Y-63349285D01*
X92110214Y-63392142D01*
X91938785Y-63392142D01*
X91853071Y-63349285D01*
X93053071Y-62792142D02*
X93053071Y-63392142D01*
X92667357Y-62792142D02*
X92667357Y-63263571D01*
X92710214Y-63349285D01*
X92795928Y-63392142D01*
X92924500Y-63392142D01*
X93010214Y-63349285D01*
X93053071Y-63306428D01*
X93353071Y-62792142D02*
X93695928Y-62792142D01*
X93481642Y-63392142D02*
X93481642Y-62620714D01*
X93524500Y-62535000D01*
X93610214Y-62492142D01*
X93695928Y-62492142D01*
X93867357Y-62792142D02*
X94210214Y-62792142D01*
X93995928Y-63392142D02*
X93995928Y-62620714D01*
X94038785Y-62535000D01*
X94124500Y-62492142D01*
X94210214Y-62492142D01*
X94853071Y-63349285D02*
X94767357Y-63392142D01*
X94595928Y-63392142D01*
X94510214Y-63349285D01*
X94467357Y-63263571D01*
X94467357Y-62920714D01*
X94510214Y-62835000D01*
X94595928Y-62792142D01*
X94767357Y-62792142D01*
X94853071Y-62835000D01*
X94895928Y-62920714D01*
X94895928Y-63006428D01*
X94467357Y-63092142D01*
X95281642Y-63392142D02*
X95281642Y-62792142D01*
X95281642Y-62963571D02*
X95324500Y-62877857D01*
X95367357Y-62835000D01*
X95453071Y-62792142D01*
X95538785Y-62792142D01*
X96181642Y-63349285D02*
X96095928Y-63392142D01*
X95924500Y-63392142D01*
X95838785Y-63349285D01*
X95795928Y-63263571D01*
X95795928Y-62920714D01*
X95838785Y-62835000D01*
X95924500Y-62792142D01*
X96095928Y-62792142D01*
X96181642Y-62835000D01*
X96224500Y-62920714D01*
X96224500Y-63006428D01*
X95795928Y-63092142D01*
X96995928Y-63392142D02*
X96995928Y-62492142D01*
X96995928Y-63349285D02*
X96910214Y-63392142D01*
X96738785Y-63392142D01*
X96653071Y-63349285D01*
X96610214Y-63306428D01*
X96567357Y-63220714D01*
X96567357Y-62963571D01*
X96610214Y-62877857D01*
X96653071Y-62835000D01*
X96738785Y-62792142D01*
X96910214Y-62792142D01*
X96995928Y-62835000D01*
X121204785Y-53920714D02*
X121247642Y-53792142D01*
X121247642Y-53577857D01*
X121204785Y-53492142D01*
X121161928Y-53449285D01*
X121076214Y-53406428D01*
X120990500Y-53406428D01*
X120904785Y-53449285D01*
X120861928Y-53492142D01*
X120819071Y-53577857D01*
X120776214Y-53749285D01*
X120733357Y-53835000D01*
X120690500Y-53877857D01*
X120604785Y-53920714D01*
X120519071Y-53920714D01*
X120433357Y-53877857D01*
X120390500Y-53835000D01*
X120347642Y-53749285D01*
X120347642Y-53535000D01*
X120390500Y-53406428D01*
X120647642Y-53149285D02*
X120647642Y-52806428D01*
X120347642Y-53020714D02*
X121119071Y-53020714D01*
X121204785Y-52977857D01*
X121247642Y-52892142D01*
X121247642Y-52806428D01*
X121247642Y-52120714D02*
X120776214Y-52120714D01*
X120690500Y-52163571D01*
X120647642Y-52249285D01*
X120647642Y-52420714D01*
X120690500Y-52506428D01*
X121204785Y-52120714D02*
X121247642Y-52206428D01*
X121247642Y-52420714D01*
X121204785Y-52506428D01*
X121119071Y-52549285D01*
X121033357Y-52549285D01*
X120947642Y-52506428D01*
X120904785Y-52420714D01*
X120904785Y-52206428D01*
X120861928Y-52120714D01*
X120647642Y-51306428D02*
X121376214Y-51306428D01*
X121461928Y-51349285D01*
X121504785Y-51392142D01*
X121547642Y-51477857D01*
X121547642Y-51606428D01*
X121504785Y-51692142D01*
X121204785Y-51306428D02*
X121247642Y-51392142D01*
X121247642Y-51563571D01*
X121204785Y-51649285D01*
X121161928Y-51692142D01*
X121076214Y-51735000D01*
X120819071Y-51735000D01*
X120733357Y-51692142D01*
X120690500Y-51649285D01*
X120647642Y-51563571D01*
X120647642Y-51392142D01*
X120690500Y-51306428D01*
X121204785Y-50535000D02*
X121247642Y-50620714D01*
X121247642Y-50792142D01*
X121204785Y-50877857D01*
X121119071Y-50920714D01*
X120776214Y-50920714D01*
X120690500Y-50877857D01*
X120647642Y-50792142D01*
X120647642Y-50620714D01*
X120690500Y-50535000D01*
X120776214Y-50492142D01*
X120861928Y-50492142D01*
X120947642Y-50920714D01*
X120433357Y-49463571D02*
X120390500Y-49420714D01*
X120347642Y-49335000D01*
X120347642Y-49120714D01*
X120390500Y-49035000D01*
X120433357Y-48992142D01*
X120519071Y-48949285D01*
X120604785Y-48949285D01*
X120733357Y-48992142D01*
X121247642Y-49506428D01*
X121247642Y-48949285D01*
X100365428Y-71651000D02*
X100794000Y-71651000D01*
X100279714Y-71908142D02*
X100579714Y-71008142D01*
X100879714Y-71908142D01*
X101179714Y-71908142D02*
X101179714Y-71008142D01*
X101394000Y-71008142D01*
X101522571Y-71051000D01*
X101608285Y-71136714D01*
X101651142Y-71222428D01*
X101694000Y-71393857D01*
X101694000Y-71522428D01*
X101651142Y-71693857D01*
X101608285Y-71779571D01*
X101522571Y-71865285D01*
X101394000Y-71908142D01*
X101179714Y-71908142D01*
X102208285Y-71393857D02*
X102122571Y-71351000D01*
X102079714Y-71308142D01*
X102036857Y-71222428D01*
X102036857Y-71179571D01*
X102079714Y-71093857D01*
X102122571Y-71051000D01*
X102208285Y-71008142D01*
X102379714Y-71008142D01*
X102465428Y-71051000D01*
X102508285Y-71093857D01*
X102551142Y-71179571D01*
X102551142Y-71222428D01*
X102508285Y-71308142D01*
X102465428Y-71351000D01*
X102379714Y-71393857D01*
X102208285Y-71393857D01*
X102122571Y-71436714D01*
X102079714Y-71479571D01*
X102036857Y-71565285D01*
X102036857Y-71736714D01*
X102079714Y-71822428D01*
X102122571Y-71865285D01*
X102208285Y-71908142D01*
X102379714Y-71908142D01*
X102465428Y-71865285D01*
X102508285Y-71822428D01*
X102551142Y-71736714D01*
X102551142Y-71565285D01*
X102508285Y-71479571D01*
X102465428Y-71436714D01*
X102379714Y-71393857D01*
X102894000Y-71093857D02*
X102936857Y-71051000D01*
X103022571Y-71008142D01*
X103236857Y-71008142D01*
X103322571Y-71051000D01*
X103365428Y-71093857D01*
X103408285Y-71179571D01*
X103408285Y-71265285D01*
X103365428Y-71393857D01*
X102851142Y-71908142D01*
X103408285Y-71908142D01*
X103751142Y-71093857D02*
X103794000Y-71051000D01*
X103879714Y-71008142D01*
X104094000Y-71008142D01*
X104179714Y-71051000D01*
X104222571Y-71093857D01*
X104265428Y-71179571D01*
X104265428Y-71265285D01*
X104222571Y-71393857D01*
X103708285Y-71908142D01*
X104265428Y-71908142D01*
X105036857Y-71008142D02*
X104865428Y-71008142D01*
X104779714Y-71051000D01*
X104736857Y-71093857D01*
X104651142Y-71222428D01*
X104608285Y-71393857D01*
X104608285Y-71736714D01*
X104651142Y-71822428D01*
X104694000Y-71865285D01*
X104779714Y-71908142D01*
X104951142Y-71908142D01*
X105036857Y-71865285D01*
X105079714Y-71822428D01*
X105122571Y-71736714D01*
X105122571Y-71522428D01*
X105079714Y-71436714D01*
X105036857Y-71393857D01*
X104951142Y-71351000D01*
X104779714Y-71351000D01*
X104694000Y-71393857D01*
X104651142Y-71436714D01*
X104608285Y-71522428D01*
X106065428Y-71008142D02*
X106365428Y-71908142D01*
X106665428Y-71008142D01*
X106965428Y-71908142D02*
X106965428Y-71308142D01*
X106965428Y-71479571D02*
X107008285Y-71393857D01*
X107051142Y-71351000D01*
X107136857Y-71308142D01*
X107222571Y-71308142D01*
X107865428Y-71865285D02*
X107779714Y-71908142D01*
X107608285Y-71908142D01*
X107522571Y-71865285D01*
X107479714Y-71779571D01*
X107479714Y-71436714D01*
X107522571Y-71351000D01*
X107608285Y-71308142D01*
X107779714Y-71308142D01*
X107865428Y-71351000D01*
X107908285Y-71436714D01*
X107908285Y-71522428D01*
X107479714Y-71608142D01*
X108165428Y-71308142D02*
X108508285Y-71308142D01*
X108294000Y-71908142D02*
X108294000Y-71136714D01*
X108336857Y-71051000D01*
X108422571Y-71008142D01*
X108508285Y-71008142D01*
X100227000Y-69611142D02*
X100527000Y-70511142D01*
X100827000Y-69611142D01*
X101512714Y-70511142D02*
X101512714Y-69611142D01*
X101512714Y-70468285D02*
X101427000Y-70511142D01*
X101255571Y-70511142D01*
X101169857Y-70468285D01*
X101127000Y-70425428D01*
X101084142Y-70339714D01*
X101084142Y-70082571D01*
X101127000Y-69996857D01*
X101169857Y-69954000D01*
X101255571Y-69911142D01*
X101427000Y-69911142D01*
X101512714Y-69954000D01*
X102327000Y-70511142D02*
X102327000Y-70039714D01*
X102284142Y-69954000D01*
X102198428Y-69911142D01*
X102027000Y-69911142D01*
X101941285Y-69954000D01*
X102327000Y-70468285D02*
X102241285Y-70511142D01*
X102027000Y-70511142D01*
X101941285Y-70468285D01*
X101898428Y-70382571D01*
X101898428Y-70296857D01*
X101941285Y-70211142D01*
X102027000Y-70168285D01*
X102241285Y-70168285D01*
X102327000Y-70125428D01*
X103141285Y-70468285D02*
X103055571Y-70511142D01*
X102884142Y-70511142D01*
X102798428Y-70468285D01*
X102755571Y-70425428D01*
X102712714Y-70339714D01*
X102712714Y-70082571D01*
X102755571Y-69996857D01*
X102798428Y-69954000D01*
X102884142Y-69911142D01*
X103055571Y-69911142D01*
X103141285Y-69954000D01*
X105412571Y-69674642D02*
X105712571Y-70574642D01*
X106012571Y-69674642D01*
X106312571Y-70574642D02*
X106312571Y-69974642D01*
X106312571Y-70060357D02*
X106355428Y-70017500D01*
X106441142Y-69974642D01*
X106569714Y-69974642D01*
X106655428Y-70017500D01*
X106698285Y-70103214D01*
X106698285Y-70574642D01*
X106698285Y-70103214D02*
X106741142Y-70017500D01*
X106826857Y-69974642D01*
X106955428Y-69974642D01*
X107041142Y-70017500D01*
X107084000Y-70103214D01*
X107084000Y-70574642D01*
X107512571Y-70574642D02*
X107512571Y-69974642D01*
X107512571Y-69674642D02*
X107469714Y-69717500D01*
X107512571Y-69760357D01*
X107555428Y-69717500D01*
X107512571Y-69674642D01*
X107512571Y-69760357D01*
X108326857Y-70574642D02*
X108326857Y-69674642D01*
X108326857Y-70531785D02*
X108241142Y-70574642D01*
X108069714Y-70574642D01*
X107984000Y-70531785D01*
X107941142Y-70488928D01*
X107898285Y-70403214D01*
X107898285Y-70146071D01*
X107941142Y-70060357D01*
X107984000Y-70017500D01*
X108069714Y-69974642D01*
X108241142Y-69974642D01*
X108326857Y-70017500D01*
X104257785Y-53386785D02*
X104386357Y-53429642D01*
X104600642Y-53429642D01*
X104686357Y-53386785D01*
X104729214Y-53343928D01*
X104772071Y-53258214D01*
X104772071Y-53172500D01*
X104729214Y-53086785D01*
X104686357Y-53043928D01*
X104600642Y-53001071D01*
X104429214Y-52958214D01*
X104343500Y-52915357D01*
X104300642Y-52872500D01*
X104257785Y-52786785D01*
X104257785Y-52701071D01*
X104300642Y-52615357D01*
X104343500Y-52572500D01*
X104429214Y-52529642D01*
X104643500Y-52529642D01*
X104772071Y-52572500D01*
X105029214Y-52829642D02*
X105372071Y-52829642D01*
X105157785Y-52529642D02*
X105157785Y-53301071D01*
X105200642Y-53386785D01*
X105286357Y-53429642D01*
X105372071Y-53429642D01*
X106057785Y-53429642D02*
X106057785Y-52958214D01*
X106014928Y-52872500D01*
X105929214Y-52829642D01*
X105757785Y-52829642D01*
X105672071Y-52872500D01*
X106057785Y-53386785D02*
X105972071Y-53429642D01*
X105757785Y-53429642D01*
X105672071Y-53386785D01*
X105629214Y-53301071D01*
X105629214Y-53215357D01*
X105672071Y-53129642D01*
X105757785Y-53086785D01*
X105972071Y-53086785D01*
X106057785Y-53043928D01*
X106872071Y-52829642D02*
X106872071Y-53558214D01*
X106829214Y-53643928D01*
X106786357Y-53686785D01*
X106700642Y-53729642D01*
X106572071Y-53729642D01*
X106486357Y-53686785D01*
X106872071Y-53386785D02*
X106786357Y-53429642D01*
X106614928Y-53429642D01*
X106529214Y-53386785D01*
X106486357Y-53343928D01*
X106443500Y-53258214D01*
X106443500Y-53001071D01*
X106486357Y-52915357D01*
X106529214Y-52872500D01*
X106614928Y-52829642D01*
X106786357Y-52829642D01*
X106872071Y-52872500D01*
X107643500Y-53386785D02*
X107557785Y-53429642D01*
X107386357Y-53429642D01*
X107300642Y-53386785D01*
X107257785Y-53301071D01*
X107257785Y-52958214D01*
X107300642Y-52872500D01*
X107386357Y-52829642D01*
X107557785Y-52829642D01*
X107643500Y-52872500D01*
X107686357Y-52958214D01*
X107686357Y-53043928D01*
X107257785Y-53129642D01*
X109229214Y-53429642D02*
X108714928Y-53429642D01*
X108972071Y-53429642D02*
X108972071Y-52529642D01*
X108886357Y-52658214D01*
X108800642Y-52743928D01*
X108714928Y-52786785D01*
D12*
X101092000Y-38036500D02*
X105410000Y-38036500D01*
D10*
X105783142Y-38026571D02*
X106354571Y-38026571D01*
X106068857Y-38312285D02*
X106068857Y-37740857D01*
X107104571Y-38312285D02*
X106676000Y-38312285D01*
X106890285Y-38312285D02*
X106890285Y-37562285D01*
X106818857Y-37669428D01*
X106747428Y-37740857D01*
X106676000Y-37776571D01*
X103292642Y-39137785D02*
X103042642Y-38780642D01*
X102864071Y-39137785D02*
X102864071Y-38387785D01*
X103149785Y-38387785D01*
X103221214Y-38423500D01*
X103256928Y-38459214D01*
X103292642Y-38530642D01*
X103292642Y-38637785D01*
X103256928Y-38709214D01*
X103221214Y-38744928D01*
X103149785Y-38780642D01*
X102864071Y-38780642D01*
X101578357Y-37113785D02*
X101578357Y-37613785D01*
X101399785Y-36828071D02*
X101221214Y-37363785D01*
X101685500Y-37363785D01*
X102006928Y-37613785D02*
X102149785Y-37613785D01*
X102221214Y-37578071D01*
X102256928Y-37542357D01*
X102328357Y-37435214D01*
X102364071Y-37292357D01*
X102364071Y-37006642D01*
X102328357Y-36935214D01*
X102292642Y-36899500D01*
X102221214Y-36863785D01*
X102078357Y-36863785D01*
X102006928Y-36899500D01*
X101971214Y-36935214D01*
X101935500Y-37006642D01*
X101935500Y-37185214D01*
X101971214Y-37256642D01*
X102006928Y-37292357D01*
X102078357Y-37328071D01*
X102221214Y-37328071D01*
X102292642Y-37292357D01*
X102328357Y-37256642D01*
X102364071Y-37185214D01*
X102685500Y-37542357D02*
X102721214Y-37578071D01*
X102685500Y-37613785D01*
X102649785Y-37578071D01*
X102685500Y-37542357D01*
X102685500Y-37613785D01*
X103364071Y-37113785D02*
X103364071Y-37613785D01*
X103185500Y-36828071D02*
X103006928Y-37363785D01*
X103471214Y-37363785D01*
X103756928Y-37613785D02*
X103756928Y-36863785D01*
X103828357Y-37328071D02*
X104042642Y-37613785D01*
X104042642Y-37113785D02*
X103756928Y-37399500D01*
X104328357Y-37613785D02*
X104506928Y-37613785D01*
X104506928Y-37470928D01*
X104435500Y-37435214D01*
X104364071Y-37363785D01*
X104328357Y-37256642D01*
X104328357Y-37078071D01*
X104364071Y-36970928D01*
X104435500Y-36899500D01*
X104542642Y-36863785D01*
X104685500Y-36863785D01*
X104792642Y-36899500D01*
X104864071Y-36970928D01*
X104899785Y-37078071D01*
X104899785Y-37256642D01*
X104864071Y-37363785D01*
X104792642Y-37435214D01*
X104721214Y-37470928D01*
X104721214Y-37613785D01*
X104899785Y-37613785D01*
X97395285Y-37598000D02*
X97323857Y-37562285D01*
X97216714Y-37562285D01*
X97109571Y-37598000D01*
X97038142Y-37669428D01*
X97002428Y-37740857D01*
X96966714Y-37883714D01*
X96966714Y-37990857D01*
X97002428Y-38133714D01*
X97038142Y-38205142D01*
X97109571Y-38276571D01*
X97216714Y-38312285D01*
X97288142Y-38312285D01*
X97395285Y-38276571D01*
X97431000Y-38240857D01*
X97431000Y-37990857D01*
X97288142Y-37990857D01*
X98073857Y-38312285D02*
X98073857Y-37919428D01*
X98038142Y-37848000D01*
X97966714Y-37812285D01*
X97823857Y-37812285D01*
X97752428Y-37848000D01*
X98073857Y-38276571D02*
X98002428Y-38312285D01*
X97823857Y-38312285D01*
X97752428Y-38276571D01*
X97716714Y-38205142D01*
X97716714Y-38133714D01*
X97752428Y-38062285D01*
X97823857Y-38026571D01*
X98002428Y-38026571D01*
X98073857Y-37990857D01*
X98431000Y-38312285D02*
X98431000Y-37812285D01*
X98431000Y-37562285D02*
X98395285Y-37598000D01*
X98431000Y-37633714D01*
X98466714Y-37598000D01*
X98431000Y-37562285D01*
X98431000Y-37633714D01*
X98788142Y-37812285D02*
X98788142Y-38312285D01*
X98788142Y-37883714D02*
X98823857Y-37848000D01*
X98895285Y-37812285D01*
X99002428Y-37812285D01*
X99073857Y-37848000D01*
X99109571Y-37919428D01*
X99109571Y-38312285D01*
X100038142Y-37919428D02*
X100609571Y-37919428D01*
X100609571Y-38133714D02*
X100038142Y-38133714D01*
D13*
X97472428Y-50946857D02*
X96329571Y-50946857D01*
X93852928Y-50946857D02*
X92710071Y-50946857D01*
X93281500Y-50375428D02*
X93281500Y-51518285D01*
D11*
X86929571Y-29891785D02*
X87058142Y-29934642D01*
X87272428Y-29934642D01*
X87358142Y-29891785D01*
X87401000Y-29848928D01*
X87443857Y-29763214D01*
X87443857Y-29677500D01*
X87401000Y-29591785D01*
X87358142Y-29548928D01*
X87272428Y-29506071D01*
X87101000Y-29463214D01*
X87015285Y-29420357D01*
X86972428Y-29377500D01*
X86929571Y-29291785D01*
X86929571Y-29206071D01*
X86972428Y-29120357D01*
X87015285Y-29077500D01*
X87101000Y-29034642D01*
X87315285Y-29034642D01*
X87443857Y-29077500D01*
X87829571Y-29934642D02*
X87829571Y-29034642D01*
X88215285Y-29934642D02*
X88215285Y-29463214D01*
X88172428Y-29377500D01*
X88086714Y-29334642D01*
X87958142Y-29334642D01*
X87872428Y-29377500D01*
X87829571Y-29420357D01*
X88643857Y-29934642D02*
X88643857Y-29334642D01*
X88643857Y-29034642D02*
X88601000Y-29077500D01*
X88643857Y-29120357D01*
X88686714Y-29077500D01*
X88643857Y-29034642D01*
X88643857Y-29120357D01*
X89415285Y-29891785D02*
X89329571Y-29934642D01*
X89158142Y-29934642D01*
X89072428Y-29891785D01*
X89029571Y-29806071D01*
X89029571Y-29463214D01*
X89072428Y-29377500D01*
X89158142Y-29334642D01*
X89329571Y-29334642D01*
X89415285Y-29377500D01*
X89458142Y-29463214D01*
X89458142Y-29548928D01*
X89029571Y-29634642D01*
X89972428Y-29934642D02*
X89886714Y-29891785D01*
X89843857Y-29806071D01*
X89843857Y-29034642D01*
X90701000Y-29934642D02*
X90701000Y-29034642D01*
X90701000Y-29891785D02*
X90615285Y-29934642D01*
X90443857Y-29934642D01*
X90358142Y-29891785D01*
X90315285Y-29848928D01*
X90272428Y-29763214D01*
X90272428Y-29506071D01*
X90315285Y-29420357D01*
X90358142Y-29377500D01*
X90443857Y-29334642D01*
X90615285Y-29334642D01*
X90701000Y-29377500D01*
X92286714Y-29077500D02*
X92201000Y-29034642D01*
X92072428Y-29034642D01*
X91943857Y-29077500D01*
X91858142Y-29163214D01*
X91815285Y-29248928D01*
X91772428Y-29420357D01*
X91772428Y-29548928D01*
X91815285Y-29720357D01*
X91858142Y-29806071D01*
X91943857Y-29891785D01*
X92072428Y-29934642D01*
X92158142Y-29934642D01*
X92286714Y-29891785D01*
X92329571Y-29848928D01*
X92329571Y-29548928D01*
X92158142Y-29548928D01*
X92715285Y-29934642D02*
X92715285Y-29034642D01*
X93229571Y-29934642D01*
X93229571Y-29034642D01*
X93658142Y-29934642D02*
X93658142Y-29034642D01*
X93872428Y-29034642D01*
X94001000Y-29077500D01*
X94086714Y-29163214D01*
X94129571Y-29248928D01*
X94172428Y-29420357D01*
X94172428Y-29548928D01*
X94129571Y-29720357D01*
X94086714Y-29806071D01*
X94001000Y-29891785D01*
X93872428Y-29934642D01*
X93658142Y-29934642D01*
X86929571Y-52561285D02*
X87058142Y-52604142D01*
X87272428Y-52604142D01*
X87358142Y-52561285D01*
X87401000Y-52518428D01*
X87443857Y-52432714D01*
X87443857Y-52347000D01*
X87401000Y-52261285D01*
X87358142Y-52218428D01*
X87272428Y-52175571D01*
X87101000Y-52132714D01*
X87015285Y-52089857D01*
X86972428Y-52047000D01*
X86929571Y-51961285D01*
X86929571Y-51875571D01*
X86972428Y-51789857D01*
X87015285Y-51747000D01*
X87101000Y-51704142D01*
X87315285Y-51704142D01*
X87443857Y-51747000D01*
X87829571Y-52604142D02*
X87829571Y-51704142D01*
X88215285Y-52604142D02*
X88215285Y-52132714D01*
X88172428Y-52047000D01*
X88086714Y-52004142D01*
X87958142Y-52004142D01*
X87872428Y-52047000D01*
X87829571Y-52089857D01*
X88643857Y-52604142D02*
X88643857Y-52004142D01*
X88643857Y-51704142D02*
X88601000Y-51747000D01*
X88643857Y-51789857D01*
X88686714Y-51747000D01*
X88643857Y-51704142D01*
X88643857Y-51789857D01*
X89415285Y-52561285D02*
X89329571Y-52604142D01*
X89158142Y-52604142D01*
X89072428Y-52561285D01*
X89029571Y-52475571D01*
X89029571Y-52132714D01*
X89072428Y-52047000D01*
X89158142Y-52004142D01*
X89329571Y-52004142D01*
X89415285Y-52047000D01*
X89458142Y-52132714D01*
X89458142Y-52218428D01*
X89029571Y-52304142D01*
X89972428Y-52604142D02*
X89886714Y-52561285D01*
X89843857Y-52475571D01*
X89843857Y-51704142D01*
X90701000Y-52604142D02*
X90701000Y-51704142D01*
X90701000Y-52561285D02*
X90615285Y-52604142D01*
X90443857Y-52604142D01*
X90358142Y-52561285D01*
X90315285Y-52518428D01*
X90272428Y-52432714D01*
X90272428Y-52175571D01*
X90315285Y-52089857D01*
X90358142Y-52047000D01*
X90443857Y-52004142D01*
X90615285Y-52004142D01*
X90701000Y-52047000D01*
X92286714Y-51747000D02*
X92201000Y-51704142D01*
X92072428Y-51704142D01*
X91943857Y-51747000D01*
X91858142Y-51832714D01*
X91815285Y-51918428D01*
X91772428Y-52089857D01*
X91772428Y-52218428D01*
X91815285Y-52389857D01*
X91858142Y-52475571D01*
X91943857Y-52561285D01*
X92072428Y-52604142D01*
X92158142Y-52604142D01*
X92286714Y-52561285D01*
X92329571Y-52518428D01*
X92329571Y-52218428D01*
X92158142Y-52218428D01*
X92715285Y-52604142D02*
X92715285Y-51704142D01*
X93229571Y-52604142D01*
X93229571Y-51704142D01*
X93658142Y-52604142D02*
X93658142Y-51704142D01*
X93872428Y-51704142D01*
X94001000Y-51747000D01*
X94086714Y-51832714D01*
X94129571Y-51918428D01*
X94172428Y-52089857D01*
X94172428Y-52218428D01*
X94129571Y-52389857D01*
X94086714Y-52475571D01*
X94001000Y-52561285D01*
X93872428Y-52604142D01*
X93658142Y-52604142D01*
D13*
X88714000Y-69115714D02*
X88642571Y-69187142D01*
X88428285Y-69258571D01*
X88285428Y-69258571D01*
X88071142Y-69187142D01*
X87928285Y-69044285D01*
X87856857Y-68901428D01*
X87785428Y-68615714D01*
X87785428Y-68401428D01*
X87856857Y-68115714D01*
X87928285Y-67972857D01*
X88071142Y-67830000D01*
X88285428Y-67758571D01*
X88428285Y-67758571D01*
X88642571Y-67830000D01*
X88714000Y-67901428D01*
X89571142Y-69258571D02*
X89428285Y-69187142D01*
X89356857Y-69115714D01*
X89285428Y-68972857D01*
X89285428Y-68544285D01*
X89356857Y-68401428D01*
X89428285Y-68330000D01*
X89571142Y-68258571D01*
X89785428Y-68258571D01*
X89928285Y-68330000D01*
X89999714Y-68401428D01*
X90071142Y-68544285D01*
X90071142Y-68972857D01*
X89999714Y-69115714D01*
X89928285Y-69187142D01*
X89785428Y-69258571D01*
X89571142Y-69258571D01*
X90714000Y-69258571D02*
X90714000Y-68258571D01*
X90714000Y-68401428D02*
X90785428Y-68330000D01*
X90928285Y-68258571D01*
X91142571Y-68258571D01*
X91285428Y-68330000D01*
X91356857Y-68472857D01*
X91356857Y-69258571D01*
X91356857Y-68472857D02*
X91428285Y-68330000D01*
X91571142Y-68258571D01*
X91785428Y-68258571D01*
X91928285Y-68330000D01*
X91999714Y-68472857D01*
X91999714Y-69258571D01*
X92714000Y-69258571D02*
X92714000Y-67758571D01*
X92714000Y-68330000D02*
X92856857Y-68258571D01*
X93142571Y-68258571D01*
X93285428Y-68330000D01*
X93356857Y-68401428D01*
X93428285Y-68544285D01*
X93428285Y-68972857D01*
X93356857Y-69115714D01*
X93285428Y-69187142D01*
X93142571Y-69258571D01*
X92856857Y-69258571D01*
X92714000Y-69187142D01*
X94071142Y-69258571D02*
X94071142Y-68258571D01*
X94071142Y-67758571D02*
X93999714Y-67830000D01*
X94071142Y-67901428D01*
X94142571Y-67830000D01*
X94071142Y-67758571D01*
X94071142Y-67901428D01*
X94785428Y-68258571D02*
X94785428Y-69258571D01*
X94785428Y-68401428D02*
X94856857Y-68330000D01*
X94999714Y-68258571D01*
X95214000Y-68258571D01*
X95356857Y-68330000D01*
X95428285Y-68472857D01*
X95428285Y-69258571D01*
X96714000Y-69187142D02*
X96571142Y-69258571D01*
X96285428Y-69258571D01*
X96142571Y-69187142D01*
X96071142Y-69044285D01*
X96071142Y-68472857D01*
X96142571Y-68330000D01*
X96285428Y-68258571D01*
X96571142Y-68258571D01*
X96714000Y-68330000D01*
X96785428Y-68472857D01*
X96785428Y-68615714D01*
X96071142Y-68758571D01*
X98071142Y-69258571D02*
X98071142Y-67758571D01*
X98071142Y-69187142D02*
X97928285Y-69258571D01*
X97642571Y-69258571D01*
X97499714Y-69187142D01*
X97428285Y-69115714D01*
X97356857Y-68972857D01*
X97356857Y-68544285D01*
X97428285Y-68401428D01*
X97499714Y-68330000D01*
X97642571Y-68258571D01*
X97928285Y-68258571D01*
X98071142Y-68330000D01*
X88419857Y-46652571D02*
X87919857Y-45938285D01*
X87562714Y-46652571D02*
X87562714Y-45152571D01*
X88134142Y-45152571D01*
X88277000Y-45224000D01*
X88348428Y-45295428D01*
X88419857Y-45438285D01*
X88419857Y-45652571D01*
X88348428Y-45795428D01*
X88277000Y-45866857D01*
X88134142Y-45938285D01*
X87562714Y-45938285D01*
X89634142Y-46581142D02*
X89491285Y-46652571D01*
X89205571Y-46652571D01*
X89062714Y-46581142D01*
X88991285Y-46438285D01*
X88991285Y-45866857D01*
X89062714Y-45724000D01*
X89205571Y-45652571D01*
X89491285Y-45652571D01*
X89634142Y-45724000D01*
X89705571Y-45866857D01*
X89705571Y-46009714D01*
X88991285Y-46152571D01*
X90134142Y-45652571D02*
X90705571Y-45652571D01*
X90348428Y-46652571D02*
X90348428Y-45366857D01*
X90419857Y-45224000D01*
X90562714Y-45152571D01*
X90705571Y-45152571D01*
X87114571Y-57892142D02*
X88257428Y-57892142D01*
X88900285Y-58392142D02*
X89114571Y-58463571D01*
X89471714Y-58463571D01*
X89614571Y-58392142D01*
X89686000Y-58320714D01*
X89757428Y-58177857D01*
X89757428Y-58035000D01*
X89686000Y-57892142D01*
X89614571Y-57820714D01*
X89471714Y-57749285D01*
X89186000Y-57677857D01*
X89043142Y-57606428D01*
X88971714Y-57535000D01*
X88900285Y-57392142D01*
X88900285Y-57249285D01*
X88971714Y-57106428D01*
X89043142Y-57035000D01*
X89186000Y-56963571D01*
X89543142Y-56963571D01*
X89757428Y-57035000D01*
X90400285Y-58463571D02*
X90400285Y-57463571D01*
X90400285Y-56963571D02*
X90328857Y-57035000D01*
X90400285Y-57106428D01*
X90471714Y-57035000D01*
X90400285Y-56963571D01*
X90400285Y-57106428D01*
X91757428Y-57463571D02*
X91757428Y-58677857D01*
X91686000Y-58820714D01*
X91614571Y-58892142D01*
X91471714Y-58963571D01*
X91257428Y-58963571D01*
X91114571Y-58892142D01*
X91757428Y-58392142D02*
X91614571Y-58463571D01*
X91328857Y-58463571D01*
X91186000Y-58392142D01*
X91114571Y-58320714D01*
X91043142Y-58177857D01*
X91043142Y-57749285D01*
X91114571Y-57606428D01*
X91186000Y-57535000D01*
X91328857Y-57463571D01*
X91614571Y-57463571D01*
X91757428Y-57535000D01*
X92471714Y-57463571D02*
X92471714Y-58463571D01*
X92471714Y-57606428D02*
X92543142Y-57535000D01*
X92686000Y-57463571D01*
X92900285Y-57463571D01*
X93043142Y-57535000D01*
X93114571Y-57677857D01*
X93114571Y-58463571D01*
X94471714Y-58463571D02*
X94471714Y-57677857D01*
X94400285Y-57535000D01*
X94257428Y-57463571D01*
X93971714Y-57463571D01*
X93828857Y-57535000D01*
X94471714Y-58392142D02*
X94328857Y-58463571D01*
X93971714Y-58463571D01*
X93828857Y-58392142D01*
X93757428Y-58249285D01*
X93757428Y-58106428D01*
X93828857Y-57963571D01*
X93971714Y-57892142D01*
X94328857Y-57892142D01*
X94471714Y-57820714D01*
X95400285Y-58463571D02*
X95257428Y-58392142D01*
X95186000Y-58249285D01*
X95186000Y-56963571D01*
X86987571Y-35032142D02*
X88130428Y-35032142D01*
X87559000Y-35603571D02*
X87559000Y-34460714D01*
X88773285Y-35532142D02*
X88987571Y-35603571D01*
X89344714Y-35603571D01*
X89487571Y-35532142D01*
X89559000Y-35460714D01*
X89630428Y-35317857D01*
X89630428Y-35175000D01*
X89559000Y-35032142D01*
X89487571Y-34960714D01*
X89344714Y-34889285D01*
X89059000Y-34817857D01*
X88916142Y-34746428D01*
X88844714Y-34675000D01*
X88773285Y-34532142D01*
X88773285Y-34389285D01*
X88844714Y-34246428D01*
X88916142Y-34175000D01*
X89059000Y-34103571D01*
X89416142Y-34103571D01*
X89630428Y-34175000D01*
X90273285Y-35603571D02*
X90273285Y-34603571D01*
X90273285Y-34103571D02*
X90201857Y-34175000D01*
X90273285Y-34246428D01*
X90344714Y-34175000D01*
X90273285Y-34103571D01*
X90273285Y-34246428D01*
X91630428Y-34603571D02*
X91630428Y-35817857D01*
X91559000Y-35960714D01*
X91487571Y-36032142D01*
X91344714Y-36103571D01*
X91130428Y-36103571D01*
X90987571Y-36032142D01*
X91630428Y-35532142D02*
X91487571Y-35603571D01*
X91201857Y-35603571D01*
X91059000Y-35532142D01*
X90987571Y-35460714D01*
X90916142Y-35317857D01*
X90916142Y-34889285D01*
X90987571Y-34746428D01*
X91059000Y-34675000D01*
X91201857Y-34603571D01*
X91487571Y-34603571D01*
X91630428Y-34675000D01*
X92344714Y-34603571D02*
X92344714Y-35603571D01*
X92344714Y-34746428D02*
X92416142Y-34675000D01*
X92559000Y-34603571D01*
X92773285Y-34603571D01*
X92916142Y-34675000D01*
X92987571Y-34817857D01*
X92987571Y-35603571D01*
X94344714Y-35603571D02*
X94344714Y-34817857D01*
X94273285Y-34675000D01*
X94130428Y-34603571D01*
X93844714Y-34603571D01*
X93701857Y-34675000D01*
X94344714Y-35532142D02*
X94201857Y-35603571D01*
X93844714Y-35603571D01*
X93701857Y-35532142D01*
X93630428Y-35389285D01*
X93630428Y-35246428D01*
X93701857Y-35103571D01*
X93844714Y-35032142D01*
X94201857Y-35032142D01*
X94344714Y-34960714D01*
X95273285Y-35603571D02*
X95130428Y-35532142D01*
X95059000Y-35389285D01*
X95059000Y-34103571D01*
X115055428Y-77894571D02*
X115055428Y-76394571D01*
X115555428Y-77466000D01*
X116055428Y-76394571D01*
X116055428Y-77894571D01*
X117412571Y-77894571D02*
X117412571Y-77108857D01*
X117341142Y-76966000D01*
X117198285Y-76894571D01*
X116912571Y-76894571D01*
X116769714Y-76966000D01*
X117412571Y-77823142D02*
X117269714Y-77894571D01*
X116912571Y-77894571D01*
X116769714Y-77823142D01*
X116698285Y-77680285D01*
X116698285Y-77537428D01*
X116769714Y-77394571D01*
X116912571Y-77323142D01*
X117269714Y-77323142D01*
X117412571Y-77251714D01*
X117912571Y-76894571D02*
X118484000Y-76894571D01*
X118126857Y-76394571D02*
X118126857Y-77680285D01*
X118198285Y-77823142D01*
X118341142Y-77894571D01*
X118484000Y-77894571D01*
X118769714Y-76894571D02*
X119341142Y-76894571D01*
X118984000Y-76394571D02*
X118984000Y-77680285D01*
X119055428Y-77823142D01*
X119198285Y-77894571D01*
X119341142Y-77894571D01*
X120984000Y-77894571D02*
X120984000Y-76394571D01*
X120984000Y-77108857D02*
X121841142Y-77108857D01*
X121841142Y-77894571D02*
X121841142Y-76394571D01*
X122769714Y-77894571D02*
X122626857Y-77823142D01*
X122555428Y-77751714D01*
X122484000Y-77608857D01*
X122484000Y-77180285D01*
X122555428Y-77037428D01*
X122626857Y-76966000D01*
X122769714Y-76894571D01*
X122984000Y-76894571D01*
X123126857Y-76966000D01*
X123198285Y-77037428D01*
X123269714Y-77180285D01*
X123269714Y-77608857D01*
X123198285Y-77751714D01*
X123126857Y-77823142D01*
X122984000Y-77894571D01*
X122769714Y-77894571D01*
X124126857Y-77894571D02*
X123984000Y-77823142D01*
X123912571Y-77680285D01*
X123912571Y-76394571D01*
X124912571Y-77894571D02*
X124769714Y-77823142D01*
X124698285Y-77680285D01*
X124698285Y-76394571D01*
X126126857Y-77894571D02*
X126126857Y-77108857D01*
X126055428Y-76966000D01*
X125912571Y-76894571D01*
X125626857Y-76894571D01*
X125484000Y-76966000D01*
X126126857Y-77823142D02*
X125984000Y-77894571D01*
X125626857Y-77894571D01*
X125484000Y-77823142D01*
X125412571Y-77680285D01*
X125412571Y-77537428D01*
X125484000Y-77394571D01*
X125626857Y-77323142D01*
X125984000Y-77323142D01*
X126126857Y-77251714D01*
X126841142Y-76894571D02*
X126841142Y-77894571D01*
X126841142Y-77037428D02*
X126912571Y-76966000D01*
X127055428Y-76894571D01*
X127269714Y-76894571D01*
X127412571Y-76966000D01*
X127484000Y-77108857D01*
X127484000Y-77894571D01*
X128841142Y-77894571D02*
X128841142Y-76394571D01*
X128841142Y-77823142D02*
X128698285Y-77894571D01*
X128412571Y-77894571D01*
X128269714Y-77823142D01*
X128198285Y-77751714D01*
X128126857Y-77608857D01*
X128126857Y-77180285D01*
X128198285Y-77037428D01*
X128269714Y-76966000D01*
X128412571Y-76894571D01*
X128698285Y-76894571D01*
X128841142Y-76966000D01*
X129484000Y-77823142D02*
X129626857Y-77894571D01*
X129912571Y-77894571D01*
X130055428Y-77823142D01*
X130126857Y-77680285D01*
X130126857Y-77608857D01*
X130055428Y-77466000D01*
X129912571Y-77394571D01*
X129698285Y-77394571D01*
X129555428Y-77323142D01*
X129484000Y-77180285D01*
X129484000Y-77108857D01*
X129555428Y-76966000D01*
X129698285Y-76894571D01*
X129912571Y-76894571D01*
X130055428Y-76966000D01*
X131841142Y-76537428D02*
X131912571Y-76466000D01*
X132055428Y-76394571D01*
X132412571Y-76394571D01*
X132555428Y-76466000D01*
X132626857Y-76537428D01*
X132698285Y-76680285D01*
X132698285Y-76823142D01*
X132626857Y-77037428D01*
X131769714Y-77894571D01*
X132698285Y-77894571D01*
X133626857Y-76394571D02*
X133769714Y-76394571D01*
X133912571Y-76466000D01*
X133984000Y-76537428D01*
X134055428Y-76680285D01*
X134126857Y-76966000D01*
X134126857Y-77323142D01*
X134055428Y-77608857D01*
X133984000Y-77751714D01*
X133912571Y-77823142D01*
X133769714Y-77894571D01*
X133626857Y-77894571D01*
X133484000Y-77823142D01*
X133412571Y-77751714D01*
X133341142Y-77608857D01*
X133269714Y-77323142D01*
X133269714Y-76966000D01*
X133341142Y-76680285D01*
X133412571Y-76537428D01*
X133484000Y-76466000D01*
X133626857Y-76394571D01*
X134698285Y-76537428D02*
X134769714Y-76466000D01*
X134912571Y-76394571D01*
X135269714Y-76394571D01*
X135412571Y-76466000D01*
X135484000Y-76537428D01*
X135555428Y-76680285D01*
X135555428Y-76823142D01*
X135484000Y-77037428D01*
X134626857Y-77894571D01*
X135555428Y-77894571D01*
X136484000Y-76394571D02*
X136626857Y-76394571D01*
X136769714Y-76466000D01*
X136841142Y-76537428D01*
X136912571Y-76680285D01*
X136984000Y-76966000D01*
X136984000Y-77323142D01*
X136912571Y-77608857D01*
X136841142Y-77751714D01*
X136769714Y-77823142D01*
X136626857Y-77894571D01*
X136484000Y-77894571D01*
X136341142Y-77823142D01*
X136269714Y-77751714D01*
X136198285Y-77608857D01*
X136126857Y-77323142D01*
X136126857Y-76966000D01*
X136198285Y-76680285D01*
X136269714Y-76537428D01*
X136341142Y-76466000D01*
X136484000Y-76394571D01*
X110468000Y-79561571D02*
X110468000Y-81061571D01*
X110468000Y-79633000D02*
X110610857Y-79561571D01*
X110896571Y-79561571D01*
X111039428Y-79633000D01*
X111110857Y-79704428D01*
X111182285Y-79847285D01*
X111182285Y-80275857D01*
X111110857Y-80418714D01*
X111039428Y-80490142D01*
X110896571Y-80561571D01*
X110610857Y-80561571D01*
X110468000Y-80490142D01*
X111825142Y-80561571D02*
X111825142Y-79561571D01*
X111825142Y-79847285D02*
X111896571Y-79704428D01*
X111968000Y-79633000D01*
X112110857Y-79561571D01*
X112253714Y-79561571D01*
X112968000Y-80561571D02*
X112825142Y-80490142D01*
X112753714Y-80418714D01*
X112682285Y-80275857D01*
X112682285Y-79847285D01*
X112753714Y-79704428D01*
X112825142Y-79633000D01*
X112968000Y-79561571D01*
X113182285Y-79561571D01*
X113325142Y-79633000D01*
X113396571Y-79704428D01*
X113468000Y-79847285D01*
X113468000Y-80275857D01*
X113396571Y-80418714D01*
X113325142Y-80490142D01*
X113182285Y-80561571D01*
X112968000Y-80561571D01*
X114110857Y-79561571D02*
X114110857Y-80847285D01*
X114039428Y-80990142D01*
X113896571Y-81061571D01*
X113825142Y-81061571D01*
X114110857Y-79061571D02*
X114039428Y-79133000D01*
X114110857Y-79204428D01*
X114182285Y-79133000D01*
X114110857Y-79061571D01*
X114110857Y-79204428D01*
X115396571Y-80490142D02*
X115253714Y-80561571D01*
X114968000Y-80561571D01*
X114825142Y-80490142D01*
X114753714Y-80347285D01*
X114753714Y-79775857D01*
X114825142Y-79633000D01*
X114968000Y-79561571D01*
X115253714Y-79561571D01*
X115396571Y-79633000D01*
X115468000Y-79775857D01*
X115468000Y-79918714D01*
X114753714Y-80061571D01*
X116753714Y-80490142D02*
X116610857Y-80561571D01*
X116325142Y-80561571D01*
X116182285Y-80490142D01*
X116110857Y-80418714D01*
X116039428Y-80275857D01*
X116039428Y-79847285D01*
X116110857Y-79704428D01*
X116182285Y-79633000D01*
X116325142Y-79561571D01*
X116610857Y-79561571D01*
X116753714Y-79633000D01*
X117182285Y-79561571D02*
X117753714Y-79561571D01*
X117396571Y-79061571D02*
X117396571Y-80347285D01*
X117468000Y-80490142D01*
X117610857Y-80561571D01*
X117753714Y-80561571D01*
X118182285Y-80490142D02*
X118325142Y-80561571D01*
X118610857Y-80561571D01*
X118753714Y-80490142D01*
X118825142Y-80347285D01*
X118825142Y-80275857D01*
X118753714Y-80133000D01*
X118610857Y-80061571D01*
X118396571Y-80061571D01*
X118253714Y-79990142D01*
X118182285Y-79847285D01*
X118182285Y-79775857D01*
X118253714Y-79633000D01*
X118396571Y-79561571D01*
X118610857Y-79561571D01*
X118753714Y-79633000D01*
X119468000Y-80418714D02*
X119539428Y-80490142D01*
X119468000Y-80561571D01*
X119396571Y-80490142D01*
X119468000Y-80418714D01*
X119468000Y-80561571D01*
X120182285Y-80561571D02*
X120182285Y-79561571D01*
X120182285Y-79704428D02*
X120253714Y-79633000D01*
X120396571Y-79561571D01*
X120610857Y-79561571D01*
X120753714Y-79633000D01*
X120825142Y-79775857D01*
X120825142Y-80561571D01*
X120825142Y-79775857D02*
X120896571Y-79633000D01*
X121039428Y-79561571D01*
X121253714Y-79561571D01*
X121396571Y-79633000D01*
X121468000Y-79775857D01*
X121468000Y-80561571D01*
X122825142Y-80561571D02*
X122825142Y-79775857D01*
X122753714Y-79633000D01*
X122610857Y-79561571D01*
X122325142Y-79561571D01*
X122182285Y-79633000D01*
X122825142Y-80490142D02*
X122682285Y-80561571D01*
X122325142Y-80561571D01*
X122182285Y-80490142D01*
X122110857Y-80347285D01*
X122110857Y-80204428D01*
X122182285Y-80061571D01*
X122325142Y-79990142D01*
X122682285Y-79990142D01*
X122825142Y-79918714D01*
X123325142Y-79561571D02*
X123896571Y-79561571D01*
X123539428Y-79061571D02*
X123539428Y-80347285D01*
X123610857Y-80490142D01*
X123753714Y-80561571D01*
X123896571Y-80561571D01*
X124182285Y-79561571D02*
X124753714Y-79561571D01*
X124396571Y-79061571D02*
X124396571Y-80347285D01*
X124468000Y-80490142D01*
X124610857Y-80561571D01*
X124753714Y-80561571D01*
X125253714Y-80561571D02*
X125253714Y-79061571D01*
X125896571Y-80561571D02*
X125896571Y-79775857D01*
X125825142Y-79633000D01*
X125682285Y-79561571D01*
X125468000Y-79561571D01*
X125325142Y-79633000D01*
X125253714Y-79704428D01*
X126825142Y-80561571D02*
X126682285Y-80490142D01*
X126610857Y-80418714D01*
X126539428Y-80275857D01*
X126539428Y-79847285D01*
X126610857Y-79704428D01*
X126682285Y-79633000D01*
X126825142Y-79561571D01*
X127039428Y-79561571D01*
X127182285Y-79633000D01*
X127253714Y-79704428D01*
X127325142Y-79847285D01*
X127325142Y-80275857D01*
X127253714Y-80418714D01*
X127182285Y-80490142D01*
X127039428Y-80561571D01*
X126825142Y-80561571D01*
X128182285Y-80561571D02*
X128039428Y-80490142D01*
X127968000Y-80347285D01*
X127968000Y-79061571D01*
X128968000Y-80561571D02*
X128825142Y-80490142D01*
X128753714Y-80347285D01*
X128753714Y-79061571D01*
X130182285Y-80561571D02*
X130182285Y-79775857D01*
X130110857Y-79633000D01*
X129968000Y-79561571D01*
X129682285Y-79561571D01*
X129539428Y-79633000D01*
X130182285Y-80490142D02*
X130039428Y-80561571D01*
X129682285Y-80561571D01*
X129539428Y-80490142D01*
X129468000Y-80347285D01*
X129468000Y-80204428D01*
X129539428Y-80061571D01*
X129682285Y-79990142D01*
X130039428Y-79990142D01*
X130182285Y-79918714D01*
X130896571Y-79561571D02*
X130896571Y-80561571D01*
X130896571Y-79704428D02*
X130968000Y-79633000D01*
X131110857Y-79561571D01*
X131325142Y-79561571D01*
X131468000Y-79633000D01*
X131539428Y-79775857D01*
X131539428Y-80561571D01*
X132896571Y-80561571D02*
X132896571Y-79061571D01*
X132896571Y-80490142D02*
X132753714Y-80561571D01*
X132468000Y-80561571D01*
X132325142Y-80490142D01*
X132253714Y-80418714D01*
X132182285Y-80275857D01*
X132182285Y-79847285D01*
X132253714Y-79704428D01*
X132325142Y-79633000D01*
X132468000Y-79561571D01*
X132753714Y-79561571D01*
X132896571Y-79633000D01*
X133539428Y-80490142D02*
X133682285Y-80561571D01*
X133968000Y-80561571D01*
X134110857Y-80490142D01*
X134182285Y-80347285D01*
X134182285Y-80275857D01*
X134110857Y-80133000D01*
X133968000Y-80061571D01*
X133753714Y-80061571D01*
X133610857Y-79990142D01*
X133539428Y-79847285D01*
X133539428Y-79775857D01*
X133610857Y-79633000D01*
X133753714Y-79561571D01*
X133968000Y-79561571D01*
X134110857Y-79633000D01*
X134825142Y-80418714D02*
X134896571Y-80490142D01*
X134825142Y-80561571D01*
X134753714Y-80490142D01*
X134825142Y-80418714D01*
X134825142Y-80561571D01*
X136182285Y-80490142D02*
X136039428Y-80561571D01*
X135753714Y-80561571D01*
X135610857Y-80490142D01*
X135539428Y-80418714D01*
X135468000Y-80275857D01*
X135468000Y-79847285D01*
X135539428Y-79704428D01*
X135610857Y-79633000D01*
X135753714Y-79561571D01*
X136039428Y-79561571D01*
X136182285Y-79633000D01*
X137039428Y-80561571D02*
X136896571Y-80490142D01*
X136825142Y-80418714D01*
X136753714Y-80275857D01*
X136753714Y-79847285D01*
X136825142Y-79704428D01*
X136896571Y-79633000D01*
X137039428Y-79561571D01*
X137253714Y-79561571D01*
X137396571Y-79633000D01*
X137468000Y-79704428D01*
X137539428Y-79847285D01*
X137539428Y-80275857D01*
X137468000Y-80418714D01*
X137396571Y-80490142D01*
X137253714Y-80561571D01*
X137039428Y-80561571D01*
X138182285Y-80561571D02*
X138182285Y-79561571D01*
X138182285Y-79704428D02*
X138253714Y-79633000D01*
X138396571Y-79561571D01*
X138610857Y-79561571D01*
X138753714Y-79633000D01*
X138825142Y-79775857D01*
X138825142Y-80561571D01*
X138825142Y-79775857D02*
X138896571Y-79633000D01*
X139039428Y-79561571D01*
X139253714Y-79561571D01*
X139396571Y-79633000D01*
X139468000Y-79775857D01*
X139468000Y-80561571D01*
D12*
X104648000Y-59035000D02*
X101198000Y-59035000D01*
X104648000Y-59035000D02*
X106598000Y-59035000D01*
X104648000Y-64155000D02*
X102698000Y-64155000D01*
X104648000Y-64155000D02*
X106598000Y-64155000D01*
X112502000Y-45212000D02*
X112502000Y-48662000D01*
X112502000Y-45212000D02*
X112502000Y-43262000D01*
X117622000Y-45212000D02*
X117622000Y-47162000D01*
X117622000Y-45212000D02*
X117622000Y-43262000D01*
X131695500Y-59439500D02*
X131695500Y-60769500D01*
X130365500Y-59439500D02*
X131695500Y-59439500D01*
X129095500Y-59439500D02*
X129095500Y-62099500D01*
X129095500Y-62099500D02*
X126495500Y-62099500D01*
X129095500Y-59439500D02*
X126495500Y-59439500D01*
X126495500Y-59439500D02*
X126495500Y-62099500D01*
X108837000Y-58638221D02*
X108837000Y-58963779D01*
X109857000Y-58638221D02*
X109857000Y-58963779D01*
X106969779Y-57529000D02*
X106644221Y-57529000D01*
X106969779Y-58549000D02*
X106644221Y-58549000D01*
X112266000Y-69306221D02*
X112266000Y-69631779D01*
X113286000Y-69306221D02*
X113286000Y-69631779D01*
X107815000Y-46209500D02*
X106815000Y-46209500D01*
X106815000Y-44849500D02*
X107815000Y-44849500D01*
X144147000Y-44231779D02*
X144147000Y-43906221D01*
X143127000Y-44231779D02*
X143127000Y-43906221D01*
X129061500Y-56652721D02*
X129061500Y-56978279D01*
X128041500Y-56652721D02*
X128041500Y-56978279D01*
X141124721Y-42166000D02*
X141450279Y-42166000D01*
X141124721Y-41146000D02*
X141450279Y-41146000D01*
X110525779Y-46039500D02*
X110200221Y-46039500D01*
X110525779Y-45019500D02*
X110200221Y-45019500D01*
X127481000Y-24358500D02*
X127481000Y-22073500D01*
X127481000Y-22073500D02*
X126011000Y-22073500D01*
X126011000Y-22073500D02*
X126011000Y-24358500D01*
X127789000Y-22073500D02*
X127789000Y-24358500D01*
X129259000Y-22073500D02*
X127789000Y-22073500D01*
X129259000Y-24358500D02*
X129259000Y-22073500D01*
X125703000Y-24358500D02*
X125703000Y-22073500D01*
X125703000Y-22073500D02*
X124233000Y-22073500D01*
X124233000Y-22073500D02*
X124233000Y-24358500D01*
X102624000Y-39833000D02*
X103624000Y-39833000D01*
X103624000Y-41193000D02*
X102624000Y-41193000D01*
X99396000Y-47744000D02*
X99396000Y-46744000D01*
X100756000Y-46744000D02*
X100756000Y-47744000D01*
X100756000Y-43950000D02*
X100756000Y-44950000D01*
X99396000Y-44950000D02*
X99396000Y-43950000D01*
X111678000Y-66429000D02*
X111678000Y-67429000D01*
X110318000Y-67429000D02*
X110318000Y-66429000D01*
X111678000Y-69096000D02*
X111678000Y-70096000D01*
X110318000Y-70096000D02*
X110318000Y-69096000D01*
X112016000Y-43017221D02*
X112016000Y-43342779D01*
X110996000Y-43017221D02*
X110996000Y-43342779D01*
X130661500Y-56652721D02*
X130661500Y-56978279D01*
X129641500Y-56652721D02*
X129641500Y-56978279D01*
X110869000Y-58638221D02*
X110869000Y-58963779D01*
X111889000Y-58638221D02*
X111889000Y-58963779D01*
X110869000Y-61813221D02*
X110869000Y-62138779D01*
X111889000Y-61813221D02*
X111889000Y-62138779D01*
X141124721Y-43753500D02*
X141450279Y-43753500D01*
X141124721Y-42733500D02*
X141450279Y-42733500D01*
X142178500Y-54256721D02*
X142178500Y-54582279D01*
X141158500Y-54256721D02*
X141158500Y-54582279D01*
X136590500Y-55026779D02*
X136590500Y-54701221D01*
X135570500Y-55026779D02*
X135570500Y-54701221D01*
X110869000Y-48168779D02*
X110869000Y-47843221D01*
X111889000Y-48168779D02*
X111889000Y-47843221D01*
X127954500Y-44549279D02*
X127954500Y-44223721D01*
X126934500Y-44549279D02*
X126934500Y-44223721D01*
X125410500Y-44549279D02*
X125410500Y-44223721D01*
X126430500Y-44549279D02*
X126430500Y-44223721D01*
X136179779Y-48893000D02*
X135854221Y-48893000D01*
X136179779Y-49913000D02*
X135854221Y-49913000D01*
X139380500Y-28356779D02*
X139380500Y-28031221D01*
X140400500Y-28356779D02*
X140400500Y-28031221D01*
X135380000Y-36738779D02*
X135380000Y-36413221D01*
X136400000Y-36738779D02*
X136400000Y-36413221D01*
X145811500Y-47969000D02*
X145811500Y-47519000D01*
X147661500Y-47969000D02*
X145811500Y-47969000D01*
X150211500Y-40169000D02*
X149961500Y-40169000D01*
X150211500Y-47969000D02*
X149961500Y-47969000D01*
X147661500Y-40169000D02*
X145811500Y-40169000D01*
X145811500Y-40169000D02*
X145811500Y-40619000D01*
X145261500Y-45769000D02*
X145261500Y-45319000D01*
X145261500Y-45769000D02*
X145711500Y-45769000D01*
X72697000Y-71934000D02*
X71497000Y-71934000D01*
X71497000Y-71934000D02*
X71497000Y-71434000D01*
X71497000Y-71434000D02*
X68997000Y-71434000D01*
X68997000Y-71434000D02*
X68997000Y-66234000D01*
X68997000Y-66234000D02*
X71497000Y-66234000D01*
X71497000Y-66234000D02*
X71497000Y-65734000D01*
X71497000Y-65734000D02*
X74697000Y-65734000D01*
X77297000Y-65734000D02*
X86197000Y-65734000D01*
X86197000Y-65734000D02*
X86197000Y-71934000D01*
X86197000Y-71934000D02*
X84997000Y-71934000D01*
X81797000Y-71934000D02*
X75297000Y-71934000D01*
X72697000Y-71934000D02*
X72697000Y-73934000D01*
X75297000Y-71934000D02*
X75297000Y-73934000D01*
X110408000Y-47506000D02*
X110408000Y-48506000D01*
X109048000Y-48506000D02*
X109048000Y-47506000D01*
X119488500Y-42489500D02*
X119488500Y-43489500D01*
X118128500Y-43489500D02*
X118128500Y-42489500D01*
X130617500Y-28420279D02*
X130617500Y-28094721D01*
X131637500Y-28420279D02*
X131637500Y-28094721D01*
X127426000Y-26360500D02*
X127426000Y-27360500D01*
X126066000Y-27360500D02*
X126066000Y-26360500D01*
X127844000Y-27360500D02*
X127844000Y-26360500D01*
X129204000Y-26360500D02*
X129204000Y-27360500D01*
X125648000Y-26360500D02*
X125648000Y-27360500D01*
X124288000Y-27360500D02*
X124288000Y-26360500D01*
X135131000Y-29844000D02*
X134831000Y-29844000D01*
X135131000Y-26544000D02*
X135131000Y-29844000D01*
X134831000Y-26544000D02*
X135131000Y-26544000D01*
X132331000Y-29844000D02*
X132631000Y-29844000D01*
X132331000Y-26544000D02*
X132331000Y-29844000D01*
X132631000Y-26544000D02*
X132331000Y-26544000D01*
X136187000Y-26544000D02*
X135887000Y-26544000D01*
X135887000Y-26544000D02*
X135887000Y-29844000D01*
X135887000Y-29844000D02*
X136187000Y-29844000D01*
X138387000Y-26544000D02*
X138687000Y-26544000D01*
X138687000Y-26544000D02*
X138687000Y-29844000D01*
X138687000Y-29844000D02*
X138387000Y-29844000D01*
D14*
X107016500Y-47230000D02*
X107516500Y-47730000D01*
X106216500Y-47230000D02*
X107016500Y-47230000D01*
X105716500Y-47730000D02*
X106216500Y-47230000D01*
X105716500Y-51330000D02*
X105716500Y-47730000D01*
X106216500Y-51830000D02*
X105716500Y-51330000D01*
X107016500Y-51830000D02*
X106216500Y-51830000D01*
X107516500Y-51330000D02*
X107016500Y-51830000D01*
X107516500Y-47730000D02*
X107516500Y-51330000D01*
X121804000Y-44047000D02*
X121804000Y-47647000D01*
X121804000Y-47647000D02*
X121304000Y-48147000D01*
X121304000Y-48147000D02*
X120504000Y-48147000D01*
X120504000Y-48147000D02*
X120004000Y-47647000D01*
X120004000Y-47647000D02*
X120004000Y-44047000D01*
X120004000Y-44047000D02*
X120504000Y-43547000D01*
X120504000Y-43547000D02*
X121304000Y-43547000D01*
X121304000Y-43547000D02*
X121804000Y-44047000D01*
X126185500Y-48682500D02*
X126185500Y-52282500D01*
X126185500Y-52282500D02*
X125685500Y-52782500D01*
X125685500Y-52782500D02*
X124885500Y-52782500D01*
X124885500Y-52782500D02*
X124385500Y-52282500D01*
X124385500Y-52282500D02*
X124385500Y-48682500D01*
X124385500Y-48682500D02*
X124885500Y-48182500D01*
X124885500Y-48182500D02*
X125685500Y-48182500D01*
X125685500Y-48182500D02*
X126185500Y-48682500D01*
D12*
X103159779Y-50675000D02*
X102834221Y-50675000D01*
X103159779Y-49655000D02*
X102834221Y-49655000D01*
X103159779Y-51179000D02*
X102834221Y-51179000D01*
X103159779Y-52199000D02*
X102834221Y-52199000D01*
D14*
X104735500Y-44235500D02*
X104560500Y-44235500D01*
X104735500Y-47585500D02*
X104485500Y-47585500D01*
X101385500Y-47585500D02*
X101635500Y-47585500D01*
X101385500Y-44235500D02*
X101635500Y-44235500D01*
X104735500Y-44235500D02*
X104735500Y-47585500D01*
X101385500Y-44235500D02*
X101385500Y-47585500D01*
X104560500Y-44235500D02*
X104560500Y-42985500D01*
D12*
X123759500Y-41310779D02*
X123759500Y-40985221D01*
X124779500Y-41310779D02*
X124779500Y-40985221D01*
X130837721Y-37848000D02*
X131163279Y-37848000D01*
X130837721Y-36828000D02*
X131163279Y-36828000D01*
X119128000Y-36738779D02*
X119128000Y-36413221D01*
X118108000Y-36738779D02*
X118108000Y-36413221D01*
X138775221Y-38606000D02*
X139100779Y-38606000D01*
X138775221Y-39626000D02*
X139100779Y-39626000D01*
X138775221Y-38102000D02*
X139100779Y-38102000D01*
X138775221Y-37082000D02*
X139100779Y-37082000D01*
X75297000Y-37644000D02*
X75297000Y-39644000D01*
X72697000Y-37644000D02*
X72697000Y-39644000D01*
X81797000Y-37644000D02*
X75297000Y-37644000D01*
X86197000Y-37644000D02*
X84997000Y-37644000D01*
X86197000Y-31444000D02*
X86197000Y-37644000D01*
X77297000Y-31444000D02*
X86197000Y-31444000D01*
X71497000Y-31444000D02*
X74697000Y-31444000D01*
X71497000Y-31944000D02*
X71497000Y-31444000D01*
X68997000Y-31944000D02*
X71497000Y-31944000D01*
X68997000Y-37144000D02*
X68997000Y-31944000D01*
X71497000Y-37144000D02*
X68997000Y-37144000D01*
X71497000Y-37644000D02*
X71497000Y-37144000D01*
X72697000Y-37644000D02*
X71497000Y-37644000D01*
X72697000Y-60504000D02*
X71497000Y-60504000D01*
X71497000Y-60504000D02*
X71497000Y-60004000D01*
X71497000Y-60004000D02*
X68997000Y-60004000D01*
X68997000Y-60004000D02*
X68997000Y-54804000D01*
X68997000Y-54804000D02*
X71497000Y-54804000D01*
X71497000Y-54804000D02*
X71497000Y-54304000D01*
X71497000Y-54304000D02*
X74697000Y-54304000D01*
X77297000Y-54304000D02*
X86197000Y-54304000D01*
X86197000Y-54304000D02*
X86197000Y-60504000D01*
X86197000Y-60504000D02*
X84997000Y-60504000D01*
X81797000Y-60504000D02*
X75297000Y-60504000D01*
X72697000Y-60504000D02*
X72697000Y-62504000D01*
X75297000Y-60504000D02*
X75297000Y-62504000D01*
X72697000Y-49074000D02*
X71497000Y-49074000D01*
X71497000Y-49074000D02*
X71497000Y-48574000D01*
X71497000Y-48574000D02*
X68997000Y-48574000D01*
X68997000Y-48574000D02*
X68997000Y-43374000D01*
X68997000Y-43374000D02*
X71497000Y-43374000D01*
X71497000Y-43374000D02*
X71497000Y-42874000D01*
X71497000Y-42874000D02*
X74697000Y-42874000D01*
X77297000Y-42874000D02*
X86197000Y-42874000D01*
X86197000Y-42874000D02*
X86197000Y-49074000D01*
X86197000Y-49074000D02*
X84997000Y-49074000D01*
X81797000Y-49074000D02*
X75297000Y-49074000D01*
X72697000Y-49074000D02*
X72697000Y-51074000D01*
X75297000Y-49074000D02*
X75297000Y-51074000D01*
X87316000Y-33334000D02*
X87316000Y-32004000D01*
X88646000Y-33334000D02*
X87316000Y-33334000D01*
X89916000Y-33334000D02*
X89916000Y-30674000D01*
X89916000Y-30674000D02*
X92516000Y-30674000D01*
X89916000Y-33334000D02*
X92516000Y-33334000D01*
X92516000Y-33334000D02*
X92516000Y-30674000D01*
X92516000Y-55940000D02*
X92516000Y-53280000D01*
X89916000Y-55940000D02*
X92516000Y-55940000D01*
X89916000Y-53280000D02*
X92516000Y-53280000D01*
X89916000Y-55940000D02*
X89916000Y-53280000D01*
X88646000Y-55940000D02*
X87316000Y-55940000D01*
X87316000Y-55940000D02*
X87316000Y-54610000D01*
X108715500Y-38287000D02*
X111375500Y-38287000D01*
X108715500Y-35687000D02*
X108715500Y-38287000D01*
X111375500Y-35687000D02*
X111375500Y-38287000D01*
X108715500Y-35687000D02*
X111375500Y-35687000D01*
X108715500Y-34417000D02*
X108715500Y-33087000D01*
X108715500Y-33087000D02*
X110045500Y-33087000D01*
X115534221Y-41150000D02*
X115859779Y-41150000D01*
X115534221Y-40130000D02*
X115859779Y-40130000D01*
X122082779Y-42420000D02*
X121757221Y-42420000D01*
X122082779Y-41400000D02*
X121757221Y-41400000D01*
X133856000Y-36738779D02*
X133856000Y-36413221D01*
X134876000Y-36738779D02*
X134876000Y-36413221D01*
D14*
X99579000Y-60430000D02*
X99579000Y-64030000D01*
X99579000Y-64030000D02*
X99079000Y-64530000D01*
X99079000Y-64530000D02*
X98279000Y-64530000D01*
X98279000Y-64530000D02*
X97779000Y-64030000D01*
X97779000Y-64030000D02*
X97779000Y-60430000D01*
X97779000Y-60430000D02*
X98279000Y-59930000D01*
X98279000Y-59930000D02*
X99079000Y-59930000D01*
X99079000Y-59930000D02*
X99579000Y-60430000D01*
D12*
X112502000Y-35115500D02*
X112502000Y-37065500D01*
X112502000Y-35115500D02*
X112502000Y-33165500D01*
X117622000Y-35115500D02*
X117622000Y-37065500D01*
X117622000Y-35115500D02*
X117622000Y-31665500D01*
X136637000Y-46980500D02*
X137087000Y-46980500D01*
X137087000Y-46980500D02*
X137087000Y-46530500D01*
X130317000Y-46980500D02*
X129867000Y-46980500D01*
X129867000Y-46980500D02*
X129867000Y-46530500D01*
X136637000Y-39760500D02*
X137087000Y-39760500D01*
X137087000Y-39760500D02*
X137087000Y-40210500D01*
X130317000Y-39760500D02*
X129867000Y-39760500D01*
X129867000Y-39760500D02*
X129867000Y-40210500D01*
X129867000Y-40210500D02*
X128577000Y-40210500D01*
X98358000Y-41532500D02*
X95698000Y-41532500D01*
X98358000Y-46672500D02*
X98358000Y-41532500D01*
X95698000Y-46672500D02*
X95698000Y-41532500D01*
X98358000Y-46672500D02*
X95698000Y-46672500D01*
X98358000Y-47942500D02*
X98358000Y-49272500D01*
X98358000Y-49272500D02*
X97028000Y-49272500D01*
X91951500Y-41532500D02*
X93281500Y-41532500D01*
X91951500Y-42862500D02*
X91951500Y-41532500D01*
X91951500Y-44132500D02*
X94611500Y-44132500D01*
X94611500Y-44132500D02*
X94611500Y-49272500D01*
X91951500Y-44132500D02*
X91951500Y-49272500D01*
X91951500Y-49272500D02*
X94611500Y-49272500D01*
X108264000Y-68640000D02*
X108264000Y-65980000D01*
X103124000Y-68640000D02*
X108264000Y-68640000D01*
X103124000Y-65980000D02*
X108264000Y-65980000D01*
X103124000Y-68640000D02*
X103124000Y-65980000D01*
X101854000Y-68640000D02*
X100524000Y-68640000D01*
X100524000Y-68640000D02*
X100524000Y-67310000D01*
X138394221Y-51750500D02*
X138719779Y-51750500D01*
X138394221Y-52770500D02*
X138719779Y-52770500D01*
X139774500Y-53317500D02*
X137974500Y-53317500D01*
X137974500Y-56537500D02*
X140424500Y-56537500D01*
X99566000Y-51242279D02*
X99566000Y-50916721D01*
X100586000Y-51242279D02*
X100586000Y-50916721D01*
X100586000Y-41564779D02*
X100586000Y-41239221D01*
X99566000Y-41564779D02*
X99566000Y-41239221D01*
M02*
