<svg height="21.0007cm" viewBox="0 0 116930 82680 " width="29.7002cm">
<title>Picutre generated by pcb2svg</title>
<desc>Picture generated by pcb2svg</desc>
<defs> <mask height="4133" id="boardMask" width="4606" x="52027" y="26555"><rect height="4133" style="fill:#FFFFFF; fill-opacity:1.0;" width="4606" x="52027" y="26555" /></mask><mask height="4133" id="test-a" width="4606" x="52027" y="26555"><g height="4133" style="fill:#000000; fill-opacity:1.0; stroke:#000000; stroke-opacity:1.0;" width="4606" x="52027" y="26555"><g style="fill:#000000; fill-opacity:1;stroke:#000000; stroke-opacity:1; stroke-linecap:round; stroke-linejoin:round; " transform="translate(0 0) scale(1 1)">
</g>
<g style="fill:#000000; fill-opacity:0.0;  stroke:#000000; stroke-width:-0.000393701; stroke-opacity:1;  stroke-linecap:round; stroke-linejoin:round;">
</g>
<g style="fill:#000000; fill-opacity:1.0;  stroke:#000000; stroke-width:0; stroke-opacity:1;  stroke-linecap:round; stroke-linejoin:round;">
<path d="M 56417.7,30256.3 56083,30256.3 56073.4,30257.2 56064.2,30260 56055.7,30264.6 56048.2,30270.7 56042.1,30278.2 56037.6,30286.7 56034.8,30295.9 56033.8,30305.5 56034.8,30315.1 56037.6,30324.3 56039.6,30328.7 56040.2,30329.7 56042.6,30337.8 56043.7,30348.7 56043.7,30549 56042.6,30559.8 56040.2,30567.9 56036.2,30575.4 56030.8,30582 56024.2,30587.4 56016.8,30591.3 56008.6,30593.8 55997.8,30594.9 55817.2,30594.9 55806.3,30593.8 55798.2,30591.3 55790.7,30587.4 55784.2,30582 55778.8,30575.4 55774.8,30567.9 55772.3,30559.8 55771.3,30549 55771.3,30348.7 55772.3,30337.8 55774.8,30329.7 55775.3,30328.7 55779,30319.8 55780.9,30310.3 55780.9,30300.7 55779,30291.2 55775.3,30282.3 55770,30274.3 55763.1,30267.5 55755.1,30262.1 55746.2,30258.4 55736.7,30256.5 55731.9,30256.3 55701.2,30256.3 55691.5,30257.2 55682.3,30260 55673.8,30264.6 55666.4,30270.7 55660.2,30278.2 55655.7,30286.7 55652.9,30295.9 55651.9,30305.5 55652.9,30315.1 55655.7,30324.3 55657.7,30328.7 55658.3,30329.7 55660.7,30337.8 55661.8,30348.7 55661.8,30549 55660.7,30559.8 55658.3,30567.9 55654.3,30575.4 55648.9,30582 55642.3,30587.4 55634.9,30591.3 55626.7,30593.8 55615.9,30594.9 55435.3,30594.9 55424.4,30593.8 55416.3,30591.3 55408.8,30587.4 55402.3,30582 55396.9,30575.4 55392.9,30567.9 55390.4,30559.8 55389.4,30549 55389.4,30348.7 55390.4,30337.8 55392.9,30329.7 55393.4,30328.7 55397.1,30319.8 55399,30310.3 55399,30300.7 55397.1,30291.2 55393.4,30282.3 55393.3,30282.1 55393.3,29231.9 56417.7,29231.9 Z" style="fill:#000000; fill-opacity:1.0;  stroke:#000000; stroke-width:0; stroke-opacity:1;  stroke-linecap:round; stroke-linejoin:round;fill-rule:evenodd;" /> 
<path d="M 54783.9,30551.6 53877.6,30551.6 53877.6,30098 54783.9,30098 Z" style="fill:#000000; fill-opacity:1.0;  stroke:#000000; stroke-width:0; stroke-opacity:1;  stroke-linecap:round; stroke-linejoin:round;fill-rule:evenodd;" /> 
<path d="M 53268.1,30256.3 52243.7,30256.3 52243.7,29231.9 53268.1,29231.9 Z" style="fill:#000000; fill-opacity:1.0;  stroke:#000000; stroke-width:0; stroke-opacity:1;  stroke-linecap:round; stroke-linejoin:round;fill-rule:evenodd;" /> 
<path d="M 55138.2,29961 54704.3,29961 54704.3,29527.2 55138.2,29527.2 Z" style="fill:#000000; fill-opacity:1.0;  stroke:#000000; stroke-width:0; stroke-opacity:1;  stroke-linecap:round; stroke-linejoin:round;fill-rule:evenodd;" /> 
<path d="M 53957.1,29961 53523.2,29961 53523.2,29527.2 53957.1,29527.2 Z" style="fill:#000000; fill-opacity:1.0;  stroke:#000000; stroke-width:0; stroke-opacity:1;  stroke-linecap:round; stroke-linejoin:round;fill-rule:evenodd;" /> 
<path d="M 54783.9,29390.2 53877.6,29390.2 53877.6,28936.6 54783.9,28936.6 Z" style="fill:#000000; fill-opacity:1.0;  stroke:#000000; stroke-width:0; stroke-opacity:1;  stroke-linecap:round; stroke-linejoin:round;fill-rule:evenodd;" /> 
<path d="M 56417.7,28012.2 56083,28012.2 56073.4,28013.2 56064.2,28016 56055.7,28020.5 56048.2,28026.6 56042.1,28034.1 56037.6,28042.6 56034.8,28051.8 56033.8,28061.4 56034.8,28071 56037.6,28080.2 56039.6,28084.6 56040.2,28085.6 56042.6,28093.7 56043.7,28104.6 56043.7,28304.9 56042.6,28315.7 56040.2,28323.8 56036.2,28331.3 56030.8,28337.9 56024.2,28343.3 56016.8,28347.3 56008.6,28349.7 55997.8,28350.8 55817.2,28350.8 55806.3,28349.7 55798.2,28347.3 55790.7,28343.3 55784.2,28337.9 55778.8,28331.3 55774.8,28323.8 55772.3,28315.7 55771.3,28304.9 55771.3,28104.6 55772.3,28093.7 55774.8,28085.6 55775.3,28084.6 55779,28075.7 55780.9,28066.2 55780.9,28056.6 55779,28047.1 55775.3,28038.2 55770,28030.2 55763.1,28023.4 55755.1,28018 55746.2,28014.3 55736.7,28012.4 55731.9,28012.2 55701.2,28012.2 55691.5,28013.2 55682.3,28016 55673.8,28020.5 55666.4,28026.6 55660.2,28034.1 55655.7,28042.6 55652.9,28051.8 55651.9,28061.4 55652.9,28071 55655.7,28080.2 55657.7,28084.6 55658.3,28085.6 55660.7,28093.7 55661.8,28104.6 55661.8,28304.9 55660.7,28315.7 55658.3,28323.8 55654.3,28331.3 55648.9,28337.9 55642.3,28343.3 55634.9,28347.3 55626.7,28349.7 55615.9,28350.8 55435.3,28350.8 55424.4,28349.7 55416.3,28347.3 55408.8,28343.3 55402.3,28337.9 55396.9,28331.3 55392.9,28323.8 55390.4,28315.7 55389.4,28304.9 55389.4,28104.6 55390.4,28093.7 55392.9,28085.6 55393.4,28084.6 55397.1,28075.7 55399,28066.2 55399,28056.6 55397.1,28047.1 55393.4,28038.2 55393.3,28038 55393.3,26987.8 56417.7,26987.8 Z" style="fill:#000000; fill-opacity:1.0;  stroke:#000000; stroke-width:0; stroke-opacity:1;  stroke-linecap:round; stroke-linejoin:round;fill-rule:evenodd;" /> 
<path d="M 54783.9,28307.5 53877.6,28307.5 53877.6,27853.9 54783.9,27853.9 Z" style="fill:#000000; fill-opacity:1.0;  stroke:#000000; stroke-width:0; stroke-opacity:1;  stroke-linecap:round; stroke-linejoin:round;fill-rule:evenodd;" /> 
<path d="M 53268.1,28012.2 52243.7,28012.2 52243.7,26987.8 53268.1,26987.8 Z" style="fill:#000000; fill-opacity:1.0;  stroke:#000000; stroke-width:0; stroke-opacity:1;  stroke-linecap:round; stroke-linejoin:round;fill-rule:evenodd;" /> 
<path d="M 55138.2,27716.9 54704.3,27716.9 54704.3,27283.1 55138.2,27283.1 Z" style="fill:#000000; fill-opacity:1.0;  stroke:#000000; stroke-width:0; stroke-opacity:1;  stroke-linecap:round; stroke-linejoin:round;fill-rule:evenodd;" /> 
<path d="M 53957.1,27716.9 53523.2,27716.9 53523.2,27283.1 53957.1,27283.1 Z" style="fill:#000000; fill-opacity:1.0;  stroke:#000000; stroke-width:0; stroke-opacity:1;  stroke-linecap:round; stroke-linejoin:round;fill-rule:evenodd;" /> 
<path d="M 54783.9,27146.1 53877.6,27146.1 53877.6,26692.5 54783.9,26692.5 Z" style="fill:#000000; fill-opacity:1.0;  stroke:#000000; stroke-width:0; stroke-opacity:1;  stroke-linecap:round; stroke-linejoin:round;fill-rule:evenodd;" /> 
</g> 
</g><rect height="4133" style="fill:#FFFFFF; fill-opacity:1.0;" width="4606" x="52027" y="26555" /></mask></defs>
<g style="fill:#402400; fill-opacity:1.0;"><g height="4133" style="fill:#402400; fill-opacity:1.0; stroke:#402400; stroke-opacity:1.0;" width="4606" x="52027" y="26555"><g style="fill:#402400; fill-opacity:1;stroke:#402400; stroke-opacity:1; stroke-linecap:round; stroke-linejoin:round; " transform="translate(0 0) scale(1 1)">
</g>
<g style="fill:#402400; fill-opacity:0.0;  stroke:#402400; stroke-width:-0.000393701; stroke-opacity:1;  stroke-linecap:round; stroke-linejoin:round;">
<g style="stroke:#402400;">
</g>
<g style="stroke:#402400;">
</g>
<g style="stroke:#402400;">
</g>
<g style="stroke:#402400;">
</g>
<g style="stroke:#402400;">
</g>
<g style="stroke:#402400;">
</g>
<g style="stroke:#402400;">
</g>
<g style="stroke:#402400;">
</g>
<g style="stroke:#402400;">
</g>
<g style="fill:#402400; fill-opacity:0.0;  stroke:#402400; stroke-width:-0.000393701; stroke-opacity:1;  stroke-linecap:round; stroke-linejoin:round;">
</g>
<g style="fill:#402400; fill-opacity:1.0;  stroke:#402400; stroke-width:0; stroke-opacity:1;  stroke-linecap:round; stroke-linejoin:round;">
<circle cx="52755.9" cy="29763.8" r="255.906" style="stroke:#402400;" /> 
</g>
<g style="fill:#402400; fill-opacity:1.0;  stroke:#402400; stroke-width:137.795; stroke-opacity:1;  stroke-linecap:round; stroke-linejoin:round;">
</g>
<g style="fill:#402400; fill-opacity:1.0;  stroke:#402400; stroke-width:0; stroke-opacity:1;  stroke-linecap:round; stroke-linejoin:round;">
<circle cx="52755.9" cy="27519.7" r="255.906" style="stroke:#402400;" /> 
</g>
<g style="fill:#402400; fill-opacity:1.0;  stroke:#402400; stroke-width:137.795; stroke-opacity:1;  stroke-linecap:round; stroke-linejoin:round;">
</g>
<g style="fill:#402400; fill-opacity:1.0;  stroke:#402400; stroke-width:0; stroke-opacity:1;  stroke-linecap:round; stroke-linejoin:round;">
<circle cx="55907.5" cy="29746.1" r="255.906" style="stroke:#402400;" /> 
</g>
<g style="fill:#402400; fill-opacity:1.0;  stroke:#402400; stroke-width:137.795; stroke-opacity:1;  stroke-linecap:round; stroke-linejoin:round;">
</g>
<g style="fill:#402400; fill-opacity:1.0;  stroke:#402400; stroke-width:0; stroke-opacity:1;  stroke-linecap:round; stroke-linejoin:round;">
<circle cx="55907.5" cy="27502" r="255.906" style="stroke:#402400;" /> 
</g>
<g style="fill:#402400; fill-opacity:1.0;  stroke:#402400; stroke-width:137.795; stroke-opacity:1;  stroke-linecap:round; stroke-linejoin:round;">
</g>
<g style="stroke:#402400;">
</g>
<g style="stroke:#402400;">
</g>
</g>
<g style="stroke:#402400;">
</g>
<g style="stroke:#402400;">
</g>
<g style="stroke:#402400;">
</g>
<g style="stroke:#402400;">
</g>
<g style="stroke:#402400;">
</g>
<g style="stroke:#402400;">
</g>
<g style="stroke:#402400;">
</g>
<g style="stroke:#402400;">
</g>
<g style="stroke:#402400;">
</g>
<g style="fill:#402400; fill-opacity:0.0;  stroke:#402400; stroke-width:-0.000393701; stroke-opacity:1;  stroke-linecap:round; stroke-linejoin:round;">
</g>
<g style="fill:#402400; fill-opacity:1.0;  stroke:#402400; stroke-width:0; stroke-opacity:1;  stroke-linecap:round; stroke-linejoin:round;">
<circle cx="52755.9" cy="29763.8" r="255.906" style="stroke:#402400;" /> 
</g>
<g style="fill:#402400; fill-opacity:1.0;  stroke:#402400; stroke-width:137.795; stroke-opacity:1;  stroke-linecap:round; stroke-linejoin:round;">
</g>
<g style="fill:#402400; fill-opacity:1.0;  stroke:#402400; stroke-width:0; stroke-opacity:1;  stroke-linecap:round; stroke-linejoin:round;">
<circle cx="52755.9" cy="27519.7" r="255.906" style="stroke:#402400;" /> 
</g>
<g style="fill:#402400; fill-opacity:1.0;  stroke:#402400; stroke-width:137.795; stroke-opacity:1;  stroke-linecap:round; stroke-linejoin:round;">
</g>
<g style="fill:#402400; fill-opacity:1.0;  stroke:#402400; stroke-width:0; stroke-opacity:1;  stroke-linecap:round; stroke-linejoin:round;">
<circle cx="55907.5" cy="29746.1" r="255.906" style="stroke:#402400;" /> 
</g>
<g style="fill:#402400; fill-opacity:1.0;  stroke:#402400; stroke-width:137.795; stroke-opacity:1;  stroke-linecap:round; stroke-linejoin:round;">
</g>
<g style="fill:#402400; fill-opacity:1.0;  stroke:#402400; stroke-width:0; stroke-opacity:1;  stroke-linecap:round; stroke-linejoin:round;">
<circle cx="55907.5" cy="27502" r="255.906" style="stroke:#402400;" /> 
</g>
<g style="fill:#402400; fill-opacity:1.0;  stroke:#402400; stroke-width:137.795; stroke-opacity:1;  stroke-linecap:round; stroke-linejoin:round;">
</g>
<g style="stroke:#402400;">
</g>
<g style="stroke:#402400;">
</g>
<g style="fill:#402400; fill-opacity:1.0;  stroke:#402400; stroke-width:137.795; stroke-opacity:1;  stroke-linecap:round; stroke-linejoin:round;">
</g>
<g style="fill:#402400; fill-opacity:1.0;  stroke:#402400; stroke-width:0; stroke-opacity:1;  stroke-linecap:round; stroke-linejoin:round;">
<circle cx="52755.9" cy="29763.8" r="196.85" style="stroke:#402400;" /> 
</g>
<g style="fill:#402400; fill-opacity:1.0;  stroke:#402400; stroke-width:137.795; stroke-opacity:1;  stroke-linecap:round; stroke-linejoin:round;">
</g>
<g style="fill:#402400; fill-opacity:1.0;  stroke:#402400; stroke-width:0; stroke-opacity:1;  stroke-linecap:round; stroke-linejoin:round;">
<circle cx="52755.9" cy="27519.7" r="196.85" style="stroke:#402400;" /> 
</g>
<g style="fill:#402400; fill-opacity:1.0;  stroke:#402400; stroke-width:137.795; stroke-opacity:1;  stroke-linecap:round; stroke-linejoin:round;">
</g>
<g style="fill:#402400; fill-opacity:1.0;  stroke:#402400; stroke-width:0; stroke-opacity:1;  stroke-linecap:round; stroke-linejoin:round;">
<circle cx="55907.5" cy="29746.1" r="196.85" style="stroke:#402400;" /> 
</g>
<g style="fill:#402400; fill-opacity:1.0;  stroke:#402400; stroke-width:137.795; stroke-opacity:1;  stroke-linecap:round; stroke-linejoin:round;">
</g>
<g style="fill:#402400; fill-opacity:1.0;  stroke:#402400; stroke-width:0; stroke-opacity:1;  stroke-linecap:round; stroke-linejoin:round;">
<circle cx="55907.5" cy="27502" r="196.85" style="stroke:#402400;" /> 
</g>
<g style="fill:#402400; fill-opacity:1.0;  stroke:#402400; stroke-width:137.795; stroke-opacity:1;  stroke-linecap:round; stroke-linejoin:round;">
</g>
<g style="fill:#402400; fill-opacity:1.0;  stroke:#402400; stroke-width:137.795; stroke-opacity:1;  stroke-linecap:round; stroke-linejoin:round;">
</g> 
</g></g><g style="fill:#E8D959; fill-opacity:1.0;"><g height="4133" style="fill:#E8D959; fill-opacity:1.0; stroke:#E8D959; stroke-opacity:1.0;" width="4606" x="52027" y="26555"><g style="fill:#E8D959; fill-opacity:1;stroke:#E8D959; stroke-opacity:1; stroke-linecap:round; stroke-linejoin:round; " transform="translate(0 0) scale(1 1)">
</g>
<g style="fill:#E8D959; fill-opacity:0.0;  stroke:#E8D959; stroke-width:-0.000393701; stroke-opacity:1;  stroke-linecap:round; stroke-linejoin:round;">
<g style="stroke:#E8D959;">
</g>
<g style="fill:#E8D959; fill-opacity:0.0;  stroke:#E8D959; stroke-width:0; stroke-opacity:1;  stroke-linecap:round; stroke-linejoin:round;">
</g>
<g style="fill:#E8D959; fill-opacity:1.0;  stroke:#E8D959; stroke-width:0; stroke-opacity:1;  stroke-linecap:round; stroke-linejoin:round;">
<path d="M 55589.4,28079 55595,28079.9 55600.5,28081.2 55605.9,28083.2 55611,28085.6 55615.9,28088.5 55620.5,28091.9 55624.7,28095.7 55628.6,28100 55631.9,28104.5 55634.9,28109.4 55637.3,28114.6 55639.2,28120 55640.6,28125.5 55641.5,28131.1 55641.7,28136.8 55641.7,28272.6 55641.5,28278.3 55640.6,28284 55639.2,28289.5 55637.3,28294.9 55634.9,28300 55631.9,28304.9 55628.6,28309.5 55624.7,28313.7 55620.5,28317.5 55615.9,28320.9 55611,28323.9 55605.9,28326.3 55600.5,28328.2 55595,28329.6 55589.4,28330.4 55583.7,28330.7 55467.5,28330.7 55461.8,28330.4 55456.2,28329.6 55450.7,28328.2 55445.3,28326.3 55440.1,28323.9 55435.3,28320.9 55430.7,28317.5 55426.5,28313.7 55422.6,28309.5 55419.2,28304.9 55416.3,28300 55413.9,28294.9 55411.9,28289.5 55410.6,28284 55409.7,28278.3 55409.4,28272.6 55409.4,28136.8 55409.7,28131.1 55410.6,28125.5 55411.9,28120 55413.9,28114.6 55416.3,28109.4 55419.2,28104.5 55422.6,28100 55426.5,28095.7 55430.7,28091.9 55435.3,28088.5 55440.1,28085.6 55445.3,28083.2 55450.7,28081.2 55456.2,28079.9 55461.8,28079 55467.5,28078.7 55583.7,28078.7 Z" style="fill:#E8D959; fill-opacity:1.0;  stroke:#E8D959; stroke-width:0; stroke-opacity:1;  stroke-linecap:round; stroke-linejoin:round;fill-rule:evenodd;" /> 
<path d="M 55971.2,28079 55976.9,28079.9 55982.4,28081.2 55987.8,28083.2 55992.9,28085.6 55997.8,28088.5 56002.4,28091.9 56006.6,28095.7 56010.4,28100 56013.8,28104.5 56016.8,28109.4 56019.2,28114.6 56021.1,28120 56022.5,28125.5 56023.3,28131.1 56023.6,28136.8 56023.6,28272.6 56023.3,28278.3 56022.5,28284 56021.1,28289.5 56019.2,28294.9 56016.8,28300 56013.8,28304.9 56010.4,28309.5 56006.6,28313.7 56002.4,28317.5 55997.8,28320.9 55992.9,28323.9 55987.8,28326.3 55982.4,28328.2 55976.9,28329.6 55971.2,28330.4 55965.6,28330.7 55849.4,28330.7 55843.7,28330.4 55838.1,28329.6 55832.6,28328.2 55827.2,28326.3 55822,28323.9 55817.1,28320.9 55812.6,28317.5 55808.3,28313.7 55804.5,28309.5 55801.1,28304.9 55798.2,28300 55795.8,28294.9 55793.8,28289.5 55792.5,28284 55791.6,28278.3 55791.3,28272.6 55791.3,28136.8 55791.6,28131.1 55792.5,28125.5 55793.8,28120 55795.8,28114.6 55798.2,28109.4 55801.1,28104.5 55804.5,28100 55808.3,28095.7 55812.6,28091.9 55817.1,28088.5 55822,28085.6 55827.2,28083.2 55832.6,28081.2 55838.1,28079.9 55843.7,28079 55849.4,28078.7 55965.6,28078.7 Z" style="fill:#E8D959; fill-opacity:1.0;  stroke:#E8D959; stroke-width:0; stroke-opacity:1;  stroke-linecap:round; stroke-linejoin:round;fill-rule:evenodd;" /> 
</g>
<g style="stroke:#E8D959;">
</g>
<g style="fill:#E8D959; fill-opacity:1.0;  stroke:#E8D959; stroke-width:0; stroke-opacity:1;  stroke-linecap:round; stroke-linejoin:round;">
<path d="M 52263.8,27992.1 52263.8,27007.9 53248,27007.9 53248,27992.1 Z" style="fill:#E8D959; fill-opacity:1.0;  stroke:#E8D959; stroke-width:0; stroke-opacity:1;  stroke-linecap:round; stroke-linejoin:round;fill-rule:evenodd;" /> 
</g>
<g style="stroke:#E8D959;">
</g>
<g style="fill:#E8D959; fill-opacity:1.0;  stroke:#E8D959; stroke-width:0; stroke-opacity:1;  stroke-linecap:round; stroke-linejoin:round;">
<path d="M 55413.4,27992.1 55413.4,27007.9 56397.6,27007.9 56397.6,27992.1 Z" style="fill:#E8D959; fill-opacity:1.0;  stroke:#E8D959; stroke-width:0; stroke-opacity:1;  stroke-linecap:round; stroke-linejoin:round;fill-rule:evenodd;" /> 
</g>
<g style="stroke:#E8D959;">
</g>
<g style="fill:#E8D959; fill-opacity:1.0;  stroke:#E8D959; stroke-width:0; stroke-opacity:1;  stroke-linecap:round; stroke-linejoin:round;">
<path d="M 55118.1,27696.9 54724.4,27696.9 54724.4,27303.1 55118.1,27303.1 Z" style="fill:#E8D959; fill-opacity:1.0;  stroke:#E8D959; stroke-width:0; stroke-opacity:1;  stroke-linecap:round; stroke-linejoin:round;fill-rule:evenodd;" /> 
<path d="M 53937,27696.9 53543.3,27696.9 53543.3,27303.1 53937,27303.1 Z" style="fill:#E8D959; fill-opacity:1.0;  stroke:#E8D959; stroke-width:0; stroke-opacity:1;  stroke-linecap:round; stroke-linejoin:round;fill-rule:evenodd;" /> 
<path d="M 54763.8,27126 53897.6,27126 53897.6,26712.6 54763.8,26712.6 Z" style="fill:#E8D959; fill-opacity:1.0;  stroke:#E8D959; stroke-width:0; stroke-opacity:1;  stroke-linecap:round; stroke-linejoin:round;fill-rule:evenodd;" /> 
<path d="M 54763.8,28287.4 53897.6,28287.4 53897.6,27874 54763.8,27874 Z" style="fill:#E8D959; fill-opacity:1.0;  stroke:#E8D959; stroke-width:0; stroke-opacity:1;  stroke-linecap:round; stroke-linejoin:round;fill-rule:evenodd;" /> 
</g>
<g style="stroke:#E8D959;">
</g>
<g style="fill:#E8D959; fill-opacity:1.0;  stroke:#E8D959; stroke-width:0; stroke-opacity:1;  stroke-linecap:round; stroke-linejoin:round;">
<path d="M 54763.8,30531.5 53897.6,30531.5 53897.6,30118.1 54763.8,30118.1 Z" style="fill:#E8D959; fill-opacity:1.0;  stroke:#E8D959; stroke-width:0; stroke-opacity:1;  stroke-linecap:round; stroke-linejoin:round;fill-rule:evenodd;" /> 
<path d="M 54763.8,29370.1 53897.6,29370.1 53897.6,28956.7 54763.8,28956.7 Z" style="fill:#E8D959; fill-opacity:1.0;  stroke:#E8D959; stroke-width:0; stroke-opacity:1;  stroke-linecap:round; stroke-linejoin:round;fill-rule:evenodd;" /> 
<path d="M 53937,29940.9 53543.3,29940.9 53543.3,29547.2 53937,29547.2 Z" style="fill:#E8D959; fill-opacity:1.0;  stroke:#E8D959; stroke-width:0; stroke-opacity:1;  stroke-linecap:round; stroke-linejoin:round;fill-rule:evenodd;" /> 
<path d="M 55118.1,29940.9 54724.4,29940.9 54724.4,29547.2 55118.1,29547.2 Z" style="fill:#E8D959; fill-opacity:1.0;  stroke:#E8D959; stroke-width:0; stroke-opacity:1;  stroke-linecap:round; stroke-linejoin:round;fill-rule:evenodd;" /> 
</g>
<g style="stroke:#E8D959;">
</g>
<g style="fill:#E8D959; fill-opacity:1.0;  stroke:#E8D959; stroke-width:0; stroke-opacity:1;  stroke-linecap:round; stroke-linejoin:round;">
<path d="M 55413.4,30236.2 55413.4,29252 56397.6,29252 56397.6,30236.2 Z" style="fill:#E8D959; fill-opacity:1.0;  stroke:#E8D959; stroke-width:0; stroke-opacity:1;  stroke-linecap:round; stroke-linejoin:round;fill-rule:evenodd;" /> 
</g>
<g style="stroke:#E8D959;">
</g>
<g style="fill:#E8D959; fill-opacity:1.0;  stroke:#E8D959; stroke-width:0; stroke-opacity:1;  stroke-linecap:round; stroke-linejoin:round;">
<path d="M 52263.8,30236.2 52263.8,29252 53248,29252 53248,30236.2 Z" style="fill:#E8D959; fill-opacity:1.0;  stroke:#E8D959; stroke-width:0; stroke-opacity:1;  stroke-linecap:round; stroke-linejoin:round;fill-rule:evenodd;" /> 
</g>
<g style="stroke:#E8D959;">
</g>
<g style="fill:#E8D959; fill-opacity:1.0;  stroke:#E8D959; stroke-width:0; stroke-opacity:1;  stroke-linecap:round; stroke-linejoin:round;">
<path d="M 55971.2,30323.1 55976.9,30324 55982.4,30325.3 55987.8,30327.3 55992.9,30329.7 55997.8,30332.6 56002.4,30336 56006.6,30339.8 56010.4,30344.1 56013.8,30348.6 56016.8,30353.5 56019.2,30358.7 56021.1,30364 56022.5,30369.6 56023.3,30375.2 56023.6,30380.9 56023.6,30516.7 56023.3,30522.4 56022.5,30528.1 56021.1,30533.6 56019.2,30539 56016.8,30544.1 56013.8,30549 56010.4,30553.6 56006.6,30557.8 56002.4,30561.6 55997.8,30565 55992.9,30567.9 55987.8,30570.4 55982.4,30572.3 55976.9,30573.7 55971.2,30574.5 55965.6,30574.8 55849.4,30574.8 55843.7,30574.5 55838.1,30573.7 55832.6,30572.3 55827.2,30570.4 55822,30567.9 55817.1,30565 55812.6,30561.6 55808.3,30557.8 55804.5,30553.6 55801.1,30549 55798.2,30544.1 55795.8,30539 55793.8,30533.6 55792.5,30528.1 55791.6,30522.4 55791.3,30516.7 55791.3,30380.9 55791.6,30375.2 55792.5,30369.6 55793.8,30364 55795.8,30358.7 55798.2,30353.5 55801.1,30348.6 55804.5,30344.1 55808.3,30339.8 55812.6,30336 55817.1,30332.6 55822,30329.7 55827.2,30327.3 55832.6,30325.3 55838.1,30324 55843.7,30323.1 55849.4,30322.8 55965.6,30322.8 Z" style="fill:#E8D959; fill-opacity:1.0;  stroke:#E8D959; stroke-width:0; stroke-opacity:1;  stroke-linecap:round; stroke-linejoin:round;fill-rule:evenodd;" /> 
<path d="M 55589.4,30323.1 55595,30324 55600.5,30325.3 55605.9,30327.3 55611,30329.7 55615.9,30332.6 55620.5,30336 55624.7,30339.8 55628.6,30344.1 55631.9,30348.6 55634.9,30353.5 55637.3,30358.7 55639.2,30364 55640.6,30369.6 55641.5,30375.2 55641.7,30380.9 55641.7,30516.7 55641.5,30522.4 55640.6,30528.1 55639.2,30533.6 55637.3,30539 55634.9,30544.1 55631.9,30549 55628.6,30553.6 55624.7,30557.8 55620.5,30561.6 55615.9,30565 55611,30567.9 55605.9,30570.4 55600.5,30572.3 55595,30573.7 55589.4,30574.5 55583.7,30574.8 55467.5,30574.8 55461.8,30574.5 55456.2,30573.7 55450.7,30572.3 55445.3,30570.4 55440.1,30567.9 55435.3,30565 55430.7,30561.6 55426.5,30557.8 55422.6,30553.6 55419.2,30549 55416.3,30544.1 55413.9,30539 55411.9,30533.6 55410.6,30528.1 55409.7,30522.4 55409.4,30516.7 55409.4,30380.9 55409.7,30375.2 55410.6,30369.6 55411.9,30364 55413.9,30358.7 55416.3,30353.5 55419.2,30348.6 55422.6,30344.1 55426.5,30339.8 55430.7,30336 55435.3,30332.6 55440.1,30329.7 55445.3,30327.3 55450.7,30325.3 55456.2,30324 55461.8,30323.1 55467.5,30322.8 55583.7,30322.8 Z" style="fill:#E8D959; fill-opacity:1.0;  stroke:#E8D959; stroke-width:0; stroke-opacity:1;  stroke-linecap:round; stroke-linejoin:round;fill-rule:evenodd;" /> 
</g>
<g style="stroke:#E8D959;">
</g>
<g style="fill:#E8D959; fill-opacity:1.0;  stroke:#E8D959; stroke-width:0; stroke-opacity:1;  stroke-linecap:round; stroke-linejoin:round;">
<circle cx="52755.9" cy="29763.8" r="255.906" style="stroke:#E8D959;" /> 
</g>
<g style="fill:#E8D959; fill-opacity:1.0;  stroke:#E8D959; stroke-width:137.795; stroke-opacity:1;  stroke-linecap:round; stroke-linejoin:round;">
</g>
<g style="fill:#E8D959; fill-opacity:1.0;  stroke:#E8D959; stroke-width:0; stroke-opacity:1;  stroke-linecap:round; stroke-linejoin:round;">
<circle cx="52755.9" cy="27519.7" r="255.906" style="stroke:#E8D959;" /> 
</g>
<g style="fill:#E8D959; fill-opacity:1.0;  stroke:#E8D959; stroke-width:137.795; stroke-opacity:1;  stroke-linecap:round; stroke-linejoin:round;">
</g>
<g style="fill:#E8D959; fill-opacity:1.0;  stroke:#E8D959; stroke-width:0; stroke-opacity:1;  stroke-linecap:round; stroke-linejoin:round;">
<circle cx="55907.5" cy="29746.1" r="255.906" style="stroke:#E8D959;" /> 
</g>
<g style="fill:#E8D959; fill-opacity:1.0;  stroke:#E8D959; stroke-width:137.795; stroke-opacity:1;  stroke-linecap:round; stroke-linejoin:round;">
</g>
<g style="fill:#E8D959; fill-opacity:1.0;  stroke:#E8D959; stroke-width:0; stroke-opacity:1;  stroke-linecap:round; stroke-linejoin:round;">
<circle cx="55907.5" cy="27502" r="255.906" style="stroke:#E8D959;" /> 
</g>
<g style="fill:#E8D959; fill-opacity:1.0;  stroke:#E8D959; stroke-width:137.795; stroke-opacity:1;  stroke-linecap:round; stroke-linejoin:round;">
</g>
<g style="stroke:#E8D959;">
</g>
<g style="fill:#E8D959; fill-opacity:1.0;  stroke:#E8D959; stroke-width:137.795; stroke-opacity:1;  stroke-linecap:round; stroke-linejoin:round;">
</g>
<g style="fill:#E8D959; fill-opacity:1.0;  stroke:#E8D959; stroke-width:60; stroke-opacity:1;  stroke-linecap:round; stroke-linejoin:round;">
</g>
<g style="fill:#E8D959; fill-opacity:0.0;  stroke:#E8D959; stroke-width:60; stroke-opacity:1;  stroke-linecap:round; stroke-linejoin:round;">
<path d="M52755 29744 L52755 29763 " style="stroke:#E8D959;" />
<path d="M52755 27500 L52755 27519 " style="stroke:#E8D959;" />
<path d="M54921 30000 L55039 30119 " style="stroke:#E8D959;" />
<path d="M54921 29744 L54921 30000 " style="stroke:#E8D959;" />
<path d="M55039 30119 L55039 30314 " style="stroke:#E8D959;" />
<path d="M55173 30448 L55525 30448 " style="stroke:#E8D959;" />
<path d="M55039 30314 L55173 30448 " style="stroke:#E8D959;" />
<path d="M54921 27756 L55039 27874 " style="stroke:#E8D959;" />
<path d="M54921 27500 L54921 27756 " style="stroke:#E8D959;" />
<path d="M55039 27874 L55039 28070 " style="stroke:#E8D959;" />
<path d="M55173 28204 L55525 28204 " style="stroke:#E8D959;" />
<path d="M55039 28070 L55173 28204 " style="stroke:#E8D959;" />
<path d="M55907 30448 L55907 29746 " style="stroke:#E8D959;" />
<path d="M55907 28204 L55907 27501 " style="stroke:#E8D959;" />
</g>
<g style="stroke:#E8D959;">
</g>
<g style="fill:#E8D959; fill-opacity:0.0;  stroke:#E8D959; stroke-width:60; stroke-opacity:1;  stroke-linecap:round; stroke-linejoin:round;">
</g>
<g style="fill:#E8D959; fill-opacity:1.0;  stroke:#E8D959; stroke-width:40.1575; stroke-opacity:1;  stroke-linecap:round; stroke-linejoin:round;">
<path d="M 53847.3,28923.1 53841.7,28933.5 53838.3,28944.9 53837.1,28956.7 53837.4,29147.9 53852.5,29163 54330.3,29163 54330.3,29155.1 54331.1,29155.1 54331.1,29163 54809,29163 54824,29147.9 54824.3,28956.7 54823.1,28944.9 54819.7,28933.5 54814.1,28923.1 54809.7,28917.7 56515.4,28917.7 56515.4,30570.5 56093.2,30570.5 56093.5,30569.7 56101.4,30543.8 56104.1,30516.7 56104.1,30380.9 56101.4,30353.9 56093.5,30327.9 56087.6,30316.7 56397.6,30316.7 56413.3,30315.1 56428.4,30310.6 56442.3,30303.1 56454.5,30293.1 56464.5,30280.9 56472,30267 56476.6,30251.9 56478.1,30236.2 56478.1,29252 56476.6,29236.3 56472,29221.2 56464.5,29207.3 56454.5,29195.1 56442.3,29185.1 56428.4,29177.6 56413.3,29173 56397.6,29171.5 55413.4,29171.5 55397.7,29173 55382.6,29177.6 55368.7,29185.1 55356.5,29195.1 55346.5,29207.3 55339,29221.2 55334.5,29236.3 55332.9,29252 55332.9,30236.2 55334.5,30251.9 55339,30267 55346.5,30280.9 55356.5,30293.1 55359.3,30295.4 55352.3,30303.9 55339.5,30327.9 55336.2,30338.7 55218.8,30338.7 55149.4,30269.4 55149.4,30124.5 55150,30119.1 55149.4,30113.7 55149.4,30113.7 55147.9,30097.5 55141.6,30076.7 55131.3,30057.6 55117.6,30040.8 55113.4,30037.4 55097.4,30021.4 55118.1,30021.4 55133.8,30019.9 55148.9,30015.3 55162.8,30007.8 55175,29997.8 55185,29985.6 55192.5,29971.7 55197,29956.6 55198.6,29940.9 55198.6,29547.2 55197,29531.5 55192.5,29516.5 55185,29502.5 55175,29490.3 55162.8,29480.3 55148.9,29472.9 55133.8,29468.3 55118.1,29466.8 54724.4,29466.8 54708.7,29468.3 54693.6,29472.9 54679.7,29480.3 54667.5,29490.3 54657.5,29502.5 54650.1,29516.5 54645.5,29531.5 54643.9,29547.2 54643.9,29940.9 54645.5,29956.6 54650.1,29971.7 54657.5,29985.6 54667.5,29997.8 54679.7,30007.8 54693.6,30015.3 54708.7,30019.9 54724.4,30021.4 54812.7,30021.4 54812.8,30022.5 54819.1,30043.3 54829.3,30062.4 54829.3,30062.4 54843,30079.2 54847.2,30082.6 54929.3,30164.7 54929.3,30309.6 54928.8,30315 54929.3,30320.4 54930.9,30336.5 54932,30340.3 54937.2,30357.3 54946.5,30374.8 54947.4,30376.4 54961.2,30393.2 54965.4,30396.6 55091.6,30522.8 55095,30527 55099.2,30530.5 55111.8,30540.8 55130.9,30551 55151.6,30557.3 55173.2,30559.4 55178.6,30558.9 55336.2,30558.9 55339.5,30569.7 55339.9,30570.5 54809.7,30570.5 54814.1,30565.1 54819.7,30554.7 54823.1,30543.3 54824.3,30531.5 54824,30340.3 54809,30325.2 54331.1,30325.2 54331.1,30333.1 54330.3,30333.1 54330.3,30325.2 53852.5,30325.2 53837.4,30340.3 53837.1,30531.5 53838.3,30543.3 53841.7,30554.7 53847.3,30565.1 53851.7,30570.5 52146.1,30570.5 52146.1,30236.2 52203.3,30236.2 52204.4,30248 52207.9,30259.4 52213.5,30269.8 52221,30279 52230.2,30286.5 52240.6,30292.1 52252,30295.6 52263.8,30296.7 52740.5,30296.5 52755.5,30281.4 52755.5,29744.5 52756.3,29744.5 52756.3,30281.4 52771.4,30296.5 53248,30296.7 53259.8,30295.6 53271.2,30292.1 53281.7,30286.5 53290.8,30279 53298.4,30269.8 53304,30259.4 53307.4,30248 53308.6,30236.2 53308.5,30118.1 53837.1,30118.1 53837.4,30309.4 53852.5,30324.4 54330.3,30324.4 54330.3,30072.9 54331.1,30072.9 54331.1,30324.4 54809,30324.4 54824,30309.4 54824.3,30118.1 54823.1,30106.3 54819.7,30094.9 54814.1,30084.5 54806.6,30075.3 54797.4,30067.8 54786.9,30062.2 54775.6,30058.7 54763.8,30057.6 54346.2,30057.9 54331.1,30072.9 54330.3,30072.9 54315.3,30057.9 53897.6,30057.6 53885.8,30058.7 53874.5,30062.2 53864,30067.8 53854.8,30075.3 53847.3,30084.5 53841.7,30094.9 53838.3,30106.3 53837.1,30118.1 53308.5,30118.1 53308.4,29940.9 53482.8,29940.9 53483.9,29952.8 53487.4,29964.1 53493,29974.6 53500.5,29983.7 53509.7,29991.3 53520.1,29996.9 53531.5,30000.3 53543.3,30001.5 53724.7,30001.2 53739.8,29986.1 53739.8,29744.5 53740.6,29744.5 53740.6,29986.1 53755.6,30001.2 53937,30001.5 53948.8,30000.3 53960.2,29996.9 53970.6,29991.3 53979.8,29983.7 53987.3,29974.6 53992.9,29964.1 53996.4,29952.8 53997.5,29940.9 53997.2,29759.5 53982.2,29744.5 53740.6,29744.5 53739.8,29744.5 53498.1,29744.5 53483.1,29759.5 53482.8,29940.9 53308.4,29940.9 53308.3,29759.5 53293.2,29744.5 52756.3,29744.5 52755.5,29744.5 52218.6,29744.5 52203.5,29759.5 52203.3,30236.2 52146.1,30236.2 52146.1,29252 52203.3,29252 52203.5,29728.6 52218.6,29743.7 52755.5,29743.7 52755.5,29206.8 52756.3,29206.8 52756.3,29743.7 53293.2,29743.7 53308.3,29728.6 53308.4,29547.2 53482.8,29547.2 53483.1,29728.6 53498.1,29743.7 53739.8,29743.7 53739.8,29502.1 53740.6,29502.1 53740.6,29743.7 53982.2,29743.7 53997.2,29728.6 53997.5,29547.2 53996.4,29535.4 53992.9,29524.1 53987.3,29513.6 53979.8,29504.4 53970.6,29496.9 53960.2,29491.3 53948.8,29487.9 53937,29486.7 53755.6,29487 53740.6,29502.1 53739.8,29502.1 53724.7,29487 53543.3,29486.7 53531.5,29487.9 53520.1,29491.3 53509.7,29496.9 53500.5,29504.4 53493,29513.6 53487.4,29524.1 53483.9,29535.4 53482.8,29547.2 53308.4,29547.2 53308.5,29370.1 53837.1,29370.1 53838.3,29381.9 53841.7,29393.2 53847.3,29403.7 53854.8,29412.9 53864,29420.4 53874.5,29426 53885.8,29429.4 53897.6,29430.6 54315.3,29430.3 54330.3,29415.3 54330.3,29163.8 54331.1,29163.8 54331.1,29415.3 54346.2,29430.3 54763.8,29430.6 54775.6,29429.4 54786.9,29426 54797.4,29420.4 54806.6,29412.9 54814.1,29403.7 54819.7,29393.2 54823.1,29381.9 54824.3,29370.1 54824,29178.8 54809,29163.8 54331.1,29163.8 54330.3,29163.8 53852.5,29163.8 53837.4,29178.8 53837.1,29370.1 53308.5,29370.1 53308.6,29252 53307.4,29240.2 53304,29228.8 53298.4,29218.3 53290.8,29209.2 53281.7,29201.6 53271.2,29196 53259.8,29192.6 53248,29191.4 52771.4,29191.7 52756.3,29206.8 52755.5,29206.8 52740.5,29191.7 52263.8,29191.4 52252,29192.6 52240.6,29196 52230.2,29201.6 52221,29209.2 52213.5,29218.3 52207.9,29228.8 52204.4,29240.2 52203.3,29252 52146.1,29252 52146.1,28917.7 53851.7,28917.7 Z" style="fill:#E8D959; fill-opacity:1.0;  stroke:#E8D959; stroke-width:40.1575; stroke-opacity:1;  stroke-linecap:round; stroke-linejoin:round;fill-rule:evenodd;" /> 
<path d="M 53847.3,26679 53841.7,26689.4 53838.3,26700.8 53837.1,26712.6 53837.4,26903.8 53852.5,26918.9 54330.3,26918.9 54330.3,26911 54331.1,26911 54331.1,26918.9 54809,26918.9 54824,26903.8 54824.3,26712.6 54823.1,26700.8 54819.7,26689.4 54814.1,26679 54809.7,26673.6 56515.4,26673.6 56515.4,28326.4 56093.2,28326.4 56093.5,28325.7 56101.4,28299.7 56104.1,28272.6 56104.1,28136.8 56101.4,28109.8 56093.5,28083.8 56087.6,28072.6 56397.6,28072.6 56413.3,28071 56428.4,28066.5 56442.3,28059 56454.5,28049 56464.5,28036.8 56472,28022.9 56476.6,28007.8 56478.1,27992.1 56478.1,27007.9 56476.6,26992.2 56472,26977.1 56464.5,26963.2 56454.5,26951 56442.3,26941 56428.4,26933.5 56413.3,26929 56397.6,26927.4 55413.4,26927.4 55397.7,26929 55382.6,26933.5 55368.7,26941 55356.5,26951 55346.5,26963.2 55339,26977.1 55334.5,26992.2 55332.9,27007.9 55332.9,27992.1 55334.5,28007.8 55339,28022.9 55346.5,28036.8 55356.5,28049 55359.3,28051.3 55352.3,28059.8 55339.5,28083.8 55336.2,28094.6 55218.8,28094.6 55149.4,28025.3 55149.4,27880.4 55150,27875 55149.4,27869.6 55149.4,27869.6 55147.9,27853.4 55141.6,27832.6 55131.3,27813.5 55117.6,27796.7 55113.4,27793.3 55097.4,27777.3 55118.1,27777.3 55133.8,27775.8 55148.9,27771.2 55162.8,27763.8 55175,27753.7 55185,27741.6 55192.5,27727.6 55197,27712.5 55198.6,27696.9 55198.6,27303.1 55197,27287.5 55192.5,27272.4 55185,27258.4 55175,27246.3 55162.8,27236.2 55148.9,27228.8 55133.8,27224.2 55118.1,27222.7 54724.4,27222.7 54708.7,27224.2 54693.6,27228.8 54679.7,27236.2 54667.5,27246.3 54657.5,27258.4 54650.1,27272.4 54645.5,27287.5 54643.9,27303.1 54643.9,27696.9 54645.5,27712.5 54650.1,27727.6 54657.5,27741.6 54667.5,27753.7 54679.7,27763.8 54693.6,27771.2 54708.7,27775.8 54724.4,27777.3 54812.7,27777.3 54812.8,27778.4 54819.1,27799.2 54829.3,27818.3 54829.3,27818.3 54843,27835.1 54847.2,27838.5 54929.3,27920.6 54929.3,28065.5 54928.8,28070.9 54929.3,28076.3 54930.9,28092.4 54932,28096.2 54937.2,28113.2 54946.5,28130.7 54947.4,28132.3 54961.2,28149.1 54965.4,28152.5 55091.6,28278.7 55095,28282.9 55099.2,28286.4 55111.8,28296.7 55130.9,28306.9 55151.6,28313.2 55173.2,28315.3 55178.6,28314.8 55336.2,28314.8 55339.5,28325.7 55339.9,28326.4 54809.7,28326.4 54814.1,28321 54819.7,28310.6 54823.1,28299.2 54824.3,28287.4 54824,28096.2 54809,28081.1 54331.1,28081.1 54331.1,28089 54330.3,28089 54330.3,28081.1 53852.5,28081.1 53837.4,28096.2 53837.1,28287.4 53838.3,28299.2 53841.7,28310.6 53847.3,28321 53851.7,28326.4 52146.1,28326.4 52146.1,27992.1 52203.3,27992.1 52204.4,28003.9 52207.9,28015.3 52213.5,28025.8 52221,28034.9 52230.2,28042.5 52240.6,28048 52252,28051.5 52263.8,28052.7 52740.5,28052.4 52755.5,28037.3 52755.5,27500.4 52756.3,27500.4 52756.3,28037.3 52771.4,28052.4 53248,28052.7 53259.8,28051.5 53271.2,28048 53281.7,28042.5 53290.8,28034.9 53298.4,28025.8 53304,28015.3 53307.4,28003.9 53308.6,27992.1 53308.5,27874 53837.1,27874 53837.4,28065.3 53852.5,28080.3 54330.3,28080.3 54330.3,27828.8 54331.1,27828.8 54331.1,28080.3 54809,28080.3 54824,28065.3 54824.3,27874 54823.1,27862.2 54819.7,27850.9 54814.1,27840.4 54806.6,27831.2 54797.4,27823.7 54786.9,27818.1 54775.6,27814.7 54763.8,27813.5 54346.2,27813.8 54331.1,27828.8 54330.3,27828.8 54315.3,27813.8 53897.6,27813.5 53885.8,27814.7 53874.5,27818.1 53864,27823.7 53854.8,27831.2 53847.3,27840.4 53841.7,27850.9 53838.3,27862.2 53837.1,27874 53308.5,27874 53308.4,27696.9 53482.8,27696.9 53483.9,27708.7 53487.4,27720 53493,27730.5 53500.5,27739.6 53509.7,27747.2 53520.1,27752.8 53531.5,27756.2 53543.3,27757.4 53724.7,27757.1 53739.8,27742 53739.8,27500.4 53740.6,27500.4 53740.6,27742 53755.6,27757.1 53937,27757.4 53948.8,27756.2 53960.2,27752.8 53970.6,27747.2 53979.8,27739.6 53987.3,27730.5 53992.9,27720 53996.4,27708.7 53997.5,27696.9 53997.2,27515.5 53982.2,27500.4 53740.6,27500.4 53739.8,27500.4 53498.1,27500.4 53483.1,27515.5 53482.8,27696.9 53308.4,27696.9 53308.3,27515.5 53293.2,27500.4 52756.3,27500.4 52755.5,27500.4 52218.6,27500.4 52203.5,27515.5 52203.3,27992.1 52146.1,27992.1 52146.1,27007.9 52203.3,27007.9 52203.5,27484.5 52218.6,27499.6 52755.5,27499.6 52755.5,26962.7 52756.3,26962.7 52756.3,27499.6 53293.2,27499.6 53308.3,27484.5 53308.4,27303.1 53482.8,27303.1 53483.1,27484.5 53498.1,27499.6 53739.8,27499.6 53739.8,27258 53740.6,27258 53740.6,27499.6 53982.2,27499.6 53997.2,27484.5 53997.5,27303.1 53996.4,27291.3 53992.9,27280 53987.3,27269.5 53979.8,27260.3 53970.6,27252.8 53960.2,27247.2 53948.8,27243.8 53937,27242.6 53755.6,27242.9 53740.6,27258 53739.8,27258 53724.7,27242.9 53543.3,27242.6 53531.5,27243.8 53520.1,27247.2 53509.7,27252.8 53500.5,27260.3 53493,27269.5 53487.4,27280 53483.9,27291.3 53482.8,27303.1 53308.4,27303.1 53308.5,27126 53837.1,27126 53838.3,27137.8 53841.7,27149.1 53847.3,27159.6 53854.8,27168.8 53864,27176.3 53874.5,27181.9 53885.8,27185.3 53897.6,27186.5 54315.3,27186.2 54330.3,27171.2 54330.3,26919.7 54331.1,26919.7 54331.1,27171.2 54346.2,27186.2 54763.8,27186.5 54775.6,27185.3 54786.9,27181.9 54797.4,27176.3 54806.6,27168.8 54814.1,27159.6 54819.7,27149.1 54823.1,27137.8 54824.3,27126 54824,26934.7 54809,26919.7 54331.1,26919.7 54330.3,26919.7 53852.5,26919.7 53837.4,26934.7 53837.1,27126 53308.5,27126 53308.6,27007.9 53307.4,26996.1 53304,26984.7 53298.4,26974.2 53290.8,26965.1 53281.7,26957.5 53271.2,26952 53259.8,26948.5 53248,26947.3 52771.4,26947.6 52756.3,26962.7 52755.5,26962.7 52740.5,26947.6 52263.8,26947.3 52252,26948.5 52240.6,26952 52230.2,26957.5 52221,26965.1 52213.5,26974.2 52207.9,26984.7 52204.4,26996.1 52203.3,27007.9 52146.1,27007.9 52146.1,26673.6 53851.7,26673.6 Z" style="fill:#E8D959; fill-opacity:1.0;  stroke:#E8D959; stroke-width:40.1575; stroke-opacity:1;  stroke-linecap:round; stroke-linejoin:round;fill-rule:evenodd;" /> 
</g>
</g>
<g style="stroke:#E8D959;">
</g>
<g style="fill:#E8D959; fill-opacity:0.0;  stroke:#E8D959; stroke-width:0; stroke-opacity:1;  stroke-linecap:round; stroke-linejoin:round;">
</g>
<g style="fill:#E8D959; fill-opacity:1.0;  stroke:#E8D959; stroke-width:0; stroke-opacity:1;  stroke-linecap:round; stroke-linejoin:round;">
<path d="M 55589.4,28079 55595,28079.9 55600.5,28081.2 55605.9,28083.2 55611,28085.6 55615.9,28088.5 55620.5,28091.9 55624.7,28095.7 55628.6,28100 55631.9,28104.5 55634.9,28109.4 55637.3,28114.6 55639.2,28120 55640.6,28125.5 55641.5,28131.1 55641.7,28136.8 55641.7,28272.6 55641.5,28278.3 55640.6,28284 55639.2,28289.5 55637.3,28294.9 55634.9,28300 55631.9,28304.9 55628.6,28309.5 55624.7,28313.7 55620.5,28317.5 55615.9,28320.9 55611,28323.9 55605.9,28326.3 55600.5,28328.2 55595,28329.6 55589.4,28330.4 55583.7,28330.7 55467.5,28330.7 55461.8,28330.4 55456.2,28329.6 55450.7,28328.2 55445.3,28326.3 55440.1,28323.9 55435.3,28320.9 55430.7,28317.5 55426.5,28313.7 55422.6,28309.5 55419.2,28304.9 55416.3,28300 55413.9,28294.9 55411.9,28289.5 55410.6,28284 55409.7,28278.3 55409.4,28272.6 55409.4,28136.8 55409.7,28131.1 55410.6,28125.5 55411.9,28120 55413.9,28114.6 55416.3,28109.4 55419.2,28104.5 55422.6,28100 55426.5,28095.7 55430.7,28091.9 55435.3,28088.5 55440.1,28085.6 55445.3,28083.2 55450.7,28081.2 55456.2,28079.9 55461.8,28079 55467.5,28078.7 55583.7,28078.7 Z" style="fill:#E8D959; fill-opacity:1.0;  stroke:#E8D959; stroke-width:0; stroke-opacity:1;  stroke-linecap:round; stroke-linejoin:round;fill-rule:evenodd;" /> 
<path d="M 55971.2,28079 55976.9,28079.9 55982.4,28081.2 55987.8,28083.2 55992.9,28085.6 55997.8,28088.5 56002.4,28091.9 56006.6,28095.7 56010.4,28100 56013.8,28104.5 56016.8,28109.4 56019.2,28114.6 56021.1,28120 56022.5,28125.5 56023.3,28131.1 56023.6,28136.8 56023.6,28272.6 56023.3,28278.3 56022.5,28284 56021.1,28289.5 56019.2,28294.9 56016.8,28300 56013.8,28304.9 56010.4,28309.5 56006.6,28313.7 56002.4,28317.5 55997.8,28320.9 55992.9,28323.9 55987.8,28326.3 55982.4,28328.2 55976.9,28329.6 55971.2,28330.4 55965.6,28330.7 55849.4,28330.7 55843.7,28330.4 55838.1,28329.6 55832.6,28328.2 55827.2,28326.3 55822,28323.9 55817.1,28320.9 55812.6,28317.5 55808.3,28313.7 55804.5,28309.5 55801.1,28304.9 55798.2,28300 55795.8,28294.9 55793.8,28289.5 55792.5,28284 55791.6,28278.3 55791.3,28272.6 55791.3,28136.8 55791.6,28131.1 55792.5,28125.5 55793.8,28120 55795.8,28114.6 55798.2,28109.4 55801.1,28104.5 55804.5,28100 55808.3,28095.7 55812.6,28091.9 55817.1,28088.5 55822,28085.6 55827.2,28083.2 55832.6,28081.2 55838.1,28079.9 55843.7,28079 55849.4,28078.7 55965.6,28078.7 Z" style="fill:#E8D959; fill-opacity:1.0;  stroke:#E8D959; stroke-width:0; stroke-opacity:1;  stroke-linecap:round; stroke-linejoin:round;fill-rule:evenodd;" /> 
</g>
<g style="stroke:#E8D959;">
</g>
<g style="fill:#E8D959; fill-opacity:1.0;  stroke:#E8D959; stroke-width:0; stroke-opacity:1;  stroke-linecap:round; stroke-linejoin:round;">
<path d="M 52263.8,27992.1 52263.8,27007.9 53248,27007.9 53248,27992.1 Z" style="fill:#E8D959; fill-opacity:1.0;  stroke:#E8D959; stroke-width:0; stroke-opacity:1;  stroke-linecap:round; stroke-linejoin:round;fill-rule:evenodd;" /> 
</g>
<g style="stroke:#E8D959;">
</g>
<g style="fill:#E8D959; fill-opacity:1.0;  stroke:#E8D959; stroke-width:0; stroke-opacity:1;  stroke-linecap:round; stroke-linejoin:round;">
<path d="M 55413.4,27992.1 55413.4,27007.9 56397.6,27007.9 56397.6,27992.1 Z" style="fill:#E8D959; fill-opacity:1.0;  stroke:#E8D959; stroke-width:0; stroke-opacity:1;  stroke-linecap:round; stroke-linejoin:round;fill-rule:evenodd;" /> 
</g>
<g style="stroke:#E8D959;">
</g>
<g style="fill:#E8D959; fill-opacity:1.0;  stroke:#E8D959; stroke-width:0; stroke-opacity:1;  stroke-linecap:round; stroke-linejoin:round;">
<path d="M 55118.1,27696.9 54724.4,27696.9 54724.4,27303.1 55118.1,27303.1 Z" style="fill:#E8D959; fill-opacity:1.0;  stroke:#E8D959; stroke-width:0; stroke-opacity:1;  stroke-linecap:round; stroke-linejoin:round;fill-rule:evenodd;" /> 
<path d="M 53937,27696.9 53543.3,27696.9 53543.3,27303.1 53937,27303.1 Z" style="fill:#E8D959; fill-opacity:1.0;  stroke:#E8D959; stroke-width:0; stroke-opacity:1;  stroke-linecap:round; stroke-linejoin:round;fill-rule:evenodd;" /> 
<path d="M 54763.8,27126 53897.6,27126 53897.6,26712.6 54763.8,26712.6 Z" style="fill:#E8D959; fill-opacity:1.0;  stroke:#E8D959; stroke-width:0; stroke-opacity:1;  stroke-linecap:round; stroke-linejoin:round;fill-rule:evenodd;" /> 
<path d="M 54763.8,28287.4 53897.6,28287.4 53897.6,27874 54763.8,27874 Z" style="fill:#E8D959; fill-opacity:1.0;  stroke:#E8D959; stroke-width:0; stroke-opacity:1;  stroke-linecap:round; stroke-linejoin:round;fill-rule:evenodd;" /> 
</g>
<g style="stroke:#E8D959;">
</g>
<g style="fill:#E8D959; fill-opacity:1.0;  stroke:#E8D959; stroke-width:0; stroke-opacity:1;  stroke-linecap:round; stroke-linejoin:round;">
<path d="M 54763.8,30531.5 53897.6,30531.5 53897.6,30118.1 54763.8,30118.1 Z" style="fill:#E8D959; fill-opacity:1.0;  stroke:#E8D959; stroke-width:0; stroke-opacity:1;  stroke-linecap:round; stroke-linejoin:round;fill-rule:evenodd;" /> 
<path d="M 54763.8,29370.1 53897.6,29370.1 53897.6,28956.7 54763.8,28956.7 Z" style="fill:#E8D959; fill-opacity:1.0;  stroke:#E8D959; stroke-width:0; stroke-opacity:1;  stroke-linecap:round; stroke-linejoin:round;fill-rule:evenodd;" /> 
<path d="M 53937,29940.9 53543.3,29940.9 53543.3,29547.2 53937,29547.2 Z" style="fill:#E8D959; fill-opacity:1.0;  stroke:#E8D959; stroke-width:0; stroke-opacity:1;  stroke-linecap:round; stroke-linejoin:round;fill-rule:evenodd;" /> 
<path d="M 55118.1,29940.9 54724.4,29940.9 54724.4,29547.2 55118.1,29547.2 Z" style="fill:#E8D959; fill-opacity:1.0;  stroke:#E8D959; stroke-width:0; stroke-opacity:1;  stroke-linecap:round; stroke-linejoin:round;fill-rule:evenodd;" /> 
</g>
<g style="stroke:#E8D959;">
</g>
<g style="fill:#E8D959; fill-opacity:1.0;  stroke:#E8D959; stroke-width:0; stroke-opacity:1;  stroke-linecap:round; stroke-linejoin:round;">
<path d="M 55413.4,30236.2 55413.4,29252 56397.6,29252 56397.6,30236.2 Z" style="fill:#E8D959; fill-opacity:1.0;  stroke:#E8D959; stroke-width:0; stroke-opacity:1;  stroke-linecap:round; stroke-linejoin:round;fill-rule:evenodd;" /> 
</g>
<g style="stroke:#E8D959;">
</g>
<g style="fill:#E8D959; fill-opacity:1.0;  stroke:#E8D959; stroke-width:0; stroke-opacity:1;  stroke-linecap:round; stroke-linejoin:round;">
<path d="M 52263.8,30236.2 52263.8,29252 53248,29252 53248,30236.2 Z" style="fill:#E8D959; fill-opacity:1.0;  stroke:#E8D959; stroke-width:0; stroke-opacity:1;  stroke-linecap:round; stroke-linejoin:round;fill-rule:evenodd;" /> 
</g>
<g style="stroke:#E8D959;">
</g>
<g style="fill:#E8D959; fill-opacity:1.0;  stroke:#E8D959; stroke-width:0; stroke-opacity:1;  stroke-linecap:round; stroke-linejoin:round;">
<path d="M 55971.2,30323.1 55976.9,30324 55982.4,30325.3 55987.8,30327.3 55992.9,30329.7 55997.8,30332.6 56002.4,30336 56006.6,30339.8 56010.4,30344.1 56013.8,30348.6 56016.8,30353.5 56019.2,30358.7 56021.1,30364 56022.5,30369.6 56023.3,30375.2 56023.6,30380.9 56023.6,30516.7 56023.3,30522.4 56022.5,30528.1 56021.1,30533.6 56019.2,30539 56016.8,30544.1 56013.8,30549 56010.4,30553.6 56006.6,30557.8 56002.4,30561.6 55997.8,30565 55992.9,30567.9 55987.8,30570.4 55982.4,30572.3 55976.9,30573.7 55971.2,30574.5 55965.6,30574.8 55849.4,30574.8 55843.7,30574.5 55838.1,30573.7 55832.6,30572.3 55827.2,30570.4 55822,30567.9 55817.1,30565 55812.6,30561.6 55808.3,30557.8 55804.5,30553.6 55801.1,30549 55798.2,30544.1 55795.8,30539 55793.8,30533.6 55792.5,30528.1 55791.6,30522.4 55791.3,30516.7 55791.3,30380.9 55791.6,30375.2 55792.5,30369.6 55793.8,30364 55795.8,30358.7 55798.2,30353.5 55801.1,30348.6 55804.5,30344.1 55808.3,30339.8 55812.6,30336 55817.1,30332.6 55822,30329.7 55827.2,30327.3 55832.6,30325.3 55838.1,30324 55843.7,30323.1 55849.4,30322.8 55965.6,30322.8 Z" style="fill:#E8D959; fill-opacity:1.0;  stroke:#E8D959; stroke-width:0; stroke-opacity:1;  stroke-linecap:round; stroke-linejoin:round;fill-rule:evenodd;" /> 
<path d="M 55589.4,30323.1 55595,30324 55600.5,30325.3 55605.9,30327.3 55611,30329.7 55615.9,30332.6 55620.5,30336 55624.7,30339.8 55628.6,30344.1 55631.9,30348.6 55634.9,30353.5 55637.3,30358.7 55639.2,30364 55640.6,30369.6 55641.5,30375.2 55641.7,30380.9 55641.7,30516.7 55641.5,30522.4 55640.6,30528.1 55639.2,30533.6 55637.3,30539 55634.9,30544.1 55631.9,30549 55628.6,30553.6 55624.7,30557.8 55620.5,30561.6 55615.9,30565 55611,30567.9 55605.9,30570.4 55600.5,30572.3 55595,30573.7 55589.4,30574.5 55583.7,30574.8 55467.5,30574.8 55461.8,30574.5 55456.2,30573.7 55450.7,30572.3 55445.3,30570.4 55440.1,30567.9 55435.3,30565 55430.7,30561.6 55426.5,30557.8 55422.6,30553.6 55419.2,30549 55416.3,30544.1 55413.9,30539 55411.9,30533.6 55410.6,30528.1 55409.7,30522.4 55409.4,30516.7 55409.4,30380.9 55409.7,30375.2 55410.6,30369.6 55411.9,30364 55413.9,30358.7 55416.3,30353.5 55419.2,30348.6 55422.6,30344.1 55426.5,30339.8 55430.7,30336 55435.3,30332.6 55440.1,30329.7 55445.3,30327.3 55450.7,30325.3 55456.2,30324 55461.8,30323.1 55467.5,30322.8 55583.7,30322.8 Z" style="fill:#E8D959; fill-opacity:1.0;  stroke:#E8D959; stroke-width:0; stroke-opacity:1;  stroke-linecap:round; stroke-linejoin:round;fill-rule:evenodd;" /> 
</g>
<g style="stroke:#E8D959;">
</g>
<g style="fill:#E8D959; fill-opacity:1.0;  stroke:#E8D959; stroke-width:0; stroke-opacity:1;  stroke-linecap:round; stroke-linejoin:round;">
<circle cx="52755.9" cy="29763.8" r="255.906" style="stroke:#E8D959;" /> 
</g>
<g style="fill:#E8D959; fill-opacity:1.0;  stroke:#E8D959; stroke-width:137.795; stroke-opacity:1;  stroke-linecap:round; stroke-linejoin:round;">
</g>
<g style="fill:#E8D959; fill-opacity:1.0;  stroke:#E8D959; stroke-width:0; stroke-opacity:1;  stroke-linecap:round; stroke-linejoin:round;">
<circle cx="52755.9" cy="27519.7" r="255.906" style="stroke:#E8D959;" /> 
</g>
<g style="fill:#E8D959; fill-opacity:1.0;  stroke:#E8D959; stroke-width:137.795; stroke-opacity:1;  stroke-linecap:round; stroke-linejoin:round;">
</g>
<g style="fill:#E8D959; fill-opacity:1.0;  stroke:#E8D959; stroke-width:0; stroke-opacity:1;  stroke-linecap:round; stroke-linejoin:round;">
<circle cx="55907.5" cy="29746.1" r="255.906" style="stroke:#E8D959;" /> 
</g>
<g style="fill:#E8D959; fill-opacity:1.0;  stroke:#E8D959; stroke-width:137.795; stroke-opacity:1;  stroke-linecap:round; stroke-linejoin:round;">
</g>
<g style="fill:#E8D959; fill-opacity:1.0;  stroke:#E8D959; stroke-width:0; stroke-opacity:1;  stroke-linecap:round; stroke-linejoin:round;">
<circle cx="55907.5" cy="27502" r="255.906" style="stroke:#E8D959;" /> 
</g>
<g style="fill:#E8D959; fill-opacity:1.0;  stroke:#E8D959; stroke-width:137.795; stroke-opacity:1;  stroke-linecap:round; stroke-linejoin:round;">
</g>
<g style="stroke:#E8D959;">
</g>
<g style="fill:#E8D959; fill-opacity:1.0;  stroke:#E8D959; stroke-width:137.795; stroke-opacity:1;  stroke-linecap:round; stroke-linejoin:round;">
</g>
<g style="fill:#E8D959; fill-opacity:1.0;  stroke:#E8D959; stroke-width:60; stroke-opacity:1;  stroke-linecap:round; stroke-linejoin:round;">
</g>
<g style="fill:#E8D959; fill-opacity:0.0;  stroke:#E8D959; stroke-width:60; stroke-opacity:1;  stroke-linecap:round; stroke-linejoin:round;">
<path d="M52755 29744 L52755 29763 " style="stroke:#E8D959;" />
<path d="M52755 27500 L52755 27519 " style="stroke:#E8D959;" />
<path d="M54921 30000 L55039 30119 " style="stroke:#E8D959;" />
<path d="M54921 29744 L54921 30000 " style="stroke:#E8D959;" />
<path d="M55039 30119 L55039 30314 " style="stroke:#E8D959;" />
<path d="M55173 30448 L55525 30448 " style="stroke:#E8D959;" />
<path d="M55039 30314 L55173 30448 " style="stroke:#E8D959;" />
<path d="M54921 27756 L55039 27874 " style="stroke:#E8D959;" />
<path d="M54921 27500 L54921 27756 " style="stroke:#E8D959;" />
<path d="M55039 27874 L55039 28070 " style="stroke:#E8D959;" />
<path d="M55173 28204 L55525 28204 " style="stroke:#E8D959;" />
<path d="M55039 28070 L55173 28204 " style="stroke:#E8D959;" />
<path d="M55907 30448 L55907 29746 " style="stroke:#E8D959;" />
<path d="M55907 28204 L55907 27501 " style="stroke:#E8D959;" />
</g>
<g style="stroke:#E8D959;">
</g>
<g style="fill:#E8D959; fill-opacity:0.0;  stroke:#E8D959; stroke-width:60; stroke-opacity:1;  stroke-linecap:round; stroke-linejoin:round;">
</g>
<g style="fill:#E8D959; fill-opacity:1.0;  stroke:#E8D959; stroke-width:40.1575; stroke-opacity:1;  stroke-linecap:round; stroke-linejoin:round;">
<path d="M 53847.3,28923.1 53841.7,28933.5 53838.3,28944.9 53837.1,28956.7 53837.4,29147.9 53852.5,29163 54330.3,29163 54330.3,29155.1 54331.1,29155.1 54331.1,29163 54809,29163 54824,29147.9 54824.3,28956.7 54823.1,28944.9 54819.7,28933.5 54814.1,28923.1 54809.7,28917.7 56515.4,28917.7 56515.4,30570.5 56093.2,30570.5 56093.5,30569.7 56101.4,30543.8 56104.1,30516.7 56104.1,30380.9 56101.4,30353.9 56093.5,30327.9 56087.6,30316.7 56397.6,30316.7 56413.3,30315.1 56428.4,30310.6 56442.3,30303.1 56454.5,30293.1 56464.5,30280.9 56472,30267 56476.6,30251.9 56478.1,30236.2 56478.1,29252 56476.6,29236.3 56472,29221.2 56464.5,29207.3 56454.5,29195.1 56442.3,29185.1 56428.4,29177.6 56413.3,29173 56397.6,29171.5 55413.4,29171.5 55397.7,29173 55382.6,29177.6 55368.7,29185.1 55356.5,29195.1 55346.5,29207.3 55339,29221.2 55334.5,29236.3 55332.9,29252 55332.9,30236.2 55334.5,30251.9 55339,30267 55346.5,30280.9 55356.5,30293.1 55359.3,30295.4 55352.3,30303.9 55339.5,30327.9 55336.2,30338.7 55218.8,30338.7 55149.4,30269.4 55149.4,30124.5 55150,30119.1 55149.4,30113.7 55149.4,30113.7 55147.9,30097.5 55141.6,30076.7 55131.3,30057.6 55117.6,30040.8 55113.4,30037.4 55097.4,30021.4 55118.1,30021.4 55133.8,30019.9 55148.9,30015.3 55162.8,30007.8 55175,29997.8 55185,29985.6 55192.5,29971.7 55197,29956.6 55198.6,29940.9 55198.6,29547.2 55197,29531.5 55192.5,29516.5 55185,29502.5 55175,29490.3 55162.8,29480.3 55148.9,29472.9 55133.8,29468.3 55118.1,29466.8 54724.4,29466.8 54708.7,29468.3 54693.6,29472.9 54679.7,29480.3 54667.5,29490.3 54657.5,29502.5 54650.1,29516.5 54645.5,29531.5 54643.9,29547.2 54643.9,29940.9 54645.5,29956.6 54650.1,29971.7 54657.5,29985.6 54667.5,29997.8 54679.7,30007.8 54693.6,30015.3 54708.7,30019.9 54724.4,30021.4 54812.7,30021.4 54812.8,30022.5 54819.1,30043.3 54829.3,30062.4 54829.3,30062.4 54843,30079.2 54847.2,30082.6 54929.3,30164.7 54929.3,30309.6 54928.8,30315 54929.3,30320.4 54930.9,30336.5 54932,30340.3 54937.2,30357.3 54946.5,30374.8 54947.4,30376.4 54961.2,30393.2 54965.4,30396.6 55091.6,30522.8 55095,30527 55099.2,30530.5 55111.8,30540.8 55130.9,30551 55151.6,30557.3 55173.2,30559.4 55178.6,30558.9 55336.2,30558.9 55339.5,30569.7 55339.9,30570.5 54809.7,30570.5 54814.1,30565.1 54819.7,30554.7 54823.1,30543.3 54824.3,30531.5 54824,30340.3 54809,30325.2 54331.1,30325.2 54331.1,30333.1 54330.3,30333.1 54330.3,30325.2 53852.5,30325.2 53837.4,30340.3 53837.1,30531.5 53838.3,30543.3 53841.7,30554.7 53847.3,30565.1 53851.7,30570.5 52146.1,30570.5 52146.1,30236.2 52203.3,30236.2 52204.4,30248 52207.9,30259.4 52213.5,30269.8 52221,30279 52230.2,30286.5 52240.6,30292.1 52252,30295.6 52263.8,30296.7 52740.5,30296.5 52755.5,30281.4 52755.5,29744.5 52756.3,29744.5 52756.3,30281.4 52771.4,30296.5 53248,30296.7 53259.8,30295.6 53271.2,30292.1 53281.7,30286.5 53290.8,30279 53298.4,30269.8 53304,30259.4 53307.4,30248 53308.6,30236.2 53308.5,30118.1 53837.1,30118.1 53837.4,30309.4 53852.5,30324.4 54330.3,30324.4 54330.3,30072.9 54331.1,30072.9 54331.1,30324.4 54809,30324.4 54824,30309.4 54824.3,30118.1 54823.1,30106.3 54819.7,30094.9 54814.1,30084.5 54806.6,30075.3 54797.4,30067.8 54786.9,30062.2 54775.6,30058.7 54763.8,30057.6 54346.2,30057.9 54331.1,30072.9 54330.3,30072.9 54315.3,30057.9 53897.6,30057.6 53885.8,30058.7 53874.5,30062.2 53864,30067.8 53854.8,30075.3 53847.3,30084.5 53841.7,30094.9 53838.3,30106.3 53837.1,30118.1 53308.5,30118.1 53308.4,29940.9 53482.8,29940.9 53483.9,29952.8 53487.4,29964.1 53493,29974.6 53500.5,29983.7 53509.7,29991.3 53520.1,29996.9 53531.5,30000.3 53543.3,30001.5 53724.7,30001.2 53739.8,29986.1 53739.8,29744.5 53740.6,29744.5 53740.6,29986.1 53755.6,30001.2 53937,30001.5 53948.8,30000.3 53960.2,29996.9 53970.6,29991.3 53979.8,29983.7 53987.3,29974.6 53992.9,29964.1 53996.4,29952.8 53997.5,29940.9 53997.2,29759.5 53982.2,29744.5 53740.6,29744.5 53739.8,29744.5 53498.1,29744.5 53483.1,29759.5 53482.8,29940.9 53308.4,29940.9 53308.3,29759.5 53293.2,29744.5 52756.3,29744.5 52755.5,29744.5 52218.6,29744.5 52203.5,29759.5 52203.3,30236.2 52146.1,30236.2 52146.1,29252 52203.3,29252 52203.5,29728.6 52218.6,29743.7 52755.5,29743.7 52755.5,29206.8 52756.3,29206.8 52756.3,29743.7 53293.2,29743.7 53308.3,29728.6 53308.4,29547.2 53482.8,29547.2 53483.1,29728.6 53498.1,29743.7 53739.8,29743.7 53739.8,29502.1 53740.6,29502.1 53740.6,29743.7 53982.2,29743.7 53997.2,29728.6 53997.5,29547.2 53996.4,29535.4 53992.9,29524.1 53987.3,29513.6 53979.8,29504.4 53970.6,29496.9 53960.2,29491.3 53948.8,29487.9 53937,29486.7 53755.6,29487 53740.6,29502.1 53739.8,29502.1 53724.7,29487 53543.3,29486.7 53531.5,29487.9 53520.1,29491.3 53509.7,29496.9 53500.5,29504.4 53493,29513.6 53487.4,29524.1 53483.9,29535.4 53482.8,29547.2 53308.4,29547.2 53308.5,29370.1 53837.1,29370.1 53838.3,29381.9 53841.7,29393.2 53847.3,29403.7 53854.8,29412.9 53864,29420.4 53874.5,29426 53885.8,29429.4 53897.6,29430.6 54315.3,29430.3 54330.3,29415.3 54330.3,29163.8 54331.1,29163.8 54331.1,29415.3 54346.2,29430.3 54763.8,29430.6 54775.6,29429.4 54786.9,29426 54797.4,29420.4 54806.6,29412.9 54814.1,29403.7 54819.7,29393.2 54823.1,29381.9 54824.3,29370.1 54824,29178.8 54809,29163.8 54331.1,29163.8 54330.3,29163.8 53852.5,29163.8 53837.4,29178.8 53837.1,29370.1 53308.5,29370.1 53308.6,29252 53307.4,29240.2 53304,29228.8 53298.4,29218.3 53290.8,29209.2 53281.7,29201.6 53271.2,29196 53259.8,29192.6 53248,29191.4 52771.4,29191.7 52756.3,29206.8 52755.5,29206.8 52740.5,29191.7 52263.8,29191.4 52252,29192.6 52240.6,29196 52230.2,29201.6 52221,29209.2 52213.5,29218.3 52207.9,29228.8 52204.4,29240.2 52203.3,29252 52146.1,29252 52146.1,28917.7 53851.7,28917.7 Z" style="fill:#E8D959; fill-opacity:1.0;  stroke:#E8D959; stroke-width:40.1575; stroke-opacity:1;  stroke-linecap:round; stroke-linejoin:round;fill-rule:evenodd;" /> 
<path d="M 53847.3,26679 53841.7,26689.4 53838.3,26700.8 53837.1,26712.6 53837.4,26903.8 53852.5,26918.9 54330.3,26918.9 54330.3,26911 54331.1,26911 54331.1,26918.9 54809,26918.9 54824,26903.8 54824.3,26712.6 54823.1,26700.8 54819.7,26689.4 54814.1,26679 54809.7,26673.6 56515.4,26673.6 56515.4,28326.4 56093.2,28326.4 56093.5,28325.7 56101.4,28299.7 56104.1,28272.6 56104.1,28136.8 56101.4,28109.8 56093.5,28083.8 56087.6,28072.6 56397.6,28072.6 56413.3,28071 56428.4,28066.5 56442.3,28059 56454.5,28049 56464.5,28036.8 56472,28022.9 56476.6,28007.8 56478.1,27992.1 56478.1,27007.9 56476.6,26992.2 56472,26977.1 56464.5,26963.2 56454.5,26951 56442.3,26941 56428.4,26933.5 56413.3,26929 56397.6,26927.4 55413.4,26927.4 55397.7,26929 55382.6,26933.5 55368.7,26941 55356.5,26951 55346.5,26963.2 55339,26977.1 55334.5,26992.2 55332.9,27007.9 55332.9,27992.1 55334.5,28007.8 55339,28022.9 55346.5,28036.8 55356.5,28049 55359.3,28051.3 55352.3,28059.8 55339.5,28083.8 55336.2,28094.6 55218.8,28094.6 55149.4,28025.3 55149.4,27880.4 55150,27875 55149.4,27869.6 55149.4,27869.6 55147.9,27853.4 55141.6,27832.6 55131.3,27813.5 55117.6,27796.7 55113.4,27793.3 55097.4,27777.3 55118.1,27777.3 55133.8,27775.8 55148.9,27771.2 55162.8,27763.8 55175,27753.7 55185,27741.6 55192.5,27727.6 55197,27712.5 55198.6,27696.9 55198.6,27303.1 55197,27287.5 55192.5,27272.4 55185,27258.4 55175,27246.3 55162.8,27236.2 55148.9,27228.8 55133.8,27224.2 55118.1,27222.7 54724.4,27222.7 54708.7,27224.2 54693.6,27228.8 54679.7,27236.2 54667.5,27246.3 54657.5,27258.4 54650.1,27272.4 54645.5,27287.5 54643.9,27303.1 54643.9,27696.9 54645.5,27712.5 54650.1,27727.6 54657.5,27741.6 54667.5,27753.7 54679.7,27763.8 54693.6,27771.2 54708.7,27775.8 54724.4,27777.3 54812.7,27777.3 54812.8,27778.4 54819.1,27799.2 54829.3,27818.3 54829.3,27818.3 54843,27835.1 54847.2,27838.5 54929.3,27920.6 54929.3,28065.5 54928.8,28070.9 54929.3,28076.3 54930.9,28092.4 54932,28096.2 54937.2,28113.2 54946.5,28130.7 54947.4,28132.3 54961.2,28149.1 54965.4,28152.5 55091.6,28278.7 55095,28282.9 55099.2,28286.4 55111.8,28296.7 55130.9,28306.9 55151.6,28313.2 55173.2,28315.3 55178.6,28314.8 55336.2,28314.8 55339.5,28325.7 55339.9,28326.4 54809.7,28326.4 54814.1,28321 54819.7,28310.6 54823.1,28299.2 54824.3,28287.4 54824,28096.2 54809,28081.1 54331.1,28081.1 54331.1,28089 54330.3,28089 54330.3,28081.1 53852.5,28081.1 53837.4,28096.2 53837.1,28287.4 53838.3,28299.2 53841.7,28310.6 53847.3,28321 53851.7,28326.4 52146.1,28326.4 52146.1,27992.1 52203.3,27992.1 52204.4,28003.9 52207.9,28015.3 52213.5,28025.8 52221,28034.9 52230.2,28042.5 52240.6,28048 52252,28051.5 52263.8,28052.7 52740.5,28052.4 52755.5,28037.3 52755.5,27500.4 52756.3,27500.4 52756.3,28037.3 52771.4,28052.4 53248,28052.7 53259.8,28051.5 53271.2,28048 53281.7,28042.5 53290.8,28034.9 53298.4,28025.8 53304,28015.3 53307.4,28003.9 53308.6,27992.1 53308.5,27874 53837.1,27874 53837.4,28065.3 53852.5,28080.3 54330.3,28080.3 54330.3,27828.8 54331.1,27828.8 54331.1,28080.3 54809,28080.3 54824,28065.3 54824.3,27874 54823.1,27862.2 54819.7,27850.9 54814.1,27840.4 54806.6,27831.2 54797.4,27823.7 54786.9,27818.1 54775.6,27814.7 54763.8,27813.5 54346.2,27813.8 54331.1,27828.8 54330.3,27828.8 54315.3,27813.8 53897.6,27813.5 53885.8,27814.7 53874.5,27818.1 53864,27823.7 53854.8,27831.2 53847.3,27840.4 53841.7,27850.9 53838.3,27862.2 53837.1,27874 53308.5,27874 53308.4,27696.9 53482.8,27696.9 53483.9,27708.7 53487.4,27720 53493,27730.5 53500.5,27739.6 53509.7,27747.2 53520.1,27752.8 53531.5,27756.2 53543.3,27757.4 53724.7,27757.1 53739.8,27742 53739.8,27500.4 53740.6,27500.4 53740.6,27742 53755.6,27757.1 53937,27757.4 53948.8,27756.2 53960.2,27752.8 53970.6,27747.2 53979.8,27739.6 53987.3,27730.5 53992.9,27720 53996.4,27708.7 53997.5,27696.9 53997.2,27515.5 53982.2,27500.4 53740.6,27500.4 53739.8,27500.4 53498.1,27500.4 53483.1,27515.5 53482.8,27696.9 53308.4,27696.9 53308.3,27515.5 53293.2,27500.4 52756.3,27500.4 52755.5,27500.4 52218.6,27500.4 52203.5,27515.5 52203.3,27992.1 52146.1,27992.1 52146.1,27007.9 52203.3,27007.9 52203.5,27484.5 52218.6,27499.6 52755.5,27499.6 52755.5,26962.7 52756.3,26962.7 52756.3,27499.6 53293.2,27499.6 53308.3,27484.5 53308.4,27303.1 53482.8,27303.1 53483.1,27484.5 53498.1,27499.6 53739.8,27499.6 53739.8,27258 53740.6,27258 53740.6,27499.6 53982.2,27499.6 53997.2,27484.5 53997.5,27303.1 53996.4,27291.3 53992.9,27280 53987.3,27269.5 53979.8,27260.3 53970.6,27252.8 53960.2,27247.2 53948.8,27243.8 53937,27242.6 53755.6,27242.9 53740.6,27258 53739.8,27258 53724.7,27242.9 53543.3,27242.6 53531.5,27243.8 53520.1,27247.2 53509.7,27252.8 53500.5,27260.3 53493,27269.5 53487.4,27280 53483.9,27291.3 53482.8,27303.1 53308.4,27303.1 53308.5,27126 53837.1,27126 53838.3,27137.8 53841.7,27149.1 53847.3,27159.6 53854.8,27168.8 53864,27176.3 53874.5,27181.9 53885.8,27185.3 53897.6,27186.5 54315.3,27186.2 54330.3,27171.2 54330.3,26919.7 54331.1,26919.7 54331.1,27171.2 54346.2,27186.2 54763.8,27186.5 54775.6,27185.3 54786.9,27181.9 54797.4,27176.3 54806.6,27168.8 54814.1,27159.6 54819.7,27149.1 54823.1,27137.8 54824.3,27126 54824,26934.7 54809,26919.7 54331.1,26919.7 54330.3,26919.7 53852.5,26919.7 53837.4,26934.7 53837.1,27126 53308.5,27126 53308.6,27007.9 53307.4,26996.1 53304,26984.7 53298.4,26974.2 53290.8,26965.1 53281.7,26957.5 53271.2,26952 53259.8,26948.5 53248,26947.3 52771.4,26947.6 52756.3,26962.7 52755.5,26962.7 52740.5,26947.6 52263.8,26947.3 52252,26948.5 52240.6,26952 52230.2,26957.5 52221,26965.1 52213.5,26974.2 52207.9,26984.7 52204.4,26996.1 52203.3,27007.9 52146.1,27007.9 52146.1,26673.6 53851.7,26673.6 Z" style="fill:#E8D959; fill-opacity:1.0;  stroke:#E8D959; stroke-width:40.1575; stroke-opacity:1;  stroke-linecap:round; stroke-linejoin:round;fill-rule:evenodd;" /> 
</g>
<g style="fill:#E8D959; fill-opacity:1.0;  stroke:#E8D959; stroke-width:40.1575; stroke-opacity:1;  stroke-linecap:round; stroke-linejoin:round;">
</g>
<g style="fill:#E8D959; fill-opacity:1.0;  stroke:#E8D959; stroke-width:0; stroke-opacity:1;  stroke-linecap:round; stroke-linejoin:round;">
<circle cx="52755.9" cy="29763.8" r="196.85" style="stroke:#E8D959;" /> 
</g>
<g style="fill:#E8D959; fill-opacity:1.0;  stroke:#E8D959; stroke-width:137.795; stroke-opacity:1;  stroke-linecap:round; stroke-linejoin:round;">
</g>
<g style="fill:#E8D959; fill-opacity:1.0;  stroke:#E8D959; stroke-width:0; stroke-opacity:1;  stroke-linecap:round; stroke-linejoin:round;">
<circle cx="52755.9" cy="27519.7" r="196.85" style="stroke:#E8D959;" /> 
</g>
<g style="fill:#E8D959; fill-opacity:1.0;  stroke:#E8D959; stroke-width:137.795; stroke-opacity:1;  stroke-linecap:round; stroke-linejoin:round;">
</g>
<g style="fill:#E8D959; fill-opacity:1.0;  stroke:#E8D959; stroke-width:0; stroke-opacity:1;  stroke-linecap:round; stroke-linejoin:round;">
<circle cx="55907.5" cy="29746.1" r="196.85" style="stroke:#E8D959;" /> 
</g>
<g style="fill:#E8D959; fill-opacity:1.0;  stroke:#E8D959; stroke-width:137.795; stroke-opacity:1;  stroke-linecap:round; stroke-linejoin:round;">
</g>
<g style="fill:#E8D959; fill-opacity:1.0;  stroke:#E8D959; stroke-width:0; stroke-opacity:1;  stroke-linecap:round; stroke-linejoin:round;">
<circle cx="55907.5" cy="27502" r="196.85" style="stroke:#E8D959;" /> 
</g>
<g style="fill:#E8D959; fill-opacity:1.0;  stroke:#E8D959; stroke-width:137.795; stroke-opacity:1;  stroke-linecap:round; stroke-linejoin:round;">
</g>
<g style="fill:#E8D959; fill-opacity:1.0;  stroke:#E8D959; stroke-width:137.795; stroke-opacity:1;  stroke-linecap:round; stroke-linejoin:round;">
</g> 
</g></g><g mask="url(#test-a);" style="fill:#1D5D17; fill-opacity:0.75;"><rect height="4133" width="4606" x="52027" y="26555" /></g><g style="fill:#9E9E9E; fill-opacity:1.0;"><g height="4133" style="fill:#9E9E9E; fill-opacity:1.0; stroke:#9E9E9E; stroke-opacity:1.0;" width="4606" x="52027" y="26555"><g style="fill:#9E9E9E; fill-opacity:1;stroke:#9E9E9E; stroke-opacity:1; stroke-linecap:round; stroke-linejoin:round; " transform="translate(0 0) scale(1 1)">
</g>
<g style="fill:#9E9E9E; fill-opacity:0.0;  stroke:#9E9E9E; stroke-width:-0.000393701; stroke-opacity:1;  stroke-linecap:round; stroke-linejoin:round;">
<g style="stroke:#9E9E9E;">
</g>
<g style="fill:#9E9E9E; fill-opacity:0.0;  stroke:#9E9E9E; stroke-width:0; stroke-opacity:1;  stroke-linecap:round; stroke-linejoin:round;">
</g>
<g style="fill:#9E9E9E; fill-opacity:1.0;  stroke:#9E9E9E; stroke-width:0; stroke-opacity:1;  stroke-linecap:round; stroke-linejoin:round;">
<path d="M 55589.4,28079 55595,28079.9 55600.5,28081.2 55605.9,28083.2 55611,28085.6 55615.9,28088.5 55620.5,28091.9 55624.7,28095.7 55628.6,28100 55631.9,28104.5 55634.9,28109.4 55637.3,28114.6 55639.2,28120 55640.6,28125.5 55641.5,28131.1 55641.7,28136.8 55641.7,28272.6 55641.5,28278.3 55640.6,28284 55639.2,28289.5 55637.3,28294.9 55634.9,28300 55631.9,28304.9 55628.6,28309.5 55624.7,28313.7 55620.5,28317.5 55615.9,28320.9 55611,28323.9 55605.9,28326.3 55600.5,28328.2 55595,28329.6 55589.4,28330.4 55583.7,28330.7 55467.5,28330.7 55461.8,28330.4 55456.2,28329.6 55450.7,28328.2 55445.3,28326.3 55440.1,28323.9 55435.3,28320.9 55430.7,28317.5 55426.5,28313.7 55422.6,28309.5 55419.2,28304.9 55416.3,28300 55413.9,28294.9 55411.9,28289.5 55410.6,28284 55409.7,28278.3 55409.4,28272.6 55409.4,28136.8 55409.7,28131.1 55410.6,28125.5 55411.9,28120 55413.9,28114.6 55416.3,28109.4 55419.2,28104.5 55422.6,28100 55426.5,28095.7 55430.7,28091.9 55435.3,28088.5 55440.1,28085.6 55445.3,28083.2 55450.7,28081.2 55456.2,28079.9 55461.8,28079 55467.5,28078.7 55583.7,28078.7 Z" style="fill:#9E9E9E; fill-opacity:1.0;  stroke:#9E9E9E; stroke-width:0; stroke-opacity:1;  stroke-linecap:round; stroke-linejoin:round;fill-rule:evenodd;" /> 
<path d="M 55971.2,28079 55976.9,28079.9 55982.4,28081.2 55987.8,28083.2 55992.9,28085.6 55997.8,28088.5 56002.4,28091.9 56006.6,28095.7 56010.4,28100 56013.8,28104.5 56016.8,28109.4 56019.2,28114.6 56021.1,28120 56022.5,28125.5 56023.3,28131.1 56023.6,28136.8 56023.6,28272.6 56023.3,28278.3 56022.5,28284 56021.1,28289.5 56019.2,28294.9 56016.8,28300 56013.8,28304.9 56010.4,28309.5 56006.6,28313.7 56002.4,28317.5 55997.8,28320.9 55992.9,28323.9 55987.8,28326.3 55982.4,28328.2 55976.9,28329.6 55971.2,28330.4 55965.6,28330.7 55849.4,28330.7 55843.7,28330.4 55838.1,28329.6 55832.6,28328.2 55827.2,28326.3 55822,28323.9 55817.1,28320.9 55812.6,28317.5 55808.3,28313.7 55804.5,28309.5 55801.1,28304.9 55798.2,28300 55795.8,28294.9 55793.8,28289.5 55792.5,28284 55791.6,28278.3 55791.3,28272.6 55791.3,28136.8 55791.6,28131.1 55792.5,28125.5 55793.8,28120 55795.8,28114.6 55798.2,28109.4 55801.1,28104.5 55804.5,28100 55808.3,28095.7 55812.6,28091.9 55817.1,28088.5 55822,28085.6 55827.2,28083.2 55832.6,28081.2 55838.1,28079.9 55843.7,28079 55849.4,28078.7 55965.6,28078.7 Z" style="fill:#9E9E9E; fill-opacity:1.0;  stroke:#9E9E9E; stroke-width:0; stroke-opacity:1;  stroke-linecap:round; stroke-linejoin:round;fill-rule:evenodd;" /> 
</g>
<g style="stroke:#9E9E9E;">
</g>
<g style="stroke:#9E9E9E;">
</g>
<g style="stroke:#9E9E9E;">
</g>
<g style="fill:#9E9E9E; fill-opacity:1.0;  stroke:#9E9E9E; stroke-width:0; stroke-opacity:1;  stroke-linecap:round; stroke-linejoin:round;">
<path d="M 55118.1,27696.9 54724.4,27696.9 54724.4,27303.1 55118.1,27303.1 Z" style="fill:#9E9E9E; fill-opacity:1.0;  stroke:#9E9E9E; stroke-width:0; stroke-opacity:1;  stroke-linecap:round; stroke-linejoin:round;fill-rule:evenodd;" /> 
<path d="M 53937,27696.9 53543.3,27696.9 53543.3,27303.1 53937,27303.1 Z" style="fill:#9E9E9E; fill-opacity:1.0;  stroke:#9E9E9E; stroke-width:0; stroke-opacity:1;  stroke-linecap:round; stroke-linejoin:round;fill-rule:evenodd;" /> 
<path d="M 54763.8,27126 53897.6,27126 53897.6,26712.6 54763.8,26712.6 Z" style="fill:#9E9E9E; fill-opacity:1.0;  stroke:#9E9E9E; stroke-width:0; stroke-opacity:1;  stroke-linecap:round; stroke-linejoin:round;fill-rule:evenodd;" /> 
<path d="M 54763.8,28287.4 53897.6,28287.4 53897.6,27874 54763.8,27874 Z" style="fill:#9E9E9E; fill-opacity:1.0;  stroke:#9E9E9E; stroke-width:0; stroke-opacity:1;  stroke-linecap:round; stroke-linejoin:round;fill-rule:evenodd;" /> 
</g>
<g style="stroke:#9E9E9E;">
</g>
<g style="fill:#9E9E9E; fill-opacity:1.0;  stroke:#9E9E9E; stroke-width:0; stroke-opacity:1;  stroke-linecap:round; stroke-linejoin:round;">
<path d="M 54763.8,30531.5 53897.6,30531.5 53897.6,30118.1 54763.8,30118.1 Z" style="fill:#9E9E9E; fill-opacity:1.0;  stroke:#9E9E9E; stroke-width:0; stroke-opacity:1;  stroke-linecap:round; stroke-linejoin:round;fill-rule:evenodd;" /> 
<path d="M 54763.8,29370.1 53897.6,29370.1 53897.6,28956.7 54763.8,28956.7 Z" style="fill:#9E9E9E; fill-opacity:1.0;  stroke:#9E9E9E; stroke-width:0; stroke-opacity:1;  stroke-linecap:round; stroke-linejoin:round;fill-rule:evenodd;" /> 
<path d="M 53937,29940.9 53543.3,29940.9 53543.3,29547.2 53937,29547.2 Z" style="fill:#9E9E9E; fill-opacity:1.0;  stroke:#9E9E9E; stroke-width:0; stroke-opacity:1;  stroke-linecap:round; stroke-linejoin:round;fill-rule:evenodd;" /> 
<path d="M 55118.1,29940.9 54724.4,29940.9 54724.4,29547.2 55118.1,29547.2 Z" style="fill:#9E9E9E; fill-opacity:1.0;  stroke:#9E9E9E; stroke-width:0; stroke-opacity:1;  stroke-linecap:round; stroke-linejoin:round;fill-rule:evenodd;" /> 
</g>
<g style="stroke:#9E9E9E;">
</g>
<g style="stroke:#9E9E9E;">
</g>
<g style="stroke:#9E9E9E;">
</g>
<g style="fill:#9E9E9E; fill-opacity:1.0;  stroke:#9E9E9E; stroke-width:0; stroke-opacity:1;  stroke-linecap:round; stroke-linejoin:round;">
<path d="M 55971.2,30323.1 55976.9,30324 55982.4,30325.3 55987.8,30327.3 55992.9,30329.7 55997.8,30332.6 56002.4,30336 56006.6,30339.8 56010.4,30344.1 56013.8,30348.6 56016.8,30353.5 56019.2,30358.7 56021.1,30364 56022.5,30369.6 56023.3,30375.2 56023.6,30380.9 56023.6,30516.7 56023.3,30522.4 56022.5,30528.1 56021.1,30533.6 56019.2,30539 56016.8,30544.1 56013.8,30549 56010.4,30553.6 56006.6,30557.8 56002.4,30561.6 55997.8,30565 55992.9,30567.9 55987.8,30570.4 55982.4,30572.3 55976.9,30573.7 55971.2,30574.5 55965.6,30574.8 55849.4,30574.8 55843.7,30574.5 55838.1,30573.7 55832.6,30572.3 55827.2,30570.4 55822,30567.9 55817.1,30565 55812.6,30561.6 55808.3,30557.8 55804.5,30553.6 55801.1,30549 55798.2,30544.1 55795.8,30539 55793.8,30533.6 55792.5,30528.1 55791.6,30522.4 55791.3,30516.7 55791.3,30380.9 55791.6,30375.2 55792.5,30369.6 55793.8,30364 55795.8,30358.7 55798.2,30353.5 55801.1,30348.6 55804.5,30344.1 55808.3,30339.8 55812.6,30336 55817.1,30332.6 55822,30329.7 55827.2,30327.3 55832.6,30325.3 55838.1,30324 55843.7,30323.1 55849.4,30322.8 55965.6,30322.8 Z" style="fill:#9E9E9E; fill-opacity:1.0;  stroke:#9E9E9E; stroke-width:0; stroke-opacity:1;  stroke-linecap:round; stroke-linejoin:round;fill-rule:evenodd;" /> 
<path d="M 55589.4,30323.1 55595,30324 55600.5,30325.3 55605.9,30327.3 55611,30329.7 55615.9,30332.6 55620.5,30336 55624.7,30339.8 55628.6,30344.1 55631.9,30348.6 55634.9,30353.5 55637.3,30358.7 55639.2,30364 55640.6,30369.6 55641.5,30375.2 55641.7,30380.9 55641.7,30516.7 55641.5,30522.4 55640.6,30528.1 55639.2,30533.6 55637.3,30539 55634.9,30544.1 55631.9,30549 55628.6,30553.6 55624.7,30557.8 55620.5,30561.6 55615.9,30565 55611,30567.9 55605.9,30570.4 55600.5,30572.3 55595,30573.7 55589.4,30574.5 55583.7,30574.8 55467.5,30574.8 55461.8,30574.5 55456.2,30573.7 55450.7,30572.3 55445.3,30570.4 55440.1,30567.9 55435.3,30565 55430.7,30561.6 55426.5,30557.8 55422.6,30553.6 55419.2,30549 55416.3,30544.1 55413.9,30539 55411.9,30533.6 55410.6,30528.1 55409.7,30522.4 55409.4,30516.7 55409.4,30380.9 55409.7,30375.2 55410.6,30369.6 55411.9,30364 55413.9,30358.7 55416.3,30353.5 55419.2,30348.6 55422.6,30344.1 55426.5,30339.8 55430.7,30336 55435.3,30332.6 55440.1,30329.7 55445.3,30327.3 55450.7,30325.3 55456.2,30324 55461.8,30323.1 55467.5,30322.8 55583.7,30322.8 Z" style="fill:#9E9E9E; fill-opacity:1.0;  stroke:#9E9E9E; stroke-width:0; stroke-opacity:1;  stroke-linecap:round; stroke-linejoin:round;fill-rule:evenodd;" /> 
</g>
<g style="stroke:#9E9E9E;">
</g>
<g style="stroke:#9E9E9E;">
</g>
<g style="stroke:#9E9E9E;">
</g>
</g> 
<g style="stroke:#9E9E9E;">
</g>
<g style="fill:#9E9E9E; fill-opacity:0.0;  stroke:#9E9E9E; stroke-width:0; stroke-opacity:1;  stroke-linecap:round; stroke-linejoin:round;">
</g>
<g style="fill:#9E9E9E; fill-opacity:1.0;  stroke:#9E9E9E; stroke-width:0; stroke-opacity:1;  stroke-linecap:round; stroke-linejoin:round;">
<path d="M 55589.4,28079 55595,28079.9 55600.5,28081.2 55605.9,28083.2 55611,28085.6 55615.9,28088.5 55620.5,28091.9 55624.7,28095.7 55628.6,28100 55631.9,28104.5 55634.9,28109.4 55637.3,28114.6 55639.2,28120 55640.6,28125.5 55641.5,28131.1 55641.7,28136.8 55641.7,28272.6 55641.5,28278.3 55640.6,28284 55639.2,28289.5 55637.3,28294.9 55634.9,28300 55631.9,28304.9 55628.6,28309.5 55624.7,28313.7 55620.5,28317.5 55615.9,28320.9 55611,28323.9 55605.9,28326.3 55600.5,28328.2 55595,28329.6 55589.4,28330.4 55583.7,28330.7 55467.5,28330.7 55461.8,28330.4 55456.2,28329.6 55450.7,28328.2 55445.3,28326.3 55440.1,28323.9 55435.3,28320.9 55430.7,28317.5 55426.5,28313.7 55422.6,28309.5 55419.2,28304.9 55416.3,28300 55413.9,28294.9 55411.9,28289.5 55410.6,28284 55409.7,28278.3 55409.4,28272.6 55409.4,28136.8 55409.7,28131.1 55410.6,28125.5 55411.9,28120 55413.9,28114.6 55416.3,28109.4 55419.2,28104.5 55422.6,28100 55426.5,28095.7 55430.7,28091.9 55435.3,28088.5 55440.1,28085.6 55445.3,28083.2 55450.7,28081.2 55456.2,28079.9 55461.8,28079 55467.5,28078.7 55583.7,28078.7 Z" style="fill:#9E9E9E; fill-opacity:1.0;  stroke:#9E9E9E; stroke-width:0; stroke-opacity:1;  stroke-linecap:round; stroke-linejoin:round;fill-rule:evenodd;" /> 
<path d="M 55971.2,28079 55976.9,28079.9 55982.4,28081.2 55987.8,28083.2 55992.9,28085.6 55997.8,28088.5 56002.4,28091.9 56006.6,28095.7 56010.4,28100 56013.8,28104.5 56016.8,28109.4 56019.2,28114.6 56021.1,28120 56022.5,28125.5 56023.3,28131.1 56023.6,28136.8 56023.6,28272.6 56023.3,28278.3 56022.5,28284 56021.1,28289.5 56019.2,28294.9 56016.8,28300 56013.8,28304.9 56010.4,28309.5 56006.6,28313.7 56002.4,28317.5 55997.8,28320.9 55992.9,28323.9 55987.8,28326.3 55982.4,28328.2 55976.9,28329.6 55971.2,28330.4 55965.6,28330.7 55849.4,28330.7 55843.7,28330.4 55838.1,28329.6 55832.6,28328.2 55827.2,28326.3 55822,28323.9 55817.1,28320.9 55812.6,28317.5 55808.3,28313.7 55804.5,28309.5 55801.1,28304.9 55798.2,28300 55795.8,28294.9 55793.8,28289.5 55792.5,28284 55791.6,28278.3 55791.3,28272.6 55791.3,28136.8 55791.6,28131.1 55792.5,28125.5 55793.8,28120 55795.8,28114.6 55798.2,28109.4 55801.1,28104.5 55804.5,28100 55808.3,28095.7 55812.6,28091.9 55817.1,28088.5 55822,28085.6 55827.2,28083.2 55832.6,28081.2 55838.1,28079.9 55843.7,28079 55849.4,28078.7 55965.6,28078.7 Z" style="fill:#9E9E9E; fill-opacity:1.0;  stroke:#9E9E9E; stroke-width:0; stroke-opacity:1;  stroke-linecap:round; stroke-linejoin:round;fill-rule:evenodd;" /> 
</g>
<g style="stroke:#9E9E9E;">
</g>
<g style="stroke:#9E9E9E;">
</g>
<g style="stroke:#9E9E9E;">
</g>
<g style="fill:#9E9E9E; fill-opacity:1.0;  stroke:#9E9E9E; stroke-width:0; stroke-opacity:1;  stroke-linecap:round; stroke-linejoin:round;">
<path d="M 55118.1,27696.9 54724.4,27696.9 54724.4,27303.1 55118.1,27303.1 Z" style="fill:#9E9E9E; fill-opacity:1.0;  stroke:#9E9E9E; stroke-width:0; stroke-opacity:1;  stroke-linecap:round; stroke-linejoin:round;fill-rule:evenodd;" /> 
<path d="M 53937,27696.9 53543.3,27696.9 53543.3,27303.1 53937,27303.1 Z" style="fill:#9E9E9E; fill-opacity:1.0;  stroke:#9E9E9E; stroke-width:0; stroke-opacity:1;  stroke-linecap:round; stroke-linejoin:round;fill-rule:evenodd;" /> 
<path d="M 54763.8,27126 53897.6,27126 53897.6,26712.6 54763.8,26712.6 Z" style="fill:#9E9E9E; fill-opacity:1.0;  stroke:#9E9E9E; stroke-width:0; stroke-opacity:1;  stroke-linecap:round; stroke-linejoin:round;fill-rule:evenodd;" /> 
<path d="M 54763.8,28287.4 53897.6,28287.4 53897.6,27874 54763.8,27874 Z" style="fill:#9E9E9E; fill-opacity:1.0;  stroke:#9E9E9E; stroke-width:0; stroke-opacity:1;  stroke-linecap:round; stroke-linejoin:round;fill-rule:evenodd;" /> 
</g>
<g style="stroke:#9E9E9E;">
</g>
<g style="fill:#9E9E9E; fill-opacity:1.0;  stroke:#9E9E9E; stroke-width:0; stroke-opacity:1;  stroke-linecap:round; stroke-linejoin:round;">
<path d="M 54763.8,30531.5 53897.6,30531.5 53897.6,30118.1 54763.8,30118.1 Z" style="fill:#9E9E9E; fill-opacity:1.0;  stroke:#9E9E9E; stroke-width:0; stroke-opacity:1;  stroke-linecap:round; stroke-linejoin:round;fill-rule:evenodd;" /> 
<path d="M 54763.8,29370.1 53897.6,29370.1 53897.6,28956.7 54763.8,28956.7 Z" style="fill:#9E9E9E; fill-opacity:1.0;  stroke:#9E9E9E; stroke-width:0; stroke-opacity:1;  stroke-linecap:round; stroke-linejoin:round;fill-rule:evenodd;" /> 
<path d="M 53937,29940.9 53543.3,29940.9 53543.3,29547.2 53937,29547.2 Z" style="fill:#9E9E9E; fill-opacity:1.0;  stroke:#9E9E9E; stroke-width:0; stroke-opacity:1;  stroke-linecap:round; stroke-linejoin:round;fill-rule:evenodd;" /> 
<path d="M 55118.1,29940.9 54724.4,29940.9 54724.4,29547.2 55118.1,29547.2 Z" style="fill:#9E9E9E; fill-opacity:1.0;  stroke:#9E9E9E; stroke-width:0; stroke-opacity:1;  stroke-linecap:round; stroke-linejoin:round;fill-rule:evenodd;" /> 
</g>
<g style="stroke:#9E9E9E;">
</g>
<g style="stroke:#9E9E9E;">
</g>
<g style="stroke:#9E9E9E;">
</g>
<g style="fill:#9E9E9E; fill-opacity:1.0;  stroke:#9E9E9E; stroke-width:0; stroke-opacity:1;  stroke-linecap:round; stroke-linejoin:round;">
<path d="M 55971.2,30323.1 55976.9,30324 55982.4,30325.3 55987.8,30327.3 55992.9,30329.7 55997.8,30332.6 56002.4,30336 56006.6,30339.8 56010.4,30344.1 56013.8,30348.6 56016.8,30353.5 56019.2,30358.7 56021.1,30364 56022.5,30369.6 56023.3,30375.2 56023.6,30380.9 56023.6,30516.7 56023.3,30522.4 56022.5,30528.1 56021.1,30533.6 56019.2,30539 56016.8,30544.1 56013.8,30549 56010.4,30553.6 56006.6,30557.8 56002.4,30561.6 55997.8,30565 55992.9,30567.9 55987.8,30570.4 55982.4,30572.3 55976.9,30573.7 55971.2,30574.5 55965.6,30574.8 55849.4,30574.8 55843.7,30574.5 55838.1,30573.7 55832.6,30572.3 55827.2,30570.4 55822,30567.9 55817.1,30565 55812.6,30561.6 55808.3,30557.8 55804.5,30553.6 55801.1,30549 55798.2,30544.1 55795.8,30539 55793.8,30533.6 55792.5,30528.1 55791.6,30522.4 55791.3,30516.7 55791.3,30380.9 55791.6,30375.2 55792.5,30369.6 55793.8,30364 55795.8,30358.7 55798.2,30353.5 55801.1,30348.6 55804.5,30344.1 55808.3,30339.8 55812.6,30336 55817.1,30332.6 55822,30329.7 55827.2,30327.3 55832.6,30325.3 55838.1,30324 55843.7,30323.1 55849.4,30322.8 55965.6,30322.8 Z" style="fill:#9E9E9E; fill-opacity:1.0;  stroke:#9E9E9E; stroke-width:0; stroke-opacity:1;  stroke-linecap:round; stroke-linejoin:round;fill-rule:evenodd;" /> 
<path d="M 55589.4,30323.1 55595,30324 55600.5,30325.3 55605.9,30327.3 55611,30329.7 55615.9,30332.6 55620.5,30336 55624.7,30339.8 55628.6,30344.1 55631.9,30348.6 55634.9,30353.5 55637.3,30358.7 55639.2,30364 55640.6,30369.6 55641.5,30375.2 55641.7,30380.9 55641.7,30516.7 55641.5,30522.4 55640.6,30528.1 55639.2,30533.6 55637.3,30539 55634.9,30544.1 55631.9,30549 55628.6,30553.6 55624.7,30557.8 55620.5,30561.6 55615.9,30565 55611,30567.9 55605.9,30570.4 55600.5,30572.3 55595,30573.7 55589.4,30574.5 55583.7,30574.8 55467.5,30574.8 55461.8,30574.5 55456.2,30573.7 55450.7,30572.3 55445.3,30570.4 55440.1,30567.9 55435.3,30565 55430.7,30561.6 55426.5,30557.8 55422.6,30553.6 55419.2,30549 55416.3,30544.1 55413.9,30539 55411.9,30533.6 55410.6,30528.1 55409.7,30522.4 55409.4,30516.7 55409.4,30380.9 55409.7,30375.2 55410.6,30369.6 55411.9,30364 55413.9,30358.7 55416.3,30353.5 55419.2,30348.6 55422.6,30344.1 55426.5,30339.8 55430.7,30336 55435.3,30332.6 55440.1,30329.7 55445.3,30327.3 55450.7,30325.3 55456.2,30324 55461.8,30323.1 55467.5,30322.8 55583.7,30322.8 Z" style="fill:#9E9E9E; fill-opacity:1.0;  stroke:#9E9E9E; stroke-width:0; stroke-opacity:1;  stroke-linecap:round; stroke-linejoin:round;fill-rule:evenodd;" /> 
</g>
<g style="stroke:#9E9E9E;">
</g>
<g style="stroke:#9E9E9E;">
</g>
<g style="stroke:#9E9E9E;">
</g>
</g></g><g style="fill:#eaebe5; fill-opacity:1.0;"><g height="4133" style="fill:#eaebe5; fill-opacity:1.0; stroke:#eaebe5; stroke-opacity:1.0;" width="4606" x="52027" y="26555"><g style="fill:#eaebe5; fill-opacity:1;stroke:#eaebe5; stroke-opacity:1; stroke-linecap:round; stroke-linejoin:round; " transform="translate(0 0) scale(1 1)">
</g>
<g style="fill:#eaebe5; fill-opacity:0.0;  stroke:#eaebe5; stroke-width:-0.000393701; stroke-opacity:1;  stroke-linecap:round; stroke-linejoin:round;">
</g>
<g style="fill:#eaebe5; fill-opacity:0.0;  stroke:#eaebe5; stroke-width:47.2441; stroke-opacity:1;  stroke-linecap:round; stroke-linejoin:round;">
<path d="M52185 26929 L53326 26929 " style="stroke:#eaebe5;" />
<path d="M53326 26929 L53326 28070 " style="stroke:#eaebe5;" />
<path d="M53326 28070 L52185 28070 " style="stroke:#eaebe5;" />
<path d="M52185 28070 L52185 26929 " style="stroke:#eaebe5;" />
<path d="M55334 28070 L55334 26929 " style="stroke:#eaebe5;" />
<path d="M56476 28070 L55334 28070 " style="stroke:#eaebe5;" />
<path d="M56476 26929 L56476 28070 " style="stroke:#eaebe5;" />
<path d="M55334 26929 L56476 26929 " style="stroke:#eaebe5;" />
<path d="M53740 28090 L53740 27775 " style="stroke:#eaebe5;" />
<path d="M53818 28090 L53740 28090 " style="stroke:#eaebe5;" />
<path d="M53740 26909 L53818 26909 " style="stroke:#eaebe5;" />
<path d="M53740 27224 L53740 26909 " style="stroke:#eaebe5;" />
<path d="M54921 26909 L54921 27224 " style="stroke:#eaebe5;" />
<path d="M54842 26909 L54921 26909 " style="stroke:#eaebe5;" />
<path d="M54921 28011 L54842 28090 " style="stroke:#eaebe5;" />
<path d="M54921 27775 L54921 28011 " style="stroke:#eaebe5;" />
<path d="M54921 27775 L55118 27775 " style="stroke:#eaebe5;" />
<path d="M54921 27224 L55118 27224 " style="stroke:#eaebe5;" />
<path d="M54921 29468 L55118 29468 " style="stroke:#eaebe5;" />
<path d="M54921 30019 L55118 30019 " style="stroke:#eaebe5;" />
<path d="M54921 30019 L54921 30255 " style="stroke:#eaebe5;" />
<path d="M54921 30255 L54842 30334 " style="stroke:#eaebe5;" />
<path d="M54842 29153 L54921 29153 " style="stroke:#eaebe5;" />
<path d="M54921 29153 L54921 29468 " style="stroke:#eaebe5;" />
<path d="M53740 29468 L53740 29153 " style="stroke:#eaebe5;" />
<path d="M53740 29153 L53818 29153 " style="stroke:#eaebe5;" />
<path d="M53818 30334 L53740 30334 " style="stroke:#eaebe5;" />
<path d="M53740 30334 L53740 30019 " style="stroke:#eaebe5;" />
<path d="M55334 29173 L56476 29173 " style="stroke:#eaebe5;" />
<path d="M56476 29173 L56476 30314 " style="stroke:#eaebe5;" />
<path d="M56476 30314 L55334 30314 " style="stroke:#eaebe5;" />
<path d="M55334 30314 L55334 29173 " style="stroke:#eaebe5;" />
<path d="M52185 30314 L52185 29173 " style="stroke:#eaebe5;" />
<path d="M53326 30314 L52185 30314 " style="stroke:#eaebe5;" />
<path d="M53326 29173 L53326 30314 " style="stroke:#eaebe5;" />
<path d="M52185 29173 L53326 29173 " style="stroke:#eaebe5;" />
<g style="stroke:#eaebe5;">
</g>
</g> 
<g style="stroke:#eaebe5;">
</g>
</g></g><g style="fill:#000000; fill-opacity:1.0;"><g height="4133" style="fill:#000000; fill-opacity:1.0; stroke:#000000; stroke-opacity:1.0;" width="4606" x="52027" y="26555"><g style="fill:#000000; fill-opacity:1;stroke:#000000; stroke-opacity:1; stroke-linecap:round; stroke-linejoin:round; " transform="translate(0 0) scale(1 1)">
</g>
<g style="fill:#000000; fill-opacity:0.0;  stroke:#000000; stroke-width:-0.000393701; stroke-opacity:1;  stroke-linecap:round; stroke-linejoin:round;">
</g>
<g style="fill:#000000; fill-opacity:0.0;  stroke:#000000; stroke-width:39.3701; stroke-opacity:1;  stroke-linecap:round; stroke-linejoin:round;">
<path d="M54724.4 28425.2 A196.85 196.85 0.0 0 0 54724.4 28818.9 " style="stroke:#000000;" />
<path d="M56614 28425 L54724 28425 " style="stroke:#000000;" />
<path d="M54724 28818 L56614 28818 " style="stroke:#000000;" />
<path d="M53937 28818.9 A196.85 196.85 0.0 0 0 53937 28425.2 " style="stroke:#000000;" />
<path d="M53937 28425 L52047 28425 " style="stroke:#000000;" />
<path d="M52047 28425 L52047 26574 " style="stroke:#000000;" />
<path d="M52047 26574 L56614 26574 " style="stroke:#000000;" />
<path d="M56614 26574 L56614 28425 " style="stroke:#000000;" />
<path d="M56614 28818 L56614 30669 " style="stroke:#000000;" />
<path d="M52047 28818 L53937 28818 " style="stroke:#000000;" />
<path d="M52047 30669 L52047 28818 " style="stroke:#000000;" />
<path d="M56614 30669 L52047 30669 " style="stroke:#000000;" />
<g style="stroke:#000000;">
</g>
<g style="stroke:#000000;">
</g>
<g style="stroke:#000000;">
</g>
<g style="stroke:#000000;">
</g>
<g style="stroke:#000000;">
</g>
<g style="stroke:#000000;">
</g>
<g style="stroke:#000000;">
</g>
<g style="stroke:#000000;">
</g>
<g style="stroke:#000000;">
</g>
</g> 
<g style="stroke:#000000;">
</g>
<g style="stroke:#000000;">
</g>
<g style="stroke:#000000;">
</g>
<g style="stroke:#000000;">
</g>
<g style="stroke:#000000;">
</g>
<g style="stroke:#000000;">
</g>
<g style="stroke:#000000;">
</g>
<g style="stroke:#000000;">
</g>
<g style="stroke:#000000;">
</g>
</g></g><g id="hole-mask" mask="url(#boardMask);"><g style="opacity:0.8;"><polyline points="0 0 -1 0" stroke="black" stroke-linecap="round" stroke-width="0" transform="translate(55525 28204)rotate(-180.0)" /><polyline points="0 0 -1 0" stroke="black" stroke-linecap="round" stroke-width="0" transform="translate(55907 28204)rotate(-180.0)" /><polyline points="0 0 -1 0" stroke="black" stroke-linecap="round" stroke-width="0" transform="translate(52755 27500)rotate(-0.0)" /><polyline points="0 0 -1 0" stroke="black" stroke-linecap="round" stroke-width="0" transform="translate(55905 27500)rotate(-0.0)" /><polyline points="0 0 -1 0" stroke="black" stroke-linecap="round" stroke-width="0" transform="translate(54921 27500)rotate(-90.0)" /><polyline points="0 0 -1 0" stroke="black" stroke-linecap="round" stroke-width="0" transform="translate(53740 27500)rotate(-90.0)" /><polyline points="0 0 -1 0" stroke="black" stroke-linecap="round" stroke-width="0" transform="translate(54330 26919)rotate(-90.0)" /><polyline points="0 0 -1 0" stroke="black" stroke-linecap="round" stroke-width="0" transform="translate(54330 28080)rotate(-90.0)" /><polyline points="0 0 -1 0" stroke="black" stroke-linecap="round" stroke-width="0" transform="translate(54330 30324)rotate(-90.0)" /><polyline points="0 0 -1 0" stroke="black" stroke-linecap="round" stroke-width="0" transform="translate(54330 29163)rotate(-90.0)" /><polyline points="0 0 -1 0" stroke="black" stroke-linecap="round" stroke-width="0" transform="translate(53740 29744)rotate(-90.0)" /><polyline points="0 0 -1 0" stroke="black" stroke-linecap="round" stroke-width="0" transform="translate(54921 29744)rotate(-90.0)" /><polyline points="0 0 -1 0" stroke="black" stroke-linecap="round" stroke-width="0" transform="translate(55905 29744)rotate(-0.0)" /><polyline points="0 0 -1 0" stroke="black" stroke-linecap="round" stroke-width="0" transform="translate(52755 29744)rotate(-0.0)" /><polyline points="0 0 -1 0" stroke="black" stroke-linecap="round" stroke-width="0" transform="translate(55907 30448)rotate(-180.0)" /><polyline points="0 0 -1 0" stroke="black" stroke-linecap="round" stroke-width="0" transform="translate(55525 30448)rotate(-180.0)" /><polyline points="0 -1 0 0" stroke="black" stroke-linecap="round" stroke-width="393" transform="translate(52755 29763)" /><polyline points="0 -1 0 0" stroke="black" stroke-linecap="round" stroke-width="393" transform="translate(52755 27519)" /><polyline points="0 -1 0 0" stroke="black" stroke-linecap="round" stroke-width="393" transform="translate(55907 29746)" /><polyline points="0 -1 0 0" stroke="black" stroke-linecap="round" stroke-width="393" transform="translate(55907 27501)" /></g></g></svg>