<?xml version="1.0" standalone="no"?>
 <!DOCTYPE svg PUBLIC "-//W3C//DTD SVG 1.1//EN" 
 "http://www.w3.org/Graphics/SVG/1.1/DTD/svg11.dtd"> 
<svg xmlns="http://www.w3.org/2000/svg" version="1.1" 
    width="29.7002cm" height="21.0007cm" viewBox="0 0 116930 82680 ">
<title>SVG Picture created as Nose_PCB_panel.svg date 2020/09/02 20:09:51 </title>
  <desc>Picture generated by PCBNEW </desc>
<g style="fill:#000000; fill-opacity:1;stroke:#000000; stroke-opacity:1;
stroke-linecap:round; stroke-linejoin:round; "
 transform="translate(0 0) scale(1 1)">
</g>
<g style="fill:#000000; fill-opacity:0.0; 
stroke:#000000; stroke-width:-0.000393701; stroke-opacity:1; 
stroke-linecap:round; stroke-linejoin:round;">
</g>
<g style="fill:#000000; fill-opacity:0.0; 
stroke:#000000; stroke-width:39.3701; stroke-opacity:1; 
stroke-linecap:round; stroke-linejoin:round;">
<path d="M54724.4 28425.2 A196.85 196.85 0.0 0 0 54724.4 28818.9 " />
<path d="M56614 28425
L54724 28425
" />
<path d="M54724 28818
L56614 28818
" />
<path d="M53937 28818.9 A196.85 196.85 0.0 0 0 53937 28425.2 " />
<path d="M53937 28425
L52047 28425
" />
<path d="M52047 28425
L52047 26574
" />
<path d="M52047 26574
L56614 26574
" />
<path d="M56614 26574
L56614 28425
" />
<path d="M56614 28818
L56614 30669
" />
<path d="M52047 28818
L53937 28818
" />
<path d="M52047 30669
L52047 28818
" />
<path d="M56614 30669
L52047 30669
" />
<g >
</g>
<g >
</g>
<g >
</g>
<g >
</g>
<g >
</g>
<g >
</g>
<g >
</g>
<g >
</g>
<g >
</g>
</g> 
</svg>
