G04 #@! TF.GenerationSoftware,KiCad,Pcbnew,(5.1.5-0-10_14)*
G04 #@! TF.CreationDate,2020-10-31T20:23:47-07:00*
G04 #@! TF.ProjectId,EOGlass2p1,454f476c-6173-4733-9270-312e6b696361,rev?*
G04 #@! TF.SameCoordinates,Original*
G04 #@! TF.FileFunction,Soldermask,Bot*
G04 #@! TF.FilePolarity,Negative*
%FSLAX46Y46*%
G04 Gerber Fmt 4.6, Leading zero omitted, Abs format (unit mm)*
G04 Created by KiCad (PCBNEW (5.1.5-0-10_14)) date 2020-10-31 20:23:47*
%MOMM*%
%LPD*%
G04 APERTURE LIST*
%ADD10C,1.100000*%
%ADD11R,1.600000X0.550000*%
%ADD12O,1.200000X1.900000*%
%ADD13O,1.200000X2.300000*%
%ADD14C,0.100000*%
%ADD15R,1.100000X1.100000*%
%ADD16R,2.300000X1.150000*%
%ADD17R,1.150000X2.300000*%
%ADD18C,4.100000*%
G04 APERTURE END LIST*
D10*
X119400000Y-76200000D03*
D11*
X135995000Y-73230000D03*
X135995000Y-72580000D03*
X135995000Y-73880000D03*
X135995000Y-71930000D03*
X135995000Y-74530000D03*
D12*
X136245000Y-76030000D03*
X136245000Y-70430000D03*
D13*
X134095000Y-73230000D03*
D14*
G36*
X127774408Y-69150831D02*
G01*
X127791153Y-69153315D01*
X127807574Y-69157428D01*
X127823513Y-69163131D01*
X127838816Y-69170369D01*
X127853336Y-69179071D01*
X127866933Y-69189156D01*
X127879476Y-69200524D01*
X127890844Y-69213067D01*
X127900929Y-69226664D01*
X127909631Y-69241184D01*
X127916869Y-69256487D01*
X127922572Y-69272426D01*
X127926685Y-69288847D01*
X127929169Y-69305592D01*
X127930000Y-69322500D01*
X127930000Y-69667500D01*
X127929169Y-69684408D01*
X127926685Y-69701153D01*
X127922572Y-69717574D01*
X127916869Y-69733513D01*
X127909631Y-69748816D01*
X127900929Y-69763336D01*
X127890844Y-69776933D01*
X127879476Y-69789476D01*
X127866933Y-69800844D01*
X127853336Y-69810929D01*
X127838816Y-69819631D01*
X127823513Y-69826869D01*
X127807574Y-69832572D01*
X127791153Y-69836685D01*
X127774408Y-69839169D01*
X127757500Y-69840000D01*
X127362500Y-69840000D01*
X127345592Y-69839169D01*
X127328847Y-69836685D01*
X127312426Y-69832572D01*
X127296487Y-69826869D01*
X127281184Y-69819631D01*
X127266664Y-69810929D01*
X127253067Y-69800844D01*
X127240524Y-69789476D01*
X127229156Y-69776933D01*
X127219071Y-69763336D01*
X127210369Y-69748816D01*
X127203131Y-69733513D01*
X127197428Y-69717574D01*
X127193315Y-69701153D01*
X127190831Y-69684408D01*
X127190000Y-69667500D01*
X127190000Y-69322500D01*
X127190831Y-69305592D01*
X127193315Y-69288847D01*
X127197428Y-69272426D01*
X127203131Y-69256487D01*
X127210369Y-69241184D01*
X127219071Y-69226664D01*
X127229156Y-69213067D01*
X127240524Y-69200524D01*
X127253067Y-69189156D01*
X127266664Y-69179071D01*
X127281184Y-69170369D01*
X127296487Y-69163131D01*
X127312426Y-69157428D01*
X127328847Y-69153315D01*
X127345592Y-69150831D01*
X127362500Y-69150000D01*
X127757500Y-69150000D01*
X127774408Y-69150831D01*
G37*
G36*
X127774408Y-70120831D02*
G01*
X127791153Y-70123315D01*
X127807574Y-70127428D01*
X127823513Y-70133131D01*
X127838816Y-70140369D01*
X127853336Y-70149071D01*
X127866933Y-70159156D01*
X127879476Y-70170524D01*
X127890844Y-70183067D01*
X127900929Y-70196664D01*
X127909631Y-70211184D01*
X127916869Y-70226487D01*
X127922572Y-70242426D01*
X127926685Y-70258847D01*
X127929169Y-70275592D01*
X127930000Y-70292500D01*
X127930000Y-70637500D01*
X127929169Y-70654408D01*
X127926685Y-70671153D01*
X127922572Y-70687574D01*
X127916869Y-70703513D01*
X127909631Y-70718816D01*
X127900929Y-70733336D01*
X127890844Y-70746933D01*
X127879476Y-70759476D01*
X127866933Y-70770844D01*
X127853336Y-70780929D01*
X127838816Y-70789631D01*
X127823513Y-70796869D01*
X127807574Y-70802572D01*
X127791153Y-70806685D01*
X127774408Y-70809169D01*
X127757500Y-70810000D01*
X127362500Y-70810000D01*
X127345592Y-70809169D01*
X127328847Y-70806685D01*
X127312426Y-70802572D01*
X127296487Y-70796869D01*
X127281184Y-70789631D01*
X127266664Y-70780929D01*
X127253067Y-70770844D01*
X127240524Y-70759476D01*
X127229156Y-70746933D01*
X127219071Y-70733336D01*
X127210369Y-70718816D01*
X127203131Y-70703513D01*
X127197428Y-70687574D01*
X127193315Y-70671153D01*
X127190831Y-70654408D01*
X127190000Y-70637500D01*
X127190000Y-70292500D01*
X127190831Y-70275592D01*
X127193315Y-70258847D01*
X127197428Y-70242426D01*
X127203131Y-70226487D01*
X127210369Y-70211184D01*
X127219071Y-70196664D01*
X127229156Y-70183067D01*
X127240524Y-70170524D01*
X127253067Y-70159156D01*
X127266664Y-70149071D01*
X127281184Y-70140369D01*
X127296487Y-70133131D01*
X127312426Y-70127428D01*
X127328847Y-70123315D01*
X127345592Y-70120831D01*
X127362500Y-70120000D01*
X127757500Y-70120000D01*
X127774408Y-70120831D01*
G37*
G36*
X131804408Y-77030831D02*
G01*
X131821153Y-77033315D01*
X131837574Y-77037428D01*
X131853513Y-77043131D01*
X131868816Y-77050369D01*
X131883336Y-77059071D01*
X131896933Y-77069156D01*
X131909476Y-77080524D01*
X131920844Y-77093067D01*
X131930929Y-77106664D01*
X131939631Y-77121184D01*
X131946869Y-77136487D01*
X131952572Y-77152426D01*
X131956685Y-77168847D01*
X131959169Y-77185592D01*
X131960000Y-77202500D01*
X131960000Y-77597500D01*
X131959169Y-77614408D01*
X131956685Y-77631153D01*
X131952572Y-77647574D01*
X131946869Y-77663513D01*
X131939631Y-77678816D01*
X131930929Y-77693336D01*
X131920844Y-77706933D01*
X131909476Y-77719476D01*
X131896933Y-77730844D01*
X131883336Y-77740929D01*
X131868816Y-77749631D01*
X131853513Y-77756869D01*
X131837574Y-77762572D01*
X131821153Y-77766685D01*
X131804408Y-77769169D01*
X131787500Y-77770000D01*
X131442500Y-77770000D01*
X131425592Y-77769169D01*
X131408847Y-77766685D01*
X131392426Y-77762572D01*
X131376487Y-77756869D01*
X131361184Y-77749631D01*
X131346664Y-77740929D01*
X131333067Y-77730844D01*
X131320524Y-77719476D01*
X131309156Y-77706933D01*
X131299071Y-77693336D01*
X131290369Y-77678816D01*
X131283131Y-77663513D01*
X131277428Y-77647574D01*
X131273315Y-77631153D01*
X131270831Y-77614408D01*
X131270000Y-77597500D01*
X131270000Y-77202500D01*
X131270831Y-77185592D01*
X131273315Y-77168847D01*
X131277428Y-77152426D01*
X131283131Y-77136487D01*
X131290369Y-77121184D01*
X131299071Y-77106664D01*
X131309156Y-77093067D01*
X131320524Y-77080524D01*
X131333067Y-77069156D01*
X131346664Y-77059071D01*
X131361184Y-77050369D01*
X131376487Y-77043131D01*
X131392426Y-77037428D01*
X131408847Y-77033315D01*
X131425592Y-77030831D01*
X131442500Y-77030000D01*
X131787500Y-77030000D01*
X131804408Y-77030831D01*
G37*
G36*
X132774408Y-77030831D02*
G01*
X132791153Y-77033315D01*
X132807574Y-77037428D01*
X132823513Y-77043131D01*
X132838816Y-77050369D01*
X132853336Y-77059071D01*
X132866933Y-77069156D01*
X132879476Y-77080524D01*
X132890844Y-77093067D01*
X132900929Y-77106664D01*
X132909631Y-77121184D01*
X132916869Y-77136487D01*
X132922572Y-77152426D01*
X132926685Y-77168847D01*
X132929169Y-77185592D01*
X132930000Y-77202500D01*
X132930000Y-77597500D01*
X132929169Y-77614408D01*
X132926685Y-77631153D01*
X132922572Y-77647574D01*
X132916869Y-77663513D01*
X132909631Y-77678816D01*
X132900929Y-77693336D01*
X132890844Y-77706933D01*
X132879476Y-77719476D01*
X132866933Y-77730844D01*
X132853336Y-77740929D01*
X132838816Y-77749631D01*
X132823513Y-77756869D01*
X132807574Y-77762572D01*
X132791153Y-77766685D01*
X132774408Y-77769169D01*
X132757500Y-77770000D01*
X132412500Y-77770000D01*
X132395592Y-77769169D01*
X132378847Y-77766685D01*
X132362426Y-77762572D01*
X132346487Y-77756869D01*
X132331184Y-77749631D01*
X132316664Y-77740929D01*
X132303067Y-77730844D01*
X132290524Y-77719476D01*
X132279156Y-77706933D01*
X132269071Y-77693336D01*
X132260369Y-77678816D01*
X132253131Y-77663513D01*
X132247428Y-77647574D01*
X132243315Y-77631153D01*
X132240831Y-77614408D01*
X132240000Y-77597500D01*
X132240000Y-77202500D01*
X132240831Y-77185592D01*
X132243315Y-77168847D01*
X132247428Y-77152426D01*
X132253131Y-77136487D01*
X132260369Y-77121184D01*
X132269071Y-77106664D01*
X132279156Y-77093067D01*
X132290524Y-77080524D01*
X132303067Y-77069156D01*
X132316664Y-77059071D01*
X132331184Y-77050369D01*
X132346487Y-77043131D01*
X132362426Y-77037428D01*
X132378847Y-77033315D01*
X132395592Y-77030831D01*
X132412500Y-77030000D01*
X132757500Y-77030000D01*
X132774408Y-77030831D01*
G37*
G36*
X126674408Y-75030831D02*
G01*
X126691153Y-75033315D01*
X126707574Y-75037428D01*
X126723513Y-75043131D01*
X126738816Y-75050369D01*
X126753336Y-75059071D01*
X126766933Y-75069156D01*
X126779476Y-75080524D01*
X126790844Y-75093067D01*
X126800929Y-75106664D01*
X126809631Y-75121184D01*
X126816869Y-75136487D01*
X126822572Y-75152426D01*
X126826685Y-75168847D01*
X126829169Y-75185592D01*
X126830000Y-75202500D01*
X126830000Y-75597500D01*
X126829169Y-75614408D01*
X126826685Y-75631153D01*
X126822572Y-75647574D01*
X126816869Y-75663513D01*
X126809631Y-75678816D01*
X126800929Y-75693336D01*
X126790844Y-75706933D01*
X126779476Y-75719476D01*
X126766933Y-75730844D01*
X126753336Y-75740929D01*
X126738816Y-75749631D01*
X126723513Y-75756869D01*
X126707574Y-75762572D01*
X126691153Y-75766685D01*
X126674408Y-75769169D01*
X126657500Y-75770000D01*
X126312500Y-75770000D01*
X126295592Y-75769169D01*
X126278847Y-75766685D01*
X126262426Y-75762572D01*
X126246487Y-75756869D01*
X126231184Y-75749631D01*
X126216664Y-75740929D01*
X126203067Y-75730844D01*
X126190524Y-75719476D01*
X126179156Y-75706933D01*
X126169071Y-75693336D01*
X126160369Y-75678816D01*
X126153131Y-75663513D01*
X126147428Y-75647574D01*
X126143315Y-75631153D01*
X126140831Y-75614408D01*
X126140000Y-75597500D01*
X126140000Y-75202500D01*
X126140831Y-75185592D01*
X126143315Y-75168847D01*
X126147428Y-75152426D01*
X126153131Y-75136487D01*
X126160369Y-75121184D01*
X126169071Y-75106664D01*
X126179156Y-75093067D01*
X126190524Y-75080524D01*
X126203067Y-75069156D01*
X126216664Y-75059071D01*
X126231184Y-75050369D01*
X126246487Y-75043131D01*
X126262426Y-75037428D01*
X126278847Y-75033315D01*
X126295592Y-75030831D01*
X126312500Y-75030000D01*
X126657500Y-75030000D01*
X126674408Y-75030831D01*
G37*
G36*
X125704408Y-75030831D02*
G01*
X125721153Y-75033315D01*
X125737574Y-75037428D01*
X125753513Y-75043131D01*
X125768816Y-75050369D01*
X125783336Y-75059071D01*
X125796933Y-75069156D01*
X125809476Y-75080524D01*
X125820844Y-75093067D01*
X125830929Y-75106664D01*
X125839631Y-75121184D01*
X125846869Y-75136487D01*
X125852572Y-75152426D01*
X125856685Y-75168847D01*
X125859169Y-75185592D01*
X125860000Y-75202500D01*
X125860000Y-75597500D01*
X125859169Y-75614408D01*
X125856685Y-75631153D01*
X125852572Y-75647574D01*
X125846869Y-75663513D01*
X125839631Y-75678816D01*
X125830929Y-75693336D01*
X125820844Y-75706933D01*
X125809476Y-75719476D01*
X125796933Y-75730844D01*
X125783336Y-75740929D01*
X125768816Y-75749631D01*
X125753513Y-75756869D01*
X125737574Y-75762572D01*
X125721153Y-75766685D01*
X125704408Y-75769169D01*
X125687500Y-75770000D01*
X125342500Y-75770000D01*
X125325592Y-75769169D01*
X125308847Y-75766685D01*
X125292426Y-75762572D01*
X125276487Y-75756869D01*
X125261184Y-75749631D01*
X125246664Y-75740929D01*
X125233067Y-75730844D01*
X125220524Y-75719476D01*
X125209156Y-75706933D01*
X125199071Y-75693336D01*
X125190369Y-75678816D01*
X125183131Y-75663513D01*
X125177428Y-75647574D01*
X125173315Y-75631153D01*
X125170831Y-75614408D01*
X125170000Y-75597500D01*
X125170000Y-75202500D01*
X125170831Y-75185592D01*
X125173315Y-75168847D01*
X125177428Y-75152426D01*
X125183131Y-75136487D01*
X125190369Y-75121184D01*
X125199071Y-75106664D01*
X125209156Y-75093067D01*
X125220524Y-75080524D01*
X125233067Y-75069156D01*
X125246664Y-75059071D01*
X125261184Y-75050369D01*
X125276487Y-75043131D01*
X125292426Y-75037428D01*
X125308847Y-75033315D01*
X125325592Y-75030831D01*
X125342500Y-75030000D01*
X125687500Y-75030000D01*
X125704408Y-75030831D01*
G37*
G36*
X125704408Y-74080831D02*
G01*
X125721153Y-74083315D01*
X125737574Y-74087428D01*
X125753513Y-74093131D01*
X125768816Y-74100369D01*
X125783336Y-74109071D01*
X125796933Y-74119156D01*
X125809476Y-74130524D01*
X125820844Y-74143067D01*
X125830929Y-74156664D01*
X125839631Y-74171184D01*
X125846869Y-74186487D01*
X125852572Y-74202426D01*
X125856685Y-74218847D01*
X125859169Y-74235592D01*
X125860000Y-74252500D01*
X125860000Y-74647500D01*
X125859169Y-74664408D01*
X125856685Y-74681153D01*
X125852572Y-74697574D01*
X125846869Y-74713513D01*
X125839631Y-74728816D01*
X125830929Y-74743336D01*
X125820844Y-74756933D01*
X125809476Y-74769476D01*
X125796933Y-74780844D01*
X125783336Y-74790929D01*
X125768816Y-74799631D01*
X125753513Y-74806869D01*
X125737574Y-74812572D01*
X125721153Y-74816685D01*
X125704408Y-74819169D01*
X125687500Y-74820000D01*
X125342500Y-74820000D01*
X125325592Y-74819169D01*
X125308847Y-74816685D01*
X125292426Y-74812572D01*
X125276487Y-74806869D01*
X125261184Y-74799631D01*
X125246664Y-74790929D01*
X125233067Y-74780844D01*
X125220524Y-74769476D01*
X125209156Y-74756933D01*
X125199071Y-74743336D01*
X125190369Y-74728816D01*
X125183131Y-74713513D01*
X125177428Y-74697574D01*
X125173315Y-74681153D01*
X125170831Y-74664408D01*
X125170000Y-74647500D01*
X125170000Y-74252500D01*
X125170831Y-74235592D01*
X125173315Y-74218847D01*
X125177428Y-74202426D01*
X125183131Y-74186487D01*
X125190369Y-74171184D01*
X125199071Y-74156664D01*
X125209156Y-74143067D01*
X125220524Y-74130524D01*
X125233067Y-74119156D01*
X125246664Y-74109071D01*
X125261184Y-74100369D01*
X125276487Y-74093131D01*
X125292426Y-74087428D01*
X125308847Y-74083315D01*
X125325592Y-74080831D01*
X125342500Y-74080000D01*
X125687500Y-74080000D01*
X125704408Y-74080831D01*
G37*
G36*
X126674408Y-74080831D02*
G01*
X126691153Y-74083315D01*
X126707574Y-74087428D01*
X126723513Y-74093131D01*
X126738816Y-74100369D01*
X126753336Y-74109071D01*
X126766933Y-74119156D01*
X126779476Y-74130524D01*
X126790844Y-74143067D01*
X126800929Y-74156664D01*
X126809631Y-74171184D01*
X126816869Y-74186487D01*
X126822572Y-74202426D01*
X126826685Y-74218847D01*
X126829169Y-74235592D01*
X126830000Y-74252500D01*
X126830000Y-74647500D01*
X126829169Y-74664408D01*
X126826685Y-74681153D01*
X126822572Y-74697574D01*
X126816869Y-74713513D01*
X126809631Y-74728816D01*
X126800929Y-74743336D01*
X126790844Y-74756933D01*
X126779476Y-74769476D01*
X126766933Y-74780844D01*
X126753336Y-74790929D01*
X126738816Y-74799631D01*
X126723513Y-74806869D01*
X126707574Y-74812572D01*
X126691153Y-74816685D01*
X126674408Y-74819169D01*
X126657500Y-74820000D01*
X126312500Y-74820000D01*
X126295592Y-74819169D01*
X126278847Y-74816685D01*
X126262426Y-74812572D01*
X126246487Y-74806869D01*
X126231184Y-74799631D01*
X126216664Y-74790929D01*
X126203067Y-74780844D01*
X126190524Y-74769476D01*
X126179156Y-74756933D01*
X126169071Y-74743336D01*
X126160369Y-74728816D01*
X126153131Y-74713513D01*
X126147428Y-74697574D01*
X126143315Y-74681153D01*
X126140831Y-74664408D01*
X126140000Y-74647500D01*
X126140000Y-74252500D01*
X126140831Y-74235592D01*
X126143315Y-74218847D01*
X126147428Y-74202426D01*
X126153131Y-74186487D01*
X126160369Y-74171184D01*
X126169071Y-74156664D01*
X126179156Y-74143067D01*
X126190524Y-74130524D01*
X126203067Y-74119156D01*
X126216664Y-74109071D01*
X126231184Y-74100369D01*
X126246487Y-74093131D01*
X126262426Y-74087428D01*
X126278847Y-74083315D01*
X126295592Y-74080831D01*
X126312500Y-74080000D01*
X126657500Y-74080000D01*
X126674408Y-74080831D01*
G37*
G36*
X122654408Y-68090831D02*
G01*
X122671153Y-68093315D01*
X122687574Y-68097428D01*
X122703513Y-68103131D01*
X122718816Y-68110369D01*
X122733336Y-68119071D01*
X122746933Y-68129156D01*
X122759476Y-68140524D01*
X122770844Y-68153067D01*
X122780929Y-68166664D01*
X122789631Y-68181184D01*
X122796869Y-68196487D01*
X122802572Y-68212426D01*
X122806685Y-68228847D01*
X122809169Y-68245592D01*
X122810000Y-68262500D01*
X122810000Y-68657500D01*
X122809169Y-68674408D01*
X122806685Y-68691153D01*
X122802572Y-68707574D01*
X122796869Y-68723513D01*
X122789631Y-68738816D01*
X122780929Y-68753336D01*
X122770844Y-68766933D01*
X122759476Y-68779476D01*
X122746933Y-68790844D01*
X122733336Y-68800929D01*
X122718816Y-68809631D01*
X122703513Y-68816869D01*
X122687574Y-68822572D01*
X122671153Y-68826685D01*
X122654408Y-68829169D01*
X122637500Y-68830000D01*
X122292500Y-68830000D01*
X122275592Y-68829169D01*
X122258847Y-68826685D01*
X122242426Y-68822572D01*
X122226487Y-68816869D01*
X122211184Y-68809631D01*
X122196664Y-68800929D01*
X122183067Y-68790844D01*
X122170524Y-68779476D01*
X122159156Y-68766933D01*
X122149071Y-68753336D01*
X122140369Y-68738816D01*
X122133131Y-68723513D01*
X122127428Y-68707574D01*
X122123315Y-68691153D01*
X122120831Y-68674408D01*
X122120000Y-68657500D01*
X122120000Y-68262500D01*
X122120831Y-68245592D01*
X122123315Y-68228847D01*
X122127428Y-68212426D01*
X122133131Y-68196487D01*
X122140369Y-68181184D01*
X122149071Y-68166664D01*
X122159156Y-68153067D01*
X122170524Y-68140524D01*
X122183067Y-68129156D01*
X122196664Y-68119071D01*
X122211184Y-68110369D01*
X122226487Y-68103131D01*
X122242426Y-68097428D01*
X122258847Y-68093315D01*
X122275592Y-68090831D01*
X122292500Y-68090000D01*
X122637500Y-68090000D01*
X122654408Y-68090831D01*
G37*
G36*
X123624408Y-68090831D02*
G01*
X123641153Y-68093315D01*
X123657574Y-68097428D01*
X123673513Y-68103131D01*
X123688816Y-68110369D01*
X123703336Y-68119071D01*
X123716933Y-68129156D01*
X123729476Y-68140524D01*
X123740844Y-68153067D01*
X123750929Y-68166664D01*
X123759631Y-68181184D01*
X123766869Y-68196487D01*
X123772572Y-68212426D01*
X123776685Y-68228847D01*
X123779169Y-68245592D01*
X123780000Y-68262500D01*
X123780000Y-68657500D01*
X123779169Y-68674408D01*
X123776685Y-68691153D01*
X123772572Y-68707574D01*
X123766869Y-68723513D01*
X123759631Y-68738816D01*
X123750929Y-68753336D01*
X123740844Y-68766933D01*
X123729476Y-68779476D01*
X123716933Y-68790844D01*
X123703336Y-68800929D01*
X123688816Y-68809631D01*
X123673513Y-68816869D01*
X123657574Y-68822572D01*
X123641153Y-68826685D01*
X123624408Y-68829169D01*
X123607500Y-68830000D01*
X123262500Y-68830000D01*
X123245592Y-68829169D01*
X123228847Y-68826685D01*
X123212426Y-68822572D01*
X123196487Y-68816869D01*
X123181184Y-68809631D01*
X123166664Y-68800929D01*
X123153067Y-68790844D01*
X123140524Y-68779476D01*
X123129156Y-68766933D01*
X123119071Y-68753336D01*
X123110369Y-68738816D01*
X123103131Y-68723513D01*
X123097428Y-68707574D01*
X123093315Y-68691153D01*
X123090831Y-68674408D01*
X123090000Y-68657500D01*
X123090000Y-68262500D01*
X123090831Y-68245592D01*
X123093315Y-68228847D01*
X123097428Y-68212426D01*
X123103131Y-68196487D01*
X123110369Y-68181184D01*
X123119071Y-68166664D01*
X123129156Y-68153067D01*
X123140524Y-68140524D01*
X123153067Y-68129156D01*
X123166664Y-68119071D01*
X123181184Y-68110369D01*
X123196487Y-68103131D01*
X123212426Y-68097428D01*
X123228847Y-68093315D01*
X123245592Y-68090831D01*
X123262500Y-68090000D01*
X123607500Y-68090000D01*
X123624408Y-68090831D01*
G37*
G36*
X126264408Y-68120831D02*
G01*
X126281153Y-68123315D01*
X126297574Y-68127428D01*
X126313513Y-68133131D01*
X126328816Y-68140369D01*
X126343336Y-68149071D01*
X126356933Y-68159156D01*
X126369476Y-68170524D01*
X126380844Y-68183067D01*
X126390929Y-68196664D01*
X126399631Y-68211184D01*
X126406869Y-68226487D01*
X126412572Y-68242426D01*
X126416685Y-68258847D01*
X126419169Y-68275592D01*
X126420000Y-68292500D01*
X126420000Y-68637500D01*
X126419169Y-68654408D01*
X126416685Y-68671153D01*
X126412572Y-68687574D01*
X126406869Y-68703513D01*
X126399631Y-68718816D01*
X126390929Y-68733336D01*
X126380844Y-68746933D01*
X126369476Y-68759476D01*
X126356933Y-68770844D01*
X126343336Y-68780929D01*
X126328816Y-68789631D01*
X126313513Y-68796869D01*
X126297574Y-68802572D01*
X126281153Y-68806685D01*
X126264408Y-68809169D01*
X126247500Y-68810000D01*
X125852500Y-68810000D01*
X125835592Y-68809169D01*
X125818847Y-68806685D01*
X125802426Y-68802572D01*
X125786487Y-68796869D01*
X125771184Y-68789631D01*
X125756664Y-68780929D01*
X125743067Y-68770844D01*
X125730524Y-68759476D01*
X125719156Y-68746933D01*
X125709071Y-68733336D01*
X125700369Y-68718816D01*
X125693131Y-68703513D01*
X125687428Y-68687574D01*
X125683315Y-68671153D01*
X125680831Y-68654408D01*
X125680000Y-68637500D01*
X125680000Y-68292500D01*
X125680831Y-68275592D01*
X125683315Y-68258847D01*
X125687428Y-68242426D01*
X125693131Y-68226487D01*
X125700369Y-68211184D01*
X125709071Y-68196664D01*
X125719156Y-68183067D01*
X125730524Y-68170524D01*
X125743067Y-68159156D01*
X125756664Y-68149071D01*
X125771184Y-68140369D01*
X125786487Y-68133131D01*
X125802426Y-68127428D01*
X125818847Y-68123315D01*
X125835592Y-68120831D01*
X125852500Y-68120000D01*
X126247500Y-68120000D01*
X126264408Y-68120831D01*
G37*
G36*
X126264408Y-67150831D02*
G01*
X126281153Y-67153315D01*
X126297574Y-67157428D01*
X126313513Y-67163131D01*
X126328816Y-67170369D01*
X126343336Y-67179071D01*
X126356933Y-67189156D01*
X126369476Y-67200524D01*
X126380844Y-67213067D01*
X126390929Y-67226664D01*
X126399631Y-67241184D01*
X126406869Y-67256487D01*
X126412572Y-67272426D01*
X126416685Y-67288847D01*
X126419169Y-67305592D01*
X126420000Y-67322500D01*
X126420000Y-67667500D01*
X126419169Y-67684408D01*
X126416685Y-67701153D01*
X126412572Y-67717574D01*
X126406869Y-67733513D01*
X126399631Y-67748816D01*
X126390929Y-67763336D01*
X126380844Y-67776933D01*
X126369476Y-67789476D01*
X126356933Y-67800844D01*
X126343336Y-67810929D01*
X126328816Y-67819631D01*
X126313513Y-67826869D01*
X126297574Y-67832572D01*
X126281153Y-67836685D01*
X126264408Y-67839169D01*
X126247500Y-67840000D01*
X125852500Y-67840000D01*
X125835592Y-67839169D01*
X125818847Y-67836685D01*
X125802426Y-67832572D01*
X125786487Y-67826869D01*
X125771184Y-67819631D01*
X125756664Y-67810929D01*
X125743067Y-67800844D01*
X125730524Y-67789476D01*
X125719156Y-67776933D01*
X125709071Y-67763336D01*
X125700369Y-67748816D01*
X125693131Y-67733513D01*
X125687428Y-67717574D01*
X125683315Y-67701153D01*
X125680831Y-67684408D01*
X125680000Y-67667500D01*
X125680000Y-67322500D01*
X125680831Y-67305592D01*
X125683315Y-67288847D01*
X125687428Y-67272426D01*
X125693131Y-67256487D01*
X125700369Y-67241184D01*
X125709071Y-67226664D01*
X125719156Y-67213067D01*
X125730524Y-67200524D01*
X125743067Y-67189156D01*
X125756664Y-67179071D01*
X125771184Y-67170369D01*
X125786487Y-67163131D01*
X125802426Y-67157428D01*
X125818847Y-67153315D01*
X125835592Y-67150831D01*
X125852500Y-67150000D01*
X126247500Y-67150000D01*
X126264408Y-67150831D01*
G37*
G36*
X123774408Y-67150831D02*
G01*
X123791153Y-67153315D01*
X123807574Y-67157428D01*
X123823513Y-67163131D01*
X123838816Y-67170369D01*
X123853336Y-67179071D01*
X123866933Y-67189156D01*
X123879476Y-67200524D01*
X123890844Y-67213067D01*
X123900929Y-67226664D01*
X123909631Y-67241184D01*
X123916869Y-67256487D01*
X123922572Y-67272426D01*
X123926685Y-67288847D01*
X123929169Y-67305592D01*
X123930000Y-67322500D01*
X123930000Y-67717500D01*
X123929169Y-67734408D01*
X123926685Y-67751153D01*
X123922572Y-67767574D01*
X123916869Y-67783513D01*
X123909631Y-67798816D01*
X123900929Y-67813336D01*
X123890844Y-67826933D01*
X123879476Y-67839476D01*
X123866933Y-67850844D01*
X123853336Y-67860929D01*
X123838816Y-67869631D01*
X123823513Y-67876869D01*
X123807574Y-67882572D01*
X123791153Y-67886685D01*
X123774408Y-67889169D01*
X123757500Y-67890000D01*
X123412500Y-67890000D01*
X123395592Y-67889169D01*
X123378847Y-67886685D01*
X123362426Y-67882572D01*
X123346487Y-67876869D01*
X123331184Y-67869631D01*
X123316664Y-67860929D01*
X123303067Y-67850844D01*
X123290524Y-67839476D01*
X123279156Y-67826933D01*
X123269071Y-67813336D01*
X123260369Y-67798816D01*
X123253131Y-67783513D01*
X123247428Y-67767574D01*
X123243315Y-67751153D01*
X123240831Y-67734408D01*
X123240000Y-67717500D01*
X123240000Y-67322500D01*
X123240831Y-67305592D01*
X123243315Y-67288847D01*
X123247428Y-67272426D01*
X123253131Y-67256487D01*
X123260369Y-67241184D01*
X123269071Y-67226664D01*
X123279156Y-67213067D01*
X123290524Y-67200524D01*
X123303067Y-67189156D01*
X123316664Y-67179071D01*
X123331184Y-67170369D01*
X123346487Y-67163131D01*
X123362426Y-67157428D01*
X123378847Y-67153315D01*
X123395592Y-67150831D01*
X123412500Y-67150000D01*
X123757500Y-67150000D01*
X123774408Y-67150831D01*
G37*
G36*
X122804408Y-67150831D02*
G01*
X122821153Y-67153315D01*
X122837574Y-67157428D01*
X122853513Y-67163131D01*
X122868816Y-67170369D01*
X122883336Y-67179071D01*
X122896933Y-67189156D01*
X122909476Y-67200524D01*
X122920844Y-67213067D01*
X122930929Y-67226664D01*
X122939631Y-67241184D01*
X122946869Y-67256487D01*
X122952572Y-67272426D01*
X122956685Y-67288847D01*
X122959169Y-67305592D01*
X122960000Y-67322500D01*
X122960000Y-67717500D01*
X122959169Y-67734408D01*
X122956685Y-67751153D01*
X122952572Y-67767574D01*
X122946869Y-67783513D01*
X122939631Y-67798816D01*
X122930929Y-67813336D01*
X122920844Y-67826933D01*
X122909476Y-67839476D01*
X122896933Y-67850844D01*
X122883336Y-67860929D01*
X122868816Y-67869631D01*
X122853513Y-67876869D01*
X122837574Y-67882572D01*
X122821153Y-67886685D01*
X122804408Y-67889169D01*
X122787500Y-67890000D01*
X122442500Y-67890000D01*
X122425592Y-67889169D01*
X122408847Y-67886685D01*
X122392426Y-67882572D01*
X122376487Y-67876869D01*
X122361184Y-67869631D01*
X122346664Y-67860929D01*
X122333067Y-67850844D01*
X122320524Y-67839476D01*
X122309156Y-67826933D01*
X122299071Y-67813336D01*
X122290369Y-67798816D01*
X122283131Y-67783513D01*
X122277428Y-67767574D01*
X122273315Y-67751153D01*
X122270831Y-67734408D01*
X122270000Y-67717500D01*
X122270000Y-67322500D01*
X122270831Y-67305592D01*
X122273315Y-67288847D01*
X122277428Y-67272426D01*
X122283131Y-67256487D01*
X122290369Y-67241184D01*
X122299071Y-67226664D01*
X122309156Y-67213067D01*
X122320524Y-67200524D01*
X122333067Y-67189156D01*
X122346664Y-67179071D01*
X122361184Y-67170369D01*
X122376487Y-67163131D01*
X122392426Y-67157428D01*
X122408847Y-67153315D01*
X122425592Y-67150831D01*
X122442500Y-67150000D01*
X122787500Y-67150000D01*
X122804408Y-67150831D01*
G37*
G36*
X113644408Y-72240831D02*
G01*
X113661153Y-72243315D01*
X113677574Y-72247428D01*
X113693513Y-72253131D01*
X113708816Y-72260369D01*
X113723336Y-72269071D01*
X113736933Y-72279156D01*
X113749476Y-72290524D01*
X113760844Y-72303067D01*
X113770929Y-72316664D01*
X113779631Y-72331184D01*
X113786869Y-72346487D01*
X113792572Y-72362426D01*
X113796685Y-72378847D01*
X113799169Y-72395592D01*
X113800000Y-72412500D01*
X113800000Y-72807500D01*
X113799169Y-72824408D01*
X113796685Y-72841153D01*
X113792572Y-72857574D01*
X113786869Y-72873513D01*
X113779631Y-72888816D01*
X113770929Y-72903336D01*
X113760844Y-72916933D01*
X113749476Y-72929476D01*
X113736933Y-72940844D01*
X113723336Y-72950929D01*
X113708816Y-72959631D01*
X113693513Y-72966869D01*
X113677574Y-72972572D01*
X113661153Y-72976685D01*
X113644408Y-72979169D01*
X113627500Y-72980000D01*
X113282500Y-72980000D01*
X113265592Y-72979169D01*
X113248847Y-72976685D01*
X113232426Y-72972572D01*
X113216487Y-72966869D01*
X113201184Y-72959631D01*
X113186664Y-72950929D01*
X113173067Y-72940844D01*
X113160524Y-72929476D01*
X113149156Y-72916933D01*
X113139071Y-72903336D01*
X113130369Y-72888816D01*
X113123131Y-72873513D01*
X113117428Y-72857574D01*
X113113315Y-72841153D01*
X113110831Y-72824408D01*
X113110000Y-72807500D01*
X113110000Y-72412500D01*
X113110831Y-72395592D01*
X113113315Y-72378847D01*
X113117428Y-72362426D01*
X113123131Y-72346487D01*
X113130369Y-72331184D01*
X113139071Y-72316664D01*
X113149156Y-72303067D01*
X113160524Y-72290524D01*
X113173067Y-72279156D01*
X113186664Y-72269071D01*
X113201184Y-72260369D01*
X113216487Y-72253131D01*
X113232426Y-72247428D01*
X113248847Y-72243315D01*
X113265592Y-72240831D01*
X113282500Y-72240000D01*
X113627500Y-72240000D01*
X113644408Y-72240831D01*
G37*
G36*
X112674408Y-72240831D02*
G01*
X112691153Y-72243315D01*
X112707574Y-72247428D01*
X112723513Y-72253131D01*
X112738816Y-72260369D01*
X112753336Y-72269071D01*
X112766933Y-72279156D01*
X112779476Y-72290524D01*
X112790844Y-72303067D01*
X112800929Y-72316664D01*
X112809631Y-72331184D01*
X112816869Y-72346487D01*
X112822572Y-72362426D01*
X112826685Y-72378847D01*
X112829169Y-72395592D01*
X112830000Y-72412500D01*
X112830000Y-72807500D01*
X112829169Y-72824408D01*
X112826685Y-72841153D01*
X112822572Y-72857574D01*
X112816869Y-72873513D01*
X112809631Y-72888816D01*
X112800929Y-72903336D01*
X112790844Y-72916933D01*
X112779476Y-72929476D01*
X112766933Y-72940844D01*
X112753336Y-72950929D01*
X112738816Y-72959631D01*
X112723513Y-72966869D01*
X112707574Y-72972572D01*
X112691153Y-72976685D01*
X112674408Y-72979169D01*
X112657500Y-72980000D01*
X112312500Y-72980000D01*
X112295592Y-72979169D01*
X112278847Y-72976685D01*
X112262426Y-72972572D01*
X112246487Y-72966869D01*
X112231184Y-72959631D01*
X112216664Y-72950929D01*
X112203067Y-72940844D01*
X112190524Y-72929476D01*
X112179156Y-72916933D01*
X112169071Y-72903336D01*
X112160369Y-72888816D01*
X112153131Y-72873513D01*
X112147428Y-72857574D01*
X112143315Y-72841153D01*
X112140831Y-72824408D01*
X112140000Y-72807500D01*
X112140000Y-72412500D01*
X112140831Y-72395592D01*
X112143315Y-72378847D01*
X112147428Y-72362426D01*
X112153131Y-72346487D01*
X112160369Y-72331184D01*
X112169071Y-72316664D01*
X112179156Y-72303067D01*
X112190524Y-72290524D01*
X112203067Y-72279156D01*
X112216664Y-72269071D01*
X112231184Y-72260369D01*
X112246487Y-72253131D01*
X112262426Y-72247428D01*
X112278847Y-72243315D01*
X112295592Y-72240831D01*
X112312500Y-72240000D01*
X112657500Y-72240000D01*
X112674408Y-72240831D01*
G37*
D15*
X129040000Y-69500000D03*
X132040000Y-69500000D03*
D16*
X130540000Y-68025000D03*
X130540000Y-70975000D03*
X119520000Y-68025000D03*
X119520000Y-70975000D03*
D15*
X118020000Y-69500000D03*
X121020000Y-69500000D03*
D17*
X115975000Y-69500000D03*
X113025000Y-69500000D03*
D15*
X114500000Y-68000000D03*
X114500000Y-71000000D03*
D14*
G36*
X115614408Y-72110831D02*
G01*
X115631153Y-72113315D01*
X115647574Y-72117428D01*
X115663513Y-72123131D01*
X115678816Y-72130369D01*
X115693336Y-72139071D01*
X115706933Y-72149156D01*
X115719476Y-72160524D01*
X115730844Y-72173067D01*
X115740929Y-72186664D01*
X115749631Y-72201184D01*
X115756869Y-72216487D01*
X115762572Y-72232426D01*
X115766685Y-72248847D01*
X115769169Y-72265592D01*
X115770000Y-72282500D01*
X115770000Y-72677500D01*
X115769169Y-72694408D01*
X115766685Y-72711153D01*
X115762572Y-72727574D01*
X115756869Y-72743513D01*
X115749631Y-72758816D01*
X115740929Y-72773336D01*
X115730844Y-72786933D01*
X115719476Y-72799476D01*
X115706933Y-72810844D01*
X115693336Y-72820929D01*
X115678816Y-72829631D01*
X115663513Y-72836869D01*
X115647574Y-72842572D01*
X115631153Y-72846685D01*
X115614408Y-72849169D01*
X115597500Y-72850000D01*
X115252500Y-72850000D01*
X115235592Y-72849169D01*
X115218847Y-72846685D01*
X115202426Y-72842572D01*
X115186487Y-72836869D01*
X115171184Y-72829631D01*
X115156664Y-72820929D01*
X115143067Y-72810844D01*
X115130524Y-72799476D01*
X115119156Y-72786933D01*
X115109071Y-72773336D01*
X115100369Y-72758816D01*
X115093131Y-72743513D01*
X115087428Y-72727574D01*
X115083315Y-72711153D01*
X115080831Y-72694408D01*
X115080000Y-72677500D01*
X115080000Y-72282500D01*
X115080831Y-72265592D01*
X115083315Y-72248847D01*
X115087428Y-72232426D01*
X115093131Y-72216487D01*
X115100369Y-72201184D01*
X115109071Y-72186664D01*
X115119156Y-72173067D01*
X115130524Y-72160524D01*
X115143067Y-72149156D01*
X115156664Y-72139071D01*
X115171184Y-72130369D01*
X115186487Y-72123131D01*
X115202426Y-72117428D01*
X115218847Y-72113315D01*
X115235592Y-72110831D01*
X115252500Y-72110000D01*
X115597500Y-72110000D01*
X115614408Y-72110831D01*
G37*
G36*
X114644408Y-72110831D02*
G01*
X114661153Y-72113315D01*
X114677574Y-72117428D01*
X114693513Y-72123131D01*
X114708816Y-72130369D01*
X114723336Y-72139071D01*
X114736933Y-72149156D01*
X114749476Y-72160524D01*
X114760844Y-72173067D01*
X114770929Y-72186664D01*
X114779631Y-72201184D01*
X114786869Y-72216487D01*
X114792572Y-72232426D01*
X114796685Y-72248847D01*
X114799169Y-72265592D01*
X114800000Y-72282500D01*
X114800000Y-72677500D01*
X114799169Y-72694408D01*
X114796685Y-72711153D01*
X114792572Y-72727574D01*
X114786869Y-72743513D01*
X114779631Y-72758816D01*
X114770929Y-72773336D01*
X114760844Y-72786933D01*
X114749476Y-72799476D01*
X114736933Y-72810844D01*
X114723336Y-72820929D01*
X114708816Y-72829631D01*
X114693513Y-72836869D01*
X114677574Y-72842572D01*
X114661153Y-72846685D01*
X114644408Y-72849169D01*
X114627500Y-72850000D01*
X114282500Y-72850000D01*
X114265592Y-72849169D01*
X114248847Y-72846685D01*
X114232426Y-72842572D01*
X114216487Y-72836869D01*
X114201184Y-72829631D01*
X114186664Y-72820929D01*
X114173067Y-72810844D01*
X114160524Y-72799476D01*
X114149156Y-72786933D01*
X114139071Y-72773336D01*
X114130369Y-72758816D01*
X114123131Y-72743513D01*
X114117428Y-72727574D01*
X114113315Y-72711153D01*
X114110831Y-72694408D01*
X114110000Y-72677500D01*
X114110000Y-72282500D01*
X114110831Y-72265592D01*
X114113315Y-72248847D01*
X114117428Y-72232426D01*
X114123131Y-72216487D01*
X114130369Y-72201184D01*
X114139071Y-72186664D01*
X114149156Y-72173067D01*
X114160524Y-72160524D01*
X114173067Y-72149156D01*
X114186664Y-72139071D01*
X114201184Y-72130369D01*
X114216487Y-72123131D01*
X114232426Y-72117428D01*
X114248847Y-72113315D01*
X114265592Y-72110831D01*
X114282500Y-72110000D01*
X114627500Y-72110000D01*
X114644408Y-72110831D01*
G37*
G36*
X125664408Y-69250831D02*
G01*
X125681153Y-69253315D01*
X125697574Y-69257428D01*
X125713513Y-69263131D01*
X125728816Y-69270369D01*
X125743336Y-69279071D01*
X125756933Y-69289156D01*
X125769476Y-69300524D01*
X125780844Y-69313067D01*
X125790929Y-69326664D01*
X125799631Y-69341184D01*
X125806869Y-69356487D01*
X125812572Y-69372426D01*
X125816685Y-69388847D01*
X125819169Y-69405592D01*
X125820000Y-69422500D01*
X125820000Y-69817500D01*
X125819169Y-69834408D01*
X125816685Y-69851153D01*
X125812572Y-69867574D01*
X125806869Y-69883513D01*
X125799631Y-69898816D01*
X125790929Y-69913336D01*
X125780844Y-69926933D01*
X125769476Y-69939476D01*
X125756933Y-69950844D01*
X125743336Y-69960929D01*
X125728816Y-69969631D01*
X125713513Y-69976869D01*
X125697574Y-69982572D01*
X125681153Y-69986685D01*
X125664408Y-69989169D01*
X125647500Y-69990000D01*
X125302500Y-69990000D01*
X125285592Y-69989169D01*
X125268847Y-69986685D01*
X125252426Y-69982572D01*
X125236487Y-69976869D01*
X125221184Y-69969631D01*
X125206664Y-69960929D01*
X125193067Y-69950844D01*
X125180524Y-69939476D01*
X125169156Y-69926933D01*
X125159071Y-69913336D01*
X125150369Y-69898816D01*
X125143131Y-69883513D01*
X125137428Y-69867574D01*
X125133315Y-69851153D01*
X125130831Y-69834408D01*
X125130000Y-69817500D01*
X125130000Y-69422500D01*
X125130831Y-69405592D01*
X125133315Y-69388847D01*
X125137428Y-69372426D01*
X125143131Y-69356487D01*
X125150369Y-69341184D01*
X125159071Y-69326664D01*
X125169156Y-69313067D01*
X125180524Y-69300524D01*
X125193067Y-69289156D01*
X125206664Y-69279071D01*
X125221184Y-69270369D01*
X125236487Y-69263131D01*
X125252426Y-69257428D01*
X125268847Y-69253315D01*
X125285592Y-69250831D01*
X125302500Y-69250000D01*
X125647500Y-69250000D01*
X125664408Y-69250831D01*
G37*
G36*
X124694408Y-69250831D02*
G01*
X124711153Y-69253315D01*
X124727574Y-69257428D01*
X124743513Y-69263131D01*
X124758816Y-69270369D01*
X124773336Y-69279071D01*
X124786933Y-69289156D01*
X124799476Y-69300524D01*
X124810844Y-69313067D01*
X124820929Y-69326664D01*
X124829631Y-69341184D01*
X124836869Y-69356487D01*
X124842572Y-69372426D01*
X124846685Y-69388847D01*
X124849169Y-69405592D01*
X124850000Y-69422500D01*
X124850000Y-69817500D01*
X124849169Y-69834408D01*
X124846685Y-69851153D01*
X124842572Y-69867574D01*
X124836869Y-69883513D01*
X124829631Y-69898816D01*
X124820929Y-69913336D01*
X124810844Y-69926933D01*
X124799476Y-69939476D01*
X124786933Y-69950844D01*
X124773336Y-69960929D01*
X124758816Y-69969631D01*
X124743513Y-69976869D01*
X124727574Y-69982572D01*
X124711153Y-69986685D01*
X124694408Y-69989169D01*
X124677500Y-69990000D01*
X124332500Y-69990000D01*
X124315592Y-69989169D01*
X124298847Y-69986685D01*
X124282426Y-69982572D01*
X124266487Y-69976869D01*
X124251184Y-69969631D01*
X124236664Y-69960929D01*
X124223067Y-69950844D01*
X124210524Y-69939476D01*
X124199156Y-69926933D01*
X124189071Y-69913336D01*
X124180369Y-69898816D01*
X124173131Y-69883513D01*
X124167428Y-69867574D01*
X124163315Y-69851153D01*
X124160831Y-69834408D01*
X124160000Y-69817500D01*
X124160000Y-69422500D01*
X124160831Y-69405592D01*
X124163315Y-69388847D01*
X124167428Y-69372426D01*
X124173131Y-69356487D01*
X124180369Y-69341184D01*
X124189071Y-69326664D01*
X124199156Y-69313067D01*
X124210524Y-69300524D01*
X124223067Y-69289156D01*
X124236664Y-69279071D01*
X124251184Y-69270369D01*
X124266487Y-69263131D01*
X124282426Y-69257428D01*
X124298847Y-69253315D01*
X124315592Y-69250831D01*
X124332500Y-69250000D01*
X124677500Y-69250000D01*
X124694408Y-69250831D01*
G37*
G36*
X125324408Y-67150831D02*
G01*
X125341153Y-67153315D01*
X125357574Y-67157428D01*
X125373513Y-67163131D01*
X125388816Y-67170369D01*
X125403336Y-67179071D01*
X125416933Y-67189156D01*
X125429476Y-67200524D01*
X125440844Y-67213067D01*
X125450929Y-67226664D01*
X125459631Y-67241184D01*
X125466869Y-67256487D01*
X125472572Y-67272426D01*
X125476685Y-67288847D01*
X125479169Y-67305592D01*
X125480000Y-67322500D01*
X125480000Y-67667500D01*
X125479169Y-67684408D01*
X125476685Y-67701153D01*
X125472572Y-67717574D01*
X125466869Y-67733513D01*
X125459631Y-67748816D01*
X125450929Y-67763336D01*
X125440844Y-67776933D01*
X125429476Y-67789476D01*
X125416933Y-67800844D01*
X125403336Y-67810929D01*
X125388816Y-67819631D01*
X125373513Y-67826869D01*
X125357574Y-67832572D01*
X125341153Y-67836685D01*
X125324408Y-67839169D01*
X125307500Y-67840000D01*
X124912500Y-67840000D01*
X124895592Y-67839169D01*
X124878847Y-67836685D01*
X124862426Y-67832572D01*
X124846487Y-67826869D01*
X124831184Y-67819631D01*
X124816664Y-67810929D01*
X124803067Y-67800844D01*
X124790524Y-67789476D01*
X124779156Y-67776933D01*
X124769071Y-67763336D01*
X124760369Y-67748816D01*
X124753131Y-67733513D01*
X124747428Y-67717574D01*
X124743315Y-67701153D01*
X124740831Y-67684408D01*
X124740000Y-67667500D01*
X124740000Y-67322500D01*
X124740831Y-67305592D01*
X124743315Y-67288847D01*
X124747428Y-67272426D01*
X124753131Y-67256487D01*
X124760369Y-67241184D01*
X124769071Y-67226664D01*
X124779156Y-67213067D01*
X124790524Y-67200524D01*
X124803067Y-67189156D01*
X124816664Y-67179071D01*
X124831184Y-67170369D01*
X124846487Y-67163131D01*
X124862426Y-67157428D01*
X124878847Y-67153315D01*
X124895592Y-67150831D01*
X124912500Y-67150000D01*
X125307500Y-67150000D01*
X125324408Y-67150831D01*
G37*
G36*
X125324408Y-68120831D02*
G01*
X125341153Y-68123315D01*
X125357574Y-68127428D01*
X125373513Y-68133131D01*
X125388816Y-68140369D01*
X125403336Y-68149071D01*
X125416933Y-68159156D01*
X125429476Y-68170524D01*
X125440844Y-68183067D01*
X125450929Y-68196664D01*
X125459631Y-68211184D01*
X125466869Y-68226487D01*
X125472572Y-68242426D01*
X125476685Y-68258847D01*
X125479169Y-68275592D01*
X125480000Y-68292500D01*
X125480000Y-68637500D01*
X125479169Y-68654408D01*
X125476685Y-68671153D01*
X125472572Y-68687574D01*
X125466869Y-68703513D01*
X125459631Y-68718816D01*
X125450929Y-68733336D01*
X125440844Y-68746933D01*
X125429476Y-68759476D01*
X125416933Y-68770844D01*
X125403336Y-68780929D01*
X125388816Y-68789631D01*
X125373513Y-68796869D01*
X125357574Y-68802572D01*
X125341153Y-68806685D01*
X125324408Y-68809169D01*
X125307500Y-68810000D01*
X124912500Y-68810000D01*
X124895592Y-68809169D01*
X124878847Y-68806685D01*
X124862426Y-68802572D01*
X124846487Y-68796869D01*
X124831184Y-68789631D01*
X124816664Y-68780929D01*
X124803067Y-68770844D01*
X124790524Y-68759476D01*
X124779156Y-68746933D01*
X124769071Y-68733336D01*
X124760369Y-68718816D01*
X124753131Y-68703513D01*
X124747428Y-68687574D01*
X124743315Y-68671153D01*
X124740831Y-68654408D01*
X124740000Y-68637500D01*
X124740000Y-68292500D01*
X124740831Y-68275592D01*
X124743315Y-68258847D01*
X124747428Y-68242426D01*
X124753131Y-68226487D01*
X124760369Y-68211184D01*
X124769071Y-68196664D01*
X124779156Y-68183067D01*
X124790524Y-68170524D01*
X124803067Y-68159156D01*
X124816664Y-68149071D01*
X124831184Y-68140369D01*
X124846487Y-68133131D01*
X124862426Y-68127428D01*
X124878847Y-68123315D01*
X124895592Y-68120831D01*
X124912500Y-68120000D01*
X125307500Y-68120000D01*
X125324408Y-68120831D01*
G37*
G36*
X122654408Y-69460831D02*
G01*
X122671153Y-69463315D01*
X122687574Y-69467428D01*
X122703513Y-69473131D01*
X122718816Y-69480369D01*
X122733336Y-69489071D01*
X122746933Y-69499156D01*
X122759476Y-69510524D01*
X122770844Y-69523067D01*
X122780929Y-69536664D01*
X122789631Y-69551184D01*
X122796869Y-69566487D01*
X122802572Y-69582426D01*
X122806685Y-69598847D01*
X122809169Y-69615592D01*
X122810000Y-69632500D01*
X122810000Y-70027500D01*
X122809169Y-70044408D01*
X122806685Y-70061153D01*
X122802572Y-70077574D01*
X122796869Y-70093513D01*
X122789631Y-70108816D01*
X122780929Y-70123336D01*
X122770844Y-70136933D01*
X122759476Y-70149476D01*
X122746933Y-70160844D01*
X122733336Y-70170929D01*
X122718816Y-70179631D01*
X122703513Y-70186869D01*
X122687574Y-70192572D01*
X122671153Y-70196685D01*
X122654408Y-70199169D01*
X122637500Y-70200000D01*
X122292500Y-70200000D01*
X122275592Y-70199169D01*
X122258847Y-70196685D01*
X122242426Y-70192572D01*
X122226487Y-70186869D01*
X122211184Y-70179631D01*
X122196664Y-70170929D01*
X122183067Y-70160844D01*
X122170524Y-70149476D01*
X122159156Y-70136933D01*
X122149071Y-70123336D01*
X122140369Y-70108816D01*
X122133131Y-70093513D01*
X122127428Y-70077574D01*
X122123315Y-70061153D01*
X122120831Y-70044408D01*
X122120000Y-70027500D01*
X122120000Y-69632500D01*
X122120831Y-69615592D01*
X122123315Y-69598847D01*
X122127428Y-69582426D01*
X122133131Y-69566487D01*
X122140369Y-69551184D01*
X122149071Y-69536664D01*
X122159156Y-69523067D01*
X122170524Y-69510524D01*
X122183067Y-69499156D01*
X122196664Y-69489071D01*
X122211184Y-69480369D01*
X122226487Y-69473131D01*
X122242426Y-69467428D01*
X122258847Y-69463315D01*
X122275592Y-69460831D01*
X122292500Y-69460000D01*
X122637500Y-69460000D01*
X122654408Y-69460831D01*
G37*
G36*
X123624408Y-69460831D02*
G01*
X123641153Y-69463315D01*
X123657574Y-69467428D01*
X123673513Y-69473131D01*
X123688816Y-69480369D01*
X123703336Y-69489071D01*
X123716933Y-69499156D01*
X123729476Y-69510524D01*
X123740844Y-69523067D01*
X123750929Y-69536664D01*
X123759631Y-69551184D01*
X123766869Y-69566487D01*
X123772572Y-69582426D01*
X123776685Y-69598847D01*
X123779169Y-69615592D01*
X123780000Y-69632500D01*
X123780000Y-70027500D01*
X123779169Y-70044408D01*
X123776685Y-70061153D01*
X123772572Y-70077574D01*
X123766869Y-70093513D01*
X123759631Y-70108816D01*
X123750929Y-70123336D01*
X123740844Y-70136933D01*
X123729476Y-70149476D01*
X123716933Y-70160844D01*
X123703336Y-70170929D01*
X123688816Y-70179631D01*
X123673513Y-70186869D01*
X123657574Y-70192572D01*
X123641153Y-70196685D01*
X123624408Y-70199169D01*
X123607500Y-70200000D01*
X123262500Y-70200000D01*
X123245592Y-70199169D01*
X123228847Y-70196685D01*
X123212426Y-70192572D01*
X123196487Y-70186869D01*
X123181184Y-70179631D01*
X123166664Y-70170929D01*
X123153067Y-70160844D01*
X123140524Y-70149476D01*
X123129156Y-70136933D01*
X123119071Y-70123336D01*
X123110369Y-70108816D01*
X123103131Y-70093513D01*
X123097428Y-70077574D01*
X123093315Y-70061153D01*
X123090831Y-70044408D01*
X123090000Y-70027500D01*
X123090000Y-69632500D01*
X123090831Y-69615592D01*
X123093315Y-69598847D01*
X123097428Y-69582426D01*
X123103131Y-69566487D01*
X123110369Y-69551184D01*
X123119071Y-69536664D01*
X123129156Y-69523067D01*
X123140524Y-69510524D01*
X123153067Y-69499156D01*
X123166664Y-69489071D01*
X123181184Y-69480369D01*
X123196487Y-69473131D01*
X123212426Y-69467428D01*
X123228847Y-69463315D01*
X123245592Y-69460831D01*
X123262500Y-69460000D01*
X123607500Y-69460000D01*
X123624408Y-69460831D01*
G37*
G36*
X126474408Y-73130831D02*
G01*
X126491153Y-73133315D01*
X126507574Y-73137428D01*
X126523513Y-73143131D01*
X126538816Y-73150369D01*
X126553336Y-73159071D01*
X126566933Y-73169156D01*
X126579476Y-73180524D01*
X126590844Y-73193067D01*
X126600929Y-73206664D01*
X126609631Y-73221184D01*
X126616869Y-73236487D01*
X126622572Y-73252426D01*
X126626685Y-73268847D01*
X126629169Y-73285592D01*
X126630000Y-73302500D01*
X126630000Y-73697500D01*
X126629169Y-73714408D01*
X126626685Y-73731153D01*
X126622572Y-73747574D01*
X126616869Y-73763513D01*
X126609631Y-73778816D01*
X126600929Y-73793336D01*
X126590844Y-73806933D01*
X126579476Y-73819476D01*
X126566933Y-73830844D01*
X126553336Y-73840929D01*
X126538816Y-73849631D01*
X126523513Y-73856869D01*
X126507574Y-73862572D01*
X126491153Y-73866685D01*
X126474408Y-73869169D01*
X126457500Y-73870000D01*
X126112500Y-73870000D01*
X126095592Y-73869169D01*
X126078847Y-73866685D01*
X126062426Y-73862572D01*
X126046487Y-73856869D01*
X126031184Y-73849631D01*
X126016664Y-73840929D01*
X126003067Y-73830844D01*
X125990524Y-73819476D01*
X125979156Y-73806933D01*
X125969071Y-73793336D01*
X125960369Y-73778816D01*
X125953131Y-73763513D01*
X125947428Y-73747574D01*
X125943315Y-73731153D01*
X125940831Y-73714408D01*
X125940000Y-73697500D01*
X125940000Y-73302500D01*
X125940831Y-73285592D01*
X125943315Y-73268847D01*
X125947428Y-73252426D01*
X125953131Y-73236487D01*
X125960369Y-73221184D01*
X125969071Y-73206664D01*
X125979156Y-73193067D01*
X125990524Y-73180524D01*
X126003067Y-73169156D01*
X126016664Y-73159071D01*
X126031184Y-73150369D01*
X126046487Y-73143131D01*
X126062426Y-73137428D01*
X126078847Y-73133315D01*
X126095592Y-73130831D01*
X126112500Y-73130000D01*
X126457500Y-73130000D01*
X126474408Y-73130831D01*
G37*
G36*
X125504408Y-73130831D02*
G01*
X125521153Y-73133315D01*
X125537574Y-73137428D01*
X125553513Y-73143131D01*
X125568816Y-73150369D01*
X125583336Y-73159071D01*
X125596933Y-73169156D01*
X125609476Y-73180524D01*
X125620844Y-73193067D01*
X125630929Y-73206664D01*
X125639631Y-73221184D01*
X125646869Y-73236487D01*
X125652572Y-73252426D01*
X125656685Y-73268847D01*
X125659169Y-73285592D01*
X125660000Y-73302500D01*
X125660000Y-73697500D01*
X125659169Y-73714408D01*
X125656685Y-73731153D01*
X125652572Y-73747574D01*
X125646869Y-73763513D01*
X125639631Y-73778816D01*
X125630929Y-73793336D01*
X125620844Y-73806933D01*
X125609476Y-73819476D01*
X125596933Y-73830844D01*
X125583336Y-73840929D01*
X125568816Y-73849631D01*
X125553513Y-73856869D01*
X125537574Y-73862572D01*
X125521153Y-73866685D01*
X125504408Y-73869169D01*
X125487500Y-73870000D01*
X125142500Y-73870000D01*
X125125592Y-73869169D01*
X125108847Y-73866685D01*
X125092426Y-73862572D01*
X125076487Y-73856869D01*
X125061184Y-73849631D01*
X125046664Y-73840929D01*
X125033067Y-73830844D01*
X125020524Y-73819476D01*
X125009156Y-73806933D01*
X124999071Y-73793336D01*
X124990369Y-73778816D01*
X124983131Y-73763513D01*
X124977428Y-73747574D01*
X124973315Y-73731153D01*
X124970831Y-73714408D01*
X124970000Y-73697500D01*
X124970000Y-73302500D01*
X124970831Y-73285592D01*
X124973315Y-73268847D01*
X124977428Y-73252426D01*
X124983131Y-73236487D01*
X124990369Y-73221184D01*
X124999071Y-73206664D01*
X125009156Y-73193067D01*
X125020524Y-73180524D01*
X125033067Y-73169156D01*
X125046664Y-73159071D01*
X125061184Y-73150369D01*
X125076487Y-73143131D01*
X125092426Y-73137428D01*
X125108847Y-73133315D01*
X125125592Y-73130831D01*
X125142500Y-73130000D01*
X125487500Y-73130000D01*
X125504408Y-73130831D01*
G37*
G36*
X126764408Y-71240831D02*
G01*
X126781153Y-71243315D01*
X126797574Y-71247428D01*
X126813513Y-71253131D01*
X126828816Y-71260369D01*
X126843336Y-71269071D01*
X126856933Y-71279156D01*
X126869476Y-71290524D01*
X126880844Y-71303067D01*
X126890929Y-71316664D01*
X126899631Y-71331184D01*
X126906869Y-71346487D01*
X126912572Y-71362426D01*
X126916685Y-71378847D01*
X126919169Y-71395592D01*
X126920000Y-71412500D01*
X126920000Y-71807500D01*
X126919169Y-71824408D01*
X126916685Y-71841153D01*
X126912572Y-71857574D01*
X126906869Y-71873513D01*
X126899631Y-71888816D01*
X126890929Y-71903336D01*
X126880844Y-71916933D01*
X126869476Y-71929476D01*
X126856933Y-71940844D01*
X126843336Y-71950929D01*
X126828816Y-71959631D01*
X126813513Y-71966869D01*
X126797574Y-71972572D01*
X126781153Y-71976685D01*
X126764408Y-71979169D01*
X126747500Y-71980000D01*
X126402500Y-71980000D01*
X126385592Y-71979169D01*
X126368847Y-71976685D01*
X126352426Y-71972572D01*
X126336487Y-71966869D01*
X126321184Y-71959631D01*
X126306664Y-71950929D01*
X126293067Y-71940844D01*
X126280524Y-71929476D01*
X126269156Y-71916933D01*
X126259071Y-71903336D01*
X126250369Y-71888816D01*
X126243131Y-71873513D01*
X126237428Y-71857574D01*
X126233315Y-71841153D01*
X126230831Y-71824408D01*
X126230000Y-71807500D01*
X126230000Y-71412500D01*
X126230831Y-71395592D01*
X126233315Y-71378847D01*
X126237428Y-71362426D01*
X126243131Y-71346487D01*
X126250369Y-71331184D01*
X126259071Y-71316664D01*
X126269156Y-71303067D01*
X126280524Y-71290524D01*
X126293067Y-71279156D01*
X126306664Y-71269071D01*
X126321184Y-71260369D01*
X126336487Y-71253131D01*
X126352426Y-71247428D01*
X126368847Y-71243315D01*
X126385592Y-71240831D01*
X126402500Y-71240000D01*
X126747500Y-71240000D01*
X126764408Y-71240831D01*
G37*
G36*
X127734408Y-71240831D02*
G01*
X127751153Y-71243315D01*
X127767574Y-71247428D01*
X127783513Y-71253131D01*
X127798816Y-71260369D01*
X127813336Y-71269071D01*
X127826933Y-71279156D01*
X127839476Y-71290524D01*
X127850844Y-71303067D01*
X127860929Y-71316664D01*
X127869631Y-71331184D01*
X127876869Y-71346487D01*
X127882572Y-71362426D01*
X127886685Y-71378847D01*
X127889169Y-71395592D01*
X127890000Y-71412500D01*
X127890000Y-71807500D01*
X127889169Y-71824408D01*
X127886685Y-71841153D01*
X127882572Y-71857574D01*
X127876869Y-71873513D01*
X127869631Y-71888816D01*
X127860929Y-71903336D01*
X127850844Y-71916933D01*
X127839476Y-71929476D01*
X127826933Y-71940844D01*
X127813336Y-71950929D01*
X127798816Y-71959631D01*
X127783513Y-71966869D01*
X127767574Y-71972572D01*
X127751153Y-71976685D01*
X127734408Y-71979169D01*
X127717500Y-71980000D01*
X127372500Y-71980000D01*
X127355592Y-71979169D01*
X127338847Y-71976685D01*
X127322426Y-71972572D01*
X127306487Y-71966869D01*
X127291184Y-71959631D01*
X127276664Y-71950929D01*
X127263067Y-71940844D01*
X127250524Y-71929476D01*
X127239156Y-71916933D01*
X127229071Y-71903336D01*
X127220369Y-71888816D01*
X127213131Y-71873513D01*
X127207428Y-71857574D01*
X127203315Y-71841153D01*
X127200831Y-71824408D01*
X127200000Y-71807500D01*
X127200000Y-71412500D01*
X127200831Y-71395592D01*
X127203315Y-71378847D01*
X127207428Y-71362426D01*
X127213131Y-71346487D01*
X127220369Y-71331184D01*
X127229071Y-71316664D01*
X127239156Y-71303067D01*
X127250524Y-71290524D01*
X127263067Y-71279156D01*
X127276664Y-71269071D01*
X127291184Y-71260369D01*
X127306487Y-71253131D01*
X127322426Y-71247428D01*
X127338847Y-71243315D01*
X127355592Y-71240831D01*
X127372500Y-71240000D01*
X127717500Y-71240000D01*
X127734408Y-71240831D01*
G37*
D18*
X114710000Y-75420000D03*
D14*
G36*
X122274408Y-74530831D02*
G01*
X122291153Y-74533315D01*
X122307574Y-74537428D01*
X122323513Y-74543131D01*
X122338816Y-74550369D01*
X122353336Y-74559071D01*
X122366933Y-74569156D01*
X122379476Y-74580524D01*
X122390844Y-74593067D01*
X122400929Y-74606664D01*
X122409631Y-74621184D01*
X122416869Y-74636487D01*
X122422572Y-74652426D01*
X122426685Y-74668847D01*
X122429169Y-74685592D01*
X122430000Y-74702500D01*
X122430000Y-75097500D01*
X122429169Y-75114408D01*
X122426685Y-75131153D01*
X122422572Y-75147574D01*
X122416869Y-75163513D01*
X122409631Y-75178816D01*
X122400929Y-75193336D01*
X122390844Y-75206933D01*
X122379476Y-75219476D01*
X122366933Y-75230844D01*
X122353336Y-75240929D01*
X122338816Y-75249631D01*
X122323513Y-75256869D01*
X122307574Y-75262572D01*
X122291153Y-75266685D01*
X122274408Y-75269169D01*
X122257500Y-75270000D01*
X121912500Y-75270000D01*
X121895592Y-75269169D01*
X121878847Y-75266685D01*
X121862426Y-75262572D01*
X121846487Y-75256869D01*
X121831184Y-75249631D01*
X121816664Y-75240929D01*
X121803067Y-75230844D01*
X121790524Y-75219476D01*
X121779156Y-75206933D01*
X121769071Y-75193336D01*
X121760369Y-75178816D01*
X121753131Y-75163513D01*
X121747428Y-75147574D01*
X121743315Y-75131153D01*
X121740831Y-75114408D01*
X121740000Y-75097500D01*
X121740000Y-74702500D01*
X121740831Y-74685592D01*
X121743315Y-74668847D01*
X121747428Y-74652426D01*
X121753131Y-74636487D01*
X121760369Y-74621184D01*
X121769071Y-74606664D01*
X121779156Y-74593067D01*
X121790524Y-74580524D01*
X121803067Y-74569156D01*
X121816664Y-74559071D01*
X121831184Y-74550369D01*
X121846487Y-74543131D01*
X121862426Y-74537428D01*
X121878847Y-74533315D01*
X121895592Y-74530831D01*
X121912500Y-74530000D01*
X122257500Y-74530000D01*
X122274408Y-74530831D01*
G37*
G36*
X121304408Y-74530831D02*
G01*
X121321153Y-74533315D01*
X121337574Y-74537428D01*
X121353513Y-74543131D01*
X121368816Y-74550369D01*
X121383336Y-74559071D01*
X121396933Y-74569156D01*
X121409476Y-74580524D01*
X121420844Y-74593067D01*
X121430929Y-74606664D01*
X121439631Y-74621184D01*
X121446869Y-74636487D01*
X121452572Y-74652426D01*
X121456685Y-74668847D01*
X121459169Y-74685592D01*
X121460000Y-74702500D01*
X121460000Y-75097500D01*
X121459169Y-75114408D01*
X121456685Y-75131153D01*
X121452572Y-75147574D01*
X121446869Y-75163513D01*
X121439631Y-75178816D01*
X121430929Y-75193336D01*
X121420844Y-75206933D01*
X121409476Y-75219476D01*
X121396933Y-75230844D01*
X121383336Y-75240929D01*
X121368816Y-75249631D01*
X121353513Y-75256869D01*
X121337574Y-75262572D01*
X121321153Y-75266685D01*
X121304408Y-75269169D01*
X121287500Y-75270000D01*
X120942500Y-75270000D01*
X120925592Y-75269169D01*
X120908847Y-75266685D01*
X120892426Y-75262572D01*
X120876487Y-75256869D01*
X120861184Y-75249631D01*
X120846664Y-75240929D01*
X120833067Y-75230844D01*
X120820524Y-75219476D01*
X120809156Y-75206933D01*
X120799071Y-75193336D01*
X120790369Y-75178816D01*
X120783131Y-75163513D01*
X120777428Y-75147574D01*
X120773315Y-75131153D01*
X120770831Y-75114408D01*
X120770000Y-75097500D01*
X120770000Y-74702500D01*
X120770831Y-74685592D01*
X120773315Y-74668847D01*
X120777428Y-74652426D01*
X120783131Y-74636487D01*
X120790369Y-74621184D01*
X120799071Y-74606664D01*
X120809156Y-74593067D01*
X120820524Y-74580524D01*
X120833067Y-74569156D01*
X120846664Y-74559071D01*
X120861184Y-74550369D01*
X120876487Y-74543131D01*
X120892426Y-74537428D01*
X120908847Y-74533315D01*
X120925592Y-74530831D01*
X120942500Y-74530000D01*
X121287500Y-74530000D01*
X121304408Y-74530831D01*
G37*
D18*
X130000000Y-74600000D03*
D14*
G36*
X126474408Y-72190831D02*
G01*
X126491153Y-72193315D01*
X126507574Y-72197428D01*
X126523513Y-72203131D01*
X126538816Y-72210369D01*
X126553336Y-72219071D01*
X126566933Y-72229156D01*
X126579476Y-72240524D01*
X126590844Y-72253067D01*
X126600929Y-72266664D01*
X126609631Y-72281184D01*
X126616869Y-72296487D01*
X126622572Y-72312426D01*
X126626685Y-72328847D01*
X126629169Y-72345592D01*
X126630000Y-72362500D01*
X126630000Y-72757500D01*
X126629169Y-72774408D01*
X126626685Y-72791153D01*
X126622572Y-72807574D01*
X126616869Y-72823513D01*
X126609631Y-72838816D01*
X126600929Y-72853336D01*
X126590844Y-72866933D01*
X126579476Y-72879476D01*
X126566933Y-72890844D01*
X126553336Y-72900929D01*
X126538816Y-72909631D01*
X126523513Y-72916869D01*
X126507574Y-72922572D01*
X126491153Y-72926685D01*
X126474408Y-72929169D01*
X126457500Y-72930000D01*
X126112500Y-72930000D01*
X126095592Y-72929169D01*
X126078847Y-72926685D01*
X126062426Y-72922572D01*
X126046487Y-72916869D01*
X126031184Y-72909631D01*
X126016664Y-72900929D01*
X126003067Y-72890844D01*
X125990524Y-72879476D01*
X125979156Y-72866933D01*
X125969071Y-72853336D01*
X125960369Y-72838816D01*
X125953131Y-72823513D01*
X125947428Y-72807574D01*
X125943315Y-72791153D01*
X125940831Y-72774408D01*
X125940000Y-72757500D01*
X125940000Y-72362500D01*
X125940831Y-72345592D01*
X125943315Y-72328847D01*
X125947428Y-72312426D01*
X125953131Y-72296487D01*
X125960369Y-72281184D01*
X125969071Y-72266664D01*
X125979156Y-72253067D01*
X125990524Y-72240524D01*
X126003067Y-72229156D01*
X126016664Y-72219071D01*
X126031184Y-72210369D01*
X126046487Y-72203131D01*
X126062426Y-72197428D01*
X126078847Y-72193315D01*
X126095592Y-72190831D01*
X126112500Y-72190000D01*
X126457500Y-72190000D01*
X126474408Y-72190831D01*
G37*
G36*
X125504408Y-72190831D02*
G01*
X125521153Y-72193315D01*
X125537574Y-72197428D01*
X125553513Y-72203131D01*
X125568816Y-72210369D01*
X125583336Y-72219071D01*
X125596933Y-72229156D01*
X125609476Y-72240524D01*
X125620844Y-72253067D01*
X125630929Y-72266664D01*
X125639631Y-72281184D01*
X125646869Y-72296487D01*
X125652572Y-72312426D01*
X125656685Y-72328847D01*
X125659169Y-72345592D01*
X125660000Y-72362500D01*
X125660000Y-72757500D01*
X125659169Y-72774408D01*
X125656685Y-72791153D01*
X125652572Y-72807574D01*
X125646869Y-72823513D01*
X125639631Y-72838816D01*
X125630929Y-72853336D01*
X125620844Y-72866933D01*
X125609476Y-72879476D01*
X125596933Y-72890844D01*
X125583336Y-72900929D01*
X125568816Y-72909631D01*
X125553513Y-72916869D01*
X125537574Y-72922572D01*
X125521153Y-72926685D01*
X125504408Y-72929169D01*
X125487500Y-72930000D01*
X125142500Y-72930000D01*
X125125592Y-72929169D01*
X125108847Y-72926685D01*
X125092426Y-72922572D01*
X125076487Y-72916869D01*
X125061184Y-72909631D01*
X125046664Y-72900929D01*
X125033067Y-72890844D01*
X125020524Y-72879476D01*
X125009156Y-72866933D01*
X124999071Y-72853336D01*
X124990369Y-72838816D01*
X124983131Y-72823513D01*
X124977428Y-72807574D01*
X124973315Y-72791153D01*
X124970831Y-72774408D01*
X124970000Y-72757500D01*
X124970000Y-72362500D01*
X124970831Y-72345592D01*
X124973315Y-72328847D01*
X124977428Y-72312426D01*
X124983131Y-72296487D01*
X124990369Y-72281184D01*
X124999071Y-72266664D01*
X125009156Y-72253067D01*
X125020524Y-72240524D01*
X125033067Y-72229156D01*
X125046664Y-72219071D01*
X125061184Y-72210369D01*
X125076487Y-72203131D01*
X125092426Y-72197428D01*
X125108847Y-72193315D01*
X125125592Y-72190831D01*
X125142500Y-72190000D01*
X125487500Y-72190000D01*
X125504408Y-72190831D01*
G37*
D10*
X123910000Y-72600000D03*
X119650000Y-73960000D03*
X121940000Y-73040000D03*
D14*
G36*
X119534408Y-72100831D02*
G01*
X119551153Y-72103315D01*
X119567574Y-72107428D01*
X119583513Y-72113131D01*
X119598816Y-72120369D01*
X119613336Y-72129071D01*
X119626933Y-72139156D01*
X119639476Y-72150524D01*
X119650844Y-72163067D01*
X119660929Y-72176664D01*
X119669631Y-72191184D01*
X119676869Y-72206487D01*
X119682572Y-72222426D01*
X119686685Y-72238847D01*
X119689169Y-72255592D01*
X119690000Y-72272500D01*
X119690000Y-72667500D01*
X119689169Y-72684408D01*
X119686685Y-72701153D01*
X119682572Y-72717574D01*
X119676869Y-72733513D01*
X119669631Y-72748816D01*
X119660929Y-72763336D01*
X119650844Y-72776933D01*
X119639476Y-72789476D01*
X119626933Y-72800844D01*
X119613336Y-72810929D01*
X119598816Y-72819631D01*
X119583513Y-72826869D01*
X119567574Y-72832572D01*
X119551153Y-72836685D01*
X119534408Y-72839169D01*
X119517500Y-72840000D01*
X119172500Y-72840000D01*
X119155592Y-72839169D01*
X119138847Y-72836685D01*
X119122426Y-72832572D01*
X119106487Y-72826869D01*
X119091184Y-72819631D01*
X119076664Y-72810929D01*
X119063067Y-72800844D01*
X119050524Y-72789476D01*
X119039156Y-72776933D01*
X119029071Y-72763336D01*
X119020369Y-72748816D01*
X119013131Y-72733513D01*
X119007428Y-72717574D01*
X119003315Y-72701153D01*
X119000831Y-72684408D01*
X119000000Y-72667500D01*
X119000000Y-72272500D01*
X119000831Y-72255592D01*
X119003315Y-72238847D01*
X119007428Y-72222426D01*
X119013131Y-72206487D01*
X119020369Y-72191184D01*
X119029071Y-72176664D01*
X119039156Y-72163067D01*
X119050524Y-72150524D01*
X119063067Y-72139156D01*
X119076664Y-72129071D01*
X119091184Y-72120369D01*
X119106487Y-72113131D01*
X119122426Y-72107428D01*
X119138847Y-72103315D01*
X119155592Y-72100831D01*
X119172500Y-72100000D01*
X119517500Y-72100000D01*
X119534408Y-72100831D01*
G37*
G36*
X120504408Y-72100831D02*
G01*
X120521153Y-72103315D01*
X120537574Y-72107428D01*
X120553513Y-72113131D01*
X120568816Y-72120369D01*
X120583336Y-72129071D01*
X120596933Y-72139156D01*
X120609476Y-72150524D01*
X120620844Y-72163067D01*
X120630929Y-72176664D01*
X120639631Y-72191184D01*
X120646869Y-72206487D01*
X120652572Y-72222426D01*
X120656685Y-72238847D01*
X120659169Y-72255592D01*
X120660000Y-72272500D01*
X120660000Y-72667500D01*
X120659169Y-72684408D01*
X120656685Y-72701153D01*
X120652572Y-72717574D01*
X120646869Y-72733513D01*
X120639631Y-72748816D01*
X120630929Y-72763336D01*
X120620844Y-72776933D01*
X120609476Y-72789476D01*
X120596933Y-72800844D01*
X120583336Y-72810929D01*
X120568816Y-72819631D01*
X120553513Y-72826869D01*
X120537574Y-72832572D01*
X120521153Y-72836685D01*
X120504408Y-72839169D01*
X120487500Y-72840000D01*
X120142500Y-72840000D01*
X120125592Y-72839169D01*
X120108847Y-72836685D01*
X120092426Y-72832572D01*
X120076487Y-72826869D01*
X120061184Y-72819631D01*
X120046664Y-72810929D01*
X120033067Y-72800844D01*
X120020524Y-72789476D01*
X120009156Y-72776933D01*
X119999071Y-72763336D01*
X119990369Y-72748816D01*
X119983131Y-72733513D01*
X119977428Y-72717574D01*
X119973315Y-72701153D01*
X119970831Y-72684408D01*
X119970000Y-72667500D01*
X119970000Y-72272500D01*
X119970831Y-72255592D01*
X119973315Y-72238847D01*
X119977428Y-72222426D01*
X119983131Y-72206487D01*
X119990369Y-72191184D01*
X119999071Y-72176664D01*
X120009156Y-72163067D01*
X120020524Y-72150524D01*
X120033067Y-72139156D01*
X120046664Y-72129071D01*
X120061184Y-72120369D01*
X120076487Y-72113131D01*
X120092426Y-72107428D01*
X120108847Y-72103315D01*
X120125592Y-72100831D01*
X120142500Y-72100000D01*
X120487500Y-72100000D01*
X120504408Y-72100831D01*
G37*
D10*
X123620000Y-75140000D03*
M02*
