G04 #@! TF.GenerationSoftware,KiCad,Pcbnew,(5.1.5-0-10_14)*
G04 #@! TF.CreationDate,2020-10-31T20:23:47-07:00*
G04 #@! TF.ProjectId,EOGlass2p1,454f476c-6173-4733-9270-312e6b696361,rev?*
G04 #@! TF.SameCoordinates,Original*
G04 #@! TF.FileFunction,Copper,L2,Inr*
G04 #@! TF.FilePolarity,Positive*
%FSLAX46Y46*%
G04 Gerber Fmt 4.6, Leading zero omitted, Abs format (unit mm)*
G04 Created by KiCad (PCBNEW (5.1.5-0-10_14)) date 2020-10-31 20:23:47*
%MOMM*%
%LPD*%
G04 APERTURE LIST*
%ADD10O,1.100000X1.800000*%
%ADD11O,1.100000X2.200000*%
%ADD12C,0.400000*%
%ADD13C,0.102000*%
G04 APERTURE END LIST*
D10*
X136245000Y-76030000D03*
X136245000Y-70430000D03*
D11*
X134095000Y-73230000D03*
D12*
X112940000Y-77030000D03*
X133500000Y-76250000D03*
X127000000Y-73400000D03*
X133000000Y-76400000D03*
X122800000Y-75389909D03*
X124600000Y-75025000D03*
X121001636Y-75523189D03*
X112408869Y-75483333D03*
X128100000Y-72020000D03*
X127060000Y-72220000D03*
X127151206Y-74303000D03*
X127085249Y-75290532D03*
X127063043Y-74798409D03*
X124260000Y-74650000D03*
X122830000Y-74870000D03*
X114720000Y-76970000D03*
X112880000Y-74850000D03*
X113440000Y-74870000D03*
X114260000Y-75300000D03*
X113250000Y-75400000D03*
X114820000Y-75750000D03*
X113930000Y-74820000D03*
X128900000Y-72850000D03*
X113400000Y-71900000D03*
X114650000Y-71850000D03*
X117200000Y-74900000D03*
X116000000Y-76000000D03*
X120900000Y-73900000D03*
X125295990Y-70653000D03*
X116970000Y-72060000D03*
X114730000Y-73600000D03*
X114129616Y-74000384D03*
X132000000Y-70650000D03*
X122406009Y-73900000D03*
X132500000Y-76600000D03*
X121600000Y-74400000D03*
X134100000Y-75040020D03*
X123000000Y-72700000D03*
X114730000Y-73130000D03*
X118562160Y-75955401D03*
X116950000Y-71450000D03*
X123525000Y-74200000D03*
X117050000Y-73000000D03*
X133400000Y-76900000D03*
X131700000Y-72850000D03*
X128850000Y-75600000D03*
X131750000Y-75650000D03*
X131700000Y-74200000D03*
X128900000Y-74200000D03*
X130300000Y-72850000D03*
X130300000Y-75600000D03*
X122930000Y-74250000D03*
X126700000Y-67800000D03*
X124750000Y-73870000D03*
X124862461Y-74597074D03*
X124690000Y-73330000D03*
X135560000Y-71380000D03*
X131010000Y-77460000D03*
X122814848Y-77600000D03*
X124504793Y-76035208D03*
X114300000Y-77600000D03*
X112700000Y-73910000D03*
X122010000Y-67400000D03*
X118160000Y-67400000D03*
X113850000Y-68760000D03*
X113853558Y-69543770D03*
X115940000Y-67400000D03*
X119339026Y-74723197D03*
X112500000Y-71300000D03*
X119600000Y-71800000D03*
X119726974Y-69696249D03*
X128130000Y-70068000D03*
X131950000Y-67400000D03*
X118980000Y-71900000D03*
X126870000Y-70080000D03*
X122677998Y-69070000D03*
X121320000Y-70302002D03*
X124900000Y-75500000D03*
X134800000Y-72126010D03*
X130300000Y-74200000D03*
X117720000Y-75420000D03*
X136520000Y-67870000D03*
X136540000Y-68530000D03*
X132000000Y-68693487D03*
X128130000Y-71489990D03*
X120410000Y-73500020D03*
X123320000Y-70600000D03*
X124202990Y-71757010D03*
X125123760Y-71733990D03*
X112920000Y-68040000D03*
X117030000Y-70560000D03*
X115300000Y-68140000D03*
X117912891Y-68647109D03*
X118160000Y-67890001D03*
X118460000Y-72060000D03*
X124730000Y-72830000D03*
X135750000Y-67700000D03*
X134400000Y-70800000D03*
X133300000Y-69250000D03*
X133750000Y-69500000D03*
X133750000Y-67600000D03*
X133300000Y-68000000D03*
X135500000Y-76800000D03*
X134900000Y-77600000D03*
X133700000Y-77500000D03*
X134400000Y-77500000D03*
X134800000Y-77100000D03*
X125500000Y-76162940D03*
X126000000Y-76000000D03*
X125002553Y-76100334D03*
X135700000Y-69250000D03*
X135800000Y-68700000D03*
X135410000Y-75200000D03*
X135400000Y-74750000D03*
X117600000Y-71600000D03*
X117702003Y-74900000D03*
X117200000Y-75402003D03*
X117063392Y-70059109D03*
X116528649Y-73649436D03*
X112941264Y-72103882D03*
X124190000Y-67400000D03*
X124340000Y-67850000D03*
X114165509Y-69150461D03*
X113672654Y-68124027D03*
X120091625Y-75440000D03*
X120091625Y-74966193D03*
X121320000Y-71570000D03*
X121400456Y-73939363D03*
X116650917Y-68138410D03*
X116000149Y-67940930D03*
X116834173Y-72546763D03*
X132000000Y-68191484D03*
X133750000Y-68800000D03*
X133355436Y-68498931D03*
X124350000Y-68990000D03*
X124360000Y-68450000D03*
X134947000Y-73330000D03*
X133462857Y-74641282D03*
X128400000Y-67800000D03*
X115400000Y-71800000D03*
X128590000Y-70302002D03*
X113910000Y-71990000D03*
X126890000Y-68590000D03*
X122142002Y-69050000D03*
X127800000Y-76700000D03*
X117602621Y-76025639D03*
X127300000Y-76500000D03*
X118360000Y-76418999D03*
X128100000Y-77182990D03*
X117742309Y-76935650D03*
X120600000Y-77600000D03*
X123316851Y-77600000D03*
X121700000Y-77000000D03*
X129854773Y-77353000D03*
X116877142Y-76202131D03*
X130356776Y-77353000D03*
X117160000Y-77375001D03*
X120152387Y-69117613D03*
X118127015Y-71573246D03*
X126629820Y-70560011D03*
X117930000Y-72090000D03*
X120160000Y-71802002D03*
X126918990Y-72810070D03*
X128782643Y-71025873D03*
X132480629Y-71831444D03*
X132971450Y-71936803D03*
X133400000Y-70750000D03*
X133200000Y-70100000D03*
X124550000Y-70250000D03*
X124050000Y-70350000D03*
X125515525Y-71355221D03*
D13*
G36*
X123837000Y-67365233D02*
G01*
X123837000Y-67434767D01*
X123850566Y-67502966D01*
X123877175Y-67567208D01*
X123915807Y-67625024D01*
X123964976Y-67674193D01*
X124016482Y-67708609D01*
X124000566Y-67747034D01*
X123987000Y-67815233D01*
X123987000Y-67884767D01*
X124000566Y-67952966D01*
X124027175Y-68017208D01*
X124065807Y-68075024D01*
X124114976Y-68124193D01*
X124163598Y-68156682D01*
X124134976Y-68175807D01*
X124085807Y-68224976D01*
X124047175Y-68282792D01*
X124020566Y-68347034D01*
X124007000Y-68415233D01*
X124007000Y-68484767D01*
X124020566Y-68552966D01*
X124047175Y-68617208D01*
X124085807Y-68675024D01*
X124125944Y-68715161D01*
X124124976Y-68715807D01*
X124075807Y-68764976D01*
X124037175Y-68822792D01*
X124010566Y-68887034D01*
X123997000Y-68955233D01*
X123997000Y-69024767D01*
X124010566Y-69092966D01*
X124037175Y-69157208D01*
X124075807Y-69215024D01*
X124124976Y-69264193D01*
X124182792Y-69302825D01*
X124247034Y-69329434D01*
X124315233Y-69343000D01*
X124384767Y-69343000D01*
X124452966Y-69329434D01*
X124517208Y-69302825D01*
X124575024Y-69264193D01*
X124623984Y-69215233D01*
X135347000Y-69215233D01*
X135347000Y-69284767D01*
X135360566Y-69352966D01*
X135387175Y-69417208D01*
X135425807Y-69475024D01*
X135474976Y-69524193D01*
X135532792Y-69562825D01*
X135597034Y-69589434D01*
X135665233Y-69603000D01*
X135731451Y-69603000D01*
X135660755Y-69689018D01*
X135595704Y-69810511D01*
X135555605Y-69942361D01*
X135542000Y-70079500D01*
X135542000Y-70429500D01*
X136244500Y-70429500D01*
X136244500Y-69415250D01*
X136134533Y-69385733D01*
X136108342Y-69390410D01*
X136011064Y-69419844D01*
X136012825Y-69417208D01*
X136039434Y-69352966D01*
X136053000Y-69284767D01*
X136053000Y-69215233D01*
X136039434Y-69147034D01*
X136012825Y-69082792D01*
X135974193Y-69024976D01*
X135963555Y-69014338D01*
X135967208Y-69012825D01*
X136025024Y-68974193D01*
X136074193Y-68925024D01*
X136112825Y-68867208D01*
X136139434Y-68802966D01*
X136153000Y-68734767D01*
X136153000Y-68665233D01*
X136139434Y-68597034D01*
X136112825Y-68532792D01*
X136074193Y-68474976D01*
X136025024Y-68425807D01*
X135967208Y-68387175D01*
X135902966Y-68360566D01*
X135834767Y-68347000D01*
X135765233Y-68347000D01*
X135697034Y-68360566D01*
X135632792Y-68387175D01*
X135574976Y-68425807D01*
X135525807Y-68474976D01*
X135487175Y-68532792D01*
X135460566Y-68597034D01*
X135447000Y-68665233D01*
X135447000Y-68734767D01*
X135460566Y-68802966D01*
X135487175Y-68867208D01*
X135525807Y-68925024D01*
X135536445Y-68935662D01*
X135532792Y-68937175D01*
X135474976Y-68975807D01*
X135425807Y-69024976D01*
X135387175Y-69082792D01*
X135360566Y-69147034D01*
X135347000Y-69215233D01*
X124623984Y-69215233D01*
X124624193Y-69215024D01*
X124662825Y-69157208D01*
X124689434Y-69092966D01*
X124703000Y-69024767D01*
X124703000Y-68955233D01*
X124689434Y-68887034D01*
X124662825Y-68822792D01*
X124624193Y-68764976D01*
X124584056Y-68724839D01*
X124585024Y-68724193D01*
X124634193Y-68675024D01*
X124672825Y-68617208D01*
X124698495Y-68555233D01*
X126537000Y-68555233D01*
X126537000Y-68624767D01*
X126550566Y-68692966D01*
X126577175Y-68757208D01*
X126615807Y-68815024D01*
X126664976Y-68864193D01*
X126722792Y-68902825D01*
X126787034Y-68929434D01*
X126855233Y-68943000D01*
X126924767Y-68943000D01*
X126992966Y-68929434D01*
X127057208Y-68902825D01*
X127115024Y-68864193D01*
X127164193Y-68815024D01*
X127202825Y-68757208D01*
X127229434Y-68692966D01*
X127243000Y-68624767D01*
X127243000Y-68555233D01*
X127229434Y-68487034D01*
X127202825Y-68422792D01*
X127164193Y-68364976D01*
X127115024Y-68315807D01*
X127057208Y-68277175D01*
X126992966Y-68250566D01*
X126924767Y-68237000D01*
X126855233Y-68237000D01*
X126787034Y-68250566D01*
X126722792Y-68277175D01*
X126664976Y-68315807D01*
X126615807Y-68364976D01*
X126577175Y-68422792D01*
X126550566Y-68487034D01*
X126537000Y-68555233D01*
X124698495Y-68555233D01*
X124699434Y-68552966D01*
X124713000Y-68484767D01*
X124713000Y-68415233D01*
X124699434Y-68347034D01*
X124672825Y-68282792D01*
X124634193Y-68224976D01*
X124585024Y-68175807D01*
X124556455Y-68156717D01*
X131647000Y-68156717D01*
X131647000Y-68226251D01*
X131660566Y-68294450D01*
X131687175Y-68358692D01*
X131725807Y-68416508D01*
X131774976Y-68465677D01*
X131832792Y-68504309D01*
X131897034Y-68530918D01*
X131965233Y-68544484D01*
X132034767Y-68544484D01*
X132102966Y-68530918D01*
X132167208Y-68504309D01*
X132225024Y-68465677D01*
X132226537Y-68464164D01*
X133002436Y-68464164D01*
X133002436Y-68533698D01*
X133016002Y-68601897D01*
X133042611Y-68666139D01*
X133081243Y-68723955D01*
X133130412Y-68773124D01*
X133188228Y-68811756D01*
X133252470Y-68838365D01*
X133320669Y-68851931D01*
X133390203Y-68851931D01*
X133400026Y-68849977D01*
X133410566Y-68902966D01*
X133437175Y-68967208D01*
X133475807Y-69025024D01*
X133524976Y-69074193D01*
X133582792Y-69112825D01*
X133647034Y-69139434D01*
X133715233Y-69153000D01*
X133784767Y-69153000D01*
X133852966Y-69139434D01*
X133917208Y-69112825D01*
X133975024Y-69074193D01*
X134024193Y-69025024D01*
X134062825Y-68967208D01*
X134089434Y-68902966D01*
X134103000Y-68834767D01*
X134103000Y-68765233D01*
X134089434Y-68697034D01*
X134062825Y-68632792D01*
X134024193Y-68574976D01*
X133975024Y-68525807D01*
X133917208Y-68487175D01*
X133852966Y-68460566D01*
X133784767Y-68447000D01*
X133715233Y-68447000D01*
X133705410Y-68448954D01*
X133694870Y-68395965D01*
X133668261Y-68331723D01*
X133629629Y-68273907D01*
X133580460Y-68224738D01*
X133522644Y-68186106D01*
X133458402Y-68159497D01*
X133390203Y-68145931D01*
X133320669Y-68145931D01*
X133252470Y-68159497D01*
X133188228Y-68186106D01*
X133130412Y-68224738D01*
X133081243Y-68273907D01*
X133042611Y-68331723D01*
X133016002Y-68395965D01*
X133002436Y-68464164D01*
X132226537Y-68464164D01*
X132274193Y-68416508D01*
X132312825Y-68358692D01*
X132339434Y-68294450D01*
X132353000Y-68226251D01*
X132353000Y-68156717D01*
X132339434Y-68088518D01*
X132312825Y-68024276D01*
X132274193Y-67966460D01*
X132225024Y-67917291D01*
X132167208Y-67878659D01*
X132102966Y-67852050D01*
X132034767Y-67838484D01*
X131965233Y-67838484D01*
X131897034Y-67852050D01*
X131832792Y-67878659D01*
X131774976Y-67917291D01*
X131725807Y-67966460D01*
X131687175Y-68024276D01*
X131660566Y-68088518D01*
X131647000Y-68156717D01*
X124556455Y-68156717D01*
X124536402Y-68143318D01*
X124565024Y-68124193D01*
X124614193Y-68075024D01*
X124652825Y-68017208D01*
X124679434Y-67952966D01*
X124693000Y-67884767D01*
X124693000Y-67815233D01*
X124683055Y-67765233D01*
X128047000Y-67765233D01*
X128047000Y-67834767D01*
X128060566Y-67902966D01*
X128087175Y-67967208D01*
X128125807Y-68025024D01*
X128174976Y-68074193D01*
X128232792Y-68112825D01*
X128297034Y-68139434D01*
X128365233Y-68153000D01*
X128434767Y-68153000D01*
X128502966Y-68139434D01*
X128567208Y-68112825D01*
X128625024Y-68074193D01*
X128674193Y-68025024D01*
X128712825Y-67967208D01*
X128739434Y-67902966D01*
X128753000Y-67834767D01*
X128753000Y-67765233D01*
X128739434Y-67697034D01*
X128712825Y-67632792D01*
X128674193Y-67574976D01*
X128625024Y-67525807D01*
X128567208Y-67487175D01*
X128502966Y-67460566D01*
X128434767Y-67447000D01*
X128365233Y-67447000D01*
X128297034Y-67460566D01*
X128232792Y-67487175D01*
X128174976Y-67525807D01*
X128125807Y-67574976D01*
X128087175Y-67632792D01*
X128060566Y-67697034D01*
X128047000Y-67765233D01*
X124683055Y-67765233D01*
X124679434Y-67747034D01*
X124652825Y-67682792D01*
X124614193Y-67624976D01*
X124565024Y-67575807D01*
X124513518Y-67541391D01*
X124529434Y-67502966D01*
X124543000Y-67434767D01*
X124543000Y-67365233D01*
X124530223Y-67301000D01*
X136699000Y-67301000D01*
X136699000Y-69547523D01*
X136635150Y-69495199D01*
X136513564Y-69430321D01*
X136381658Y-69390410D01*
X136355467Y-69385733D01*
X136245500Y-69415250D01*
X136245500Y-70429500D01*
X136265500Y-70429500D01*
X136265500Y-70430500D01*
X136245500Y-70430500D01*
X136245500Y-71444750D01*
X136355467Y-71474267D01*
X136381658Y-71469590D01*
X136513564Y-71429679D01*
X136635150Y-71364801D01*
X136699000Y-71312477D01*
X136699000Y-75147523D01*
X136635150Y-75095199D01*
X136513564Y-75030321D01*
X136381658Y-74990410D01*
X136355467Y-74985733D01*
X136245500Y-75015250D01*
X136245500Y-76029500D01*
X136265500Y-76029500D01*
X136265500Y-76030500D01*
X136245500Y-76030500D01*
X136245500Y-77044750D01*
X136355467Y-77074267D01*
X136381658Y-77069590D01*
X136513564Y-77029679D01*
X136635150Y-76964801D01*
X136699000Y-76912477D01*
X136699000Y-77699000D01*
X135240223Y-77699000D01*
X135253000Y-77634767D01*
X135253000Y-77565233D01*
X135239434Y-77497034D01*
X135212825Y-77432792D01*
X135174193Y-77374976D01*
X135125024Y-77325807D01*
X135089521Y-77302084D01*
X135112825Y-77267208D01*
X135139434Y-77202966D01*
X135153000Y-77134767D01*
X135153000Y-77065233D01*
X135139434Y-76997034D01*
X135112825Y-76932792D01*
X135074193Y-76874976D01*
X135025024Y-76825807D01*
X134967208Y-76787175D01*
X134914234Y-76765233D01*
X135147000Y-76765233D01*
X135147000Y-76834767D01*
X135160566Y-76902966D01*
X135187175Y-76967208D01*
X135225807Y-77025024D01*
X135274976Y-77074193D01*
X135332792Y-77112825D01*
X135397034Y-77139434D01*
X135465233Y-77153000D01*
X135534767Y-77153000D01*
X135602966Y-77139434D01*
X135667208Y-77112825D01*
X135725024Y-77074193D01*
X135774193Y-77025024D01*
X135812825Y-76967208D01*
X135824219Y-76939699D01*
X135854850Y-76964801D01*
X135976436Y-77029679D01*
X136108342Y-77069590D01*
X136134533Y-77074267D01*
X136244500Y-77044750D01*
X136244500Y-76030500D01*
X135542000Y-76030500D01*
X135542000Y-76380500D01*
X135548876Y-76449806D01*
X135534767Y-76447000D01*
X135465233Y-76447000D01*
X135397034Y-76460566D01*
X135332792Y-76487175D01*
X135274976Y-76525807D01*
X135225807Y-76574976D01*
X135187175Y-76632792D01*
X135160566Y-76697034D01*
X135147000Y-76765233D01*
X134914234Y-76765233D01*
X134902966Y-76760566D01*
X134834767Y-76747000D01*
X134765233Y-76747000D01*
X134697034Y-76760566D01*
X134632792Y-76787175D01*
X134574976Y-76825807D01*
X134525807Y-76874976D01*
X134487175Y-76932792D01*
X134460566Y-76997034D01*
X134447000Y-77065233D01*
X134447000Y-77134767D01*
X134450038Y-77150038D01*
X134434767Y-77147000D01*
X134365233Y-77147000D01*
X134297034Y-77160566D01*
X134232792Y-77187175D01*
X134174976Y-77225807D01*
X134125807Y-77274976D01*
X134087175Y-77332792D01*
X134060566Y-77397034D01*
X134050000Y-77450151D01*
X134039434Y-77397034D01*
X134012825Y-77332792D01*
X133974193Y-77274976D01*
X133925024Y-77225807D01*
X133867208Y-77187175D01*
X133802966Y-77160566D01*
X133734767Y-77147000D01*
X133665233Y-77147000D01*
X133597034Y-77160566D01*
X133532792Y-77187175D01*
X133474976Y-77225807D01*
X133425807Y-77274976D01*
X133387175Y-77332792D01*
X133360566Y-77397034D01*
X133347000Y-77465233D01*
X133347000Y-77534767D01*
X133360566Y-77602966D01*
X133387175Y-77667208D01*
X133408418Y-77699000D01*
X130426733Y-77699000D01*
X130459742Y-77692434D01*
X130523984Y-77665825D01*
X130581800Y-77627193D01*
X130630969Y-77578024D01*
X130669601Y-77520208D01*
X130696210Y-77455966D01*
X130709776Y-77387767D01*
X130709776Y-77318233D01*
X130696210Y-77250034D01*
X130669601Y-77185792D01*
X130630969Y-77127976D01*
X130581800Y-77078807D01*
X130523984Y-77040175D01*
X130459742Y-77013566D01*
X130391543Y-77000000D01*
X130322009Y-77000000D01*
X130253810Y-77013566D01*
X130189568Y-77040175D01*
X130131752Y-77078807D01*
X130105775Y-77104785D01*
X130079797Y-77078807D01*
X130021981Y-77040175D01*
X129957739Y-77013566D01*
X129889540Y-77000000D01*
X129820006Y-77000000D01*
X129751807Y-77013566D01*
X129687565Y-77040175D01*
X129629749Y-77078807D01*
X129580580Y-77127976D01*
X129541948Y-77185792D01*
X129515339Y-77250034D01*
X129501773Y-77318233D01*
X129501773Y-77387767D01*
X129515339Y-77455966D01*
X129541948Y-77520208D01*
X129580580Y-77578024D01*
X129629749Y-77627193D01*
X129687565Y-77665825D01*
X129751807Y-77692434D01*
X129784816Y-77699000D01*
X123657074Y-77699000D01*
X123669851Y-77634767D01*
X123669851Y-77565233D01*
X123656285Y-77497034D01*
X123629676Y-77432792D01*
X123591044Y-77374976D01*
X123541875Y-77325807D01*
X123484059Y-77287175D01*
X123419817Y-77260566D01*
X123351618Y-77247000D01*
X123282084Y-77247000D01*
X123213885Y-77260566D01*
X123149643Y-77287175D01*
X123091827Y-77325807D01*
X123042658Y-77374976D01*
X123004026Y-77432792D01*
X122977417Y-77497034D01*
X122963851Y-77565233D01*
X122963851Y-77634767D01*
X122976628Y-77699000D01*
X120940223Y-77699000D01*
X120953000Y-77634767D01*
X120953000Y-77565233D01*
X120939434Y-77497034D01*
X120912825Y-77432792D01*
X120874193Y-77374976D01*
X120825024Y-77325807D01*
X120767208Y-77287175D01*
X120702966Y-77260566D01*
X120634767Y-77247000D01*
X120565233Y-77247000D01*
X120497034Y-77260566D01*
X120432792Y-77287175D01*
X120374976Y-77325807D01*
X120325807Y-77374976D01*
X120287175Y-77432792D01*
X120260566Y-77497034D01*
X120247000Y-77565233D01*
X120247000Y-77634767D01*
X120259777Y-77699000D01*
X117300231Y-77699000D01*
X117327208Y-77687826D01*
X117385024Y-77649194D01*
X117434193Y-77600025D01*
X117472825Y-77542209D01*
X117499434Y-77477967D01*
X117513000Y-77409768D01*
X117513000Y-77340234D01*
X117499434Y-77272035D01*
X117472825Y-77207793D01*
X117434193Y-77149977D01*
X117385024Y-77100808D01*
X117327208Y-77062176D01*
X117262966Y-77035567D01*
X117194767Y-77022001D01*
X117125233Y-77022001D01*
X117057034Y-77035567D01*
X116992792Y-77062176D01*
X116934976Y-77100808D01*
X116885807Y-77149977D01*
X116847175Y-77207793D01*
X116820566Y-77272035D01*
X116807000Y-77340234D01*
X116807000Y-77409768D01*
X116820566Y-77477967D01*
X116847175Y-77542209D01*
X116885807Y-77600025D01*
X116934976Y-77649194D01*
X116992792Y-77687826D01*
X117019769Y-77699000D01*
X112301000Y-77699000D01*
X112301000Y-76995233D01*
X112587000Y-76995233D01*
X112587000Y-77064767D01*
X112600566Y-77132966D01*
X112627175Y-77197208D01*
X112665807Y-77255024D01*
X112714976Y-77304193D01*
X112772792Y-77342825D01*
X112837034Y-77369434D01*
X112905233Y-77383000D01*
X112974767Y-77383000D01*
X113042966Y-77369434D01*
X113107208Y-77342825D01*
X113165024Y-77304193D01*
X113214193Y-77255024D01*
X113252825Y-77197208D01*
X113279434Y-77132966D01*
X113293000Y-77064767D01*
X113293000Y-76995233D01*
X113279434Y-76927034D01*
X113268603Y-76900883D01*
X117389309Y-76900883D01*
X117389309Y-76970417D01*
X117402875Y-77038616D01*
X117429484Y-77102858D01*
X117468116Y-77160674D01*
X117517285Y-77209843D01*
X117575101Y-77248475D01*
X117639343Y-77275084D01*
X117707542Y-77288650D01*
X117777076Y-77288650D01*
X117845275Y-77275084D01*
X117909517Y-77248475D01*
X117967333Y-77209843D01*
X118016502Y-77160674D01*
X118055134Y-77102858D01*
X118081743Y-77038616D01*
X118095309Y-76970417D01*
X118095309Y-76965233D01*
X121347000Y-76965233D01*
X121347000Y-77034767D01*
X121360566Y-77102966D01*
X121387175Y-77167208D01*
X121425807Y-77225024D01*
X121474976Y-77274193D01*
X121532792Y-77312825D01*
X121597034Y-77339434D01*
X121665233Y-77353000D01*
X121734767Y-77353000D01*
X121802966Y-77339434D01*
X121867208Y-77312825D01*
X121925024Y-77274193D01*
X121974193Y-77225024D01*
X122012825Y-77167208D01*
X122039434Y-77102966D01*
X122053000Y-77034767D01*
X122053000Y-76965233D01*
X122039434Y-76897034D01*
X122012825Y-76832792D01*
X121974193Y-76774976D01*
X121925024Y-76725807D01*
X121867208Y-76687175D01*
X121802966Y-76660566D01*
X121734767Y-76647000D01*
X121665233Y-76647000D01*
X121597034Y-76660566D01*
X121532792Y-76687175D01*
X121474976Y-76725807D01*
X121425807Y-76774976D01*
X121387175Y-76832792D01*
X121360566Y-76897034D01*
X121347000Y-76965233D01*
X118095309Y-76965233D01*
X118095309Y-76900883D01*
X118081743Y-76832684D01*
X118055134Y-76768442D01*
X118016502Y-76710626D01*
X117967333Y-76661457D01*
X117909517Y-76622825D01*
X117845275Y-76596216D01*
X117777076Y-76582650D01*
X117707542Y-76582650D01*
X117639343Y-76596216D01*
X117575101Y-76622825D01*
X117517285Y-76661457D01*
X117468116Y-76710626D01*
X117429484Y-76768442D01*
X117402875Y-76832684D01*
X117389309Y-76900883D01*
X113268603Y-76900883D01*
X113252825Y-76862792D01*
X113214193Y-76804976D01*
X113165024Y-76755807D01*
X113107208Y-76717175D01*
X113042966Y-76690566D01*
X112974767Y-76677000D01*
X112905233Y-76677000D01*
X112837034Y-76690566D01*
X112772792Y-76717175D01*
X112714976Y-76755807D01*
X112665807Y-76804976D01*
X112627175Y-76862792D01*
X112600566Y-76927034D01*
X112587000Y-76995233D01*
X112301000Y-76995233D01*
X112301000Y-76167364D01*
X116524142Y-76167364D01*
X116524142Y-76236898D01*
X116537708Y-76305097D01*
X116564317Y-76369339D01*
X116602949Y-76427155D01*
X116652118Y-76476324D01*
X116709934Y-76514956D01*
X116774176Y-76541565D01*
X116842375Y-76555131D01*
X116911909Y-76555131D01*
X116980108Y-76541565D01*
X117044350Y-76514956D01*
X117102166Y-76476324D01*
X117151335Y-76427155D01*
X117180015Y-76384232D01*
X118007000Y-76384232D01*
X118007000Y-76453766D01*
X118020566Y-76521965D01*
X118047175Y-76586207D01*
X118085807Y-76644023D01*
X118134976Y-76693192D01*
X118192792Y-76731824D01*
X118257034Y-76758433D01*
X118325233Y-76771999D01*
X118394767Y-76771999D01*
X118462966Y-76758433D01*
X118527208Y-76731824D01*
X118585024Y-76693192D01*
X118634193Y-76644023D01*
X118672825Y-76586207D01*
X118699434Y-76521965D01*
X118713000Y-76453766D01*
X118713000Y-76384232D01*
X118699434Y-76316033D01*
X118672825Y-76251791D01*
X118634193Y-76193975D01*
X118585024Y-76144806D01*
X118527208Y-76106174D01*
X118462966Y-76079565D01*
X118394767Y-76065999D01*
X118325233Y-76065999D01*
X118257034Y-76079565D01*
X118192792Y-76106174D01*
X118134976Y-76144806D01*
X118085807Y-76193975D01*
X118047175Y-76251791D01*
X118020566Y-76316033D01*
X118007000Y-76384232D01*
X117180015Y-76384232D01*
X117189967Y-76369339D01*
X117216576Y-76305097D01*
X117230142Y-76236898D01*
X117230142Y-76167364D01*
X117216576Y-76099165D01*
X117189967Y-76034923D01*
X117160533Y-75990872D01*
X117249621Y-75990872D01*
X117249621Y-76060406D01*
X117263187Y-76128605D01*
X117289796Y-76192847D01*
X117328428Y-76250663D01*
X117377597Y-76299832D01*
X117435413Y-76338464D01*
X117499655Y-76365073D01*
X117567854Y-76378639D01*
X117637388Y-76378639D01*
X117705587Y-76365073D01*
X117769829Y-76338464D01*
X117827645Y-76299832D01*
X117876814Y-76250663D01*
X117915446Y-76192847D01*
X117942055Y-76128605D01*
X117954594Y-76065567D01*
X124649553Y-76065567D01*
X124649553Y-76135101D01*
X124663119Y-76203300D01*
X124689728Y-76267542D01*
X124728360Y-76325358D01*
X124777529Y-76374527D01*
X124835345Y-76413159D01*
X124899587Y-76439768D01*
X124967786Y-76453334D01*
X125037320Y-76453334D01*
X125105519Y-76439768D01*
X125169761Y-76413159D01*
X125220146Y-76379492D01*
X125225807Y-76387964D01*
X125274976Y-76437133D01*
X125332792Y-76475765D01*
X125397034Y-76502374D01*
X125465233Y-76515940D01*
X125534767Y-76515940D01*
X125602966Y-76502374D01*
X125667208Y-76475765D01*
X125682970Y-76465233D01*
X126947000Y-76465233D01*
X126947000Y-76534767D01*
X126960566Y-76602966D01*
X126987175Y-76667208D01*
X127025807Y-76725024D01*
X127074976Y-76774193D01*
X127132792Y-76812825D01*
X127197034Y-76839434D01*
X127265233Y-76853000D01*
X127334767Y-76853000D01*
X127402966Y-76839434D01*
X127465024Y-76813730D01*
X127487175Y-76867208D01*
X127525807Y-76925024D01*
X127574976Y-76974193D01*
X127632792Y-77012825D01*
X127697034Y-77039434D01*
X127765233Y-77053000D01*
X127771759Y-77053000D01*
X127760566Y-77080024D01*
X127747000Y-77148223D01*
X127747000Y-77217757D01*
X127760566Y-77285956D01*
X127787175Y-77350198D01*
X127825807Y-77408014D01*
X127874976Y-77457183D01*
X127932792Y-77495815D01*
X127997034Y-77522424D01*
X128065233Y-77535990D01*
X128134767Y-77535990D01*
X128202966Y-77522424D01*
X128267208Y-77495815D01*
X128325024Y-77457183D01*
X128374193Y-77408014D01*
X128412825Y-77350198D01*
X128439434Y-77285956D01*
X128453000Y-77217757D01*
X128453000Y-77148223D01*
X128439434Y-77080024D01*
X128412825Y-77015782D01*
X128374193Y-76957966D01*
X128325024Y-76908797D01*
X128267208Y-76870165D01*
X128202966Y-76843556D01*
X128134767Y-76829990D01*
X128128241Y-76829990D01*
X128139434Y-76802966D01*
X128153000Y-76734767D01*
X128153000Y-76665233D01*
X128139434Y-76597034D01*
X128112825Y-76532792D01*
X128074193Y-76474976D01*
X128025024Y-76425807D01*
X127967208Y-76387175D01*
X127914234Y-76365233D01*
X132647000Y-76365233D01*
X132647000Y-76434767D01*
X132660566Y-76502966D01*
X132687175Y-76567208D01*
X132725807Y-76625024D01*
X132774976Y-76674193D01*
X132832792Y-76712825D01*
X132897034Y-76739434D01*
X132965233Y-76753000D01*
X133034767Y-76753000D01*
X133102966Y-76739434D01*
X133167208Y-76712825D01*
X133225024Y-76674193D01*
X133274193Y-76625024D01*
X133312825Y-76567208D01*
X133318575Y-76553325D01*
X133332792Y-76562825D01*
X133397034Y-76589434D01*
X133465233Y-76603000D01*
X133534767Y-76603000D01*
X133602966Y-76589434D01*
X133667208Y-76562825D01*
X133725024Y-76524193D01*
X133774193Y-76475024D01*
X133812825Y-76417208D01*
X133839434Y-76352966D01*
X133853000Y-76284767D01*
X133853000Y-76215233D01*
X133839434Y-76147034D01*
X133812825Y-76082792D01*
X133774193Y-76024976D01*
X133725024Y-75975807D01*
X133667208Y-75937175D01*
X133602966Y-75910566D01*
X133534767Y-75897000D01*
X133465233Y-75897000D01*
X133397034Y-75910566D01*
X133332792Y-75937175D01*
X133274976Y-75975807D01*
X133225807Y-76024976D01*
X133187175Y-76082792D01*
X133181425Y-76096675D01*
X133167208Y-76087175D01*
X133102966Y-76060566D01*
X133034767Y-76047000D01*
X132965233Y-76047000D01*
X132897034Y-76060566D01*
X132832792Y-76087175D01*
X132774976Y-76125807D01*
X132725807Y-76174976D01*
X132687175Y-76232792D01*
X132660566Y-76297034D01*
X132647000Y-76365233D01*
X127914234Y-76365233D01*
X127902966Y-76360566D01*
X127834767Y-76347000D01*
X127765233Y-76347000D01*
X127697034Y-76360566D01*
X127634976Y-76386270D01*
X127612825Y-76332792D01*
X127574193Y-76274976D01*
X127525024Y-76225807D01*
X127467208Y-76187175D01*
X127402966Y-76160566D01*
X127334767Y-76147000D01*
X127265233Y-76147000D01*
X127197034Y-76160566D01*
X127132792Y-76187175D01*
X127074976Y-76225807D01*
X127025807Y-76274976D01*
X126987175Y-76332792D01*
X126960566Y-76397034D01*
X126947000Y-76465233D01*
X125682970Y-76465233D01*
X125725024Y-76437133D01*
X125774193Y-76387964D01*
X125812825Y-76330148D01*
X125822773Y-76306130D01*
X125832792Y-76312825D01*
X125897034Y-76339434D01*
X125965233Y-76353000D01*
X126034767Y-76353000D01*
X126102966Y-76339434D01*
X126167208Y-76312825D01*
X126225024Y-76274193D01*
X126274193Y-76225024D01*
X126312825Y-76167208D01*
X126339434Y-76102966D01*
X126353000Y-76034767D01*
X126353000Y-75965233D01*
X126339434Y-75897034D01*
X126312825Y-75832792D01*
X126274193Y-75774976D01*
X126225024Y-75725807D01*
X126167208Y-75687175D01*
X126102966Y-75660566D01*
X126034767Y-75647000D01*
X125965233Y-75647000D01*
X125897034Y-75660566D01*
X125832792Y-75687175D01*
X125774976Y-75725807D01*
X125725807Y-75774976D01*
X125687175Y-75832792D01*
X125677227Y-75856810D01*
X125667208Y-75850115D01*
X125602966Y-75823506D01*
X125534767Y-75809940D01*
X125465233Y-75809940D01*
X125397034Y-75823506D01*
X125332792Y-75850115D01*
X125282407Y-75883782D01*
X125276746Y-75875310D01*
X125227577Y-75826141D01*
X125169761Y-75787509D01*
X125105519Y-75760900D01*
X125037320Y-75747334D01*
X124967786Y-75747334D01*
X124899587Y-75760900D01*
X124835345Y-75787509D01*
X124777529Y-75826141D01*
X124728360Y-75875310D01*
X124689728Y-75933126D01*
X124663119Y-75997368D01*
X124649553Y-76065567D01*
X117954594Y-76065567D01*
X117955621Y-76060406D01*
X117955621Y-75990872D01*
X117942055Y-75922673D01*
X117915446Y-75858431D01*
X117876814Y-75800615D01*
X117827645Y-75751446D01*
X117769829Y-75712814D01*
X117705587Y-75686205D01*
X117637388Y-75672639D01*
X117567854Y-75672639D01*
X117499655Y-75686205D01*
X117435413Y-75712814D01*
X117377597Y-75751446D01*
X117328428Y-75800615D01*
X117289796Y-75858431D01*
X117263187Y-75922673D01*
X117249621Y-75990872D01*
X117160533Y-75990872D01*
X117151335Y-75977107D01*
X117102166Y-75927938D01*
X117044350Y-75889306D01*
X116980108Y-75862697D01*
X116911909Y-75849131D01*
X116842375Y-75849131D01*
X116774176Y-75862697D01*
X116709934Y-75889306D01*
X116652118Y-75927938D01*
X116602949Y-75977107D01*
X116564317Y-76034923D01*
X116537708Y-76099165D01*
X116524142Y-76167364D01*
X112301000Y-76167364D01*
X112301000Y-75820736D01*
X112305903Y-75822767D01*
X112374102Y-75836333D01*
X112443636Y-75836333D01*
X112511835Y-75822767D01*
X112576077Y-75796158D01*
X112633893Y-75757526D01*
X112683062Y-75708357D01*
X112721694Y-75650541D01*
X112748303Y-75586299D01*
X112761869Y-75518100D01*
X112761869Y-75448566D01*
X112748303Y-75380367D01*
X112742865Y-75367236D01*
X116847000Y-75367236D01*
X116847000Y-75436770D01*
X116860566Y-75504969D01*
X116887175Y-75569211D01*
X116925807Y-75627027D01*
X116974976Y-75676196D01*
X117032792Y-75714828D01*
X117097034Y-75741437D01*
X117165233Y-75755003D01*
X117234767Y-75755003D01*
X117302966Y-75741437D01*
X117367208Y-75714828D01*
X117425024Y-75676196D01*
X117474193Y-75627027D01*
X117512825Y-75569211D01*
X117539434Y-75504969D01*
X117553000Y-75436770D01*
X117553000Y-75367236D01*
X117539434Y-75299037D01*
X117512825Y-75234795D01*
X117474193Y-75176979D01*
X117425024Y-75127810D01*
X117367208Y-75089178D01*
X117302966Y-75062569D01*
X117234767Y-75049003D01*
X117165233Y-75049003D01*
X117097034Y-75062569D01*
X117032792Y-75089178D01*
X116974976Y-75127810D01*
X116925807Y-75176979D01*
X116887175Y-75234795D01*
X116860566Y-75299037D01*
X116847000Y-75367236D01*
X112742865Y-75367236D01*
X112721694Y-75316125D01*
X112683062Y-75258309D01*
X112633893Y-75209140D01*
X112576077Y-75170508D01*
X112511835Y-75143899D01*
X112443636Y-75130333D01*
X112374102Y-75130333D01*
X112305903Y-75143899D01*
X112301000Y-75145930D01*
X112301000Y-74865233D01*
X117349003Y-74865233D01*
X117349003Y-74934767D01*
X117362569Y-75002966D01*
X117389178Y-75067208D01*
X117427810Y-75125024D01*
X117476979Y-75174193D01*
X117534795Y-75212825D01*
X117599037Y-75239434D01*
X117667236Y-75253000D01*
X117736770Y-75253000D01*
X117804969Y-75239434D01*
X117869211Y-75212825D01*
X117927027Y-75174193D01*
X117976196Y-75125024D01*
X118014828Y-75067208D01*
X118041437Y-75002966D01*
X118055003Y-74934767D01*
X118055003Y-74931426D01*
X119738625Y-74931426D01*
X119738625Y-75000960D01*
X119752191Y-75069159D01*
X119778800Y-75133401D01*
X119817432Y-75191217D01*
X119829312Y-75203097D01*
X119817432Y-75214976D01*
X119778800Y-75272792D01*
X119752191Y-75337034D01*
X119738625Y-75405233D01*
X119738625Y-75474767D01*
X119752191Y-75542966D01*
X119778800Y-75607208D01*
X119817432Y-75665024D01*
X119866601Y-75714193D01*
X119924417Y-75752825D01*
X119988659Y-75779434D01*
X120056858Y-75793000D01*
X120126392Y-75793000D01*
X120194591Y-75779434D01*
X120258833Y-75752825D01*
X120316649Y-75714193D01*
X120365818Y-75665024D01*
X120404450Y-75607208D01*
X120431059Y-75542966D01*
X120441908Y-75488422D01*
X120648636Y-75488422D01*
X120648636Y-75557956D01*
X120662202Y-75626155D01*
X120688811Y-75690397D01*
X120727443Y-75748213D01*
X120776612Y-75797382D01*
X120834428Y-75836014D01*
X120898670Y-75862623D01*
X120966869Y-75876189D01*
X121036403Y-75876189D01*
X121104602Y-75862623D01*
X121168844Y-75836014D01*
X121226660Y-75797382D01*
X121275829Y-75748213D01*
X121314461Y-75690397D01*
X121341070Y-75626155D01*
X121354636Y-75557956D01*
X121354636Y-75488422D01*
X121341070Y-75420223D01*
X121314461Y-75355981D01*
X121313901Y-75355142D01*
X122447000Y-75355142D01*
X122447000Y-75424676D01*
X122460566Y-75492875D01*
X122487175Y-75557117D01*
X122525807Y-75614933D01*
X122574976Y-75664102D01*
X122632792Y-75702734D01*
X122697034Y-75729343D01*
X122765233Y-75742909D01*
X122834767Y-75742909D01*
X122902966Y-75729343D01*
X122967208Y-75702734D01*
X123025024Y-75664102D01*
X123074193Y-75614933D01*
X123112825Y-75557117D01*
X123139434Y-75492875D01*
X123153000Y-75424676D01*
X123153000Y-75355142D01*
X123139434Y-75286943D01*
X123112825Y-75222701D01*
X123074193Y-75164885D01*
X123054111Y-75144803D01*
X123055024Y-75144193D01*
X123104193Y-75095024D01*
X123142825Y-75037208D01*
X123169434Y-74972966D01*
X123183000Y-74904767D01*
X123183000Y-74835233D01*
X123169434Y-74767034D01*
X123142825Y-74702792D01*
X123104193Y-74644976D01*
X123074450Y-74615233D01*
X123907000Y-74615233D01*
X123907000Y-74684767D01*
X123920566Y-74752966D01*
X123947175Y-74817208D01*
X123985807Y-74875024D01*
X124034976Y-74924193D01*
X124092792Y-74962825D01*
X124157034Y-74989434D01*
X124225233Y-75003000D01*
X124247000Y-75003000D01*
X124247000Y-75059767D01*
X124260566Y-75127966D01*
X124287175Y-75192208D01*
X124325807Y-75250024D01*
X124374976Y-75299193D01*
X124432792Y-75337825D01*
X124497034Y-75364434D01*
X124565233Y-75378000D01*
X124634767Y-75378000D01*
X124702966Y-75364434D01*
X124767208Y-75337825D01*
X124825024Y-75299193D01*
X124874193Y-75250024D01*
X124912825Y-75192208D01*
X124939434Y-75127966D01*
X124953000Y-75059767D01*
X124953000Y-74990233D01*
X124939434Y-74922034D01*
X124912825Y-74857792D01*
X124874193Y-74799976D01*
X124837859Y-74763642D01*
X126710043Y-74763642D01*
X126710043Y-74833176D01*
X126723609Y-74901375D01*
X126750218Y-74965617D01*
X126788850Y-75023433D01*
X126820991Y-75055574D01*
X126811056Y-75065508D01*
X126772424Y-75123324D01*
X126745815Y-75187566D01*
X126732249Y-75255765D01*
X126732249Y-75325299D01*
X126745815Y-75393498D01*
X126772424Y-75457740D01*
X126811056Y-75515556D01*
X126860225Y-75564725D01*
X126918041Y-75603357D01*
X126982283Y-75629966D01*
X127050482Y-75643532D01*
X127120016Y-75643532D01*
X127188215Y-75629966D01*
X127252457Y-75603357D01*
X127310273Y-75564725D01*
X127359442Y-75515556D01*
X127398074Y-75457740D01*
X127424683Y-75393498D01*
X127438249Y-75325299D01*
X127438249Y-75255765D01*
X127424683Y-75187566D01*
X127398074Y-75123324D01*
X127359442Y-75065508D01*
X127327302Y-75033368D01*
X127337236Y-75023433D01*
X127375868Y-74965617D01*
X127402477Y-74901375D01*
X127416043Y-74833176D01*
X127416043Y-74763642D01*
X127402477Y-74695443D01*
X127375868Y-74631201D01*
X127359373Y-74606515D01*
X133109857Y-74606515D01*
X133109857Y-74676049D01*
X133123423Y-74744248D01*
X133150032Y-74808490D01*
X133188664Y-74866306D01*
X133237833Y-74915475D01*
X133295649Y-74954107D01*
X133359891Y-74980716D01*
X133428090Y-74994282D01*
X133497624Y-74994282D01*
X133565823Y-74980716D01*
X133630065Y-74954107D01*
X133687881Y-74915475D01*
X133737050Y-74866306D01*
X133775682Y-74808490D01*
X133802291Y-74744248D01*
X133808062Y-74715233D01*
X135047000Y-74715233D01*
X135047000Y-74784767D01*
X135060566Y-74852966D01*
X135087175Y-74917208D01*
X135125807Y-74975024D01*
X135131782Y-74980999D01*
X135097175Y-75032792D01*
X135070566Y-75097034D01*
X135057000Y-75165233D01*
X135057000Y-75234767D01*
X135070566Y-75302966D01*
X135097175Y-75367208D01*
X135135807Y-75425024D01*
X135184976Y-75474193D01*
X135242792Y-75512825D01*
X135307034Y-75539434D01*
X135375233Y-75553000D01*
X135444767Y-75553000D01*
X135512966Y-75539434D01*
X135562769Y-75518806D01*
X135555605Y-75542361D01*
X135542000Y-75679500D01*
X135542000Y-76029500D01*
X136244500Y-76029500D01*
X136244500Y-75015250D01*
X136134533Y-74985733D01*
X136108342Y-74990410D01*
X135976436Y-75030321D01*
X135854850Y-75095199D01*
X135763000Y-75170469D01*
X135763000Y-75165233D01*
X135749434Y-75097034D01*
X135722825Y-75032792D01*
X135684193Y-74974976D01*
X135678218Y-74969001D01*
X135712825Y-74917208D01*
X135739434Y-74852966D01*
X135753000Y-74784767D01*
X135753000Y-74715233D01*
X135739434Y-74647034D01*
X135712825Y-74582792D01*
X135674193Y-74524976D01*
X135625024Y-74475807D01*
X135567208Y-74437175D01*
X135502966Y-74410566D01*
X135434767Y-74397000D01*
X135365233Y-74397000D01*
X135297034Y-74410566D01*
X135232792Y-74437175D01*
X135174976Y-74475807D01*
X135125807Y-74524976D01*
X135087175Y-74582792D01*
X135060566Y-74647034D01*
X135047000Y-74715233D01*
X133808062Y-74715233D01*
X133815857Y-74676049D01*
X133815857Y-74606515D01*
X133802291Y-74538316D01*
X133775682Y-74474074D01*
X133737050Y-74416258D01*
X133687881Y-74367089D01*
X133630065Y-74328457D01*
X133565823Y-74301848D01*
X133497624Y-74288282D01*
X133428090Y-74288282D01*
X133359891Y-74301848D01*
X133295649Y-74328457D01*
X133237833Y-74367089D01*
X133188664Y-74416258D01*
X133150032Y-74474074D01*
X133123423Y-74538316D01*
X133109857Y-74606515D01*
X127359373Y-74606515D01*
X127351031Y-74594031D01*
X127376230Y-74577193D01*
X127425399Y-74528024D01*
X127464031Y-74470208D01*
X127490640Y-74405966D01*
X127504206Y-74337767D01*
X127504206Y-74268233D01*
X127490640Y-74200034D01*
X127464031Y-74135792D01*
X127425399Y-74077976D01*
X127376230Y-74028807D01*
X127318414Y-73990175D01*
X127254172Y-73963566D01*
X127185973Y-73950000D01*
X127116439Y-73950000D01*
X127048240Y-73963566D01*
X126983998Y-73990175D01*
X126926182Y-74028807D01*
X126877013Y-74077976D01*
X126838381Y-74135792D01*
X126811772Y-74200034D01*
X126798206Y-74268233D01*
X126798206Y-74337767D01*
X126811772Y-74405966D01*
X126838381Y-74470208D01*
X126863218Y-74507378D01*
X126838019Y-74524216D01*
X126788850Y-74573385D01*
X126750218Y-74631201D01*
X126723609Y-74695443D01*
X126710043Y-74763642D01*
X124837859Y-74763642D01*
X124825024Y-74750807D01*
X124767208Y-74712175D01*
X124702966Y-74685566D01*
X124634767Y-74672000D01*
X124613000Y-74672000D01*
X124613000Y-74615233D01*
X124599434Y-74547034D01*
X124572825Y-74482792D01*
X124534193Y-74424976D01*
X124485024Y-74375807D01*
X124427208Y-74337175D01*
X124362966Y-74310566D01*
X124294767Y-74297000D01*
X124225233Y-74297000D01*
X124157034Y-74310566D01*
X124092792Y-74337175D01*
X124034976Y-74375807D01*
X123985807Y-74424976D01*
X123947175Y-74482792D01*
X123920566Y-74547034D01*
X123907000Y-74615233D01*
X123074450Y-74615233D01*
X123055024Y-74595807D01*
X122997208Y-74557175D01*
X122932966Y-74530566D01*
X122864767Y-74517000D01*
X122795233Y-74517000D01*
X122727034Y-74530566D01*
X122662792Y-74557175D01*
X122604976Y-74595807D01*
X122555807Y-74644976D01*
X122517175Y-74702792D01*
X122490566Y-74767034D01*
X122477000Y-74835233D01*
X122477000Y-74904767D01*
X122490566Y-74972966D01*
X122517175Y-75037208D01*
X122555807Y-75095024D01*
X122575889Y-75115106D01*
X122574976Y-75115716D01*
X122525807Y-75164885D01*
X122487175Y-75222701D01*
X122460566Y-75286943D01*
X122447000Y-75355142D01*
X121313901Y-75355142D01*
X121275829Y-75298165D01*
X121226660Y-75248996D01*
X121168844Y-75210364D01*
X121104602Y-75183755D01*
X121036403Y-75170189D01*
X120966869Y-75170189D01*
X120898670Y-75183755D01*
X120834428Y-75210364D01*
X120776612Y-75248996D01*
X120727443Y-75298165D01*
X120688811Y-75355981D01*
X120662202Y-75420223D01*
X120648636Y-75488422D01*
X120441908Y-75488422D01*
X120444625Y-75474767D01*
X120444625Y-75405233D01*
X120431059Y-75337034D01*
X120404450Y-75272792D01*
X120365818Y-75214976D01*
X120353939Y-75203097D01*
X120365818Y-75191217D01*
X120404450Y-75133401D01*
X120431059Y-75069159D01*
X120444625Y-75000960D01*
X120444625Y-74931426D01*
X120431059Y-74863227D01*
X120404450Y-74798985D01*
X120365818Y-74741169D01*
X120316649Y-74692000D01*
X120258833Y-74653368D01*
X120194591Y-74626759D01*
X120126392Y-74613193D01*
X120056858Y-74613193D01*
X119988659Y-74626759D01*
X119924417Y-74653368D01*
X119866601Y-74692000D01*
X119817432Y-74741169D01*
X119778800Y-74798985D01*
X119752191Y-74863227D01*
X119738625Y-74931426D01*
X118055003Y-74931426D01*
X118055003Y-74865233D01*
X118041437Y-74797034D01*
X118014828Y-74732792D01*
X117976196Y-74674976D01*
X117927027Y-74625807D01*
X117869211Y-74587175D01*
X117804969Y-74560566D01*
X117736770Y-74547000D01*
X117667236Y-74547000D01*
X117599037Y-74560566D01*
X117534795Y-74587175D01*
X117476979Y-74625807D01*
X117427810Y-74674976D01*
X117389178Y-74732792D01*
X117362569Y-74797034D01*
X117349003Y-74865233D01*
X112301000Y-74865233D01*
X112301000Y-73614669D01*
X116175649Y-73614669D01*
X116175649Y-73684203D01*
X116189215Y-73752402D01*
X116215824Y-73816644D01*
X116254456Y-73874460D01*
X116303625Y-73923629D01*
X116361441Y-73962261D01*
X116425683Y-73988870D01*
X116493882Y-74002436D01*
X116563416Y-74002436D01*
X116631615Y-73988870D01*
X116695857Y-73962261D01*
X116753673Y-73923629D01*
X116772706Y-73904596D01*
X121047456Y-73904596D01*
X121047456Y-73974130D01*
X121061022Y-74042329D01*
X121087631Y-74106571D01*
X121126263Y-74164387D01*
X121175432Y-74213556D01*
X121233248Y-74252188D01*
X121297490Y-74278797D01*
X121365689Y-74292363D01*
X121435223Y-74292363D01*
X121503422Y-74278797D01*
X121567664Y-74252188D01*
X121625480Y-74213556D01*
X121674649Y-74164387D01*
X121713281Y-74106571D01*
X121739890Y-74042329D01*
X121753456Y-73974130D01*
X121753456Y-73904596D01*
X121739890Y-73836397D01*
X121713281Y-73772155D01*
X121674649Y-73714339D01*
X121625480Y-73665170D01*
X121567664Y-73626538D01*
X121503422Y-73599929D01*
X121435223Y-73586363D01*
X121365689Y-73586363D01*
X121297490Y-73599929D01*
X121233248Y-73626538D01*
X121175432Y-73665170D01*
X121126263Y-73714339D01*
X121087631Y-73772155D01*
X121061022Y-73836397D01*
X121047456Y-73904596D01*
X116772706Y-73904596D01*
X116802842Y-73874460D01*
X116841474Y-73816644D01*
X116868083Y-73752402D01*
X116881649Y-73684203D01*
X116881649Y-73614669D01*
X116868083Y-73546470D01*
X116841474Y-73482228D01*
X116802842Y-73424412D01*
X116753673Y-73375243D01*
X116695857Y-73336611D01*
X116631615Y-73310002D01*
X116563416Y-73296436D01*
X116493882Y-73296436D01*
X116425683Y-73310002D01*
X116361441Y-73336611D01*
X116303625Y-73375243D01*
X116254456Y-73424412D01*
X116215824Y-73482228D01*
X116189215Y-73546470D01*
X116175649Y-73614669D01*
X112301000Y-73614669D01*
X112301000Y-72511996D01*
X116481173Y-72511996D01*
X116481173Y-72581530D01*
X116494739Y-72649729D01*
X116521348Y-72713971D01*
X116559980Y-72771787D01*
X116609149Y-72820956D01*
X116666965Y-72859588D01*
X116731207Y-72886197D01*
X116799406Y-72899763D01*
X116868940Y-72899763D01*
X116937139Y-72886197D01*
X117001381Y-72859588D01*
X117059197Y-72820956D01*
X117104850Y-72775303D01*
X126565990Y-72775303D01*
X126565990Y-72844837D01*
X126579556Y-72913036D01*
X126606165Y-72977278D01*
X126644797Y-73035094D01*
X126693966Y-73084263D01*
X126751782Y-73122895D01*
X126770242Y-73130541D01*
X126725807Y-73174976D01*
X126687175Y-73232792D01*
X126660566Y-73297034D01*
X126647000Y-73365233D01*
X126647000Y-73434767D01*
X126660566Y-73502966D01*
X126687175Y-73567208D01*
X126725807Y-73625024D01*
X126774976Y-73674193D01*
X126832792Y-73712825D01*
X126897034Y-73739434D01*
X126965233Y-73753000D01*
X127034767Y-73753000D01*
X127102966Y-73739434D01*
X127167208Y-73712825D01*
X127225024Y-73674193D01*
X127274193Y-73625024D01*
X127312825Y-73567208D01*
X127339434Y-73502966D01*
X127353000Y-73434767D01*
X127353000Y-73365233D01*
X127339434Y-73297034D01*
X127312825Y-73232792D01*
X127311294Y-73230500D01*
X133392000Y-73230500D01*
X133392000Y-73780500D01*
X133405605Y-73917639D01*
X133445704Y-74049489D01*
X133510755Y-74170982D01*
X133598258Y-74277450D01*
X133704850Y-74364801D01*
X133826436Y-74429679D01*
X133958342Y-74469590D01*
X133984533Y-74474267D01*
X134094500Y-74444750D01*
X134094500Y-73230500D01*
X133392000Y-73230500D01*
X127311294Y-73230500D01*
X127274193Y-73174976D01*
X127225024Y-73125807D01*
X127167208Y-73087175D01*
X127148748Y-73079529D01*
X127193183Y-73035094D01*
X127231815Y-72977278D01*
X127258424Y-72913036D01*
X127271990Y-72844837D01*
X127271990Y-72775303D01*
X127258424Y-72707104D01*
X127246991Y-72679500D01*
X133392000Y-72679500D01*
X133392000Y-73229500D01*
X134094500Y-73229500D01*
X134094500Y-72015250D01*
X134095500Y-72015250D01*
X134095500Y-73229500D01*
X134115500Y-73229500D01*
X134115500Y-73230500D01*
X134095500Y-73230500D01*
X134095500Y-74444750D01*
X134205467Y-74474267D01*
X134231658Y-74469590D01*
X134363564Y-74429679D01*
X134485150Y-74364801D01*
X134591742Y-74277450D01*
X134679245Y-74170982D01*
X134744296Y-74049489D01*
X134784395Y-73917639D01*
X134798000Y-73780500D01*
X134798000Y-73650367D01*
X134844034Y-73669434D01*
X134912233Y-73683000D01*
X134981767Y-73683000D01*
X135049966Y-73669434D01*
X135114208Y-73642825D01*
X135172024Y-73604193D01*
X135221193Y-73555024D01*
X135259825Y-73497208D01*
X135286434Y-73432966D01*
X135300000Y-73364767D01*
X135300000Y-73295233D01*
X135286434Y-73227034D01*
X135259825Y-73162792D01*
X135221193Y-73104976D01*
X135172024Y-73055807D01*
X135114208Y-73017175D01*
X135049966Y-72990566D01*
X134981767Y-72977000D01*
X134912233Y-72977000D01*
X134844034Y-72990566D01*
X134798000Y-73009633D01*
X134798000Y-72679500D01*
X134784395Y-72542361D01*
X134744296Y-72410511D01*
X134679245Y-72289018D01*
X134591742Y-72182550D01*
X134485150Y-72095199D01*
X134363564Y-72030321D01*
X134231658Y-71990410D01*
X134205467Y-71985733D01*
X134095500Y-72015250D01*
X134094500Y-72015250D01*
X133984533Y-71985733D01*
X133958342Y-71990410D01*
X133826436Y-72030321D01*
X133704850Y-72095199D01*
X133598258Y-72182550D01*
X133510755Y-72289018D01*
X133445704Y-72410511D01*
X133405605Y-72542361D01*
X133392000Y-72679500D01*
X127246991Y-72679500D01*
X127231815Y-72642862D01*
X127193183Y-72585046D01*
X127166222Y-72558085D01*
X127227208Y-72532825D01*
X127285024Y-72494193D01*
X127334193Y-72445024D01*
X127372825Y-72387208D01*
X127399434Y-72322966D01*
X127413000Y-72254767D01*
X127413000Y-72185233D01*
X127399434Y-72117034D01*
X127372825Y-72052792D01*
X127334193Y-71994976D01*
X127324450Y-71985233D01*
X127747000Y-71985233D01*
X127747000Y-72054767D01*
X127760566Y-72122966D01*
X127787175Y-72187208D01*
X127825807Y-72245024D01*
X127874976Y-72294193D01*
X127932792Y-72332825D01*
X127997034Y-72359434D01*
X128065233Y-72373000D01*
X128134767Y-72373000D01*
X128202966Y-72359434D01*
X128267208Y-72332825D01*
X128325024Y-72294193D01*
X128374193Y-72245024D01*
X128412825Y-72187208D01*
X128439434Y-72122966D01*
X128453000Y-72054767D01*
X128453000Y-71985233D01*
X128439434Y-71917034D01*
X128412825Y-71852792D01*
X128375330Y-71796677D01*
X132127629Y-71796677D01*
X132127629Y-71866211D01*
X132141195Y-71934410D01*
X132167804Y-71998652D01*
X132206436Y-72056468D01*
X132255605Y-72105637D01*
X132313421Y-72144269D01*
X132377663Y-72170878D01*
X132445862Y-72184444D01*
X132515396Y-72184444D01*
X132583595Y-72170878D01*
X132647837Y-72144269D01*
X132673892Y-72126859D01*
X132697257Y-72161827D01*
X132746426Y-72210996D01*
X132804242Y-72249628D01*
X132868484Y-72276237D01*
X132936683Y-72289803D01*
X133006217Y-72289803D01*
X133074416Y-72276237D01*
X133138658Y-72249628D01*
X133196474Y-72210996D01*
X133245643Y-72161827D01*
X133284275Y-72104011D01*
X133310884Y-72039769D01*
X133324450Y-71971570D01*
X133324450Y-71902036D01*
X133310884Y-71833837D01*
X133284275Y-71769595D01*
X133245643Y-71711779D01*
X133196474Y-71662610D01*
X133138658Y-71623978D01*
X133074416Y-71597369D01*
X133006217Y-71583803D01*
X132936683Y-71583803D01*
X132868484Y-71597369D01*
X132804242Y-71623978D01*
X132778187Y-71641388D01*
X132754822Y-71606420D01*
X132705653Y-71557251D01*
X132647837Y-71518619D01*
X132583595Y-71492010D01*
X132515396Y-71478444D01*
X132445862Y-71478444D01*
X132377663Y-71492010D01*
X132313421Y-71518619D01*
X132255605Y-71557251D01*
X132206436Y-71606420D01*
X132167804Y-71664236D01*
X132141195Y-71728478D01*
X132127629Y-71796677D01*
X128375330Y-71796677D01*
X128374193Y-71794976D01*
X128325024Y-71745807D01*
X128267208Y-71707175D01*
X128202966Y-71680566D01*
X128134767Y-71667000D01*
X128065233Y-71667000D01*
X127997034Y-71680566D01*
X127932792Y-71707175D01*
X127874976Y-71745807D01*
X127825807Y-71794976D01*
X127787175Y-71852792D01*
X127760566Y-71917034D01*
X127747000Y-71985233D01*
X127324450Y-71985233D01*
X127285024Y-71945807D01*
X127227208Y-71907175D01*
X127162966Y-71880566D01*
X127094767Y-71867000D01*
X127025233Y-71867000D01*
X126957034Y-71880566D01*
X126892792Y-71907175D01*
X126834976Y-71945807D01*
X126785807Y-71994976D01*
X126747175Y-72052792D01*
X126720566Y-72117034D01*
X126707000Y-72185233D01*
X126707000Y-72254767D01*
X126720566Y-72322966D01*
X126747175Y-72387208D01*
X126785807Y-72445024D01*
X126812768Y-72471985D01*
X126751782Y-72497245D01*
X126693966Y-72535877D01*
X126644797Y-72585046D01*
X126606165Y-72642862D01*
X126579556Y-72707104D01*
X126565990Y-72775303D01*
X117104850Y-72775303D01*
X117108366Y-72771787D01*
X117146998Y-72713971D01*
X117173607Y-72649729D01*
X117187173Y-72581530D01*
X117187173Y-72511996D01*
X117173607Y-72443797D01*
X117146998Y-72379555D01*
X117108366Y-72321739D01*
X117059197Y-72272570D01*
X117001381Y-72233938D01*
X116937139Y-72207329D01*
X116868940Y-72193763D01*
X116799406Y-72193763D01*
X116731207Y-72207329D01*
X116666965Y-72233938D01*
X116609149Y-72272570D01*
X116559980Y-72321739D01*
X116521348Y-72379555D01*
X116494739Y-72443797D01*
X116481173Y-72511996D01*
X112301000Y-72511996D01*
X112301000Y-72069115D01*
X112588264Y-72069115D01*
X112588264Y-72138649D01*
X112601830Y-72206848D01*
X112628439Y-72271090D01*
X112667071Y-72328906D01*
X112716240Y-72378075D01*
X112774056Y-72416707D01*
X112838298Y-72443316D01*
X112906497Y-72456882D01*
X112976031Y-72456882D01*
X113044230Y-72443316D01*
X113108472Y-72416707D01*
X113166288Y-72378075D01*
X113215457Y-72328906D01*
X113254089Y-72271090D01*
X113280698Y-72206848D01*
X113294264Y-72138649D01*
X113294264Y-72069115D01*
X113280698Y-72000916D01*
X113261777Y-71955233D01*
X113557000Y-71955233D01*
X113557000Y-72024767D01*
X113570566Y-72092966D01*
X113597175Y-72157208D01*
X113635807Y-72215024D01*
X113684976Y-72264193D01*
X113742792Y-72302825D01*
X113807034Y-72329434D01*
X113875233Y-72343000D01*
X113944767Y-72343000D01*
X114012966Y-72329434D01*
X114077208Y-72302825D01*
X114135024Y-72264193D01*
X114184193Y-72215024D01*
X114222825Y-72157208D01*
X114249434Y-72092966D01*
X114263000Y-72024767D01*
X114263000Y-71955233D01*
X114249434Y-71887034D01*
X114222825Y-71822792D01*
X114184365Y-71765233D01*
X115047000Y-71765233D01*
X115047000Y-71834767D01*
X115060566Y-71902966D01*
X115087175Y-71967208D01*
X115125807Y-72025024D01*
X115174976Y-72074193D01*
X115232792Y-72112825D01*
X115297034Y-72139434D01*
X115365233Y-72153000D01*
X115434767Y-72153000D01*
X115502966Y-72139434D01*
X115567208Y-72112825D01*
X115625024Y-72074193D01*
X115674193Y-72025024D01*
X115712825Y-71967208D01*
X115739434Y-71902966D01*
X115753000Y-71834767D01*
X115753000Y-71765233D01*
X115739434Y-71697034D01*
X115712825Y-71632792D01*
X115674193Y-71574976D01*
X115664450Y-71565233D01*
X117247000Y-71565233D01*
X117247000Y-71634767D01*
X117260566Y-71702966D01*
X117287175Y-71767208D01*
X117325807Y-71825024D01*
X117374976Y-71874193D01*
X117432792Y-71912825D01*
X117497034Y-71939434D01*
X117565233Y-71953000D01*
X117604663Y-71953000D01*
X117590566Y-71987034D01*
X117577000Y-72055233D01*
X117577000Y-72124767D01*
X117590566Y-72192966D01*
X117617175Y-72257208D01*
X117655807Y-72315024D01*
X117704976Y-72364193D01*
X117762792Y-72402825D01*
X117827034Y-72429434D01*
X117895233Y-72443000D01*
X117964767Y-72443000D01*
X118032966Y-72429434D01*
X118097208Y-72402825D01*
X118155024Y-72364193D01*
X118204193Y-72315024D01*
X118242825Y-72257208D01*
X118269434Y-72192966D01*
X118283000Y-72124767D01*
X118283000Y-72055233D01*
X118269434Y-71987034D01*
X118242825Y-71922792D01*
X118234749Y-71910705D01*
X118294223Y-71886071D01*
X118352039Y-71847439D01*
X118401208Y-71798270D01*
X118421945Y-71767235D01*
X119807000Y-71767235D01*
X119807000Y-71836769D01*
X119820566Y-71904968D01*
X119847175Y-71969210D01*
X119885807Y-72027026D01*
X119934976Y-72076195D01*
X119992792Y-72114827D01*
X120057034Y-72141436D01*
X120125233Y-72155002D01*
X120194767Y-72155002D01*
X120262966Y-72141436D01*
X120327208Y-72114827D01*
X120385024Y-72076195D01*
X120434193Y-72027026D01*
X120472825Y-71969210D01*
X120499434Y-71904968D01*
X120513000Y-71836769D01*
X120513000Y-71767235D01*
X120499434Y-71699036D01*
X120472825Y-71634794D01*
X120434193Y-71576978D01*
X120392448Y-71535233D01*
X120967000Y-71535233D01*
X120967000Y-71604767D01*
X120980566Y-71672966D01*
X121007175Y-71737208D01*
X121045807Y-71795024D01*
X121094976Y-71844193D01*
X121152792Y-71882825D01*
X121217034Y-71909434D01*
X121285233Y-71923000D01*
X121354767Y-71923000D01*
X121422966Y-71909434D01*
X121487208Y-71882825D01*
X121545024Y-71844193D01*
X121594193Y-71795024D01*
X121632825Y-71737208D01*
X121659434Y-71672966D01*
X121673000Y-71604767D01*
X121673000Y-71535233D01*
X121659434Y-71467034D01*
X121632825Y-71402792D01*
X121594193Y-71344976D01*
X121569671Y-71320454D01*
X125162525Y-71320454D01*
X125162525Y-71389988D01*
X125176091Y-71458187D01*
X125202700Y-71522429D01*
X125241332Y-71580245D01*
X125290501Y-71629414D01*
X125348317Y-71668046D01*
X125412559Y-71694655D01*
X125480758Y-71708221D01*
X125550292Y-71708221D01*
X125618491Y-71694655D01*
X125682733Y-71668046D01*
X125740549Y-71629414D01*
X125789718Y-71580245D01*
X125828350Y-71522429D01*
X125854959Y-71458187D01*
X125868525Y-71389988D01*
X125868525Y-71320454D01*
X125854959Y-71252255D01*
X125828350Y-71188013D01*
X125789718Y-71130197D01*
X125740549Y-71081028D01*
X125682733Y-71042396D01*
X125618491Y-71015787D01*
X125550292Y-71002221D01*
X125480758Y-71002221D01*
X125412559Y-71015787D01*
X125348317Y-71042396D01*
X125290501Y-71081028D01*
X125241332Y-71130197D01*
X125202700Y-71188013D01*
X125176091Y-71252255D01*
X125162525Y-71320454D01*
X121569671Y-71320454D01*
X121545024Y-71295807D01*
X121487208Y-71257175D01*
X121422966Y-71230566D01*
X121354767Y-71217000D01*
X121285233Y-71217000D01*
X121217034Y-71230566D01*
X121152792Y-71257175D01*
X121094976Y-71295807D01*
X121045807Y-71344976D01*
X121007175Y-71402792D01*
X120980566Y-71467034D01*
X120967000Y-71535233D01*
X120392448Y-71535233D01*
X120385024Y-71527809D01*
X120327208Y-71489177D01*
X120262966Y-71462568D01*
X120194767Y-71449002D01*
X120125233Y-71449002D01*
X120057034Y-71462568D01*
X119992792Y-71489177D01*
X119934976Y-71527809D01*
X119885807Y-71576978D01*
X119847175Y-71634794D01*
X119820566Y-71699036D01*
X119807000Y-71767235D01*
X118421945Y-71767235D01*
X118439840Y-71740454D01*
X118466449Y-71676212D01*
X118480015Y-71608013D01*
X118480015Y-71538479D01*
X118466449Y-71470280D01*
X118439840Y-71406038D01*
X118401208Y-71348222D01*
X118352039Y-71299053D01*
X118294223Y-71260421D01*
X118229981Y-71233812D01*
X118161782Y-71220246D01*
X118092248Y-71220246D01*
X118024049Y-71233812D01*
X117959807Y-71260421D01*
X117901991Y-71299053D01*
X117852822Y-71348222D01*
X117850666Y-71351449D01*
X117825024Y-71325807D01*
X117767208Y-71287175D01*
X117702966Y-71260566D01*
X117634767Y-71247000D01*
X117565233Y-71247000D01*
X117497034Y-71260566D01*
X117432792Y-71287175D01*
X117374976Y-71325807D01*
X117325807Y-71374976D01*
X117287175Y-71432792D01*
X117260566Y-71497034D01*
X117247000Y-71565233D01*
X115664450Y-71565233D01*
X115625024Y-71525807D01*
X115567208Y-71487175D01*
X115502966Y-71460566D01*
X115434767Y-71447000D01*
X115365233Y-71447000D01*
X115297034Y-71460566D01*
X115232792Y-71487175D01*
X115174976Y-71525807D01*
X115125807Y-71574976D01*
X115087175Y-71632792D01*
X115060566Y-71697034D01*
X115047000Y-71765233D01*
X114184365Y-71765233D01*
X114184193Y-71764976D01*
X114135024Y-71715807D01*
X114077208Y-71677175D01*
X114012966Y-71650566D01*
X113944767Y-71637000D01*
X113875233Y-71637000D01*
X113807034Y-71650566D01*
X113742792Y-71677175D01*
X113684976Y-71715807D01*
X113635807Y-71764976D01*
X113597175Y-71822792D01*
X113570566Y-71887034D01*
X113557000Y-71955233D01*
X113261777Y-71955233D01*
X113254089Y-71936674D01*
X113215457Y-71878858D01*
X113166288Y-71829689D01*
X113108472Y-71791057D01*
X113044230Y-71764448D01*
X112976031Y-71750882D01*
X112906497Y-71750882D01*
X112838298Y-71764448D01*
X112774056Y-71791057D01*
X112716240Y-71829689D01*
X112667071Y-71878858D01*
X112628439Y-71936674D01*
X112601830Y-72000916D01*
X112588264Y-72069115D01*
X112301000Y-72069115D01*
X112301000Y-70991106D01*
X128429643Y-70991106D01*
X128429643Y-71060640D01*
X128443209Y-71128839D01*
X128469818Y-71193081D01*
X128508450Y-71250897D01*
X128557619Y-71300066D01*
X128615435Y-71338698D01*
X128679677Y-71365307D01*
X128747876Y-71378873D01*
X128817410Y-71378873D01*
X128885609Y-71365307D01*
X128949851Y-71338698D01*
X129007667Y-71300066D01*
X129056836Y-71250897D01*
X129095468Y-71193081D01*
X129122077Y-71128839D01*
X129135643Y-71060640D01*
X129135643Y-70991106D01*
X129122077Y-70922907D01*
X129095468Y-70858665D01*
X129056836Y-70800849D01*
X129007667Y-70751680D01*
X128949851Y-70713048D01*
X128885609Y-70686439D01*
X128817410Y-70672873D01*
X128747876Y-70672873D01*
X128679677Y-70686439D01*
X128615435Y-70713048D01*
X128557619Y-70751680D01*
X128508450Y-70800849D01*
X128469818Y-70858665D01*
X128443209Y-70922907D01*
X128429643Y-70991106D01*
X112301000Y-70991106D01*
X112301000Y-70024342D01*
X116710392Y-70024342D01*
X116710392Y-70093876D01*
X116723958Y-70162075D01*
X116750567Y-70226317D01*
X116789199Y-70284133D01*
X116838368Y-70333302D01*
X116896184Y-70371934D01*
X116960426Y-70398543D01*
X117028625Y-70412109D01*
X117098159Y-70412109D01*
X117166358Y-70398543D01*
X117230600Y-70371934D01*
X117288416Y-70333302D01*
X117306485Y-70315233D01*
X123697000Y-70315233D01*
X123697000Y-70384767D01*
X123710566Y-70452966D01*
X123737175Y-70517208D01*
X123775807Y-70575024D01*
X123824976Y-70624193D01*
X123882792Y-70662825D01*
X123947034Y-70689434D01*
X124015233Y-70703000D01*
X124084767Y-70703000D01*
X124152966Y-70689434D01*
X124217208Y-70662825D01*
X124275024Y-70624193D01*
X124324193Y-70575024D01*
X124347916Y-70539521D01*
X124382792Y-70562825D01*
X124447034Y-70589434D01*
X124515233Y-70603000D01*
X124584767Y-70603000D01*
X124652966Y-70589434D01*
X124717208Y-70562825D01*
X124773451Y-70525244D01*
X126276820Y-70525244D01*
X126276820Y-70594778D01*
X126290386Y-70662977D01*
X126316995Y-70727219D01*
X126355627Y-70785035D01*
X126404796Y-70834204D01*
X126462612Y-70872836D01*
X126526854Y-70899445D01*
X126595053Y-70913011D01*
X126664587Y-70913011D01*
X126732786Y-70899445D01*
X126797028Y-70872836D01*
X126854844Y-70834204D01*
X126904013Y-70785035D01*
X126942645Y-70727219D01*
X126969254Y-70662977D01*
X126982820Y-70594778D01*
X126982820Y-70525244D01*
X126969254Y-70457045D01*
X126942645Y-70392803D01*
X126904013Y-70334987D01*
X126854844Y-70285818D01*
X126827033Y-70267235D01*
X128237000Y-70267235D01*
X128237000Y-70336769D01*
X128250566Y-70404968D01*
X128277175Y-70469210D01*
X128315807Y-70527026D01*
X128364976Y-70576195D01*
X128422792Y-70614827D01*
X128487034Y-70641436D01*
X128555233Y-70655002D01*
X128624767Y-70655002D01*
X128692966Y-70641436D01*
X128757208Y-70614827D01*
X128815024Y-70576195D01*
X128864193Y-70527026D01*
X128902825Y-70469210D01*
X128929434Y-70404968D01*
X128943000Y-70336769D01*
X128943000Y-70267235D01*
X128929434Y-70199036D01*
X128902825Y-70134794D01*
X128864193Y-70076978D01*
X128852448Y-70065233D01*
X132847000Y-70065233D01*
X132847000Y-70134767D01*
X132860566Y-70202966D01*
X132887175Y-70267208D01*
X132925807Y-70325024D01*
X132974976Y-70374193D01*
X133032792Y-70412825D01*
X133097034Y-70439434D01*
X133165233Y-70453000D01*
X133209109Y-70453000D01*
X133174976Y-70475807D01*
X133125807Y-70524976D01*
X133087175Y-70582792D01*
X133060566Y-70647034D01*
X133047000Y-70715233D01*
X133047000Y-70784767D01*
X133060566Y-70852966D01*
X133087175Y-70917208D01*
X133125807Y-70975024D01*
X133174976Y-71024193D01*
X133232792Y-71062825D01*
X133297034Y-71089434D01*
X133365233Y-71103000D01*
X133434767Y-71103000D01*
X133502966Y-71089434D01*
X133567208Y-71062825D01*
X133625024Y-71024193D01*
X133674193Y-70975024D01*
X133712825Y-70917208D01*
X133739434Y-70852966D01*
X133753000Y-70784767D01*
X133753000Y-70715233D01*
X133739434Y-70647034D01*
X133712825Y-70582792D01*
X133674193Y-70524976D01*
X133625024Y-70475807D01*
X133567208Y-70437175D01*
X133551093Y-70430500D01*
X135542000Y-70430500D01*
X135542000Y-70780500D01*
X135555605Y-70917639D01*
X135595704Y-71049489D01*
X135660755Y-71170982D01*
X135748258Y-71277450D01*
X135854850Y-71364801D01*
X135976436Y-71429679D01*
X136108342Y-71469590D01*
X136134533Y-71474267D01*
X136244500Y-71444750D01*
X136244500Y-70430500D01*
X135542000Y-70430500D01*
X133551093Y-70430500D01*
X133502966Y-70410566D01*
X133434767Y-70397000D01*
X133390891Y-70397000D01*
X133425024Y-70374193D01*
X133474193Y-70325024D01*
X133512825Y-70267208D01*
X133539434Y-70202966D01*
X133553000Y-70134767D01*
X133553000Y-70065233D01*
X133539434Y-69997034D01*
X133512825Y-69932792D01*
X133474193Y-69874976D01*
X133425024Y-69825807D01*
X133367208Y-69787175D01*
X133302966Y-69760566D01*
X133234767Y-69747000D01*
X133165233Y-69747000D01*
X133097034Y-69760566D01*
X133032792Y-69787175D01*
X132974976Y-69825807D01*
X132925807Y-69874976D01*
X132887175Y-69932792D01*
X132860566Y-69997034D01*
X132847000Y-70065233D01*
X128852448Y-70065233D01*
X128815024Y-70027809D01*
X128757208Y-69989177D01*
X128692966Y-69962568D01*
X128624767Y-69949002D01*
X128555233Y-69949002D01*
X128487034Y-69962568D01*
X128422792Y-69989177D01*
X128364976Y-70027809D01*
X128315807Y-70076978D01*
X128277175Y-70134794D01*
X128250566Y-70199036D01*
X128237000Y-70267235D01*
X126827033Y-70267235D01*
X126797028Y-70247186D01*
X126732786Y-70220577D01*
X126664587Y-70207011D01*
X126595053Y-70207011D01*
X126526854Y-70220577D01*
X126462612Y-70247186D01*
X126404796Y-70285818D01*
X126355627Y-70334987D01*
X126316995Y-70392803D01*
X126290386Y-70457045D01*
X126276820Y-70525244D01*
X124773451Y-70525244D01*
X124775024Y-70524193D01*
X124824193Y-70475024D01*
X124862825Y-70417208D01*
X124889434Y-70352966D01*
X124903000Y-70284767D01*
X124903000Y-70215233D01*
X124889434Y-70147034D01*
X124862825Y-70082792D01*
X124824193Y-70024976D01*
X124775024Y-69975807D01*
X124717208Y-69937175D01*
X124652966Y-69910566D01*
X124584767Y-69897000D01*
X124515233Y-69897000D01*
X124447034Y-69910566D01*
X124382792Y-69937175D01*
X124324976Y-69975807D01*
X124275807Y-70024976D01*
X124252084Y-70060479D01*
X124217208Y-70037175D01*
X124152966Y-70010566D01*
X124084767Y-69997000D01*
X124015233Y-69997000D01*
X123947034Y-70010566D01*
X123882792Y-70037175D01*
X123824976Y-70075807D01*
X123775807Y-70124976D01*
X123737175Y-70182792D01*
X123710566Y-70247034D01*
X123697000Y-70315233D01*
X117306485Y-70315233D01*
X117337585Y-70284133D01*
X117376217Y-70226317D01*
X117402826Y-70162075D01*
X117416392Y-70093876D01*
X117416392Y-70024342D01*
X117402826Y-69956143D01*
X117376217Y-69891901D01*
X117337585Y-69834085D01*
X117288416Y-69784916D01*
X117230600Y-69746284D01*
X117166358Y-69719675D01*
X117098159Y-69706109D01*
X117028625Y-69706109D01*
X116960426Y-69719675D01*
X116896184Y-69746284D01*
X116838368Y-69784916D01*
X116789199Y-69834085D01*
X116750567Y-69891901D01*
X116723958Y-69956143D01*
X116710392Y-70024342D01*
X112301000Y-70024342D01*
X112301000Y-69115694D01*
X113812509Y-69115694D01*
X113812509Y-69185228D01*
X113826075Y-69253427D01*
X113852684Y-69317669D01*
X113891316Y-69375485D01*
X113940485Y-69424654D01*
X113998301Y-69463286D01*
X114062543Y-69489895D01*
X114130742Y-69503461D01*
X114200276Y-69503461D01*
X114268475Y-69489895D01*
X114332717Y-69463286D01*
X114390533Y-69424654D01*
X114439702Y-69375485D01*
X114478334Y-69317669D01*
X114504943Y-69253427D01*
X114518509Y-69185228D01*
X114518509Y-69115694D01*
X114511975Y-69082846D01*
X119799387Y-69082846D01*
X119799387Y-69152380D01*
X119812953Y-69220579D01*
X119839562Y-69284821D01*
X119878194Y-69342637D01*
X119927363Y-69391806D01*
X119985179Y-69430438D01*
X120049421Y-69457047D01*
X120117620Y-69470613D01*
X120187154Y-69470613D01*
X120255353Y-69457047D01*
X120319595Y-69430438D01*
X120377411Y-69391806D01*
X120426580Y-69342637D01*
X120465212Y-69284821D01*
X120491821Y-69220579D01*
X120505387Y-69152380D01*
X120505387Y-69082846D01*
X120491938Y-69015233D01*
X121789002Y-69015233D01*
X121789002Y-69084767D01*
X121802568Y-69152966D01*
X121829177Y-69217208D01*
X121867809Y-69275024D01*
X121916978Y-69324193D01*
X121974794Y-69362825D01*
X122039036Y-69389434D01*
X122107235Y-69403000D01*
X122176769Y-69403000D01*
X122244968Y-69389434D01*
X122309210Y-69362825D01*
X122367026Y-69324193D01*
X122416195Y-69275024D01*
X122454827Y-69217208D01*
X122481436Y-69152966D01*
X122495002Y-69084767D01*
X122495002Y-69015233D01*
X122481436Y-68947034D01*
X122454827Y-68882792D01*
X122416195Y-68824976D01*
X122367026Y-68775807D01*
X122309210Y-68737175D01*
X122244968Y-68710566D01*
X122176769Y-68697000D01*
X122107235Y-68697000D01*
X122039036Y-68710566D01*
X121974794Y-68737175D01*
X121916978Y-68775807D01*
X121867809Y-68824976D01*
X121829177Y-68882792D01*
X121802568Y-68947034D01*
X121789002Y-69015233D01*
X120491938Y-69015233D01*
X120491821Y-69014647D01*
X120465212Y-68950405D01*
X120426580Y-68892589D01*
X120377411Y-68843420D01*
X120319595Y-68804788D01*
X120255353Y-68778179D01*
X120187154Y-68764613D01*
X120117620Y-68764613D01*
X120049421Y-68778179D01*
X119985179Y-68804788D01*
X119927363Y-68843420D01*
X119878194Y-68892589D01*
X119839562Y-68950405D01*
X119812953Y-69014647D01*
X119799387Y-69082846D01*
X114511975Y-69082846D01*
X114504943Y-69047495D01*
X114478334Y-68983253D01*
X114439702Y-68925437D01*
X114390533Y-68876268D01*
X114332717Y-68837636D01*
X114268475Y-68811027D01*
X114200276Y-68797461D01*
X114130742Y-68797461D01*
X114062543Y-68811027D01*
X113998301Y-68837636D01*
X113940485Y-68876268D01*
X113891316Y-68925437D01*
X113852684Y-68983253D01*
X113826075Y-69047495D01*
X113812509Y-69115694D01*
X112301000Y-69115694D01*
X112301000Y-68089260D01*
X113319654Y-68089260D01*
X113319654Y-68158794D01*
X113333220Y-68226993D01*
X113359829Y-68291235D01*
X113398461Y-68349051D01*
X113447630Y-68398220D01*
X113505446Y-68436852D01*
X113569688Y-68463461D01*
X113637887Y-68477027D01*
X113707421Y-68477027D01*
X113775620Y-68463461D01*
X113839862Y-68436852D01*
X113897678Y-68398220D01*
X113946847Y-68349051D01*
X113985479Y-68291235D01*
X114012088Y-68226993D01*
X114025654Y-68158794D01*
X114025654Y-68089260D01*
X114012088Y-68021061D01*
X113985479Y-67956819D01*
X113951632Y-67906163D01*
X115647149Y-67906163D01*
X115647149Y-67975697D01*
X115660715Y-68043896D01*
X115687324Y-68108138D01*
X115725956Y-68165954D01*
X115775125Y-68215123D01*
X115832941Y-68253755D01*
X115897183Y-68280364D01*
X115965382Y-68293930D01*
X116034916Y-68293930D01*
X116103115Y-68280364D01*
X116167357Y-68253755D01*
X116225173Y-68215123D01*
X116274342Y-68165954D01*
X116297917Y-68130672D01*
X116297917Y-68173177D01*
X116311483Y-68241376D01*
X116338092Y-68305618D01*
X116376724Y-68363434D01*
X116425893Y-68412603D01*
X116483709Y-68451235D01*
X116547951Y-68477844D01*
X116616150Y-68491410D01*
X116685684Y-68491410D01*
X116753883Y-68477844D01*
X116818125Y-68451235D01*
X116875941Y-68412603D01*
X116925110Y-68363434D01*
X116963742Y-68305618D01*
X116990351Y-68241376D01*
X117003917Y-68173177D01*
X117003917Y-68103643D01*
X116990351Y-68035444D01*
X116963742Y-67971202D01*
X116925110Y-67913386D01*
X116875941Y-67864217D01*
X116818125Y-67825585D01*
X116753883Y-67798976D01*
X116685684Y-67785410D01*
X116616150Y-67785410D01*
X116547951Y-67798976D01*
X116483709Y-67825585D01*
X116425893Y-67864217D01*
X116376724Y-67913386D01*
X116353149Y-67948668D01*
X116353149Y-67906163D01*
X116339583Y-67837964D01*
X116312974Y-67773722D01*
X116274342Y-67715906D01*
X116225173Y-67666737D01*
X116167357Y-67628105D01*
X116103115Y-67601496D01*
X116034916Y-67587930D01*
X115965382Y-67587930D01*
X115897183Y-67601496D01*
X115832941Y-67628105D01*
X115775125Y-67666737D01*
X115725956Y-67715906D01*
X115687324Y-67773722D01*
X115660715Y-67837964D01*
X115647149Y-67906163D01*
X113951632Y-67906163D01*
X113946847Y-67899003D01*
X113897678Y-67849834D01*
X113839862Y-67811202D01*
X113775620Y-67784593D01*
X113707421Y-67771027D01*
X113637887Y-67771027D01*
X113569688Y-67784593D01*
X113505446Y-67811202D01*
X113447630Y-67849834D01*
X113398461Y-67899003D01*
X113359829Y-67956819D01*
X113333220Y-68021061D01*
X113319654Y-68089260D01*
X112301000Y-68089260D01*
X112301000Y-67301000D01*
X123849777Y-67301000D01*
X123837000Y-67365233D01*
G37*
X123837000Y-67365233D02*
X123837000Y-67434767D01*
X123850566Y-67502966D01*
X123877175Y-67567208D01*
X123915807Y-67625024D01*
X123964976Y-67674193D01*
X124016482Y-67708609D01*
X124000566Y-67747034D01*
X123987000Y-67815233D01*
X123987000Y-67884767D01*
X124000566Y-67952966D01*
X124027175Y-68017208D01*
X124065807Y-68075024D01*
X124114976Y-68124193D01*
X124163598Y-68156682D01*
X124134976Y-68175807D01*
X124085807Y-68224976D01*
X124047175Y-68282792D01*
X124020566Y-68347034D01*
X124007000Y-68415233D01*
X124007000Y-68484767D01*
X124020566Y-68552966D01*
X124047175Y-68617208D01*
X124085807Y-68675024D01*
X124125944Y-68715161D01*
X124124976Y-68715807D01*
X124075807Y-68764976D01*
X124037175Y-68822792D01*
X124010566Y-68887034D01*
X123997000Y-68955233D01*
X123997000Y-69024767D01*
X124010566Y-69092966D01*
X124037175Y-69157208D01*
X124075807Y-69215024D01*
X124124976Y-69264193D01*
X124182792Y-69302825D01*
X124247034Y-69329434D01*
X124315233Y-69343000D01*
X124384767Y-69343000D01*
X124452966Y-69329434D01*
X124517208Y-69302825D01*
X124575024Y-69264193D01*
X124623984Y-69215233D01*
X135347000Y-69215233D01*
X135347000Y-69284767D01*
X135360566Y-69352966D01*
X135387175Y-69417208D01*
X135425807Y-69475024D01*
X135474976Y-69524193D01*
X135532792Y-69562825D01*
X135597034Y-69589434D01*
X135665233Y-69603000D01*
X135731451Y-69603000D01*
X135660755Y-69689018D01*
X135595704Y-69810511D01*
X135555605Y-69942361D01*
X135542000Y-70079500D01*
X135542000Y-70429500D01*
X136244500Y-70429500D01*
X136244500Y-69415250D01*
X136134533Y-69385733D01*
X136108342Y-69390410D01*
X136011064Y-69419844D01*
X136012825Y-69417208D01*
X136039434Y-69352966D01*
X136053000Y-69284767D01*
X136053000Y-69215233D01*
X136039434Y-69147034D01*
X136012825Y-69082792D01*
X135974193Y-69024976D01*
X135963555Y-69014338D01*
X135967208Y-69012825D01*
X136025024Y-68974193D01*
X136074193Y-68925024D01*
X136112825Y-68867208D01*
X136139434Y-68802966D01*
X136153000Y-68734767D01*
X136153000Y-68665233D01*
X136139434Y-68597034D01*
X136112825Y-68532792D01*
X136074193Y-68474976D01*
X136025024Y-68425807D01*
X135967208Y-68387175D01*
X135902966Y-68360566D01*
X135834767Y-68347000D01*
X135765233Y-68347000D01*
X135697034Y-68360566D01*
X135632792Y-68387175D01*
X135574976Y-68425807D01*
X135525807Y-68474976D01*
X135487175Y-68532792D01*
X135460566Y-68597034D01*
X135447000Y-68665233D01*
X135447000Y-68734767D01*
X135460566Y-68802966D01*
X135487175Y-68867208D01*
X135525807Y-68925024D01*
X135536445Y-68935662D01*
X135532792Y-68937175D01*
X135474976Y-68975807D01*
X135425807Y-69024976D01*
X135387175Y-69082792D01*
X135360566Y-69147034D01*
X135347000Y-69215233D01*
X124623984Y-69215233D01*
X124624193Y-69215024D01*
X124662825Y-69157208D01*
X124689434Y-69092966D01*
X124703000Y-69024767D01*
X124703000Y-68955233D01*
X124689434Y-68887034D01*
X124662825Y-68822792D01*
X124624193Y-68764976D01*
X124584056Y-68724839D01*
X124585024Y-68724193D01*
X124634193Y-68675024D01*
X124672825Y-68617208D01*
X124698495Y-68555233D01*
X126537000Y-68555233D01*
X126537000Y-68624767D01*
X126550566Y-68692966D01*
X126577175Y-68757208D01*
X126615807Y-68815024D01*
X126664976Y-68864193D01*
X126722792Y-68902825D01*
X126787034Y-68929434D01*
X126855233Y-68943000D01*
X126924767Y-68943000D01*
X126992966Y-68929434D01*
X127057208Y-68902825D01*
X127115024Y-68864193D01*
X127164193Y-68815024D01*
X127202825Y-68757208D01*
X127229434Y-68692966D01*
X127243000Y-68624767D01*
X127243000Y-68555233D01*
X127229434Y-68487034D01*
X127202825Y-68422792D01*
X127164193Y-68364976D01*
X127115024Y-68315807D01*
X127057208Y-68277175D01*
X126992966Y-68250566D01*
X126924767Y-68237000D01*
X126855233Y-68237000D01*
X126787034Y-68250566D01*
X126722792Y-68277175D01*
X126664976Y-68315807D01*
X126615807Y-68364976D01*
X126577175Y-68422792D01*
X126550566Y-68487034D01*
X126537000Y-68555233D01*
X124698495Y-68555233D01*
X124699434Y-68552966D01*
X124713000Y-68484767D01*
X124713000Y-68415233D01*
X124699434Y-68347034D01*
X124672825Y-68282792D01*
X124634193Y-68224976D01*
X124585024Y-68175807D01*
X124556455Y-68156717D01*
X131647000Y-68156717D01*
X131647000Y-68226251D01*
X131660566Y-68294450D01*
X131687175Y-68358692D01*
X131725807Y-68416508D01*
X131774976Y-68465677D01*
X131832792Y-68504309D01*
X131897034Y-68530918D01*
X131965233Y-68544484D01*
X132034767Y-68544484D01*
X132102966Y-68530918D01*
X132167208Y-68504309D01*
X132225024Y-68465677D01*
X132226537Y-68464164D01*
X133002436Y-68464164D01*
X133002436Y-68533698D01*
X133016002Y-68601897D01*
X133042611Y-68666139D01*
X133081243Y-68723955D01*
X133130412Y-68773124D01*
X133188228Y-68811756D01*
X133252470Y-68838365D01*
X133320669Y-68851931D01*
X133390203Y-68851931D01*
X133400026Y-68849977D01*
X133410566Y-68902966D01*
X133437175Y-68967208D01*
X133475807Y-69025024D01*
X133524976Y-69074193D01*
X133582792Y-69112825D01*
X133647034Y-69139434D01*
X133715233Y-69153000D01*
X133784767Y-69153000D01*
X133852966Y-69139434D01*
X133917208Y-69112825D01*
X133975024Y-69074193D01*
X134024193Y-69025024D01*
X134062825Y-68967208D01*
X134089434Y-68902966D01*
X134103000Y-68834767D01*
X134103000Y-68765233D01*
X134089434Y-68697034D01*
X134062825Y-68632792D01*
X134024193Y-68574976D01*
X133975024Y-68525807D01*
X133917208Y-68487175D01*
X133852966Y-68460566D01*
X133784767Y-68447000D01*
X133715233Y-68447000D01*
X133705410Y-68448954D01*
X133694870Y-68395965D01*
X133668261Y-68331723D01*
X133629629Y-68273907D01*
X133580460Y-68224738D01*
X133522644Y-68186106D01*
X133458402Y-68159497D01*
X133390203Y-68145931D01*
X133320669Y-68145931D01*
X133252470Y-68159497D01*
X133188228Y-68186106D01*
X133130412Y-68224738D01*
X133081243Y-68273907D01*
X133042611Y-68331723D01*
X133016002Y-68395965D01*
X133002436Y-68464164D01*
X132226537Y-68464164D01*
X132274193Y-68416508D01*
X132312825Y-68358692D01*
X132339434Y-68294450D01*
X132353000Y-68226251D01*
X132353000Y-68156717D01*
X132339434Y-68088518D01*
X132312825Y-68024276D01*
X132274193Y-67966460D01*
X132225024Y-67917291D01*
X132167208Y-67878659D01*
X132102966Y-67852050D01*
X132034767Y-67838484D01*
X131965233Y-67838484D01*
X131897034Y-67852050D01*
X131832792Y-67878659D01*
X131774976Y-67917291D01*
X131725807Y-67966460D01*
X131687175Y-68024276D01*
X131660566Y-68088518D01*
X131647000Y-68156717D01*
X124556455Y-68156717D01*
X124536402Y-68143318D01*
X124565024Y-68124193D01*
X124614193Y-68075024D01*
X124652825Y-68017208D01*
X124679434Y-67952966D01*
X124693000Y-67884767D01*
X124693000Y-67815233D01*
X124683055Y-67765233D01*
X128047000Y-67765233D01*
X128047000Y-67834767D01*
X128060566Y-67902966D01*
X128087175Y-67967208D01*
X128125807Y-68025024D01*
X128174976Y-68074193D01*
X128232792Y-68112825D01*
X128297034Y-68139434D01*
X128365233Y-68153000D01*
X128434767Y-68153000D01*
X128502966Y-68139434D01*
X128567208Y-68112825D01*
X128625024Y-68074193D01*
X128674193Y-68025024D01*
X128712825Y-67967208D01*
X128739434Y-67902966D01*
X128753000Y-67834767D01*
X128753000Y-67765233D01*
X128739434Y-67697034D01*
X128712825Y-67632792D01*
X128674193Y-67574976D01*
X128625024Y-67525807D01*
X128567208Y-67487175D01*
X128502966Y-67460566D01*
X128434767Y-67447000D01*
X128365233Y-67447000D01*
X128297034Y-67460566D01*
X128232792Y-67487175D01*
X128174976Y-67525807D01*
X128125807Y-67574976D01*
X128087175Y-67632792D01*
X128060566Y-67697034D01*
X128047000Y-67765233D01*
X124683055Y-67765233D01*
X124679434Y-67747034D01*
X124652825Y-67682792D01*
X124614193Y-67624976D01*
X124565024Y-67575807D01*
X124513518Y-67541391D01*
X124529434Y-67502966D01*
X124543000Y-67434767D01*
X124543000Y-67365233D01*
X124530223Y-67301000D01*
X136699000Y-67301000D01*
X136699000Y-69547523D01*
X136635150Y-69495199D01*
X136513564Y-69430321D01*
X136381658Y-69390410D01*
X136355467Y-69385733D01*
X136245500Y-69415250D01*
X136245500Y-70429500D01*
X136265500Y-70429500D01*
X136265500Y-70430500D01*
X136245500Y-70430500D01*
X136245500Y-71444750D01*
X136355467Y-71474267D01*
X136381658Y-71469590D01*
X136513564Y-71429679D01*
X136635150Y-71364801D01*
X136699000Y-71312477D01*
X136699000Y-75147523D01*
X136635150Y-75095199D01*
X136513564Y-75030321D01*
X136381658Y-74990410D01*
X136355467Y-74985733D01*
X136245500Y-75015250D01*
X136245500Y-76029500D01*
X136265500Y-76029500D01*
X136265500Y-76030500D01*
X136245500Y-76030500D01*
X136245500Y-77044750D01*
X136355467Y-77074267D01*
X136381658Y-77069590D01*
X136513564Y-77029679D01*
X136635150Y-76964801D01*
X136699000Y-76912477D01*
X136699000Y-77699000D01*
X135240223Y-77699000D01*
X135253000Y-77634767D01*
X135253000Y-77565233D01*
X135239434Y-77497034D01*
X135212825Y-77432792D01*
X135174193Y-77374976D01*
X135125024Y-77325807D01*
X135089521Y-77302084D01*
X135112825Y-77267208D01*
X135139434Y-77202966D01*
X135153000Y-77134767D01*
X135153000Y-77065233D01*
X135139434Y-76997034D01*
X135112825Y-76932792D01*
X135074193Y-76874976D01*
X135025024Y-76825807D01*
X134967208Y-76787175D01*
X134914234Y-76765233D01*
X135147000Y-76765233D01*
X135147000Y-76834767D01*
X135160566Y-76902966D01*
X135187175Y-76967208D01*
X135225807Y-77025024D01*
X135274976Y-77074193D01*
X135332792Y-77112825D01*
X135397034Y-77139434D01*
X135465233Y-77153000D01*
X135534767Y-77153000D01*
X135602966Y-77139434D01*
X135667208Y-77112825D01*
X135725024Y-77074193D01*
X135774193Y-77025024D01*
X135812825Y-76967208D01*
X135824219Y-76939699D01*
X135854850Y-76964801D01*
X135976436Y-77029679D01*
X136108342Y-77069590D01*
X136134533Y-77074267D01*
X136244500Y-77044750D01*
X136244500Y-76030500D01*
X135542000Y-76030500D01*
X135542000Y-76380500D01*
X135548876Y-76449806D01*
X135534767Y-76447000D01*
X135465233Y-76447000D01*
X135397034Y-76460566D01*
X135332792Y-76487175D01*
X135274976Y-76525807D01*
X135225807Y-76574976D01*
X135187175Y-76632792D01*
X135160566Y-76697034D01*
X135147000Y-76765233D01*
X134914234Y-76765233D01*
X134902966Y-76760566D01*
X134834767Y-76747000D01*
X134765233Y-76747000D01*
X134697034Y-76760566D01*
X134632792Y-76787175D01*
X134574976Y-76825807D01*
X134525807Y-76874976D01*
X134487175Y-76932792D01*
X134460566Y-76997034D01*
X134447000Y-77065233D01*
X134447000Y-77134767D01*
X134450038Y-77150038D01*
X134434767Y-77147000D01*
X134365233Y-77147000D01*
X134297034Y-77160566D01*
X134232792Y-77187175D01*
X134174976Y-77225807D01*
X134125807Y-77274976D01*
X134087175Y-77332792D01*
X134060566Y-77397034D01*
X134050000Y-77450151D01*
X134039434Y-77397034D01*
X134012825Y-77332792D01*
X133974193Y-77274976D01*
X133925024Y-77225807D01*
X133867208Y-77187175D01*
X133802966Y-77160566D01*
X133734767Y-77147000D01*
X133665233Y-77147000D01*
X133597034Y-77160566D01*
X133532792Y-77187175D01*
X133474976Y-77225807D01*
X133425807Y-77274976D01*
X133387175Y-77332792D01*
X133360566Y-77397034D01*
X133347000Y-77465233D01*
X133347000Y-77534767D01*
X133360566Y-77602966D01*
X133387175Y-77667208D01*
X133408418Y-77699000D01*
X130426733Y-77699000D01*
X130459742Y-77692434D01*
X130523984Y-77665825D01*
X130581800Y-77627193D01*
X130630969Y-77578024D01*
X130669601Y-77520208D01*
X130696210Y-77455966D01*
X130709776Y-77387767D01*
X130709776Y-77318233D01*
X130696210Y-77250034D01*
X130669601Y-77185792D01*
X130630969Y-77127976D01*
X130581800Y-77078807D01*
X130523984Y-77040175D01*
X130459742Y-77013566D01*
X130391543Y-77000000D01*
X130322009Y-77000000D01*
X130253810Y-77013566D01*
X130189568Y-77040175D01*
X130131752Y-77078807D01*
X130105775Y-77104785D01*
X130079797Y-77078807D01*
X130021981Y-77040175D01*
X129957739Y-77013566D01*
X129889540Y-77000000D01*
X129820006Y-77000000D01*
X129751807Y-77013566D01*
X129687565Y-77040175D01*
X129629749Y-77078807D01*
X129580580Y-77127976D01*
X129541948Y-77185792D01*
X129515339Y-77250034D01*
X129501773Y-77318233D01*
X129501773Y-77387767D01*
X129515339Y-77455966D01*
X129541948Y-77520208D01*
X129580580Y-77578024D01*
X129629749Y-77627193D01*
X129687565Y-77665825D01*
X129751807Y-77692434D01*
X129784816Y-77699000D01*
X123657074Y-77699000D01*
X123669851Y-77634767D01*
X123669851Y-77565233D01*
X123656285Y-77497034D01*
X123629676Y-77432792D01*
X123591044Y-77374976D01*
X123541875Y-77325807D01*
X123484059Y-77287175D01*
X123419817Y-77260566D01*
X123351618Y-77247000D01*
X123282084Y-77247000D01*
X123213885Y-77260566D01*
X123149643Y-77287175D01*
X123091827Y-77325807D01*
X123042658Y-77374976D01*
X123004026Y-77432792D01*
X122977417Y-77497034D01*
X122963851Y-77565233D01*
X122963851Y-77634767D01*
X122976628Y-77699000D01*
X120940223Y-77699000D01*
X120953000Y-77634767D01*
X120953000Y-77565233D01*
X120939434Y-77497034D01*
X120912825Y-77432792D01*
X120874193Y-77374976D01*
X120825024Y-77325807D01*
X120767208Y-77287175D01*
X120702966Y-77260566D01*
X120634767Y-77247000D01*
X120565233Y-77247000D01*
X120497034Y-77260566D01*
X120432792Y-77287175D01*
X120374976Y-77325807D01*
X120325807Y-77374976D01*
X120287175Y-77432792D01*
X120260566Y-77497034D01*
X120247000Y-77565233D01*
X120247000Y-77634767D01*
X120259777Y-77699000D01*
X117300231Y-77699000D01*
X117327208Y-77687826D01*
X117385024Y-77649194D01*
X117434193Y-77600025D01*
X117472825Y-77542209D01*
X117499434Y-77477967D01*
X117513000Y-77409768D01*
X117513000Y-77340234D01*
X117499434Y-77272035D01*
X117472825Y-77207793D01*
X117434193Y-77149977D01*
X117385024Y-77100808D01*
X117327208Y-77062176D01*
X117262966Y-77035567D01*
X117194767Y-77022001D01*
X117125233Y-77022001D01*
X117057034Y-77035567D01*
X116992792Y-77062176D01*
X116934976Y-77100808D01*
X116885807Y-77149977D01*
X116847175Y-77207793D01*
X116820566Y-77272035D01*
X116807000Y-77340234D01*
X116807000Y-77409768D01*
X116820566Y-77477967D01*
X116847175Y-77542209D01*
X116885807Y-77600025D01*
X116934976Y-77649194D01*
X116992792Y-77687826D01*
X117019769Y-77699000D01*
X112301000Y-77699000D01*
X112301000Y-76995233D01*
X112587000Y-76995233D01*
X112587000Y-77064767D01*
X112600566Y-77132966D01*
X112627175Y-77197208D01*
X112665807Y-77255024D01*
X112714976Y-77304193D01*
X112772792Y-77342825D01*
X112837034Y-77369434D01*
X112905233Y-77383000D01*
X112974767Y-77383000D01*
X113042966Y-77369434D01*
X113107208Y-77342825D01*
X113165024Y-77304193D01*
X113214193Y-77255024D01*
X113252825Y-77197208D01*
X113279434Y-77132966D01*
X113293000Y-77064767D01*
X113293000Y-76995233D01*
X113279434Y-76927034D01*
X113268603Y-76900883D01*
X117389309Y-76900883D01*
X117389309Y-76970417D01*
X117402875Y-77038616D01*
X117429484Y-77102858D01*
X117468116Y-77160674D01*
X117517285Y-77209843D01*
X117575101Y-77248475D01*
X117639343Y-77275084D01*
X117707542Y-77288650D01*
X117777076Y-77288650D01*
X117845275Y-77275084D01*
X117909517Y-77248475D01*
X117967333Y-77209843D01*
X118016502Y-77160674D01*
X118055134Y-77102858D01*
X118081743Y-77038616D01*
X118095309Y-76970417D01*
X118095309Y-76965233D01*
X121347000Y-76965233D01*
X121347000Y-77034767D01*
X121360566Y-77102966D01*
X121387175Y-77167208D01*
X121425807Y-77225024D01*
X121474976Y-77274193D01*
X121532792Y-77312825D01*
X121597034Y-77339434D01*
X121665233Y-77353000D01*
X121734767Y-77353000D01*
X121802966Y-77339434D01*
X121867208Y-77312825D01*
X121925024Y-77274193D01*
X121974193Y-77225024D01*
X122012825Y-77167208D01*
X122039434Y-77102966D01*
X122053000Y-77034767D01*
X122053000Y-76965233D01*
X122039434Y-76897034D01*
X122012825Y-76832792D01*
X121974193Y-76774976D01*
X121925024Y-76725807D01*
X121867208Y-76687175D01*
X121802966Y-76660566D01*
X121734767Y-76647000D01*
X121665233Y-76647000D01*
X121597034Y-76660566D01*
X121532792Y-76687175D01*
X121474976Y-76725807D01*
X121425807Y-76774976D01*
X121387175Y-76832792D01*
X121360566Y-76897034D01*
X121347000Y-76965233D01*
X118095309Y-76965233D01*
X118095309Y-76900883D01*
X118081743Y-76832684D01*
X118055134Y-76768442D01*
X118016502Y-76710626D01*
X117967333Y-76661457D01*
X117909517Y-76622825D01*
X117845275Y-76596216D01*
X117777076Y-76582650D01*
X117707542Y-76582650D01*
X117639343Y-76596216D01*
X117575101Y-76622825D01*
X117517285Y-76661457D01*
X117468116Y-76710626D01*
X117429484Y-76768442D01*
X117402875Y-76832684D01*
X117389309Y-76900883D01*
X113268603Y-76900883D01*
X113252825Y-76862792D01*
X113214193Y-76804976D01*
X113165024Y-76755807D01*
X113107208Y-76717175D01*
X113042966Y-76690566D01*
X112974767Y-76677000D01*
X112905233Y-76677000D01*
X112837034Y-76690566D01*
X112772792Y-76717175D01*
X112714976Y-76755807D01*
X112665807Y-76804976D01*
X112627175Y-76862792D01*
X112600566Y-76927034D01*
X112587000Y-76995233D01*
X112301000Y-76995233D01*
X112301000Y-76167364D01*
X116524142Y-76167364D01*
X116524142Y-76236898D01*
X116537708Y-76305097D01*
X116564317Y-76369339D01*
X116602949Y-76427155D01*
X116652118Y-76476324D01*
X116709934Y-76514956D01*
X116774176Y-76541565D01*
X116842375Y-76555131D01*
X116911909Y-76555131D01*
X116980108Y-76541565D01*
X117044350Y-76514956D01*
X117102166Y-76476324D01*
X117151335Y-76427155D01*
X117180015Y-76384232D01*
X118007000Y-76384232D01*
X118007000Y-76453766D01*
X118020566Y-76521965D01*
X118047175Y-76586207D01*
X118085807Y-76644023D01*
X118134976Y-76693192D01*
X118192792Y-76731824D01*
X118257034Y-76758433D01*
X118325233Y-76771999D01*
X118394767Y-76771999D01*
X118462966Y-76758433D01*
X118527208Y-76731824D01*
X118585024Y-76693192D01*
X118634193Y-76644023D01*
X118672825Y-76586207D01*
X118699434Y-76521965D01*
X118713000Y-76453766D01*
X118713000Y-76384232D01*
X118699434Y-76316033D01*
X118672825Y-76251791D01*
X118634193Y-76193975D01*
X118585024Y-76144806D01*
X118527208Y-76106174D01*
X118462966Y-76079565D01*
X118394767Y-76065999D01*
X118325233Y-76065999D01*
X118257034Y-76079565D01*
X118192792Y-76106174D01*
X118134976Y-76144806D01*
X118085807Y-76193975D01*
X118047175Y-76251791D01*
X118020566Y-76316033D01*
X118007000Y-76384232D01*
X117180015Y-76384232D01*
X117189967Y-76369339D01*
X117216576Y-76305097D01*
X117230142Y-76236898D01*
X117230142Y-76167364D01*
X117216576Y-76099165D01*
X117189967Y-76034923D01*
X117160533Y-75990872D01*
X117249621Y-75990872D01*
X117249621Y-76060406D01*
X117263187Y-76128605D01*
X117289796Y-76192847D01*
X117328428Y-76250663D01*
X117377597Y-76299832D01*
X117435413Y-76338464D01*
X117499655Y-76365073D01*
X117567854Y-76378639D01*
X117637388Y-76378639D01*
X117705587Y-76365073D01*
X117769829Y-76338464D01*
X117827645Y-76299832D01*
X117876814Y-76250663D01*
X117915446Y-76192847D01*
X117942055Y-76128605D01*
X117954594Y-76065567D01*
X124649553Y-76065567D01*
X124649553Y-76135101D01*
X124663119Y-76203300D01*
X124689728Y-76267542D01*
X124728360Y-76325358D01*
X124777529Y-76374527D01*
X124835345Y-76413159D01*
X124899587Y-76439768D01*
X124967786Y-76453334D01*
X125037320Y-76453334D01*
X125105519Y-76439768D01*
X125169761Y-76413159D01*
X125220146Y-76379492D01*
X125225807Y-76387964D01*
X125274976Y-76437133D01*
X125332792Y-76475765D01*
X125397034Y-76502374D01*
X125465233Y-76515940D01*
X125534767Y-76515940D01*
X125602966Y-76502374D01*
X125667208Y-76475765D01*
X125682970Y-76465233D01*
X126947000Y-76465233D01*
X126947000Y-76534767D01*
X126960566Y-76602966D01*
X126987175Y-76667208D01*
X127025807Y-76725024D01*
X127074976Y-76774193D01*
X127132792Y-76812825D01*
X127197034Y-76839434D01*
X127265233Y-76853000D01*
X127334767Y-76853000D01*
X127402966Y-76839434D01*
X127465024Y-76813730D01*
X127487175Y-76867208D01*
X127525807Y-76925024D01*
X127574976Y-76974193D01*
X127632792Y-77012825D01*
X127697034Y-77039434D01*
X127765233Y-77053000D01*
X127771759Y-77053000D01*
X127760566Y-77080024D01*
X127747000Y-77148223D01*
X127747000Y-77217757D01*
X127760566Y-77285956D01*
X127787175Y-77350198D01*
X127825807Y-77408014D01*
X127874976Y-77457183D01*
X127932792Y-77495815D01*
X127997034Y-77522424D01*
X128065233Y-77535990D01*
X128134767Y-77535990D01*
X128202966Y-77522424D01*
X128267208Y-77495815D01*
X128325024Y-77457183D01*
X128374193Y-77408014D01*
X128412825Y-77350198D01*
X128439434Y-77285956D01*
X128453000Y-77217757D01*
X128453000Y-77148223D01*
X128439434Y-77080024D01*
X128412825Y-77015782D01*
X128374193Y-76957966D01*
X128325024Y-76908797D01*
X128267208Y-76870165D01*
X128202966Y-76843556D01*
X128134767Y-76829990D01*
X128128241Y-76829990D01*
X128139434Y-76802966D01*
X128153000Y-76734767D01*
X128153000Y-76665233D01*
X128139434Y-76597034D01*
X128112825Y-76532792D01*
X128074193Y-76474976D01*
X128025024Y-76425807D01*
X127967208Y-76387175D01*
X127914234Y-76365233D01*
X132647000Y-76365233D01*
X132647000Y-76434767D01*
X132660566Y-76502966D01*
X132687175Y-76567208D01*
X132725807Y-76625024D01*
X132774976Y-76674193D01*
X132832792Y-76712825D01*
X132897034Y-76739434D01*
X132965233Y-76753000D01*
X133034767Y-76753000D01*
X133102966Y-76739434D01*
X133167208Y-76712825D01*
X133225024Y-76674193D01*
X133274193Y-76625024D01*
X133312825Y-76567208D01*
X133318575Y-76553325D01*
X133332792Y-76562825D01*
X133397034Y-76589434D01*
X133465233Y-76603000D01*
X133534767Y-76603000D01*
X133602966Y-76589434D01*
X133667208Y-76562825D01*
X133725024Y-76524193D01*
X133774193Y-76475024D01*
X133812825Y-76417208D01*
X133839434Y-76352966D01*
X133853000Y-76284767D01*
X133853000Y-76215233D01*
X133839434Y-76147034D01*
X133812825Y-76082792D01*
X133774193Y-76024976D01*
X133725024Y-75975807D01*
X133667208Y-75937175D01*
X133602966Y-75910566D01*
X133534767Y-75897000D01*
X133465233Y-75897000D01*
X133397034Y-75910566D01*
X133332792Y-75937175D01*
X133274976Y-75975807D01*
X133225807Y-76024976D01*
X133187175Y-76082792D01*
X133181425Y-76096675D01*
X133167208Y-76087175D01*
X133102966Y-76060566D01*
X133034767Y-76047000D01*
X132965233Y-76047000D01*
X132897034Y-76060566D01*
X132832792Y-76087175D01*
X132774976Y-76125807D01*
X132725807Y-76174976D01*
X132687175Y-76232792D01*
X132660566Y-76297034D01*
X132647000Y-76365233D01*
X127914234Y-76365233D01*
X127902966Y-76360566D01*
X127834767Y-76347000D01*
X127765233Y-76347000D01*
X127697034Y-76360566D01*
X127634976Y-76386270D01*
X127612825Y-76332792D01*
X127574193Y-76274976D01*
X127525024Y-76225807D01*
X127467208Y-76187175D01*
X127402966Y-76160566D01*
X127334767Y-76147000D01*
X127265233Y-76147000D01*
X127197034Y-76160566D01*
X127132792Y-76187175D01*
X127074976Y-76225807D01*
X127025807Y-76274976D01*
X126987175Y-76332792D01*
X126960566Y-76397034D01*
X126947000Y-76465233D01*
X125682970Y-76465233D01*
X125725024Y-76437133D01*
X125774193Y-76387964D01*
X125812825Y-76330148D01*
X125822773Y-76306130D01*
X125832792Y-76312825D01*
X125897034Y-76339434D01*
X125965233Y-76353000D01*
X126034767Y-76353000D01*
X126102966Y-76339434D01*
X126167208Y-76312825D01*
X126225024Y-76274193D01*
X126274193Y-76225024D01*
X126312825Y-76167208D01*
X126339434Y-76102966D01*
X126353000Y-76034767D01*
X126353000Y-75965233D01*
X126339434Y-75897034D01*
X126312825Y-75832792D01*
X126274193Y-75774976D01*
X126225024Y-75725807D01*
X126167208Y-75687175D01*
X126102966Y-75660566D01*
X126034767Y-75647000D01*
X125965233Y-75647000D01*
X125897034Y-75660566D01*
X125832792Y-75687175D01*
X125774976Y-75725807D01*
X125725807Y-75774976D01*
X125687175Y-75832792D01*
X125677227Y-75856810D01*
X125667208Y-75850115D01*
X125602966Y-75823506D01*
X125534767Y-75809940D01*
X125465233Y-75809940D01*
X125397034Y-75823506D01*
X125332792Y-75850115D01*
X125282407Y-75883782D01*
X125276746Y-75875310D01*
X125227577Y-75826141D01*
X125169761Y-75787509D01*
X125105519Y-75760900D01*
X125037320Y-75747334D01*
X124967786Y-75747334D01*
X124899587Y-75760900D01*
X124835345Y-75787509D01*
X124777529Y-75826141D01*
X124728360Y-75875310D01*
X124689728Y-75933126D01*
X124663119Y-75997368D01*
X124649553Y-76065567D01*
X117954594Y-76065567D01*
X117955621Y-76060406D01*
X117955621Y-75990872D01*
X117942055Y-75922673D01*
X117915446Y-75858431D01*
X117876814Y-75800615D01*
X117827645Y-75751446D01*
X117769829Y-75712814D01*
X117705587Y-75686205D01*
X117637388Y-75672639D01*
X117567854Y-75672639D01*
X117499655Y-75686205D01*
X117435413Y-75712814D01*
X117377597Y-75751446D01*
X117328428Y-75800615D01*
X117289796Y-75858431D01*
X117263187Y-75922673D01*
X117249621Y-75990872D01*
X117160533Y-75990872D01*
X117151335Y-75977107D01*
X117102166Y-75927938D01*
X117044350Y-75889306D01*
X116980108Y-75862697D01*
X116911909Y-75849131D01*
X116842375Y-75849131D01*
X116774176Y-75862697D01*
X116709934Y-75889306D01*
X116652118Y-75927938D01*
X116602949Y-75977107D01*
X116564317Y-76034923D01*
X116537708Y-76099165D01*
X116524142Y-76167364D01*
X112301000Y-76167364D01*
X112301000Y-75820736D01*
X112305903Y-75822767D01*
X112374102Y-75836333D01*
X112443636Y-75836333D01*
X112511835Y-75822767D01*
X112576077Y-75796158D01*
X112633893Y-75757526D01*
X112683062Y-75708357D01*
X112721694Y-75650541D01*
X112748303Y-75586299D01*
X112761869Y-75518100D01*
X112761869Y-75448566D01*
X112748303Y-75380367D01*
X112742865Y-75367236D01*
X116847000Y-75367236D01*
X116847000Y-75436770D01*
X116860566Y-75504969D01*
X116887175Y-75569211D01*
X116925807Y-75627027D01*
X116974976Y-75676196D01*
X117032792Y-75714828D01*
X117097034Y-75741437D01*
X117165233Y-75755003D01*
X117234767Y-75755003D01*
X117302966Y-75741437D01*
X117367208Y-75714828D01*
X117425024Y-75676196D01*
X117474193Y-75627027D01*
X117512825Y-75569211D01*
X117539434Y-75504969D01*
X117553000Y-75436770D01*
X117553000Y-75367236D01*
X117539434Y-75299037D01*
X117512825Y-75234795D01*
X117474193Y-75176979D01*
X117425024Y-75127810D01*
X117367208Y-75089178D01*
X117302966Y-75062569D01*
X117234767Y-75049003D01*
X117165233Y-75049003D01*
X117097034Y-75062569D01*
X117032792Y-75089178D01*
X116974976Y-75127810D01*
X116925807Y-75176979D01*
X116887175Y-75234795D01*
X116860566Y-75299037D01*
X116847000Y-75367236D01*
X112742865Y-75367236D01*
X112721694Y-75316125D01*
X112683062Y-75258309D01*
X112633893Y-75209140D01*
X112576077Y-75170508D01*
X112511835Y-75143899D01*
X112443636Y-75130333D01*
X112374102Y-75130333D01*
X112305903Y-75143899D01*
X112301000Y-75145930D01*
X112301000Y-74865233D01*
X117349003Y-74865233D01*
X117349003Y-74934767D01*
X117362569Y-75002966D01*
X117389178Y-75067208D01*
X117427810Y-75125024D01*
X117476979Y-75174193D01*
X117534795Y-75212825D01*
X117599037Y-75239434D01*
X117667236Y-75253000D01*
X117736770Y-75253000D01*
X117804969Y-75239434D01*
X117869211Y-75212825D01*
X117927027Y-75174193D01*
X117976196Y-75125024D01*
X118014828Y-75067208D01*
X118041437Y-75002966D01*
X118055003Y-74934767D01*
X118055003Y-74931426D01*
X119738625Y-74931426D01*
X119738625Y-75000960D01*
X119752191Y-75069159D01*
X119778800Y-75133401D01*
X119817432Y-75191217D01*
X119829312Y-75203097D01*
X119817432Y-75214976D01*
X119778800Y-75272792D01*
X119752191Y-75337034D01*
X119738625Y-75405233D01*
X119738625Y-75474767D01*
X119752191Y-75542966D01*
X119778800Y-75607208D01*
X119817432Y-75665024D01*
X119866601Y-75714193D01*
X119924417Y-75752825D01*
X119988659Y-75779434D01*
X120056858Y-75793000D01*
X120126392Y-75793000D01*
X120194591Y-75779434D01*
X120258833Y-75752825D01*
X120316649Y-75714193D01*
X120365818Y-75665024D01*
X120404450Y-75607208D01*
X120431059Y-75542966D01*
X120441908Y-75488422D01*
X120648636Y-75488422D01*
X120648636Y-75557956D01*
X120662202Y-75626155D01*
X120688811Y-75690397D01*
X120727443Y-75748213D01*
X120776612Y-75797382D01*
X120834428Y-75836014D01*
X120898670Y-75862623D01*
X120966869Y-75876189D01*
X121036403Y-75876189D01*
X121104602Y-75862623D01*
X121168844Y-75836014D01*
X121226660Y-75797382D01*
X121275829Y-75748213D01*
X121314461Y-75690397D01*
X121341070Y-75626155D01*
X121354636Y-75557956D01*
X121354636Y-75488422D01*
X121341070Y-75420223D01*
X121314461Y-75355981D01*
X121313901Y-75355142D01*
X122447000Y-75355142D01*
X122447000Y-75424676D01*
X122460566Y-75492875D01*
X122487175Y-75557117D01*
X122525807Y-75614933D01*
X122574976Y-75664102D01*
X122632792Y-75702734D01*
X122697034Y-75729343D01*
X122765233Y-75742909D01*
X122834767Y-75742909D01*
X122902966Y-75729343D01*
X122967208Y-75702734D01*
X123025024Y-75664102D01*
X123074193Y-75614933D01*
X123112825Y-75557117D01*
X123139434Y-75492875D01*
X123153000Y-75424676D01*
X123153000Y-75355142D01*
X123139434Y-75286943D01*
X123112825Y-75222701D01*
X123074193Y-75164885D01*
X123054111Y-75144803D01*
X123055024Y-75144193D01*
X123104193Y-75095024D01*
X123142825Y-75037208D01*
X123169434Y-74972966D01*
X123183000Y-74904767D01*
X123183000Y-74835233D01*
X123169434Y-74767034D01*
X123142825Y-74702792D01*
X123104193Y-74644976D01*
X123074450Y-74615233D01*
X123907000Y-74615233D01*
X123907000Y-74684767D01*
X123920566Y-74752966D01*
X123947175Y-74817208D01*
X123985807Y-74875024D01*
X124034976Y-74924193D01*
X124092792Y-74962825D01*
X124157034Y-74989434D01*
X124225233Y-75003000D01*
X124247000Y-75003000D01*
X124247000Y-75059767D01*
X124260566Y-75127966D01*
X124287175Y-75192208D01*
X124325807Y-75250024D01*
X124374976Y-75299193D01*
X124432792Y-75337825D01*
X124497034Y-75364434D01*
X124565233Y-75378000D01*
X124634767Y-75378000D01*
X124702966Y-75364434D01*
X124767208Y-75337825D01*
X124825024Y-75299193D01*
X124874193Y-75250024D01*
X124912825Y-75192208D01*
X124939434Y-75127966D01*
X124953000Y-75059767D01*
X124953000Y-74990233D01*
X124939434Y-74922034D01*
X124912825Y-74857792D01*
X124874193Y-74799976D01*
X124837859Y-74763642D01*
X126710043Y-74763642D01*
X126710043Y-74833176D01*
X126723609Y-74901375D01*
X126750218Y-74965617D01*
X126788850Y-75023433D01*
X126820991Y-75055574D01*
X126811056Y-75065508D01*
X126772424Y-75123324D01*
X126745815Y-75187566D01*
X126732249Y-75255765D01*
X126732249Y-75325299D01*
X126745815Y-75393498D01*
X126772424Y-75457740D01*
X126811056Y-75515556D01*
X126860225Y-75564725D01*
X126918041Y-75603357D01*
X126982283Y-75629966D01*
X127050482Y-75643532D01*
X127120016Y-75643532D01*
X127188215Y-75629966D01*
X127252457Y-75603357D01*
X127310273Y-75564725D01*
X127359442Y-75515556D01*
X127398074Y-75457740D01*
X127424683Y-75393498D01*
X127438249Y-75325299D01*
X127438249Y-75255765D01*
X127424683Y-75187566D01*
X127398074Y-75123324D01*
X127359442Y-75065508D01*
X127327302Y-75033368D01*
X127337236Y-75023433D01*
X127375868Y-74965617D01*
X127402477Y-74901375D01*
X127416043Y-74833176D01*
X127416043Y-74763642D01*
X127402477Y-74695443D01*
X127375868Y-74631201D01*
X127359373Y-74606515D01*
X133109857Y-74606515D01*
X133109857Y-74676049D01*
X133123423Y-74744248D01*
X133150032Y-74808490D01*
X133188664Y-74866306D01*
X133237833Y-74915475D01*
X133295649Y-74954107D01*
X133359891Y-74980716D01*
X133428090Y-74994282D01*
X133497624Y-74994282D01*
X133565823Y-74980716D01*
X133630065Y-74954107D01*
X133687881Y-74915475D01*
X133737050Y-74866306D01*
X133775682Y-74808490D01*
X133802291Y-74744248D01*
X133808062Y-74715233D01*
X135047000Y-74715233D01*
X135047000Y-74784767D01*
X135060566Y-74852966D01*
X135087175Y-74917208D01*
X135125807Y-74975024D01*
X135131782Y-74980999D01*
X135097175Y-75032792D01*
X135070566Y-75097034D01*
X135057000Y-75165233D01*
X135057000Y-75234767D01*
X135070566Y-75302966D01*
X135097175Y-75367208D01*
X135135807Y-75425024D01*
X135184976Y-75474193D01*
X135242792Y-75512825D01*
X135307034Y-75539434D01*
X135375233Y-75553000D01*
X135444767Y-75553000D01*
X135512966Y-75539434D01*
X135562769Y-75518806D01*
X135555605Y-75542361D01*
X135542000Y-75679500D01*
X135542000Y-76029500D01*
X136244500Y-76029500D01*
X136244500Y-75015250D01*
X136134533Y-74985733D01*
X136108342Y-74990410D01*
X135976436Y-75030321D01*
X135854850Y-75095199D01*
X135763000Y-75170469D01*
X135763000Y-75165233D01*
X135749434Y-75097034D01*
X135722825Y-75032792D01*
X135684193Y-74974976D01*
X135678218Y-74969001D01*
X135712825Y-74917208D01*
X135739434Y-74852966D01*
X135753000Y-74784767D01*
X135753000Y-74715233D01*
X135739434Y-74647034D01*
X135712825Y-74582792D01*
X135674193Y-74524976D01*
X135625024Y-74475807D01*
X135567208Y-74437175D01*
X135502966Y-74410566D01*
X135434767Y-74397000D01*
X135365233Y-74397000D01*
X135297034Y-74410566D01*
X135232792Y-74437175D01*
X135174976Y-74475807D01*
X135125807Y-74524976D01*
X135087175Y-74582792D01*
X135060566Y-74647034D01*
X135047000Y-74715233D01*
X133808062Y-74715233D01*
X133815857Y-74676049D01*
X133815857Y-74606515D01*
X133802291Y-74538316D01*
X133775682Y-74474074D01*
X133737050Y-74416258D01*
X133687881Y-74367089D01*
X133630065Y-74328457D01*
X133565823Y-74301848D01*
X133497624Y-74288282D01*
X133428090Y-74288282D01*
X133359891Y-74301848D01*
X133295649Y-74328457D01*
X133237833Y-74367089D01*
X133188664Y-74416258D01*
X133150032Y-74474074D01*
X133123423Y-74538316D01*
X133109857Y-74606515D01*
X127359373Y-74606515D01*
X127351031Y-74594031D01*
X127376230Y-74577193D01*
X127425399Y-74528024D01*
X127464031Y-74470208D01*
X127490640Y-74405966D01*
X127504206Y-74337767D01*
X127504206Y-74268233D01*
X127490640Y-74200034D01*
X127464031Y-74135792D01*
X127425399Y-74077976D01*
X127376230Y-74028807D01*
X127318414Y-73990175D01*
X127254172Y-73963566D01*
X127185973Y-73950000D01*
X127116439Y-73950000D01*
X127048240Y-73963566D01*
X126983998Y-73990175D01*
X126926182Y-74028807D01*
X126877013Y-74077976D01*
X126838381Y-74135792D01*
X126811772Y-74200034D01*
X126798206Y-74268233D01*
X126798206Y-74337767D01*
X126811772Y-74405966D01*
X126838381Y-74470208D01*
X126863218Y-74507378D01*
X126838019Y-74524216D01*
X126788850Y-74573385D01*
X126750218Y-74631201D01*
X126723609Y-74695443D01*
X126710043Y-74763642D01*
X124837859Y-74763642D01*
X124825024Y-74750807D01*
X124767208Y-74712175D01*
X124702966Y-74685566D01*
X124634767Y-74672000D01*
X124613000Y-74672000D01*
X124613000Y-74615233D01*
X124599434Y-74547034D01*
X124572825Y-74482792D01*
X124534193Y-74424976D01*
X124485024Y-74375807D01*
X124427208Y-74337175D01*
X124362966Y-74310566D01*
X124294767Y-74297000D01*
X124225233Y-74297000D01*
X124157034Y-74310566D01*
X124092792Y-74337175D01*
X124034976Y-74375807D01*
X123985807Y-74424976D01*
X123947175Y-74482792D01*
X123920566Y-74547034D01*
X123907000Y-74615233D01*
X123074450Y-74615233D01*
X123055024Y-74595807D01*
X122997208Y-74557175D01*
X122932966Y-74530566D01*
X122864767Y-74517000D01*
X122795233Y-74517000D01*
X122727034Y-74530566D01*
X122662792Y-74557175D01*
X122604976Y-74595807D01*
X122555807Y-74644976D01*
X122517175Y-74702792D01*
X122490566Y-74767034D01*
X122477000Y-74835233D01*
X122477000Y-74904767D01*
X122490566Y-74972966D01*
X122517175Y-75037208D01*
X122555807Y-75095024D01*
X122575889Y-75115106D01*
X122574976Y-75115716D01*
X122525807Y-75164885D01*
X122487175Y-75222701D01*
X122460566Y-75286943D01*
X122447000Y-75355142D01*
X121313901Y-75355142D01*
X121275829Y-75298165D01*
X121226660Y-75248996D01*
X121168844Y-75210364D01*
X121104602Y-75183755D01*
X121036403Y-75170189D01*
X120966869Y-75170189D01*
X120898670Y-75183755D01*
X120834428Y-75210364D01*
X120776612Y-75248996D01*
X120727443Y-75298165D01*
X120688811Y-75355981D01*
X120662202Y-75420223D01*
X120648636Y-75488422D01*
X120441908Y-75488422D01*
X120444625Y-75474767D01*
X120444625Y-75405233D01*
X120431059Y-75337034D01*
X120404450Y-75272792D01*
X120365818Y-75214976D01*
X120353939Y-75203097D01*
X120365818Y-75191217D01*
X120404450Y-75133401D01*
X120431059Y-75069159D01*
X120444625Y-75000960D01*
X120444625Y-74931426D01*
X120431059Y-74863227D01*
X120404450Y-74798985D01*
X120365818Y-74741169D01*
X120316649Y-74692000D01*
X120258833Y-74653368D01*
X120194591Y-74626759D01*
X120126392Y-74613193D01*
X120056858Y-74613193D01*
X119988659Y-74626759D01*
X119924417Y-74653368D01*
X119866601Y-74692000D01*
X119817432Y-74741169D01*
X119778800Y-74798985D01*
X119752191Y-74863227D01*
X119738625Y-74931426D01*
X118055003Y-74931426D01*
X118055003Y-74865233D01*
X118041437Y-74797034D01*
X118014828Y-74732792D01*
X117976196Y-74674976D01*
X117927027Y-74625807D01*
X117869211Y-74587175D01*
X117804969Y-74560566D01*
X117736770Y-74547000D01*
X117667236Y-74547000D01*
X117599037Y-74560566D01*
X117534795Y-74587175D01*
X117476979Y-74625807D01*
X117427810Y-74674976D01*
X117389178Y-74732792D01*
X117362569Y-74797034D01*
X117349003Y-74865233D01*
X112301000Y-74865233D01*
X112301000Y-73614669D01*
X116175649Y-73614669D01*
X116175649Y-73684203D01*
X116189215Y-73752402D01*
X116215824Y-73816644D01*
X116254456Y-73874460D01*
X116303625Y-73923629D01*
X116361441Y-73962261D01*
X116425683Y-73988870D01*
X116493882Y-74002436D01*
X116563416Y-74002436D01*
X116631615Y-73988870D01*
X116695857Y-73962261D01*
X116753673Y-73923629D01*
X116772706Y-73904596D01*
X121047456Y-73904596D01*
X121047456Y-73974130D01*
X121061022Y-74042329D01*
X121087631Y-74106571D01*
X121126263Y-74164387D01*
X121175432Y-74213556D01*
X121233248Y-74252188D01*
X121297490Y-74278797D01*
X121365689Y-74292363D01*
X121435223Y-74292363D01*
X121503422Y-74278797D01*
X121567664Y-74252188D01*
X121625480Y-74213556D01*
X121674649Y-74164387D01*
X121713281Y-74106571D01*
X121739890Y-74042329D01*
X121753456Y-73974130D01*
X121753456Y-73904596D01*
X121739890Y-73836397D01*
X121713281Y-73772155D01*
X121674649Y-73714339D01*
X121625480Y-73665170D01*
X121567664Y-73626538D01*
X121503422Y-73599929D01*
X121435223Y-73586363D01*
X121365689Y-73586363D01*
X121297490Y-73599929D01*
X121233248Y-73626538D01*
X121175432Y-73665170D01*
X121126263Y-73714339D01*
X121087631Y-73772155D01*
X121061022Y-73836397D01*
X121047456Y-73904596D01*
X116772706Y-73904596D01*
X116802842Y-73874460D01*
X116841474Y-73816644D01*
X116868083Y-73752402D01*
X116881649Y-73684203D01*
X116881649Y-73614669D01*
X116868083Y-73546470D01*
X116841474Y-73482228D01*
X116802842Y-73424412D01*
X116753673Y-73375243D01*
X116695857Y-73336611D01*
X116631615Y-73310002D01*
X116563416Y-73296436D01*
X116493882Y-73296436D01*
X116425683Y-73310002D01*
X116361441Y-73336611D01*
X116303625Y-73375243D01*
X116254456Y-73424412D01*
X116215824Y-73482228D01*
X116189215Y-73546470D01*
X116175649Y-73614669D01*
X112301000Y-73614669D01*
X112301000Y-72511996D01*
X116481173Y-72511996D01*
X116481173Y-72581530D01*
X116494739Y-72649729D01*
X116521348Y-72713971D01*
X116559980Y-72771787D01*
X116609149Y-72820956D01*
X116666965Y-72859588D01*
X116731207Y-72886197D01*
X116799406Y-72899763D01*
X116868940Y-72899763D01*
X116937139Y-72886197D01*
X117001381Y-72859588D01*
X117059197Y-72820956D01*
X117104850Y-72775303D01*
X126565990Y-72775303D01*
X126565990Y-72844837D01*
X126579556Y-72913036D01*
X126606165Y-72977278D01*
X126644797Y-73035094D01*
X126693966Y-73084263D01*
X126751782Y-73122895D01*
X126770242Y-73130541D01*
X126725807Y-73174976D01*
X126687175Y-73232792D01*
X126660566Y-73297034D01*
X126647000Y-73365233D01*
X126647000Y-73434767D01*
X126660566Y-73502966D01*
X126687175Y-73567208D01*
X126725807Y-73625024D01*
X126774976Y-73674193D01*
X126832792Y-73712825D01*
X126897034Y-73739434D01*
X126965233Y-73753000D01*
X127034767Y-73753000D01*
X127102966Y-73739434D01*
X127167208Y-73712825D01*
X127225024Y-73674193D01*
X127274193Y-73625024D01*
X127312825Y-73567208D01*
X127339434Y-73502966D01*
X127353000Y-73434767D01*
X127353000Y-73365233D01*
X127339434Y-73297034D01*
X127312825Y-73232792D01*
X127311294Y-73230500D01*
X133392000Y-73230500D01*
X133392000Y-73780500D01*
X133405605Y-73917639D01*
X133445704Y-74049489D01*
X133510755Y-74170982D01*
X133598258Y-74277450D01*
X133704850Y-74364801D01*
X133826436Y-74429679D01*
X133958342Y-74469590D01*
X133984533Y-74474267D01*
X134094500Y-74444750D01*
X134094500Y-73230500D01*
X133392000Y-73230500D01*
X127311294Y-73230500D01*
X127274193Y-73174976D01*
X127225024Y-73125807D01*
X127167208Y-73087175D01*
X127148748Y-73079529D01*
X127193183Y-73035094D01*
X127231815Y-72977278D01*
X127258424Y-72913036D01*
X127271990Y-72844837D01*
X127271990Y-72775303D01*
X127258424Y-72707104D01*
X127246991Y-72679500D01*
X133392000Y-72679500D01*
X133392000Y-73229500D01*
X134094500Y-73229500D01*
X134094500Y-72015250D01*
X134095500Y-72015250D01*
X134095500Y-73229500D01*
X134115500Y-73229500D01*
X134115500Y-73230500D01*
X134095500Y-73230500D01*
X134095500Y-74444750D01*
X134205467Y-74474267D01*
X134231658Y-74469590D01*
X134363564Y-74429679D01*
X134485150Y-74364801D01*
X134591742Y-74277450D01*
X134679245Y-74170982D01*
X134744296Y-74049489D01*
X134784395Y-73917639D01*
X134798000Y-73780500D01*
X134798000Y-73650367D01*
X134844034Y-73669434D01*
X134912233Y-73683000D01*
X134981767Y-73683000D01*
X135049966Y-73669434D01*
X135114208Y-73642825D01*
X135172024Y-73604193D01*
X135221193Y-73555024D01*
X135259825Y-73497208D01*
X135286434Y-73432966D01*
X135300000Y-73364767D01*
X135300000Y-73295233D01*
X135286434Y-73227034D01*
X135259825Y-73162792D01*
X135221193Y-73104976D01*
X135172024Y-73055807D01*
X135114208Y-73017175D01*
X135049966Y-72990566D01*
X134981767Y-72977000D01*
X134912233Y-72977000D01*
X134844034Y-72990566D01*
X134798000Y-73009633D01*
X134798000Y-72679500D01*
X134784395Y-72542361D01*
X134744296Y-72410511D01*
X134679245Y-72289018D01*
X134591742Y-72182550D01*
X134485150Y-72095199D01*
X134363564Y-72030321D01*
X134231658Y-71990410D01*
X134205467Y-71985733D01*
X134095500Y-72015250D01*
X134094500Y-72015250D01*
X133984533Y-71985733D01*
X133958342Y-71990410D01*
X133826436Y-72030321D01*
X133704850Y-72095199D01*
X133598258Y-72182550D01*
X133510755Y-72289018D01*
X133445704Y-72410511D01*
X133405605Y-72542361D01*
X133392000Y-72679500D01*
X127246991Y-72679500D01*
X127231815Y-72642862D01*
X127193183Y-72585046D01*
X127166222Y-72558085D01*
X127227208Y-72532825D01*
X127285024Y-72494193D01*
X127334193Y-72445024D01*
X127372825Y-72387208D01*
X127399434Y-72322966D01*
X127413000Y-72254767D01*
X127413000Y-72185233D01*
X127399434Y-72117034D01*
X127372825Y-72052792D01*
X127334193Y-71994976D01*
X127324450Y-71985233D01*
X127747000Y-71985233D01*
X127747000Y-72054767D01*
X127760566Y-72122966D01*
X127787175Y-72187208D01*
X127825807Y-72245024D01*
X127874976Y-72294193D01*
X127932792Y-72332825D01*
X127997034Y-72359434D01*
X128065233Y-72373000D01*
X128134767Y-72373000D01*
X128202966Y-72359434D01*
X128267208Y-72332825D01*
X128325024Y-72294193D01*
X128374193Y-72245024D01*
X128412825Y-72187208D01*
X128439434Y-72122966D01*
X128453000Y-72054767D01*
X128453000Y-71985233D01*
X128439434Y-71917034D01*
X128412825Y-71852792D01*
X128375330Y-71796677D01*
X132127629Y-71796677D01*
X132127629Y-71866211D01*
X132141195Y-71934410D01*
X132167804Y-71998652D01*
X132206436Y-72056468D01*
X132255605Y-72105637D01*
X132313421Y-72144269D01*
X132377663Y-72170878D01*
X132445862Y-72184444D01*
X132515396Y-72184444D01*
X132583595Y-72170878D01*
X132647837Y-72144269D01*
X132673892Y-72126859D01*
X132697257Y-72161827D01*
X132746426Y-72210996D01*
X132804242Y-72249628D01*
X132868484Y-72276237D01*
X132936683Y-72289803D01*
X133006217Y-72289803D01*
X133074416Y-72276237D01*
X133138658Y-72249628D01*
X133196474Y-72210996D01*
X133245643Y-72161827D01*
X133284275Y-72104011D01*
X133310884Y-72039769D01*
X133324450Y-71971570D01*
X133324450Y-71902036D01*
X133310884Y-71833837D01*
X133284275Y-71769595D01*
X133245643Y-71711779D01*
X133196474Y-71662610D01*
X133138658Y-71623978D01*
X133074416Y-71597369D01*
X133006217Y-71583803D01*
X132936683Y-71583803D01*
X132868484Y-71597369D01*
X132804242Y-71623978D01*
X132778187Y-71641388D01*
X132754822Y-71606420D01*
X132705653Y-71557251D01*
X132647837Y-71518619D01*
X132583595Y-71492010D01*
X132515396Y-71478444D01*
X132445862Y-71478444D01*
X132377663Y-71492010D01*
X132313421Y-71518619D01*
X132255605Y-71557251D01*
X132206436Y-71606420D01*
X132167804Y-71664236D01*
X132141195Y-71728478D01*
X132127629Y-71796677D01*
X128375330Y-71796677D01*
X128374193Y-71794976D01*
X128325024Y-71745807D01*
X128267208Y-71707175D01*
X128202966Y-71680566D01*
X128134767Y-71667000D01*
X128065233Y-71667000D01*
X127997034Y-71680566D01*
X127932792Y-71707175D01*
X127874976Y-71745807D01*
X127825807Y-71794976D01*
X127787175Y-71852792D01*
X127760566Y-71917034D01*
X127747000Y-71985233D01*
X127324450Y-71985233D01*
X127285024Y-71945807D01*
X127227208Y-71907175D01*
X127162966Y-71880566D01*
X127094767Y-71867000D01*
X127025233Y-71867000D01*
X126957034Y-71880566D01*
X126892792Y-71907175D01*
X126834976Y-71945807D01*
X126785807Y-71994976D01*
X126747175Y-72052792D01*
X126720566Y-72117034D01*
X126707000Y-72185233D01*
X126707000Y-72254767D01*
X126720566Y-72322966D01*
X126747175Y-72387208D01*
X126785807Y-72445024D01*
X126812768Y-72471985D01*
X126751782Y-72497245D01*
X126693966Y-72535877D01*
X126644797Y-72585046D01*
X126606165Y-72642862D01*
X126579556Y-72707104D01*
X126565990Y-72775303D01*
X117104850Y-72775303D01*
X117108366Y-72771787D01*
X117146998Y-72713971D01*
X117173607Y-72649729D01*
X117187173Y-72581530D01*
X117187173Y-72511996D01*
X117173607Y-72443797D01*
X117146998Y-72379555D01*
X117108366Y-72321739D01*
X117059197Y-72272570D01*
X117001381Y-72233938D01*
X116937139Y-72207329D01*
X116868940Y-72193763D01*
X116799406Y-72193763D01*
X116731207Y-72207329D01*
X116666965Y-72233938D01*
X116609149Y-72272570D01*
X116559980Y-72321739D01*
X116521348Y-72379555D01*
X116494739Y-72443797D01*
X116481173Y-72511996D01*
X112301000Y-72511996D01*
X112301000Y-72069115D01*
X112588264Y-72069115D01*
X112588264Y-72138649D01*
X112601830Y-72206848D01*
X112628439Y-72271090D01*
X112667071Y-72328906D01*
X112716240Y-72378075D01*
X112774056Y-72416707D01*
X112838298Y-72443316D01*
X112906497Y-72456882D01*
X112976031Y-72456882D01*
X113044230Y-72443316D01*
X113108472Y-72416707D01*
X113166288Y-72378075D01*
X113215457Y-72328906D01*
X113254089Y-72271090D01*
X113280698Y-72206848D01*
X113294264Y-72138649D01*
X113294264Y-72069115D01*
X113280698Y-72000916D01*
X113261777Y-71955233D01*
X113557000Y-71955233D01*
X113557000Y-72024767D01*
X113570566Y-72092966D01*
X113597175Y-72157208D01*
X113635807Y-72215024D01*
X113684976Y-72264193D01*
X113742792Y-72302825D01*
X113807034Y-72329434D01*
X113875233Y-72343000D01*
X113944767Y-72343000D01*
X114012966Y-72329434D01*
X114077208Y-72302825D01*
X114135024Y-72264193D01*
X114184193Y-72215024D01*
X114222825Y-72157208D01*
X114249434Y-72092966D01*
X114263000Y-72024767D01*
X114263000Y-71955233D01*
X114249434Y-71887034D01*
X114222825Y-71822792D01*
X114184365Y-71765233D01*
X115047000Y-71765233D01*
X115047000Y-71834767D01*
X115060566Y-71902966D01*
X115087175Y-71967208D01*
X115125807Y-72025024D01*
X115174976Y-72074193D01*
X115232792Y-72112825D01*
X115297034Y-72139434D01*
X115365233Y-72153000D01*
X115434767Y-72153000D01*
X115502966Y-72139434D01*
X115567208Y-72112825D01*
X115625024Y-72074193D01*
X115674193Y-72025024D01*
X115712825Y-71967208D01*
X115739434Y-71902966D01*
X115753000Y-71834767D01*
X115753000Y-71765233D01*
X115739434Y-71697034D01*
X115712825Y-71632792D01*
X115674193Y-71574976D01*
X115664450Y-71565233D01*
X117247000Y-71565233D01*
X117247000Y-71634767D01*
X117260566Y-71702966D01*
X117287175Y-71767208D01*
X117325807Y-71825024D01*
X117374976Y-71874193D01*
X117432792Y-71912825D01*
X117497034Y-71939434D01*
X117565233Y-71953000D01*
X117604663Y-71953000D01*
X117590566Y-71987034D01*
X117577000Y-72055233D01*
X117577000Y-72124767D01*
X117590566Y-72192966D01*
X117617175Y-72257208D01*
X117655807Y-72315024D01*
X117704976Y-72364193D01*
X117762792Y-72402825D01*
X117827034Y-72429434D01*
X117895233Y-72443000D01*
X117964767Y-72443000D01*
X118032966Y-72429434D01*
X118097208Y-72402825D01*
X118155024Y-72364193D01*
X118204193Y-72315024D01*
X118242825Y-72257208D01*
X118269434Y-72192966D01*
X118283000Y-72124767D01*
X118283000Y-72055233D01*
X118269434Y-71987034D01*
X118242825Y-71922792D01*
X118234749Y-71910705D01*
X118294223Y-71886071D01*
X118352039Y-71847439D01*
X118401208Y-71798270D01*
X118421945Y-71767235D01*
X119807000Y-71767235D01*
X119807000Y-71836769D01*
X119820566Y-71904968D01*
X119847175Y-71969210D01*
X119885807Y-72027026D01*
X119934976Y-72076195D01*
X119992792Y-72114827D01*
X120057034Y-72141436D01*
X120125233Y-72155002D01*
X120194767Y-72155002D01*
X120262966Y-72141436D01*
X120327208Y-72114827D01*
X120385024Y-72076195D01*
X120434193Y-72027026D01*
X120472825Y-71969210D01*
X120499434Y-71904968D01*
X120513000Y-71836769D01*
X120513000Y-71767235D01*
X120499434Y-71699036D01*
X120472825Y-71634794D01*
X120434193Y-71576978D01*
X120392448Y-71535233D01*
X120967000Y-71535233D01*
X120967000Y-71604767D01*
X120980566Y-71672966D01*
X121007175Y-71737208D01*
X121045807Y-71795024D01*
X121094976Y-71844193D01*
X121152792Y-71882825D01*
X121217034Y-71909434D01*
X121285233Y-71923000D01*
X121354767Y-71923000D01*
X121422966Y-71909434D01*
X121487208Y-71882825D01*
X121545024Y-71844193D01*
X121594193Y-71795024D01*
X121632825Y-71737208D01*
X121659434Y-71672966D01*
X121673000Y-71604767D01*
X121673000Y-71535233D01*
X121659434Y-71467034D01*
X121632825Y-71402792D01*
X121594193Y-71344976D01*
X121569671Y-71320454D01*
X125162525Y-71320454D01*
X125162525Y-71389988D01*
X125176091Y-71458187D01*
X125202700Y-71522429D01*
X125241332Y-71580245D01*
X125290501Y-71629414D01*
X125348317Y-71668046D01*
X125412559Y-71694655D01*
X125480758Y-71708221D01*
X125550292Y-71708221D01*
X125618491Y-71694655D01*
X125682733Y-71668046D01*
X125740549Y-71629414D01*
X125789718Y-71580245D01*
X125828350Y-71522429D01*
X125854959Y-71458187D01*
X125868525Y-71389988D01*
X125868525Y-71320454D01*
X125854959Y-71252255D01*
X125828350Y-71188013D01*
X125789718Y-71130197D01*
X125740549Y-71081028D01*
X125682733Y-71042396D01*
X125618491Y-71015787D01*
X125550292Y-71002221D01*
X125480758Y-71002221D01*
X125412559Y-71015787D01*
X125348317Y-71042396D01*
X125290501Y-71081028D01*
X125241332Y-71130197D01*
X125202700Y-71188013D01*
X125176091Y-71252255D01*
X125162525Y-71320454D01*
X121569671Y-71320454D01*
X121545024Y-71295807D01*
X121487208Y-71257175D01*
X121422966Y-71230566D01*
X121354767Y-71217000D01*
X121285233Y-71217000D01*
X121217034Y-71230566D01*
X121152792Y-71257175D01*
X121094976Y-71295807D01*
X121045807Y-71344976D01*
X121007175Y-71402792D01*
X120980566Y-71467034D01*
X120967000Y-71535233D01*
X120392448Y-71535233D01*
X120385024Y-71527809D01*
X120327208Y-71489177D01*
X120262966Y-71462568D01*
X120194767Y-71449002D01*
X120125233Y-71449002D01*
X120057034Y-71462568D01*
X119992792Y-71489177D01*
X119934976Y-71527809D01*
X119885807Y-71576978D01*
X119847175Y-71634794D01*
X119820566Y-71699036D01*
X119807000Y-71767235D01*
X118421945Y-71767235D01*
X118439840Y-71740454D01*
X118466449Y-71676212D01*
X118480015Y-71608013D01*
X118480015Y-71538479D01*
X118466449Y-71470280D01*
X118439840Y-71406038D01*
X118401208Y-71348222D01*
X118352039Y-71299053D01*
X118294223Y-71260421D01*
X118229981Y-71233812D01*
X118161782Y-71220246D01*
X118092248Y-71220246D01*
X118024049Y-71233812D01*
X117959807Y-71260421D01*
X117901991Y-71299053D01*
X117852822Y-71348222D01*
X117850666Y-71351449D01*
X117825024Y-71325807D01*
X117767208Y-71287175D01*
X117702966Y-71260566D01*
X117634767Y-71247000D01*
X117565233Y-71247000D01*
X117497034Y-71260566D01*
X117432792Y-71287175D01*
X117374976Y-71325807D01*
X117325807Y-71374976D01*
X117287175Y-71432792D01*
X117260566Y-71497034D01*
X117247000Y-71565233D01*
X115664450Y-71565233D01*
X115625024Y-71525807D01*
X115567208Y-71487175D01*
X115502966Y-71460566D01*
X115434767Y-71447000D01*
X115365233Y-71447000D01*
X115297034Y-71460566D01*
X115232792Y-71487175D01*
X115174976Y-71525807D01*
X115125807Y-71574976D01*
X115087175Y-71632792D01*
X115060566Y-71697034D01*
X115047000Y-71765233D01*
X114184365Y-71765233D01*
X114184193Y-71764976D01*
X114135024Y-71715807D01*
X114077208Y-71677175D01*
X114012966Y-71650566D01*
X113944767Y-71637000D01*
X113875233Y-71637000D01*
X113807034Y-71650566D01*
X113742792Y-71677175D01*
X113684976Y-71715807D01*
X113635807Y-71764976D01*
X113597175Y-71822792D01*
X113570566Y-71887034D01*
X113557000Y-71955233D01*
X113261777Y-71955233D01*
X113254089Y-71936674D01*
X113215457Y-71878858D01*
X113166288Y-71829689D01*
X113108472Y-71791057D01*
X113044230Y-71764448D01*
X112976031Y-71750882D01*
X112906497Y-71750882D01*
X112838298Y-71764448D01*
X112774056Y-71791057D01*
X112716240Y-71829689D01*
X112667071Y-71878858D01*
X112628439Y-71936674D01*
X112601830Y-72000916D01*
X112588264Y-72069115D01*
X112301000Y-72069115D01*
X112301000Y-70991106D01*
X128429643Y-70991106D01*
X128429643Y-71060640D01*
X128443209Y-71128839D01*
X128469818Y-71193081D01*
X128508450Y-71250897D01*
X128557619Y-71300066D01*
X128615435Y-71338698D01*
X128679677Y-71365307D01*
X128747876Y-71378873D01*
X128817410Y-71378873D01*
X128885609Y-71365307D01*
X128949851Y-71338698D01*
X129007667Y-71300066D01*
X129056836Y-71250897D01*
X129095468Y-71193081D01*
X129122077Y-71128839D01*
X129135643Y-71060640D01*
X129135643Y-70991106D01*
X129122077Y-70922907D01*
X129095468Y-70858665D01*
X129056836Y-70800849D01*
X129007667Y-70751680D01*
X128949851Y-70713048D01*
X128885609Y-70686439D01*
X128817410Y-70672873D01*
X128747876Y-70672873D01*
X128679677Y-70686439D01*
X128615435Y-70713048D01*
X128557619Y-70751680D01*
X128508450Y-70800849D01*
X128469818Y-70858665D01*
X128443209Y-70922907D01*
X128429643Y-70991106D01*
X112301000Y-70991106D01*
X112301000Y-70024342D01*
X116710392Y-70024342D01*
X116710392Y-70093876D01*
X116723958Y-70162075D01*
X116750567Y-70226317D01*
X116789199Y-70284133D01*
X116838368Y-70333302D01*
X116896184Y-70371934D01*
X116960426Y-70398543D01*
X117028625Y-70412109D01*
X117098159Y-70412109D01*
X117166358Y-70398543D01*
X117230600Y-70371934D01*
X117288416Y-70333302D01*
X117306485Y-70315233D01*
X123697000Y-70315233D01*
X123697000Y-70384767D01*
X123710566Y-70452966D01*
X123737175Y-70517208D01*
X123775807Y-70575024D01*
X123824976Y-70624193D01*
X123882792Y-70662825D01*
X123947034Y-70689434D01*
X124015233Y-70703000D01*
X124084767Y-70703000D01*
X124152966Y-70689434D01*
X124217208Y-70662825D01*
X124275024Y-70624193D01*
X124324193Y-70575024D01*
X124347916Y-70539521D01*
X124382792Y-70562825D01*
X124447034Y-70589434D01*
X124515233Y-70603000D01*
X124584767Y-70603000D01*
X124652966Y-70589434D01*
X124717208Y-70562825D01*
X124773451Y-70525244D01*
X126276820Y-70525244D01*
X126276820Y-70594778D01*
X126290386Y-70662977D01*
X126316995Y-70727219D01*
X126355627Y-70785035D01*
X126404796Y-70834204D01*
X126462612Y-70872836D01*
X126526854Y-70899445D01*
X126595053Y-70913011D01*
X126664587Y-70913011D01*
X126732786Y-70899445D01*
X126797028Y-70872836D01*
X126854844Y-70834204D01*
X126904013Y-70785035D01*
X126942645Y-70727219D01*
X126969254Y-70662977D01*
X126982820Y-70594778D01*
X126982820Y-70525244D01*
X126969254Y-70457045D01*
X126942645Y-70392803D01*
X126904013Y-70334987D01*
X126854844Y-70285818D01*
X126827033Y-70267235D01*
X128237000Y-70267235D01*
X128237000Y-70336769D01*
X128250566Y-70404968D01*
X128277175Y-70469210D01*
X128315807Y-70527026D01*
X128364976Y-70576195D01*
X128422792Y-70614827D01*
X128487034Y-70641436D01*
X128555233Y-70655002D01*
X128624767Y-70655002D01*
X128692966Y-70641436D01*
X128757208Y-70614827D01*
X128815024Y-70576195D01*
X128864193Y-70527026D01*
X128902825Y-70469210D01*
X128929434Y-70404968D01*
X128943000Y-70336769D01*
X128943000Y-70267235D01*
X128929434Y-70199036D01*
X128902825Y-70134794D01*
X128864193Y-70076978D01*
X128852448Y-70065233D01*
X132847000Y-70065233D01*
X132847000Y-70134767D01*
X132860566Y-70202966D01*
X132887175Y-70267208D01*
X132925807Y-70325024D01*
X132974976Y-70374193D01*
X133032792Y-70412825D01*
X133097034Y-70439434D01*
X133165233Y-70453000D01*
X133209109Y-70453000D01*
X133174976Y-70475807D01*
X133125807Y-70524976D01*
X133087175Y-70582792D01*
X133060566Y-70647034D01*
X133047000Y-70715233D01*
X133047000Y-70784767D01*
X133060566Y-70852966D01*
X133087175Y-70917208D01*
X133125807Y-70975024D01*
X133174976Y-71024193D01*
X133232792Y-71062825D01*
X133297034Y-71089434D01*
X133365233Y-71103000D01*
X133434767Y-71103000D01*
X133502966Y-71089434D01*
X133567208Y-71062825D01*
X133625024Y-71024193D01*
X133674193Y-70975024D01*
X133712825Y-70917208D01*
X133739434Y-70852966D01*
X133753000Y-70784767D01*
X133753000Y-70715233D01*
X133739434Y-70647034D01*
X133712825Y-70582792D01*
X133674193Y-70524976D01*
X133625024Y-70475807D01*
X133567208Y-70437175D01*
X133551093Y-70430500D01*
X135542000Y-70430500D01*
X135542000Y-70780500D01*
X135555605Y-70917639D01*
X135595704Y-71049489D01*
X135660755Y-71170982D01*
X135748258Y-71277450D01*
X135854850Y-71364801D01*
X135976436Y-71429679D01*
X136108342Y-71469590D01*
X136134533Y-71474267D01*
X136244500Y-71444750D01*
X136244500Y-70430500D01*
X135542000Y-70430500D01*
X133551093Y-70430500D01*
X133502966Y-70410566D01*
X133434767Y-70397000D01*
X133390891Y-70397000D01*
X133425024Y-70374193D01*
X133474193Y-70325024D01*
X133512825Y-70267208D01*
X133539434Y-70202966D01*
X133553000Y-70134767D01*
X133553000Y-70065233D01*
X133539434Y-69997034D01*
X133512825Y-69932792D01*
X133474193Y-69874976D01*
X133425024Y-69825807D01*
X133367208Y-69787175D01*
X133302966Y-69760566D01*
X133234767Y-69747000D01*
X133165233Y-69747000D01*
X133097034Y-69760566D01*
X133032792Y-69787175D01*
X132974976Y-69825807D01*
X132925807Y-69874976D01*
X132887175Y-69932792D01*
X132860566Y-69997034D01*
X132847000Y-70065233D01*
X128852448Y-70065233D01*
X128815024Y-70027809D01*
X128757208Y-69989177D01*
X128692966Y-69962568D01*
X128624767Y-69949002D01*
X128555233Y-69949002D01*
X128487034Y-69962568D01*
X128422792Y-69989177D01*
X128364976Y-70027809D01*
X128315807Y-70076978D01*
X128277175Y-70134794D01*
X128250566Y-70199036D01*
X128237000Y-70267235D01*
X126827033Y-70267235D01*
X126797028Y-70247186D01*
X126732786Y-70220577D01*
X126664587Y-70207011D01*
X126595053Y-70207011D01*
X126526854Y-70220577D01*
X126462612Y-70247186D01*
X126404796Y-70285818D01*
X126355627Y-70334987D01*
X126316995Y-70392803D01*
X126290386Y-70457045D01*
X126276820Y-70525244D01*
X124773451Y-70525244D01*
X124775024Y-70524193D01*
X124824193Y-70475024D01*
X124862825Y-70417208D01*
X124889434Y-70352966D01*
X124903000Y-70284767D01*
X124903000Y-70215233D01*
X124889434Y-70147034D01*
X124862825Y-70082792D01*
X124824193Y-70024976D01*
X124775024Y-69975807D01*
X124717208Y-69937175D01*
X124652966Y-69910566D01*
X124584767Y-69897000D01*
X124515233Y-69897000D01*
X124447034Y-69910566D01*
X124382792Y-69937175D01*
X124324976Y-69975807D01*
X124275807Y-70024976D01*
X124252084Y-70060479D01*
X124217208Y-70037175D01*
X124152966Y-70010566D01*
X124084767Y-69997000D01*
X124015233Y-69997000D01*
X123947034Y-70010566D01*
X123882792Y-70037175D01*
X123824976Y-70075807D01*
X123775807Y-70124976D01*
X123737175Y-70182792D01*
X123710566Y-70247034D01*
X123697000Y-70315233D01*
X117306485Y-70315233D01*
X117337585Y-70284133D01*
X117376217Y-70226317D01*
X117402826Y-70162075D01*
X117416392Y-70093876D01*
X117416392Y-70024342D01*
X117402826Y-69956143D01*
X117376217Y-69891901D01*
X117337585Y-69834085D01*
X117288416Y-69784916D01*
X117230600Y-69746284D01*
X117166358Y-69719675D01*
X117098159Y-69706109D01*
X117028625Y-69706109D01*
X116960426Y-69719675D01*
X116896184Y-69746284D01*
X116838368Y-69784916D01*
X116789199Y-69834085D01*
X116750567Y-69891901D01*
X116723958Y-69956143D01*
X116710392Y-70024342D01*
X112301000Y-70024342D01*
X112301000Y-69115694D01*
X113812509Y-69115694D01*
X113812509Y-69185228D01*
X113826075Y-69253427D01*
X113852684Y-69317669D01*
X113891316Y-69375485D01*
X113940485Y-69424654D01*
X113998301Y-69463286D01*
X114062543Y-69489895D01*
X114130742Y-69503461D01*
X114200276Y-69503461D01*
X114268475Y-69489895D01*
X114332717Y-69463286D01*
X114390533Y-69424654D01*
X114439702Y-69375485D01*
X114478334Y-69317669D01*
X114504943Y-69253427D01*
X114518509Y-69185228D01*
X114518509Y-69115694D01*
X114511975Y-69082846D01*
X119799387Y-69082846D01*
X119799387Y-69152380D01*
X119812953Y-69220579D01*
X119839562Y-69284821D01*
X119878194Y-69342637D01*
X119927363Y-69391806D01*
X119985179Y-69430438D01*
X120049421Y-69457047D01*
X120117620Y-69470613D01*
X120187154Y-69470613D01*
X120255353Y-69457047D01*
X120319595Y-69430438D01*
X120377411Y-69391806D01*
X120426580Y-69342637D01*
X120465212Y-69284821D01*
X120491821Y-69220579D01*
X120505387Y-69152380D01*
X120505387Y-69082846D01*
X120491938Y-69015233D01*
X121789002Y-69015233D01*
X121789002Y-69084767D01*
X121802568Y-69152966D01*
X121829177Y-69217208D01*
X121867809Y-69275024D01*
X121916978Y-69324193D01*
X121974794Y-69362825D01*
X122039036Y-69389434D01*
X122107235Y-69403000D01*
X122176769Y-69403000D01*
X122244968Y-69389434D01*
X122309210Y-69362825D01*
X122367026Y-69324193D01*
X122416195Y-69275024D01*
X122454827Y-69217208D01*
X122481436Y-69152966D01*
X122495002Y-69084767D01*
X122495002Y-69015233D01*
X122481436Y-68947034D01*
X122454827Y-68882792D01*
X122416195Y-68824976D01*
X122367026Y-68775807D01*
X122309210Y-68737175D01*
X122244968Y-68710566D01*
X122176769Y-68697000D01*
X122107235Y-68697000D01*
X122039036Y-68710566D01*
X121974794Y-68737175D01*
X121916978Y-68775807D01*
X121867809Y-68824976D01*
X121829177Y-68882792D01*
X121802568Y-68947034D01*
X121789002Y-69015233D01*
X120491938Y-69015233D01*
X120491821Y-69014647D01*
X120465212Y-68950405D01*
X120426580Y-68892589D01*
X120377411Y-68843420D01*
X120319595Y-68804788D01*
X120255353Y-68778179D01*
X120187154Y-68764613D01*
X120117620Y-68764613D01*
X120049421Y-68778179D01*
X119985179Y-68804788D01*
X119927363Y-68843420D01*
X119878194Y-68892589D01*
X119839562Y-68950405D01*
X119812953Y-69014647D01*
X119799387Y-69082846D01*
X114511975Y-69082846D01*
X114504943Y-69047495D01*
X114478334Y-68983253D01*
X114439702Y-68925437D01*
X114390533Y-68876268D01*
X114332717Y-68837636D01*
X114268475Y-68811027D01*
X114200276Y-68797461D01*
X114130742Y-68797461D01*
X114062543Y-68811027D01*
X113998301Y-68837636D01*
X113940485Y-68876268D01*
X113891316Y-68925437D01*
X113852684Y-68983253D01*
X113826075Y-69047495D01*
X113812509Y-69115694D01*
X112301000Y-69115694D01*
X112301000Y-68089260D01*
X113319654Y-68089260D01*
X113319654Y-68158794D01*
X113333220Y-68226993D01*
X113359829Y-68291235D01*
X113398461Y-68349051D01*
X113447630Y-68398220D01*
X113505446Y-68436852D01*
X113569688Y-68463461D01*
X113637887Y-68477027D01*
X113707421Y-68477027D01*
X113775620Y-68463461D01*
X113839862Y-68436852D01*
X113897678Y-68398220D01*
X113946847Y-68349051D01*
X113985479Y-68291235D01*
X114012088Y-68226993D01*
X114025654Y-68158794D01*
X114025654Y-68089260D01*
X114012088Y-68021061D01*
X113985479Y-67956819D01*
X113951632Y-67906163D01*
X115647149Y-67906163D01*
X115647149Y-67975697D01*
X115660715Y-68043896D01*
X115687324Y-68108138D01*
X115725956Y-68165954D01*
X115775125Y-68215123D01*
X115832941Y-68253755D01*
X115897183Y-68280364D01*
X115965382Y-68293930D01*
X116034916Y-68293930D01*
X116103115Y-68280364D01*
X116167357Y-68253755D01*
X116225173Y-68215123D01*
X116274342Y-68165954D01*
X116297917Y-68130672D01*
X116297917Y-68173177D01*
X116311483Y-68241376D01*
X116338092Y-68305618D01*
X116376724Y-68363434D01*
X116425893Y-68412603D01*
X116483709Y-68451235D01*
X116547951Y-68477844D01*
X116616150Y-68491410D01*
X116685684Y-68491410D01*
X116753883Y-68477844D01*
X116818125Y-68451235D01*
X116875941Y-68412603D01*
X116925110Y-68363434D01*
X116963742Y-68305618D01*
X116990351Y-68241376D01*
X117003917Y-68173177D01*
X117003917Y-68103643D01*
X116990351Y-68035444D01*
X116963742Y-67971202D01*
X116925110Y-67913386D01*
X116875941Y-67864217D01*
X116818125Y-67825585D01*
X116753883Y-67798976D01*
X116685684Y-67785410D01*
X116616150Y-67785410D01*
X116547951Y-67798976D01*
X116483709Y-67825585D01*
X116425893Y-67864217D01*
X116376724Y-67913386D01*
X116353149Y-67948668D01*
X116353149Y-67906163D01*
X116339583Y-67837964D01*
X116312974Y-67773722D01*
X116274342Y-67715906D01*
X116225173Y-67666737D01*
X116167357Y-67628105D01*
X116103115Y-67601496D01*
X116034916Y-67587930D01*
X115965382Y-67587930D01*
X115897183Y-67601496D01*
X115832941Y-67628105D01*
X115775125Y-67666737D01*
X115725956Y-67715906D01*
X115687324Y-67773722D01*
X115660715Y-67837964D01*
X115647149Y-67906163D01*
X113951632Y-67906163D01*
X113946847Y-67899003D01*
X113897678Y-67849834D01*
X113839862Y-67811202D01*
X113775620Y-67784593D01*
X113707421Y-67771027D01*
X113637887Y-67771027D01*
X113569688Y-67784593D01*
X113505446Y-67811202D01*
X113447630Y-67849834D01*
X113398461Y-67899003D01*
X113359829Y-67956819D01*
X113333220Y-68021061D01*
X113319654Y-68089260D01*
X112301000Y-68089260D01*
X112301000Y-67301000D01*
X123849777Y-67301000D01*
X123837000Y-67365233D01*
M02*
