G04 #@! TF.GenerationSoftware,KiCad,Pcbnew,(5.1.5-0-10_14)*
G04 #@! TF.CreationDate,2020-09-27T01:07:16-07:00*
G04 #@! TF.ProjectId,AD822x_Breakout,41443832-3278-45f4-9272-65616b6f7574,rev?*
G04 #@! TF.SameCoordinates,Original*
G04 #@! TF.FileFunction,Soldermask,Bot*
G04 #@! TF.FilePolarity,Negative*
%FSLAX46Y46*%
G04 Gerber Fmt 4.6, Leading zero omitted, Abs format (unit mm)*
G04 Created by KiCad (PCBNEW (5.1.5-0-10_14)) date 2020-09-27 01:07:16*
%MOMM*%
%LPD*%
G04 APERTURE LIST*
%ADD10C,0.150000*%
G04 APERTURE END LIST*
D10*
G36*
X144893512Y-88003927D02*
G01*
X145042812Y-88033624D01*
X145206784Y-88101544D01*
X145354354Y-88200147D01*
X145479853Y-88325646D01*
X145578456Y-88473216D01*
X145646376Y-88637188D01*
X145681000Y-88811259D01*
X145681000Y-88988741D01*
X145646376Y-89162812D01*
X145578456Y-89326784D01*
X145479853Y-89474354D01*
X145354354Y-89599853D01*
X145206784Y-89698456D01*
X145042812Y-89766376D01*
X144893512Y-89796073D01*
X144868742Y-89801000D01*
X144691258Y-89801000D01*
X144666488Y-89796073D01*
X144517188Y-89766376D01*
X144353216Y-89698456D01*
X144205646Y-89599853D01*
X144080147Y-89474354D01*
X143981544Y-89326784D01*
X143913624Y-89162812D01*
X143879000Y-88988741D01*
X143879000Y-88811259D01*
X143913624Y-88637188D01*
X143981544Y-88473216D01*
X144080147Y-88325646D01*
X144205646Y-88200147D01*
X144353216Y-88101544D01*
X144517188Y-88033624D01*
X144666488Y-88003927D01*
X144691258Y-87999000D01*
X144868742Y-87999000D01*
X144893512Y-88003927D01*
G37*
G36*
X137273512Y-88003927D02*
G01*
X137422812Y-88033624D01*
X137586784Y-88101544D01*
X137734354Y-88200147D01*
X137859853Y-88325646D01*
X137958456Y-88473216D01*
X138026376Y-88637188D01*
X138061000Y-88811259D01*
X138061000Y-88988741D01*
X138026376Y-89162812D01*
X137958456Y-89326784D01*
X137859853Y-89474354D01*
X137734354Y-89599853D01*
X137586784Y-89698456D01*
X137422812Y-89766376D01*
X137273512Y-89796073D01*
X137248742Y-89801000D01*
X137071258Y-89801000D01*
X137046488Y-89796073D01*
X136897188Y-89766376D01*
X136733216Y-89698456D01*
X136585646Y-89599853D01*
X136460147Y-89474354D01*
X136361544Y-89326784D01*
X136293624Y-89162812D01*
X136259000Y-88988741D01*
X136259000Y-88811259D01*
X136293624Y-88637188D01*
X136361544Y-88473216D01*
X136460147Y-88325646D01*
X136585646Y-88200147D01*
X136733216Y-88101544D01*
X136897188Y-88033624D01*
X137046488Y-88003927D01*
X137071258Y-87999000D01*
X137248742Y-87999000D01*
X137273512Y-88003927D01*
G37*
G36*
X144893512Y-85463927D02*
G01*
X145042812Y-85493624D01*
X145206784Y-85561544D01*
X145354354Y-85660147D01*
X145479853Y-85785646D01*
X145578456Y-85933216D01*
X145646376Y-86097188D01*
X145681000Y-86271259D01*
X145681000Y-86448741D01*
X145646376Y-86622812D01*
X145578456Y-86786784D01*
X145479853Y-86934354D01*
X145354354Y-87059853D01*
X145206784Y-87158456D01*
X145042812Y-87226376D01*
X144893512Y-87256073D01*
X144868742Y-87261000D01*
X144691258Y-87261000D01*
X144666488Y-87256073D01*
X144517188Y-87226376D01*
X144353216Y-87158456D01*
X144205646Y-87059853D01*
X144080147Y-86934354D01*
X143981544Y-86786784D01*
X143913624Y-86622812D01*
X143879000Y-86448741D01*
X143879000Y-86271259D01*
X143913624Y-86097188D01*
X143981544Y-85933216D01*
X144080147Y-85785646D01*
X144205646Y-85660147D01*
X144353216Y-85561544D01*
X144517188Y-85493624D01*
X144666488Y-85463927D01*
X144691258Y-85459000D01*
X144868742Y-85459000D01*
X144893512Y-85463927D01*
G37*
G36*
X137273512Y-85463927D02*
G01*
X137422812Y-85493624D01*
X137586784Y-85561544D01*
X137734354Y-85660147D01*
X137859853Y-85785646D01*
X137958456Y-85933216D01*
X138026376Y-86097188D01*
X138061000Y-86271259D01*
X138061000Y-86448741D01*
X138026376Y-86622812D01*
X137958456Y-86786784D01*
X137859853Y-86934354D01*
X137734354Y-87059853D01*
X137586784Y-87158456D01*
X137422812Y-87226376D01*
X137273512Y-87256073D01*
X137248742Y-87261000D01*
X137071258Y-87261000D01*
X137046488Y-87256073D01*
X136897188Y-87226376D01*
X136733216Y-87158456D01*
X136585646Y-87059853D01*
X136460147Y-86934354D01*
X136361544Y-86786784D01*
X136293624Y-86622812D01*
X136259000Y-86448741D01*
X136259000Y-86271259D01*
X136293624Y-86097188D01*
X136361544Y-85933216D01*
X136460147Y-85785646D01*
X136585646Y-85660147D01*
X136733216Y-85561544D01*
X136897188Y-85493624D01*
X137046488Y-85463927D01*
X137071258Y-85459000D01*
X137248742Y-85459000D01*
X137273512Y-85463927D01*
G37*
G36*
X144893512Y-82923927D02*
G01*
X145042812Y-82953624D01*
X145206784Y-83021544D01*
X145354354Y-83120147D01*
X145479853Y-83245646D01*
X145578456Y-83393216D01*
X145646376Y-83557188D01*
X145681000Y-83731259D01*
X145681000Y-83908741D01*
X145646376Y-84082812D01*
X145578456Y-84246784D01*
X145479853Y-84394354D01*
X145354354Y-84519853D01*
X145206784Y-84618456D01*
X145042812Y-84686376D01*
X144893512Y-84716073D01*
X144868742Y-84721000D01*
X144691258Y-84721000D01*
X144666488Y-84716073D01*
X144517188Y-84686376D01*
X144353216Y-84618456D01*
X144205646Y-84519853D01*
X144080147Y-84394354D01*
X143981544Y-84246784D01*
X143913624Y-84082812D01*
X143879000Y-83908741D01*
X143879000Y-83731259D01*
X143913624Y-83557188D01*
X143981544Y-83393216D01*
X144080147Y-83245646D01*
X144205646Y-83120147D01*
X144353216Y-83021544D01*
X144517188Y-82953624D01*
X144666488Y-82923927D01*
X144691258Y-82919000D01*
X144868742Y-82919000D01*
X144893512Y-82923927D01*
G37*
G36*
X137273512Y-82923927D02*
G01*
X137422812Y-82953624D01*
X137586784Y-83021544D01*
X137734354Y-83120147D01*
X137859853Y-83245646D01*
X137958456Y-83393216D01*
X138026376Y-83557188D01*
X138061000Y-83731259D01*
X138061000Y-83908741D01*
X138026376Y-84082812D01*
X137958456Y-84246784D01*
X137859853Y-84394354D01*
X137734354Y-84519853D01*
X137586784Y-84618456D01*
X137422812Y-84686376D01*
X137273512Y-84716073D01*
X137248742Y-84721000D01*
X137071258Y-84721000D01*
X137046488Y-84716073D01*
X136897188Y-84686376D01*
X136733216Y-84618456D01*
X136585646Y-84519853D01*
X136460147Y-84394354D01*
X136361544Y-84246784D01*
X136293624Y-84082812D01*
X136259000Y-83908741D01*
X136259000Y-83731259D01*
X136293624Y-83557188D01*
X136361544Y-83393216D01*
X136460147Y-83245646D01*
X136585646Y-83120147D01*
X136733216Y-83021544D01*
X136897188Y-82953624D01*
X137046488Y-82923927D01*
X137071258Y-82919000D01*
X137248742Y-82919000D01*
X137273512Y-82923927D01*
G37*
G36*
X145681000Y-82181000D02*
G01*
X143879000Y-82181000D01*
X143879000Y-80379000D01*
X145681000Y-80379000D01*
X145681000Y-82181000D01*
G37*
G36*
X138061000Y-82181000D02*
G01*
X136259000Y-82181000D01*
X136259000Y-80379000D01*
X138061000Y-80379000D01*
X138061000Y-82181000D01*
G37*
M02*
