G04 #@! TF.GenerationSoftware,KiCad,Pcbnew,(5.1.5-0-10_14)*
G04 #@! TF.CreationDate,2020-09-27T01:07:16-07:00*
G04 #@! TF.ProjectId,AD822x_Breakout,41443832-3278-45f4-9272-65616b6f7574,rev?*
G04 #@! TF.SameCoordinates,Original*
G04 #@! TF.FileFunction,Legend,Bot*
G04 #@! TF.FilePolarity,Positive*
%FSLAX46Y46*%
G04 Gerber Fmt 4.6, Leading zero omitted, Abs format (unit mm)*
G04 Created by KiCad (PCBNEW (5.1.5-0-10_14)) date 2020-09-27 01:07:16*
%MOMM*%
%LPD*%
G04 APERTURE LIST*
%ADD10C,0.150000*%
%ADD11C,0.120000*%
%ADD12O,1.802000X1.802000*%
%ADD13R,1.802000X1.802000*%
G04 APERTURE END LIST*
D10*
X140923333Y-87781428D02*
X140923333Y-87305238D01*
X140637619Y-87876666D02*
X141637619Y-87543333D01*
X140637619Y-87210000D01*
X140637619Y-86876666D02*
X141637619Y-86876666D01*
X141637619Y-86638571D01*
X141590000Y-86495714D01*
X141494761Y-86400476D01*
X141399523Y-86352857D01*
X141209047Y-86305238D01*
X141066190Y-86305238D01*
X140875714Y-86352857D01*
X140780476Y-86400476D01*
X140685238Y-86495714D01*
X140637619Y-86638571D01*
X140637619Y-86876666D01*
X141209047Y-85733809D02*
X141256666Y-85829047D01*
X141304285Y-85876666D01*
X141399523Y-85924285D01*
X141447142Y-85924285D01*
X141542380Y-85876666D01*
X141590000Y-85829047D01*
X141637619Y-85733809D01*
X141637619Y-85543333D01*
X141590000Y-85448095D01*
X141542380Y-85400476D01*
X141447142Y-85352857D01*
X141399523Y-85352857D01*
X141304285Y-85400476D01*
X141256666Y-85448095D01*
X141209047Y-85543333D01*
X141209047Y-85733809D01*
X141161428Y-85829047D01*
X141113809Y-85876666D01*
X141018571Y-85924285D01*
X140828095Y-85924285D01*
X140732857Y-85876666D01*
X140685238Y-85829047D01*
X140637619Y-85733809D01*
X140637619Y-85543333D01*
X140685238Y-85448095D01*
X140732857Y-85400476D01*
X140828095Y-85352857D01*
X141018571Y-85352857D01*
X141113809Y-85400476D01*
X141161428Y-85448095D01*
X141209047Y-85543333D01*
X141542380Y-84971904D02*
X141590000Y-84924285D01*
X141637619Y-84829047D01*
X141637619Y-84590952D01*
X141590000Y-84495714D01*
X141542380Y-84448095D01*
X141447142Y-84400476D01*
X141351904Y-84400476D01*
X141209047Y-84448095D01*
X140637619Y-85019523D01*
X140637619Y-84400476D01*
X141542380Y-84019523D02*
X141590000Y-83971904D01*
X141637619Y-83876666D01*
X141637619Y-83638571D01*
X141590000Y-83543333D01*
X141542380Y-83495714D01*
X141447142Y-83448095D01*
X141351904Y-83448095D01*
X141209047Y-83495714D01*
X140637619Y-84067142D01*
X140637619Y-83448095D01*
X140637619Y-83114761D02*
X141304285Y-82590952D01*
X141304285Y-83114761D02*
X140637619Y-82590952D01*
D11*
X138490000Y-79950000D02*
X137160000Y-79950000D01*
X138490000Y-81280000D02*
X138490000Y-79950000D01*
X138490000Y-82550000D02*
X135830000Y-82550000D01*
X135830000Y-82550000D02*
X135830000Y-90230000D01*
X138490000Y-82550000D02*
X138490000Y-90230000D01*
X138490000Y-90230000D02*
X135830000Y-90230000D01*
X146110000Y-90230000D02*
X143450000Y-90230000D01*
X146110000Y-82550000D02*
X146110000Y-90230000D01*
X143450000Y-82550000D02*
X143450000Y-90230000D01*
X146110000Y-82550000D02*
X143450000Y-82550000D01*
X146110000Y-81280000D02*
X146110000Y-79950000D01*
X146110000Y-79950000D02*
X144780000Y-79950000D01*
%LPC*%
D12*
X137160000Y-88900000D03*
X137160000Y-86360000D03*
X137160000Y-83820000D03*
D13*
X137160000Y-81280000D03*
X144780000Y-81280000D03*
D12*
X144780000Y-83820000D03*
X144780000Y-86360000D03*
X144780000Y-88900000D03*
M02*
